  0
SECTION
  2
HEADER
  9
$ANGBASE
  50
0.0
  9
$ANGDIR
  70
1
  9
$MEASUREMENT
  70
1
  0
ENDSEC
  0
SECTION
  2
TABLES
  0
TABLE
  2
LTYPE
  70
4
  0
LTYPE
  5
40F
  2
CONTINUOUS
  70
0
  3
Solid line
  72
65
  73
0
  40
0.0
  0
LTYPE
  5
410
  2
DASHDOT
 70
0
  3
Dash Dot ____ _ ____ _
 72
65
 73
4
 40
2.0
 49
1.25
 49
-0.25
 49
0.25
 49
-0.25
  0
LTYPE
  5
411
  2
DASHED
 70
0
  3
Dashed __ __ __ __ __
 72
65
 73
2
 40
0.75
 49
0.5
 49
-0.25
  0
LTYPE
  5
43B
  2
DOTTED
 70
0
  3
Dotted .  .  .  .
 72
65
 73
2
 40
0.2
 49
0.0
 49
-0.2
  0
ENDTAB
  0
TABLE
  2
STYLE
  70
4
  0
STYLE
  2
KICAD
  70
0
  40
0
  41
1
  42
1
  50
0
  71
0
  3
isocp.shx
  0
STYLE
  2
KICADB
  70
0
  40
0
  41
1
  42
1
  50
0
  71
0
  3
isocp.shx
  0
STYLE
  2
KICADI
  70
0
  40
0
  41
1
  42
1
  50
15
  71
0
  3
isocp.shx
  0
STYLE
  2
KICADBI
  70
0
  40
0
  41
1
  42
1
  50
15
  71
0
  3
isocp.shx
  0
ENDTAB
  0
TABLE
  2
LAYER
  70
1
  0
LAYER
  2
BLACK
  70
0
  62
7
  6
CONTINUOUS
  0
ENDTAB
  0
ENDSEC
  0
SECTION
  2
ENTITIES
0
LINE
8
BLACK
6
CONTINUOUS
10
33.4909
20
-122.27
11
33.4913
21
-36.7559
0
LINE
8
BLACK
6
CONTINUOUS
10
206.846
20
-36.8038
11
206.846
21
-122.27
0
LINE
8
BLACK
6
CONTINUOUS
10
33.4913
20
-36.7559
11
206.846
21
-36.8038
0
CIRCLE
8
BLACK
10
50.5089
20
-99.4098
40
1.48
0
CIRCLE
8
BLACK
10
182.081
20
-115.285
40
1.48
0
CIRCLE
8
BLACK
10
50.5089
20
-49.866
40
1.48
0
LINE
8
BLACK
6
CONTINUOUS
10
206.846
20
-122.27
11
33.4909
21
-122.27
0
CIRCLE
8
BLACK
10
110.326
20
-110.205
40
1.48
0
CIRCLE
8
BLACK
10
203.036
20
-43.246
40
1.48
0
LINE
8
BLACK
6
CONTINUOUS
10
35.9921
20
-125.45
11
35.9921
21
-123.45
0
LINE
8
BLACK
6
CONTINUOUS
10
35.9921
20
-123.45
11
36.4682
21
-123.45
0
LINE
8
BLACK
6
CONTINUOUS
10
36.4682
20
-123.45
11
36.754
21
-123.545
0
LINE
8
BLACK
6
CONTINUOUS
10
36.754
20
-123.545
11
36.9444
21
-123.735
0
LINE
8
BLACK
6
CONTINUOUS
10
36.9444
20
-123.735
11
37.0397
21
-123.926
0
LINE
8
BLACK
6
CONTINUOUS
10
37.0397
20
-123.926
11
37.1349
21
-124.307
0
LINE
8
BLACK
6
CONTINUOUS
10
37.1349
20
-124.307
11
37.1349
21
-124.592
0
LINE
8
BLACK
6
CONTINUOUS
10
37.1349
20
-124.592
11
37.0397
21
-124.973
0
LINE
8
BLACK
6
CONTINUOUS
10
37.0397
20
-124.973
11
36.9444
21
-125.164
0
LINE
8
BLACK
6
CONTINUOUS
10
36.9444
20
-125.164
11
36.754
21
-125.354
0
LINE
8
BLACK
6
CONTINUOUS
10
36.754
20
-125.354
11
36.4682
21
-125.45
0
LINE
8
BLACK
6
CONTINUOUS
10
36.4682
20
-125.45
11
35.9921
21
-125.45
0
LINE
8
BLACK
6
CONTINUOUS
10
37.9921
20
-125.45
11
37.9921
21
-124.116
0
LINE
8
BLACK
6
CONTINUOUS
10
37.9921
20
-124.497
11
38.0873
21
-124.307
0
LINE
8
BLACK
6
CONTINUOUS
10
38.0873
20
-124.307
11
38.1825
21
-124.211
0
LINE
8
BLACK
6
CONTINUOUS
10
38.1825
20
-124.211
11
38.373
21
-124.116
0
LINE
8
BLACK
6
CONTINUOUS
10
38.373
20
-124.116
11
38.5635
21
-124.116
0
LINE
8
BLACK
6
CONTINUOUS
10
39.2302
20
-125.45
11
39.2302
21
-124.116
0
LINE
8
BLACK
6
CONTINUOUS
10
39.2302
20
-123.45
11
39.1349
21
-123.545
0
LINE
8
BLACK
6
CONTINUOUS
10
39.1349
20
-123.545
11
39.2302
21
-123.64
0
LINE
8
BLACK
6
CONTINUOUS
10
39.2302
20
-123.64
11
39.3254
21
-123.545
0
LINE
8
BLACK
6
CONTINUOUS
10
39.3254
20
-123.545
11
39.2302
21
-123.45
0
LINE
8
BLACK
6
CONTINUOUS
10
39.2302
20
-123.45
11
39.2302
21
-123.64
0
LINE
8
BLACK
6
CONTINUOUS
10
40.4682
20
-125.45
11
40.2778
21
-125.354
0
LINE
8
BLACK
6
CONTINUOUS
10
40.2778
20
-125.354
11
40.1825
21
-125.164
0
LINE
8
BLACK
6
CONTINUOUS
10
40.1825
20
-125.164
11
40.1825
21
-123.45
0
LINE
8
BLACK
6
CONTINUOUS
10
41.5159
20
-125.45
11
41.3254
21
-125.354
0
LINE
8
BLACK
6
CONTINUOUS
10
41.3254
20
-125.354
11
41.2302
21
-125.164
0
LINE
8
BLACK
6
CONTINUOUS
10
41.2302
20
-125.164
11
41.2302
21
-123.45
0
LINE
8
BLACK
6
CONTINUOUS
10
43.8016
20
-125.45
11
43.8016
21
-123.45
0
LINE
8
BLACK
6
CONTINUOUS
10
43.8016
20
-123.45
11
44.4682
21
-124.878
0
LINE
8
BLACK
6
CONTINUOUS
10
44.4682
20
-124.878
11
45.1349
21
-123.45
0
LINE
8
BLACK
6
CONTINUOUS
10
45.1349
20
-123.45
11
45.1349
21
-125.45
0
LINE
8
BLACK
6
CONTINUOUS
10
46.9444
20
-125.45
11
46.9444
21
-124.402
0
LINE
8
BLACK
6
CONTINUOUS
10
46.9444
20
-124.402
11
46.8492
21
-124.211
0
LINE
8
BLACK
6
CONTINUOUS
10
46.8492
20
-124.211
11
46.6587
21
-124.116
0
LINE
8
BLACK
6
CONTINUOUS
10
46.6587
20
-124.116
11
46.2778
21
-124.116
0
LINE
8
BLACK
6
CONTINUOUS
10
46.2778
20
-124.116
11
46.0873
21
-124.211
0
LINE
8
BLACK
6
CONTINUOUS
10
46.9444
20
-125.354
11
46.754
21
-125.45
0
LINE
8
BLACK
6
CONTINUOUS
10
46.754
20
-125.45
11
46.2778
21
-125.45
0
LINE
8
BLACK
6
CONTINUOUS
10
46.2778
20
-125.45
11
46.0873
21
-125.354
0
LINE
8
BLACK
6
CONTINUOUS
10
46.0873
20
-125.354
11
45.9921
21
-125.164
0
LINE
8
BLACK
6
CONTINUOUS
10
45.9921
20
-125.164
11
45.9921
21
-124.973
0
LINE
8
BLACK
6
CONTINUOUS
10
45.9921
20
-124.973
11
46.0873
21
-124.783
0
LINE
8
BLACK
6
CONTINUOUS
10
46.0873
20
-124.783
11
46.2778
21
-124.688
0
LINE
8
BLACK
6
CONTINUOUS
10
46.2778
20
-124.688
11
46.754
21
-124.688
0
LINE
8
BLACK
6
CONTINUOUS
10
46.754
20
-124.688
11
46.9444
21
-124.592
0
LINE
8
BLACK
6
CONTINUOUS
10
47.8968
20
-124.116
11
47.8968
21
-126.116
0
LINE
8
BLACK
6
CONTINUOUS
10
47.8968
20
-124.211
11
48.0873
21
-124.116
0
LINE
8
BLACK
6
CONTINUOUS
10
48.0873
20
-124.116
11
48.4682
21
-124.116
0
LINE
8
BLACK
6
CONTINUOUS
10
48.4682
20
-124.116
11
48.6587
21
-124.211
0
LINE
8
BLACK
6
CONTINUOUS
10
48.6587
20
-124.211
11
48.754
21
-124.307
0
LINE
8
BLACK
6
CONTINUOUS
10
48.754
20
-124.307
11
48.8492
21
-124.497
0
LINE
8
BLACK
6
CONTINUOUS
10
48.8492
20
-124.497
11
48.8492
21
-125.069
0
LINE
8
BLACK
6
CONTINUOUS
10
48.8492
20
-125.069
11
48.754
21
-125.259
0
LINE
8
BLACK
6
CONTINUOUS
10
48.754
20
-125.259
11
48.6587
21
-125.354
0
LINE
8
BLACK
6
CONTINUOUS
10
48.6587
20
-125.354
11
48.4682
21
-125.45
0
LINE
8
BLACK
6
CONTINUOUS
10
48.4682
20
-125.45
11
48.0873
21
-125.45
0
LINE
8
BLACK
6
CONTINUOUS
10
48.0873
20
-125.45
11
47.8968
21
-125.354
0
LINE
8
BLACK
6
CONTINUOUS
10
49.7063
20
-125.259
11
49.8016
21
-125.354
0
LINE
8
BLACK
6
CONTINUOUS
10
49.8016
20
-125.354
11
49.7063
21
-125.45
0
LINE
8
BLACK
6
CONTINUOUS
10
49.7063
20
-125.45
11
49.6111
21
-125.354
0
LINE
8
BLACK
6
CONTINUOUS
10
49.6111
20
-125.354
11
49.7063
21
-125.259
0
LINE
8
BLACK
6
CONTINUOUS
10
49.7063
20
-125.259
11
49.7063
21
-125.45
0
LINE
8
BLACK
6
CONTINUOUS
10
49.7063
20
-124.211
11
49.8016
21
-124.307
0
LINE
8
BLACK
6
CONTINUOUS
10
49.8016
20
-124.307
11
49.7063
21
-124.402
0
LINE
8
BLACK
6
CONTINUOUS
10
49.7063
20
-124.402
11
49.6111
21
-124.307
0
LINE
8
BLACK
6
CONTINUOUS
10
49.6111
20
-124.307
11
49.7063
21
-124.211
0
LINE
8
BLACK
6
CONTINUOUS
10
49.7063
20
-124.211
11
49.7063
21
-124.402
  0
ENDSEC
  0
EOF
