  0
SECTION
  2
HEADER
  9
$ANGBASE
  50
0.0
  9
$ANGDIR
  70
1
  9
$MEASUREMENT
  70
1
  0
ENDSEC
  0
SECTION
  2
TABLES
  0
TABLE
  2
LTYPE
  70
4
  0
LTYPE
  5
40F
  2
CONTINUOUS
  70
0
  3
Solid line
  72
65
  73
0
  40
0.0
  0
LTYPE
  5
410
  2
DASHDOT
 70
0
  3
Dash Dot ____ _ ____ _
 72
65
 73
4
 40
2.0
 49
1.25
 49
-0.25
 49
0.25
 49
-0.25
  0
LTYPE
  5
411
  2
DASHED
 70
0
  3
Dashed __ __ __ __ __
 72
65
 73
2
 40
0.75
 49
0.5
 49
-0.25
  0
LTYPE
  5
43B
  2
DOTTED
 70
0
  3
Dotted .  .  .  .
 72
65
 73
2
 40
0.2
 49
0.0
 49
-0.2
  0
ENDTAB
  0
TABLE
  2
STYLE
  70
4
  0
STYLE
  2
KICAD
  70
0
  40
0
  41
1
  42
1
  50
0
  71
0
  3
isocp.shx
  0
STYLE
  2
KICADB
  70
0
  40
0
  41
1
  42
1
  50
0
  71
0
  3
isocp.shx
  0
STYLE
  2
KICADI
  70
0
  40
0
  41
1
  42
1
  50
15
  71
0
  3
isocp.shx
  0
STYLE
  2
KICADBI
  70
0
  40
0
  41
1
  42
1
  50
15
  71
0
  3
isocp.shx
  0
ENDTAB
  0
TABLE
  2
LAYER
  70
1
  0
LAYER
  2
BLACK
  70
0
  62
7
  6
CONTINUOUS
  0
ENDTAB
  0
ENDSEC
  0
SECTION
  2
ENTITIES
0
LINE
8
BLACK
6
CONTINUOUS
10
-26.9598
20
-46.6272
11
-26.9598
21
-78.6272
0
LINE
8
BLACK
6
CONTINUOUS
10
-26.9598
20
-78.6272
11
81.0402
21
-78.6272
0
LINE
8
BLACK
6
CONTINUOUS
10
81.0402
20
-78.6272
11
81.0402
21
-46.6272
0
LINE
8
BLACK
6
CONTINUOUS
10
81.0402
20
-46.6272
11
-26.9598
21
-46.6272
0
LINE
8
BLACK
6
CONTINUOUS
10
-193.962
20
109.38
11
-193.962
21
-80.6272
0
LINE
8
BLACK
6
CONTINUOUS
10
-193.962
20
-80.6272
11
83.0402
21
-80.6272
0
LINE
8
BLACK
6
CONTINUOUS
10
83.0402
20
-80.6272
11
83.0402
21
109.38
0
LINE
8
BLACK
6
CONTINUOUS
10
83.0402
20
109.38
11
-193.962
21
109.38
0
LINE
8
BLACK
6
CONTINUOUS
10
-191.962
20
107.38
11
-191.962
21
-78.6272
0
LINE
8
BLACK
6
CONTINUOUS
10
-191.962
20
-78.6272
11
81.0402
21
-78.6272
0
LINE
8
BLACK
6
CONTINUOUS
10
81.0402
20
-78.6272
11
81.0402
21
107.38
0
LINE
8
BLACK
6
CONTINUOUS
10
81.0402
20
107.38
11
-191.962
21
107.38
0
LINE
8
BLACK
6
CONTINUOUS
10
-143.962
20
107.38
11
-143.962
21
109.38
0
LINE
8
BLACK
6
CONTINUOUS
10
-93.962
20
107.38
11
-93.962
21
109.38
0
LINE
8
BLACK
6
CONTINUOUS
10
-43.962
20
107.38
11
-43.962
21
109.38
0
LINE
8
BLACK
6
CONTINUOUS
10
6.038
20
107.38
11
6.038
21
109.38
0
LINE
8
BLACK
6
CONTINUOUS
10
56.038
20
107.38
11
56.038
21
109.38
0
LINE
8
BLACK
6
CONTINUOUS
10
-167.897
20
107.792
11
-168.639
21
107.792
0
LINE
8
BLACK
6
CONTINUOUS
10
-168.268
20
107.792
11
-168.268
21
109.092
0
LINE
8
BLACK
6
CONTINUOUS
10
-168.268
20
109.092
11
-168.392
21
108.906
0
LINE
8
BLACK
6
CONTINUOUS
10
-168.392
20
108.906
11
-168.516
21
108.782
0
LINE
8
BLACK
6
CONTINUOUS
10
-168.516
20
108.782
11
-168.639
21
108.72
0
LINE
8
BLACK
6
CONTINUOUS
10
-118.639
20
108.968
11
-118.577
21
109.03
0
LINE
8
BLACK
6
CONTINUOUS
10
-118.577
20
109.03
11
-118.454
21
109.092
0
LINE
8
BLACK
6
CONTINUOUS
10
-118.454
20
109.092
11
-118.144
21
109.092
0
LINE
8
BLACK
6
CONTINUOUS
10
-118.144
20
109.092
11
-118.02
21
109.03
0
LINE
8
BLACK
6
CONTINUOUS
10
-118.02
20
109.03
11
-117.958
21
108.968
0
LINE
8
BLACK
6
CONTINUOUS
10
-117.958
20
108.968
11
-117.897
21
108.844
0
LINE
8
BLACK
6
CONTINUOUS
10
-117.897
20
108.844
11
-117.897
21
108.72
0
LINE
8
BLACK
6
CONTINUOUS
10
-117.897
20
108.72
11
-117.958
21
108.535
0
LINE
8
BLACK
6
CONTINUOUS
10
-117.958
20
108.535
11
-118.701
21
107.792
0
LINE
8
BLACK
6
CONTINUOUS
10
-118.701
20
107.792
11
-117.897
21
107.792
0
LINE
8
BLACK
6
CONTINUOUS
10
-68.7013
20
109.092
11
-67.8965
21
109.092
0
LINE
8
BLACK
6
CONTINUOUS
10
-67.8965
20
109.092
11
-68.3299
21
108.597
0
LINE
8
BLACK
6
CONTINUOUS
10
-68.3299
20
108.597
11
-68.1441
21
108.597
0
LINE
8
BLACK
6
CONTINUOUS
10
-68.1441
20
108.597
11
-68.0203
21
108.535
0
LINE
8
BLACK
6
CONTINUOUS
10
-68.0203
20
108.535
11
-67.9584
21
108.473
0
LINE
8
BLACK
6
CONTINUOUS
10
-67.9584
20
108.473
11
-67.8965
21
108.349
0
LINE
8
BLACK
6
CONTINUOUS
10
-67.8965
20
108.349
11
-67.8965
21
108.04
0
LINE
8
BLACK
6
CONTINUOUS
10
-67.8965
20
108.04
11
-67.9584
21
107.916
0
LINE
8
BLACK
6
CONTINUOUS
10
-67.9584
20
107.916
11
-68.0203
21
107.854
0
LINE
8
BLACK
6
CONTINUOUS
10
-68.0203
20
107.854
11
-68.1441
21
107.792
0
LINE
8
BLACK
6
CONTINUOUS
10
-68.1441
20
107.792
11
-68.5156
21
107.792
0
LINE
8
BLACK
6
CONTINUOUS
10
-68.5156
20
107.792
11
-68.6394
21
107.854
0
LINE
8
BLACK
6
CONTINUOUS
10
-68.6394
20
107.854
11
-68.7013
21
107.916
0
LINE
8
BLACK
6
CONTINUOUS
10
-18.0203
20
108.659
11
-18.0203
21
107.792
0
LINE
8
BLACK
6
CONTINUOUS
10
-18.3299
20
109.154
11
-18.6394
21
108.225
0
LINE
8
BLACK
6
CONTINUOUS
10
-18.6394
20
108.225
11
-17.8346
21
108.225
0
LINE
8
BLACK
6
CONTINUOUS
10
32.0416
20
109.092
11
31.4225
21
109.092
0
LINE
8
BLACK
6
CONTINUOUS
10
31.4225
20
109.092
11
31.3606
21
108.473
0
LINE
8
BLACK
6
CONTINUOUS
10
31.3606
20
108.473
11
31.4225
21
108.535
0
LINE
8
BLACK
6
CONTINUOUS
10
31.4225
20
108.535
11
31.5463
21
108.597
0
LINE
8
BLACK
6
CONTINUOUS
10
31.5463
20
108.597
11
31.8559
21
108.597
0
LINE
8
BLACK
6
CONTINUOUS
10
31.8559
20
108.597
11
31.9797
21
108.535
0
LINE
8
BLACK
6
CONTINUOUS
10
31.9797
20
108.535
11
32.0416
21
108.473
0
LINE
8
BLACK
6
CONTINUOUS
10
32.0416
20
108.473
11
32.1035
21
108.349
0
LINE
8
BLACK
6
CONTINUOUS
10
32.1035
20
108.349
11
32.1035
21
108.04
0
LINE
8
BLACK
6
CONTINUOUS
10
32.1035
20
108.04
11
32.0416
21
107.916
0
LINE
8
BLACK
6
CONTINUOUS
10
32.0416
20
107.916
11
31.9797
21
107.854
0
LINE
8
BLACK
6
CONTINUOUS
10
31.9797
20
107.854
11
31.8559
21
107.792
0
LINE
8
BLACK
6
CONTINUOUS
10
31.8559
20
107.792
11
31.5463
21
107.792
0
LINE
8
BLACK
6
CONTINUOUS
10
31.5463
20
107.792
11
31.4225
21
107.854
0
LINE
8
BLACK
6
CONTINUOUS
10
31.4225
20
107.854
11
31.3606
21
107.916
0
LINE
8
BLACK
6
CONTINUOUS
10
81.9797
20
109.092
11
81.732
21
109.092
0
LINE
8
BLACK
6
CONTINUOUS
10
81.732
20
109.092
11
81.6082
21
109.03
0
LINE
8
BLACK
6
CONTINUOUS
10
81.6082
20
109.03
11
81.5463
21
108.968
0
LINE
8
BLACK
6
CONTINUOUS
10
81.5463
20
108.968
11
81.4225
21
108.782
0
LINE
8
BLACK
6
CONTINUOUS
10
81.4225
20
108.782
11
81.3606
21
108.535
0
LINE
8
BLACK
6
CONTINUOUS
10
81.3606
20
108.535
11
81.3606
21
108.04
0
LINE
8
BLACK
6
CONTINUOUS
10
81.3606
20
108.04
11
81.4225
21
107.916
0
LINE
8
BLACK
6
CONTINUOUS
10
81.4225
20
107.916
11
81.4844
21
107.854
0
LINE
8
BLACK
6
CONTINUOUS
10
81.4844
20
107.854
11
81.6082
21
107.792
0
LINE
8
BLACK
6
CONTINUOUS
10
81.6082
20
107.792
11
81.8559
21
107.792
0
LINE
8
BLACK
6
CONTINUOUS
10
81.8559
20
107.792
11
81.9797
21
107.854
0
LINE
8
BLACK
6
CONTINUOUS
10
81.9797
20
107.854
11
82.0416
21
107.916
0
LINE
8
BLACK
6
CONTINUOUS
10
82.0416
20
107.916
11
82.1035
21
108.04
0
LINE
8
BLACK
6
CONTINUOUS
10
82.1035
20
108.04
11
82.1035
21
108.349
0
LINE
8
BLACK
6
CONTINUOUS
10
82.1035
20
108.349
11
82.0416
21
108.473
0
LINE
8
BLACK
6
CONTINUOUS
10
82.0416
20
108.473
11
81.9797
21
108.535
0
LINE
8
BLACK
6
CONTINUOUS
10
81.9797
20
108.535
11
81.8559
21
108.597
0
LINE
8
BLACK
6
CONTINUOUS
10
81.8559
20
108.597
11
81.6082
21
108.597
0
LINE
8
BLACK
6
CONTINUOUS
10
81.6082
20
108.597
11
81.4844
21
108.535
0
LINE
8
BLACK
6
CONTINUOUS
10
81.4844
20
108.535
11
81.4225
21
108.473
0
LINE
8
BLACK
6
CONTINUOUS
10
81.4225
20
108.473
11
81.3606
21
108.349
0
LINE
8
BLACK
6
CONTINUOUS
10
-143.962
20
-78.6272
11
-143.962
21
-80.6272
0
LINE
8
BLACK
6
CONTINUOUS
10
-93.962
20
-78.6272
11
-93.962
21
-80.6272
0
LINE
8
BLACK
6
CONTINUOUS
10
-43.962
20
-78.6272
11
-43.962
21
-80.6272
0
LINE
8
BLACK
6
CONTINUOUS
10
6.038
20
-78.6272
11
6.038
21
-80.6272
0
LINE
8
BLACK
6
CONTINUOUS
10
56.038
20
-78.6272
11
56.038
21
-80.6272
0
LINE
8
BLACK
6
CONTINUOUS
10
-167.897
20
-80.2153
11
-168.639
21
-80.2153
0
LINE
8
BLACK
6
CONTINUOUS
10
-168.268
20
-80.2153
11
-168.268
21
-78.9153
0
LINE
8
BLACK
6
CONTINUOUS
10
-168.268
20
-78.9153
11
-168.392
21
-79.101
0
LINE
8
BLACK
6
CONTINUOUS
10
-168.392
20
-79.101
11
-168.516
21
-79.2248
0
LINE
8
BLACK
6
CONTINUOUS
10
-168.516
20
-79.2248
11
-168.639
21
-79.2867
0
LINE
8
BLACK
6
CONTINUOUS
10
-118.639
20
-79.0391
11
-118.577
21
-78.9772
0
LINE
8
BLACK
6
CONTINUOUS
10
-118.577
20
-78.9772
11
-118.454
21
-78.9153
0
LINE
8
BLACK
6
CONTINUOUS
10
-118.454
20
-78.9153
11
-118.144
21
-78.9153
0
LINE
8
BLACK
6
CONTINUOUS
10
-118.144
20
-78.9153
11
-118.02
21
-78.9772
0
LINE
8
BLACK
6
CONTINUOUS
10
-118.02
20
-78.9772
11
-117.958
21
-79.0391
0
LINE
8
BLACK
6
CONTINUOUS
10
-117.958
20
-79.0391
11
-117.897
21
-79.1629
0
LINE
8
BLACK
6
CONTINUOUS
10
-117.897
20
-79.1629
11
-117.897
21
-79.2867
0
LINE
8
BLACK
6
CONTINUOUS
10
-117.897
20
-79.2867
11
-117.958
21
-79.4724
0
LINE
8
BLACK
6
CONTINUOUS
10
-117.958
20
-79.4724
11
-118.701
21
-80.2153
0
LINE
8
BLACK
6
CONTINUOUS
10
-118.701
20
-80.2153
11
-117.897
21
-80.2153
0
LINE
8
BLACK
6
CONTINUOUS
10
-68.7013
20
-78.9153
11
-67.8965
21
-78.9153
0
LINE
8
BLACK
6
CONTINUOUS
10
-67.8965
20
-78.9153
11
-68.3299
21
-79.4105
0
LINE
8
BLACK
6
CONTINUOUS
10
-68.3299
20
-79.4105
11
-68.1441
21
-79.4105
0
LINE
8
BLACK
6
CONTINUOUS
10
-68.1441
20
-79.4105
11
-68.0203
21
-79.4724
0
LINE
8
BLACK
6
CONTINUOUS
10
-68.0203
20
-79.4724
11
-67.9584
21
-79.5343
0
LINE
8
BLACK
6
CONTINUOUS
10
-67.9584
20
-79.5343
11
-67.8965
21
-79.6582
0
LINE
8
BLACK
6
CONTINUOUS
10
-67.8965
20
-79.6582
11
-67.8965
21
-79.9677
0
LINE
8
BLACK
6
CONTINUOUS
10
-67.8965
20
-79.9677
11
-67.9584
21
-80.0915
0
LINE
8
BLACK
6
CONTINUOUS
10
-67.9584
20
-80.0915
11
-68.0203
21
-80.1534
0
LINE
8
BLACK
6
CONTINUOUS
10
-68.0203
20
-80.1534
11
-68.1441
21
-80.2153
0
LINE
8
BLACK
6
CONTINUOUS
10
-68.1441
20
-80.2153
11
-68.5156
21
-80.2153
0
LINE
8
BLACK
6
CONTINUOUS
10
-68.5156
20
-80.2153
11
-68.6394
21
-80.1534
0
LINE
8
BLACK
6
CONTINUOUS
10
-68.6394
20
-80.1534
11
-68.7013
21
-80.0915
0
LINE
8
BLACK
6
CONTINUOUS
10
-18.0203
20
-79.3486
11
-18.0203
21
-80.2153
0
LINE
8
BLACK
6
CONTINUOUS
10
-18.3299
20
-78.8534
11
-18.6394
21
-79.782
0
LINE
8
BLACK
6
CONTINUOUS
10
-18.6394
20
-79.782
11
-17.8346
21
-79.782
0
LINE
8
BLACK
6
CONTINUOUS
10
32.0416
20
-78.9153
11
31.4225
21
-78.9153
0
LINE
8
BLACK
6
CONTINUOUS
10
31.4225
20
-78.9153
11
31.3606
21
-79.5343
0
LINE
8
BLACK
6
CONTINUOUS
10
31.3606
20
-79.5343
11
31.4225
21
-79.4724
0
LINE
8
BLACK
6
CONTINUOUS
10
31.4225
20
-79.4724
11
31.5463
21
-79.4105
0
LINE
8
BLACK
6
CONTINUOUS
10
31.5463
20
-79.4105
11
31.8559
21
-79.4105
0
LINE
8
BLACK
6
CONTINUOUS
10
31.8559
20
-79.4105
11
31.9797
21
-79.4724
0
LINE
8
BLACK
6
CONTINUOUS
10
31.9797
20
-79.4724
11
32.0416
21
-79.5343
0
LINE
8
BLACK
6
CONTINUOUS
10
32.0416
20
-79.5343
11
32.1035
21
-79.6582
0
LINE
8
BLACK
6
CONTINUOUS
10
32.1035
20
-79.6582
11
32.1035
21
-79.9677
0
LINE
8
BLACK
6
CONTINUOUS
10
32.1035
20
-79.9677
11
32.0416
21
-80.0915
0
LINE
8
BLACK
6
CONTINUOUS
10
32.0416
20
-80.0915
11
31.9797
21
-80.1534
0
LINE
8
BLACK
6
CONTINUOUS
10
31.9797
20
-80.1534
11
31.8559
21
-80.2153
0
LINE
8
BLACK
6
CONTINUOUS
10
31.8559
20
-80.2153
11
31.5463
21
-80.2153
0
LINE
8
BLACK
6
CONTINUOUS
10
31.5463
20
-80.2153
11
31.4225
21
-80.1534
0
LINE
8
BLACK
6
CONTINUOUS
10
31.4225
20
-80.1534
11
31.3606
21
-80.0915
0
LINE
8
BLACK
6
CONTINUOUS
10
81.9797
20
-78.9153
11
81.732
21
-78.9153
0
LINE
8
BLACK
6
CONTINUOUS
10
81.732
20
-78.9153
11
81.6082
21
-78.9772
0
LINE
8
BLACK
6
CONTINUOUS
10
81.6082
20
-78.9772
11
81.5463
21
-79.0391
0
LINE
8
BLACK
6
CONTINUOUS
10
81.5463
20
-79.0391
11
81.4225
21
-79.2248
0
LINE
8
BLACK
6
CONTINUOUS
10
81.4225
20
-79.2248
11
81.3606
21
-79.4724
0
LINE
8
BLACK
6
CONTINUOUS
10
81.3606
20
-79.4724
11
81.3606
21
-79.9677
0
LINE
8
BLACK
6
CONTINUOUS
10
81.3606
20
-79.9677
11
81.4225
21
-80.0915
0
LINE
8
BLACK
6
CONTINUOUS
10
81.4225
20
-80.0915
11
81.4844
21
-80.1534
0
LINE
8
BLACK
6
CONTINUOUS
10
81.4844
20
-80.1534
11
81.6082
21
-80.2153
0
LINE
8
BLACK
6
CONTINUOUS
10
81.6082
20
-80.2153
11
81.8559
21
-80.2153
0
LINE
8
BLACK
6
CONTINUOUS
10
81.8559
20
-80.2153
11
81.9797
21
-80.1534
0
LINE
8
BLACK
6
CONTINUOUS
10
81.9797
20
-80.1534
11
82.0416
21
-80.0915
0
LINE
8
BLACK
6
CONTINUOUS
10
82.0416
20
-80.0915
11
82.1035
21
-79.9677
0
LINE
8
BLACK
6
CONTINUOUS
10
82.1035
20
-79.9677
11
82.1035
21
-79.6582
0
LINE
8
BLACK
6
CONTINUOUS
10
82.1035
20
-79.6582
11
82.0416
21
-79.5343
0
LINE
8
BLACK
6
CONTINUOUS
10
82.0416
20
-79.5343
11
81.9797
21
-79.4724
0
LINE
8
BLACK
6
CONTINUOUS
10
81.9797
20
-79.4724
11
81.8559
21
-79.4105
0
LINE
8
BLACK
6
CONTINUOUS
10
81.8559
20
-79.4105
11
81.6082
21
-79.4105
0
LINE
8
BLACK
6
CONTINUOUS
10
81.6082
20
-79.4105
11
81.4844
21
-79.4724
0
LINE
8
BLACK
6
CONTINUOUS
10
81.4844
20
-79.4724
11
81.4225
21
-79.5343
0
LINE
8
BLACK
6
CONTINUOUS
10
81.4225
20
-79.5343
11
81.3606
21
-79.6582
0
LINE
8
BLACK
6
CONTINUOUS
10
-193.962
20
59.38
11
-191.962
21
59.38
0
LINE
8
BLACK
6
CONTINUOUS
10
-193.962
20
9.38
11
-191.962
21
9.38
0
LINE
8
BLACK
6
CONTINUOUS
10
-193.962
20
-40.62
11
-191.962
21
-40.62
0
LINE
8
BLACK
6
CONTINUOUS
10
-193.272
20
84.1633
11
-192.652
21
84.1633
0
LINE
8
BLACK
6
CONTINUOUS
10
-193.395
20
83.7919
11
-192.962
21
85.0919
0
LINE
8
BLACK
6
CONTINUOUS
10
-192.962
20
85.0919
11
-192.529
21
83.7919
0
LINE
8
BLACK
6
CONTINUOUS
10
-192.869
20
34.4729
11
-192.683
21
34.411
0
LINE
8
BLACK
6
CONTINUOUS
10
-192.683
20
34.411
11
-192.622
21
34.349
0
LINE
8
BLACK
6
CONTINUOUS
10
-192.622
20
34.349
11
-192.56
21
34.2252
0
LINE
8
BLACK
6
CONTINUOUS
10
-192.56
20
34.2252
11
-192.56
21
34.0395
0
LINE
8
BLACK
6
CONTINUOUS
10
-192.56
20
34.0395
11
-192.622
21
33.9157
0
LINE
8
BLACK
6
CONTINUOUS
10
-192.622
20
33.9157
11
-192.683
21
33.8538
0
LINE
8
BLACK
6
CONTINUOUS
10
-192.683
20
33.8538
11
-192.807
21
33.7919
0
LINE
8
BLACK
6
CONTINUOUS
10
-192.807
20
33.7919
11
-193.302
21
33.7919
0
LINE
8
BLACK
6
CONTINUOUS
10
-193.302
20
33.7919
11
-193.302
21
35.0919
0
LINE
8
BLACK
6
CONTINUOUS
10
-193.302
20
35.0919
11
-192.869
21
35.0919
0
LINE
8
BLACK
6
CONTINUOUS
10
-192.869
20
35.0919
11
-192.745
21
35.03
0
LINE
8
BLACK
6
CONTINUOUS
10
-192.745
20
35.03
11
-192.683
21
34.9681
0
LINE
8
BLACK
6
CONTINUOUS
10
-192.683
20
34.9681
11
-192.622
21
34.8443
0
LINE
8
BLACK
6
CONTINUOUS
10
-192.622
20
34.8443
11
-192.622
21
34.7205
0
LINE
8
BLACK
6
CONTINUOUS
10
-192.622
20
34.7205
11
-192.683
21
34.5967
0
LINE
8
BLACK
6
CONTINUOUS
10
-192.683
20
34.5967
11
-192.745
21
34.5348
0
LINE
8
BLACK
6
CONTINUOUS
10
-192.745
20
34.5348
11
-192.869
21
34.4729
0
LINE
8
BLACK
6
CONTINUOUS
10
-192.869
20
34.4729
11
-193.302
21
34.4729
0
LINE
8
BLACK
6
CONTINUOUS
10
-192.56
20
-16.0843
11
-192.622
21
-16.1462
0
LINE
8
BLACK
6
CONTINUOUS
10
-192.622
20
-16.1462
11
-192.807
21
-16.2081
0
LINE
8
BLACK
6
CONTINUOUS
10
-192.807
20
-16.2081
11
-192.931
21
-16.2081
0
LINE
8
BLACK
6
CONTINUOUS
10
-192.931
20
-16.2081
11
-193.117
21
-16.1462
0
LINE
8
BLACK
6
CONTINUOUS
10
-193.117
20
-16.1462
11
-193.241
21
-16.0224
0
LINE
8
BLACK
6
CONTINUOUS
10
-193.241
20
-16.0224
11
-193.302
21
-15.8986
0
LINE
8
BLACK
6
CONTINUOUS
10
-193.302
20
-15.8986
11
-193.364
21
-15.651
0
LINE
8
BLACK
6
CONTINUOUS
10
-193.364
20
-15.651
11
-193.364
21
-15.4652
0
LINE
8
BLACK
6
CONTINUOUS
10
-193.364
20
-15.4652
11
-193.302
21
-15.2176
0
LINE
8
BLACK
6
CONTINUOUS
10
-193.302
20
-15.2176
11
-193.241
21
-15.0938
0
LINE
8
BLACK
6
CONTINUOUS
10
-193.241
20
-15.0938
11
-193.117
21
-14.97
0
LINE
8
BLACK
6
CONTINUOUS
10
-193.117
20
-14.97
11
-192.931
21
-14.9081
0
LINE
8
BLACK
6
CONTINUOUS
10
-192.931
20
-14.9081
11
-192.807
21
-14.9081
0
LINE
8
BLACK
6
CONTINUOUS
10
-192.807
20
-14.9081
11
-192.622
21
-14.97
0
LINE
8
BLACK
6
CONTINUOUS
10
-192.622
20
-14.97
11
-192.56
21
-15.0319
0
LINE
8
BLACK
6
CONTINUOUS
10
-193.302
20
-66.2081
11
-193.302
21
-64.9081
0
LINE
8
BLACK
6
CONTINUOUS
10
-193.302
20
-64.9081
11
-192.993
21
-64.9081
0
LINE
8
BLACK
6
CONTINUOUS
10
-192.993
20
-64.9081
11
-192.807
21
-64.97
0
LINE
8
BLACK
6
CONTINUOUS
10
-192.807
20
-64.97
11
-192.683
21
-65.0938
0
LINE
8
BLACK
6
CONTINUOUS
10
-192.683
20
-65.0938
11
-192.622
21
-65.2176
0
LINE
8
BLACK
6
CONTINUOUS
10
-192.622
20
-65.2176
11
-192.56
21
-65.4652
0
LINE
8
BLACK
6
CONTINUOUS
10
-192.56
20
-65.4652
11
-192.56
21
-65.651
0
LINE
8
BLACK
6
CONTINUOUS
10
-192.56
20
-65.651
11
-192.622
21
-65.8986
0
LINE
8
BLACK
6
CONTINUOUS
10
-192.622
20
-65.8986
11
-192.683
21
-66.0224
0
LINE
8
BLACK
6
CONTINUOUS
10
-192.683
20
-66.0224
11
-192.807
21
-66.1462
0
LINE
8
BLACK
6
CONTINUOUS
10
-192.807
20
-66.1462
11
-192.993
21
-66.2081
0
LINE
8
BLACK
6
CONTINUOUS
10
-192.993
20
-66.2081
11
-193.302
21
-66.2081
0
LINE
8
BLACK
6
CONTINUOUS
10
83.0402
20
59.38
11
81.0402
21
59.38
0
LINE
8
BLACK
6
CONTINUOUS
10
83.0402
20
9.38
11
81.0402
21
9.38
0
LINE
8
BLACK
6
CONTINUOUS
10
83.0402
20
-40.62
11
81.0402
21
-40.62
0
LINE
8
BLACK
6
CONTINUOUS
10
81.7307
20
84.1633
11
82.3497
21
84.1633
0
LINE
8
BLACK
6
CONTINUOUS
10
81.6069
20
83.7919
11
82.0402
21
85.0919
0
LINE
8
BLACK
6
CONTINUOUS
10
82.0402
20
85.0919
11
82.4735
21
83.7919
0
LINE
8
BLACK
6
CONTINUOUS
10
82.1331
20
34.4729
11
82.3188
21
34.411
0
LINE
8
BLACK
6
CONTINUOUS
10
82.3188
20
34.411
11
82.3807
21
34.349
0
LINE
8
BLACK
6
CONTINUOUS
10
82.3807
20
34.349
11
82.4426
21
34.2252
0
LINE
8
BLACK
6
CONTINUOUS
10
82.4426
20
34.2252
11
82.4426
21
34.0395
0
LINE
8
BLACK
6
CONTINUOUS
10
82.4426
20
34.0395
11
82.3807
21
33.9157
0
LINE
8
BLACK
6
CONTINUOUS
10
82.3807
20
33.9157
11
82.3188
21
33.8538
0
LINE
8
BLACK
6
CONTINUOUS
10
82.3188
20
33.8538
11
82.195
21
33.7919
0
LINE
8
BLACK
6
CONTINUOUS
10
82.195
20
33.7919
11
81.6997
21
33.7919
0
LINE
8
BLACK
6
CONTINUOUS
10
81.6997
20
33.7919
11
81.6997
21
35.0919
0
LINE
8
BLACK
6
CONTINUOUS
10
81.6997
20
35.0919
11
82.1331
21
35.0919
0
LINE
8
BLACK
6
CONTINUOUS
10
82.1331
20
35.0919
11
82.2569
21
35.03
0
LINE
8
BLACK
6
CONTINUOUS
10
82.2569
20
35.03
11
82.3188
21
34.9681
0
LINE
8
BLACK
6
CONTINUOUS
10
82.3188
20
34.9681
11
82.3807
21
34.8443
0
LINE
8
BLACK
6
CONTINUOUS
10
82.3807
20
34.8443
11
82.3807
21
34.7205
0
LINE
8
BLACK
6
CONTINUOUS
10
82.3807
20
34.7205
11
82.3188
21
34.5967
0
LINE
8
BLACK
6
CONTINUOUS
10
82.3188
20
34.5967
11
82.2569
21
34.5348
0
LINE
8
BLACK
6
CONTINUOUS
10
82.2569
20
34.5348
11
82.1331
21
34.4729
0
LINE
8
BLACK
6
CONTINUOUS
10
82.1331
20
34.4729
11
81.6997
21
34.4729
0
LINE
8
BLACK
6
CONTINUOUS
10
82.4426
20
-16.0843
11
82.3807
21
-16.1462
0
LINE
8
BLACK
6
CONTINUOUS
10
82.3807
20
-16.1462
11
82.195
21
-16.2081
0
LINE
8
BLACK
6
CONTINUOUS
10
82.195
20
-16.2081
11
82.0712
21
-16.2081
0
LINE
8
BLACK
6
CONTINUOUS
10
82.0712
20
-16.2081
11
81.8854
21
-16.1462
0
LINE
8
BLACK
6
CONTINUOUS
10
81.8854
20
-16.1462
11
81.7616
21
-16.0224
0
LINE
8
BLACK
6
CONTINUOUS
10
81.7616
20
-16.0224
11
81.6997
21
-15.8986
0
LINE
8
BLACK
6
CONTINUOUS
10
81.6997
20
-15.8986
11
81.6378
21
-15.651
0
LINE
8
BLACK
6
CONTINUOUS
10
81.6378
20
-15.651
11
81.6378
21
-15.4652
0
LINE
8
BLACK
6
CONTINUOUS
10
81.6378
20
-15.4652
11
81.6997
21
-15.2176
0
LINE
8
BLACK
6
CONTINUOUS
10
81.6997
20
-15.2176
11
81.7616
21
-15.0938
0
LINE
8
BLACK
6
CONTINUOUS
10
81.7616
20
-15.0938
11
81.8854
21
-14.97
0
LINE
8
BLACK
6
CONTINUOUS
10
81.8854
20
-14.97
11
82.0712
21
-14.9081
0
LINE
8
BLACK
6
CONTINUOUS
10
82.0712
20
-14.9081
11
82.195
21
-14.9081
0
LINE
8
BLACK
6
CONTINUOUS
10
82.195
20
-14.9081
11
82.3807
21
-14.97
0
LINE
8
BLACK
6
CONTINUOUS
10
82.3807
20
-14.97
11
82.4426
21
-15.0319
0
LINE
8
BLACK
6
CONTINUOUS
10
81.6997
20
-66.2081
11
81.6997
21
-64.9081
0
LINE
8
BLACK
6
CONTINUOUS
10
81.6997
20
-64.9081
11
82.0092
21
-64.9081
0
LINE
8
BLACK
6
CONTINUOUS
10
82.0092
20
-64.9081
11
82.195
21
-64.97
0
LINE
8
BLACK
6
CONTINUOUS
10
82.195
20
-64.97
11
82.3188
21
-65.0938
0
LINE
8
BLACK
6
CONTINUOUS
10
82.3188
20
-65.0938
11
82.3807
21
-65.2176
0
LINE
8
BLACK
6
CONTINUOUS
10
82.3807
20
-65.2176
11
82.4426
21
-65.4652
0
LINE
8
BLACK
6
CONTINUOUS
10
82.4426
20
-65.4652
11
82.4426
21
-65.651
0
LINE
8
BLACK
6
CONTINUOUS
10
82.4426
20
-65.651
11
82.3807
21
-65.8986
0
LINE
8
BLACK
6
CONTINUOUS
10
82.3807
20
-65.8986
11
82.3188
21
-66.0224
0
LINE
8
BLACK
6
CONTINUOUS
10
82.3188
20
-66.0224
11
82.195
21
-66.1462
0
LINE
8
BLACK
6
CONTINUOUS
10
82.195
20
-66.1462
11
82.0092
21
-66.2081
0
LINE
8
BLACK
6
CONTINUOUS
10
82.0092
20
-66.2081
11
81.6997
21
-66.2081
0
LINE
8
BLACK
6
CONTINUOUS
10
-3.52766
20
-74.4058
11
-3.52766
21
-72.9058
0
LINE
8
BLACK
6
CONTINUOUS
10
-3.52766
20
-72.9058
11
-3.17051
21
-72.9058
0
LINE
8
BLACK
6
CONTINUOUS
10
-3.17051
20
-72.9058
11
-2.95623
21
-72.9772
0
LINE
8
BLACK
6
CONTINUOUS
10
-2.95623
20
-72.9772
11
-2.81337
21
-73.1201
0
LINE
8
BLACK
6
CONTINUOUS
10
-2.81337
20
-73.1201
11
-2.74194
21
-73.2629
0
LINE
8
BLACK
6
CONTINUOUS
10
-2.74194
20
-73.2629
11
-2.67051
21
-73.5486
0
LINE
8
BLACK
6
CONTINUOUS
10
-2.67051
20
-73.5486
11
-2.67051
21
-73.7629
0
LINE
8
BLACK
6
CONTINUOUS
10
-2.67051
20
-73.7629
11
-2.74194
21
-74.0486
0
LINE
8
BLACK
6
CONTINUOUS
10
-2.74194
20
-74.0486
11
-2.81337
21
-74.1915
0
LINE
8
BLACK
6
CONTINUOUS
10
-2.81337
20
-74.1915
11
-2.95623
21
-74.3343
0
LINE
8
BLACK
6
CONTINUOUS
10
-2.95623
20
-74.3343
11
-3.17051
21
-74.4058
0
LINE
8
BLACK
6
CONTINUOUS
10
-3.17051
20
-74.4058
11
-3.52766
21
-74.4058
0
LINE
8
BLACK
6
CONTINUOUS
10
-1.3848
20
-74.4058
11
-1.3848
21
-73.6201
0
LINE
8
BLACK
6
CONTINUOUS
10
-1.3848
20
-73.6201
11
-1.45623
21
-73.4772
0
LINE
8
BLACK
6
CONTINUOUS
10
-1.45623
20
-73.4772
11
-1.59909
21
-73.4058
0
LINE
8
BLACK
6
CONTINUOUS
10
-1.59909
20
-73.4058
11
-1.8848
21
-73.4058
0
LINE
8
BLACK
6
CONTINUOUS
10
-1.8848
20
-73.4058
11
-2.02766
21
-73.4772
0
LINE
8
BLACK
6
CONTINUOUS
10
-1.3848
20
-74.3343
11
-1.52766
21
-74.4058
0
LINE
8
BLACK
6
CONTINUOUS
10
-1.52766
20
-74.4058
11
-1.8848
21
-74.4058
0
LINE
8
BLACK
6
CONTINUOUS
10
-1.8848
20
-74.4058
11
-2.02766
21
-74.3343
0
LINE
8
BLACK
6
CONTINUOUS
10
-2.02766
20
-74.3343
11
-2.09909
21
-74.1915
0
LINE
8
BLACK
6
CONTINUOUS
10
-2.09909
20
-74.1915
11
-2.09909
21
-74.0486
0
LINE
8
BLACK
6
CONTINUOUS
10
-2.09909
20
-74.0486
11
-2.02766
21
-73.9058
0
LINE
8
BLACK
6
CONTINUOUS
10
-2.02766
20
-73.9058
11
-1.8848
21
-73.8343
0
LINE
8
BLACK
6
CONTINUOUS
10
-1.8848
20
-73.8343
11
-1.52766
21
-73.8343
0
LINE
8
BLACK
6
CONTINUOUS
10
-1.52766
20
-73.8343
11
-1.3848
21
-73.7629
0
LINE
8
BLACK
6
CONTINUOUS
10
-0.8848
20
-73.4058
11
-0.313372
21
-73.4058
0
LINE
8
BLACK
6
CONTINUOUS
10
-0.670515
20
-72.9058
11
-0.670515
21
-74.1915
0
LINE
8
BLACK
6
CONTINUOUS
10
-0.670515
20
-74.1915
11
-0.599086
21
-74.3343
0
LINE
8
BLACK
6
CONTINUOUS
10
-0.599086
20
-74.3343
11
-0.456229
21
-74.4058
0
LINE
8
BLACK
6
CONTINUOUS
10
-0.456229
20
-74.4058
11
-0.313372
21
-74.4058
0
LINE
8
BLACK
6
CONTINUOUS
10
0.758057
20
-74.3343
11
0.6152
21
-74.4058
0
LINE
8
BLACK
6
CONTINUOUS
10
0.6152
20
-74.4058
11
0.329485
21
-74.4058
0
LINE
8
BLACK
6
CONTINUOUS
10
0.329485
20
-74.4058
11
0.186628
21
-74.3343
0
LINE
8
BLACK
6
CONTINUOUS
10
0.186628
20
-74.3343
11
0.1152
21
-74.1915
0
LINE
8
BLACK
6
CONTINUOUS
10
0.1152
20
-74.1915
11
0.1152
21
-73.6201
0
LINE
8
BLACK
6
CONTINUOUS
10
0.1152
20
-73.6201
11
0.186628
21
-73.4772
0
LINE
8
BLACK
6
CONTINUOUS
10
0.186628
20
-73.4772
11
0.329485
21
-73.4058
0
LINE
8
BLACK
6
CONTINUOUS
10
0.329485
20
-73.4058
11
0.6152
21
-73.4058
0
LINE
8
BLACK
6
CONTINUOUS
10
0.6152
20
-73.4058
11
0.758057
21
-73.4772
0
LINE
8
BLACK
6
CONTINUOUS
10
0.758057
20
-73.4772
11
0.829485
21
-73.6201
0
LINE
8
BLACK
6
CONTINUOUS
10
0.829485
20
-73.6201
11
0.829485
21
-73.7629
0
LINE
8
BLACK
6
CONTINUOUS
10
0.829485
20
-73.7629
11
0.1152
21
-73.9058
0
LINE
8
BLACK
6
CONTINUOUS
10
1.47234
20
-74.2629
11
1.54377
21
-74.3343
0
LINE
8
BLACK
6
CONTINUOUS
10
1.54377
20
-74.3343
11
1.47234
21
-74.4058
0
LINE
8
BLACK
6
CONTINUOUS
10
1.47234
20
-74.4058
11
1.40091
21
-74.3343
0
LINE
8
BLACK
6
CONTINUOUS
10
1.40091
20
-74.3343
11
1.47234
21
-74.2629
0
LINE
8
BLACK
6
CONTINUOUS
10
1.47234
20
-74.2629
11
1.47234
21
-74.4058
0
LINE
8
BLACK
6
CONTINUOUS
10
1.47234
20
-73.4772
11
1.54377
21
-73.5486
0
LINE
8
BLACK
6
CONTINUOUS
10
1.54377
20
-73.5486
11
1.47234
21
-73.6201
0
LINE
8
BLACK
6
CONTINUOUS
10
1.47234
20
-73.6201
11
1.40091
21
-73.5486
0
LINE
8
BLACK
6
CONTINUOUS
10
1.40091
20
-73.5486
11
1.47234
21
-73.4772
0
LINE
8
BLACK
6
CONTINUOUS
10
1.47234
20
-73.4772
11
1.47234
21
-73.6201
0
LINE
8
BLACK
6
CONTINUOUS
10
3.25806
20
-73.0486
11
3.32949
21
-72.9772
0
LINE
8
BLACK
6
CONTINUOUS
10
3.32949
20
-72.9772
11
3.47234
21
-72.9058
0
LINE
8
BLACK
6
CONTINUOUS
10
3.47234
20
-72.9058
11
3.82949
21
-72.9058
0
LINE
8
BLACK
6
CONTINUOUS
10
3.82949
20
-72.9058
11
3.97234
21
-72.9772
0
LINE
8
BLACK
6
CONTINUOUS
10
3.97234
20
-72.9772
11
4.04377
21
-73.0486
0
LINE
8
BLACK
6
CONTINUOUS
10
4.04377
20
-73.0486
11
4.1152
21
-73.1915
0
LINE
8
BLACK
6
CONTINUOUS
10
4.1152
20
-73.1915
11
4.1152
21
-73.3343
0
LINE
8
BLACK
6
CONTINUOUS
10
4.1152
20
-73.3343
11
4.04377
21
-73.5486
0
LINE
8
BLACK
6
CONTINUOUS
10
4.04377
20
-73.5486
11
3.18663
21
-74.4058
0
LINE
8
BLACK
6
CONTINUOUS
10
3.18663
20
-74.4058
11
4.1152
21
-74.4058
0
LINE
8
BLACK
6
CONTINUOUS
10
5.04377
20
-72.9058
11
5.18663
21
-72.9058
0
LINE
8
BLACK
6
CONTINUOUS
10
5.18663
20
-72.9058
11
5.32949
21
-72.9772
0
LINE
8
BLACK
6
CONTINUOUS
10
5.32949
20
-72.9772
11
5.40091
21
-73.0486
0
LINE
8
BLACK
6
CONTINUOUS
10
5.40091
20
-73.0486
11
5.47234
21
-73.1915
0
LINE
8
BLACK
6
CONTINUOUS
10
5.47234
20
-73.1915
11
5.54377
21
-73.4772
0
LINE
8
BLACK
6
CONTINUOUS
10
5.54377
20
-73.4772
11
5.54377
21
-73.8343
0
LINE
8
BLACK
6
CONTINUOUS
10
5.54377
20
-73.8343
11
5.47234
21
-74.1201
0
LINE
8
BLACK
6
CONTINUOUS
10
5.47234
20
-74.1201
11
5.40091
21
-74.2629
0
LINE
8
BLACK
6
CONTINUOUS
10
5.40091
20
-74.2629
11
5.32949
21
-74.3343
0
LINE
8
BLACK
6
CONTINUOUS
10
5.32949
20
-74.3343
11
5.18663
21
-74.4058
0
LINE
8
BLACK
6
CONTINUOUS
10
5.18663
20
-74.4058
11
5.04377
21
-74.4058
0
LINE
8
BLACK
6
CONTINUOUS
10
5.04377
20
-74.4058
11
4.90091
21
-74.3343
0
LINE
8
BLACK
6
CONTINUOUS
10
4.90091
20
-74.3343
11
4.82949
21
-74.2629
0
LINE
8
BLACK
6
CONTINUOUS
10
4.82949
20
-74.2629
11
4.75806
21
-74.1201
0
LINE
8
BLACK
6
CONTINUOUS
10
4.75806
20
-74.1201
11
4.68663
21
-73.8343
0
LINE
8
BLACK
6
CONTINUOUS
10
4.68663
20
-73.8343
11
4.68663
21
-73.4772
0
LINE
8
BLACK
6
CONTINUOUS
10
4.68663
20
-73.4772
11
4.75806
21
-73.1915
0
LINE
8
BLACK
6
CONTINUOUS
10
4.75806
20
-73.1915
11
4.82949
21
-73.0486
0
LINE
8
BLACK
6
CONTINUOUS
10
4.82949
20
-73.0486
11
4.90091
21
-72.9772
0
LINE
8
BLACK
6
CONTINUOUS
10
4.90091
20
-72.9772
11
5.04377
21
-72.9058
0
LINE
8
BLACK
6
CONTINUOUS
10
6.1152
20
-73.0486
11
6.18663
21
-72.9772
0
LINE
8
BLACK
6
CONTINUOUS
10
6.18663
20
-72.9772
11
6.32949
21
-72.9058
0
LINE
8
BLACK
6
CONTINUOUS
10
6.32949
20
-72.9058
11
6.68663
21
-72.9058
0
LINE
8
BLACK
6
CONTINUOUS
10
6.68663
20
-72.9058
11
6.82949
21
-72.9772
0
LINE
8
BLACK
6
CONTINUOUS
10
6.82949
20
-72.9772
11
6.90091
21
-73.0486
0
LINE
8
BLACK
6
CONTINUOUS
10
6.90091
20
-73.0486
11
6.97234
21
-73.1915
0
LINE
8
BLACK
6
CONTINUOUS
10
6.97234
20
-73.1915
11
6.97234
21
-73.3343
0
LINE
8
BLACK
6
CONTINUOUS
10
6.97234
20
-73.3343
11
6.90091
21
-73.5486
0
LINE
8
BLACK
6
CONTINUOUS
10
6.90091
20
-73.5486
11
6.04377
21
-74.4058
0
LINE
8
BLACK
6
CONTINUOUS
10
6.04377
20
-74.4058
11
6.97234
21
-74.4058
0
LINE
8
BLACK
6
CONTINUOUS
10
7.54377
20
-73.0486
11
7.6152
21
-72.9772
0
LINE
8
BLACK
6
CONTINUOUS
10
7.6152
20
-72.9772
11
7.75806
21
-72.9058
0
LINE
8
BLACK
6
CONTINUOUS
10
7.75806
20
-72.9058
11
8.1152
21
-72.9058
0
LINE
8
BLACK
6
CONTINUOUS
10
8.1152
20
-72.9058
11
8.25806
21
-72.9772
0
LINE
8
BLACK
6
CONTINUOUS
10
8.25806
20
-72.9772
11
8.32949
21
-73.0486
0
LINE
8
BLACK
6
CONTINUOUS
10
8.32949
20
-73.0486
11
8.40091
21
-73.1915
0
LINE
8
BLACK
6
CONTINUOUS
10
8.40091
20
-73.1915
11
8.40091
21
-73.3343
0
LINE
8
BLACK
6
CONTINUOUS
10
8.40091
20
-73.3343
11
8.32949
21
-73.5486
0
LINE
8
BLACK
6
CONTINUOUS
10
8.32949
20
-73.5486
11
7.47234
21
-74.4058
0
LINE
8
BLACK
6
CONTINUOUS
10
7.47234
20
-74.4058
11
8.40091
21
-74.4058
0
LINE
8
BLACK
6
CONTINUOUS
10
9.04377
20
-73.8343
11
10.1866
21
-73.8343
0
LINE
8
BLACK
6
CONTINUOUS
10
11.1866
20
-72.9058
11
11.3295
21
-72.9058
0
LINE
8
BLACK
6
CONTINUOUS
10
11.3295
20
-72.9058
11
11.4723
21
-72.9772
0
LINE
8
BLACK
6
CONTINUOUS
10
11.4723
20
-72.9772
11
11.5438
21
-73.0486
0
LINE
8
BLACK
6
CONTINUOUS
10
11.5438
20
-73.0486
11
11.6152
21
-73.1915
0
LINE
8
BLACK
6
CONTINUOUS
10
11.6152
20
-73.1915
11
11.6866
21
-73.4772
0
LINE
8
BLACK
6
CONTINUOUS
10
11.6866
20
-73.4772
11
11.6866
21
-73.8343
0
LINE
8
BLACK
6
CONTINUOUS
10
11.6866
20
-73.8343
11
11.6152
21
-74.1201
0
LINE
8
BLACK
6
CONTINUOUS
10
11.6152
20
-74.1201
11
11.5438
21
-74.2629
0
LINE
8
BLACK
6
CONTINUOUS
10
11.5438
20
-74.2629
11
11.4723
21
-74.3343
0
LINE
8
BLACK
6
CONTINUOUS
10
11.4723
20
-74.3343
11
11.3295
21
-74.4058
0
LINE
8
BLACK
6
CONTINUOUS
10
11.3295
20
-74.4058
11
11.1866
21
-74.4058
0
LINE
8
BLACK
6
CONTINUOUS
10
11.1866
20
-74.4058
11
11.0438
21
-74.3343
0
LINE
8
BLACK
6
CONTINUOUS
10
11.0438
20
-74.3343
11
10.9723
21
-74.2629
0
LINE
8
BLACK
6
CONTINUOUS
10
10.9723
20
-74.2629
11
10.9009
21
-74.1201
0
LINE
8
BLACK
6
CONTINUOUS
10
10.9009
20
-74.1201
11
10.8295
21
-73.8343
0
LINE
8
BLACK
6
CONTINUOUS
10
10.8295
20
-73.8343
11
10.8295
21
-73.4772
0
LINE
8
BLACK
6
CONTINUOUS
10
10.8295
20
-73.4772
11
10.9009
21
-73.1915
0
LINE
8
BLACK
6
CONTINUOUS
10
10.9009
20
-73.1915
11
10.9723
21
-73.0486
0
LINE
8
BLACK
6
CONTINUOUS
10
10.9723
20
-73.0486
11
11.0438
21
-72.9772
0
LINE
8
BLACK
6
CONTINUOUS
10
11.0438
20
-72.9772
11
11.1866
21
-72.9058
0
LINE
8
BLACK
6
CONTINUOUS
10
13.0438
20
-72.9058
11
12.3295
21
-72.9058
0
LINE
8
BLACK
6
CONTINUOUS
10
12.3295
20
-72.9058
11
12.2581
21
-73.6201
0
LINE
8
BLACK
6
CONTINUOUS
10
12.2581
20
-73.6201
11
12.3295
21
-73.5486
0
LINE
8
BLACK
6
CONTINUOUS
10
12.3295
20
-73.5486
11
12.4723
21
-73.4772
0
LINE
8
BLACK
6
CONTINUOUS
10
12.4723
20
-73.4772
11
12.8295
21
-73.4772
0
LINE
8
BLACK
6
CONTINUOUS
10
12.8295
20
-73.4772
11
12.9723
21
-73.5486
0
LINE
8
BLACK
6
CONTINUOUS
10
12.9723
20
-73.5486
11
13.0438
21
-73.6201
0
LINE
8
BLACK
6
CONTINUOUS
10
13.0438
20
-73.6201
11
13.1152
21
-73.7629
0
LINE
8
BLACK
6
CONTINUOUS
10
13.1152
20
-73.7629
11
13.1152
21
-74.1201
0
LINE
8
BLACK
6
CONTINUOUS
10
13.1152
20
-74.1201
11
13.0438
21
-74.2629
0
LINE
8
BLACK
6
CONTINUOUS
10
13.0438
20
-74.2629
11
12.9723
21
-74.3343
0
LINE
8
BLACK
6
CONTINUOUS
10
12.9723
20
-74.3343
11
12.8295
21
-74.4058
0
LINE
8
BLACK
6
CONTINUOUS
10
12.8295
20
-74.4058
11
12.4723
21
-74.4058
0
LINE
8
BLACK
6
CONTINUOUS
10
12.4723
20
-74.4058
11
12.3295
21
-74.3343
0
LINE
8
BLACK
6
CONTINUOUS
10
12.3295
20
-74.3343
11
12.2581
21
-74.2629
0
LINE
8
BLACK
6
CONTINUOUS
10
13.7581
20
-73.8343
11
14.9009
21
-73.8343
0
LINE
8
BLACK
6
CONTINUOUS
10
15.9009
20
-72.9058
11
16.0438
21
-72.9058
0
LINE
8
BLACK
6
CONTINUOUS
10
16.0438
20
-72.9058
11
16.1866
21
-72.9772
0
LINE
8
BLACK
6
CONTINUOUS
10
16.1866
20
-72.9772
11
16.2581
21
-73.0486
0
LINE
8
BLACK
6
CONTINUOUS
10
16.2581
20
-73.0486
11
16.3295
21
-73.1915
0
LINE
8
BLACK
6
CONTINUOUS
10
16.3295
20
-73.1915
11
16.4009
21
-73.4772
0
LINE
8
BLACK
6
CONTINUOUS
10
16.4009
20
-73.4772
11
16.4009
21
-73.8343
0
LINE
8
BLACK
6
CONTINUOUS
10
16.4009
20
-73.8343
11
16.3295
21
-74.1201
0
LINE
8
BLACK
6
CONTINUOUS
10
16.3295
20
-74.1201
11
16.2581
21
-74.2629
0
LINE
8
BLACK
6
CONTINUOUS
10
16.2581
20
-74.2629
11
16.1866
21
-74.3343
0
LINE
8
BLACK
6
CONTINUOUS
10
16.1866
20
-74.3343
11
16.0438
21
-74.4058
0
LINE
8
BLACK
6
CONTINUOUS
10
16.0438
20
-74.4058
11
15.9009
21
-74.4058
0
LINE
8
BLACK
6
CONTINUOUS
10
15.9009
20
-74.4058
11
15.7581
21
-74.3343
0
LINE
8
BLACK
6
CONTINUOUS
10
15.7581
20
-74.3343
11
15.6866
21
-74.2629
0
LINE
8
BLACK
6
CONTINUOUS
10
15.6866
20
-74.2629
11
15.6152
21
-74.1201
0
LINE
8
BLACK
6
CONTINUOUS
10
15.6152
20
-74.1201
11
15.5438
21
-73.8343
0
LINE
8
BLACK
6
CONTINUOUS
10
15.5438
20
-73.8343
11
15.5438
21
-73.4772
0
LINE
8
BLACK
6
CONTINUOUS
10
15.5438
20
-73.4772
11
15.6152
21
-73.1915
0
LINE
8
BLACK
6
CONTINUOUS
10
15.6152
20
-73.1915
11
15.6866
21
-73.0486
0
LINE
8
BLACK
6
CONTINUOUS
10
15.6866
20
-73.0486
11
15.7581
21
-72.9772
0
LINE
8
BLACK
6
CONTINUOUS
10
15.7581
20
-72.9772
11
15.9009
21
-72.9058
0
LINE
8
BLACK
6
CONTINUOUS
10
16.9009
20
-72.9058
11
17.9009
21
-72.9058
0
LINE
8
BLACK
6
CONTINUOUS
10
17.9009
20
-72.9058
11
17.2581
21
-74.4058
0
LINE
8
BLACK
6
CONTINUOUS
10
-26.9598
20
-75.1272
11
81.0402
21
-75.1272
0
LINE
8
BLACK
6
CONTINUOUS
10
-25.5277
20
-77.2058
11
-25.5277
21
-75.7058
0
LINE
8
BLACK
6
CONTINUOUS
10
-24.6705
20
-77.2058
11
-25.3134
21
-76.3486
0
LINE
8
BLACK
6
CONTINUOUS
10
-24.6705
20
-75.7058
11
-25.5277
21
-76.5629
0
LINE
8
BLACK
6
CONTINUOUS
10
-24.0277
20
-77.2058
11
-24.0277
21
-76.2058
0
LINE
8
BLACK
6
CONTINUOUS
10
-24.0277
20
-75.7058
11
-24.0991
21
-75.7772
0
LINE
8
BLACK
6
CONTINUOUS
10
-24.0991
20
-75.7772
11
-24.0277
21
-75.8486
0
LINE
8
BLACK
6
CONTINUOUS
10
-24.0277
20
-75.8486
11
-23.9562
21
-75.7772
0
LINE
8
BLACK
6
CONTINUOUS
10
-23.9562
20
-75.7772
11
-24.0277
21
-75.7058
0
LINE
8
BLACK
6
CONTINUOUS
10
-24.0277
20
-75.7058
11
-24.0277
21
-75.8486
0
LINE
8
BLACK
6
CONTINUOUS
10
-22.4562
20
-77.0629
11
-22.5277
21
-77.1343
0
LINE
8
BLACK
6
CONTINUOUS
10
-22.5277
20
-77.1343
11
-22.7419
21
-77.2058
0
LINE
8
BLACK
6
CONTINUOUS
10
-22.7419
20
-77.2058
11
-22.8848
21
-77.2058
0
LINE
8
BLACK
6
CONTINUOUS
10
-22.8848
20
-77.2058
11
-23.0991
21
-77.1343
0
LINE
8
BLACK
6
CONTINUOUS
10
-23.0991
20
-77.1343
11
-23.2419
21
-76.9915
0
LINE
8
BLACK
6
CONTINUOUS
10
-23.2419
20
-76.9915
11
-23.3134
21
-76.8486
0
LINE
8
BLACK
6
CONTINUOUS
10
-23.3134
20
-76.8486
11
-23.3848
21
-76.5629
0
LINE
8
BLACK
6
CONTINUOUS
10
-23.3848
20
-76.5629
11
-23.3848
21
-76.3486
0
LINE
8
BLACK
6
CONTINUOUS
10
-23.3848
20
-76.3486
11
-23.3134
21
-76.0629
0
LINE
8
BLACK
6
CONTINUOUS
10
-23.3134
20
-76.0629
11
-23.2419
21
-75.9201
0
LINE
8
BLACK
6
CONTINUOUS
10
-23.2419
20
-75.9201
11
-23.0991
21
-75.7772
0
LINE
8
BLACK
6
CONTINUOUS
10
-23.0991
20
-75.7772
11
-22.8848
21
-75.7058
0
LINE
8
BLACK
6
CONTINUOUS
10
-22.8848
20
-75.7058
11
-22.7419
21
-75.7058
0
LINE
8
BLACK
6
CONTINUOUS
10
-22.7419
20
-75.7058
11
-22.5277
21
-75.7772
0
LINE
8
BLACK
6
CONTINUOUS
10
-22.5277
20
-75.7772
11
-22.4562
21
-75.8486
0
LINE
8
BLACK
6
CONTINUOUS
10
-21.1705
20
-77.2058
11
-21.1705
21
-76.4201
0
LINE
8
BLACK
6
CONTINUOUS
10
-21.1705
20
-76.4201
11
-21.2419
21
-76.2772
0
LINE
8
BLACK
6
CONTINUOUS
10
-21.2419
20
-76.2772
11
-21.3848
21
-76.2058
0
LINE
8
BLACK
6
CONTINUOUS
10
-21.3848
20
-76.2058
11
-21.6705
21
-76.2058
0
LINE
8
BLACK
6
CONTINUOUS
10
-21.6705
20
-76.2058
11
-21.8134
21
-76.2772
0
LINE
8
BLACK
6
CONTINUOUS
10
-21.1705
20
-77.1343
11
-21.3134
21
-77.2058
0
LINE
8
BLACK
6
CONTINUOUS
10
-21.3134
20
-77.2058
11
-21.6705
21
-77.2058
0
LINE
8
BLACK
6
CONTINUOUS
10
-21.6705
20
-77.2058
11
-21.8134
21
-77.1343
0
LINE
8
BLACK
6
CONTINUOUS
10
-21.8134
20
-77.1343
11
-21.8848
21
-76.9915
0
LINE
8
BLACK
6
CONTINUOUS
10
-21.8848
20
-76.9915
11
-21.8848
21
-76.8486
0
LINE
8
BLACK
6
CONTINUOUS
10
-21.8848
20
-76.8486
11
-21.8134
21
-76.7058
0
LINE
8
BLACK
6
CONTINUOUS
10
-21.8134
20
-76.7058
11
-21.6705
21
-76.6343
0
LINE
8
BLACK
6
CONTINUOUS
10
-21.6705
20
-76.6343
11
-21.3134
21
-76.6343
0
LINE
8
BLACK
6
CONTINUOUS
10
-21.3134
20
-76.6343
11
-21.1705
21
-76.5629
0
LINE
8
BLACK
6
CONTINUOUS
10
-19.8134
20
-77.2058
11
-19.8134
21
-75.7058
0
LINE
8
BLACK
6
CONTINUOUS
10
-19.8134
20
-77.1343
11
-19.9562
21
-77.2058
0
LINE
8
BLACK
6
CONTINUOUS
10
-19.9562
20
-77.2058
11
-20.2419
21
-77.2058
0
LINE
8
BLACK
6
CONTINUOUS
10
-20.2419
20
-77.2058
11
-20.3848
21
-77.1343
0
LINE
8
BLACK
6
CONTINUOUS
10
-20.3848
20
-77.1343
11
-20.4562
21
-77.0629
0
LINE
8
BLACK
6
CONTINUOUS
10
-20.4562
20
-77.0629
11
-20.5277
21
-76.9201
0
LINE
8
BLACK
6
CONTINUOUS
10
-20.5277
20
-76.9201
11
-20.5277
21
-76.4915
0
LINE
8
BLACK
6
CONTINUOUS
10
-20.5277
20
-76.4915
11
-20.4562
21
-76.3486
0
LINE
8
BLACK
6
CONTINUOUS
10
-20.4562
20
-76.3486
11
-20.3848
21
-76.2772
0
LINE
8
BLACK
6
CONTINUOUS
10
-20.3848
20
-76.2772
11
-20.2419
21
-76.2058
0
LINE
8
BLACK
6
CONTINUOUS
10
-20.2419
20
-76.2058
11
-19.9562
21
-76.2058
0
LINE
8
BLACK
6
CONTINUOUS
10
-19.9562
20
-76.2058
11
-19.8134
21
-76.2772
0
LINE
8
BLACK
6
CONTINUOUS
10
-17.9562
20
-76.4201
11
-17.4562
21
-76.4201
0
LINE
8
BLACK
6
CONTINUOUS
10
-17.2419
20
-77.2058
11
-17.9562
21
-77.2058
0
LINE
8
BLACK
6
CONTINUOUS
10
-17.9562
20
-77.2058
11
-17.9562
21
-75.7058
0
LINE
8
BLACK
6
CONTINUOUS
10
-17.9562
20
-75.7058
11
-17.2419
21
-75.7058
0
LINE
8
BLACK
6
CONTINUOUS
10
-16.5991
20
-77.0629
11
-16.5277
21
-77.1343
0
LINE
8
BLACK
6
CONTINUOUS
10
-16.5277
20
-77.1343
11
-16.5991
21
-77.2058
0
LINE
8
BLACK
6
CONTINUOUS
10
-16.5991
20
-77.2058
11
-16.6705
21
-77.1343
0
LINE
8
BLACK
6
CONTINUOUS
10
-16.6705
20
-77.1343
11
-16.5991
21
-77.0629
0
LINE
8
BLACK
6
CONTINUOUS
10
-16.5991
20
-77.0629
11
-16.5991
21
-77.2058
0
LINE
8
BLACK
6
CONTINUOUS
10
-15.8848
20
-77.2058
11
-15.8848
21
-75.7058
0
LINE
8
BLACK
6
CONTINUOUS
10
-15.8848
20
-75.7058
11
-15.5277
21
-75.7058
0
LINE
8
BLACK
6
CONTINUOUS
10
-15.5277
20
-75.7058
11
-15.3134
21
-75.7772
0
LINE
8
BLACK
6
CONTINUOUS
10
-15.3134
20
-75.7772
11
-15.1705
21
-75.9201
0
LINE
8
BLACK
6
CONTINUOUS
10
-15.1705
20
-75.9201
11
-15.0991
21
-76.0629
0
LINE
8
BLACK
6
CONTINUOUS
10
-15.0991
20
-76.0629
11
-15.0277
21
-76.3486
0
LINE
8
BLACK
6
CONTINUOUS
10
-15.0277
20
-76.3486
11
-15.0277
21
-76.5629
0
LINE
8
BLACK
6
CONTINUOUS
10
-15.0277
20
-76.5629
11
-15.0991
21
-76.8486
0
LINE
8
BLACK
6
CONTINUOUS
10
-15.0991
20
-76.8486
11
-15.1705
21
-76.9915
0
LINE
8
BLACK
6
CONTINUOUS
10
-15.1705
20
-76.9915
11
-15.3134
21
-77.1343
0
LINE
8
BLACK
6
CONTINUOUS
10
-15.3134
20
-77.1343
11
-15.5277
21
-77.2058
0
LINE
8
BLACK
6
CONTINUOUS
10
-15.5277
20
-77.2058
11
-15.8848
21
-77.2058
0
LINE
8
BLACK
6
CONTINUOUS
10
-14.3848
20
-77.0629
11
-14.3134
21
-77.1343
0
LINE
8
BLACK
6
CONTINUOUS
10
-14.3134
20
-77.1343
11
-14.3848
21
-77.2058
0
LINE
8
BLACK
6
CONTINUOUS
10
-14.3848
20
-77.2058
11
-14.4562
21
-77.1343
0
LINE
8
BLACK
6
CONTINUOUS
10
-14.4562
20
-77.1343
11
-14.3848
21
-77.0629
0
LINE
8
BLACK
6
CONTINUOUS
10
-14.3848
20
-77.0629
11
-14.3848
21
-77.2058
0
LINE
8
BLACK
6
CONTINUOUS
10
-13.7419
20
-76.7772
11
-13.0277
21
-76.7772
0
LINE
8
BLACK
6
CONTINUOUS
10
-13.8848
20
-77.2058
11
-13.3848
21
-75.7058
0
LINE
8
BLACK
6
CONTINUOUS
10
-13.3848
20
-75.7058
11
-12.8848
21
-77.2058
0
LINE
8
BLACK
6
CONTINUOUS
10
-12.3848
20
-77.0629
11
-12.3134
21
-77.1343
0
LINE
8
BLACK
6
CONTINUOUS
10
-12.3134
20
-77.1343
11
-12.3848
21
-77.2058
0
LINE
8
BLACK
6
CONTINUOUS
10
-12.3848
20
-77.2058
11
-12.4562
21
-77.1343
0
LINE
8
BLACK
6
CONTINUOUS
10
-12.4562
20
-77.1343
11
-12.3848
21
-77.0629
0
LINE
8
BLACK
6
CONTINUOUS
10
-12.3848
20
-77.0629
11
-12.3848
21
-77.2058
0
LINE
8
BLACK
6
CONTINUOUS
10
-9.3848
20
-77.2058
11
-9.3848
21
-75.7058
0
LINE
8
BLACK
6
CONTINUOUS
10
-9.24194
20
-76.6343
11
-8.81337
21
-77.2058
0
LINE
8
BLACK
6
CONTINUOUS
10
-8.81337
20
-76.2058
11
-9.3848
21
-76.7772
0
LINE
8
BLACK
6
CONTINUOUS
10
-8.17051
20
-77.2058
11
-8.17051
21
-76.2058
0
LINE
8
BLACK
6
CONTINUOUS
10
-8.17051
20
-75.7058
11
-8.24194
21
-75.7772
0
LINE
8
BLACK
6
CONTINUOUS
10
-8.24194
20
-75.7772
11
-8.17051
21
-75.8486
0
LINE
8
BLACK
6
CONTINUOUS
10
-8.17051
20
-75.8486
11
-8.09909
21
-75.7772
0
LINE
8
BLACK
6
CONTINUOUS
10
-8.09909
20
-75.7772
11
-8.17051
21
-75.7058
0
LINE
8
BLACK
6
CONTINUOUS
10
-8.17051
20
-75.7058
11
-8.17051
21
-75.8486
0
LINE
8
BLACK
6
CONTINUOUS
10
-6.81337
20
-77.1343
11
-6.95623
21
-77.2058
0
LINE
8
BLACK
6
CONTINUOUS
10
-6.95623
20
-77.2058
11
-7.24194
21
-77.2058
0
LINE
8
BLACK
6
CONTINUOUS
10
-7.24194
20
-77.2058
11
-7.3848
21
-77.1343
0
LINE
8
BLACK
6
CONTINUOUS
10
-7.3848
20
-77.1343
11
-7.45623
21
-77.0629
0
LINE
8
BLACK
6
CONTINUOUS
10
-7.45623
20
-77.0629
11
-7.52766
21
-76.9201
0
LINE
8
BLACK
6
CONTINUOUS
10
-7.52766
20
-76.9201
11
-7.52766
21
-76.4915
0
LINE
8
BLACK
6
CONTINUOUS
10
-7.52766
20
-76.4915
11
-7.45623
21
-76.3486
0
LINE
8
BLACK
6
CONTINUOUS
10
-7.45623
20
-76.3486
11
-7.3848
21
-76.2772
0
LINE
8
BLACK
6
CONTINUOUS
10
-7.3848
20
-76.2772
11
-7.24194
21
-76.2058
0
LINE
8
BLACK
6
CONTINUOUS
10
-7.24194
20
-76.2058
11
-6.95623
21
-76.2058
0
LINE
8
BLACK
6
CONTINUOUS
10
-6.95623
20
-76.2058
11
-6.81337
21
-76.2772
0
LINE
8
BLACK
6
CONTINUOUS
10
-5.52766
20
-77.2058
11
-5.52766
21
-76.4201
0
LINE
8
BLACK
6
CONTINUOUS
10
-5.52766
20
-76.4201
11
-5.59909
21
-76.2772
0
LINE
8
BLACK
6
CONTINUOUS
10
-5.59909
20
-76.2772
11
-5.74194
21
-76.2058
0
LINE
8
BLACK
6
CONTINUOUS
10
-5.74194
20
-76.2058
11
-6.02766
21
-76.2058
0
LINE
8
BLACK
6
CONTINUOUS
10
-6.02766
20
-76.2058
11
-6.17051
21
-76.2772
0
LINE
8
BLACK
6
CONTINUOUS
10
-5.52766
20
-77.1343
11
-5.67051
21
-77.2058
0
LINE
8
BLACK
6
CONTINUOUS
10
-5.67051
20
-77.2058
11
-6.02766
21
-77.2058
0
LINE
8
BLACK
6
CONTINUOUS
10
-6.02766
20
-77.2058
11
-6.17051
21
-77.1343
0
LINE
8
BLACK
6
CONTINUOUS
10
-6.17051
20
-77.1343
11
-6.24194
21
-76.9915
0
LINE
8
BLACK
6
CONTINUOUS
10
-6.24194
20
-76.9915
11
-6.24194
21
-76.8486
0
LINE
8
BLACK
6
CONTINUOUS
10
-6.24194
20
-76.8486
11
-6.17051
21
-76.7058
0
LINE
8
BLACK
6
CONTINUOUS
10
-6.17051
20
-76.7058
11
-6.02766
21
-76.6343
0
LINE
8
BLACK
6
CONTINUOUS
10
-6.02766
20
-76.6343
11
-5.67051
21
-76.6343
0
LINE
8
BLACK
6
CONTINUOUS
10
-5.67051
20
-76.6343
11
-5.52766
21
-76.5629
0
LINE
8
BLACK
6
CONTINUOUS
10
-4.17051
20
-77.2058
11
-4.17051
21
-75.7058
0
LINE
8
BLACK
6
CONTINUOUS
10
-4.17051
20
-77.1343
11
-4.31337
21
-77.2058
0
LINE
8
BLACK
6
CONTINUOUS
10
-4.31337
20
-77.2058
11
-4.59909
21
-77.2058
0
LINE
8
BLACK
6
CONTINUOUS
10
-4.59909
20
-77.2058
11
-4.74194
21
-77.1343
0
LINE
8
BLACK
6
CONTINUOUS
10
-4.74194
20
-77.1343
11
-4.81337
21
-77.0629
0
LINE
8
BLACK
6
CONTINUOUS
10
-4.81337
20
-77.0629
11
-4.8848
21
-76.9201
0
LINE
8
BLACK
6
CONTINUOUS
10
-4.8848
20
-76.9201
11
-4.8848
21
-76.4915
0
LINE
8
BLACK
6
CONTINUOUS
10
-4.8848
20
-76.4915
11
-4.81337
21
-76.3486
0
LINE
8
BLACK
6
CONTINUOUS
10
-4.81337
20
-76.3486
11
-4.74194
21
-76.2772
0
LINE
8
BLACK
6
CONTINUOUS
10
-4.74194
20
-76.2772
11
-4.59909
21
-76.2058
0
LINE
8
BLACK
6
CONTINUOUS
10
-4.59909
20
-76.2058
11
-4.31337
21
-76.2058
0
LINE
8
BLACK
6
CONTINUOUS
10
-4.31337
20
-76.2058
11
-4.17051
21
-76.2772
0
LINE
8
BLACK
6
CONTINUOUS
10
-1.8848
20
-77.7772
11
-1.95623
21
-77.7058
0
LINE
8
BLACK
6
CONTINUOUS
10
-1.95623
20
-77.7058
11
-2.09909
21
-77.4915
0
LINE
8
BLACK
6
CONTINUOUS
10
-2.09909
20
-77.4915
11
-2.17051
21
-77.3486
0
LINE
8
BLACK
6
CONTINUOUS
10
-2.17051
20
-77.3486
11
-2.24194
21
-77.1343
0
LINE
8
BLACK
6
CONTINUOUS
10
-2.24194
20
-77.1343
11
-2.31337
21
-76.7772
0
LINE
8
BLACK
6
CONTINUOUS
10
-2.31337
20
-76.7772
11
-2.31337
21
-76.4915
0
LINE
8
BLACK
6
CONTINUOUS
10
-2.31337
20
-76.4915
11
-2.24194
21
-76.1343
0
LINE
8
BLACK
6
CONTINUOUS
10
-2.24194
20
-76.1343
11
-2.17051
21
-75.9201
0
LINE
8
BLACK
6
CONTINUOUS
10
-2.17051
20
-75.9201
11
-2.09909
21
-75.7772
0
LINE
8
BLACK
6
CONTINUOUS
10
-2.09909
20
-75.7772
11
-1.95623
21
-75.5629
0
LINE
8
BLACK
6
CONTINUOUS
10
-1.95623
20
-75.5629
11
-1.8848
21
-75.4915
0
LINE
8
BLACK
6
CONTINUOUS
10
-0.670515
20
-75.7058
11
-0.956229
21
-75.7058
0
LINE
8
BLACK
6
CONTINUOUS
10
-0.956229
20
-75.7058
11
-1.09909
21
-75.7772
0
LINE
8
BLACK
6
CONTINUOUS
10
-1.09909
20
-75.7772
11
-1.17051
21
-75.8486
0
LINE
8
BLACK
6
CONTINUOUS
10
-1.17051
20
-75.8486
11
-1.31337
21
-76.0629
0
LINE
8
BLACK
6
CONTINUOUS
10
-1.31337
20
-76.0629
11
-1.3848
21
-76.3486
0
LINE
8
BLACK
6
CONTINUOUS
10
-1.3848
20
-76.3486
11
-1.3848
21
-76.9201
0
LINE
8
BLACK
6
CONTINUOUS
10
-1.3848
20
-76.9201
11
-1.31337
21
-77.0629
0
LINE
8
BLACK
6
CONTINUOUS
10
-1.31337
20
-77.0629
11
-1.24194
21
-77.1343
0
LINE
8
BLACK
6
CONTINUOUS
10
-1.24194
20
-77.1343
11
-1.09909
21
-77.2058
0
LINE
8
BLACK
6
CONTINUOUS
10
-1.09909
20
-77.2058
11
-0.813372
21
-77.2058
0
LINE
8
BLACK
6
CONTINUOUS
10
-0.813372
20
-77.2058
11
-0.670515
21
-77.1343
0
LINE
8
BLACK
6
CONTINUOUS
10
-0.670515
20
-77.1343
11
-0.599086
21
-77.0629
0
LINE
8
BLACK
6
CONTINUOUS
10
-0.599086
20
-77.0629
11
-0.527658
21
-76.9201
0
LINE
8
BLACK
6
CONTINUOUS
10
-0.527658
20
-76.9201
11
-0.527658
21
-76.5629
0
LINE
8
BLACK
6
CONTINUOUS
10
-0.527658
20
-76.5629
11
-0.599086
21
-76.4201
0
LINE
8
BLACK
6
CONTINUOUS
10
-0.599086
20
-76.4201
11
-0.670515
21
-76.3486
0
LINE
8
BLACK
6
CONTINUOUS
10
-0.670515
20
-76.3486
11
-0.813372
21
-76.2772
0
LINE
8
BLACK
6
CONTINUOUS
10
-0.813372
20
-76.2772
11
-1.09909
21
-76.2772
0
LINE
8
BLACK
6
CONTINUOUS
10
-1.09909
20
-76.2772
11
-1.24194
21
-76.3486
0
LINE
8
BLACK
6
CONTINUOUS
10
-1.24194
20
-76.3486
11
-1.31337
21
-76.4201
0
LINE
8
BLACK
6
CONTINUOUS
10
-1.31337
20
-76.4201
11
-1.3848
21
-76.5629
0
LINE
8
BLACK
6
CONTINUOUS
10
0.1152
20
-77.0629
11
0.186628
21
-77.1343
0
LINE
8
BLACK
6
CONTINUOUS
10
0.186628
20
-77.1343
11
0.1152
21
-77.2058
0
LINE
8
BLACK
6
CONTINUOUS
10
0.1152
20
-77.2058
11
0.043771
21
-77.1343
0
LINE
8
BLACK
6
CONTINUOUS
10
0.043771
20
-77.1343
11
0.1152
21
-77.0629
0
LINE
8
BLACK
6
CONTINUOUS
10
0.1152
20
-77.0629
11
0.1152
21
-77.2058
0
LINE
8
BLACK
6
CONTINUOUS
10
1.1152
20
-75.7058
11
1.25806
21
-75.7058
0
LINE
8
BLACK
6
CONTINUOUS
10
1.25806
20
-75.7058
11
1.40091
21
-75.7772
0
LINE
8
BLACK
6
CONTINUOUS
10
1.40091
20
-75.7772
11
1.47234
21
-75.8486
0
LINE
8
BLACK
6
CONTINUOUS
10
1.47234
20
-75.8486
11
1.54377
21
-75.9915
0
LINE
8
BLACK
6
CONTINUOUS
10
1.54377
20
-75.9915
11
1.6152
21
-76.2772
0
LINE
8
BLACK
6
CONTINUOUS
10
1.6152
20
-76.2772
11
1.6152
21
-76.6343
0
LINE
8
BLACK
6
CONTINUOUS
10
1.6152
20
-76.6343
11
1.54377
21
-76.9201
0
LINE
8
BLACK
6
CONTINUOUS
10
1.54377
20
-76.9201
11
1.47234
21
-77.0629
0
LINE
8
BLACK
6
CONTINUOUS
10
1.47234
20
-77.0629
11
1.40091
21
-77.1343
0
LINE
8
BLACK
6
CONTINUOUS
10
1.40091
20
-77.1343
11
1.25806
21
-77.2058
0
LINE
8
BLACK
6
CONTINUOUS
10
1.25806
20
-77.2058
11
1.1152
21
-77.2058
0
LINE
8
BLACK
6
CONTINUOUS
10
1.1152
20
-77.2058
11
0.972342
21
-77.1343
0
LINE
8
BLACK
6
CONTINUOUS
10
0.972342
20
-77.1343
11
0.900914
21
-77.0629
0
LINE
8
BLACK
6
CONTINUOUS
10
0.900914
20
-77.0629
11
0.829485
21
-76.9201
0
LINE
8
BLACK
6
CONTINUOUS
10
0.829485
20
-76.9201
11
0.758057
21
-76.6343
0
LINE
8
BLACK
6
CONTINUOUS
10
0.758057
20
-76.6343
11
0.758057
21
-76.2772
0
LINE
8
BLACK
6
CONTINUOUS
10
0.758057
20
-76.2772
11
0.829485
21
-75.9915
0
LINE
8
BLACK
6
CONTINUOUS
10
0.829485
20
-75.9915
11
0.900914
21
-75.8486
0
LINE
8
BLACK
6
CONTINUOUS
10
0.900914
20
-75.8486
11
0.972342
21
-75.7772
0
LINE
8
BLACK
6
CONTINUOUS
10
0.972342
20
-75.7772
11
1.1152
21
-75.7058
0
LINE
8
BLACK
6
CONTINUOUS
10
2.25806
20
-77.0629
11
2.32949
21
-77.1343
0
LINE
8
BLACK
6
CONTINUOUS
10
2.32949
20
-77.1343
11
2.25806
21
-77.2058
0
LINE
8
BLACK
6
CONTINUOUS
10
2.25806
20
-77.2058
11
2.18663
21
-77.1343
0
LINE
8
BLACK
6
CONTINUOUS
10
2.18663
20
-77.1343
11
2.25806
21
-77.0629
0
LINE
8
BLACK
6
CONTINUOUS
10
2.25806
20
-77.0629
11
2.25806
21
-77.2058
0
LINE
8
BLACK
6
CONTINUOUS
10
3.6152
20
-76.2058
11
3.6152
21
-77.2058
0
LINE
8
BLACK
6
CONTINUOUS
10
3.25806
20
-75.6343
11
2.90091
21
-76.7058
0
LINE
8
BLACK
6
CONTINUOUS
10
2.90091
20
-76.7058
11
3.82949
21
-76.7058
0
LINE
8
BLACK
6
CONTINUOUS
10
4.25806
20
-77.7772
11
4.32949
21
-77.7058
0
LINE
8
BLACK
6
CONTINUOUS
10
4.32949
20
-77.7058
11
4.47234
21
-77.4915
0
LINE
8
BLACK
6
CONTINUOUS
10
4.47234
20
-77.4915
11
4.54377
21
-77.3486
0
LINE
8
BLACK
6
CONTINUOUS
10
4.54377
20
-77.3486
11
4.6152
21
-77.1343
0
LINE
8
BLACK
6
CONTINUOUS
10
4.6152
20
-77.1343
11
4.68663
21
-76.7772
0
LINE
8
BLACK
6
CONTINUOUS
10
4.68663
20
-76.7772
11
4.68663
21
-76.4915
0
LINE
8
BLACK
6
CONTINUOUS
10
4.68663
20
-76.4915
11
4.6152
21
-76.1343
0
LINE
8
BLACK
6
CONTINUOUS
10
4.6152
20
-76.1343
11
4.54377
21
-75.9201
0
LINE
8
BLACK
6
CONTINUOUS
10
4.54377
20
-75.9201
11
4.47234
21
-75.7772
0
LINE
8
BLACK
6
CONTINUOUS
10
4.47234
20
-75.7772
11
4.32949
21
-75.5629
0
LINE
8
BLACK
6
CONTINUOUS
10
4.32949
20
-75.5629
11
4.25806
21
-75.4915
0
LINE
8
BLACK
6
CONTINUOUS
10
-26.9598
20
-72.1272
11
81.0402
21
-72.1272
0
LINE
8
BLACK
6
CONTINUOUS
10
60.4495
20
-74.4058
11
59.9495
21
-73.6915
0
LINE
8
BLACK
6
CONTINUOUS
10
59.5923
20
-74.4058
11
59.5923
21
-72.9058
0
LINE
8
BLACK
6
CONTINUOUS
10
59.5923
20
-72.9058
11
60.1638
21
-72.9058
0
LINE
8
BLACK
6
CONTINUOUS
10
60.1638
20
-72.9058
11
60.3066
21
-72.9772
0
LINE
8
BLACK
6
CONTINUOUS
10
60.3066
20
-72.9772
11
60.3781
21
-73.0486
0
LINE
8
BLACK
6
CONTINUOUS
10
60.3781
20
-73.0486
11
60.4495
21
-73.1915
0
LINE
8
BLACK
6
CONTINUOUS
10
60.4495
20
-73.1915
11
60.4495
21
-73.4058
0
LINE
8
BLACK
6
CONTINUOUS
10
60.4495
20
-73.4058
11
60.3781
21
-73.5486
0
LINE
8
BLACK
6
CONTINUOUS
10
60.3781
20
-73.5486
11
60.3066
21
-73.6201
0
LINE
8
BLACK
6
CONTINUOUS
10
60.3066
20
-73.6201
11
60.1638
21
-73.6915
0
LINE
8
BLACK
6
CONTINUOUS
10
60.1638
20
-73.6915
11
59.5923
21
-73.6915
0
LINE
8
BLACK
6
CONTINUOUS
10
61.6638
20
-74.3343
11
61.5209
21
-74.4058
0
LINE
8
BLACK
6
CONTINUOUS
10
61.5209
20
-74.4058
11
61.2352
21
-74.4058
0
LINE
8
BLACK
6
CONTINUOUS
10
61.2352
20
-74.4058
11
61.0923
21
-74.3343
0
LINE
8
BLACK
6
CONTINUOUS
10
61.0923
20
-74.3343
11
61.0209
21
-74.1915
0
LINE
8
BLACK
6
CONTINUOUS
10
61.0209
20
-74.1915
11
61.0209
21
-73.6201
0
LINE
8
BLACK
6
CONTINUOUS
10
61.0209
20
-73.6201
11
61.0923
21
-73.4772
0
LINE
8
BLACK
6
CONTINUOUS
10
61.0923
20
-73.4772
11
61.2352
21
-73.4058
0
LINE
8
BLACK
6
CONTINUOUS
10
61.2352
20
-73.4058
11
61.5209
21
-73.4058
0
LINE
8
BLACK
6
CONTINUOUS
10
61.5209
20
-73.4058
11
61.6638
21
-73.4772
0
LINE
8
BLACK
6
CONTINUOUS
10
61.6638
20
-73.4772
11
61.7352
21
-73.6201
0
LINE
8
BLACK
6
CONTINUOUS
10
61.7352
20
-73.6201
11
61.7352
21
-73.7629
0
LINE
8
BLACK
6
CONTINUOUS
10
61.7352
20
-73.7629
11
61.0209
21
-73.9058
0
LINE
8
BLACK
6
CONTINUOUS
10
62.2352
20
-73.4058
11
62.5923
21
-74.4058
0
LINE
8
BLACK
6
CONTINUOUS
10
62.5923
20
-74.4058
11
62.9495
21
-73.4058
0
LINE
8
BLACK
6
CONTINUOUS
10
63.5209
20
-74.2629
11
63.5923
21
-74.3343
0
LINE
8
BLACK
6
CONTINUOUS
10
63.5923
20
-74.3343
11
63.5209
21
-74.4058
0
LINE
8
BLACK
6
CONTINUOUS
10
63.5209
20
-74.4058
11
63.4495
21
-74.3343
0
LINE
8
BLACK
6
CONTINUOUS
10
63.4495
20
-74.3343
11
63.5209
21
-74.2629
0
LINE
8
BLACK
6
CONTINUOUS
10
63.5209
20
-74.2629
11
63.5209
21
-74.4058
0
LINE
8
BLACK
6
CONTINUOUS
10
63.5209
20
-73.4772
11
63.5923
21
-73.5486
0
LINE
8
BLACK
6
CONTINUOUS
10
63.5923
20
-73.5486
11
63.5209
21
-73.6201
0
LINE
8
BLACK
6
CONTINUOUS
10
63.5209
20
-73.6201
11
63.4495
21
-73.5486
0
LINE
8
BLACK
6
CONTINUOUS
10
63.4495
20
-73.5486
11
63.5209
21
-73.4772
0
LINE
8
BLACK
6
CONTINUOUS
10
63.5209
20
-73.4772
11
63.5209
21
-73.6201
0
LINE
8
BLACK
6
CONTINUOUS
10
65.3066
20
-73.0486
11
65.3781
21
-72.9772
0
LINE
8
BLACK
6
CONTINUOUS
10
65.3781
20
-72.9772
11
65.5209
21
-72.9058
0
LINE
8
BLACK
6
CONTINUOUS
10
65.5209
20
-72.9058
11
65.8781
21
-72.9058
0
LINE
8
BLACK
6
CONTINUOUS
10
65.8781
20
-72.9058
11
66.0209
21
-72.9772
0
LINE
8
BLACK
6
CONTINUOUS
10
66.0209
20
-72.9772
11
66.0923
21
-73.0486
0
LINE
8
BLACK
6
CONTINUOUS
10
66.0923
20
-73.0486
11
66.1638
21
-73.1915
0
LINE
8
BLACK
6
CONTINUOUS
10
66.1638
20
-73.1915
11
66.1638
21
-73.3343
0
LINE
8
BLACK
6
CONTINUOUS
10
66.1638
20
-73.3343
11
66.0923
21
-73.5486
0
LINE
8
BLACK
6
CONTINUOUS
10
66.0923
20
-73.5486
11
65.2352
21
-74.4058
0
LINE
8
BLACK
6
CONTINUOUS
10
65.2352
20
-74.4058
11
66.1638
21
-74.4058
0
LINE
8
BLACK
6
CONTINUOUS
10
66.8066
20
-74.2629
11
66.8781
21
-74.3343
0
LINE
8
BLACK
6
CONTINUOUS
10
66.8781
20
-74.3343
11
66.8066
21
-74.4058
0
LINE
8
BLACK
6
CONTINUOUS
10
66.8066
20
-74.4058
11
66.7352
21
-74.3343
0
LINE
8
BLACK
6
CONTINUOUS
10
66.7352
20
-74.3343
11
66.8066
21
-74.2629
0
LINE
8
BLACK
6
CONTINUOUS
10
66.8066
20
-74.2629
11
66.8066
21
-74.4058
0
LINE
8
BLACK
6
CONTINUOUS
10
67.8066
20
-72.9058
11
67.9495
21
-72.9058
0
LINE
8
BLACK
6
CONTINUOUS
10
67.9495
20
-72.9058
11
68.0923
21
-72.9772
0
LINE
8
BLACK
6
CONTINUOUS
10
68.0923
20
-72.9772
11
68.1638
21
-73.0486
0
LINE
8
BLACK
6
CONTINUOUS
10
68.1638
20
-73.0486
11
68.2352
21
-73.1915
0
LINE
8
BLACK
6
CONTINUOUS
10
68.2352
20
-73.1915
11
68.3066
21
-73.4772
0
LINE
8
BLACK
6
CONTINUOUS
10
68.3066
20
-73.4772
11
68.3066
21
-73.8343
0
LINE
8
BLACK
6
CONTINUOUS
10
68.3066
20
-73.8343
11
68.2352
21
-74.1201
0
LINE
8
BLACK
6
CONTINUOUS
10
68.2352
20
-74.1201
11
68.1638
21
-74.2629
0
LINE
8
BLACK
6
CONTINUOUS
10
68.1638
20
-74.2629
11
68.0923
21
-74.3343
0
LINE
8
BLACK
6
CONTINUOUS
10
68.0923
20
-74.3343
11
67.9495
21
-74.4058
0
LINE
8
BLACK
6
CONTINUOUS
10
67.9495
20
-74.4058
11
67.8066
21
-74.4058
0
LINE
8
BLACK
6
CONTINUOUS
10
67.8066
20
-74.4058
11
67.6638
21
-74.3343
0
LINE
8
BLACK
6
CONTINUOUS
10
67.6638
20
-74.3343
11
67.5923
21
-74.2629
0
LINE
8
BLACK
6
CONTINUOUS
10
67.5923
20
-74.2629
11
67.5209
21
-74.1201
0
LINE
8
BLACK
6
CONTINUOUS
10
67.5209
20
-74.1201
11
67.4495
21
-73.8343
0
LINE
8
BLACK
6
CONTINUOUS
10
67.4495
20
-73.8343
11
67.4495
21
-73.4772
0
LINE
8
BLACK
6
CONTINUOUS
10
67.4495
20
-73.4772
11
67.5209
21
-73.1915
0
LINE
8
BLACK
6
CONTINUOUS
10
67.5209
20
-73.1915
11
67.5923
21
-73.0486
0
LINE
8
BLACK
6
CONTINUOUS
10
67.5923
20
-73.0486
11
67.6638
21
-72.9772
0
LINE
8
BLACK
6
CONTINUOUS
10
67.6638
20
-72.9772
11
67.8066
21
-72.9058
0
LINE
8
BLACK
6
CONTINUOUS
10
-25.5991
20
-74.3343
11
-25.3848
21
-74.4058
0
LINE
8
BLACK
6
CONTINUOUS
10
-25.3848
20
-74.4058
11
-25.0277
21
-74.4058
0
LINE
8
BLACK
6
CONTINUOUS
10
-25.0277
20
-74.4058
11
-24.8848
21
-74.3343
0
LINE
8
BLACK
6
CONTINUOUS
10
-24.8848
20
-74.3343
11
-24.8134
21
-74.2629
0
LINE
8
BLACK
6
CONTINUOUS
10
-24.8134
20
-74.2629
11
-24.7419
21
-74.1201
0
LINE
8
BLACK
6
CONTINUOUS
10
-24.7419
20
-74.1201
11
-24.7419
21
-73.9772
0
LINE
8
BLACK
6
CONTINUOUS
10
-24.7419
20
-73.9772
11
-24.8134
21
-73.8343
0
LINE
8
BLACK
6
CONTINUOUS
10
-24.8134
20
-73.8343
11
-24.8848
21
-73.7629
0
LINE
8
BLACK
6
CONTINUOUS
10
-24.8848
20
-73.7629
11
-25.0277
21
-73.6915
0
LINE
8
BLACK
6
CONTINUOUS
10
-25.0277
20
-73.6915
11
-25.3134
21
-73.6201
0
LINE
8
BLACK
6
CONTINUOUS
10
-25.3134
20
-73.6201
11
-25.4562
21
-73.5486
0
LINE
8
BLACK
6
CONTINUOUS
10
-25.4562
20
-73.5486
11
-25.5277
21
-73.4772
0
LINE
8
BLACK
6
CONTINUOUS
10
-25.5277
20
-73.4772
11
-25.5991
21
-73.3343
0
LINE
8
BLACK
6
CONTINUOUS
10
-25.5991
20
-73.3343
11
-25.5991
21
-73.1915
0
LINE
8
BLACK
6
CONTINUOUS
10
-25.5991
20
-73.1915
11
-25.5277
21
-73.0486
0
LINE
8
BLACK
6
CONTINUOUS
10
-25.5277
20
-73.0486
11
-25.4562
21
-72.9772
0
LINE
8
BLACK
6
CONTINUOUS
10
-25.4562
20
-72.9772
11
-25.3134
21
-72.9058
0
LINE
8
BLACK
6
CONTINUOUS
10
-25.3134
20
-72.9058
11
-24.9562
21
-72.9058
0
LINE
8
BLACK
6
CONTINUOUS
10
-24.9562
20
-72.9058
11
-24.7419
21
-72.9772
0
LINE
8
BLACK
6
CONTINUOUS
10
-24.0991
20
-74.4058
11
-24.0991
21
-73.4058
0
LINE
8
BLACK
6
CONTINUOUS
10
-24.0991
20
-72.9058
11
-24.1705
21
-72.9772
0
LINE
8
BLACK
6
CONTINUOUS
10
-24.1705
20
-72.9772
11
-24.0991
21
-73.0486
0
LINE
8
BLACK
6
CONTINUOUS
10
-24.0991
20
-73.0486
11
-24.0277
21
-72.9772
0
LINE
8
BLACK
6
CONTINUOUS
10
-24.0277
20
-72.9772
11
-24.0991
21
-72.9058
0
LINE
8
BLACK
6
CONTINUOUS
10
-24.0991
20
-72.9058
11
-24.0991
21
-73.0486
0
LINE
8
BLACK
6
CONTINUOUS
10
-23.5277
20
-73.4058
11
-22.7419
21
-73.4058
0
LINE
8
BLACK
6
CONTINUOUS
10
-22.7419
20
-73.4058
11
-23.5277
21
-74.4058
0
LINE
8
BLACK
6
CONTINUOUS
10
-23.5277
20
-74.4058
11
-22.7419
21
-74.4058
0
LINE
8
BLACK
6
CONTINUOUS
10
-21.5991
20
-74.3343
11
-21.7419
21
-74.4058
0
LINE
8
BLACK
6
CONTINUOUS
10
-21.7419
20
-74.4058
11
-22.0277
21
-74.4058
0
LINE
8
BLACK
6
CONTINUOUS
10
-22.0277
20
-74.4058
11
-22.1705
21
-74.3343
0
LINE
8
BLACK
6
CONTINUOUS
10
-22.1705
20
-74.3343
11
-22.2419
21
-74.1915
0
LINE
8
BLACK
6
CONTINUOUS
10
-22.2419
20
-74.1915
11
-22.2419
21
-73.6201
0
LINE
8
BLACK
6
CONTINUOUS
10
-22.2419
20
-73.6201
11
-22.1705
21
-73.4772
0
LINE
8
BLACK
6
CONTINUOUS
10
-22.1705
20
-73.4772
11
-22.0277
21
-73.4058
0
LINE
8
BLACK
6
CONTINUOUS
10
-22.0277
20
-73.4058
11
-21.7419
21
-73.4058
0
LINE
8
BLACK
6
CONTINUOUS
10
-21.7419
20
-73.4058
11
-21.5991
21
-73.4772
0
LINE
8
BLACK
6
CONTINUOUS
10
-21.5991
20
-73.4772
11
-21.5277
21
-73.6201
0
LINE
8
BLACK
6
CONTINUOUS
10
-21.5277
20
-73.6201
11
-21.5277
21
-73.7629
0
LINE
8
BLACK
6
CONTINUOUS
10
-21.5277
20
-73.7629
11
-22.2419
21
-73.9058
0
LINE
8
BLACK
6
CONTINUOUS
10
-20.8848
20
-74.2629
11
-20.8134
21
-74.3343
0
LINE
8
BLACK
6
CONTINUOUS
10
-20.8134
20
-74.3343
11
-20.8848
21
-74.4058
0
LINE
8
BLACK
6
CONTINUOUS
10
-20.8848
20
-74.4058
11
-20.9562
21
-74.3343
0
LINE
8
BLACK
6
CONTINUOUS
10
-20.9562
20
-74.3343
11
-20.8848
21
-74.2629
0
LINE
8
BLACK
6
CONTINUOUS
10
-20.8848
20
-74.2629
11
-20.8848
21
-74.4058
0
LINE
8
BLACK
6
CONTINUOUS
10
-20.8848
20
-73.4772
11
-20.8134
21
-73.5486
0
LINE
8
BLACK
6
CONTINUOUS
10
-20.8134
20
-73.5486
11
-20.8848
21
-73.6201
0
LINE
8
BLACK
6
CONTINUOUS
10
-20.8848
20
-73.6201
11
-20.9562
21
-73.5486
0
LINE
8
BLACK
6
CONTINUOUS
10
-20.9562
20
-73.5486
11
-20.8848
21
-73.4772
0
LINE
8
BLACK
6
CONTINUOUS
10
-20.8848
20
-73.4772
11
-20.8848
21
-73.6201
0
LINE
8
BLACK
6
CONTINUOUS
10
-19.0991
20
-73.9772
11
-18.3848
21
-73.9772
0
LINE
8
BLACK
6
CONTINUOUS
10
-19.2419
20
-74.4058
11
-18.7419
21
-72.9058
0
LINE
8
BLACK
6
CONTINUOUS
10
-18.7419
20
-72.9058
11
-18.2419
21
-74.4058
0
LINE
8
BLACK
6
CONTINUOUS
10
-17.0991
20
-73.4058
11
-17.0991
21
-74.4058
0
LINE
8
BLACK
6
CONTINUOUS
10
-17.4562
20
-72.8343
11
-17.8134
21
-73.9058
0
LINE
8
BLACK
6
CONTINUOUS
10
-17.8134
20
-73.9058
11
-16.8848
21
-73.9058
0
LINE
8
BLACK
6
CONTINUOUS
10
59.4723
20
-77.2058
11
59.4723
21
-75.7058
0
LINE
8
BLACK
6
CONTINUOUS
10
60.8295
20
-77.2058
11
60.8295
21
-75.7058
0
LINE
8
BLACK
6
CONTINUOUS
10
60.8295
20
-77.1343
11
60.6866
21
-77.2058
0
LINE
8
BLACK
6
CONTINUOUS
10
60.6866
20
-77.2058
11
60.4009
21
-77.2058
0
LINE
8
BLACK
6
CONTINUOUS
10
60.4009
20
-77.2058
11
60.2581
21
-77.1343
0
LINE
8
BLACK
6
CONTINUOUS
10
60.2581
20
-77.1343
11
60.1866
21
-77.0629
0
LINE
8
BLACK
6
CONTINUOUS
10
60.1866
20
-77.0629
11
60.1152
21
-76.9201
0
LINE
8
BLACK
6
CONTINUOUS
10
60.1152
20
-76.9201
11
60.1152
21
-76.4915
0
LINE
8
BLACK
6
CONTINUOUS
10
60.1152
20
-76.4915
11
60.1866
21
-76.3486
0
LINE
8
BLACK
6
CONTINUOUS
10
60.1866
20
-76.3486
11
60.2581
21
-76.2772
0
LINE
8
BLACK
6
CONTINUOUS
10
60.2581
20
-76.2772
11
60.4009
21
-76.2058
0
LINE
8
BLACK
6
CONTINUOUS
10
60.4009
20
-76.2058
11
60.6866
21
-76.2058
0
LINE
8
BLACK
6
CONTINUOUS
10
60.6866
20
-76.2058
11
60.8295
21
-76.2772
0
LINE
8
BLACK
6
CONTINUOUS
10
61.5438
20
-77.0629
11
61.6152
21
-77.1343
0
LINE
8
BLACK
6
CONTINUOUS
10
61.6152
20
-77.1343
11
61.5438
21
-77.2058
0
LINE
8
BLACK
6
CONTINUOUS
10
61.5438
20
-77.2058
11
61.4723
21
-77.1343
0
LINE
8
BLACK
6
CONTINUOUS
10
61.4723
20
-77.1343
11
61.5438
21
-77.0629
0
LINE
8
BLACK
6
CONTINUOUS
10
61.5438
20
-77.0629
11
61.5438
21
-77.2058
0
LINE
8
BLACK
6
CONTINUOUS
10
61.5438
20
-76.2772
11
61.6152
21
-76.3486
0
LINE
8
BLACK
6
CONTINUOUS
10
61.6152
20
-76.3486
11
61.5438
21
-76.4201
0
LINE
8
BLACK
6
CONTINUOUS
10
61.5438
20
-76.4201
11
61.4723
21
-76.3486
0
LINE
8
BLACK
6
CONTINUOUS
10
61.4723
20
-76.3486
11
61.5438
21
-76.2772
0
LINE
8
BLACK
6
CONTINUOUS
10
61.5438
20
-76.2772
11
61.5438
21
-76.4201
0
LINE
8
BLACK
6
CONTINUOUS
10
64.1866
20
-77.2058
11
63.3295
21
-77.2058
0
LINE
8
BLACK
6
CONTINUOUS
10
63.7581
20
-77.2058
11
63.7581
21
-75.7058
0
LINE
8
BLACK
6
CONTINUOUS
10
63.7581
20
-75.7058
11
63.6152
21
-75.9201
0
LINE
8
BLACK
6
CONTINUOUS
10
63.6152
20
-75.9201
11
63.4723
21
-76.0629
0
LINE
8
BLACK
6
CONTINUOUS
10
63.4723
20
-76.0629
11
63.3295
21
-76.1343
0
LINE
8
BLACK
6
CONTINUOUS
10
65.9009
20
-75.6343
11
64.6152
21
-77.5629
0
LINE
8
BLACK
6
CONTINUOUS
10
67.1866
20
-77.2058
11
66.3295
21
-77.2058
0
LINE
8
BLACK
6
CONTINUOUS
10
66.7581
20
-77.2058
11
66.7581
21
-75.7058
0
LINE
8
BLACK
6
CONTINUOUS
10
66.7581
20
-75.7058
11
66.6152
21
-75.9201
0
LINE
8
BLACK
6
CONTINUOUS
10
66.6152
20
-75.9201
11
66.4723
21
-76.0629
0
LINE
8
BLACK
6
CONTINUOUS
10
66.4723
20
-76.0629
11
66.3295
21
-76.1343
0
LINE
8
BLACK
6
CONTINUOUS
10
-26.9598
20
-68.1272
11
81.0402
21
-68.1272
0
LINE
8
BLACK
6
CONTINUOUS
10
-25.2474
20
-68.832
11
-24.1046
21
-68.832
0
LINE
8
BLACK
6
CONTINUOUS
10
-24.926
20
-70.832
11
-24.676
21
-68.832
0
LINE
8
BLACK
6
CONTINUOUS
10
-23.6879
20
-70.832
11
-23.5212
21
-69.4986
0
LINE
8
BLACK
6
CONTINUOUS
10
-23.4379
20
-68.832
11
-23.545
21
-68.9272
0
LINE
8
BLACK
6
CONTINUOUS
10
-23.545
20
-68.9272
11
-23.4617
21
-69.0224
0
LINE
8
BLACK
6
CONTINUOUS
10
-23.4617
20
-69.0224
11
-23.3546
21
-68.9272
0
LINE
8
BLACK
6
CONTINUOUS
10
-23.3546
20
-68.9272
11
-23.4379
21
-68.832
0
LINE
8
BLACK
6
CONTINUOUS
10
-23.4379
20
-68.832
11
-23.4617
21
-69.0224
0
LINE
8
BLACK
6
CONTINUOUS
10
-22.8546
20
-69.4986
11
-22.0927
21
-69.4986
0
LINE
8
BLACK
6
CONTINUOUS
10
-22.4855
20
-68.832
11
-22.6998
21
-70.5462
0
LINE
8
BLACK
6
CONTINUOUS
10
-22.6998
20
-70.5462
11
-22.6284
21
-70.7367
0
LINE
8
BLACK
6
CONTINUOUS
10
-22.6284
20
-70.7367
11
-22.4498
21
-70.832
0
LINE
8
BLACK
6
CONTINUOUS
10
-22.4498
20
-70.832
11
-22.2593
21
-70.832
0
LINE
8
BLACK
6
CONTINUOUS
10
-21.3069
20
-70.832
11
-21.4855
21
-70.7367
0
LINE
8
BLACK
6
CONTINUOUS
10
-21.4855
20
-70.7367
11
-21.5569
21
-70.5462
0
LINE
8
BLACK
6
CONTINUOUS
10
-21.5569
20
-70.5462
11
-21.3427
21
-68.832
0
LINE
8
BLACK
6
CONTINUOUS
10
-19.7712
20
-70.7367
11
-19.9736
21
-70.832
0
LINE
8
BLACK
6
CONTINUOUS
10
-19.9736
20
-70.832
11
-20.3546
21
-70.832
0
LINE
8
BLACK
6
CONTINUOUS
10
-20.3546
20
-70.832
11
-20.5331
21
-70.7367
0
LINE
8
BLACK
6
CONTINUOUS
10
-20.5331
20
-70.7367
11
-20.6046
21
-70.5462
0
LINE
8
BLACK
6
CONTINUOUS
10
-20.6046
20
-70.5462
11
-20.5093
21
-69.7843
0
LINE
8
BLACK
6
CONTINUOUS
10
-20.5093
20
-69.7843
11
-20.3903
21
-69.5939
0
LINE
8
BLACK
6
CONTINUOUS
10
-20.3903
20
-69.5939
11
-20.1879
21
-69.4986
0
LINE
8
BLACK
6
CONTINUOUS
10
-20.1879
20
-69.4986
11
-19.8069
21
-69.4986
0
LINE
8
BLACK
6
CONTINUOUS
10
-19.8069
20
-69.4986
11
-19.6284
21
-69.5939
0
LINE
8
BLACK
6
CONTINUOUS
10
-19.6284
20
-69.5939
11
-19.5569
21
-69.7843
0
LINE
8
BLACK
6
CONTINUOUS
10
-19.5569
20
-69.7843
11
-19.5808
21
-69.9748
0
LINE
8
BLACK
6
CONTINUOUS
10
-19.5808
20
-69.9748
11
-20.5569
21
-70.1653
0
LINE
8
BLACK
6
CONTINUOUS
10
-18.8069
20
-70.6415
11
-18.7236
21
-70.7367
0
LINE
8
BLACK
6
CONTINUOUS
10
-18.7236
20
-70.7367
11
-18.8308
21
-70.832
0
LINE
8
BLACK
6
CONTINUOUS
10
-18.8308
20
-70.832
11
-18.9141
21
-70.7367
0
LINE
8
BLACK
6
CONTINUOUS
10
-18.9141
20
-70.7367
11
-18.8069
21
-70.6415
0
LINE
8
BLACK
6
CONTINUOUS
10
-18.8069
20
-70.6415
11
-18.8308
21
-70.832
0
LINE
8
BLACK
6
CONTINUOUS
10
-18.676
20
-69.5939
11
-18.5927
21
-69.6891
0
LINE
8
BLACK
6
CONTINUOUS
10
-18.5927
20
-69.6891
11
-18.6998
21
-69.7843
0
LINE
8
BLACK
6
CONTINUOUS
10
-18.6998
20
-69.7843
11
-18.7831
21
-69.6891
0
LINE
8
BLACK
6
CONTINUOUS
10
-18.7831
20
-69.6891
11
-18.676
21
-69.5939
0
LINE
8
BLACK
6
CONTINUOUS
10
-18.676
20
-69.5939
11
-18.6998
21
-69.7843
0
LINE
8
BLACK
6
CONTINUOUS
10
-16.3546
20
-70.832
11
-16.1046
21
-68.832
0
LINE
8
BLACK
6
CONTINUOUS
10
-16.1046
20
-68.832
11
-15.3427
21
-68.832
0
LINE
8
BLACK
6
CONTINUOUS
10
-15.3427
20
-68.832
11
-15.1641
21
-68.9272
0
LINE
8
BLACK
6
CONTINUOUS
10
-15.1641
20
-68.9272
11
-15.0808
21
-69.0224
0
LINE
8
BLACK
6
CONTINUOUS
10
-15.0808
20
-69.0224
11
-15.0093
21
-69.2129
0
LINE
8
BLACK
6
CONTINUOUS
10
-15.0093
20
-69.2129
11
-15.045
21
-69.4986
0
LINE
8
BLACK
6
CONTINUOUS
10
-15.045
20
-69.4986
11
-15.1641
21
-69.6891
0
LINE
8
BLACK
6
CONTINUOUS
10
-15.1641
20
-69.6891
11
-15.2712
21
-69.7843
0
LINE
8
BLACK
6
CONTINUOUS
10
-15.2712
20
-69.7843
11
-15.4736
21
-69.8796
0
LINE
8
BLACK
6
CONTINUOUS
10
-15.4736
20
-69.8796
11
-16.2355
21
-69.8796
0
LINE
8
BLACK
6
CONTINUOUS
10
-14.0688
20
-70.832
11
-14.2474
21
-70.7367
0
LINE
8
BLACK
6
CONTINUOUS
10
-14.2474
20
-70.7367
11
-14.3188
21
-70.5462
0
LINE
8
BLACK
6
CONTINUOUS
10
-14.3188
20
-70.5462
11
-14.1046
21
-68.832
0
LINE
8
BLACK
6
CONTINUOUS
10
-13.3308
20
-69.4986
11
-13.0212
21
-70.832
0
LINE
8
BLACK
6
CONTINUOUS
10
-12.3784
20
-69.4986
11
-13.0212
21
-70.832
0
LINE
8
BLACK
6
CONTINUOUS
10
-13.0212
20
-70.832
11
-13.2712
21
-71.3082
0
LINE
8
BLACK
6
CONTINUOUS
10
-13.2712
20
-71.3082
11
-13.3784
21
-71.4034
0
LINE
8
BLACK
6
CONTINUOUS
10
-13.3784
20
-71.4034
11
-13.5808
21
-71.4986
0
LINE
8
BLACK
6
CONTINUOUS
10
-11.9022
20
-69.4986
11
-11.1403
21
-69.4986
0
LINE
8
BLACK
6
CONTINUOUS
10
-11.5331
20
-68.832
11
-11.7474
21
-70.5462
0
LINE
8
BLACK
6
CONTINUOUS
10
-11.7474
20
-70.5462
11
-11.676
21
-70.7367
0
LINE
8
BLACK
6
CONTINUOUS
10
-11.676
20
-70.7367
11
-11.4974
21
-70.832
0
LINE
8
BLACK
6
CONTINUOUS
10
-11.4974
20
-70.832
11
-11.3069
21
-70.832
0
LINE
8
BLACK
6
CONTINUOUS
10
-9.78313
20
-70.832
11
-9.65218
21
-69.7843
0
LINE
8
BLACK
6
CONTINUOUS
10
-9.65218
20
-69.7843
11
-9.72361
21
-69.5939
0
LINE
8
BLACK
6
CONTINUOUS
10
-9.72361
20
-69.5939
11
-9.90218
21
-69.4986
0
LINE
8
BLACK
6
CONTINUOUS
10
-9.90218
20
-69.4986
11
-10.2831
21
-69.4986
0
LINE
8
BLACK
6
CONTINUOUS
10
-10.2831
20
-69.4986
11
-10.4855
21
-69.5939
0
LINE
8
BLACK
6
CONTINUOUS
10
-9.77123
20
-70.7367
11
-9.97361
21
-70.832
0
LINE
8
BLACK
6
CONTINUOUS
10
-9.97361
20
-70.832
11
-10.4498
21
-70.832
0
LINE
8
BLACK
6
CONTINUOUS
10
-10.4498
20
-70.832
11
-10.6284
21
-70.7367
0
LINE
8
BLACK
6
CONTINUOUS
10
-10.6284
20
-70.7367
11
-10.6998
21
-70.5462
0
LINE
8
BLACK
6
CONTINUOUS
10
-10.6998
20
-70.5462
11
-10.676
21
-70.3558
0
LINE
8
BLACK
6
CONTINUOUS
10
-10.676
20
-70.3558
11
-10.5569
21
-70.1653
0
LINE
8
BLACK
6
CONTINUOUS
10
-10.5569
20
-70.1653
11
-10.3546
21
-70.0701
0
LINE
8
BLACK
6
CONTINUOUS
10
-10.3546
20
-70.0701
11
-9.87837
21
-70.0701
0
LINE
8
BLACK
6
CONTINUOUS
10
-9.87837
20
-70.0701
11
-9.67599
21
-69.9748
0
LINE
8
BLACK
6
CONTINUOUS
10
-7.14028
20
-69.4986
11
-7.39028
21
-71.4986
0
LINE
8
BLACK
6
CONTINUOUS
10
-7.15218
20
-69.5939
11
-6.9498
21
-69.4986
0
LINE
8
BLACK
6
CONTINUOUS
10
-6.9498
20
-69.4986
11
-6.56885
21
-69.4986
0
LINE
8
BLACK
6
CONTINUOUS
10
-6.56885
20
-69.4986
11
-6.39028
21
-69.5939
0
LINE
8
BLACK
6
CONTINUOUS
10
-6.39028
20
-69.5939
11
-6.30694
21
-69.6891
0
LINE
8
BLACK
6
CONTINUOUS
10
-6.30694
20
-69.6891
11
-6.23551
21
-69.8796
0
LINE
8
BLACK
6
CONTINUOUS
10
-6.23551
20
-69.8796
11
-6.30694
21
-70.451
0
LINE
8
BLACK
6
CONTINUOUS
10
-6.30694
20
-70.451
11
-6.42599
21
-70.6415
0
LINE
8
BLACK
6
CONTINUOUS
10
-6.42599
20
-70.6415
11
-6.53313
21
-70.7367
0
LINE
8
BLACK
6
CONTINUOUS
10
-6.53313
20
-70.7367
11
-6.73551
21
-70.832
0
LINE
8
BLACK
6
CONTINUOUS
10
-6.73551
20
-70.832
11
-7.11647
21
-70.832
0
LINE
8
BLACK
6
CONTINUOUS
10
-7.11647
20
-70.832
11
-7.29504
21
-70.7367
0
LINE
8
BLACK
6
CONTINUOUS
10
-5.49742
20
-70.832
11
-5.33075
21
-69.4986
0
LINE
8
BLACK
6
CONTINUOUS
10
-5.37837
20
-69.8796
11
-5.25932
21
-69.6891
0
LINE
8
BLACK
6
CONTINUOUS
10
-5.25932
20
-69.6891
11
-5.15218
21
-69.5939
0
LINE
8
BLACK
6
CONTINUOUS
10
-5.15218
20
-69.5939
11
-4.9498
21
-69.4986
0
LINE
8
BLACK
6
CONTINUOUS
10
-4.9498
20
-69.4986
11
-4.75932
21
-69.4986
0
LINE
8
BLACK
6
CONTINUOUS
10
-4.28313
20
-69.4986
11
-3.23551
21
-69.4986
0
LINE
8
BLACK
6
CONTINUOUS
10
-3.23551
20
-69.4986
11
-4.4498
21
-70.832
0
LINE
8
BLACK
6
CONTINUOUS
10
-4.4498
20
-70.832
11
-3.40218
21
-70.832
0
LINE
8
BLACK
6
CONTINUOUS
10
-1.86647
20
-70.7367
11
-2.06885
21
-70.832
0
LINE
8
BLACK
6
CONTINUOUS
10
-2.06885
20
-70.832
11
-2.4498
21
-70.832
0
LINE
8
BLACK
6
CONTINUOUS
10
-2.4498
20
-70.832
11
-2.62837
21
-70.7367
0
LINE
8
BLACK
6
CONTINUOUS
10
-2.62837
20
-70.7367
11
-2.6998
21
-70.5462
0
LINE
8
BLACK
6
CONTINUOUS
10
-2.6998
20
-70.5462
11
-2.60456
21
-69.7843
0
LINE
8
BLACK
6
CONTINUOUS
10
-2.60456
20
-69.7843
11
-2.48551
21
-69.5939
0
LINE
8
BLACK
6
CONTINUOUS
10
-2.48551
20
-69.5939
11
-2.28313
21
-69.4986
0
LINE
8
BLACK
6
CONTINUOUS
10
-2.28313
20
-69.4986
11
-1.90218
21
-69.4986
0
LINE
8
BLACK
6
CONTINUOUS
10
-1.90218
20
-69.4986
11
-1.72361
21
-69.5939
0
LINE
8
BLACK
6
CONTINUOUS
10
-1.72361
20
-69.5939
11
-1.65218
21
-69.7843
0
LINE
8
BLACK
6
CONTINUOUS
10
-1.65218
20
-69.7843
11
-1.67599
21
-69.9748
0
LINE
8
BLACK
6
CONTINUOUS
10
-1.67599
20
-69.9748
11
-2.65218
21
-70.1653
0
LINE
8
BLACK
6
CONTINUOUS
10
-0.925991
20
-70.832
11
-0.675991
21
-68.832
0
LINE
8
BLACK
6
CONTINUOUS
10
-0.640277
20
-70.0701
11
-0.164086
21
-70.832
0
LINE
8
BLACK
6
CONTINUOUS
10
0.00258
20
-69.4986
11
-0.854562
21
-70.2605
0
LINE
8
BLACK
6
CONTINUOUS
10
1.5502
20
-70.832
11
1.68115
21
-69.7843
0
LINE
8
BLACK
6
CONTINUOUS
10
1.68115
20
-69.7843
11
1.60972
21
-69.5939
0
LINE
8
BLACK
6
CONTINUOUS
10
1.60972
20
-69.5939
11
1.43115
21
-69.4986
0
LINE
8
BLACK
6
CONTINUOUS
10
1.43115
20
-69.4986
11
1.0502
21
-69.4986
0
LINE
8
BLACK
6
CONTINUOUS
10
1.0502
20
-69.4986
11
0.847819
21
-69.5939
0
LINE
8
BLACK
6
CONTINUOUS
10
1.5621
20
-70.7367
11
1.35972
21
-70.832
0
LINE
8
BLACK
6
CONTINUOUS
10
1.35972
20
-70.832
11
0.883533
21
-70.832
0
LINE
8
BLACK
6
CONTINUOUS
10
0.883533
20
-70.832
11
0.704961
21
-70.7367
0
LINE
8
BLACK
6
CONTINUOUS
10
0.704961
20
-70.7367
11
0.633533
21
-70.5462
0
LINE
8
BLACK
6
CONTINUOUS
10
0.633533
20
-70.5462
11
0.657342
21
-70.3558
0
LINE
8
BLACK
6
CONTINUOUS
10
0.657342
20
-70.3558
11
0.77639
21
-70.1653
0
LINE
8
BLACK
6
CONTINUOUS
10
0.77639
20
-70.1653
11
0.978771
21
-70.0701
0
LINE
8
BLACK
6
CONTINUOUS
10
0.978771
20
-70.0701
11
1.45496
21
-70.0701
0
LINE
8
BLACK
6
CONTINUOUS
10
1.45496
20
-70.0701
11
1.65734
21
-69.9748
0
LINE
8
BLACK
6
CONTINUOUS
10
2.47877
20
-69.4986
11
3.52639
21
-69.4986
0
LINE
8
BLACK
6
CONTINUOUS
10
3.52639
20
-69.4986
11
2.3121
21
-70.832
0
LINE
8
BLACK
6
CONTINUOUS
10
2.3121
20
-70.832
11
3.35972
21
-70.832
0
LINE
8
BLACK
6
CONTINUOUS
10
4.28829
20
-69.4986
11
4.12163
21
-70.832
0
LINE
8
BLACK
6
CONTINUOUS
10
4.26448
20
-69.6891
11
4.37163
21
-69.5939
0
LINE
8
BLACK
6
CONTINUOUS
10
4.37163
20
-69.5939
11
4.57401
21
-69.4986
0
LINE
8
BLACK
6
CONTINUOUS
10
4.57401
20
-69.4986
11
4.85972
21
-69.4986
0
LINE
8
BLACK
6
CONTINUOUS
10
4.85972
20
-69.4986
11
5.03829
21
-69.5939
0
LINE
8
BLACK
6
CONTINUOUS
10
5.03829
20
-69.5939
11
5.10972
21
-69.7843
0
LINE
8
BLACK
6
CONTINUOUS
10
5.10972
20
-69.7843
11
4.97877
21
-70.832
0
LINE
8
BLACK
6
CONTINUOUS
10
5.93115
20
-70.832
11
6.09782
21
-69.4986
0
LINE
8
BLACK
6
CONTINUOUS
10
6.18115
20
-68.832
11
6.07401
21
-68.9272
0
LINE
8
BLACK
6
CONTINUOUS
10
6.07401
20
-68.9272
11
6.15734
21
-69.0224
0
LINE
8
BLACK
6
CONTINUOUS
10
6.15734
20
-69.0224
11
6.26448
21
-68.9272
0
LINE
8
BLACK
6
CONTINUOUS
10
6.26448
20
-68.9272
11
6.18115
21
-68.832
0
LINE
8
BLACK
6
CONTINUOUS
10
6.18115
20
-68.832
11
6.15734
21
-69.0224
0
LINE
8
BLACK
6
CONTINUOUS
10
6.88353
20
-70.832
11
7.13353
21
-68.832
0
LINE
8
BLACK
6
CONTINUOUS
10
7.16925
20
-70.0701
11
7.64544
21
-70.832
0
LINE
8
BLACK
6
CONTINUOUS
10
7.8121
20
-69.4986
11
6.95496
21
-70.2605
0
LINE
8
BLACK
6
CONTINUOUS
10
8.78829
20
-70.832
11
8.60972
21
-70.7367
0
LINE
8
BLACK
6
CONTINUOUS
10
8.60972
20
-70.7367
11
8.52639
21
-70.6415
0
LINE
8
BLACK
6
CONTINUOUS
10
8.52639
20
-70.6415
11
8.45496
21
-70.451
0
LINE
8
BLACK
6
CONTINUOUS
10
8.45496
20
-70.451
11
8.52639
21
-69.8796
0
LINE
8
BLACK
6
CONTINUOUS
10
8.52639
20
-69.8796
11
8.64544
21
-69.6891
0
LINE
8
BLACK
6
CONTINUOUS
10
8.64544
20
-69.6891
11
8.75258
21
-69.5939
0
LINE
8
BLACK
6
CONTINUOUS
10
8.75258
20
-69.5939
11
8.95496
21
-69.4986
0
LINE
8
BLACK
6
CONTINUOUS
10
8.95496
20
-69.4986
11
9.24068
21
-69.4986
0
LINE
8
BLACK
6
CONTINUOUS
10
9.24068
20
-69.4986
11
9.41925
21
-69.5939
0
LINE
8
BLACK
6
CONTINUOUS
10
9.41925
20
-69.5939
11
9.50258
21
-69.6891
0
LINE
8
BLACK
6
CONTINUOUS
10
9.50258
20
-69.6891
11
9.57401
21
-69.8796
0
LINE
8
BLACK
6
CONTINUOUS
10
9.57401
20
-69.8796
11
9.50258
21
-70.451
0
LINE
8
BLACK
6
CONTINUOUS
10
9.50258
20
-70.451
11
9.38353
21
-70.6415
0
LINE
8
BLACK
6
CONTINUOUS
10
9.38353
20
-70.6415
11
9.27639
21
-70.7367
0
LINE
8
BLACK
6
CONTINUOUS
10
9.27639
20
-70.7367
11
9.07401
21
-70.832
0
LINE
8
BLACK
6
CONTINUOUS
10
9.07401
20
-70.832
11
8.78829
21
-70.832
0
LINE
8
BLACK
6
CONTINUOUS
10
10.2883
20
-69.4986
11
10.5026
21
-70.832
0
LINE
8
BLACK
6
CONTINUOUS
10
10.5026
20
-70.832
11
11.0026
21
-69.8796
0
LINE
8
BLACK
6
CONTINUOUS
10
11.0026
20
-69.8796
11
11.2645
21
-70.832
0
LINE
8
BLACK
6
CONTINUOUS
10
11.2645
20
-70.832
11
11.8121
21
-69.4986
0
LINE
8
BLACK
6
CONTINUOUS
10
14.0978
20
-69.4986
11
13.9312
21
-70.832
0
LINE
8
BLACK
6
CONTINUOUS
10
14.074
20
-69.6891
11
14.1812
21
-69.5939
0
LINE
8
BLACK
6
CONTINUOUS
10
14.1812
20
-69.5939
11
14.3835
21
-69.4986
0
LINE
8
BLACK
6
CONTINUOUS
10
14.3835
20
-69.4986
11
14.6692
21
-69.4986
0
LINE
8
BLACK
6
CONTINUOUS
10
14.6692
20
-69.4986
11
14.8478
21
-69.5939
0
LINE
8
BLACK
6
CONTINUOUS
10
14.8478
20
-69.5939
11
14.9192
21
-69.7843
0
LINE
8
BLACK
6
CONTINUOUS
10
14.9192
20
-69.7843
11
14.7883
21
-70.832
0
LINE
8
BLACK
6
CONTINUOUS
10
16.5978
20
-70.832
11
16.7288
21
-69.7843
0
LINE
8
BLACK
6
CONTINUOUS
10
16.7288
20
-69.7843
11
16.6573
21
-69.5939
0
LINE
8
BLACK
6
CONTINUOUS
10
16.6573
20
-69.5939
11
16.4788
21
-69.4986
0
LINE
8
BLACK
6
CONTINUOUS
10
16.4788
20
-69.4986
11
16.0978
21
-69.4986
0
LINE
8
BLACK
6
CONTINUOUS
10
16.0978
20
-69.4986
11
15.8954
21
-69.5939
0
LINE
8
BLACK
6
CONTINUOUS
10
16.6097
20
-70.7367
11
16.4073
21
-70.832
0
LINE
8
BLACK
6
CONTINUOUS
10
16.4073
20
-70.832
11
15.9312
21
-70.832
0
LINE
8
BLACK
6
CONTINUOUS
10
15.9312
20
-70.832
11
15.7526
21
-70.7367
0
LINE
8
BLACK
6
CONTINUOUS
10
15.7526
20
-70.7367
11
15.6812
21
-70.5462
0
LINE
8
BLACK
6
CONTINUOUS
10
15.6812
20
-70.5462
11
15.705
21
-70.3558
0
LINE
8
BLACK
6
CONTINUOUS
10
15.705
20
-70.3558
11
15.824
21
-70.1653
0
LINE
8
BLACK
6
CONTINUOUS
10
15.824
20
-70.1653
11
16.0264
21
-70.0701
0
LINE
8
BLACK
6
CONTINUOUS
10
16.0264
20
-70.0701
11
16.5026
21
-70.0701
0
LINE
8
BLACK
6
CONTINUOUS
10
16.5026
20
-70.0701
11
16.705
21
-69.9748
0
LINE
8
BLACK
6
CONTINUOUS
10
18.955
20
-69.4986
11
19.7169
21
-69.4986
0
LINE
8
BLACK
6
CONTINUOUS
10
19.324
20
-68.832
11
19.1097
21
-70.5462
0
LINE
8
BLACK
6
CONTINUOUS
10
19.1097
20
-70.5462
11
19.1812
21
-70.7367
0
LINE
8
BLACK
6
CONTINUOUS
10
19.1812
20
-70.7367
11
19.3597
21
-70.832
0
LINE
8
BLACK
6
CONTINUOUS
10
19.3597
20
-70.832
11
19.5502
21
-70.832
0
LINE
8
BLACK
6
CONTINUOUS
10
20.2169
20
-70.832
11
20.3835
21
-69.4986
0
LINE
8
BLACK
6
CONTINUOUS
10
20.3359
20
-69.8796
11
20.455
21
-69.6891
0
LINE
8
BLACK
6
CONTINUOUS
10
20.455
20
-69.6891
11
20.5621
21
-69.5939
0
LINE
8
BLACK
6
CONTINUOUS
10
20.5621
20
-69.5939
11
20.7645
21
-69.4986
0
LINE
8
BLACK
6
CONTINUOUS
10
20.7645
20
-69.4986
11
20.955
21
-69.4986
0
LINE
8
BLACK
6
CONTINUOUS
10
21.455
20
-70.832
11
21.6216
21
-69.4986
0
LINE
8
BLACK
6
CONTINUOUS
10
21.705
20
-68.832
11
21.5978
21
-68.9272
0
LINE
8
BLACK
6
CONTINUOUS
10
21.5978
20
-68.9272
11
21.6812
21
-69.0224
0
LINE
8
BLACK
6
CONTINUOUS
10
21.6812
20
-69.0224
11
21.7883
21
-68.9272
0
LINE
8
BLACK
6
CONTINUOUS
10
21.7883
20
-68.9272
11
21.705
21
-68.832
0
LINE
8
BLACK
6
CONTINUOUS
10
21.705
20
-68.832
11
21.6812
21
-69.0224
0
LINE
8
BLACK
6
CONTINUOUS
10
23.2645
20
-70.832
11
23.3954
21
-69.7843
0
LINE
8
BLACK
6
CONTINUOUS
10
23.3954
20
-69.7843
11
23.324
21
-69.5939
0
LINE
8
BLACK
6
CONTINUOUS
10
23.324
20
-69.5939
11
23.1454
21
-69.4986
0
LINE
8
BLACK
6
CONTINUOUS
10
23.1454
20
-69.4986
11
22.7645
21
-69.4986
0
LINE
8
BLACK
6
CONTINUOUS
10
22.7645
20
-69.4986
11
22.5621
21
-69.5939
0
LINE
8
BLACK
6
CONTINUOUS
10
23.2764
20
-70.7367
11
23.074
21
-70.832
0
LINE
8
BLACK
6
CONTINUOUS
10
23.074
20
-70.832
11
22.5978
21
-70.832
0
LINE
8
BLACK
6
CONTINUOUS
10
22.5978
20
-70.832
11
22.4192
21
-70.7367
0
LINE
8
BLACK
6
CONTINUOUS
10
22.4192
20
-70.7367
11
22.3478
21
-70.5462
0
LINE
8
BLACK
6
CONTINUOUS
10
22.3478
20
-70.5462
11
22.3716
21
-70.3558
0
LINE
8
BLACK
6
CONTINUOUS
10
22.3716
20
-70.3558
11
22.4907
21
-70.1653
0
LINE
8
BLACK
6
CONTINUOUS
10
22.4907
20
-70.1653
11
22.6931
21
-70.0701
0
LINE
8
BLACK
6
CONTINUOUS
10
22.6931
20
-70.0701
11
23.1692
21
-70.0701
0
LINE
8
BLACK
6
CONTINUOUS
10
23.1692
20
-70.0701
11
23.3716
21
-69.9748
0
LINE
8
BLACK
6
CONTINUOUS
10
24.2169
20
-70.832
11
24.4669
21
-68.832
0
LINE
8
BLACK
6
CONTINUOUS
10
24.5026
20
-70.0701
11
24.9788
21
-70.832
0
LINE
8
BLACK
6
CONTINUOUS
10
25.1454
20
-69.4986
11
24.2883
21
-70.2605
0
LINE
8
BLACK
6
CONTINUOUS
10
26.6931
20
-70.832
11
26.824
21
-69.7843
0
LINE
8
BLACK
6
CONTINUOUS
10
26.824
20
-69.7843
11
26.7526
21
-69.5939
0
LINE
8
BLACK
6
CONTINUOUS
10
26.7526
20
-69.5939
11
26.574
21
-69.4986
0
LINE
8
BLACK
6
CONTINUOUS
10
26.574
20
-69.4986
11
26.1931
21
-69.4986
0
LINE
8
BLACK
6
CONTINUOUS
10
26.1931
20
-69.4986
11
25.9907
21
-69.5939
0
LINE
8
BLACK
6
CONTINUOUS
10
26.705
20
-70.7367
11
26.5026
21
-70.832
0
LINE
8
BLACK
6
CONTINUOUS
10
26.5026
20
-70.832
11
26.0264
21
-70.832
0
LINE
8
BLACK
6
CONTINUOUS
10
26.0264
20
-70.832
11
25.8478
21
-70.7367
0
LINE
8
BLACK
6
CONTINUOUS
10
25.8478
20
-70.7367
11
25.7764
21
-70.5462
0
LINE
8
BLACK
6
CONTINUOUS
10
25.7764
20
-70.5462
11
25.8002
21
-70.3558
0
LINE
8
BLACK
6
CONTINUOUS
10
25.8002
20
-70.3558
11
25.9192
21
-70.1653
0
LINE
8
BLACK
6
CONTINUOUS
10
25.9192
20
-70.1653
11
26.1216
21
-70.0701
0
LINE
8
BLACK
6
CONTINUOUS
10
26.1216
20
-70.0701
11
26.5978
21
-70.0701
0
LINE
8
BLACK
6
CONTINUOUS
10
26.5978
20
-70.0701
11
26.8002
21
-69.9748
0
LINE
8
BLACK
6
CONTINUOUS
10
28.5145
20
-70.7367
11
28.3121
21
-70.832
0
LINE
8
BLACK
6
CONTINUOUS
10
28.3121
20
-70.832
11
27.9312
21
-70.832
0
LINE
8
BLACK
6
CONTINUOUS
10
27.9312
20
-70.832
11
27.7526
21
-70.7367
0
LINE
8
BLACK
6
CONTINUOUS
10
27.7526
20
-70.7367
11
27.6692
21
-70.6415
0
LINE
8
BLACK
6
CONTINUOUS
10
27.6692
20
-70.6415
11
27.5978
21
-70.451
0
LINE
8
BLACK
6
CONTINUOUS
10
27.5978
20
-70.451
11
27.6692
21
-69.8796
0
LINE
8
BLACK
6
CONTINUOUS
10
27.6692
20
-69.8796
11
27.7883
21
-69.6891
0
LINE
8
BLACK
6
CONTINUOUS
10
27.7883
20
-69.6891
11
27.8954
21
-69.5939
0
LINE
8
BLACK
6
CONTINUOUS
10
27.8954
20
-69.5939
11
28.0978
21
-69.4986
0
LINE
8
BLACK
6
CONTINUOUS
10
28.0978
20
-69.4986
11
28.4788
21
-69.4986
0
LINE
8
BLACK
6
CONTINUOUS
10
28.4788
20
-69.4986
11
28.6573
21
-69.5939
0
LINE
8
BLACK
6
CONTINUOUS
10
29.3597
20
-70.832
11
29.6097
21
-68.832
0
LINE
8
BLACK
6
CONTINUOUS
10
30.2169
20
-70.832
11
30.3478
21
-69.7843
0
LINE
8
BLACK
6
CONTINUOUS
10
30.3478
20
-69.7843
11
30.2764
21
-69.5939
0
LINE
8
BLACK
6
CONTINUOUS
10
30.2764
20
-69.5939
11
30.0978
21
-69.4986
0
LINE
8
BLACK
6
CONTINUOUS
10
30.0978
20
-69.4986
11
29.8121
21
-69.4986
0
LINE
8
BLACK
6
CONTINUOUS
10
29.8121
20
-69.4986
11
29.6097
21
-69.5939
0
LINE
8
BLACK
6
CONTINUOUS
10
29.6097
20
-69.5939
11
29.5026
21
-69.6891
0
LINE
8
BLACK
6
CONTINUOUS
10
-25.0277
20
-66.2201
11
-25.5277
21
-66.2201
0
LINE
8
BLACK
6
CONTINUOUS
10
-25.5277
20
-67.0058
11
-25.5277
21
-65.5058
0
LINE
8
BLACK
6
CONTINUOUS
10
-25.5277
20
-65.5058
11
-24.8134
21
-65.5058
0
LINE
8
BLACK
6
CONTINUOUS
10
-24.2419
20
-67.0058
11
-24.2419
21
-66.0058
0
LINE
8
BLACK
6
CONTINUOUS
10
-24.2419
20
-65.5058
11
-24.3134
21
-65.5772
0
LINE
8
BLACK
6
CONTINUOUS
10
-24.3134
20
-65.5772
11
-24.2419
21
-65.6486
0
LINE
8
BLACK
6
CONTINUOUS
10
-24.2419
20
-65.6486
11
-24.1705
21
-65.5772
0
LINE
8
BLACK
6
CONTINUOUS
10
-24.1705
20
-65.5772
11
-24.2419
21
-65.5058
0
LINE
8
BLACK
6
CONTINUOUS
10
-24.2419
20
-65.5058
11
-24.2419
21
-65.6486
0
LINE
8
BLACK
6
CONTINUOUS
10
-23.3134
20
-67.0058
11
-23.4562
21
-66.9343
0
LINE
8
BLACK
6
CONTINUOUS
10
-23.4562
20
-66.9343
11
-23.5277
21
-66.7915
0
LINE
8
BLACK
6
CONTINUOUS
10
-23.5277
20
-66.7915
11
-23.5277
21
-65.5058
0
LINE
8
BLACK
6
CONTINUOUS
10
-22.1705
20
-66.9343
11
-22.3134
21
-67.0058
0
LINE
8
BLACK
6
CONTINUOUS
10
-22.3134
20
-67.0058
11
-22.5991
21
-67.0058
0
LINE
8
BLACK
6
CONTINUOUS
10
-22.5991
20
-67.0058
11
-22.7419
21
-66.9343
0
LINE
8
BLACK
6
CONTINUOUS
10
-22.7419
20
-66.9343
11
-22.8134
21
-66.7915
0
LINE
8
BLACK
6
CONTINUOUS
10
-22.8134
20
-66.7915
11
-22.8134
21
-66.2201
0
LINE
8
BLACK
6
CONTINUOUS
10
-22.8134
20
-66.2201
11
-22.7419
21
-66.0772
0
LINE
8
BLACK
6
CONTINUOUS
10
-22.7419
20
-66.0772
11
-22.5991
21
-66.0058
0
LINE
8
BLACK
6
CONTINUOUS
10
-22.5991
20
-66.0058
11
-22.3134
21
-66.0058
0
LINE
8
BLACK
6
CONTINUOUS
10
-22.3134
20
-66.0058
11
-22.1705
21
-66.0772
0
LINE
8
BLACK
6
CONTINUOUS
10
-22.1705
20
-66.0772
11
-22.0991
21
-66.2201
0
LINE
8
BLACK
6
CONTINUOUS
10
-22.0991
20
-66.2201
11
-22.0991
21
-66.3629
0
LINE
8
BLACK
6
CONTINUOUS
10
-22.0991
20
-66.3629
11
-22.8134
21
-66.5058
0
LINE
8
BLACK
6
CONTINUOUS
10
-21.4562
20
-66.8629
11
-21.3848
21
-66.9343
0
LINE
8
BLACK
6
CONTINUOUS
10
-21.3848
20
-66.9343
11
-21.4562
21
-67.0058
0
LINE
8
BLACK
6
CONTINUOUS
10
-21.4562
20
-67.0058
11
-21.5277
21
-66.9343
0
LINE
8
BLACK
6
CONTINUOUS
10
-21.5277
20
-66.9343
11
-21.4562
21
-66.8629
0
LINE
8
BLACK
6
CONTINUOUS
10
-21.4562
20
-66.8629
11
-21.4562
21
-67.0058
0
LINE
8
BLACK
6
CONTINUOUS
10
-21.4562
20
-66.0772
11
-21.3848
21
-66.1486
0
LINE
8
BLACK
6
CONTINUOUS
10
-21.3848
20
-66.1486
11
-21.4562
21
-66.2201
0
LINE
8
BLACK
6
CONTINUOUS
10
-21.4562
20
-66.2201
11
-21.5277
21
-66.1486
0
LINE
8
BLACK
6
CONTINUOUS
10
-21.5277
20
-66.1486
11
-21.4562
21
-66.0772
0
LINE
8
BLACK
6
CONTINUOUS
10
-21.4562
20
-66.0772
11
-21.4562
21
-66.2201
0
LINE
8
BLACK
6
CONTINUOUS
10
-18.7419
20
-66.8629
11
-18.8134
21
-66.9343
0
LINE
8
BLACK
6
CONTINUOUS
10
-18.8134
20
-66.9343
11
-19.0277
21
-67.0058
0
LINE
8
BLACK
6
CONTINUOUS
10
-19.0277
20
-67.0058
11
-19.1705
21
-67.0058
0
LINE
8
BLACK
6
CONTINUOUS
10
-19.1705
20
-67.0058
11
-19.3848
21
-66.9343
0
LINE
8
BLACK
6
CONTINUOUS
10
-19.3848
20
-66.9343
11
-19.5277
21
-66.7915
0
LINE
8
BLACK
6
CONTINUOUS
10
-19.5277
20
-66.7915
11
-19.5991
21
-66.6486
0
LINE
8
BLACK
6
CONTINUOUS
10
-19.5991
20
-66.6486
11
-19.6705
21
-66.3629
0
LINE
8
BLACK
6
CONTINUOUS
10
-19.6705
20
-66.3629
11
-19.6705
21
-66.1486
0
LINE
8
BLACK
6
CONTINUOUS
10
-19.6705
20
-66.1486
11
-19.5991
21
-65.8629
0
LINE
8
BLACK
6
CONTINUOUS
10
-19.5991
20
-65.8629
11
-19.5277
21
-65.7201
0
LINE
8
BLACK
6
CONTINUOUS
10
-19.5277
20
-65.7201
11
-19.3848
21
-65.5772
0
LINE
8
BLACK
6
CONTINUOUS
10
-19.3848
20
-65.5772
11
-19.1705
21
-65.5058
0
LINE
8
BLACK
6
CONTINUOUS
10
-19.1705
20
-65.5058
11
-19.0277
21
-65.5058
0
LINE
8
BLACK
6
CONTINUOUS
10
-19.0277
20
-65.5058
11
-18.8134
21
-65.5772
0
LINE
8
BLACK
6
CONTINUOUS
10
-18.8134
20
-65.5772
11
-18.7419
21
-65.6486
0
LINE
8
BLACK
6
CONTINUOUS
10
-17.5277
20
-66.9343
11
-17.6705
21
-67.0058
0
LINE
8
BLACK
6
CONTINUOUS
10
-17.6705
20
-67.0058
11
-17.9562
21
-67.0058
0
LINE
8
BLACK
6
CONTINUOUS
10
-17.9562
20
-67.0058
11
-18.0991
21
-66.9343
0
LINE
8
BLACK
6
CONTINUOUS
10
-18.0991
20
-66.9343
11
-18.1705
21
-66.7915
0
LINE
8
BLACK
6
CONTINUOUS
10
-18.1705
20
-66.7915
11
-18.1705
21
-66.2201
0
LINE
8
BLACK
6
CONTINUOUS
10
-18.1705
20
-66.2201
11
-18.0991
21
-66.0772
0
LINE
8
BLACK
6
CONTINUOUS
10
-18.0991
20
-66.0772
11
-17.9562
21
-66.0058
0
LINE
8
BLACK
6
CONTINUOUS
10
-17.9562
20
-66.0058
11
-17.6705
21
-66.0058
0
LINE
8
BLACK
6
CONTINUOUS
10
-17.6705
20
-66.0058
11
-17.5277
21
-66.0772
0
LINE
8
BLACK
6
CONTINUOUS
10
-17.5277
20
-66.0772
11
-17.4562
21
-66.2201
0
LINE
8
BLACK
6
CONTINUOUS
10
-17.4562
20
-66.2201
11
-17.4562
21
-66.3629
0
LINE
8
BLACK
6
CONTINUOUS
10
-17.4562
20
-66.3629
11
-18.1705
21
-66.5058
0
LINE
8
BLACK
6
CONTINUOUS
10
-16.8134
20
-66.0058
11
-16.8134
21
-67.0058
0
LINE
8
BLACK
6
CONTINUOUS
10
-16.8134
20
-66.1486
11
-16.7419
21
-66.0772
0
LINE
8
BLACK
6
CONTINUOUS
10
-16.7419
20
-66.0772
11
-16.5991
21
-66.0058
0
LINE
8
BLACK
6
CONTINUOUS
10
-16.5991
20
-66.0058
11
-16.3848
21
-66.0058
0
LINE
8
BLACK
6
CONTINUOUS
10
-16.3848
20
-66.0058
11
-16.2419
21
-66.0772
0
LINE
8
BLACK
6
CONTINUOUS
10
-16.2419
20
-66.0772
11
-16.1705
21
-66.2201
0
LINE
8
BLACK
6
CONTINUOUS
10
-16.1705
20
-66.2201
11
-16.1705
21
-67.0058
0
LINE
8
BLACK
6
CONTINUOUS
10
-15.6705
20
-66.0058
11
-15.0991
21
-66.0058
0
LINE
8
BLACK
6
CONTINUOUS
10
-15.4562
20
-65.5058
11
-15.4562
21
-66.7915
0
LINE
8
BLACK
6
CONTINUOUS
10
-15.4562
20
-66.7915
11
-15.3848
21
-66.9343
0
LINE
8
BLACK
6
CONTINUOUS
10
-15.3848
20
-66.9343
11
-15.2419
21
-67.0058
0
LINE
8
BLACK
6
CONTINUOUS
10
-15.2419
20
-67.0058
11
-15.0991
21
-67.0058
0
LINE
8
BLACK
6
CONTINUOUS
10
-14.5991
20
-67.0058
11
-14.5991
21
-66.0058
0
LINE
8
BLACK
6
CONTINUOUS
10
-14.5991
20
-66.2915
11
-14.5277
21
-66.1486
0
LINE
8
BLACK
6
CONTINUOUS
10
-14.5277
20
-66.1486
11
-14.4562
21
-66.0772
0
LINE
8
BLACK
6
CONTINUOUS
10
-14.4562
20
-66.0772
11
-14.3134
21
-66.0058
0
LINE
8
BLACK
6
CONTINUOUS
10
-14.3134
20
-66.0058
11
-14.1705
21
-66.0058
0
LINE
8
BLACK
6
CONTINUOUS
10
-13.0277
20
-67.0058
11
-13.0277
21
-66.2201
0
LINE
8
BLACK
6
CONTINUOUS
10
-13.0277
20
-66.2201
11
-13.0991
21
-66.0772
0
LINE
8
BLACK
6
CONTINUOUS
10
-13.0991
20
-66.0772
11
-13.2419
21
-66.0058
0
LINE
8
BLACK
6
CONTINUOUS
10
-13.2419
20
-66.0058
11
-13.5277
21
-66.0058
0
LINE
8
BLACK
6
CONTINUOUS
10
-13.5277
20
-66.0058
11
-13.6705
21
-66.0772
0
LINE
8
BLACK
6
CONTINUOUS
10
-13.0277
20
-66.9343
11
-13.1705
21
-67.0058
0
LINE
8
BLACK
6
CONTINUOUS
10
-13.1705
20
-67.0058
11
-13.5277
21
-67.0058
0
LINE
8
BLACK
6
CONTINUOUS
10
-13.5277
20
-67.0058
11
-13.6705
21
-66.9343
0
LINE
8
BLACK
6
CONTINUOUS
10
-13.6705
20
-66.9343
11
-13.7419
21
-66.7915
0
LINE
8
BLACK
6
CONTINUOUS
10
-13.7419
20
-66.7915
11
-13.7419
21
-66.6486
0
LINE
8
BLACK
6
CONTINUOUS
10
-13.7419
20
-66.6486
11
-13.6705
21
-66.5058
0
LINE
8
BLACK
6
CONTINUOUS
10
-13.6705
20
-66.5058
11
-13.5277
21
-66.4343
0
LINE
8
BLACK
6
CONTINUOUS
10
-13.5277
20
-66.4343
11
-13.1705
21
-66.4343
0
LINE
8
BLACK
6
CONTINUOUS
10
-13.1705
20
-66.4343
11
-13.0277
21
-66.3629
0
LINE
8
BLACK
6
CONTINUOUS
10
-12.0991
20
-67.0058
11
-12.2419
21
-66.9343
0
LINE
8
BLACK
6
CONTINUOUS
10
-12.2419
20
-66.9343
11
-12.3134
21
-66.7915
0
LINE
8
BLACK
6
CONTINUOUS
10
-12.3134
20
-66.7915
11
-12.3134
21
-65.5058
0
LINE
8
BLACK
6
CONTINUOUS
10
-10.3848
20
-67.0058
11
-10.3848
21
-65.5058
0
LINE
8
BLACK
6
CONTINUOUS
10
-10.3848
20
-66.2201
11
-9.52766
21
-66.2201
0
LINE
8
BLACK
6
CONTINUOUS
10
-9.52766
20
-67.0058
11
-9.52766
21
-65.5058
0
LINE
8
BLACK
6
CONTINUOUS
10
-8.24194
20
-66.9343
11
-8.3848
21
-67.0058
0
LINE
8
BLACK
6
CONTINUOUS
10
-8.3848
20
-67.0058
11
-8.67051
21
-67.0058
0
LINE
8
BLACK
6
CONTINUOUS
10
-8.67051
20
-67.0058
11
-8.81337
21
-66.9343
0
LINE
8
BLACK
6
CONTINUOUS
10
-8.81337
20
-66.9343
11
-8.8848
21
-66.7915
0
LINE
8
BLACK
6
CONTINUOUS
10
-8.8848
20
-66.7915
11
-8.8848
21
-66.2201
0
LINE
8
BLACK
6
CONTINUOUS
10
-8.8848
20
-66.2201
11
-8.81337
21
-66.0772
0
LINE
8
BLACK
6
CONTINUOUS
10
-8.81337
20
-66.0772
11
-8.67051
21
-66.0058
0
LINE
8
BLACK
6
CONTINUOUS
10
-8.67051
20
-66.0058
11
-8.3848
21
-66.0058
0
LINE
8
BLACK
6
CONTINUOUS
10
-8.3848
20
-66.0058
11
-8.24194
21
-66.0772
0
LINE
8
BLACK
6
CONTINUOUS
10
-8.24194
20
-66.0772
11
-8.17051
21
-66.2201
0
LINE
8
BLACK
6
CONTINUOUS
10
-8.17051
20
-66.2201
11
-8.17051
21
-66.3629
0
LINE
8
BLACK
6
CONTINUOUS
10
-8.17051
20
-66.3629
11
-8.8848
21
-66.5058
0
LINE
8
BLACK
6
CONTINUOUS
10
-6.8848
20
-67.0058
11
-6.8848
21
-66.2201
0
LINE
8
BLACK
6
CONTINUOUS
10
-6.8848
20
-66.2201
11
-6.95623
21
-66.0772
0
LINE
8
BLACK
6
CONTINUOUS
10
-6.95623
20
-66.0772
11
-7.09909
21
-66.0058
0
LINE
8
BLACK
6
CONTINUOUS
10
-7.09909
20
-66.0058
11
-7.3848
21
-66.0058
0
LINE
8
BLACK
6
CONTINUOUS
10
-7.3848
20
-66.0058
11
-7.52766
21
-66.0772
0
LINE
8
BLACK
6
CONTINUOUS
10
-6.8848
20
-66.9343
11
-7.02766
21
-67.0058
0
LINE
8
BLACK
6
CONTINUOUS
10
-7.02766
20
-67.0058
11
-7.3848
21
-67.0058
0
LINE
8
BLACK
6
CONTINUOUS
10
-7.3848
20
-67.0058
11
-7.52766
21
-66.9343
0
LINE
8
BLACK
6
CONTINUOUS
10
-7.52766
20
-66.9343
11
-7.59909
21
-66.7915
0
LINE
8
BLACK
6
CONTINUOUS
10
-7.59909
20
-66.7915
11
-7.59909
21
-66.6486
0
LINE
8
BLACK
6
CONTINUOUS
10
-7.59909
20
-66.6486
11
-7.52766
21
-66.5058
0
LINE
8
BLACK
6
CONTINUOUS
10
-7.52766
20
-66.5058
11
-7.3848
21
-66.4343
0
LINE
8
BLACK
6
CONTINUOUS
10
-7.3848
20
-66.4343
11
-7.02766
21
-66.4343
0
LINE
8
BLACK
6
CONTINUOUS
10
-7.02766
20
-66.4343
11
-6.8848
21
-66.3629
0
LINE
8
BLACK
6
CONTINUOUS
10
-6.3848
20
-66.0058
11
-5.81337
21
-66.0058
0
LINE
8
BLACK
6
CONTINUOUS
10
-6.17051
20
-65.5058
11
-6.17051
21
-66.7915
0
LINE
8
BLACK
6
CONTINUOUS
10
-6.17051
20
-66.7915
11
-6.09909
21
-66.9343
0
LINE
8
BLACK
6
CONTINUOUS
10
-6.09909
20
-66.9343
11
-5.95623
21
-67.0058
0
LINE
8
BLACK
6
CONTINUOUS
10
-5.95623
20
-67.0058
11
-5.81337
21
-67.0058
0
LINE
8
BLACK
6
CONTINUOUS
10
-5.31337
20
-67.0058
11
-5.31337
21
-66.0058
0
LINE
8
BLACK
6
CONTINUOUS
10
-5.31337
20
-65.5058
11
-5.3848
21
-65.5772
0
LINE
8
BLACK
6
CONTINUOUS
10
-5.3848
20
-65.5772
11
-5.31337
21
-65.6486
0
LINE
8
BLACK
6
CONTINUOUS
10
-5.31337
20
-65.6486
11
-5.24194
21
-65.5772
0
LINE
8
BLACK
6
CONTINUOUS
10
-5.24194
20
-65.5772
11
-5.31337
21
-65.5058
0
LINE
8
BLACK
6
CONTINUOUS
10
-5.31337
20
-65.5058
11
-5.31337
21
-65.6486
0
LINE
8
BLACK
6
CONTINUOUS
10
-4.59909
20
-66.0058
11
-4.59909
21
-67.0058
0
LINE
8
BLACK
6
CONTINUOUS
10
-4.59909
20
-66.1486
11
-4.52766
21
-66.0772
0
LINE
8
BLACK
6
CONTINUOUS
10
-4.52766
20
-66.0772
11
-4.3848
21
-66.0058
0
LINE
8
BLACK
6
CONTINUOUS
10
-4.3848
20
-66.0058
11
-4.17051
21
-66.0058
0
LINE
8
BLACK
6
CONTINUOUS
10
-4.17051
20
-66.0058
11
-4.02766
21
-66.0772
0
LINE
8
BLACK
6
CONTINUOUS
10
-4.02766
20
-66.0772
11
-3.95623
21
-66.2201
0
LINE
8
BLACK
6
CONTINUOUS
10
-3.95623
20
-66.2201
11
-3.95623
21
-67.0058
0
LINE
8
BLACK
6
CONTINUOUS
10
-2.59909
20
-66.0058
11
-2.59909
21
-67.2201
0
LINE
8
BLACK
6
CONTINUOUS
10
-2.59909
20
-67.2201
11
-2.67051
21
-67.3629
0
LINE
8
BLACK
6
CONTINUOUS
10
-2.67051
20
-67.3629
11
-2.74194
21
-67.4343
0
LINE
8
BLACK
6
CONTINUOUS
10
-2.74194
20
-67.4343
11
-2.8848
21
-67.5058
0
LINE
8
BLACK
6
CONTINUOUS
10
-2.8848
20
-67.5058
11
-3.09909
21
-67.5058
0
LINE
8
BLACK
6
CONTINUOUS
10
-3.09909
20
-67.5058
11
-3.24194
21
-67.4343
0
LINE
8
BLACK
6
CONTINUOUS
10
-2.59909
20
-66.9343
11
-2.74194
21
-67.0058
0
LINE
8
BLACK
6
CONTINUOUS
10
-2.74194
20
-67.0058
11
-3.02766
21
-67.0058
0
LINE
8
BLACK
6
CONTINUOUS
10
-3.02766
20
-67.0058
11
-3.17051
21
-66.9343
0
LINE
8
BLACK
6
CONTINUOUS
10
-3.17051
20
-66.9343
11
-3.24194
21
-66.8629
0
LINE
8
BLACK
6
CONTINUOUS
10
-3.24194
20
-66.8629
11
-3.31337
21
-66.7201
0
LINE
8
BLACK
6
CONTINUOUS
10
-3.31337
20
-66.7201
11
-3.31337
21
-66.2915
0
LINE
8
BLACK
6
CONTINUOUS
10
-3.31337
20
-66.2915
11
-3.24194
21
-66.1486
0
LINE
8
BLACK
6
CONTINUOUS
10
-3.24194
20
-66.1486
11
-3.17051
21
-66.0772
0
LINE
8
BLACK
6
CONTINUOUS
10
-3.17051
20
-66.0772
11
-3.02766
21
-66.0058
0
LINE
8
BLACK
6
CONTINUOUS
10
-3.02766
20
-66.0058
11
-2.74194
21
-66.0058
0
LINE
8
BLACK
6
CONTINUOUS
10
-2.74194
20
-66.0058
11
-2.59909
21
-66.0772
0
LINE
8
BLACK
6
CONTINUOUS
10
0.1152
20
-66.8629
11
0.043771
21
-66.9343
0
LINE
8
BLACK
6
CONTINUOUS
10
0.043771
20
-66.9343
11
-0.170515
21
-67.0058
0
LINE
8
BLACK
6
CONTINUOUS
10
-0.170515
20
-67.0058
11
-0.313372
21
-67.0058
0
LINE
8
BLACK
6
CONTINUOUS
10
-0.313372
20
-67.0058
11
-0.527658
21
-66.9343
0
LINE
8
BLACK
6
CONTINUOUS
10
-0.527658
20
-66.9343
11
-0.670515
21
-66.7915
0
LINE
8
BLACK
6
CONTINUOUS
10
-0.670515
20
-66.7915
11
-0.741943
21
-66.6486
0
LINE
8
BLACK
6
CONTINUOUS
10
-0.741943
20
-66.6486
11
-0.813372
21
-66.3629
0
LINE
8
BLACK
6
CONTINUOUS
10
-0.813372
20
-66.3629
11
-0.813372
21
-66.1486
0
LINE
8
BLACK
6
CONTINUOUS
10
-0.813372
20
-66.1486
11
-0.741943
21
-65.8629
0
LINE
8
BLACK
6
CONTINUOUS
10
-0.741943
20
-65.8629
11
-0.670515
21
-65.7201
0
LINE
8
BLACK
6
CONTINUOUS
10
-0.670515
20
-65.7201
11
-0.527658
21
-65.5772
0
LINE
8
BLACK
6
CONTINUOUS
10
-0.527658
20
-65.5772
11
-0.313372
21
-65.5058
0
LINE
8
BLACK
6
CONTINUOUS
10
-0.313372
20
-65.5058
11
-0.170515
21
-65.5058
0
LINE
8
BLACK
6
CONTINUOUS
10
-0.170515
20
-65.5058
11
0.043771
21
-65.5772
0
LINE
8
BLACK
6
CONTINUOUS
10
0.043771
20
-65.5772
11
0.1152
21
-65.6486
0
LINE
8
BLACK
6
CONTINUOUS
10
0.972342
20
-67.0058
11
0.829485
21
-66.9343
0
LINE
8
BLACK
6
CONTINUOUS
10
0.829485
20
-66.9343
11
0.758057
21
-66.8629
0
LINE
8
BLACK
6
CONTINUOUS
10
0.758057
20
-66.8629
11
0.686628
21
-66.7201
0
LINE
8
BLACK
6
CONTINUOUS
10
0.686628
20
-66.7201
11
0.686628
21
-66.2915
0
LINE
8
BLACK
6
CONTINUOUS
10
0.686628
20
-66.2915
11
0.758057
21
-66.1486
0
LINE
8
BLACK
6
CONTINUOUS
10
0.758057
20
-66.1486
11
0.829485
21
-66.0772
0
LINE
8
BLACK
6
CONTINUOUS
10
0.829485
20
-66.0772
11
0.972342
21
-66.0058
0
LINE
8
BLACK
6
CONTINUOUS
10
0.972342
20
-66.0058
11
1.18663
21
-66.0058
0
LINE
8
BLACK
6
CONTINUOUS
10
1.18663
20
-66.0058
11
1.32949
21
-66.0772
0
LINE
8
BLACK
6
CONTINUOUS
10
1.32949
20
-66.0772
11
1.40091
21
-66.1486
0
LINE
8
BLACK
6
CONTINUOUS
10
1.40091
20
-66.1486
11
1.47234
21
-66.2915
0
LINE
8
BLACK
6
CONTINUOUS
10
1.47234
20
-66.2915
11
1.47234
21
-66.7201
0
LINE
8
BLACK
6
CONTINUOUS
10
1.47234
20
-66.7201
11
1.40091
21
-66.8629
0
LINE
8
BLACK
6
CONTINUOUS
10
1.40091
20
-66.8629
11
1.32949
21
-66.9343
0
LINE
8
BLACK
6
CONTINUOUS
10
1.32949
20
-66.9343
11
1.18663
21
-67.0058
0
LINE
8
BLACK
6
CONTINUOUS
10
1.18663
20
-67.0058
11
0.972342
21
-67.0058
0
LINE
8
BLACK
6
CONTINUOUS
10
2.1152
20
-66.0058
11
2.1152
21
-67.0058
0
LINE
8
BLACK
6
CONTINUOUS
10
2.1152
20
-66.1486
11
2.18663
21
-66.0772
0
LINE
8
BLACK
6
CONTINUOUS
10
2.18663
20
-66.0772
11
2.32949
21
-66.0058
0
LINE
8
BLACK
6
CONTINUOUS
10
2.32949
20
-66.0058
11
2.54377
21
-66.0058
0
LINE
8
BLACK
6
CONTINUOUS
10
2.54377
20
-66.0058
11
2.68663
21
-66.0772
0
LINE
8
BLACK
6
CONTINUOUS
10
2.68663
20
-66.0772
11
2.75806
21
-66.2201
0
LINE
8
BLACK
6
CONTINUOUS
10
2.75806
20
-66.2201
11
2.75806
21
-67.0058
0
LINE
8
BLACK
6
CONTINUOUS
10
3.25806
20
-66.0058
11
3.82949
21
-66.0058
0
LINE
8
BLACK
6
CONTINUOUS
10
3.47234
20
-65.5058
11
3.47234
21
-66.7915
0
LINE
8
BLACK
6
CONTINUOUS
10
3.47234
20
-66.7915
11
3.54377
21
-66.9343
0
LINE
8
BLACK
6
CONTINUOUS
10
3.54377
20
-66.9343
11
3.68663
21
-67.0058
0
LINE
8
BLACK
6
CONTINUOUS
10
3.68663
20
-67.0058
11
3.82949
21
-67.0058
0
LINE
8
BLACK
6
CONTINUOUS
10
4.32949
20
-67.0058
11
4.32949
21
-66.0058
0
LINE
8
BLACK
6
CONTINUOUS
10
4.32949
20
-66.2915
11
4.40091
21
-66.1486
0
LINE
8
BLACK
6
CONTINUOUS
10
4.40091
20
-66.1486
11
4.47234
21
-66.0772
0
LINE
8
BLACK
6
CONTINUOUS
10
4.47234
20
-66.0772
11
4.6152
21
-66.0058
0
LINE
8
BLACK
6
CONTINUOUS
10
4.6152
20
-66.0058
11
4.75806
21
-66.0058
0
LINE
8
BLACK
6
CONTINUOUS
10
5.47234
20
-67.0058
11
5.32949
21
-66.9343
0
LINE
8
BLACK
6
CONTINUOUS
10
5.32949
20
-66.9343
11
5.25806
21
-66.8629
0
LINE
8
BLACK
6
CONTINUOUS
10
5.25806
20
-66.8629
11
5.18663
21
-66.7201
0
LINE
8
BLACK
6
CONTINUOUS
10
5.18663
20
-66.7201
11
5.18663
21
-66.2915
0
LINE
8
BLACK
6
CONTINUOUS
10
5.18663
20
-66.2915
11
5.25806
21
-66.1486
0
LINE
8
BLACK
6
CONTINUOUS
10
5.25806
20
-66.1486
11
5.32949
21
-66.0772
0
LINE
8
BLACK
6
CONTINUOUS
10
5.32949
20
-66.0772
11
5.47234
21
-66.0058
0
LINE
8
BLACK
6
CONTINUOUS
10
5.47234
20
-66.0058
11
5.68663
21
-66.0058
0
LINE
8
BLACK
6
CONTINUOUS
10
5.68663
20
-66.0058
11
5.82949
21
-66.0772
0
LINE
8
BLACK
6
CONTINUOUS
10
5.82949
20
-66.0772
11
5.90091
21
-66.1486
0
LINE
8
BLACK
6
CONTINUOUS
10
5.90091
20
-66.1486
11
5.97234
21
-66.2915
0
LINE
8
BLACK
6
CONTINUOUS
10
5.97234
20
-66.2915
11
5.97234
21
-66.7201
0
LINE
8
BLACK
6
CONTINUOUS
10
5.97234
20
-66.7201
11
5.90091
21
-66.8629
0
LINE
8
BLACK
6
CONTINUOUS
10
5.90091
20
-66.8629
11
5.82949
21
-66.9343
0
LINE
8
BLACK
6
CONTINUOUS
10
5.82949
20
-66.9343
11
5.68663
21
-67.0058
0
LINE
8
BLACK
6
CONTINUOUS
10
5.68663
20
-67.0058
11
5.47234
21
-67.0058
0
LINE
8
BLACK
6
CONTINUOUS
10
6.82949
20
-67.0058
11
6.68663
21
-66.9343
0
LINE
8
BLACK
6
CONTINUOUS
10
6.68663
20
-66.9343
11
6.6152
21
-66.7915
0
LINE
8
BLACK
6
CONTINUOUS
10
6.6152
20
-66.7915
11
6.6152
21
-65.5058
0
LINE
8
BLACK
6
CONTINUOUS
10
8.54377
20
-67.0058
11
8.54377
21
-65.5058
0
LINE
8
BLACK
6
CONTINUOUS
10
8.54377
20
-65.5058
11
9.1152
21
-65.5058
0
LINE
8
BLACK
6
CONTINUOUS
10
9.1152
20
-65.5058
11
9.25806
21
-65.5772
0
LINE
8
BLACK
6
CONTINUOUS
10
9.25806
20
-65.5772
11
9.32949
21
-65.6486
0
LINE
8
BLACK
6
CONTINUOUS
10
9.32949
20
-65.6486
11
9.40091
21
-65.7915
0
LINE
8
BLACK
6
CONTINUOUS
10
9.40091
20
-65.7915
11
9.40091
21
-66.0058
0
LINE
8
BLACK
6
CONTINUOUS
10
9.40091
20
-66.0058
11
9.32949
21
-66.1486
0
LINE
8
BLACK
6
CONTINUOUS
10
9.32949
20
-66.1486
11
9.25806
21
-66.2201
0
LINE
8
BLACK
6
CONTINUOUS
10
9.25806
20
-66.2201
11
9.1152
21
-66.2915
0
LINE
8
BLACK
6
CONTINUOUS
10
9.1152
20
-66.2915
11
8.54377
21
-66.2915
0
LINE
8
BLACK
6
CONTINUOUS
10
10.5438
20
-66.2201
11
10.7581
21
-66.2915
0
LINE
8
BLACK
6
CONTINUOUS
10
10.7581
20
-66.2915
11
10.8295
21
-66.3629
0
LINE
8
BLACK
6
CONTINUOUS
10
10.8295
20
-66.3629
11
10.9009
21
-66.5058
0
LINE
8
BLACK
6
CONTINUOUS
10
10.9009
20
-66.5058
11
10.9009
21
-66.7201
0
LINE
8
BLACK
6
CONTINUOUS
10
10.9009
20
-66.7201
11
10.8295
21
-66.8629
0
LINE
8
BLACK
6
CONTINUOUS
10
10.8295
20
-66.8629
11
10.7581
21
-66.9343
0
LINE
8
BLACK
6
CONTINUOUS
10
10.7581
20
-66.9343
11
10.6152
21
-67.0058
0
LINE
8
BLACK
6
CONTINUOUS
10
10.6152
20
-67.0058
11
10.0438
21
-67.0058
0
LINE
8
BLACK
6
CONTINUOUS
10
10.0438
20
-67.0058
11
10.0438
21
-65.5058
0
LINE
8
BLACK
6
CONTINUOUS
10
10.0438
20
-65.5058
11
10.5438
21
-65.5058
0
LINE
8
BLACK
6
CONTINUOUS
10
10.5438
20
-65.5058
11
10.6866
21
-65.5772
0
LINE
8
BLACK
6
CONTINUOUS
10
10.6866
20
-65.5772
11
10.7581
21
-65.6486
0
LINE
8
BLACK
6
CONTINUOUS
10
10.7581
20
-65.6486
11
10.8295
21
-65.7915
0
LINE
8
BLACK
6
CONTINUOUS
10
10.8295
20
-65.7915
11
10.8295
21
-65.9343
0
LINE
8
BLACK
6
CONTINUOUS
10
10.8295
20
-65.9343
11
10.7581
21
-66.0772
0
LINE
8
BLACK
6
CONTINUOUS
10
10.7581
20
-66.0772
11
10.6866
21
-66.1486
0
LINE
8
BLACK
6
CONTINUOUS
10
10.6866
20
-66.1486
11
10.5438
21
-66.2201
0
LINE
8
BLACK
6
CONTINUOUS
10
10.5438
20
-66.2201
11
10.0438
21
-66.2201
0
LINE
8
BLACK
6
CONTINUOUS
10
11.4723
20
-66.5772
11
12.1866
21
-66.5772
0
LINE
8
BLACK
6
CONTINUOUS
10
11.3295
20
-67.0058
11
11.8295
21
-65.5058
0
LINE
8
BLACK
6
CONTINUOUS
10
11.8295
20
-65.5058
11
12.3295
21
-67.0058
0
LINE
8
BLACK
6
CONTINUOUS
10
12.8295
20
-66.8629
11
12.9009
21
-66.9343
0
LINE
8
BLACK
6
CONTINUOUS
10
12.9009
20
-66.9343
11
12.8295
21
-67.0058
0
LINE
8
BLACK
6
CONTINUOUS
10
12.8295
20
-67.0058
11
12.7581
21
-66.9343
0
LINE
8
BLACK
6
CONTINUOUS
10
12.7581
20
-66.9343
11
12.8295
21
-66.8629
0
LINE
8
BLACK
6
CONTINUOUS
10
12.8295
20
-66.8629
11
12.8295
21
-67.0058
0
LINE
8
BLACK
6
CONTINUOUS
10
13.5438
20
-67.0058
11
13.5438
21
-65.5058
0
LINE
8
BLACK
6
CONTINUOUS
10
13.6866
20
-66.4343
11
14.1152
21
-67.0058
0
LINE
8
BLACK
6
CONTINUOUS
10
14.1152
20
-66.0058
11
13.5438
21
-66.5772
0
LINE
8
BLACK
6
CONTINUOUS
10
14.7581
20
-67.0058
11
14.7581
21
-66.0058
0
LINE
8
BLACK
6
CONTINUOUS
10
14.7581
20
-65.5058
11
14.6866
21
-65.5772
0
LINE
8
BLACK
6
CONTINUOUS
10
14.6866
20
-65.5772
11
14.7581
21
-65.6486
0
LINE
8
BLACK
6
CONTINUOUS
10
14.7581
20
-65.6486
11
14.8295
21
-65.5772
0
LINE
8
BLACK
6
CONTINUOUS
10
14.8295
20
-65.5772
11
14.7581
21
-65.5058
0
LINE
8
BLACK
6
CONTINUOUS
10
14.7581
20
-65.5058
11
14.7581
21
-65.6486
0
LINE
8
BLACK
6
CONTINUOUS
10
16.1152
20
-66.9343
11
15.9723
21
-67.0058
0
LINE
8
BLACK
6
CONTINUOUS
10
15.9723
20
-67.0058
11
15.6866
21
-67.0058
0
LINE
8
BLACK
6
CONTINUOUS
10
15.6866
20
-67.0058
11
15.5438
21
-66.9343
0
LINE
8
BLACK
6
CONTINUOUS
10
15.5438
20
-66.9343
11
15.4723
21
-66.8629
0
LINE
8
BLACK
6
CONTINUOUS
10
15.4723
20
-66.8629
11
15.4009
21
-66.7201
0
LINE
8
BLACK
6
CONTINUOUS
10
15.4009
20
-66.7201
11
15.4009
21
-66.2915
0
LINE
8
BLACK
6
CONTINUOUS
10
15.4009
20
-66.2915
11
15.4723
21
-66.1486
0
LINE
8
BLACK
6
CONTINUOUS
10
15.4723
20
-66.1486
11
15.5438
21
-66.0772
0
LINE
8
BLACK
6
CONTINUOUS
10
15.5438
20
-66.0772
11
15.6866
21
-66.0058
0
LINE
8
BLACK
6
CONTINUOUS
10
15.6866
20
-66.0058
11
15.9723
21
-66.0058
0
LINE
8
BLACK
6
CONTINUOUS
10
15.9723
20
-66.0058
11
16.1152
21
-66.0772
0
LINE
8
BLACK
6
CONTINUOUS
10
17.4009
20
-67.0058
11
17.4009
21
-66.2201
0
LINE
8
BLACK
6
CONTINUOUS
10
17.4009
20
-66.2201
11
17.3295
21
-66.0772
0
LINE
8
BLACK
6
CONTINUOUS
10
17.3295
20
-66.0772
11
17.1866
21
-66.0058
0
LINE
8
BLACK
6
CONTINUOUS
10
17.1866
20
-66.0058
11
16.9009
21
-66.0058
0
LINE
8
BLACK
6
CONTINUOUS
10
16.9009
20
-66.0058
11
16.7581
21
-66.0772
0
LINE
8
BLACK
6
CONTINUOUS
10
17.4009
20
-66.9343
11
17.2581
21
-67.0058
0
LINE
8
BLACK
6
CONTINUOUS
10
17.2581
20
-67.0058
11
16.9009
21
-67.0058
0
LINE
8
BLACK
6
CONTINUOUS
10
16.9009
20
-67.0058
11
16.7581
21
-66.9343
0
LINE
8
BLACK
6
CONTINUOUS
10
16.7581
20
-66.9343
11
16.6866
21
-66.7915
0
LINE
8
BLACK
6
CONTINUOUS
10
16.6866
20
-66.7915
11
16.6866
21
-66.6486
0
LINE
8
BLACK
6
CONTINUOUS
10
16.6866
20
-66.6486
11
16.7581
21
-66.5058
0
LINE
8
BLACK
6
CONTINUOUS
10
16.7581
20
-66.5058
11
16.9009
21
-66.4343
0
LINE
8
BLACK
6
CONTINUOUS
10
16.9009
20
-66.4343
11
17.2581
21
-66.4343
0
LINE
8
BLACK
6
CONTINUOUS
10
17.2581
20
-66.4343
11
17.4009
21
-66.3629
0
LINE
8
BLACK
6
CONTINUOUS
10
18.7581
20
-67.0058
11
18.7581
21
-65.5058
0
LINE
8
BLACK
6
CONTINUOUS
10
18.7581
20
-66.9343
11
18.6152
21
-67.0058
0
LINE
8
BLACK
6
CONTINUOUS
10
18.6152
20
-67.0058
11
18.3295
21
-67.0058
0
LINE
8
BLACK
6
CONTINUOUS
10
18.3295
20
-67.0058
11
18.1866
21
-66.9343
0
LINE
8
BLACK
6
CONTINUOUS
10
18.1866
20
-66.9343
11
18.1152
21
-66.8629
0
LINE
8
BLACK
6
CONTINUOUS
10
18.1152
20
-66.8629
11
18.0438
21
-66.7201
0
LINE
8
BLACK
6
CONTINUOUS
10
18.0438
20
-66.7201
11
18.0438
21
-66.2915
0
LINE
8
BLACK
6
CONTINUOUS
10
18.0438
20
-66.2915
11
18.1152
21
-66.1486
0
LINE
8
BLACK
6
CONTINUOUS
10
18.1152
20
-66.1486
11
18.1866
21
-66.0772
0
LINE
8
BLACK
6
CONTINUOUS
10
18.1866
20
-66.0772
11
18.3295
21
-66.0058
0
LINE
8
BLACK
6
CONTINUOUS
10
18.3295
20
-66.0058
11
18.6152
21
-66.0058
0
LINE
8
BLACK
6
CONTINUOUS
10
18.6152
20
-66.0058
11
18.7581
21
-66.0772
0
LINE
8
BLACK
6
CONTINUOUS
10
19.1152
20
-67.1486
11
20.2581
21
-67.1486
0
LINE
8
BLACK
6
CONTINUOUS
10
20.6152
20
-66.0058
11
20.6152
21
-67.5058
0
LINE
8
BLACK
6
CONTINUOUS
10
20.6152
20
-66.0772
11
20.7581
21
-66.0058
0
LINE
8
BLACK
6
CONTINUOUS
10
20.7581
20
-66.0058
11
21.0438
21
-66.0058
0
LINE
8
BLACK
6
CONTINUOUS
10
21.0438
20
-66.0058
11
21.1866
21
-66.0772
0
LINE
8
BLACK
6
CONTINUOUS
10
21.1866
20
-66.0772
11
21.2581
21
-66.1486
0
LINE
8
BLACK
6
CONTINUOUS
10
21.2581
20
-66.1486
11
21.3295
21
-66.2915
0
LINE
8
BLACK
6
CONTINUOUS
10
21.3295
20
-66.2915
11
21.3295
21
-66.7201
0
LINE
8
BLACK
6
CONTINUOUS
10
21.3295
20
-66.7201
11
21.2581
21
-66.8629
0
LINE
8
BLACK
6
CONTINUOUS
10
21.2581
20
-66.8629
11
21.1866
21
-66.9343
0
LINE
8
BLACK
6
CONTINUOUS
10
21.1866
20
-66.9343
11
21.0438
21
-67.0058
0
LINE
8
BLACK
6
CONTINUOUS
10
21.0438
20
-67.0058
11
20.7581
21
-67.0058
0
LINE
8
BLACK
6
CONTINUOUS
10
20.7581
20
-67.0058
11
20.6152
21
-66.9343
0
LINE
8
BLACK
6
CONTINUOUS
10
22.6152
20
-66.9343
11
22.4723
21
-67.0058
0
LINE
8
BLACK
6
CONTINUOUS
10
22.4723
20
-67.0058
11
22.1866
21
-67.0058
0
LINE
8
BLACK
6
CONTINUOUS
10
22.1866
20
-67.0058
11
22.0438
21
-66.9343
0
LINE
8
BLACK
6
CONTINUOUS
10
22.0438
20
-66.9343
11
21.9723
21
-66.8629
0
LINE
8
BLACK
6
CONTINUOUS
10
21.9723
20
-66.8629
11
21.9009
21
-66.7201
0
LINE
8
BLACK
6
CONTINUOUS
10
21.9009
20
-66.7201
11
21.9009
21
-66.2915
0
LINE
8
BLACK
6
CONTINUOUS
10
21.9009
20
-66.2915
11
21.9723
21
-66.1486
0
LINE
8
BLACK
6
CONTINUOUS
10
21.9723
20
-66.1486
11
22.0438
21
-66.0772
0
LINE
8
BLACK
6
CONTINUOUS
10
22.0438
20
-66.0772
11
22.1866
21
-66.0058
0
LINE
8
BLACK
6
CONTINUOUS
10
22.1866
20
-66.0058
11
22.4723
21
-66.0058
0
LINE
8
BLACK
6
CONTINUOUS
10
22.4723
20
-66.0058
11
22.6152
21
-66.0772
0
LINE
8
BLACK
6
CONTINUOUS
10
23.2581
20
-67.0058
11
23.2581
21
-65.5058
0
LINE
8
BLACK
6
CONTINUOUS
10
23.2581
20
-66.0772
11
23.4009
21
-66.0058
0
LINE
8
BLACK
6
CONTINUOUS
10
23.4009
20
-66.0058
11
23.6866
21
-66.0058
0
LINE
8
BLACK
6
CONTINUOUS
10
23.6866
20
-66.0058
11
23.8295
21
-66.0772
0
LINE
8
BLACK
6
CONTINUOUS
10
23.8295
20
-66.0772
11
23.9009
21
-66.1486
0
LINE
8
BLACK
6
CONTINUOUS
10
23.9009
20
-66.1486
11
23.9723
21
-66.2915
0
LINE
8
BLACK
6
CONTINUOUS
10
23.9723
20
-66.2915
11
23.9723
21
-66.7201
0
LINE
8
BLACK
6
CONTINUOUS
10
23.9723
20
-66.7201
11
23.9009
21
-66.8629
0
LINE
8
BLACK
6
CONTINUOUS
10
23.9009
20
-66.8629
11
23.8295
21
-66.9343
0
LINE
8
BLACK
6
CONTINUOUS
10
23.8295
20
-66.9343
11
23.6866
21
-67.0058
0
LINE
8
BLACK
6
CONTINUOUS
10
23.6866
20
-67.0058
11
23.4009
21
-67.0058
0
LINE
8
BLACK
6
CONTINUOUS
10
23.4009
20
-67.0058
11
23.2581
21
-66.9343
0
LINE
8
BLACK
6
CONTINUOUS
10
-26.9598
20
-62.1272
11
81.0402
21
-62.1272
0
LINE
8
BLACK
6
CONTINUOUS
10
-25.5991
20
-64.2343
11
-25.3848
21
-64.3058
0
LINE
8
BLACK
6
CONTINUOUS
10
-25.3848
20
-64.3058
11
-25.0277
21
-64.3058
0
LINE
8
BLACK
6
CONTINUOUS
10
-25.0277
20
-64.3058
11
-24.8848
21
-64.2343
0
LINE
8
BLACK
6
CONTINUOUS
10
-24.8848
20
-64.2343
11
-24.8134
21
-64.1629
0
LINE
8
BLACK
6
CONTINUOUS
10
-24.8134
20
-64.1629
11
-24.7419
21
-64.0201
0
LINE
8
BLACK
6
CONTINUOUS
10
-24.7419
20
-64.0201
11
-24.7419
21
-63.8772
0
LINE
8
BLACK
6
CONTINUOUS
10
-24.7419
20
-63.8772
11
-24.8134
21
-63.7343
0
LINE
8
BLACK
6
CONTINUOUS
10
-24.8134
20
-63.7343
11
-24.8848
21
-63.6629
0
LINE
8
BLACK
6
CONTINUOUS
10
-24.8848
20
-63.6629
11
-25.0277
21
-63.5915
0
LINE
8
BLACK
6
CONTINUOUS
10
-25.0277
20
-63.5915
11
-25.3134
21
-63.5201
0
LINE
8
BLACK
6
CONTINUOUS
10
-25.3134
20
-63.5201
11
-25.4562
21
-63.4486
0
LINE
8
BLACK
6
CONTINUOUS
10
-25.4562
20
-63.4486
11
-25.5277
21
-63.3772
0
LINE
8
BLACK
6
CONTINUOUS
10
-25.5277
20
-63.3772
11
-25.5991
21
-63.2343
0
LINE
8
BLACK
6
CONTINUOUS
10
-25.5991
20
-63.2343
11
-25.5991
21
-63.0915
0
LINE
8
BLACK
6
CONTINUOUS
10
-25.5991
20
-63.0915
11
-25.5277
21
-62.9486
0
LINE
8
BLACK
6
CONTINUOUS
10
-25.5277
20
-62.9486
11
-25.4562
21
-62.8772
0
LINE
8
BLACK
6
CONTINUOUS
10
-25.4562
20
-62.8772
11
-25.3134
21
-62.8058
0
LINE
8
BLACK
6
CONTINUOUS
10
-25.3134
20
-62.8058
11
-24.9562
21
-62.8058
0
LINE
8
BLACK
6
CONTINUOUS
10
-24.9562
20
-62.8058
11
-24.7419
21
-62.8772
0
LINE
8
BLACK
6
CONTINUOUS
10
-24.0991
20
-64.3058
11
-24.0991
21
-62.8058
0
LINE
8
BLACK
6
CONTINUOUS
10
-23.4562
20
-64.3058
11
-23.4562
21
-63.5201
0
LINE
8
BLACK
6
CONTINUOUS
10
-23.4562
20
-63.5201
11
-23.5277
21
-63.3772
0
LINE
8
BLACK
6
CONTINUOUS
10
-23.5277
20
-63.3772
11
-23.6705
21
-63.3058
0
LINE
8
BLACK
6
CONTINUOUS
10
-23.6705
20
-63.3058
11
-23.8848
21
-63.3058
0
LINE
8
BLACK
6
CONTINUOUS
10
-23.8848
20
-63.3058
11
-24.0277
21
-63.3772
0
LINE
8
BLACK
6
CONTINUOUS
10
-24.0277
20
-63.3772
11
-24.0991
21
-63.4486
0
LINE
8
BLACK
6
CONTINUOUS
10
-22.1705
20
-64.2343
11
-22.3134
21
-64.3058
0
LINE
8
BLACK
6
CONTINUOUS
10
-22.3134
20
-64.3058
11
-22.5991
21
-64.3058
0
LINE
8
BLACK
6
CONTINUOUS
10
-22.5991
20
-64.3058
11
-22.7419
21
-64.2343
0
LINE
8
BLACK
6
CONTINUOUS
10
-22.7419
20
-64.2343
11
-22.8134
21
-64.0915
0
LINE
8
BLACK
6
CONTINUOUS
10
-22.8134
20
-64.0915
11
-22.8134
21
-63.5201
0
LINE
8
BLACK
6
CONTINUOUS
10
-22.8134
20
-63.5201
11
-22.7419
21
-63.3772
0
LINE
8
BLACK
6
CONTINUOUS
10
-22.7419
20
-63.3772
11
-22.5991
21
-63.3058
0
LINE
8
BLACK
6
CONTINUOUS
10
-22.5991
20
-63.3058
11
-22.3134
21
-63.3058
0
LINE
8
BLACK
6
CONTINUOUS
10
-22.3134
20
-63.3058
11
-22.1705
21
-63.3772
0
LINE
8
BLACK
6
CONTINUOUS
10
-22.1705
20
-63.3772
11
-22.0991
21
-63.5201
0
LINE
8
BLACK
6
CONTINUOUS
10
-22.0991
20
-63.5201
11
-22.0991
21
-63.6629
0
LINE
8
BLACK
6
CONTINUOUS
10
-22.0991
20
-63.6629
11
-22.8134
21
-63.8058
0
LINE
8
BLACK
6
CONTINUOUS
10
-20.8848
20
-64.2343
11
-21.0277
21
-64.3058
0
LINE
8
BLACK
6
CONTINUOUS
10
-21.0277
20
-64.3058
11
-21.3134
21
-64.3058
0
LINE
8
BLACK
6
CONTINUOUS
10
-21.3134
20
-64.3058
11
-21.4562
21
-64.2343
0
LINE
8
BLACK
6
CONTINUOUS
10
-21.4562
20
-64.2343
11
-21.5277
21
-64.0915
0
LINE
8
BLACK
6
CONTINUOUS
10
-21.5277
20
-64.0915
11
-21.5277
21
-63.5201
0
LINE
8
BLACK
6
CONTINUOUS
10
-21.5277
20
-63.5201
11
-21.4562
21
-63.3772
0
LINE
8
BLACK
6
CONTINUOUS
10
-21.4562
20
-63.3772
11
-21.3134
21
-63.3058
0
LINE
8
BLACK
6
CONTINUOUS
10
-21.3134
20
-63.3058
11
-21.0277
21
-63.3058
0
LINE
8
BLACK
6
CONTINUOUS
10
-21.0277
20
-63.3058
11
-20.8848
21
-63.3772
0
LINE
8
BLACK
6
CONTINUOUS
10
-20.8848
20
-63.3772
11
-20.8134
21
-63.5201
0
LINE
8
BLACK
6
CONTINUOUS
10
-20.8134
20
-63.5201
11
-20.8134
21
-63.6629
0
LINE
8
BLACK
6
CONTINUOUS
10
-20.8134
20
-63.6629
11
-21.5277
21
-63.8058
0
LINE
8
BLACK
6
CONTINUOUS
10
-20.3848
20
-63.3058
11
-19.8134
21
-63.3058
0
LINE
8
BLACK
6
CONTINUOUS
10
-20.1705
20
-62.8058
11
-20.1705
21
-64.0915
0
LINE
8
BLACK
6
CONTINUOUS
10
-20.1705
20
-64.0915
11
-20.0991
21
-64.2343
0
LINE
8
BLACK
6
CONTINUOUS
10
-20.0991
20
-64.2343
11
-19.9562
21
-64.3058
0
LINE
8
BLACK
6
CONTINUOUS
10
-19.9562
20
-64.3058
11
-19.8134
21
-64.3058
0
LINE
8
BLACK
6
CONTINUOUS
10
-19.3134
20
-64.1629
11
-19.2419
21
-64.2343
0
LINE
8
BLACK
6
CONTINUOUS
10
-19.2419
20
-64.2343
11
-19.3134
21
-64.3058
0
LINE
8
BLACK
6
CONTINUOUS
10
-19.3134
20
-64.3058
11
-19.3848
21
-64.2343
0
LINE
8
BLACK
6
CONTINUOUS
10
-19.3848
20
-64.2343
11
-19.3134
21
-64.1629
0
LINE
8
BLACK
6
CONTINUOUS
10
-19.3134
20
-64.1629
11
-19.3134
21
-64.3058
0
LINE
8
BLACK
6
CONTINUOUS
10
-19.3134
20
-63.3772
11
-19.2419
21
-63.4486
0
LINE
8
BLACK
6
CONTINUOUS
10
-19.2419
20
-63.4486
11
-19.3134
21
-63.5201
0
LINE
8
BLACK
6
CONTINUOUS
10
-19.3134
20
-63.5201
11
-19.3848
21
-63.4486
0
LINE
8
BLACK
6
CONTINUOUS
10
-19.3848
20
-63.4486
11
-19.3134
21
-63.3772
0
LINE
8
BLACK
6
CONTINUOUS
10
-19.3134
20
-63.3772
11
-19.3134
21
-63.5201
0
LINE
8
BLACK
6
CONTINUOUS
10
-25.4077
20
-61.3058
11
-25.4077
21
-59.8058
0
LINE
8
BLACK
6
CONTINUOUS
10
-25.4077
20
-59.8058
11
-24.9077
21
-60.8772
0
LINE
8
BLACK
6
CONTINUOUS
10
-24.9077
20
-60.8772
11
-24.4077
21
-59.8058
0
LINE
8
BLACK
6
CONTINUOUS
10
-24.4077
20
-59.8058
11
-24.4077
21
-61.3058
0
LINE
8
BLACK
6
CONTINUOUS
10
-23.7648
20
-60.8772
11
-23.0505
21
-60.8772
0
LINE
8
BLACK
6
CONTINUOUS
10
-23.9077
20
-61.3058
11
-23.4077
21
-59.8058
0
LINE
8
BLACK
6
CONTINUOUS
10
-23.4077
20
-59.8058
11
-22.9077
21
-61.3058
0
LINE
8
BLACK
6
CONTINUOUS
10
-21.5505
20
-61.3058
11
-22.0505
21
-60.5915
0
LINE
8
BLACK
6
CONTINUOUS
10
-22.4077
20
-61.3058
11
-22.4077
21
-59.8058
0
LINE
8
BLACK
6
CONTINUOUS
10
-22.4077
20
-59.8058
11
-21.8362
21
-59.8058
0
LINE
8
BLACK
6
CONTINUOUS
10
-21.8362
20
-59.8058
11
-21.6934
21
-59.8772
0
LINE
8
BLACK
6
CONTINUOUS
10
-21.6934
20
-59.8772
11
-21.6219
21
-59.9486
0
LINE
8
BLACK
6
CONTINUOUS
10
-21.6219
20
-59.9486
11
-21.5505
21
-60.0915
0
LINE
8
BLACK
6
CONTINUOUS
10
-21.5505
20
-60.0915
11
-21.5505
21
-60.3058
0
LINE
8
BLACK
6
CONTINUOUS
10
-21.5505
20
-60.3058
11
-21.6219
21
-60.4486
0
LINE
8
BLACK
6
CONTINUOUS
10
-21.6219
20
-60.4486
11
-21.6934
21
-60.5201
0
LINE
8
BLACK
6
CONTINUOUS
10
-21.6934
20
-60.5201
11
-21.8362
21
-60.5915
0
LINE
8
BLACK
6
CONTINUOUS
10
-21.8362
20
-60.5915
11
-22.4077
21
-60.5915
0
LINE
8
BLACK
6
CONTINUOUS
10
-20.9077
20
-61.3058
11
-20.9077
21
-59.8058
0
LINE
8
BLACK
6
CONTINUOUS
10
-20.9077
20
-59.8058
11
-20.4077
21
-60.8772
0
LINE
8
BLACK
6
CONTINUOUS
10
-20.4077
20
-60.8772
11
-19.9077
21
-59.8058
0
LINE
8
BLACK
6
CONTINUOUS
10
-19.9077
20
-59.8058
11
-19.9077
21
-61.3058
0
LINE
8
BLACK
6
CONTINUOUS
10
-19.1934
20
-61.1629
11
-19.1219
21
-61.2343
0
LINE
8
BLACK
6
CONTINUOUS
10
-19.1219
20
-61.2343
11
-19.1934
21
-61.3058
0
LINE
8
BLACK
6
CONTINUOUS
10
-19.1934
20
-61.3058
11
-19.2648
21
-61.2343
0
LINE
8
BLACK
6
CONTINUOUS
10
-19.2648
20
-61.2343
11
-19.1934
21
-61.1629
0
LINE
8
BLACK
6
CONTINUOUS
10
-19.1934
20
-61.1629
11
-19.1934
21
-61.3058
0
LINE
8
BLACK
6
CONTINUOUS
10
-18.4791
20
-60.3058
11
-18.4791
21
-61.8058
0
LINE
8
BLACK
6
CONTINUOUS
10
-18.4791
20
-60.3772
11
-18.3362
21
-60.3058
0
LINE
8
BLACK
6
CONTINUOUS
10
-18.3362
20
-60.3058
11
-18.0505
21
-60.3058
0
LINE
8
BLACK
6
CONTINUOUS
10
-18.0505
20
-60.3058
11
-17.9077
21
-60.3772
0
LINE
8
BLACK
6
CONTINUOUS
10
-17.9077
20
-60.3772
11
-17.8362
21
-60.4486
0
LINE
8
BLACK
6
CONTINUOUS
10
-17.8362
20
-60.4486
11
-17.7648
21
-60.5915
0
LINE
8
BLACK
6
CONTINUOUS
10
-17.7648
20
-60.5915
11
-17.7648
21
-61.0201
0
LINE
8
BLACK
6
CONTINUOUS
10
-17.7648
20
-61.0201
11
-17.8362
21
-61.1629
0
LINE
8
BLACK
6
CONTINUOUS
10
-17.8362
20
-61.1629
11
-17.9077
21
-61.2343
0
LINE
8
BLACK
6
CONTINUOUS
10
-17.9077
20
-61.2343
11
-18.0505
21
-61.3058
0
LINE
8
BLACK
6
CONTINUOUS
10
-18.0505
20
-61.3058
11
-18.3362
21
-61.3058
0
LINE
8
BLACK
6
CONTINUOUS
10
-18.3362
20
-61.3058
11
-18.4791
21
-61.2343
0
LINE
8
BLACK
6
CONTINUOUS
10
-16.9077
20
-61.3058
11
-17.0505
21
-61.2343
0
LINE
8
BLACK
6
CONTINUOUS
10
-17.0505
20
-61.2343
11
-17.1219
21
-61.0915
0
LINE
8
BLACK
6
CONTINUOUS
10
-17.1219
20
-61.0915
11
-17.1219
21
-59.8058
0
LINE
8
BLACK
6
CONTINUOUS
10
-15.2648
20
-61.2343
11
-15.0505
21
-61.3058
0
LINE
8
BLACK
6
CONTINUOUS
10
-15.0505
20
-61.3058
11
-14.6934
21
-61.3058
0
LINE
8
BLACK
6
CONTINUOUS
10
-14.6934
20
-61.3058
11
-14.5505
21
-61.2343
0
LINE
8
BLACK
6
CONTINUOUS
10
-14.5505
20
-61.2343
11
-14.4791
21
-61.1629
0
LINE
8
BLACK
6
CONTINUOUS
10
-14.4791
20
-61.1629
11
-14.4077
21
-61.0201
0
LINE
8
BLACK
6
CONTINUOUS
10
-14.4077
20
-61.0201
11
-14.4077
21
-60.8772
0
LINE
8
BLACK
6
CONTINUOUS
10
-14.4077
20
-60.8772
11
-14.4791
21
-60.7343
0
LINE
8
BLACK
6
CONTINUOUS
10
-14.4791
20
-60.7343
11
-14.5505
21
-60.6629
0
LINE
8
BLACK
6
CONTINUOUS
10
-14.5505
20
-60.6629
11
-14.6934
21
-60.5915
0
LINE
8
BLACK
6
CONTINUOUS
10
-14.6934
20
-60.5915
11
-14.9791
21
-60.5201
0
LINE
8
BLACK
6
CONTINUOUS
10
-14.9791
20
-60.5201
11
-15.1219
21
-60.4486
0
LINE
8
BLACK
6
CONTINUOUS
10
-15.1219
20
-60.4486
11
-15.1934
21
-60.3772
0
LINE
8
BLACK
6
CONTINUOUS
10
-15.1934
20
-60.3772
11
-15.2648
21
-60.2343
0
LINE
8
BLACK
6
CONTINUOUS
10
-15.2648
20
-60.2343
11
-15.2648
21
-60.0915
0
LINE
8
BLACK
6
CONTINUOUS
10
-15.2648
20
-60.0915
11
-15.1934
21
-59.9486
0
LINE
8
BLACK
6
CONTINUOUS
10
-15.1934
20
-59.9486
11
-15.1219
21
-59.8772
0
LINE
8
BLACK
6
CONTINUOUS
10
-15.1219
20
-59.8772
11
-14.9791
21
-59.8058
0
LINE
8
BLACK
6
CONTINUOUS
10
-14.9791
20
-59.8058
11
-14.6219
21
-59.8058
0
LINE
8
BLACK
6
CONTINUOUS
10
-14.6219
20
-59.8058
11
-14.4077
21
-59.8772
0
LINE
8
BLACK
6
CONTINUOUS
10
-13.7648
20
-60.3058
11
-13.7648
21
-61.8058
0
LINE
8
BLACK
6
CONTINUOUS
10
-13.7648
20
-60.3772
11
-13.6219
21
-60.3058
0
LINE
8
BLACK
6
CONTINUOUS
10
-13.6219
20
-60.3058
11
-13.3362
21
-60.3058
0
LINE
8
BLACK
6
CONTINUOUS
10
-13.3362
20
-60.3058
11
-13.1934
21
-60.3772
0
LINE
8
BLACK
6
CONTINUOUS
10
-13.1934
20
-60.3772
11
-13.1219
21
-60.4486
0
LINE
8
BLACK
6
CONTINUOUS
10
-13.1219
20
-60.4486
11
-13.0505
21
-60.5915
0
LINE
8
BLACK
6
CONTINUOUS
10
-13.0505
20
-60.5915
11
-13.0505
21
-61.0201
0
LINE
8
BLACK
6
CONTINUOUS
10
-13.0505
20
-61.0201
11
-13.1219
21
-61.1629
0
LINE
8
BLACK
6
CONTINUOUS
10
-13.1219
20
-61.1629
11
-13.1934
21
-61.2343
0
LINE
8
BLACK
6
CONTINUOUS
10
-13.1934
20
-61.2343
11
-13.3362
21
-61.3058
0
LINE
8
BLACK
6
CONTINUOUS
10
-13.3362
20
-61.3058
11
-13.6219
21
-61.3058
0
LINE
8
BLACK
6
CONTINUOUS
10
-13.6219
20
-61.3058
11
-13.7648
21
-61.2343
0
LINE
8
BLACK
6
CONTINUOUS
10
-12.4077
20
-61.1629
11
-12.3362
21
-61.2343
0
LINE
8
BLACK
6
CONTINUOUS
10
-12.3362
20
-61.2343
11
-12.4077
21
-61.3058
0
LINE
8
BLACK
6
CONTINUOUS
10
-12.4077
20
-61.3058
11
-12.4791
21
-61.2343
0
LINE
8
BLACK
6
CONTINUOUS
10
-12.4791
20
-61.2343
11
-12.4077
21
-61.1629
0
LINE
8
BLACK
6
CONTINUOUS
10
-12.4077
20
-61.1629
11
-12.4077
21
-61.3058
0
LINE
8
BLACK
6
CONTINUOUS
10
-10.6934
20
-60.3058
11
-9.90766
21
-60.3058
0
LINE
8
BLACK
6
CONTINUOUS
10
-9.90766
20
-60.3058
11
-10.6934
21
-61.3058
0
LINE
8
BLACK
6
CONTINUOUS
10
-10.6934
20
-61.3058
11
-9.90766
21
-61.3058
0
LINE
8
BLACK
6
CONTINUOUS
10
-7.97909
20
-61.3058
11
-8.12194
21
-61.2343
0
LINE
8
BLACK
6
CONTINUOUS
10
-8.12194
20
-61.2343
11
-8.19337
21
-61.1629
0
LINE
8
BLACK
6
CONTINUOUS
10
-8.19337
20
-61.1629
11
-8.2648
21
-61.0201
0
LINE
8
BLACK
6
CONTINUOUS
10
-8.2648
20
-61.0201
11
-8.2648
21
-60.5915
0
LINE
8
BLACK
6
CONTINUOUS
10
-8.2648
20
-60.5915
11
-8.19337
21
-60.4486
0
LINE
8
BLACK
6
CONTINUOUS
10
-8.19337
20
-60.4486
11
-8.12194
21
-60.3772
0
LINE
8
BLACK
6
CONTINUOUS
10
-8.12194
20
-60.3772
11
-7.97909
21
-60.3058
0
LINE
8
BLACK
6
CONTINUOUS
10
-7.97909
20
-60.3058
11
-7.7648
21
-60.3058
0
LINE
8
BLACK
6
CONTINUOUS
10
-7.7648
20
-60.3058
11
-7.62194
21
-60.3772
0
LINE
8
BLACK
6
CONTINUOUS
10
-7.62194
20
-60.3772
11
-7.55051
21
-60.4486
0
LINE
8
BLACK
6
CONTINUOUS
10
-7.55051
20
-60.4486
11
-7.47909
21
-60.5915
0
LINE
8
BLACK
6
CONTINUOUS
10
-7.47909
20
-60.5915
11
-7.47909
21
-61.0201
0
LINE
8
BLACK
6
CONTINUOUS
10
-7.47909
20
-61.0201
11
-7.55051
21
-61.1629
0
LINE
8
BLACK
6
CONTINUOUS
10
-7.55051
20
-61.1629
11
-7.62194
21
-61.2343
0
LINE
8
BLACK
6
CONTINUOUS
10
-7.62194
20
-61.2343
11
-7.7648
21
-61.3058
0
LINE
8
BLACK
6
CONTINUOUS
10
-7.7648
20
-61.3058
11
-7.97909
21
-61.3058
0
LINE
8
BLACK
6
CONTINUOUS
10
-6.83623
20
-61.1629
11
-6.7648
21
-61.2343
0
LINE
8
BLACK
6
CONTINUOUS
10
-6.7648
20
-61.2343
11
-6.83623
21
-61.3058
0
LINE
8
BLACK
6
CONTINUOUS
10
-6.83623
20
-61.3058
11
-6.90766
21
-61.2343
0
LINE
8
BLACK
6
CONTINUOUS
10
-6.90766
20
-61.2343
11
-6.83623
21
-61.1629
0
LINE
8
BLACK
6
CONTINUOUS
10
-6.83623
20
-61.1629
11
-6.83623
21
-61.3058
0
LINE
8
BLACK
6
CONTINUOUS
10
-5.90766
20
-61.3058
11
-6.05051
21
-61.2343
0
LINE
8
BLACK
6
CONTINUOUS
10
-6.05051
20
-61.2343
11
-6.12194
21
-61.1629
0
LINE
8
BLACK
6
CONTINUOUS
10
-6.12194
20
-61.1629
11
-6.19337
21
-61.0201
0
LINE
8
BLACK
6
CONTINUOUS
10
-6.19337
20
-61.0201
11
-6.19337
21
-60.5915
0
LINE
8
BLACK
6
CONTINUOUS
10
-6.19337
20
-60.5915
11
-6.12194
21
-60.4486
0
LINE
8
BLACK
6
CONTINUOUS
10
-6.12194
20
-60.4486
11
-6.05051
21
-60.3772
0
LINE
8
BLACK
6
CONTINUOUS
10
-6.05051
20
-60.3772
11
-5.90766
21
-60.3058
0
LINE
8
BLACK
6
CONTINUOUS
10
-5.90766
20
-60.3058
11
-5.69337
21
-60.3058
0
LINE
8
BLACK
6
CONTINUOUS
10
-5.69337
20
-60.3058
11
-5.55051
21
-60.3772
0
LINE
8
BLACK
6
CONTINUOUS
10
-5.55051
20
-60.3772
11
-5.47909
21
-60.4486
0
LINE
8
BLACK
6
CONTINUOUS
10
-5.47909
20
-60.4486
11
-5.40766
21
-60.5915
0
LINE
8
BLACK
6
CONTINUOUS
10
-5.40766
20
-60.5915
11
-5.40766
21
-61.0201
0
LINE
8
BLACK
6
CONTINUOUS
10
-5.40766
20
-61.0201
11
-5.47909
21
-61.1629
0
LINE
8
BLACK
6
CONTINUOUS
10
-5.47909
20
-61.1629
11
-5.55051
21
-61.2343
0
LINE
8
BLACK
6
CONTINUOUS
10
-5.55051
20
-61.2343
11
-5.69337
21
-61.3058
0
LINE
8
BLACK
6
CONTINUOUS
10
-5.69337
20
-61.3058
11
-5.90766
21
-61.3058
0
LINE
8
BLACK
6
CONTINUOUS
10
-4.7648
20
-61.1629
11
-4.69337
21
-61.2343
0
LINE
8
BLACK
6
CONTINUOUS
10
-4.69337
20
-61.2343
11
-4.7648
21
-61.3058
0
LINE
8
BLACK
6
CONTINUOUS
10
-4.7648
20
-61.3058
11
-4.83623
21
-61.2343
0
LINE
8
BLACK
6
CONTINUOUS
10
-4.83623
20
-61.2343
11
-4.7648
21
-61.1629
0
LINE
8
BLACK
6
CONTINUOUS
10
-4.7648
20
-61.1629
11
-4.7648
21
-61.3058
0
LINE
8
BLACK
6
CONTINUOUS
10
-24.6705
20
-58.3058
11
-25.1705
21
-57.5915
0
LINE
8
BLACK
6
CONTINUOUS
10
-25.5277
20
-58.3058
11
-25.5277
21
-56.8058
0
LINE
8
BLACK
6
CONTINUOUS
10
-25.5277
20
-56.8058
11
-24.9562
21
-56.8058
0
LINE
8
BLACK
6
CONTINUOUS
10
-24.9562
20
-56.8058
11
-24.8134
21
-56.8772
0
LINE
8
BLACK
6
CONTINUOUS
10
-24.8134
20
-56.8772
11
-24.7419
21
-56.9486
0
LINE
8
BLACK
6
CONTINUOUS
10
-24.7419
20
-56.9486
11
-24.6705
21
-57.0915
0
LINE
8
BLACK
6
CONTINUOUS
10
-24.6705
20
-57.0915
11
-24.6705
21
-57.3058
0
LINE
8
BLACK
6
CONTINUOUS
10
-24.6705
20
-57.3058
11
-24.7419
21
-57.4486
0
LINE
8
BLACK
6
CONTINUOUS
10
-24.7419
20
-57.4486
11
-24.8134
21
-57.5201
0
LINE
8
BLACK
6
CONTINUOUS
10
-24.8134
20
-57.5201
11
-24.9562
21
-57.5915
0
LINE
8
BLACK
6
CONTINUOUS
10
-24.9562
20
-57.5915
11
-25.5277
21
-57.5915
0
LINE
8
BLACK
6
CONTINUOUS
10
-23.2419
20
-56.8772
11
-23.3848
21
-56.8058
0
LINE
8
BLACK
6
CONTINUOUS
10
-23.3848
20
-56.8058
11
-23.5991
21
-56.8058
0
LINE
8
BLACK
6
CONTINUOUS
10
-23.5991
20
-56.8058
11
-23.8134
21
-56.8772
0
LINE
8
BLACK
6
CONTINUOUS
10
-23.8134
20
-56.8772
11
-23.9562
21
-57.0201
0
LINE
8
BLACK
6
CONTINUOUS
10
-23.9562
20
-57.0201
11
-24.0277
21
-57.1629
0
LINE
8
BLACK
6
CONTINUOUS
10
-24.0277
20
-57.1629
11
-24.0991
21
-57.4486
0
LINE
8
BLACK
6
CONTINUOUS
10
-24.0991
20
-57.4486
11
-24.0991
21
-57.6629
0
LINE
8
BLACK
6
CONTINUOUS
10
-24.0991
20
-57.6629
11
-24.0277
21
-57.9486
0
LINE
8
BLACK
6
CONTINUOUS
10
-24.0277
20
-57.9486
11
-23.9562
21
-58.0915
0
LINE
8
BLACK
6
CONTINUOUS
10
-23.9562
20
-58.0915
11
-23.8134
21
-58.2343
0
LINE
8
BLACK
6
CONTINUOUS
10
-23.8134
20
-58.2343
11
-23.5991
21
-58.3058
0
LINE
8
BLACK
6
CONTINUOUS
10
-23.5991
20
-58.3058
11
-23.4562
21
-58.3058
0
LINE
8
BLACK
6
CONTINUOUS
10
-23.4562
20
-58.3058
11
-23.2419
21
-58.2343
0
LINE
8
BLACK
6
CONTINUOUS
10
-23.2419
20
-58.2343
11
-23.1705
21
-58.1629
0
LINE
8
BLACK
6
CONTINUOUS
10
-23.1705
20
-58.1629
11
-23.1705
21
-57.6629
0
LINE
8
BLACK
6
CONTINUOUS
10
-23.1705
20
-57.6629
11
-23.4562
21
-57.6629
0
LINE
8
BLACK
6
CONTINUOUS
10
-22.6705
20
-56.8058
11
-22.3134
21
-58.3058
0
LINE
8
BLACK
6
CONTINUOUS
10
-22.3134
20
-58.3058
11
-22.0277
21
-57.2343
0
LINE
8
BLACK
6
CONTINUOUS
10
-22.0277
20
-57.2343
11
-21.7419
21
-58.3058
0
LINE
8
BLACK
6
CONTINUOUS
10
-21.7419
20
-58.3058
11
-21.3848
21
-56.8058
0
LINE
8
BLACK
6
CONTINUOUS
10
-6.9598
20
-72.1272
11
-6.9598
21
-75.1272
0
LINE
8
BLACK
6
CONTINUOUS
10
57.0402
20
-72.1272
11
57.0402
21
-78.6272
0
LINE
8
BLACK
6
CONTINUOUS
10
2.88389
20
82.6512
11
2.89361
21
82.6495
0
LINE
8
BLACK
6
CONTINUOUS
10
2.89361
20
82.6495
11
2.89689
21
82.6501
0
LINE
8
BLACK
6
CONTINUOUS
10
2.89689
20
82.6501
11
2.89978
21
82.6484
0
LINE
8
BLACK
6
CONTINUOUS
10
2.89978
20
82.6484
11
2.90954
21
82.6467
0
LINE
8
BLACK
6
CONTINUOUS
10
2.90954
20
82.6467
11
2.92446
21
82.6341
0
LINE
8
BLACK
6
CONTINUOUS
10
2.92446
20
82.6341
11
2.94132
21
82.6244
0
LINE
8
BLACK
6
CONTINUOUS
10
2.94132
20
82.6244
11
2.94364
21
82.618
0
LINE
8
BLACK
6
CONTINUOUS
10
2.94364
20
82.618
11
2.94883
21
82.6137
0
LINE
8
BLACK
6
CONTINUOUS
10
2.94883
20
82.6137
11
2.95221
21
82.5945
0
LINE
8
BLACK
6
CONTINUOUS
10
2.95221
20
82.5945
11
2.95887
21
82.5762
0
LINE
8
BLACK
6
CONTINUOUS
10
2.95887
20
82.5762
11
2.95887
21
-2.8898
0
LINE
8
BLACK
6
CONTINUOUS
10
2.95887
20
-2.8898
11
2.95715
21
-2.89954
0
LINE
8
BLACK
6
CONTINUOUS
10
2.95715
20
-2.89954
11
2.95773
21
-2.90283
0
LINE
8
BLACK
6
CONTINUOUS
10
2.95773
20
-2.90283
11
2.95606
21
-2.90571
0
LINE
8
BLACK
6
CONTINUOUS
10
2.95606
20
-2.90571
11
2.95434
21
-2.91545
0
LINE
8
BLACK
6
CONTINUOUS
10
2.95434
20
-2.91545
11
2.94182
21
-2.93038
0
LINE
8
BLACK
6
CONTINUOUS
10
2.94182
20
-2.93038
11
2.93207
21
-2.94726
0
LINE
8
BLACK
6
CONTINUOUS
10
2.93207
20
-2.94726
11
2.92572
21
-2.94957
0
LINE
8
BLACK
6
CONTINUOUS
10
2.92572
20
-2.94957
11
2.92137
21
-2.95476
0
LINE
8
BLACK
6
CONTINUOUS
10
2.92137
20
-2.95476
11
2.90217
21
-2.95814
0
LINE
8
BLACK
6
CONTINUOUS
10
2.90217
20
-2.95814
11
2.88387
21
-2.9648
0
LINE
8
BLACK
6
CONTINUOUS
10
2.88387
20
-2.9648
11
-170.471
21
-2.9648
0
LINE
8
BLACK
6
CONTINUOUS
10
-170.471
20
-2.9648
11
-170.481
21
-2.96308
0
LINE
8
BLACK
6
CONTINUOUS
10
-170.481
20
-2.96308
11
-170.484
21
-2.96366
0
LINE
8
BLACK
6
CONTINUOUS
10
-170.484
20
-2.96366
11
-170.487
21
-2.962
0
LINE
8
BLACK
6
CONTINUOUS
10
-170.487
20
-2.962
11
-170.497
21
-2.96028
0
LINE
8
BLACK
6
CONTINUOUS
10
-170.497
20
-2.96028
11
-170.512
21
-2.94775
0
LINE
8
BLACK
6
CONTINUOUS
10
-170.512
20
-2.94775
11
-170.529
21
-2.93801
0
LINE
8
BLACK
6
CONTINUOUS
10
-170.529
20
-2.93801
11
-170.531
21
-2.93165
0
LINE
8
BLACK
6
CONTINUOUS
10
-170.531
20
-2.93165
11
-170.536
21
-2.9273
0
LINE
8
BLACK
6
CONTINUOUS
10
-170.536
20
-2.9273
11
-170.539
21
-2.90811
0
LINE
8
BLACK
6
CONTINUOUS
10
-170.539
20
-2.90811
11
-170.546
21
-2.8898
0
LINE
8
BLACK
6
CONTINUOUS
10
-170.546
20
-2.8898
11
-170.546
21
82.6241
0
LINE
8
BLACK
6
CONTINUOUS
10
-170.546
20
82.6241
11
-170.544
21
82.6339
0
LINE
8
BLACK
6
CONTINUOUS
10
-170.544
20
82.6339
11
-170.545
21
82.6372
0
LINE
8
BLACK
6
CONTINUOUS
10
-170.545
20
82.6372
11
-170.543
21
82.64
0
LINE
8
BLACK
6
CONTINUOUS
10
-170.543
20
82.64
11
-170.541
21
82.6498
0
LINE
8
BLACK
6
CONTINUOUS
10
-170.541
20
82.6498
11
-170.529
21
82.6647
0
LINE
8
BLACK
6
CONTINUOUS
10
-170.529
20
82.6647
11
-170.519
21
82.6816
0
LINE
8
BLACK
6
CONTINUOUS
10
-170.519
20
82.6816
11
-170.513
21
82.6839
0
LINE
8
BLACK
6
CONTINUOUS
10
-170.513
20
82.6839
11
-170.508
21
82.6891
0
LINE
8
BLACK
6
CONTINUOUS
10
-170.508
20
82.6891
11
-170.489
21
82.6924
0
LINE
8
BLACK
6
CONTINUOUS
10
-170.489
20
82.6924
11
-170.471
21
82.6991
0
LINE
8
BLACK
6
CONTINUOUS
10
-170.471
20
82.6991
11
2.88389
21
82.6512
0
LINE
8
BLACK
6
CONTINUOUS
10
-170.396
20
-2.8148
11
2.80887
21
-2.8148
0
LINE
8
BLACK
6
CONTINUOUS
10
2.80887
20
-2.8148
11
2.80887
21
82.5012
0
LINE
8
BLACK
6
CONTINUOUS
10
2.80887
20
82.5012
11
-170.396
21
82.5491
0
LINE
8
BLACK
6
CONTINUOUS
10
-170.396
20
82.5491
11
-170.396
21
-2.8148
0
LINE
8
BLACK
6
CONTINUOUS
10
-23.3496
20
4.37531
11
-23.2841
21
4.61138
0
LINE
8
BLACK
6
CONTINUOUS
10
-23.2841
20
4.61138
11
-23.1809
21
4.83359
0
LINE
8
BLACK
6
CONTINUOUS
10
-23.1809
20
4.83359
11
-23.0429
21
5.03597
0
LINE
8
BLACK
6
CONTINUOUS
10
-23.0429
20
5.03597
11
-22.8736
21
5.21308
0
LINE
8
BLACK
6
CONTINUOUS
10
-22.8736
20
5.21308
11
-22.6777
21
5.36017
0
LINE
8
BLACK
6
CONTINUOUS
10
-22.6777
20
5.36017
11
-22.4604
21
5.47329
0
LINE
8
BLACK
6
CONTINUOUS
10
-22.4604
20
5.47329
11
-22.2276
21
5.5494
0
LINE
8
BLACK
6
CONTINUOUS
10
-22.2276
20
5.5494
11
-21.9854
21
5.58646
0
LINE
8
BLACK
6
CONTINUOUS
10
-21.9854
20
5.58646
11
-21.7405
21
5.58347
0
LINE
8
BLACK
6
CONTINUOUS
10
-21.7405
20
5.58347
11
-21.4993
21
5.5405
0
LINE
8
BLACK
6
CONTINUOUS
10
-21.4993
20
5.5405
11
-21.2683
21
5.45873
0
LINE
8
BLACK
6
CONTINUOUS
10
-21.2683
20
5.45873
11
-21.0539
21
5.34033
0
LINE
8
BLACK
6
CONTINUOUS
10
-21.0539
20
5.34033
11
-20.8616
21
5.1885
0
LINE
8
BLACK
6
CONTINUOUS
10
-20.8616
20
5.1885
11
-20.6967
21
5.0073
0
LINE
8
BLACK
6
CONTINUOUS
10
-20.6967
20
5.0073
11
-20.5637
21
4.80161
0
LINE
8
BLACK
6
CONTINUOUS
10
-20.5637
20
4.80161
11
-20.466
21
4.57695
0
LINE
8
BLACK
6
CONTINUOUS
10
-20.466
20
4.57695
11
-20.4063
21
4.33935
0
LINE
8
BLACK
6
CONTINUOUS
10
-20.4063
20
4.33935
11
-20.3862
21
4.0952
0
LINE
8
BLACK
6
CONTINUOUS
10
-20.3862
20
4.0952
11
-20.388
21
4.02217
0
LINE
8
BLACK
6
CONTINUOUS
10
-20.388
20
4.02217
11
-20.42
21
3.77929
0
LINE
8
BLACK
6
CONTINUOUS
10
-20.42
20
3.77929
11
-20.4912
21
3.54489
0
LINE
8
BLACK
6
CONTINUOUS
10
-20.4912
20
3.54489
11
-20.5998
21
3.32526
0
LINE
8
BLACK
6
CONTINUOUS
10
-20.5998
20
3.32526
11
-20.7427
21
3.12632
0
LINE
8
BLACK
6
CONTINUOUS
10
-20.7427
20
3.12632
11
-20.9162
21
2.9534
0
LINE
8
BLACK
6
CONTINUOUS
10
-20.9162
20
2.9534
11
-21.1157
21
2.81113
0
LINE
8
BLACK
6
CONTINUOUS
10
-21.1157
20
2.81113
11
-21.3357
21
2.70336
0
LINE
8
BLACK
6
CONTINUOUS
10
-21.3357
20
2.70336
11
-21.5703
21
2.63296
0
LINE
8
BLACK
6
CONTINUOUS
10
-21.5703
20
2.63296
11
-21.8133
21
2.60183
0
LINE
8
BLACK
6
CONTINUOUS
10
-21.8133
20
2.60183
11
-22.0581
21
2.61081
0
LINE
8
BLACK
6
CONTINUOUS
10
-22.0581
20
2.61081
11
-22.2982
21
2.65965
0
LINE
8
BLACK
6
CONTINUOUS
10
-22.2982
20
2.65965
11
-22.5271
21
2.74704
0
LINE
8
BLACK
6
CONTINUOUS
10
-22.5271
20
2.74704
11
-22.7386
21
2.87064
0
LINE
8
BLACK
6
CONTINUOUS
10
-22.7386
20
2.87064
11
-22.9271
21
3.02713
0
LINE
8
BLACK
6
CONTINUOUS
10
-22.9271
20
3.02713
11
-23.0875
21
3.2123
0
LINE
8
BLACK
6
CONTINUOUS
10
-23.0875
20
3.2123
11
-23.2155
21
3.42118
0
LINE
8
BLACK
6
CONTINUOUS
10
-23.2155
20
3.42118
11
-23.3076
21
3.64816
0
LINE
8
BLACK
6
CONTINUOUS
10
-23.3076
20
3.64816
11
-23.3615
21
3.88715
0
LINE
8
BLACK
6
CONTINUOUS
10
-23.3615
20
3.88715
11
-23.3735
21
4.0952
0
LINE
8
BLACK
6
CONTINUOUS
10
-23.3735
20
4.0952
11
-23.3756
21
4.13172
0
LINE
8
BLACK
6
CONTINUOUS
10
-23.3756
20
4.13172
11
-23.3496
21
4.37531
0
LINE
8
BLACK
6
CONTINUOUS
10
-23.1498
20
3.63346
11
-23.0503
21
3.42018
0
LINE
8
BLACK
6
CONTINUOUS
10
-23.0503
20
3.42018
11
-22.9153
21
3.22741
0
LINE
8
BLACK
6
CONTINUOUS
10
-22.9153
20
3.22741
11
-22.7489
21
3.06101
0
LINE
8
BLACK
6
CONTINUOUS
10
-22.7489
20
3.06101
11
-22.5562
21
2.92603
0
LINE
8
BLACK
6
CONTINUOUS
10
-22.5562
20
2.92603
11
-22.3429
21
2.82657
0
LINE
8
BLACK
6
CONTINUOUS
10
-22.3429
20
2.82657
11
-22.1156
21
2.76567
0
LINE
8
BLACK
6
CONTINUOUS
10
-22.1156
20
2.76567
11
-21.8811
21
2.74516
0
LINE
8
BLACK
6
CONTINUOUS
10
-21.8811
20
2.74516
11
-21.6467
21
2.76567
0
LINE
8
BLACK
6
CONTINUOUS
10
-21.6467
20
2.76567
11
-21.4194
21
2.82657
0
LINE
8
BLACK
6
CONTINUOUS
10
-21.4194
20
2.82657
11
-21.2061
21
2.92603
0
LINE
8
BLACK
6
CONTINUOUS
10
-21.2061
20
2.92603
11
-21.0133
21
3.06101
0
LINE
8
BLACK
6
CONTINUOUS
10
-21.0133
20
3.06101
11
-20.8469
21
3.22741
0
LINE
8
BLACK
6
CONTINUOUS
10
-20.8469
20
3.22741
11
-20.712
21
3.42018
0
LINE
8
BLACK
6
CONTINUOUS
10
-20.712
20
3.42018
11
-20.6125
21
3.63346
0
LINE
8
BLACK
6
CONTINUOUS
10
-20.6125
20
3.63346
11
-20.5516
21
3.86076
0
LINE
8
BLACK
6
CONTINUOUS
10
-20.5516
20
3.86076
11
-20.5311
21
4.0952
0
LINE
8
BLACK
6
CONTINUOUS
10
-20.5311
20
4.0952
11
-20.5516
21
4.32963
0
LINE
8
BLACK
6
CONTINUOUS
10
-20.5516
20
4.32963
11
-20.6125
21
4.55694
0
LINE
8
BLACK
6
CONTINUOUS
10
-20.6125
20
4.55694
11
-20.712
21
4.77022
0
LINE
8
BLACK
6
CONTINUOUS
10
-20.712
20
4.77022
11
-20.8469
21
4.96299
0
LINE
8
BLACK
6
CONTINUOUS
10
-20.8469
20
4.96299
11
-21.0133
21
5.12939
0
LINE
8
BLACK
6
CONTINUOUS
10
-21.0133
20
5.12939
11
-21.2061
21
5.26437
0
LINE
8
BLACK
6
CONTINUOUS
10
-21.2061
20
5.26437
11
-21.4194
21
5.36382
0
LINE
8
BLACK
6
CONTINUOUS
10
-21.4194
20
5.36382
11
-21.6467
21
5.42473
0
LINE
8
BLACK
6
CONTINUOUS
10
-21.6467
20
5.42473
11
-21.8811
21
5.44524
0
LINE
8
BLACK
6
CONTINUOUS
10
-21.8811
20
5.44524
11
-22.1156
21
5.42473
0
LINE
8
BLACK
6
CONTINUOUS
10
-22.1156
20
5.42473
11
-22.3429
21
5.36382
0
LINE
8
BLACK
6
CONTINUOUS
10
-22.3429
20
5.36382
11
-22.5562
21
5.26437
0
LINE
8
BLACK
6
CONTINUOUS
10
-22.5562
20
5.26437
11
-22.7489
21
5.12939
0
LINE
8
BLACK
6
CONTINUOUS
10
-22.7489
20
5.12939
11
-22.9153
21
4.96299
0
LINE
8
BLACK
6
CONTINUOUS
10
-22.9153
20
4.96299
11
-23.0503
21
4.77022
0
LINE
8
BLACK
6
CONTINUOUS
10
-23.0503
20
4.77022
11
-23.1498
21
4.55694
0
LINE
8
BLACK
6
CONTINUOUS
10
-23.1498
20
4.55694
11
-23.2107
21
4.32963
0
LINE
8
BLACK
6
CONTINUOUS
10
-23.2107
20
4.32963
11
-23.2312
21
4.0952
0
LINE
8
BLACK
6
CONTINUOUS
10
-23.2312
20
4.0952
11
-23.2107
21
3.86076
0
LINE
8
BLACK
6
CONTINUOUS
10
-23.2107
20
3.86076
11
-23.1498
21
3.63346
0
LINE
8
BLACK
6
CONTINUOUS
10
-95.1046
20
9.45531
11
-95.0391
21
9.69138
0
LINE
8
BLACK
6
CONTINUOUS
10
-95.0391
20
9.69138
11
-94.9359
21
9.91359
0
LINE
8
BLACK
6
CONTINUOUS
10
-94.9359
20
9.91359
11
-94.7979
21
10.116
0
LINE
8
BLACK
6
CONTINUOUS
10
-94.7979
20
10.116
11
-94.6286
21
10.2931
0
LINE
8
BLACK
6
CONTINUOUS
10
-94.6286
20
10.2931
11
-94.4327
21
10.4402
0
LINE
8
BLACK
6
CONTINUOUS
10
-94.4327
20
10.4402
11
-94.2154
21
10.5533
0
LINE
8
BLACK
6
CONTINUOUS
10
-94.2154
20
10.5533
11
-93.9826
21
10.6294
0
LINE
8
BLACK
6
CONTINUOUS
10
-93.9826
20
10.6294
11
-93.7404
21
10.6665
0
LINE
8
BLACK
6
CONTINUOUS
10
-93.7404
20
10.6665
11
-93.4955
21
10.6635
0
LINE
8
BLACK
6
CONTINUOUS
10
-93.4955
20
10.6635
11
-93.2543
21
10.6205
0
LINE
8
BLACK
6
CONTINUOUS
10
-93.2543
20
10.6205
11
-93.0233
21
10.5387
0
LINE
8
BLACK
6
CONTINUOUS
10
-93.0233
20
10.5387
11
-92.8089
21
10.4203
0
LINE
8
BLACK
6
CONTINUOUS
10
-92.8089
20
10.4203
11
-92.6166
21
10.2685
0
LINE
8
BLACK
6
CONTINUOUS
10
-92.6166
20
10.2685
11
-92.4517
21
10.0873
0
LINE
8
BLACK
6
CONTINUOUS
10
-92.4517
20
10.0873
11
-92.3187
21
9.88162
0
LINE
8
BLACK
6
CONTINUOUS
10
-92.3187
20
9.88162
11
-92.221
21
9.65695
0
LINE
8
BLACK
6
CONTINUOUS
10
-92.221
20
9.65695
11
-92.1613
21
9.41935
0
LINE
8
BLACK
6
CONTINUOUS
10
-92.1613
20
9.41935
11
-92.1412
21
9.1752
0
LINE
8
BLACK
6
CONTINUOUS
10
-92.1412
20
9.1752
11
-92.143
21
9.10217
0
LINE
8
BLACK
6
CONTINUOUS
10
-92.143
20
9.10217
11
-92.175
21
8.85929
0
LINE
8
BLACK
6
CONTINUOUS
10
-92.175
20
8.85929
11
-92.2462
21
8.62489
0
LINE
8
BLACK
6
CONTINUOUS
10
-92.2462
20
8.62489
11
-92.3548
21
8.40526
0
LINE
8
BLACK
6
CONTINUOUS
10
-92.3548
20
8.40526
11
-92.4977
21
8.20632
0
LINE
8
BLACK
6
CONTINUOUS
10
-92.4977
20
8.20632
11
-92.6712
21
8.0334
0
LINE
8
BLACK
6
CONTINUOUS
10
-92.6712
20
8.0334
11
-92.8707
21
7.89113
0
LINE
8
BLACK
6
CONTINUOUS
10
-92.8707
20
7.89113
11
-93.0907
21
7.78336
0
LINE
8
BLACK
6
CONTINUOUS
10
-93.0907
20
7.78336
11
-93.3253
21
7.71296
0
LINE
8
BLACK
6
CONTINUOUS
10
-93.3253
20
7.71296
11
-93.5683
21
7.68183
0
LINE
8
BLACK
6
CONTINUOUS
10
-93.5683
20
7.68183
11
-93.8131
21
7.69081
0
LINE
8
BLACK
6
CONTINUOUS
10
-93.8131
20
7.69081
11
-94.0532
21
7.73965
0
LINE
8
BLACK
6
CONTINUOUS
10
-94.0532
20
7.73965
11
-94.2821
21
7.82705
0
LINE
8
BLACK
6
CONTINUOUS
10
-94.2821
20
7.82705
11
-94.4936
21
7.95064
0
LINE
8
BLACK
6
CONTINUOUS
10
-94.4936
20
7.95064
11
-94.6821
21
8.10713
0
LINE
8
BLACK
6
CONTINUOUS
10
-94.6821
20
8.10713
11
-94.8425
21
8.2923
0
LINE
8
BLACK
6
CONTINUOUS
10
-94.8425
20
8.2923
11
-94.9705
21
8.50118
0
LINE
8
BLACK
6
CONTINUOUS
10
-94.9705
20
8.50118
11
-95.0626
21
8.72816
0
LINE
8
BLACK
6
CONTINUOUS
10
-95.0626
20
8.72816
11
-95.1165
21
8.96715
0
LINE
8
BLACK
6
CONTINUOUS
10
-95.1165
20
8.96715
11
-95.1285
21
9.1752
0
LINE
8
BLACK
6
CONTINUOUS
10
-95.1285
20
9.1752
11
-95.1306
21
9.21172
0
LINE
8
BLACK
6
CONTINUOUS
10
-95.1306
20
9.21172
11
-95.1046
21
9.45531
0
LINE
8
BLACK
6
CONTINUOUS
10
-94.9048
20
8.71346
11
-94.8053
21
8.50018
0
LINE
8
BLACK
6
CONTINUOUS
10
-94.8053
20
8.50018
11
-94.6703
21
8.30741
0
LINE
8
BLACK
6
CONTINUOUS
10
-94.6703
20
8.30741
11
-94.5039
21
8.14101
0
LINE
8
BLACK
6
CONTINUOUS
10
-94.5039
20
8.14101
11
-94.3112
21
8.00603
0
LINE
8
BLACK
6
CONTINUOUS
10
-94.3112
20
8.00603
11
-94.0979
21
7.90657
0
LINE
8
BLACK
6
CONTINUOUS
10
-94.0979
20
7.90657
11
-93.8706
21
7.84567
0
LINE
8
BLACK
6
CONTINUOUS
10
-93.8706
20
7.84567
11
-93.6361
21
7.82516
0
LINE
8
BLACK
6
CONTINUOUS
10
-93.6361
20
7.82516
11
-93.4017
21
7.84567
0
LINE
8
BLACK
6
CONTINUOUS
10
-93.4017
20
7.84567
11
-93.1744
21
7.90657
0
LINE
8
BLACK
6
CONTINUOUS
10
-93.1744
20
7.90657
11
-92.9611
21
8.00603
0
LINE
8
BLACK
6
CONTINUOUS
10
-92.9611
20
8.00603
11
-92.7683
21
8.14101
0
LINE
8
BLACK
6
CONTINUOUS
10
-92.7683
20
8.14101
11
-92.6019
21
8.30741
0
LINE
8
BLACK
6
CONTINUOUS
10
-92.6019
20
8.30741
11
-92.467
21
8.50018
0
LINE
8
BLACK
6
CONTINUOUS
10
-92.467
20
8.50018
11
-92.3675
21
8.71346
0
LINE
8
BLACK
6
CONTINUOUS
10
-92.3675
20
8.71346
11
-92.3066
21
8.94076
0
LINE
8
BLACK
6
CONTINUOUS
10
-92.3066
20
8.94076
11
-92.2861
21
9.1752
0
LINE
8
BLACK
6
CONTINUOUS
10
-92.2861
20
9.1752
11
-92.3066
21
9.40963
0
LINE
8
BLACK
6
CONTINUOUS
10
-92.3066
20
9.40963
11
-92.3675
21
9.63694
0
LINE
8
BLACK
6
CONTINUOUS
10
-92.3675
20
9.63694
11
-92.467
21
9.85022
0
LINE
8
BLACK
6
CONTINUOUS
10
-92.467
20
9.85022
11
-92.6019
21
10.043
0
LINE
8
BLACK
6
CONTINUOUS
10
-92.6019
20
10.043
11
-92.7683
21
10.2094
0
LINE
8
BLACK
6
CONTINUOUS
10
-92.7683
20
10.2094
11
-92.9611
21
10.3444
0
LINE
8
BLACK
6
CONTINUOUS
10
-92.9611
20
10.3444
11
-93.1744
21
10.4438
0
LINE
8
BLACK
6
CONTINUOUS
10
-93.1744
20
10.4438
11
-93.4017
21
10.5047
0
LINE
8
BLACK
6
CONTINUOUS
10
-93.4017
20
10.5047
11
-93.6361
21
10.5252
0
LINE
8
BLACK
6
CONTINUOUS
10
-93.6361
20
10.5252
11
-93.8706
21
10.5047
0
LINE
8
BLACK
6
CONTINUOUS
10
-93.8706
20
10.5047
11
-94.0979
21
10.4438
0
LINE
8
BLACK
6
CONTINUOUS
10
-94.0979
20
10.4438
11
-94.3112
21
10.3444
0
LINE
8
BLACK
6
CONTINUOUS
10
-94.3112
20
10.3444
11
-94.5039
21
10.2094
0
LINE
8
BLACK
6
CONTINUOUS
10
-94.5039
20
10.2094
11
-94.6703
21
10.043
0
LINE
8
BLACK
6
CONTINUOUS
10
-94.6703
20
10.043
11
-94.8053
21
9.85022
0
LINE
8
BLACK
6
CONTINUOUS
10
-94.8053
20
9.85022
11
-94.9048
21
9.63694
0
LINE
8
BLACK
6
CONTINUOUS
10
-94.9048
20
9.63694
11
-94.9657
21
9.40963
0
LINE
8
BLACK
6
CONTINUOUS
10
-94.9657
20
9.40963
11
-94.9862
21
9.1752
0
LINE
8
BLACK
6
CONTINUOUS
10
-94.9862
20
9.1752
11
-94.9657
21
8.94076
0
LINE
8
BLACK
6
CONTINUOUS
10
-94.9657
20
8.94076
11
-94.9048
21
8.71346
0
LINE
8
BLACK
6
CONTINUOUS
10
-154.922
20
20.2503
11
-154.856
21
20.4864
0
LINE
8
BLACK
6
CONTINUOUS
10
-154.856
20
20.4864
11
-154.753
21
20.7086
0
LINE
8
BLACK
6
CONTINUOUS
10
-154.753
20
20.7086
11
-154.615
21
20.911
0
LINE
8
BLACK
6
CONTINUOUS
10
-154.615
20
20.911
11
-154.446
21
21.0881
0
LINE
8
BLACK
6
CONTINUOUS
10
-154.446
20
21.0881
11
-154.25
21
21.2352
0
LINE
8
BLACK
6
CONTINUOUS
10
-154.25
20
21.2352
11
-154.032
21
21.3483
0
LINE
8
BLACK
6
CONTINUOUS
10
-154.032
20
21.3483
11
-153.8
21
21.4244
0
LINE
8
BLACK
6
CONTINUOUS
10
-153.8
20
21.4244
11
-153.557
21
21.4615
0
LINE
8
BLACK
6
CONTINUOUS
10
-153.557
20
21.4615
11
-153.312
21
21.4585
0
LINE
8
BLACK
6
CONTINUOUS
10
-153.312
20
21.4585
11
-153.071
21
21.4155
0
LINE
8
BLACK
6
CONTINUOUS
10
-153.071
20
21.4155
11
-152.84
21
21.3337
0
LINE
8
BLACK
6
CONTINUOUS
10
-152.84
20
21.3337
11
-152.626
21
21.2153
0
LINE
8
BLACK
6
CONTINUOUS
10
-152.626
20
21.2153
11
-152.434
21
21.0635
0
LINE
8
BLACK
6
CONTINUOUS
10
-152.434
20
21.0635
11
-152.269
21
20.8823
0
LINE
8
BLACK
6
CONTINUOUS
10
-152.269
20
20.8823
11
-152.136
21
20.6766
0
LINE
8
BLACK
6
CONTINUOUS
10
-152.136
20
20.6766
11
-152.038
21
20.452
0
LINE
8
BLACK
6
CONTINUOUS
10
-152.038
20
20.452
11
-151.978
21
20.2144
0
LINE
8
BLACK
6
CONTINUOUS
10
-151.978
20
20.2144
11
-151.958
21
19.9702
0
LINE
8
BLACK
6
CONTINUOUS
10
-151.958
20
19.9702
11
-151.96
21
19.8972
0
LINE
8
BLACK
6
CONTINUOUS
10
-151.96
20
19.8972
11
-151.992
21
19.6543
0
LINE
8
BLACK
6
CONTINUOUS
10
-151.992
20
19.6543
11
-152.063
21
19.4199
0
LINE
8
BLACK
6
CONTINUOUS
10
-152.063
20
19.4199
11
-152.172
21
19.2003
0
LINE
8
BLACK
6
CONTINUOUS
10
-152.172
20
19.2003
11
-152.315
21
19.0013
0
LINE
8
BLACK
6
CONTINUOUS
10
-152.315
20
19.0013
11
-152.488
21
18.8284
0
LINE
8
BLACK
6
CONTINUOUS
10
-152.488
20
18.8284
11
-152.688
21
18.6861
0
LINE
8
BLACK
6
CONTINUOUS
10
-152.688
20
18.6861
11
-152.908
21
18.5784
0
LINE
8
BLACK
6
CONTINUOUS
10
-152.908
20
18.5784
11
-153.142
21
18.508
0
LINE
8
BLACK
6
CONTINUOUS
10
-153.142
20
18.508
11
-153.385
21
18.4768
0
LINE
8
BLACK
6
CONTINUOUS
10
-153.385
20
18.4768
11
-153.63
21
18.4858
0
LINE
8
BLACK
6
CONTINUOUS
10
-153.63
20
18.4858
11
-153.87
21
18.5347
0
LINE
8
BLACK
6
CONTINUOUS
10
-153.87
20
18.5347
11
-154.099
21
18.622
0
LINE
8
BLACK
6
CONTINUOUS
10
-154.099
20
18.622
11
-154.311
21
18.7456
0
LINE
8
BLACK
6
CONTINUOUS
10
-154.311
20
18.7456
11
-154.499
21
18.9021
0
LINE
8
BLACK
6
CONTINUOUS
10
-154.499
20
18.9021
11
-154.659
21
19.0873
0
LINE
8
BLACK
6
CONTINUOUS
10
-154.659
20
19.0873
11
-154.787
21
19.2962
0
LINE
8
BLACK
6
CONTINUOUS
10
-154.787
20
19.2962
11
-154.88
21
19.5232
0
LINE
8
BLACK
6
CONTINUOUS
10
-154.88
20
19.5232
11
-154.933
21
19.7621
0
LINE
8
BLACK
6
CONTINUOUS
10
-154.933
20
19.7621
11
-154.945
21
19.9702
0
LINE
8
BLACK
6
CONTINUOUS
10
-154.945
20
19.9702
11
-154.948
21
20.0067
0
LINE
8
BLACK
6
CONTINUOUS
10
-154.948
20
20.0067
11
-154.922
21
20.2503
0
LINE
8
BLACK
6
CONTINUOUS
10
-154.722
20
19.5085
11
-154.622
21
19.2952
0
LINE
8
BLACK
6
CONTINUOUS
10
-154.622
20
19.2952
11
-154.487
21
19.1024
0
LINE
8
BLACK
6
CONTINUOUS
10
-154.487
20
19.1024
11
-154.321
21
18.936
0
LINE
8
BLACK
6
CONTINUOUS
10
-154.321
20
18.936
11
-154.128
21
18.801
0
LINE
8
BLACK
6
CONTINUOUS
10
-154.128
20
18.801
11
-153.915
21
18.7016
0
LINE
8
BLACK
6
CONTINUOUS
10
-153.915
20
18.7016
11
-153.688
21
18.6407
0
LINE
8
BLACK
6
CONTINUOUS
10
-153.688
20
18.6407
11
-153.453
21
18.6202
0
LINE
8
BLACK
6
CONTINUOUS
10
-153.453
20
18.6202
11
-153.219
21
18.6407
0
LINE
8
BLACK
6
CONTINUOUS
10
-153.219
20
18.6407
11
-152.991
21
18.7016
0
LINE
8
BLACK
6
CONTINUOUS
10
-152.991
20
18.7016
11
-152.778
21
18.801
0
LINE
8
BLACK
6
CONTINUOUS
10
-152.778
20
18.801
11
-152.585
21
18.936
0
LINE
8
BLACK
6
CONTINUOUS
10
-152.585
20
18.936
11
-152.419
21
19.1024
0
LINE
8
BLACK
6
CONTINUOUS
10
-152.419
20
19.1024
11
-152.284
21
19.2952
0
LINE
8
BLACK
6
CONTINUOUS
10
-152.284
20
19.2952
11
-152.185
21
19.5085
0
LINE
8
BLACK
6
CONTINUOUS
10
-152.185
20
19.5085
11
-152.124
21
19.7358
0
LINE
8
BLACK
6
CONTINUOUS
10
-152.124
20
19.7358
11
-152.103
21
19.9702
0
LINE
8
BLACK
6
CONTINUOUS
10
-152.103
20
19.9702
11
-152.124
21
20.2046
0
LINE
8
BLACK
6
CONTINUOUS
10
-152.124
20
20.2046
11
-152.185
21
20.4319
0
LINE
8
BLACK
6
CONTINUOUS
10
-152.185
20
20.4319
11
-152.284
21
20.6452
0
LINE
8
BLACK
6
CONTINUOUS
10
-152.284
20
20.6452
11
-152.419
21
20.838
0
LINE
8
BLACK
6
CONTINUOUS
10
-152.419
20
20.838
11
-152.585
21
21.0044
0
LINE
8
BLACK
6
CONTINUOUS
10
-152.585
20
21.0044
11
-152.778
21
21.1394
0
LINE
8
BLACK
6
CONTINUOUS
10
-152.778
20
21.1394
11
-152.991
21
21.2388
0
LINE
8
BLACK
6
CONTINUOUS
10
-152.991
20
21.2388
11
-153.219
21
21.2997
0
LINE
8
BLACK
6
CONTINUOUS
10
-153.219
20
21.2997
11
-153.453
21
21.3202
0
LINE
8
BLACK
6
CONTINUOUS
10
-153.453
20
21.3202
11
-153.688
21
21.2997
0
LINE
8
BLACK
6
CONTINUOUS
10
-153.688
20
21.2997
11
-153.915
21
21.2388
0
LINE
8
BLACK
6
CONTINUOUS
10
-153.915
20
21.2388
11
-154.128
21
21.1394
0
LINE
8
BLACK
6
CONTINUOUS
10
-154.128
20
21.1394
11
-154.321
21
21.0044
0
LINE
8
BLACK
6
CONTINUOUS
10
-154.321
20
21.0044
11
-154.487
21
20.838
0
LINE
8
BLACK
6
CONTINUOUS
10
-154.487
20
20.838
11
-154.622
21
20.6452
0
LINE
8
BLACK
6
CONTINUOUS
10
-154.622
20
20.6452
11
-154.722
21
20.4319
0
LINE
8
BLACK
6
CONTINUOUS
10
-154.722
20
20.4319
11
-154.783
21
20.2046
0
LINE
8
BLACK
6
CONTINUOUS
10
-154.783
20
20.2046
11
-154.803
21
19.9702
0
LINE
8
BLACK
6
CONTINUOUS
10
-154.803
20
19.9702
11
-154.783
21
19.7358
0
LINE
8
BLACK
6
CONTINUOUS
10
-154.783
20
19.7358
11
-154.722
21
19.5085
0
LINE
8
BLACK
6
CONTINUOUS
10
-154.922
20
69.7941
11
-154.856
21
70.0301
0
LINE
8
BLACK
6
CONTINUOUS
10
-154.856
20
70.0301
11
-154.753
21
70.2524
0
LINE
8
BLACK
6
CONTINUOUS
10
-154.753
20
70.2524
11
-154.615
21
70.4547
0
LINE
8
BLACK
6
CONTINUOUS
10
-154.615
20
70.4547
11
-154.446
21
70.6318
0
LINE
8
BLACK
6
CONTINUOUS
10
-154.446
20
70.6318
11
-154.25
21
70.7789
0
LINE
8
BLACK
6
CONTINUOUS
10
-154.25
20
70.7789
11
-154.032
21
70.8921
0
LINE
8
BLACK
6
CONTINUOUS
10
-154.032
20
70.8921
11
-153.8
21
70.9682
0
LINE
8
BLACK
6
CONTINUOUS
10
-153.8
20
70.9682
11
-153.557
21
71.0052
0
LINE
8
BLACK
6
CONTINUOUS
10
-153.557
20
71.0052
11
-153.312
21
71.0022
0
LINE
8
BLACK
6
CONTINUOUS
10
-153.312
20
71.0022
11
-153.071
21
70.9593
0
LINE
8
BLACK
6
CONTINUOUS
10
-153.071
20
70.9593
11
-152.84
21
70.8775
0
LINE
8
BLACK
6
CONTINUOUS
10
-152.84
20
70.8775
11
-152.626
21
70.7591
0
LINE
8
BLACK
6
CONTINUOUS
10
-152.626
20
70.7591
11
-152.434
21
70.6073
0
LINE
8
BLACK
6
CONTINUOUS
10
-152.434
20
70.6073
11
-152.269
21
70.4261
0
LINE
8
BLACK
6
CONTINUOUS
10
-152.269
20
70.4261
11
-152.136
21
70.2204
0
LINE
8
BLACK
6
CONTINUOUS
10
-152.136
20
70.2204
11
-152.038
21
69.9957
0
LINE
8
BLACK
6
CONTINUOUS
10
-152.038
20
69.9957
11
-151.978
21
69.7581
0
LINE
8
BLACK
6
CONTINUOUS
10
-151.978
20
69.7581
11
-151.958
21
69.514
0
LINE
8
BLACK
6
CONTINUOUS
10
-151.958
20
69.514
11
-151.96
21
69.4409
0
LINE
8
BLACK
6
CONTINUOUS
10
-151.96
20
69.4409
11
-151.992
21
69.198
0
LINE
8
BLACK
6
CONTINUOUS
10
-151.992
20
69.198
11
-152.063
21
68.9636
0
LINE
8
BLACK
6
CONTINUOUS
10
-152.063
20
68.9636
11
-152.172
21
68.744
0
LINE
8
BLACK
6
CONTINUOUS
10
-152.172
20
68.744
11
-152.315
21
68.5451
0
LINE
8
BLACK
6
CONTINUOUS
10
-152.315
20
68.5451
11
-152.488
21
68.3722
0
LINE
8
BLACK
6
CONTINUOUS
10
-152.488
20
68.3722
11
-152.688
21
68.2299
0
LINE
8
BLACK
6
CONTINUOUS
10
-152.688
20
68.2299
11
-152.908
21
68.1221
0
LINE
8
BLACK
6
CONTINUOUS
10
-152.908
20
68.1221
11
-153.142
21
68.0517
0
LINE
8
BLACK
6
CONTINUOUS
10
-153.142
20
68.0517
11
-153.385
21
68.0206
0
LINE
8
BLACK
6
CONTINUOUS
10
-153.385
20
68.0206
11
-153.63
21
68.0296
0
LINE
8
BLACK
6
CONTINUOUS
10
-153.63
20
68.0296
11
-153.87
21
68.0784
0
LINE
8
BLACK
6
CONTINUOUS
10
-153.87
20
68.0784
11
-154.099
21
68.1658
0
LINE
8
BLACK
6
CONTINUOUS
10
-154.099
20
68.1658
11
-154.311
21
68.2894
0
LINE
8
BLACK
6
CONTINUOUS
10
-154.311
20
68.2894
11
-154.499
21
68.4459
0
LINE
8
BLACK
6
CONTINUOUS
10
-154.499
20
68.4459
11
-154.659
21
68.6311
0
LINE
8
BLACK
6
CONTINUOUS
10
-154.659
20
68.6311
11
-154.787
21
68.8399
0
LINE
8
BLACK
6
CONTINUOUS
10
-154.787
20
68.8399
11
-154.88
21
69.0669
0
LINE
8
BLACK
6
CONTINUOUS
10
-154.88
20
69.0669
11
-154.933
21
69.3059
0
LINE
8
BLACK
6
CONTINUOUS
10
-154.933
20
69.3059
11
-154.945
21
69.514
0
LINE
8
BLACK
6
CONTINUOUS
10
-154.945
20
69.514
11
-154.948
21
69.5505
0
LINE
8
BLACK
6
CONTINUOUS
10
-154.948
20
69.5505
11
-154.922
21
69.7941
0
LINE
8
BLACK
6
CONTINUOUS
10
-154.722
20
69.0522
11
-154.622
21
68.8389
0
LINE
8
BLACK
6
CONTINUOUS
10
-154.622
20
68.8389
11
-154.487
21
68.6462
0
LINE
8
BLACK
6
CONTINUOUS
10
-154.487
20
68.6462
11
-154.321
21
68.4798
0
LINE
8
BLACK
6
CONTINUOUS
10
-154.321
20
68.4798
11
-154.128
21
68.3448
0
LINE
8
BLACK
6
CONTINUOUS
10
-154.128
20
68.3448
11
-153.915
21
68.2453
0
LINE
8
BLACK
6
CONTINUOUS
10
-153.915
20
68.2453
11
-153.688
21
68.1844
0
LINE
8
BLACK
6
CONTINUOUS
10
-153.688
20
68.1844
11
-153.453
21
68.1639
0
LINE
8
BLACK
6
CONTINUOUS
10
-153.453
20
68.1639
11
-153.219
21
68.1844
0
LINE
8
BLACK
6
CONTINUOUS
10
-153.219
20
68.1844
11
-152.991
21
68.2453
0
LINE
8
BLACK
6
CONTINUOUS
10
-152.991
20
68.2453
11
-152.778
21
68.3448
0
LINE
8
BLACK
6
CONTINUOUS
10
-152.778
20
68.3448
11
-152.585
21
68.4798
0
LINE
8
BLACK
6
CONTINUOUS
10
-152.585
20
68.4798
11
-152.419
21
68.6462
0
LINE
8
BLACK
6
CONTINUOUS
10
-152.419
20
68.6462
11
-152.284
21
68.8389
0
LINE
8
BLACK
6
CONTINUOUS
10
-152.284
20
68.8389
11
-152.185
21
69.0522
0
LINE
8
BLACK
6
CONTINUOUS
10
-152.185
20
69.0522
11
-152.124
21
69.2795
0
LINE
8
BLACK
6
CONTINUOUS
10
-152.124
20
69.2795
11
-152.103
21
69.514
0
LINE
8
BLACK
6
CONTINUOUS
10
-152.103
20
69.514
11
-152.124
21
69.7484
0
LINE
8
BLACK
6
CONTINUOUS
10
-152.124
20
69.7484
11
-152.185
21
69.9757
0
LINE
8
BLACK
6
CONTINUOUS
10
-152.185
20
69.9757
11
-152.284
21
70.189
0
LINE
8
BLACK
6
CONTINUOUS
10
-152.284
20
70.189
11
-152.419
21
70.3817
0
LINE
8
BLACK
6
CONTINUOUS
10
-152.419
20
70.3817
11
-152.585
21
70.5481
0
LINE
8
BLACK
6
CONTINUOUS
10
-152.585
20
70.5481
11
-152.778
21
70.6831
0
LINE
8
BLACK
6
CONTINUOUS
10
-152.778
20
70.6831
11
-152.991
21
70.7826
0
LINE
8
BLACK
6
CONTINUOUS
10
-152.991
20
70.7826
11
-153.219
21
70.8435
0
LINE
8
BLACK
6
CONTINUOUS
10
-153.219
20
70.8435
11
-153.453
21
70.864
0
LINE
8
BLACK
6
CONTINUOUS
10
-153.453
20
70.864
11
-153.688
21
70.8435
0
LINE
8
BLACK
6
CONTINUOUS
10
-153.688
20
70.8435
11
-153.915
21
70.7826
0
LINE
8
BLACK
6
CONTINUOUS
10
-153.915
20
70.7826
11
-154.128
21
70.6831
0
LINE
8
BLACK
6
CONTINUOUS
10
-154.128
20
70.6831
11
-154.321
21
70.5481
0
LINE
8
BLACK
6
CONTINUOUS
10
-154.321
20
70.5481
11
-154.487
21
70.3817
0
LINE
8
BLACK
6
CONTINUOUS
10
-154.487
20
70.3817
11
-154.622
21
70.189
0
LINE
8
BLACK
6
CONTINUOUS
10
-154.622
20
70.189
11
-154.722
21
69.9757
0
LINE
8
BLACK
6
CONTINUOUS
10
-154.722
20
69.9757
11
-154.783
21
69.7484
0
LINE
8
BLACK
6
CONTINUOUS
10
-154.783
20
69.7484
11
-154.803
21
69.514
0
LINE
8
BLACK
6
CONTINUOUS
10
-154.803
20
69.514
11
-154.783
21
69.2795
0
LINE
8
BLACK
6
CONTINUOUS
10
-154.783
20
69.2795
11
-154.722
21
69.0522
0
LINE
8
BLACK
6
CONTINUOUS
10
-64.7516
20
69.7941
11
-64.6861
21
70.0301
0
LINE
8
BLACK
6
CONTINUOUS
10
-64.6861
20
70.0301
11
-64.5829
21
70.2524
0
LINE
8
BLACK
6
CONTINUOUS
10
-64.5829
20
70.2524
11
-64.4449
21
70.4547
0
LINE
8
BLACK
6
CONTINUOUS
10
-64.4449
20
70.4547
11
-64.2756
21
70.6318
0
LINE
8
BLACK
6
CONTINUOUS
10
-64.2756
20
70.6318
11
-64.0797
21
70.7789
0
LINE
8
BLACK
6
CONTINUOUS
10
-64.0797
20
70.7789
11
-63.8624
21
70.8921
0
LINE
8
BLACK
6
CONTINUOUS
10
-63.8624
20
70.8921
11
-63.6296
21
70.9682
0
LINE
8
BLACK
6
CONTINUOUS
10
-63.6296
20
70.9682
11
-63.3874
21
71.0052
0
LINE
8
BLACK
6
CONTINUOUS
10
-63.3874
20
71.0052
11
-63.1425
21
71.0022
0
LINE
8
BLACK
6
CONTINUOUS
10
-63.1425
20
71.0022
11
-62.9013
21
70.9593
0
LINE
8
BLACK
6
CONTINUOUS
10
-62.9013
20
70.9593
11
-62.6703
21
70.8775
0
LINE
8
BLACK
6
CONTINUOUS
10
-62.6703
20
70.8775
11
-62.4559
21
70.7591
0
LINE
8
BLACK
6
CONTINUOUS
10
-62.4559
20
70.7591
11
-62.2636
21
70.6073
0
LINE
8
BLACK
6
CONTINUOUS
10
-62.2636
20
70.6073
11
-62.0987
21
70.4261
0
LINE
8
BLACK
6
CONTINUOUS
10
-62.0987
20
70.4261
11
-61.9657
21
70.2204
0
LINE
8
BLACK
6
CONTINUOUS
10
-61.9657
20
70.2204
11
-61.868
21
69.9957
0
LINE
8
BLACK
6
CONTINUOUS
10
-61.868
20
69.9957
11
-61.8083
21
69.7581
0
LINE
8
BLACK
6
CONTINUOUS
10
-61.8083
20
69.7581
11
-61.7882
21
69.514
0
LINE
8
BLACK
6
CONTINUOUS
10
-61.7882
20
69.514
11
-61.79
21
69.4409
0
LINE
8
BLACK
6
CONTINUOUS
10
-61.79
20
69.4409
11
-61.822
21
69.198
0
LINE
8
BLACK
6
CONTINUOUS
10
-61.822
20
69.198
11
-61.8932
21
68.9636
0
LINE
8
BLACK
6
CONTINUOUS
10
-61.8932
20
68.9636
11
-62.0018
21
68.744
0
LINE
8
BLACK
6
CONTINUOUS
10
-62.0018
20
68.744
11
-62.1447
21
68.5451
0
LINE
8
BLACK
6
CONTINUOUS
10
-62.1447
20
68.5451
11
-62.3182
21
68.3722
0
LINE
8
BLACK
6
CONTINUOUS
10
-62.3182
20
68.3722
11
-62.5177
21
68.2299
0
LINE
8
BLACK
6
CONTINUOUS
10
-62.5177
20
68.2299
11
-62.7377
21
68.1221
0
LINE
8
BLACK
6
CONTINUOUS
10
-62.7377
20
68.1221
11
-62.9723
21
68.0517
0
LINE
8
BLACK
6
CONTINUOUS
10
-62.9723
20
68.0517
11
-63.2153
21
68.0206
0
LINE
8
BLACK
6
CONTINUOUS
10
-63.2153
20
68.0206
11
-63.4601
21
68.0296
0
LINE
8
BLACK
6
CONTINUOUS
10
-63.4601
20
68.0296
11
-63.7002
21
68.0784
0
LINE
8
BLACK
6
CONTINUOUS
10
-63.7002
20
68.0784
11
-63.9291
21
68.1658
0
LINE
8
BLACK
6
CONTINUOUS
10
-63.9291
20
68.1658
11
-64.1406
21
68.2894
0
LINE
8
BLACK
6
CONTINUOUS
10
-64.1406
20
68.2894
11
-64.3291
21
68.4459
0
LINE
8
BLACK
6
CONTINUOUS
10
-64.3291
20
68.4459
11
-64.4895
21
68.6311
0
LINE
8
BLACK
6
CONTINUOUS
10
-64.4895
20
68.6311
11
-64.6175
21
68.8399
0
LINE
8
BLACK
6
CONTINUOUS
10
-64.6175
20
68.8399
11
-64.7096
21
69.0669
0
LINE
8
BLACK
6
CONTINUOUS
10
-64.7096
20
69.0669
11
-64.7635
21
69.3059
0
LINE
8
BLACK
6
CONTINUOUS
10
-64.7635
20
69.3059
11
-64.7755
21
69.514
0
LINE
8
BLACK
6
CONTINUOUS
10
-64.7755
20
69.514
11
-64.7776
21
69.5505
0
LINE
8
BLACK
6
CONTINUOUS
10
-64.7776
20
69.5505
11
-64.7516
21
69.7941
0
LINE
8
BLACK
6
CONTINUOUS
10
-64.5518
20
69.0522
11
-64.4523
21
68.8389
0
LINE
8
BLACK
6
CONTINUOUS
10
-64.4523
20
68.8389
11
-64.3173
21
68.6462
0
LINE
8
BLACK
6
CONTINUOUS
10
-64.3173
20
68.6462
11
-64.1509
21
68.4798
0
LINE
8
BLACK
6
CONTINUOUS
10
-64.1509
20
68.4798
11
-63.9582
21
68.3448
0
LINE
8
BLACK
6
CONTINUOUS
10
-63.9582
20
68.3448
11
-63.7449
21
68.2453
0
LINE
8
BLACK
6
CONTINUOUS
10
-63.7449
20
68.2453
11
-63.5176
21
68.1844
0
LINE
8
BLACK
6
CONTINUOUS
10
-63.5176
20
68.1844
11
-63.2831
21
68.1639
0
LINE
8
BLACK
6
CONTINUOUS
10
-63.2831
20
68.1639
11
-63.0487
21
68.1844
0
LINE
8
BLACK
6
CONTINUOUS
10
-63.0487
20
68.1844
11
-62.8214
21
68.2453
0
LINE
8
BLACK
6
CONTINUOUS
10
-62.8214
20
68.2453
11
-62.6081
21
68.3448
0
LINE
8
BLACK
6
CONTINUOUS
10
-62.6081
20
68.3448
11
-62.4153
21
68.4798
0
LINE
8
BLACK
6
CONTINUOUS
10
-62.4153
20
68.4798
11
-62.2489
21
68.6462
0
LINE
8
BLACK
6
CONTINUOUS
10
-62.2489
20
68.6462
11
-62.114
21
68.8389
0
LINE
8
BLACK
6
CONTINUOUS
10
-62.114
20
68.8389
11
-62.0145
21
69.0522
0
LINE
8
BLACK
6
CONTINUOUS
10
-62.0145
20
69.0522
11
-61.9536
21
69.2795
0
LINE
8
BLACK
6
CONTINUOUS
10
-61.9536
20
69.2795
11
-61.9331
21
69.514
0
LINE
8
BLACK
6
CONTINUOUS
10
-61.9331
20
69.514
11
-61.9536
21
69.7484
0
LINE
8
BLACK
6
CONTINUOUS
10
-61.9536
20
69.7484
11
-62.0145
21
69.9757
0
LINE
8
BLACK
6
CONTINUOUS
10
-62.0145
20
69.9757
11
-62.114
21
70.189
0
LINE
8
BLACK
6
CONTINUOUS
10
-62.114
20
70.189
11
-62.2489
21
70.3817
0
LINE
8
BLACK
6
CONTINUOUS
10
-62.2489
20
70.3817
11
-62.4153
21
70.5481
0
LINE
8
BLACK
6
CONTINUOUS
10
-62.4153
20
70.5481
11
-62.6081
21
70.6831
0
LINE
8
BLACK
6
CONTINUOUS
10
-62.6081
20
70.6831
11
-62.8214
21
70.7826
0
LINE
8
BLACK
6
CONTINUOUS
10
-62.8214
20
70.7826
11
-63.0487
21
70.8435
0
LINE
8
BLACK
6
CONTINUOUS
10
-63.0487
20
70.8435
11
-63.2831
21
70.864
0
LINE
8
BLACK
6
CONTINUOUS
10
-63.2831
20
70.864
11
-63.5176
21
70.8435
0
LINE
8
BLACK
6
CONTINUOUS
10
-63.5176
20
70.8435
11
-63.7449
21
70.7826
0
LINE
8
BLACK
6
CONTINUOUS
10
-63.7449
20
70.7826
11
-63.9582
21
70.6831
0
LINE
8
BLACK
6
CONTINUOUS
10
-63.9582
20
70.6831
11
-64.1509
21
70.5481
0
LINE
8
BLACK
6
CONTINUOUS
10
-64.1509
20
70.5481
11
-64.3173
21
70.3817
0
LINE
8
BLACK
6
CONTINUOUS
10
-64.3173
20
70.3817
11
-64.4523
21
70.189
0
LINE
8
BLACK
6
CONTINUOUS
10
-64.4523
20
70.189
11
-64.5518
21
69.9757
0
LINE
8
BLACK
6
CONTINUOUS
10
-64.5518
20
69.9757
11
-64.6127
21
69.7484
0
LINE
8
BLACK
6
CONTINUOUS
10
-64.6127
20
69.7484
11
-64.6332
21
69.514
0
LINE
8
BLACK
6
CONTINUOUS
10
-64.6332
20
69.514
11
-64.6127
21
69.2795
0
LINE
8
BLACK
6
CONTINUOUS
10
-64.6127
20
69.2795
11
-64.5518
21
69.0522
0
LINE
8
BLACK
6
CONTINUOUS
10
-2.39456
20
76.4141
11
-2.32909
21
76.6501
0
LINE
8
BLACK
6
CONTINUOUS
10
-2.32909
20
76.6501
11
-2.22594
21
76.8724
0
LINE
8
BLACK
6
CONTINUOUS
10
-2.22594
20
76.8724
11
-2.08789
21
77.0747
0
LINE
8
BLACK
6
CONTINUOUS
10
-2.08789
20
77.0747
11
-1.91864
21
77.2518
0
LINE
8
BLACK
6
CONTINUOUS
10
-1.91864
20
77.2518
11
-1.72273
21
77.3989
0
LINE
8
BLACK
6
CONTINUOUS
10
-1.72273
20
77.3989
11
-1.50543
21
77.5121
0
LINE
8
BLACK
6
CONTINUOUS
10
-1.50543
20
77.5121
11
-1.27258
21
77.5882
0
LINE
8
BLACK
6
CONTINUOUS
10
-1.27258
20
77.5882
11
-1.03041
21
77.6252
0
LINE
8
BLACK
6
CONTINUOUS
10
-1.03041
20
77.6252
11
-0.785451
21
77.6222
0
LINE
8
BLACK
6
CONTINUOUS
10
-0.785451
20
77.6222
11
-0.544267
21
77.5793
0
LINE
8
BLACK
6
CONTINUOUS
10
-0.544267
20
77.5793
11
-0.313339
21
77.4975
0
LINE
8
BLACK
6
CONTINUOUS
10
-0.313339
20
77.4975
11
-0.098867
21
77.3791
0
LINE
8
BLACK
6
CONTINUOUS
10
-0.098867
20
77.3791
11
0.093387
21
77.2273
0
LINE
8
BLACK
6
CONTINUOUS
10
0.093387
20
77.2273
11
0.258262
21
77.0461
0
LINE
8
BLACK
6
CONTINUOUS
10
0.258262
20
77.0461
11
0.391329
21
76.8404
0
LINE
8
BLACK
6
CONTINUOUS
10
0.391329
20
76.8404
11
0.489015
21
76.6157
0
LINE
8
BLACK
6
CONTINUOUS
10
0.489015
20
76.6157
11
0.548696
21
76.3781
0
LINE
8
BLACK
6
CONTINUOUS
10
0.548696
20
76.3781
11
0.568769
21
76.134
0
LINE
8
BLACK
6
CONTINUOUS
10
0.568769
20
76.134
11
0.566984
21
76.0609
0
LINE
8
BLACK
6
CONTINUOUS
10
0.566984
20
76.0609
11
0.535008
21
75.818
0
LINE
8
BLACK
6
CONTINUOUS
10
0.535008
20
75.818
11
0.463792
21
75.5836
0
LINE
8
BLACK
6
CONTINUOUS
10
0.463792
20
75.5836
11
0.355248
21
75.364
0
LINE
8
BLACK
6
CONTINUOUS
10
0.355248
20
75.364
11
0.212292
21
75.1651
0
LINE
8
BLACK
6
CONTINUOUS
10
0.212292
20
75.1651
11
0.038763
21
74.9922
0
LINE
8
BLACK
6
CONTINUOUS
10
0.038763
20
74.9922
11
-0.16068
21
74.8499
0
LINE
8
BLACK
6
CONTINUOUS
10
-0.16068
20
74.8499
11
-0.380679
21
74.7421
0
LINE
8
BLACK
6
CONTINUOUS
10
-0.380679
20
74.7421
11
-0.615326
21
74.6717
0
LINE
8
BLACK
6
CONTINUOUS
10
-0.615326
20
74.6717
11
-0.858321
21
74.6406
0
LINE
8
BLACK
6
CONTINUOUS
10
-0.858321
20
74.6406
11
-1.10314
21
74.6496
0
LINE
8
BLACK
6
CONTINUOUS
10
-1.10314
20
74.6496
11
-1.3432
21
74.6984
0
LINE
8
BLACK
6
CONTINUOUS
10
-1.3432
20
74.6984
11
-1.57206
21
74.7858
0
LINE
8
BLACK
6
CONTINUOUS
10
-1.57206
20
74.7858
11
-1.78357
21
74.9094
0
LINE
8
BLACK
6
CONTINUOUS
10
-1.78357
20
74.9094
11
-1.97206
21
75.0659
0
LINE
8
BLACK
6
CONTINUOUS
10
-1.97206
20
75.0659
11
-2.13246
21
75.2511
0
LINE
8
BLACK
6
CONTINUOUS
10
-2.13246
20
75.2511
11
-2.26046
21
75.4599
0
LINE
8
BLACK
6
CONTINUOUS
10
-2.26046
20
75.4599
11
-2.35263
21
75.6869
0
LINE
8
BLACK
6
CONTINUOUS
10
-2.35263
20
75.6869
11
-2.40649
21
75.9259
0
LINE
8
BLACK
6
CONTINUOUS
10
-2.40649
20
75.9259
11
-2.41848
21
76.134
0
LINE
8
BLACK
6
CONTINUOUS
10
-2.41848
20
76.134
11
-2.42059
21
76.1705
0
LINE
8
BLACK
6
CONTINUOUS
10
-2.42059
20
76.1705
11
-2.39456
21
76.4141
0
LINE
8
BLACK
6
CONTINUOUS
10
-2.19476
20
75.6722
11
-2.0953
21
75.4589
0
LINE
8
BLACK
6
CONTINUOUS
10
-2.0953
20
75.4589
11
-1.96032
21
75.2662
0
LINE
8
BLACK
6
CONTINUOUS
10
-1.96032
20
75.2662
11
-1.79392
21
75.0998
0
LINE
8
BLACK
6
CONTINUOUS
10
-1.79392
20
75.0998
11
-1.60115
21
74.9648
0
LINE
8
BLACK
6
CONTINUOUS
10
-1.60115
20
74.9648
11
-1.38787
21
74.8653
0
LINE
8
BLACK
6
CONTINUOUS
10
-1.38787
20
74.8653
11
-1.16057
21
74.8044
0
LINE
8
BLACK
6
CONTINUOUS
10
-1.16057
20
74.8044
11
-0.926134
21
74.7839
0
LINE
8
BLACK
6
CONTINUOUS
10
-0.926134
20
74.7839
11
-0.691702
21
74.8044
0
LINE
8
BLACK
6
CONTINUOUS
10
-0.691702
20
74.8044
11
-0.464393
21
74.8653
0
LINE
8
BLACK
6
CONTINUOUS
10
-0.464393
20
74.8653
11
-0.251114
21
74.9648
0
LINE
8
BLACK
6
CONTINUOUS
10
-0.251114
20
74.9648
11
-0.058345
21
75.0998
0
LINE
8
BLACK
6
CONTINUOUS
10
-0.058345
20
75.0998
11
0.108057
21
75.2662
0
LINE
8
BLACK
6
CONTINUOUS
10
0.108057
20
75.2662
11
0.243035
21
75.4589
0
LINE
8
BLACK
6
CONTINUOUS
10
0.243035
20
75.4589
11
0.342489
21
75.6722
0
LINE
8
BLACK
6
CONTINUOUS
10
0.342489
20
75.6722
11
0.403396
21
75.8995
0
LINE
8
BLACK
6
CONTINUOUS
10
0.403396
20
75.8995
11
0.423906
21
76.134
0
LINE
8
BLACK
6
CONTINUOUS
10
0.423906
20
76.134
11
0.403396
21
76.3684
0
LINE
8
BLACK
6
CONTINUOUS
10
0.403396
20
76.3684
11
0.342489
21
76.5957
0
LINE
8
BLACK
6
CONTINUOUS
10
0.342489
20
76.5957
11
0.243035
21
76.809
0
LINE
8
BLACK
6
CONTINUOUS
10
0.243035
20
76.809
11
0.108057
21
77.0017
0
LINE
8
BLACK
6
CONTINUOUS
10
0.108057
20
77.0017
11
-0.058345
21
77.1681
0
LINE
8
BLACK
6
CONTINUOUS
10
-0.058345
20
77.1681
11
-0.251114
21
77.3031
0
LINE
8
BLACK
6
CONTINUOUS
10
-0.251114
20
77.3031
11
-0.464393
21
77.4026
0
LINE
8
BLACK
6
CONTINUOUS
10
-0.464393
20
77.4026
11
-0.691702
21
77.4635
0
LINE
8
BLACK
6
CONTINUOUS
10
-0.691702
20
77.4635
11
-0.926134
21
77.484
0
LINE
8
BLACK
6
CONTINUOUS
10
-0.926134
20
77.484
11
-1.16057
21
77.4635
0
LINE
8
BLACK
6
CONTINUOUS
10
-1.16057
20
77.4635
11
-1.38787
21
77.4026
0
LINE
8
BLACK
6
CONTINUOUS
10
-1.38787
20
77.4026
11
-1.60115
21
77.3031
0
LINE
8
BLACK
6
CONTINUOUS
10
-1.60115
20
77.3031
11
-1.79392
21
77.1681
0
LINE
8
BLACK
6
CONTINUOUS
10
-1.79392
20
77.1681
11
-1.96032
21
77.0017
0
LINE
8
BLACK
6
CONTINUOUS
10
-1.96032
20
77.0017
11
-2.0953
21
76.809
0
LINE
8
BLACK
6
CONTINUOUS
10
-2.0953
20
76.809
11
-2.19476
21
76.5957
0
LINE
8
BLACK
6
CONTINUOUS
10
-2.19476
20
76.5957
11
-2.25566
21
76.3684
0
LINE
8
BLACK
6
CONTINUOUS
10
-2.25566
20
76.3684
11
-2.27617
21
76.134
0
LINE
8
BLACK
6
CONTINUOUS
10
-2.27617
20
76.134
11
-2.25566
21
75.8995
0
LINE
8
BLACK
6
CONTINUOUS
10
-2.25566
20
75.8995
11
-2.19476
21
75.6722
  0
ENDSEC
  0
EOF
