  0
SECTION
  2
HEADER
  9
$ANGBASE
  50
0.0
  9
$ANGDIR
  70
1
  9
$MEASUREMENT
  70
1
  0
ENDSEC
  0
SECTION
  2
TABLES
  0
TABLE
  2
LTYPE
  70
4
  0
LTYPE
  5
40F
  2
CONTINUOUS
  70
0
  3
Solid line
  72
65
  73
0
  40
0.0
  0
LTYPE
  5
410
  2
DASHDOT
 70
0
  3
Dash Dot ____ _ ____ _
 72
65
 73
4
 40
2.0
 49
1.25
 49
-0.25
 49
0.25
 49
-0.25
  0
LTYPE
  5
411
  2
DASHED
 70
0
  3
Dashed __ __ __ __ __
 72
65
 73
2
 40
0.75
 49
0.5
 49
-0.25
  0
LTYPE
  5
43B
  2
DOTTED
 70
0
  3
Dotted .  .  .  .
 72
65
 73
2
 40
0.2
 49
0.0
 49
-0.2
  0
ENDTAB
  0
TABLE
  2
STYLE
  70
4
  0
STYLE
  2
KICAD
  70
0
  40
0
  41
1
  42
1
  50
0
  71
0
  3
isocp.shx
  0
STYLE
  2
KICADB
  70
0
  40
0
  41
1
  42
1
  50
0
  71
0
  3
isocp.shx
  0
STYLE
  2
KICADI
  70
0
  40
0
  41
1
  42
1
  50
15
  71
0
  3
isocp.shx
  0
STYLE
  2
KICADBI
  70
0
  40
0
  41
1
  42
1
  50
15
  71
0
  3
isocp.shx
  0
ENDTAB
  0
TABLE
  2
LAYER
  70
1
  0
LAYER
  2
BLACK
  70
0
  62
7
  6
CONTINUOUS
  0
ENDTAB
  0
ENDSEC
  0
SECTION
  2
ENTITIES
0
LINE
8
BLACK
6
CONTINUOUS
10
177.002
20
-166.007
11
177.002
21
-198.007
0
LINE
8
BLACK
6
CONTINUOUS
10
177.002
20
-198.007
11
285.002
21
-198.007
0
LINE
8
BLACK
6
CONTINUOUS
10
285.002
20
-198.007
11
285.002
21
-166.007
0
LINE
8
BLACK
6
CONTINUOUS
10
285.002
20
-166.007
11
177.002
21
-166.007
0
LINE
8
BLACK
6
CONTINUOUS
10
10
20
-10
11
10
21
-200.007
0
LINE
8
BLACK
6
CONTINUOUS
10
10
20
-200.007
11
287.002
21
-200.007
0
LINE
8
BLACK
6
CONTINUOUS
10
287.002
20
-200.007
11
287.002
21
-10
0
LINE
8
BLACK
6
CONTINUOUS
10
287.002
20
-10
11
10
21
-10
0
LINE
8
BLACK
6
CONTINUOUS
10
12
20
-12
11
12
21
-198.007
0
LINE
8
BLACK
6
CONTINUOUS
10
12
20
-198.007
11
285.002
21
-198.007
0
LINE
8
BLACK
6
CONTINUOUS
10
285.002
20
-198.007
11
285.002
21
-12
0
LINE
8
BLACK
6
CONTINUOUS
10
285.002
20
-12
11
12
21
-12
0
LINE
8
BLACK
6
CONTINUOUS
10
60
20
-12
11
60
21
-10
0
LINE
8
BLACK
6
CONTINUOUS
10
110
20
-12
11
110
21
-10
0
LINE
8
BLACK
6
CONTINUOUS
10
160
20
-12
11
160
21
-10
0
LINE
8
BLACK
6
CONTINUOUS
10
210
20
-12
11
210
21
-10
0
LINE
8
BLACK
6
CONTINUOUS
10
260
20
-12
11
260
21
-10
0
LINE
8
BLACK
6
CONTINUOUS
10
36.0655
20
-11.5881
11
35.3226
21
-11.5881
0
LINE
8
BLACK
6
CONTINUOUS
10
35.694
20
-11.5881
11
35.694
21
-10.2881
0
LINE
8
BLACK
6
CONTINUOUS
10
35.694
20
-10.2881
11
35.5702
21
-10.4738
0
LINE
8
BLACK
6
CONTINUOUS
10
35.5702
20
-10.4738
11
35.4464
21
-10.5976
0
LINE
8
BLACK
6
CONTINUOUS
10
35.4464
20
-10.5976
11
35.3226
21
-10.6595
0
LINE
8
BLACK
6
CONTINUOUS
10
85.3226
20
-10.4119
11
85.3845
21
-10.35
0
LINE
8
BLACK
6
CONTINUOUS
10
85.3845
20
-10.35
11
85.5083
21
-10.2881
0
LINE
8
BLACK
6
CONTINUOUS
10
85.5083
20
-10.2881
11
85.8179
21
-10.2881
0
LINE
8
BLACK
6
CONTINUOUS
10
85.8179
20
-10.2881
11
85.9417
21
-10.35
0
LINE
8
BLACK
6
CONTINUOUS
10
85.9417
20
-10.35
11
86.0036
21
-10.4119
0
LINE
8
BLACK
6
CONTINUOUS
10
86.0036
20
-10.4119
11
86.0655
21
-10.5357
0
LINE
8
BLACK
6
CONTINUOUS
10
86.0655
20
-10.5357
11
86.0655
21
-10.6595
0
LINE
8
BLACK
6
CONTINUOUS
10
86.0655
20
-10.6595
11
86.0036
21
-10.8452
0
LINE
8
BLACK
6
CONTINUOUS
10
86.0036
20
-10.8452
11
85.2607
21
-11.5881
0
LINE
8
BLACK
6
CONTINUOUS
10
85.2607
20
-11.5881
11
86.0655
21
-11.5881
0
LINE
8
BLACK
6
CONTINUOUS
10
135.261
20
-10.2881
11
136.065
21
-10.2881
0
LINE
8
BLACK
6
CONTINUOUS
10
136.065
20
-10.2881
11
135.632
21
-10.7833
0
LINE
8
BLACK
6
CONTINUOUS
10
135.632
20
-10.7833
11
135.818
21
-10.7833
0
LINE
8
BLACK
6
CONTINUOUS
10
135.818
20
-10.7833
11
135.942
21
-10.8452
0
LINE
8
BLACK
6
CONTINUOUS
10
135.942
20
-10.8452
11
136.004
21
-10.9071
0
LINE
8
BLACK
6
CONTINUOUS
10
136.004
20
-10.9071
11
136.065
21
-11.031
0
LINE
8
BLACK
6
CONTINUOUS
10
136.065
20
-11.031
11
136.065
21
-11.3405
0
LINE
8
BLACK
6
CONTINUOUS
10
136.065
20
-11.3405
11
136.004
21
-11.4643
0
LINE
8
BLACK
6
CONTINUOUS
10
136.004
20
-11.4643
11
135.942
21
-11.5262
0
LINE
8
BLACK
6
CONTINUOUS
10
135.942
20
-11.5262
11
135.818
21
-11.5881
0
LINE
8
BLACK
6
CONTINUOUS
10
135.818
20
-11.5881
11
135.446
21
-11.5881
0
LINE
8
BLACK
6
CONTINUOUS
10
135.446
20
-11.5881
11
135.323
21
-11.5262
0
LINE
8
BLACK
6
CONTINUOUS
10
135.323
20
-11.5262
11
135.261
21
-11.4643
0
LINE
8
BLACK
6
CONTINUOUS
10
185.942
20
-10.7214
11
185.942
21
-11.5881
0
LINE
8
BLACK
6
CONTINUOUS
10
185.632
20
-10.2262
11
185.323
21
-11.1548
0
LINE
8
BLACK
6
CONTINUOUS
10
185.323
20
-11.1548
11
186.127
21
-11.1548
0
LINE
8
BLACK
6
CONTINUOUS
10
236.004
20
-10.2881
11
235.385
21
-10.2881
0
LINE
8
BLACK
6
CONTINUOUS
10
235.385
20
-10.2881
11
235.323
21
-10.9071
0
LINE
8
BLACK
6
CONTINUOUS
10
235.323
20
-10.9071
11
235.385
21
-10.8452
0
LINE
8
BLACK
6
CONTINUOUS
10
235.385
20
-10.8452
11
235.508
21
-10.7833
0
LINE
8
BLACK
6
CONTINUOUS
10
235.508
20
-10.7833
11
235.818
21
-10.7833
0
LINE
8
BLACK
6
CONTINUOUS
10
235.818
20
-10.7833
11
235.942
21
-10.8452
0
LINE
8
BLACK
6
CONTINUOUS
10
235.942
20
-10.8452
11
236.004
21
-10.9071
0
LINE
8
BLACK
6
CONTINUOUS
10
236.004
20
-10.9071
11
236.065
21
-11.031
0
LINE
8
BLACK
6
CONTINUOUS
10
236.065
20
-11.031
11
236.065
21
-11.3405
0
LINE
8
BLACK
6
CONTINUOUS
10
236.065
20
-11.3405
11
236.004
21
-11.4643
0
LINE
8
BLACK
6
CONTINUOUS
10
236.004
20
-11.4643
11
235.942
21
-11.5262
0
LINE
8
BLACK
6
CONTINUOUS
10
235.942
20
-11.5262
11
235.818
21
-11.5881
0
LINE
8
BLACK
6
CONTINUOUS
10
235.818
20
-11.5881
11
235.508
21
-11.5881
0
LINE
8
BLACK
6
CONTINUOUS
10
235.508
20
-11.5881
11
235.385
21
-11.5262
0
LINE
8
BLACK
6
CONTINUOUS
10
235.385
20
-11.5262
11
235.323
21
-11.4643
0
LINE
8
BLACK
6
CONTINUOUS
10
285.942
20
-10.2881
11
285.694
21
-10.2881
0
LINE
8
BLACK
6
CONTINUOUS
10
285.694
20
-10.2881
11
285.57
21
-10.35
0
LINE
8
BLACK
6
CONTINUOUS
10
285.57
20
-10.35
11
285.508
21
-10.4119
0
LINE
8
BLACK
6
CONTINUOUS
10
285.508
20
-10.4119
11
285.385
21
-10.5976
0
LINE
8
BLACK
6
CONTINUOUS
10
285.385
20
-10.5976
11
285.323
21
-10.8452
0
LINE
8
BLACK
6
CONTINUOUS
10
285.323
20
-10.8452
11
285.323
21
-11.3405
0
LINE
8
BLACK
6
CONTINUOUS
10
285.323
20
-11.3405
11
285.385
21
-11.4643
0
LINE
8
BLACK
6
CONTINUOUS
10
285.385
20
-11.4643
11
285.446
21
-11.5262
0
LINE
8
BLACK
6
CONTINUOUS
10
285.446
20
-11.5262
11
285.57
21
-11.5881
0
LINE
8
BLACK
6
CONTINUOUS
10
285.57
20
-11.5881
11
285.818
21
-11.5881
0
LINE
8
BLACK
6
CONTINUOUS
10
285.818
20
-11.5881
11
285.942
21
-11.5262
0
LINE
8
BLACK
6
CONTINUOUS
10
285.942
20
-11.5262
11
286.004
21
-11.4643
0
LINE
8
BLACK
6
CONTINUOUS
10
286.004
20
-11.4643
11
286.065
21
-11.3405
0
LINE
8
BLACK
6
CONTINUOUS
10
286.065
20
-11.3405
11
286.065
21
-11.031
0
LINE
8
BLACK
6
CONTINUOUS
10
286.065
20
-11.031
11
286.004
21
-10.9071
0
LINE
8
BLACK
6
CONTINUOUS
10
286.004
20
-10.9071
11
285.942
21
-10.8452
0
LINE
8
BLACK
6
CONTINUOUS
10
285.942
20
-10.8452
11
285.818
21
-10.7833
0
LINE
8
BLACK
6
CONTINUOUS
10
285.818
20
-10.7833
11
285.57
21
-10.7833
0
LINE
8
BLACK
6
CONTINUOUS
10
285.57
20
-10.7833
11
285.446
21
-10.8452
0
LINE
8
BLACK
6
CONTINUOUS
10
285.446
20
-10.8452
11
285.385
21
-10.9071
0
LINE
8
BLACK
6
CONTINUOUS
10
285.385
20
-10.9071
11
285.323
21
-11.031
0
LINE
8
BLACK
6
CONTINUOUS
10
60
20
-198.007
11
60
21
-200.007
0
LINE
8
BLACK
6
CONTINUOUS
10
110
20
-198.007
11
110
21
-200.007
0
LINE
8
BLACK
6
CONTINUOUS
10
160
20
-198.007
11
160
21
-200.007
0
LINE
8
BLACK
6
CONTINUOUS
10
210
20
-198.007
11
210
21
-200.007
0
LINE
8
BLACK
6
CONTINUOUS
10
260
20
-198.007
11
260
21
-200.007
0
LINE
8
BLACK
6
CONTINUOUS
10
36.0655
20
-199.595
11
35.3226
21
-199.595
0
LINE
8
BLACK
6
CONTINUOUS
10
35.694
20
-199.595
11
35.694
21
-198.295
0
LINE
8
BLACK
6
CONTINUOUS
10
35.694
20
-198.295
11
35.5702
21
-198.481
0
LINE
8
BLACK
6
CONTINUOUS
10
35.5702
20
-198.481
11
35.4464
21
-198.605
0
LINE
8
BLACK
6
CONTINUOUS
10
35.4464
20
-198.605
11
35.3226
21
-198.667
0
LINE
8
BLACK
6
CONTINUOUS
10
85.3226
20
-198.419
11
85.3845
21
-198.357
0
LINE
8
BLACK
6
CONTINUOUS
10
85.3845
20
-198.357
11
85.5083
21
-198.295
0
LINE
8
BLACK
6
CONTINUOUS
10
85.5083
20
-198.295
11
85.8179
21
-198.295
0
LINE
8
BLACK
6
CONTINUOUS
10
85.8179
20
-198.295
11
85.9417
21
-198.357
0
LINE
8
BLACK
6
CONTINUOUS
10
85.9417
20
-198.357
11
86.0036
21
-198.419
0
LINE
8
BLACK
6
CONTINUOUS
10
86.0036
20
-198.419
11
86.0655
21
-198.543
0
LINE
8
BLACK
6
CONTINUOUS
10
86.0655
20
-198.543
11
86.0655
21
-198.667
0
LINE
8
BLACK
6
CONTINUOUS
10
86.0655
20
-198.667
11
86.0036
21
-198.852
0
LINE
8
BLACK
6
CONTINUOUS
10
86.0036
20
-198.852
11
85.2607
21
-199.595
0
LINE
8
BLACK
6
CONTINUOUS
10
85.2607
20
-199.595
11
86.0655
21
-199.595
0
LINE
8
BLACK
6
CONTINUOUS
10
135.261
20
-198.295
11
136.065
21
-198.295
0
LINE
8
BLACK
6
CONTINUOUS
10
136.065
20
-198.295
11
135.632
21
-198.791
0
LINE
8
BLACK
6
CONTINUOUS
10
135.632
20
-198.791
11
135.818
21
-198.791
0
LINE
8
BLACK
6
CONTINUOUS
10
135.818
20
-198.791
11
135.942
21
-198.852
0
LINE
8
BLACK
6
CONTINUOUS
10
135.942
20
-198.852
11
136.004
21
-198.914
0
LINE
8
BLACK
6
CONTINUOUS
10
136.004
20
-198.914
11
136.065
21
-199.038
0
LINE
8
BLACK
6
CONTINUOUS
10
136.065
20
-199.038
11
136.065
21
-199.348
0
LINE
8
BLACK
6
CONTINUOUS
10
136.065
20
-199.348
11
136.004
21
-199.471
0
LINE
8
BLACK
6
CONTINUOUS
10
136.004
20
-199.471
11
135.942
21
-199.533
0
LINE
8
BLACK
6
CONTINUOUS
10
135.942
20
-199.533
11
135.818
21
-199.595
0
LINE
8
BLACK
6
CONTINUOUS
10
135.818
20
-199.595
11
135.446
21
-199.595
0
LINE
8
BLACK
6
CONTINUOUS
10
135.446
20
-199.595
11
135.323
21
-199.533
0
LINE
8
BLACK
6
CONTINUOUS
10
135.323
20
-199.533
11
135.261
21
-199.471
0
LINE
8
BLACK
6
CONTINUOUS
10
185.942
20
-198.729
11
185.942
21
-199.595
0
LINE
8
BLACK
6
CONTINUOUS
10
185.632
20
-198.233
11
185.323
21
-199.162
0
LINE
8
BLACK
6
CONTINUOUS
10
185.323
20
-199.162
11
186.127
21
-199.162
0
LINE
8
BLACK
6
CONTINUOUS
10
236.004
20
-198.295
11
235.385
21
-198.295
0
LINE
8
BLACK
6
CONTINUOUS
10
235.385
20
-198.295
11
235.323
21
-198.914
0
LINE
8
BLACK
6
CONTINUOUS
10
235.323
20
-198.914
11
235.385
21
-198.852
0
LINE
8
BLACK
6
CONTINUOUS
10
235.385
20
-198.852
11
235.508
21
-198.791
0
LINE
8
BLACK
6
CONTINUOUS
10
235.508
20
-198.791
11
235.818
21
-198.791
0
LINE
8
BLACK
6
CONTINUOUS
10
235.818
20
-198.791
11
235.942
21
-198.852
0
LINE
8
BLACK
6
CONTINUOUS
10
235.942
20
-198.852
11
236.004
21
-198.914
0
LINE
8
BLACK
6
CONTINUOUS
10
236.004
20
-198.914
11
236.065
21
-199.038
0
LINE
8
BLACK
6
CONTINUOUS
10
236.065
20
-199.038
11
236.065
21
-199.348
0
LINE
8
BLACK
6
CONTINUOUS
10
236.065
20
-199.348
11
236.004
21
-199.471
0
LINE
8
BLACK
6
CONTINUOUS
10
236.004
20
-199.471
11
235.942
21
-199.533
0
LINE
8
BLACK
6
CONTINUOUS
10
235.942
20
-199.533
11
235.818
21
-199.595
0
LINE
8
BLACK
6
CONTINUOUS
10
235.818
20
-199.595
11
235.508
21
-199.595
0
LINE
8
BLACK
6
CONTINUOUS
10
235.508
20
-199.595
11
235.385
21
-199.533
0
LINE
8
BLACK
6
CONTINUOUS
10
235.385
20
-199.533
11
235.323
21
-199.471
0
LINE
8
BLACK
6
CONTINUOUS
10
285.942
20
-198.295
11
285.694
21
-198.295
0
LINE
8
BLACK
6
CONTINUOUS
10
285.694
20
-198.295
11
285.57
21
-198.357
0
LINE
8
BLACK
6
CONTINUOUS
10
285.57
20
-198.357
11
285.508
21
-198.419
0
LINE
8
BLACK
6
CONTINUOUS
10
285.508
20
-198.419
11
285.385
21
-198.605
0
LINE
8
BLACK
6
CONTINUOUS
10
285.385
20
-198.605
11
285.323
21
-198.852
0
LINE
8
BLACK
6
CONTINUOUS
10
285.323
20
-198.852
11
285.323
21
-199.348
0
LINE
8
BLACK
6
CONTINUOUS
10
285.323
20
-199.348
11
285.385
21
-199.471
0
LINE
8
BLACK
6
CONTINUOUS
10
285.385
20
-199.471
11
285.446
21
-199.533
0
LINE
8
BLACK
6
CONTINUOUS
10
285.446
20
-199.533
11
285.57
21
-199.595
0
LINE
8
BLACK
6
CONTINUOUS
10
285.57
20
-199.595
11
285.818
21
-199.595
0
LINE
8
BLACK
6
CONTINUOUS
10
285.818
20
-199.595
11
285.942
21
-199.533
0
LINE
8
BLACK
6
CONTINUOUS
10
285.942
20
-199.533
11
286.004
21
-199.471
0
LINE
8
BLACK
6
CONTINUOUS
10
286.004
20
-199.471
11
286.065
21
-199.348
0
LINE
8
BLACK
6
CONTINUOUS
10
286.065
20
-199.348
11
286.065
21
-199.038
0
LINE
8
BLACK
6
CONTINUOUS
10
286.065
20
-199.038
11
286.004
21
-198.914
0
LINE
8
BLACK
6
CONTINUOUS
10
286.004
20
-198.914
11
285.942
21
-198.852
0
LINE
8
BLACK
6
CONTINUOUS
10
285.942
20
-198.852
11
285.818
21
-198.791
0
LINE
8
BLACK
6
CONTINUOUS
10
285.818
20
-198.791
11
285.57
21
-198.791
0
LINE
8
BLACK
6
CONTINUOUS
10
285.57
20
-198.791
11
285.446
21
-198.852
0
LINE
8
BLACK
6
CONTINUOUS
10
285.446
20
-198.852
11
285.385
21
-198.914
0
LINE
8
BLACK
6
CONTINUOUS
10
285.385
20
-198.914
11
285.323
21
-199.038
0
LINE
8
BLACK
6
CONTINUOUS
10
10
20
-60
11
12
21
-60
0
LINE
8
BLACK
6
CONTINUOUS
10
10
20
-110
11
12
21
-110
0
LINE
8
BLACK
6
CONTINUOUS
10
10
20
-160
11
12
21
-160
0
LINE
8
BLACK
6
CONTINUOUS
10
10.6905
20
-35.2167
11
11.3095
21
-35.2167
0
LINE
8
BLACK
6
CONTINUOUS
10
10.5667
20
-35.5881
11
11
21
-34.2881
0
LINE
8
BLACK
6
CONTINUOUS
10
11
20
-34.2881
11
11.4333
21
-35.5881
0
LINE
8
BLACK
6
CONTINUOUS
10
11.0929
20
-84.9071
11
11.2786
21
-84.969
0
LINE
8
BLACK
6
CONTINUOUS
10
11.2786
20
-84.969
11
11.3405
21
-85.031
0
LINE
8
BLACK
6
CONTINUOUS
10
11.3405
20
-85.031
11
11.4024
21
-85.1548
0
LINE
8
BLACK
6
CONTINUOUS
10
11.4024
20
-85.1548
11
11.4024
21
-85.3405
0
LINE
8
BLACK
6
CONTINUOUS
10
11.4024
20
-85.3405
11
11.3405
21
-85.4643
0
LINE
8
BLACK
6
CONTINUOUS
10
11.3405
20
-85.4643
11
11.2786
21
-85.5262
0
LINE
8
BLACK
6
CONTINUOUS
10
11.2786
20
-85.5262
11
11.1548
21
-85.5881
0
LINE
8
BLACK
6
CONTINUOUS
10
11.1548
20
-85.5881
11
10.6595
21
-85.5881
0
LINE
8
BLACK
6
CONTINUOUS
10
10.6595
20
-85.5881
11
10.6595
21
-84.2881
0
LINE
8
BLACK
6
CONTINUOUS
10
10.6595
20
-84.2881
11
11.0929
21
-84.2881
0
LINE
8
BLACK
6
CONTINUOUS
10
11.0929
20
-84.2881
11
11.2167
21
-84.35
0
LINE
8
BLACK
6
CONTINUOUS
10
11.2167
20
-84.35
11
11.2786
21
-84.4119
0
LINE
8
BLACK
6
CONTINUOUS
10
11.2786
20
-84.4119
11
11.3405
21
-84.5357
0
LINE
8
BLACK
6
CONTINUOUS
10
11.3405
20
-84.5357
11
11.3405
21
-84.6595
0
LINE
8
BLACK
6
CONTINUOUS
10
11.3405
20
-84.6595
11
11.2786
21
-84.7833
0
LINE
8
BLACK
6
CONTINUOUS
10
11.2786
20
-84.7833
11
11.2167
21
-84.8452
0
LINE
8
BLACK
6
CONTINUOUS
10
11.2167
20
-84.8452
11
11.0929
21
-84.9071
0
LINE
8
BLACK
6
CONTINUOUS
10
11.0929
20
-84.9071
11
10.6595
21
-84.9071
0
LINE
8
BLACK
6
CONTINUOUS
10
11.4024
20
-135.464
11
11.3405
21
-135.526
0
LINE
8
BLACK
6
CONTINUOUS
10
11.3405
20
-135.526
11
11.1548
21
-135.588
0
LINE
8
BLACK
6
CONTINUOUS
10
11.1548
20
-135.588
11
11.031
21
-135.588
0
LINE
8
BLACK
6
CONTINUOUS
10
11.031
20
-135.588
11
10.8452
21
-135.526
0
LINE
8
BLACK
6
CONTINUOUS
10
10.8452
20
-135.526
11
10.7214
21
-135.402
0
LINE
8
BLACK
6
CONTINUOUS
10
10.7214
20
-135.402
11
10.6595
21
-135.279
0
LINE
8
BLACK
6
CONTINUOUS
10
10.6595
20
-135.279
11
10.5976
21
-135.031
0
LINE
8
BLACK
6
CONTINUOUS
10
10.5976
20
-135.031
11
10.5976
21
-134.845
0
LINE
8
BLACK
6
CONTINUOUS
10
10.5976
20
-134.845
11
10.6595
21
-134.598
0
LINE
8
BLACK
6
CONTINUOUS
10
10.6595
20
-134.598
11
10.7214
21
-134.474
0
LINE
8
BLACK
6
CONTINUOUS
10
10.7214
20
-134.474
11
10.8452
21
-134.35
0
LINE
8
BLACK
6
CONTINUOUS
10
10.8452
20
-134.35
11
11.031
21
-134.288
0
LINE
8
BLACK
6
CONTINUOUS
10
11.031
20
-134.288
11
11.1548
21
-134.288
0
LINE
8
BLACK
6
CONTINUOUS
10
11.1548
20
-134.288
11
11.3405
21
-134.35
0
LINE
8
BLACK
6
CONTINUOUS
10
11.3405
20
-134.35
11
11.4024
21
-134.412
0
LINE
8
BLACK
6
CONTINUOUS
10
10.6595
20
-185.588
11
10.6595
21
-184.288
0
LINE
8
BLACK
6
CONTINUOUS
10
10.6595
20
-184.288
11
10.969
21
-184.288
0
LINE
8
BLACK
6
CONTINUOUS
10
10.969
20
-184.288
11
11.1548
21
-184.35
0
LINE
8
BLACK
6
CONTINUOUS
10
11.1548
20
-184.35
11
11.2786
21
-184.474
0
LINE
8
BLACK
6
CONTINUOUS
10
11.2786
20
-184.474
11
11.3405
21
-184.598
0
LINE
8
BLACK
6
CONTINUOUS
10
11.3405
20
-184.598
11
11.4024
21
-184.845
0
LINE
8
BLACK
6
CONTINUOUS
10
11.4024
20
-184.845
11
11.4024
21
-185.031
0
LINE
8
BLACK
6
CONTINUOUS
10
11.4024
20
-185.031
11
11.3405
21
-185.279
0
LINE
8
BLACK
6
CONTINUOUS
10
11.3405
20
-185.279
11
11.2786
21
-185.402
0
LINE
8
BLACK
6
CONTINUOUS
10
11.2786
20
-185.402
11
11.1548
21
-185.526
0
LINE
8
BLACK
6
CONTINUOUS
10
11.1548
20
-185.526
11
10.969
21
-185.588
0
LINE
8
BLACK
6
CONTINUOUS
10
10.969
20
-185.588
11
10.6595
21
-185.588
0
LINE
8
BLACK
6
CONTINUOUS
10
287.002
20
-60
11
285.002
21
-60
0
LINE
8
BLACK
6
CONTINUOUS
10
287.002
20
-110
11
285.002
21
-110
0
LINE
8
BLACK
6
CONTINUOUS
10
287.002
20
-160
11
285.002
21
-160
0
LINE
8
BLACK
6
CONTINUOUS
10
285.693
20
-35.2167
11
286.312
21
-35.2167
0
LINE
8
BLACK
6
CONTINUOUS
10
285.569
20
-35.5881
11
286.002
21
-34.2881
0
LINE
8
BLACK
6
CONTINUOUS
10
286.002
20
-34.2881
11
286.436
21
-35.5881
0
LINE
8
BLACK
6
CONTINUOUS
10
286.095
20
-84.9071
11
286.281
21
-84.969
0
LINE
8
BLACK
6
CONTINUOUS
10
286.281
20
-84.969
11
286.343
21
-85.031
0
LINE
8
BLACK
6
CONTINUOUS
10
286.343
20
-85.031
11
286.405
21
-85.1548
0
LINE
8
BLACK
6
CONTINUOUS
10
286.405
20
-85.1548
11
286.405
21
-85.3405
0
LINE
8
BLACK
6
CONTINUOUS
10
286.405
20
-85.3405
11
286.343
21
-85.4643
0
LINE
8
BLACK
6
CONTINUOUS
10
286.343
20
-85.4643
11
286.281
21
-85.5262
0
LINE
8
BLACK
6
CONTINUOUS
10
286.281
20
-85.5262
11
286.157
21
-85.5881
0
LINE
8
BLACK
6
CONTINUOUS
10
286.157
20
-85.5881
11
285.662
21
-85.5881
0
LINE
8
BLACK
6
CONTINUOUS
10
285.662
20
-85.5881
11
285.662
21
-84.2881
0
LINE
8
BLACK
6
CONTINUOUS
10
285.662
20
-84.2881
11
286.095
21
-84.2881
0
LINE
8
BLACK
6
CONTINUOUS
10
286.095
20
-84.2881
11
286.219
21
-84.35
0
LINE
8
BLACK
6
CONTINUOUS
10
286.219
20
-84.35
11
286.281
21
-84.4119
0
LINE
8
BLACK
6
CONTINUOUS
10
286.281
20
-84.4119
11
286.343
21
-84.5357
0
LINE
8
BLACK
6
CONTINUOUS
10
286.343
20
-84.5357
11
286.343
21
-84.6595
0
LINE
8
BLACK
6
CONTINUOUS
10
286.343
20
-84.6595
11
286.281
21
-84.7833
0
LINE
8
BLACK
6
CONTINUOUS
10
286.281
20
-84.7833
11
286.219
21
-84.8452
0
LINE
8
BLACK
6
CONTINUOUS
10
286.219
20
-84.8452
11
286.095
21
-84.9071
0
LINE
8
BLACK
6
CONTINUOUS
10
286.095
20
-84.9071
11
285.662
21
-84.9071
0
LINE
8
BLACK
6
CONTINUOUS
10
286.405
20
-135.464
11
286.343
21
-135.526
0
LINE
8
BLACK
6
CONTINUOUS
10
286.343
20
-135.526
11
286.157
21
-135.588
0
LINE
8
BLACK
6
CONTINUOUS
10
286.157
20
-135.588
11
286.033
21
-135.588
0
LINE
8
BLACK
6
CONTINUOUS
10
286.033
20
-135.588
11
285.847
21
-135.526
0
LINE
8
BLACK
6
CONTINUOUS
10
285.847
20
-135.526
11
285.724
21
-135.402
0
LINE
8
BLACK
6
CONTINUOUS
10
285.724
20
-135.402
11
285.662
21
-135.279
0
LINE
8
BLACK
6
CONTINUOUS
10
285.662
20
-135.279
11
285.6
21
-135.031
0
LINE
8
BLACK
6
CONTINUOUS
10
285.6
20
-135.031
11
285.6
21
-134.845
0
LINE
8
BLACK
6
CONTINUOUS
10
285.6
20
-134.845
11
285.662
21
-134.598
0
LINE
8
BLACK
6
CONTINUOUS
10
285.662
20
-134.598
11
285.724
21
-134.474
0
LINE
8
BLACK
6
CONTINUOUS
10
285.724
20
-134.474
11
285.847
21
-134.35
0
LINE
8
BLACK
6
CONTINUOUS
10
285.847
20
-134.35
11
286.033
21
-134.288
0
LINE
8
BLACK
6
CONTINUOUS
10
286.033
20
-134.288
11
286.157
21
-134.288
0
LINE
8
BLACK
6
CONTINUOUS
10
286.157
20
-134.288
11
286.343
21
-134.35
0
LINE
8
BLACK
6
CONTINUOUS
10
286.343
20
-134.35
11
286.405
21
-134.412
0
LINE
8
BLACK
6
CONTINUOUS
10
285.662
20
-185.588
11
285.662
21
-184.288
0
LINE
8
BLACK
6
CONTINUOUS
10
285.662
20
-184.288
11
285.971
21
-184.288
0
LINE
8
BLACK
6
CONTINUOUS
10
285.971
20
-184.288
11
286.157
21
-184.35
0
LINE
8
BLACK
6
CONTINUOUS
10
286.157
20
-184.35
11
286.281
21
-184.474
0
LINE
8
BLACK
6
CONTINUOUS
10
286.281
20
-184.474
11
286.343
21
-184.598
0
LINE
8
BLACK
6
CONTINUOUS
10
286.343
20
-184.598
11
286.405
21
-184.845
0
LINE
8
BLACK
6
CONTINUOUS
10
286.405
20
-184.845
11
286.405
21
-185.031
0
LINE
8
BLACK
6
CONTINUOUS
10
286.405
20
-185.031
11
286.343
21
-185.279
0
LINE
8
BLACK
6
CONTINUOUS
10
286.343
20
-185.279
11
286.281
21
-185.402
0
LINE
8
BLACK
6
CONTINUOUS
10
286.281
20
-185.402
11
286.157
21
-185.526
0
LINE
8
BLACK
6
CONTINUOUS
10
286.157
20
-185.526
11
285.971
21
-185.588
0
LINE
8
BLACK
6
CONTINUOUS
10
285.971
20
-185.588
11
285.662
21
-185.588
0
LINE
8
BLACK
6
CONTINUOUS
10
200.434
20
-193.786
11
200.434
21
-192.286
0
LINE
8
BLACK
6
CONTINUOUS
10
200.434
20
-192.286
11
200.791
21
-192.286
0
LINE
8
BLACK
6
CONTINUOUS
10
200.791
20
-192.286
11
201.006
21
-192.357
0
LINE
8
BLACK
6
CONTINUOUS
10
201.006
20
-192.357
11
201.149
21
-192.5
0
LINE
8
BLACK
6
CONTINUOUS
10
201.149
20
-192.5
11
201.22
21
-192.643
0
LINE
8
BLACK
6
CONTINUOUS
10
201.22
20
-192.643
11
201.291
21
-192.929
0
LINE
8
BLACK
6
CONTINUOUS
10
201.291
20
-192.929
11
201.291
21
-193.143
0
LINE
8
BLACK
6
CONTINUOUS
10
201.291
20
-193.143
11
201.22
21
-193.429
0
LINE
8
BLACK
6
CONTINUOUS
10
201.22
20
-193.429
11
201.149
21
-193.571
0
LINE
8
BLACK
6
CONTINUOUS
10
201.149
20
-193.571
11
201.006
21
-193.714
0
LINE
8
BLACK
6
CONTINUOUS
10
201.006
20
-193.714
11
200.791
21
-193.786
0
LINE
8
BLACK
6
CONTINUOUS
10
200.791
20
-193.786
11
200.434
21
-193.786
0
LINE
8
BLACK
6
CONTINUOUS
10
202.577
20
-193.786
11
202.577
21
-193
0
LINE
8
BLACK
6
CONTINUOUS
10
202.577
20
-193
11
202.506
21
-192.857
0
LINE
8
BLACK
6
CONTINUOUS
10
202.506
20
-192.857
11
202.363
21
-192.786
0
LINE
8
BLACK
6
CONTINUOUS
10
202.363
20
-192.786
11
202.077
21
-192.786
0
LINE
8
BLACK
6
CONTINUOUS
10
202.077
20
-192.786
11
201.934
21
-192.857
0
LINE
8
BLACK
6
CONTINUOUS
10
202.577
20
-193.714
11
202.434
21
-193.786
0
LINE
8
BLACK
6
CONTINUOUS
10
202.434
20
-193.786
11
202.077
21
-193.786
0
LINE
8
BLACK
6
CONTINUOUS
10
202.077
20
-193.786
11
201.934
21
-193.714
0
LINE
8
BLACK
6
CONTINUOUS
10
201.934
20
-193.714
11
201.863
21
-193.571
0
LINE
8
BLACK
6
CONTINUOUS
10
201.863
20
-193.571
11
201.863
21
-193.429
0
LINE
8
BLACK
6
CONTINUOUS
10
201.863
20
-193.429
11
201.934
21
-193.286
0
LINE
8
BLACK
6
CONTINUOUS
10
201.934
20
-193.286
11
202.077
21
-193.214
0
LINE
8
BLACK
6
CONTINUOUS
10
202.077
20
-193.214
11
202.434
21
-193.214
0
LINE
8
BLACK
6
CONTINUOUS
10
202.434
20
-193.214
11
202.577
21
-193.143
0
LINE
8
BLACK
6
CONTINUOUS
10
203.077
20
-192.786
11
203.649
21
-192.786
0
LINE
8
BLACK
6
CONTINUOUS
10
203.291
20
-192.286
11
203.291
21
-193.571
0
LINE
8
BLACK
6
CONTINUOUS
10
203.291
20
-193.571
11
203.363
21
-193.714
0
LINE
8
BLACK
6
CONTINUOUS
10
203.363
20
-193.714
11
203.506
21
-193.786
0
LINE
8
BLACK
6
CONTINUOUS
10
203.506
20
-193.786
11
203.649
21
-193.786
0
LINE
8
BLACK
6
CONTINUOUS
10
204.72
20
-193.714
11
204.577
21
-193.786
0
LINE
8
BLACK
6
CONTINUOUS
10
204.577
20
-193.786
11
204.291
21
-193.786
0
LINE
8
BLACK
6
CONTINUOUS
10
204.291
20
-193.786
11
204.149
21
-193.714
0
LINE
8
BLACK
6
CONTINUOUS
10
204.149
20
-193.714
11
204.077
21
-193.571
0
LINE
8
BLACK
6
CONTINUOUS
10
204.077
20
-193.571
11
204.077
21
-193
0
LINE
8
BLACK
6
CONTINUOUS
10
204.077
20
-193
11
204.149
21
-192.857
0
LINE
8
BLACK
6
CONTINUOUS
10
204.149
20
-192.857
11
204.291
21
-192.786
0
LINE
8
BLACK
6
CONTINUOUS
10
204.291
20
-192.786
11
204.577
21
-192.786
0
LINE
8
BLACK
6
CONTINUOUS
10
204.577
20
-192.786
11
204.72
21
-192.857
0
LINE
8
BLACK
6
CONTINUOUS
10
204.72
20
-192.857
11
204.791
21
-193
0
LINE
8
BLACK
6
CONTINUOUS
10
204.791
20
-193
11
204.791
21
-193.143
0
LINE
8
BLACK
6
CONTINUOUS
10
204.791
20
-193.143
11
204.077
21
-193.286
0
LINE
8
BLACK
6
CONTINUOUS
10
205.434
20
-193.643
11
205.506
21
-193.714
0
LINE
8
BLACK
6
CONTINUOUS
10
205.506
20
-193.714
11
205.434
21
-193.786
0
LINE
8
BLACK
6
CONTINUOUS
10
205.434
20
-193.786
11
205.363
21
-193.714
0
LINE
8
BLACK
6
CONTINUOUS
10
205.363
20
-193.714
11
205.434
21
-193.643
0
LINE
8
BLACK
6
CONTINUOUS
10
205.434
20
-193.643
11
205.434
21
-193.786
0
LINE
8
BLACK
6
CONTINUOUS
10
205.434
20
-192.857
11
205.506
21
-192.929
0
LINE
8
BLACK
6
CONTINUOUS
10
205.506
20
-192.929
11
205.434
21
-193
0
LINE
8
BLACK
6
CONTINUOUS
10
205.434
20
-193
11
205.363
21
-192.929
0
LINE
8
BLACK
6
CONTINUOUS
10
205.363
20
-192.929
11
205.434
21
-192.857
0
LINE
8
BLACK
6
CONTINUOUS
10
205.434
20
-192.857
11
205.434
21
-193
0
LINE
8
BLACK
6
CONTINUOUS
10
207.22
20
-192.429
11
207.291
21
-192.357
0
LINE
8
BLACK
6
CONTINUOUS
10
207.291
20
-192.357
11
207.434
21
-192.286
0
LINE
8
BLACK
6
CONTINUOUS
10
207.434
20
-192.286
11
207.791
21
-192.286
0
LINE
8
BLACK
6
CONTINUOUS
10
207.791
20
-192.286
11
207.934
21
-192.357
0
LINE
8
BLACK
6
CONTINUOUS
10
207.934
20
-192.357
11
208.006
21
-192.429
0
LINE
8
BLACK
6
CONTINUOUS
10
208.006
20
-192.429
11
208.077
21
-192.571
0
LINE
8
BLACK
6
CONTINUOUS
10
208.077
20
-192.571
11
208.077
21
-192.714
0
LINE
8
BLACK
6
CONTINUOUS
10
208.077
20
-192.714
11
208.006
21
-192.929
0
LINE
8
BLACK
6
CONTINUOUS
10
208.006
20
-192.929
11
207.149
21
-193.786
0
LINE
8
BLACK
6
CONTINUOUS
10
207.149
20
-193.786
11
208.077
21
-193.786
0
LINE
8
BLACK
6
CONTINUOUS
10
209.006
20
-192.286
11
209.149
21
-192.286
0
LINE
8
BLACK
6
CONTINUOUS
10
209.149
20
-192.286
11
209.291
21
-192.357
0
LINE
8
BLACK
6
CONTINUOUS
10
209.291
20
-192.357
11
209.363
21
-192.429
0
LINE
8
BLACK
6
CONTINUOUS
10
209.363
20
-192.429
11
209.434
21
-192.571
0
LINE
8
BLACK
6
CONTINUOUS
10
209.434
20
-192.571
11
209.506
21
-192.857
0
LINE
8
BLACK
6
CONTINUOUS
10
209.506
20
-192.857
11
209.506
21
-193.214
0
LINE
8
BLACK
6
CONTINUOUS
10
209.506
20
-193.214
11
209.434
21
-193.5
0
LINE
8
BLACK
6
CONTINUOUS
10
209.434
20
-193.5
11
209.363
21
-193.643
0
LINE
8
BLACK
6
CONTINUOUS
10
209.363
20
-193.643
11
209.291
21
-193.714
0
LINE
8
BLACK
6
CONTINUOUS
10
209.291
20
-193.714
11
209.149
21
-193.786
0
LINE
8
BLACK
6
CONTINUOUS
10
209.149
20
-193.786
11
209.006
21
-193.786
0
LINE
8
BLACK
6
CONTINUOUS
10
209.006
20
-193.786
11
208.863
21
-193.714
0
LINE
8
BLACK
6
CONTINUOUS
10
208.863
20
-193.714
11
208.791
21
-193.643
0
LINE
8
BLACK
6
CONTINUOUS
10
208.791
20
-193.643
11
208.72
21
-193.5
0
LINE
8
BLACK
6
CONTINUOUS
10
208.72
20
-193.5
11
208.649
21
-193.214
0
LINE
8
BLACK
6
CONTINUOUS
10
208.649
20
-193.214
11
208.649
21
-192.857
0
LINE
8
BLACK
6
CONTINUOUS
10
208.649
20
-192.857
11
208.72
21
-192.571
0
LINE
8
BLACK
6
CONTINUOUS
10
208.72
20
-192.571
11
208.791
21
-192.429
0
LINE
8
BLACK
6
CONTINUOUS
10
208.791
20
-192.429
11
208.863
21
-192.357
0
LINE
8
BLACK
6
CONTINUOUS
10
208.863
20
-192.357
11
209.006
21
-192.286
0
LINE
8
BLACK
6
CONTINUOUS
10
210.077
20
-192.429
11
210.149
21
-192.357
0
LINE
8
BLACK
6
CONTINUOUS
10
210.149
20
-192.357
11
210.291
21
-192.286
0
LINE
8
BLACK
6
CONTINUOUS
10
210.291
20
-192.286
11
210.649
21
-192.286
0
LINE
8
BLACK
6
CONTINUOUS
10
210.649
20
-192.286
11
210.791
21
-192.357
0
LINE
8
BLACK
6
CONTINUOUS
10
210.791
20
-192.357
11
210.863
21
-192.429
0
LINE
8
BLACK
6
CONTINUOUS
10
210.863
20
-192.429
11
210.934
21
-192.571
0
LINE
8
BLACK
6
CONTINUOUS
10
210.934
20
-192.571
11
210.934
21
-192.714
0
LINE
8
BLACK
6
CONTINUOUS
10
210.934
20
-192.714
11
210.863
21
-192.929
0
LINE
8
BLACK
6
CONTINUOUS
10
210.863
20
-192.929
11
210.006
21
-193.786
0
LINE
8
BLACK
6
CONTINUOUS
10
210.006
20
-193.786
11
210.934
21
-193.786
0
LINE
8
BLACK
6
CONTINUOUS
10
211.506
20
-192.429
11
211.577
21
-192.357
0
LINE
8
BLACK
6
CONTINUOUS
10
211.577
20
-192.357
11
211.72
21
-192.286
0
LINE
8
BLACK
6
CONTINUOUS
10
211.72
20
-192.286
11
212.077
21
-192.286
0
LINE
8
BLACK
6
CONTINUOUS
10
212.077
20
-192.286
11
212.22
21
-192.357
0
LINE
8
BLACK
6
CONTINUOUS
10
212.22
20
-192.357
11
212.291
21
-192.429
0
LINE
8
BLACK
6
CONTINUOUS
10
212.291
20
-192.429
11
212.363
21
-192.571
0
LINE
8
BLACK
6
CONTINUOUS
10
212.363
20
-192.571
11
212.363
21
-192.714
0
LINE
8
BLACK
6
CONTINUOUS
10
212.363
20
-192.714
11
212.291
21
-192.929
0
LINE
8
BLACK
6
CONTINUOUS
10
212.291
20
-192.929
11
211.434
21
-193.786
0
LINE
8
BLACK
6
CONTINUOUS
10
211.434
20
-193.786
11
212.363
21
-193.786
0
LINE
8
BLACK
6
CONTINUOUS
10
213.006
20
-193.214
11
214.149
21
-193.214
0
LINE
8
BLACK
6
CONTINUOUS
10
215.149
20
-192.286
11
215.291
21
-192.286
0
LINE
8
BLACK
6
CONTINUOUS
10
215.291
20
-192.286
11
215.434
21
-192.357
0
LINE
8
BLACK
6
CONTINUOUS
10
215.434
20
-192.357
11
215.506
21
-192.429
0
LINE
8
BLACK
6
CONTINUOUS
10
215.506
20
-192.429
11
215.577
21
-192.571
0
LINE
8
BLACK
6
CONTINUOUS
10
215.577
20
-192.571
11
215.649
21
-192.857
0
LINE
8
BLACK
6
CONTINUOUS
10
215.649
20
-192.857
11
215.649
21
-193.214
0
LINE
8
BLACK
6
CONTINUOUS
10
215.649
20
-193.214
11
215.577
21
-193.5
0
LINE
8
BLACK
6
CONTINUOUS
10
215.577
20
-193.5
11
215.506
21
-193.643
0
LINE
8
BLACK
6
CONTINUOUS
10
215.506
20
-193.643
11
215.434
21
-193.714
0
LINE
8
BLACK
6
CONTINUOUS
10
215.434
20
-193.714
11
215.291
21
-193.786
0
LINE
8
BLACK
6
CONTINUOUS
10
215.291
20
-193.786
11
215.149
21
-193.786
0
LINE
8
BLACK
6
CONTINUOUS
10
215.149
20
-193.786
11
215.006
21
-193.714
0
LINE
8
BLACK
6
CONTINUOUS
10
215.006
20
-193.714
11
214.934
21
-193.643
0
LINE
8
BLACK
6
CONTINUOUS
10
214.934
20
-193.643
11
214.863
21
-193.5
0
LINE
8
BLACK
6
CONTINUOUS
10
214.863
20
-193.5
11
214.791
21
-193.214
0
LINE
8
BLACK
6
CONTINUOUS
10
214.791
20
-193.214
11
214.791
21
-192.857
0
LINE
8
BLACK
6
CONTINUOUS
10
214.791
20
-192.857
11
214.863
21
-192.571
0
LINE
8
BLACK
6
CONTINUOUS
10
214.863
20
-192.571
11
214.934
21
-192.429
0
LINE
8
BLACK
6
CONTINUOUS
10
214.934
20
-192.429
11
215.006
21
-192.357
0
LINE
8
BLACK
6
CONTINUOUS
10
215.006
20
-192.357
11
215.149
21
-192.286
0
LINE
8
BLACK
6
CONTINUOUS
10
217.006
20
-192.286
11
216.291
21
-192.286
0
LINE
8
BLACK
6
CONTINUOUS
10
216.291
20
-192.286
11
216.22
21
-193
0
LINE
8
BLACK
6
CONTINUOUS
10
216.22
20
-193
11
216.291
21
-192.929
0
LINE
8
BLACK
6
CONTINUOUS
10
216.291
20
-192.929
11
216.434
21
-192.857
0
LINE
8
BLACK
6
CONTINUOUS
10
216.434
20
-192.857
11
216.791
21
-192.857
0
LINE
8
BLACK
6
CONTINUOUS
10
216.791
20
-192.857
11
216.934
21
-192.929
0
LINE
8
BLACK
6
CONTINUOUS
10
216.934
20
-192.929
11
217.006
21
-193
0
LINE
8
BLACK
6
CONTINUOUS
10
217.006
20
-193
11
217.077
21
-193.143
0
LINE
8
BLACK
6
CONTINUOUS
10
217.077
20
-193.143
11
217.077
21
-193.5
0
LINE
8
BLACK
6
CONTINUOUS
10
217.077
20
-193.5
11
217.006
21
-193.643
0
LINE
8
BLACK
6
CONTINUOUS
10
217.006
20
-193.643
11
216.934
21
-193.714
0
LINE
8
BLACK
6
CONTINUOUS
10
216.934
20
-193.714
11
216.791
21
-193.786
0
LINE
8
BLACK
6
CONTINUOUS
10
216.791
20
-193.786
11
216.434
21
-193.786
0
LINE
8
BLACK
6
CONTINUOUS
10
216.434
20
-193.786
11
216.291
21
-193.714
0
LINE
8
BLACK
6
CONTINUOUS
10
216.291
20
-193.714
11
216.22
21
-193.643
0
LINE
8
BLACK
6
CONTINUOUS
10
217.72
20
-193.214
11
218.863
21
-193.214
0
LINE
8
BLACK
6
CONTINUOUS
10
219.863
20
-192.286
11
220.006
21
-192.286
0
LINE
8
BLACK
6
CONTINUOUS
10
220.006
20
-192.286
11
220.149
21
-192.357
0
LINE
8
BLACK
6
CONTINUOUS
10
220.149
20
-192.357
11
220.22
21
-192.429
0
LINE
8
BLACK
6
CONTINUOUS
10
220.22
20
-192.429
11
220.291
21
-192.571
0
LINE
8
BLACK
6
CONTINUOUS
10
220.291
20
-192.571
11
220.363
21
-192.857
0
LINE
8
BLACK
6
CONTINUOUS
10
220.363
20
-192.857
11
220.363
21
-193.214
0
LINE
8
BLACK
6
CONTINUOUS
10
220.363
20
-193.214
11
220.291
21
-193.5
0
LINE
8
BLACK
6
CONTINUOUS
10
220.291
20
-193.5
11
220.22
21
-193.643
0
LINE
8
BLACK
6
CONTINUOUS
10
220.22
20
-193.643
11
220.149
21
-193.714
0
LINE
8
BLACK
6
CONTINUOUS
10
220.149
20
-193.714
11
220.006
21
-193.786
0
LINE
8
BLACK
6
CONTINUOUS
10
220.006
20
-193.786
11
219.863
21
-193.786
0
LINE
8
BLACK
6
CONTINUOUS
10
219.863
20
-193.786
11
219.72
21
-193.714
0
LINE
8
BLACK
6
CONTINUOUS
10
219.72
20
-193.714
11
219.649
21
-193.643
0
LINE
8
BLACK
6
CONTINUOUS
10
219.649
20
-193.643
11
219.577
21
-193.5
0
LINE
8
BLACK
6
CONTINUOUS
10
219.577
20
-193.5
11
219.506
21
-193.214
0
LINE
8
BLACK
6
CONTINUOUS
10
219.506
20
-193.214
11
219.506
21
-192.857
0
LINE
8
BLACK
6
CONTINUOUS
10
219.506
20
-192.857
11
219.577
21
-192.571
0
LINE
8
BLACK
6
CONTINUOUS
10
219.577
20
-192.571
11
219.649
21
-192.429
0
LINE
8
BLACK
6
CONTINUOUS
10
219.649
20
-192.429
11
219.72
21
-192.357
0
LINE
8
BLACK
6
CONTINUOUS
10
219.72
20
-192.357
11
219.863
21
-192.286
0
LINE
8
BLACK
6
CONTINUOUS
10
220.863
20
-192.286
11
221.863
21
-192.286
0
LINE
8
BLACK
6
CONTINUOUS
10
221.863
20
-192.286
11
221.22
21
-193.786
0
LINE
8
BLACK
6
CONTINUOUS
10
177.002
20
-194.507
11
285.002
21
-194.507
0
LINE
8
BLACK
6
CONTINUOUS
10
178.434
20
-196.586
11
178.434
21
-195.086
0
LINE
8
BLACK
6
CONTINUOUS
10
179.291
20
-196.586
11
178.649
21
-195.729
0
LINE
8
BLACK
6
CONTINUOUS
10
179.291
20
-195.086
11
178.434
21
-195.943
0
LINE
8
BLACK
6
CONTINUOUS
10
179.934
20
-196.586
11
179.934
21
-195.586
0
LINE
8
BLACK
6
CONTINUOUS
10
179.934
20
-195.086
11
179.863
21
-195.157
0
LINE
8
BLACK
6
CONTINUOUS
10
179.863
20
-195.157
11
179.934
21
-195.229
0
LINE
8
BLACK
6
CONTINUOUS
10
179.934
20
-195.229
11
180.006
21
-195.157
0
LINE
8
BLACK
6
CONTINUOUS
10
180.006
20
-195.157
11
179.934
21
-195.086
0
LINE
8
BLACK
6
CONTINUOUS
10
179.934
20
-195.086
11
179.934
21
-195.229
0
LINE
8
BLACK
6
CONTINUOUS
10
181.506
20
-196.443
11
181.434
21
-196.514
0
LINE
8
BLACK
6
CONTINUOUS
10
181.434
20
-196.514
11
181.22
21
-196.586
0
LINE
8
BLACK
6
CONTINUOUS
10
181.22
20
-196.586
11
181.077
21
-196.586
0
LINE
8
BLACK
6
CONTINUOUS
10
181.077
20
-196.586
11
180.863
21
-196.514
0
LINE
8
BLACK
6
CONTINUOUS
10
180.863
20
-196.514
11
180.72
21
-196.371
0
LINE
8
BLACK
6
CONTINUOUS
10
180.72
20
-196.371
11
180.649
21
-196.229
0
LINE
8
BLACK
6
CONTINUOUS
10
180.649
20
-196.229
11
180.577
21
-195.943
0
LINE
8
BLACK
6
CONTINUOUS
10
180.577
20
-195.943
11
180.577
21
-195.729
0
LINE
8
BLACK
6
CONTINUOUS
10
180.577
20
-195.729
11
180.649
21
-195.443
0
LINE
8
BLACK
6
CONTINUOUS
10
180.649
20
-195.443
11
180.72
21
-195.3
0
LINE
8
BLACK
6
CONTINUOUS
10
180.72
20
-195.3
11
180.863
21
-195.157
0
LINE
8
BLACK
6
CONTINUOUS
10
180.863
20
-195.157
11
181.077
21
-195.086
0
LINE
8
BLACK
6
CONTINUOUS
10
181.077
20
-195.086
11
181.22
21
-195.086
0
LINE
8
BLACK
6
CONTINUOUS
10
181.22
20
-195.086
11
181.434
21
-195.157
0
LINE
8
BLACK
6
CONTINUOUS
10
181.434
20
-195.157
11
181.506
21
-195.229
0
LINE
8
BLACK
6
CONTINUOUS
10
182.791
20
-196.586
11
182.791
21
-195.8
0
LINE
8
BLACK
6
CONTINUOUS
10
182.791
20
-195.8
11
182.72
21
-195.657
0
LINE
8
BLACK
6
CONTINUOUS
10
182.72
20
-195.657
11
182.577
21
-195.586
0
LINE
8
BLACK
6
CONTINUOUS
10
182.577
20
-195.586
11
182.291
21
-195.586
0
LINE
8
BLACK
6
CONTINUOUS
10
182.291
20
-195.586
11
182.149
21
-195.657
0
LINE
8
BLACK
6
CONTINUOUS
10
182.791
20
-196.514
11
182.649
21
-196.586
0
LINE
8
BLACK
6
CONTINUOUS
10
182.649
20
-196.586
11
182.291
21
-196.586
0
LINE
8
BLACK
6
CONTINUOUS
10
182.291
20
-196.586
11
182.149
21
-196.514
0
LINE
8
BLACK
6
CONTINUOUS
10
182.149
20
-196.514
11
182.077
21
-196.371
0
LINE
8
BLACK
6
CONTINUOUS
10
182.077
20
-196.371
11
182.077
21
-196.229
0
LINE
8
BLACK
6
CONTINUOUS
10
182.077
20
-196.229
11
182.149
21
-196.086
0
LINE
8
BLACK
6
CONTINUOUS
10
182.149
20
-196.086
11
182.291
21
-196.014
0
LINE
8
BLACK
6
CONTINUOUS
10
182.291
20
-196.014
11
182.649
21
-196.014
0
LINE
8
BLACK
6
CONTINUOUS
10
182.649
20
-196.014
11
182.791
21
-195.943
0
LINE
8
BLACK
6
CONTINUOUS
10
184.149
20
-196.586
11
184.149
21
-195.086
0
LINE
8
BLACK
6
CONTINUOUS
10
184.149
20
-196.514
11
184.006
21
-196.586
0
LINE
8
BLACK
6
CONTINUOUS
10
184.006
20
-196.586
11
183.72
21
-196.586
0
LINE
8
BLACK
6
CONTINUOUS
10
183.72
20
-196.586
11
183.577
21
-196.514
0
LINE
8
BLACK
6
CONTINUOUS
10
183.577
20
-196.514
11
183.506
21
-196.443
0
LINE
8
BLACK
6
CONTINUOUS
10
183.506
20
-196.443
11
183.434
21
-196.3
0
LINE
8
BLACK
6
CONTINUOUS
10
183.434
20
-196.3
11
183.434
21
-195.871
0
LINE
8
BLACK
6
CONTINUOUS
10
183.434
20
-195.871
11
183.506
21
-195.729
0
LINE
8
BLACK
6
CONTINUOUS
10
183.506
20
-195.729
11
183.577
21
-195.657
0
LINE
8
BLACK
6
CONTINUOUS
10
183.577
20
-195.657
11
183.72
21
-195.586
0
LINE
8
BLACK
6
CONTINUOUS
10
183.72
20
-195.586
11
184.006
21
-195.586
0
LINE
8
BLACK
6
CONTINUOUS
10
184.006
20
-195.586
11
184.149
21
-195.657
0
LINE
8
BLACK
6
CONTINUOUS
10
186.006
20
-195.8
11
186.506
21
-195.8
0
LINE
8
BLACK
6
CONTINUOUS
10
186.72
20
-196.586
11
186.006
21
-196.586
0
LINE
8
BLACK
6
CONTINUOUS
10
186.006
20
-196.586
11
186.006
21
-195.086
0
LINE
8
BLACK
6
CONTINUOUS
10
186.006
20
-195.086
11
186.72
21
-195.086
0
LINE
8
BLACK
6
CONTINUOUS
10
187.363
20
-196.443
11
187.434
21
-196.514
0
LINE
8
BLACK
6
CONTINUOUS
10
187.434
20
-196.514
11
187.363
21
-196.586
0
LINE
8
BLACK
6
CONTINUOUS
10
187.363
20
-196.586
11
187.291
21
-196.514
0
LINE
8
BLACK
6
CONTINUOUS
10
187.291
20
-196.514
11
187.363
21
-196.443
0
LINE
8
BLACK
6
CONTINUOUS
10
187.363
20
-196.443
11
187.363
21
-196.586
0
LINE
8
BLACK
6
CONTINUOUS
10
188.077
20
-196.586
11
188.077
21
-195.086
0
LINE
8
BLACK
6
CONTINUOUS
10
188.077
20
-195.086
11
188.434
21
-195.086
0
LINE
8
BLACK
6
CONTINUOUS
10
188.434
20
-195.086
11
188.649
21
-195.157
0
LINE
8
BLACK
6
CONTINUOUS
10
188.649
20
-195.157
11
188.791
21
-195.3
0
LINE
8
BLACK
6
CONTINUOUS
10
188.791
20
-195.3
11
188.863
21
-195.443
0
LINE
8
BLACK
6
CONTINUOUS
10
188.863
20
-195.443
11
188.934
21
-195.729
0
LINE
8
BLACK
6
CONTINUOUS
10
188.934
20
-195.729
11
188.934
21
-195.943
0
LINE
8
BLACK
6
CONTINUOUS
10
188.934
20
-195.943
11
188.863
21
-196.229
0
LINE
8
BLACK
6
CONTINUOUS
10
188.863
20
-196.229
11
188.791
21
-196.371
0
LINE
8
BLACK
6
CONTINUOUS
10
188.791
20
-196.371
11
188.649
21
-196.514
0
LINE
8
BLACK
6
CONTINUOUS
10
188.649
20
-196.514
11
188.434
21
-196.586
0
LINE
8
BLACK
6
CONTINUOUS
10
188.434
20
-196.586
11
188.077
21
-196.586
0
LINE
8
BLACK
6
CONTINUOUS
10
189.577
20
-196.443
11
189.649
21
-196.514
0
LINE
8
BLACK
6
CONTINUOUS
10
189.649
20
-196.514
11
189.577
21
-196.586
0
LINE
8
BLACK
6
CONTINUOUS
10
189.577
20
-196.586
11
189.506
21
-196.514
0
LINE
8
BLACK
6
CONTINUOUS
10
189.506
20
-196.514
11
189.577
21
-196.443
0
LINE
8
BLACK
6
CONTINUOUS
10
189.577
20
-196.443
11
189.577
21
-196.586
0
LINE
8
BLACK
6
CONTINUOUS
10
190.22
20
-196.157
11
190.934
21
-196.157
0
LINE
8
BLACK
6
CONTINUOUS
10
190.077
20
-196.586
11
190.577
21
-195.086
0
LINE
8
BLACK
6
CONTINUOUS
10
190.577
20
-195.086
11
191.077
21
-196.586
0
LINE
8
BLACK
6
CONTINUOUS
10
191.577
20
-196.443
11
191.649
21
-196.514
0
LINE
8
BLACK
6
CONTINUOUS
10
191.649
20
-196.514
11
191.577
21
-196.586
0
LINE
8
BLACK
6
CONTINUOUS
10
191.577
20
-196.586
11
191.506
21
-196.514
0
LINE
8
BLACK
6
CONTINUOUS
10
191.506
20
-196.514
11
191.577
21
-196.443
0
LINE
8
BLACK
6
CONTINUOUS
10
191.577
20
-196.443
11
191.577
21
-196.586
0
LINE
8
BLACK
6
CONTINUOUS
10
194.577
20
-196.586
11
194.577
21
-195.086
0
LINE
8
BLACK
6
CONTINUOUS
10
194.72
20
-196.014
11
195.149
21
-196.586
0
LINE
8
BLACK
6
CONTINUOUS
10
195.149
20
-195.586
11
194.577
21
-196.157
0
LINE
8
BLACK
6
CONTINUOUS
10
195.791
20
-196.586
11
195.791
21
-195.586
0
LINE
8
BLACK
6
CONTINUOUS
10
195.791
20
-195.086
11
195.72
21
-195.157
0
LINE
8
BLACK
6
CONTINUOUS
10
195.72
20
-195.157
11
195.791
21
-195.229
0
LINE
8
BLACK
6
CONTINUOUS
10
195.791
20
-195.229
11
195.863
21
-195.157
0
LINE
8
BLACK
6
CONTINUOUS
10
195.863
20
-195.157
11
195.791
21
-195.086
0
LINE
8
BLACK
6
CONTINUOUS
10
195.791
20
-195.086
11
195.791
21
-195.229
0
LINE
8
BLACK
6
CONTINUOUS
10
197.149
20
-196.514
11
197.006
21
-196.586
0
LINE
8
BLACK
6
CONTINUOUS
10
197.006
20
-196.586
11
196.72
21
-196.586
0
LINE
8
BLACK
6
CONTINUOUS
10
196.72
20
-196.586
11
196.577
21
-196.514
0
LINE
8
BLACK
6
CONTINUOUS
10
196.577
20
-196.514
11
196.506
21
-196.443
0
LINE
8
BLACK
6
CONTINUOUS
10
196.506
20
-196.443
11
196.434
21
-196.3
0
LINE
8
BLACK
6
CONTINUOUS
10
196.434
20
-196.3
11
196.434
21
-195.871
0
LINE
8
BLACK
6
CONTINUOUS
10
196.434
20
-195.871
11
196.506
21
-195.729
0
LINE
8
BLACK
6
CONTINUOUS
10
196.506
20
-195.729
11
196.577
21
-195.657
0
LINE
8
BLACK
6
CONTINUOUS
10
196.577
20
-195.657
11
196.72
21
-195.586
0
LINE
8
BLACK
6
CONTINUOUS
10
196.72
20
-195.586
11
197.006
21
-195.586
0
LINE
8
BLACK
6
CONTINUOUS
10
197.006
20
-195.586
11
197.149
21
-195.657
0
LINE
8
BLACK
6
CONTINUOUS
10
198.434
20
-196.586
11
198.434
21
-195.8
0
LINE
8
BLACK
6
CONTINUOUS
10
198.434
20
-195.8
11
198.363
21
-195.657
0
LINE
8
BLACK
6
CONTINUOUS
10
198.363
20
-195.657
11
198.22
21
-195.586
0
LINE
8
BLACK
6
CONTINUOUS
10
198.22
20
-195.586
11
197.934
21
-195.586
0
LINE
8
BLACK
6
CONTINUOUS
10
197.934
20
-195.586
11
197.791
21
-195.657
0
LINE
8
BLACK
6
CONTINUOUS
10
198.434
20
-196.514
11
198.291
21
-196.586
0
LINE
8
BLACK
6
CONTINUOUS
10
198.291
20
-196.586
11
197.934
21
-196.586
0
LINE
8
BLACK
6
CONTINUOUS
10
197.934
20
-196.586
11
197.791
21
-196.514
0
LINE
8
BLACK
6
CONTINUOUS
10
197.791
20
-196.514
11
197.72
21
-196.371
0
LINE
8
BLACK
6
CONTINUOUS
10
197.72
20
-196.371
11
197.72
21
-196.229
0
LINE
8
BLACK
6
CONTINUOUS
10
197.72
20
-196.229
11
197.791
21
-196.086
0
LINE
8
BLACK
6
CONTINUOUS
10
197.791
20
-196.086
11
197.934
21
-196.014
0
LINE
8
BLACK
6
CONTINUOUS
10
197.934
20
-196.014
11
198.291
21
-196.014
0
LINE
8
BLACK
6
CONTINUOUS
10
198.291
20
-196.014
11
198.434
21
-195.943
0
LINE
8
BLACK
6
CONTINUOUS
10
199.791
20
-196.586
11
199.791
21
-195.086
0
LINE
8
BLACK
6
CONTINUOUS
10
199.791
20
-196.514
11
199.649
21
-196.586
0
LINE
8
BLACK
6
CONTINUOUS
10
199.649
20
-196.586
11
199.363
21
-196.586
0
LINE
8
BLACK
6
CONTINUOUS
10
199.363
20
-196.586
11
199.22
21
-196.514
0
LINE
8
BLACK
6
CONTINUOUS
10
199.22
20
-196.514
11
199.149
21
-196.443
0
LINE
8
BLACK
6
CONTINUOUS
10
199.149
20
-196.443
11
199.077
21
-196.3
0
LINE
8
BLACK
6
CONTINUOUS
10
199.077
20
-196.3
11
199.077
21
-195.871
0
LINE
8
BLACK
6
CONTINUOUS
10
199.077
20
-195.871
11
199.149
21
-195.729
0
LINE
8
BLACK
6
CONTINUOUS
10
199.149
20
-195.729
11
199.22
21
-195.657
0
LINE
8
BLACK
6
CONTINUOUS
10
199.22
20
-195.657
11
199.363
21
-195.586
0
LINE
8
BLACK
6
CONTINUOUS
10
199.363
20
-195.586
11
199.649
21
-195.586
0
LINE
8
BLACK
6
CONTINUOUS
10
199.649
20
-195.586
11
199.791
21
-195.657
0
LINE
8
BLACK
6
CONTINUOUS
10
202.077
20
-197.157
11
202.006
21
-197.086
0
LINE
8
BLACK
6
CONTINUOUS
10
202.006
20
-197.086
11
201.863
21
-196.871
0
LINE
8
BLACK
6
CONTINUOUS
10
201.863
20
-196.871
11
201.791
21
-196.729
0
LINE
8
BLACK
6
CONTINUOUS
10
201.791
20
-196.729
11
201.72
21
-196.514
0
LINE
8
BLACK
6
CONTINUOUS
10
201.72
20
-196.514
11
201.649
21
-196.157
0
LINE
8
BLACK
6
CONTINUOUS
10
201.649
20
-196.157
11
201.649
21
-195.871
0
LINE
8
BLACK
6
CONTINUOUS
10
201.649
20
-195.871
11
201.72
21
-195.514
0
LINE
8
BLACK
6
CONTINUOUS
10
201.72
20
-195.514
11
201.791
21
-195.3
0
LINE
8
BLACK
6
CONTINUOUS
10
201.791
20
-195.3
11
201.863
21
-195.157
0
LINE
8
BLACK
6
CONTINUOUS
10
201.863
20
-195.157
11
202.006
21
-194.943
0
LINE
8
BLACK
6
CONTINUOUS
10
202.006
20
-194.943
11
202.077
21
-194.871
0
LINE
8
BLACK
6
CONTINUOUS
10
203.291
20
-195.086
11
203.006
21
-195.086
0
LINE
8
BLACK
6
CONTINUOUS
10
203.006
20
-195.086
11
202.863
21
-195.157
0
LINE
8
BLACK
6
CONTINUOUS
10
202.863
20
-195.157
11
202.791
21
-195.229
0
LINE
8
BLACK
6
CONTINUOUS
10
202.791
20
-195.229
11
202.649
21
-195.443
0
LINE
8
BLACK
6
CONTINUOUS
10
202.649
20
-195.443
11
202.577
21
-195.729
0
LINE
8
BLACK
6
CONTINUOUS
10
202.577
20
-195.729
11
202.577
21
-196.3
0
LINE
8
BLACK
6
CONTINUOUS
10
202.577
20
-196.3
11
202.649
21
-196.443
0
LINE
8
BLACK
6
CONTINUOUS
10
202.649
20
-196.443
11
202.72
21
-196.514
0
LINE
8
BLACK
6
CONTINUOUS
10
202.72
20
-196.514
11
202.863
21
-196.586
0
LINE
8
BLACK
6
CONTINUOUS
10
202.863
20
-196.586
11
203.149
21
-196.586
0
LINE
8
BLACK
6
CONTINUOUS
10
203.149
20
-196.586
11
203.291
21
-196.514
0
LINE
8
BLACK
6
CONTINUOUS
10
203.291
20
-196.514
11
203.363
21
-196.443
0
LINE
8
BLACK
6
CONTINUOUS
10
203.363
20
-196.443
11
203.434
21
-196.3
0
LINE
8
BLACK
6
CONTINUOUS
10
203.434
20
-196.3
11
203.434
21
-195.943
0
LINE
8
BLACK
6
CONTINUOUS
10
203.434
20
-195.943
11
203.363
21
-195.8
0
LINE
8
BLACK
6
CONTINUOUS
10
203.363
20
-195.8
11
203.291
21
-195.729
0
LINE
8
BLACK
6
CONTINUOUS
10
203.291
20
-195.729
11
203.149
21
-195.657
0
LINE
8
BLACK
6
CONTINUOUS
10
203.149
20
-195.657
11
202.863
21
-195.657
0
LINE
8
BLACK
6
CONTINUOUS
10
202.863
20
-195.657
11
202.72
21
-195.729
0
LINE
8
BLACK
6
CONTINUOUS
10
202.72
20
-195.729
11
202.649
21
-195.8
0
LINE
8
BLACK
6
CONTINUOUS
10
202.649
20
-195.8
11
202.577
21
-195.943
0
LINE
8
BLACK
6
CONTINUOUS
10
204.077
20
-196.443
11
204.149
21
-196.514
0
LINE
8
BLACK
6
CONTINUOUS
10
204.149
20
-196.514
11
204.077
21
-196.586
0
LINE
8
BLACK
6
CONTINUOUS
10
204.077
20
-196.586
11
204.006
21
-196.514
0
LINE
8
BLACK
6
CONTINUOUS
10
204.006
20
-196.514
11
204.077
21
-196.443
0
LINE
8
BLACK
6
CONTINUOUS
10
204.077
20
-196.443
11
204.077
21
-196.586
0
LINE
8
BLACK
6
CONTINUOUS
10
205.077
20
-195.086
11
205.22
21
-195.086
0
LINE
8
BLACK
6
CONTINUOUS
10
205.22
20
-195.086
11
205.363
21
-195.157
0
LINE
8
BLACK
6
CONTINUOUS
10
205.363
20
-195.157
11
205.434
21
-195.229
0
LINE
8
BLACK
6
CONTINUOUS
10
205.434
20
-195.229
11
205.506
21
-195.371
0
LINE
8
BLACK
6
CONTINUOUS
10
205.506
20
-195.371
11
205.577
21
-195.657
0
LINE
8
BLACK
6
CONTINUOUS
10
205.577
20
-195.657
11
205.577
21
-196.014
0
LINE
8
BLACK
6
CONTINUOUS
10
205.577
20
-196.014
11
205.506
21
-196.3
0
LINE
8
BLACK
6
CONTINUOUS
10
205.506
20
-196.3
11
205.434
21
-196.443
0
LINE
8
BLACK
6
CONTINUOUS
10
205.434
20
-196.443
11
205.363
21
-196.514
0
LINE
8
BLACK
6
CONTINUOUS
10
205.363
20
-196.514
11
205.22
21
-196.586
0
LINE
8
BLACK
6
CONTINUOUS
10
205.22
20
-196.586
11
205.077
21
-196.586
0
LINE
8
BLACK
6
CONTINUOUS
10
205.077
20
-196.586
11
204.934
21
-196.514
0
LINE
8
BLACK
6
CONTINUOUS
10
204.934
20
-196.514
11
204.863
21
-196.443
0
LINE
8
BLACK
6
CONTINUOUS
10
204.863
20
-196.443
11
204.791
21
-196.3
0
LINE
8
BLACK
6
CONTINUOUS
10
204.791
20
-196.3
11
204.72
21
-196.014
0
LINE
8
BLACK
6
CONTINUOUS
10
204.72
20
-196.014
11
204.72
21
-195.657
0
LINE
8
BLACK
6
CONTINUOUS
10
204.72
20
-195.657
11
204.791
21
-195.371
0
LINE
8
BLACK
6
CONTINUOUS
10
204.791
20
-195.371
11
204.863
21
-195.229
0
LINE
8
BLACK
6
CONTINUOUS
10
204.863
20
-195.229
11
204.934
21
-195.157
0
LINE
8
BLACK
6
CONTINUOUS
10
204.934
20
-195.157
11
205.077
21
-195.086
0
LINE
8
BLACK
6
CONTINUOUS
10
206.22
20
-196.443
11
206.291
21
-196.514
0
LINE
8
BLACK
6
CONTINUOUS
10
206.291
20
-196.514
11
206.22
21
-196.586
0
LINE
8
BLACK
6
CONTINUOUS
10
206.22
20
-196.586
11
206.149
21
-196.514
0
LINE
8
BLACK
6
CONTINUOUS
10
206.149
20
-196.514
11
206.22
21
-196.443
0
LINE
8
BLACK
6
CONTINUOUS
10
206.22
20
-196.443
11
206.22
21
-196.586
0
LINE
8
BLACK
6
CONTINUOUS
10
207.577
20
-195.586
11
207.577
21
-196.586
0
LINE
8
BLACK
6
CONTINUOUS
10
207.22
20
-195.014
11
206.863
21
-196.086
0
LINE
8
BLACK
6
CONTINUOUS
10
206.863
20
-196.086
11
207.791
21
-196.086
0
LINE
8
BLACK
6
CONTINUOUS
10
208.22
20
-197.157
11
208.291
21
-197.086
0
LINE
8
BLACK
6
CONTINUOUS
10
208.291
20
-197.086
11
208.434
21
-196.871
0
LINE
8
BLACK
6
CONTINUOUS
10
208.434
20
-196.871
11
208.506
21
-196.729
0
LINE
8
BLACK
6
CONTINUOUS
10
208.506
20
-196.729
11
208.577
21
-196.514
0
LINE
8
BLACK
6
CONTINUOUS
10
208.577
20
-196.514
11
208.649
21
-196.157
0
LINE
8
BLACK
6
CONTINUOUS
10
208.649
20
-196.157
11
208.649
21
-195.871
0
LINE
8
BLACK
6
CONTINUOUS
10
208.649
20
-195.871
11
208.577
21
-195.514
0
LINE
8
BLACK
6
CONTINUOUS
10
208.577
20
-195.514
11
208.506
21
-195.3
0
LINE
8
BLACK
6
CONTINUOUS
10
208.506
20
-195.3
11
208.434
21
-195.157
0
LINE
8
BLACK
6
CONTINUOUS
10
208.434
20
-195.157
11
208.291
21
-194.943
0
LINE
8
BLACK
6
CONTINUOUS
10
208.291
20
-194.943
11
208.22
21
-194.871
0
LINE
8
BLACK
6
CONTINUOUS
10
177.002
20
-191.507
11
285.002
21
-191.507
0
LINE
8
BLACK
6
CONTINUOUS
10
264.411
20
-193.786
11
263.911
21
-193.071
0
LINE
8
BLACK
6
CONTINUOUS
10
263.554
20
-193.786
11
263.554
21
-192.286
0
LINE
8
BLACK
6
CONTINUOUS
10
263.554
20
-192.286
11
264.126
21
-192.286
0
LINE
8
BLACK
6
CONTINUOUS
10
264.126
20
-192.286
11
264.269
21
-192.357
0
LINE
8
BLACK
6
CONTINUOUS
10
264.269
20
-192.357
11
264.34
21
-192.429
0
LINE
8
BLACK
6
CONTINUOUS
10
264.34
20
-192.429
11
264.411
21
-192.571
0
LINE
8
BLACK
6
CONTINUOUS
10
264.411
20
-192.571
11
264.411
21
-192.786
0
LINE
8
BLACK
6
CONTINUOUS
10
264.411
20
-192.786
11
264.34
21
-192.929
0
LINE
8
BLACK
6
CONTINUOUS
10
264.34
20
-192.929
11
264.269
21
-193
0
LINE
8
BLACK
6
CONTINUOUS
10
264.269
20
-193
11
264.126
21
-193.071
0
LINE
8
BLACK
6
CONTINUOUS
10
264.126
20
-193.071
11
263.554
21
-193.071
0
LINE
8
BLACK
6
CONTINUOUS
10
265.626
20
-193.714
11
265.483
21
-193.786
0
LINE
8
BLACK
6
CONTINUOUS
10
265.483
20
-193.786
11
265.197
21
-193.786
0
LINE
8
BLACK
6
CONTINUOUS
10
265.197
20
-193.786
11
265.054
21
-193.714
0
LINE
8
BLACK
6
CONTINUOUS
10
265.054
20
-193.714
11
264.983
21
-193.571
0
LINE
8
BLACK
6
CONTINUOUS
10
264.983
20
-193.571
11
264.983
21
-193
0
LINE
8
BLACK
6
CONTINUOUS
10
264.983
20
-193
11
265.054
21
-192.857
0
LINE
8
BLACK
6
CONTINUOUS
10
265.054
20
-192.857
11
265.197
21
-192.786
0
LINE
8
BLACK
6
CONTINUOUS
10
265.197
20
-192.786
11
265.483
21
-192.786
0
LINE
8
BLACK
6
CONTINUOUS
10
265.483
20
-192.786
11
265.626
21
-192.857
0
LINE
8
BLACK
6
CONTINUOUS
10
265.626
20
-192.857
11
265.697
21
-193
0
LINE
8
BLACK
6
CONTINUOUS
10
265.697
20
-193
11
265.697
21
-193.143
0
LINE
8
BLACK
6
CONTINUOUS
10
265.697
20
-193.143
11
264.983
21
-193.286
0
LINE
8
BLACK
6
CONTINUOUS
10
266.197
20
-192.786
11
266.554
21
-193.786
0
LINE
8
BLACK
6
CONTINUOUS
10
266.554
20
-193.786
11
266.911
21
-192.786
0
LINE
8
BLACK
6
CONTINUOUS
10
267.483
20
-193.643
11
267.554
21
-193.714
0
LINE
8
BLACK
6
CONTINUOUS
10
267.554
20
-193.714
11
267.483
21
-193.786
0
LINE
8
BLACK
6
CONTINUOUS
10
267.483
20
-193.786
11
267.411
21
-193.714
0
LINE
8
BLACK
6
CONTINUOUS
10
267.411
20
-193.714
11
267.483
21
-193.643
0
LINE
8
BLACK
6
CONTINUOUS
10
267.483
20
-193.643
11
267.483
21
-193.786
0
LINE
8
BLACK
6
CONTINUOUS
10
267.483
20
-192.857
11
267.554
21
-192.929
0
LINE
8
BLACK
6
CONTINUOUS
10
267.554
20
-192.929
11
267.483
21
-193
0
LINE
8
BLACK
6
CONTINUOUS
10
267.483
20
-193
11
267.411
21
-192.929
0
LINE
8
BLACK
6
CONTINUOUS
10
267.411
20
-192.929
11
267.483
21
-192.857
0
LINE
8
BLACK
6
CONTINUOUS
10
267.483
20
-192.857
11
267.483
21
-193
0
LINE
8
BLACK
6
CONTINUOUS
10
269.269
20
-192.429
11
269.34
21
-192.357
0
LINE
8
BLACK
6
CONTINUOUS
10
269.34
20
-192.357
11
269.483
21
-192.286
0
LINE
8
BLACK
6
CONTINUOUS
10
269.483
20
-192.286
11
269.84
21
-192.286
0
LINE
8
BLACK
6
CONTINUOUS
10
269.84
20
-192.286
11
269.983
21
-192.357
0
LINE
8
BLACK
6
CONTINUOUS
10
269.983
20
-192.357
11
270.054
21
-192.429
0
LINE
8
BLACK
6
CONTINUOUS
10
270.054
20
-192.429
11
270.126
21
-192.571
0
LINE
8
BLACK
6
CONTINUOUS
10
270.126
20
-192.571
11
270.126
21
-192.714
0
LINE
8
BLACK
6
CONTINUOUS
10
270.126
20
-192.714
11
270.054
21
-192.929
0
LINE
8
BLACK
6
CONTINUOUS
10
270.054
20
-192.929
11
269.197
21
-193.786
0
LINE
8
BLACK
6
CONTINUOUS
10
269.197
20
-193.786
11
270.126
21
-193.786
0
LINE
8
BLACK
6
CONTINUOUS
10
270.769
20
-193.643
11
270.84
21
-193.714
0
LINE
8
BLACK
6
CONTINUOUS
10
270.84
20
-193.714
11
270.769
21
-193.786
0
LINE
8
BLACK
6
CONTINUOUS
10
270.769
20
-193.786
11
270.697
21
-193.714
0
LINE
8
BLACK
6
CONTINUOUS
10
270.697
20
-193.714
11
270.769
21
-193.643
0
LINE
8
BLACK
6
CONTINUOUS
10
270.769
20
-193.643
11
270.769
21
-193.786
0
LINE
8
BLACK
6
CONTINUOUS
10
272.269
20
-193.786
11
271.411
21
-193.786
0
LINE
8
BLACK
6
CONTINUOUS
10
271.84
20
-193.786
11
271.84
21
-192.286
0
LINE
8
BLACK
6
CONTINUOUS
10
271.84
20
-192.286
11
271.697
21
-192.5
0
LINE
8
BLACK
6
CONTINUOUS
10
271.697
20
-192.5
11
271.554
21
-192.643
0
LINE
8
BLACK
6
CONTINUOUS
10
271.554
20
-192.643
11
271.411
21
-192.714
0
LINE
8
BLACK
6
CONTINUOUS
10
178.363
20
-193.714
11
178.577
21
-193.786
0
LINE
8
BLACK
6
CONTINUOUS
10
178.577
20
-193.786
11
178.934
21
-193.786
0
LINE
8
BLACK
6
CONTINUOUS
10
178.934
20
-193.786
11
179.077
21
-193.714
0
LINE
8
BLACK
6
CONTINUOUS
10
179.077
20
-193.714
11
179.149
21
-193.643
0
LINE
8
BLACK
6
CONTINUOUS
10
179.149
20
-193.643
11
179.22
21
-193.5
0
LINE
8
BLACK
6
CONTINUOUS
10
179.22
20
-193.5
11
179.22
21
-193.357
0
LINE
8
BLACK
6
CONTINUOUS
10
179.22
20
-193.357
11
179.149
21
-193.214
0
LINE
8
BLACK
6
CONTINUOUS
10
179.149
20
-193.214
11
179.077
21
-193.143
0
LINE
8
BLACK
6
CONTINUOUS
10
179.077
20
-193.143
11
178.934
21
-193.071
0
LINE
8
BLACK
6
CONTINUOUS
10
178.934
20
-193.071
11
178.649
21
-193
0
LINE
8
BLACK
6
CONTINUOUS
10
178.649
20
-193
11
178.506
21
-192.929
0
LINE
8
BLACK
6
CONTINUOUS
10
178.506
20
-192.929
11
178.434
21
-192.857
0
LINE
8
BLACK
6
CONTINUOUS
10
178.434
20
-192.857
11
178.363
21
-192.714
0
LINE
8
BLACK
6
CONTINUOUS
10
178.363
20
-192.714
11
178.363
21
-192.571
0
LINE
8
BLACK
6
CONTINUOUS
10
178.363
20
-192.571
11
178.434
21
-192.429
0
LINE
8
BLACK
6
CONTINUOUS
10
178.434
20
-192.429
11
178.506
21
-192.357
0
LINE
8
BLACK
6
CONTINUOUS
10
178.506
20
-192.357
11
178.649
21
-192.286
0
LINE
8
BLACK
6
CONTINUOUS
10
178.649
20
-192.286
11
179.006
21
-192.286
0
LINE
8
BLACK
6
CONTINUOUS
10
179.006
20
-192.286
11
179.22
21
-192.357
0
LINE
8
BLACK
6
CONTINUOUS
10
179.863
20
-193.786
11
179.863
21
-192.786
0
LINE
8
BLACK
6
CONTINUOUS
10
179.863
20
-192.286
11
179.791
21
-192.357
0
LINE
8
BLACK
6
CONTINUOUS
10
179.791
20
-192.357
11
179.863
21
-192.429
0
LINE
8
BLACK
6
CONTINUOUS
10
179.863
20
-192.429
11
179.934
21
-192.357
0
LINE
8
BLACK
6
CONTINUOUS
10
179.934
20
-192.357
11
179.863
21
-192.286
0
LINE
8
BLACK
6
CONTINUOUS
10
179.863
20
-192.286
11
179.863
21
-192.429
0
LINE
8
BLACK
6
CONTINUOUS
10
180.434
20
-192.786
11
181.22
21
-192.786
0
LINE
8
BLACK
6
CONTINUOUS
10
181.22
20
-192.786
11
180.434
21
-193.786
0
LINE
8
BLACK
6
CONTINUOUS
10
180.434
20
-193.786
11
181.22
21
-193.786
0
LINE
8
BLACK
6
CONTINUOUS
10
182.363
20
-193.714
11
182.22
21
-193.786
0
LINE
8
BLACK
6
CONTINUOUS
10
182.22
20
-193.786
11
181.934
21
-193.786
0
LINE
8
BLACK
6
CONTINUOUS
10
181.934
20
-193.786
11
181.791
21
-193.714
0
LINE
8
BLACK
6
CONTINUOUS
10
181.791
20
-193.714
11
181.72
21
-193.571
0
LINE
8
BLACK
6
CONTINUOUS
10
181.72
20
-193.571
11
181.72
21
-193
0
LINE
8
BLACK
6
CONTINUOUS
10
181.72
20
-193
11
181.791
21
-192.857
0
LINE
8
BLACK
6
CONTINUOUS
10
181.791
20
-192.857
11
181.934
21
-192.786
0
LINE
8
BLACK
6
CONTINUOUS
10
181.934
20
-192.786
11
182.22
21
-192.786
0
LINE
8
BLACK
6
CONTINUOUS
10
182.22
20
-192.786
11
182.363
21
-192.857
0
LINE
8
BLACK
6
CONTINUOUS
10
182.363
20
-192.857
11
182.434
21
-193
0
LINE
8
BLACK
6
CONTINUOUS
10
182.434
20
-193
11
182.434
21
-193.143
0
LINE
8
BLACK
6
CONTINUOUS
10
182.434
20
-193.143
11
181.72
21
-193.286
0
LINE
8
BLACK
6
CONTINUOUS
10
183.077
20
-193.643
11
183.149
21
-193.714
0
LINE
8
BLACK
6
CONTINUOUS
10
183.149
20
-193.714
11
183.077
21
-193.786
0
LINE
8
BLACK
6
CONTINUOUS
10
183.077
20
-193.786
11
183.006
21
-193.714
0
LINE
8
BLACK
6
CONTINUOUS
10
183.006
20
-193.714
11
183.077
21
-193.643
0
LINE
8
BLACK
6
CONTINUOUS
10
183.077
20
-193.643
11
183.077
21
-193.786
0
LINE
8
BLACK
6
CONTINUOUS
10
183.077
20
-192.857
11
183.149
21
-192.929
0
LINE
8
BLACK
6
CONTINUOUS
10
183.149
20
-192.929
11
183.077
21
-193
0
LINE
8
BLACK
6
CONTINUOUS
10
183.077
20
-193
11
183.006
21
-192.929
0
LINE
8
BLACK
6
CONTINUOUS
10
183.006
20
-192.929
11
183.077
21
-192.857
0
LINE
8
BLACK
6
CONTINUOUS
10
183.077
20
-192.857
11
183.077
21
-193
0
LINE
8
BLACK
6
CONTINUOUS
10
184.863
20
-193.357
11
185.577
21
-193.357
0
LINE
8
BLACK
6
CONTINUOUS
10
184.72
20
-193.786
11
185.22
21
-192.286
0
LINE
8
BLACK
6
CONTINUOUS
10
185.22
20
-192.286
11
185.72
21
-193.786
0
LINE
8
BLACK
6
CONTINUOUS
10
186.863
20
-192.786
11
186.863
21
-193.786
0
LINE
8
BLACK
6
CONTINUOUS
10
186.506
20
-192.214
11
186.149
21
-193.286
0
LINE
8
BLACK
6
CONTINUOUS
10
186.149
20
-193.286
11
187.077
21
-193.286
0
LINE
8
BLACK
6
CONTINUOUS
10
263.434
20
-196.586
11
263.434
21
-195.086
0
LINE
8
BLACK
6
CONTINUOUS
10
264.791
20
-196.586
11
264.791
21
-195.086
0
LINE
8
BLACK
6
CONTINUOUS
10
264.791
20
-196.514
11
264.649
21
-196.586
0
LINE
8
BLACK
6
CONTINUOUS
10
264.649
20
-196.586
11
264.363
21
-196.586
0
LINE
8
BLACK
6
CONTINUOUS
10
264.363
20
-196.586
11
264.22
21
-196.514
0
LINE
8
BLACK
6
CONTINUOUS
10
264.22
20
-196.514
11
264.149
21
-196.443
0
LINE
8
BLACK
6
CONTINUOUS
10
264.149
20
-196.443
11
264.077
21
-196.3
0
LINE
8
BLACK
6
CONTINUOUS
10
264.077
20
-196.3
11
264.077
21
-195.871
0
LINE
8
BLACK
6
CONTINUOUS
10
264.077
20
-195.871
11
264.149
21
-195.729
0
LINE
8
BLACK
6
CONTINUOUS
10
264.149
20
-195.729
11
264.22
21
-195.657
0
LINE
8
BLACK
6
CONTINUOUS
10
264.22
20
-195.657
11
264.363
21
-195.586
0
LINE
8
BLACK
6
CONTINUOUS
10
264.363
20
-195.586
11
264.649
21
-195.586
0
LINE
8
BLACK
6
CONTINUOUS
10
264.649
20
-195.586
11
264.791
21
-195.657
0
LINE
8
BLACK
6
CONTINUOUS
10
265.506
20
-196.443
11
265.577
21
-196.514
0
LINE
8
BLACK
6
CONTINUOUS
10
265.577
20
-196.514
11
265.506
21
-196.586
0
LINE
8
BLACK
6
CONTINUOUS
10
265.506
20
-196.586
11
265.434
21
-196.514
0
LINE
8
BLACK
6
CONTINUOUS
10
265.434
20
-196.514
11
265.506
21
-196.443
0
LINE
8
BLACK
6
CONTINUOUS
10
265.506
20
-196.443
11
265.506
21
-196.586
0
LINE
8
BLACK
6
CONTINUOUS
10
265.506
20
-195.657
11
265.577
21
-195.729
0
LINE
8
BLACK
6
CONTINUOUS
10
265.577
20
-195.729
11
265.506
21
-195.8
0
LINE
8
BLACK
6
CONTINUOUS
10
265.506
20
-195.8
11
265.434
21
-195.729
0
LINE
8
BLACK
6
CONTINUOUS
10
265.434
20
-195.729
11
265.506
21
-195.657
0
LINE
8
BLACK
6
CONTINUOUS
10
265.506
20
-195.657
11
265.506
21
-195.8
0
LINE
8
BLACK
6
CONTINUOUS
10
268.149
20
-196.586
11
267.291
21
-196.586
0
LINE
8
BLACK
6
CONTINUOUS
10
267.72
20
-196.586
11
267.72
21
-195.086
0
LINE
8
BLACK
6
CONTINUOUS
10
267.72
20
-195.086
11
267.577
21
-195.3
0
LINE
8
BLACK
6
CONTINUOUS
10
267.577
20
-195.3
11
267.434
21
-195.443
0
LINE
8
BLACK
6
CONTINUOUS
10
267.434
20
-195.443
11
267.291
21
-195.514
0
LINE
8
BLACK
6
CONTINUOUS
10
269.863
20
-195.014
11
268.577
21
-196.943
0
LINE
8
BLACK
6
CONTINUOUS
10
271.149
20
-196.586
11
270.291
21
-196.586
0
LINE
8
BLACK
6
CONTINUOUS
10
270.72
20
-196.586
11
270.72
21
-195.086
0
LINE
8
BLACK
6
CONTINUOUS
10
270.72
20
-195.086
11
270.577
21
-195.3
0
LINE
8
BLACK
6
CONTINUOUS
10
270.577
20
-195.3
11
270.434
21
-195.443
0
LINE
8
BLACK
6
CONTINUOUS
10
270.434
20
-195.443
11
270.291
21
-195.514
0
LINE
8
BLACK
6
CONTINUOUS
10
177.002
20
-187.507
11
285.002
21
-187.507
0
LINE
8
BLACK
6
CONTINUOUS
10
178.715
20
-188.212
11
179.857
21
-188.212
0
LINE
8
BLACK
6
CONTINUOUS
10
179.036
20
-190.212
11
179.286
21
-188.212
0
LINE
8
BLACK
6
CONTINUOUS
10
180.274
20
-190.212
11
180.441
21
-188.879
0
LINE
8
BLACK
6
CONTINUOUS
10
180.524
20
-188.212
11
180.417
21
-188.307
0
LINE
8
BLACK
6
CONTINUOUS
10
180.417
20
-188.307
11
180.5
21
-188.402
0
LINE
8
BLACK
6
CONTINUOUS
10
180.5
20
-188.402
11
180.607
21
-188.307
0
LINE
8
BLACK
6
CONTINUOUS
10
180.607
20
-188.307
11
180.524
21
-188.212
0
LINE
8
BLACK
6
CONTINUOUS
10
180.524
20
-188.212
11
180.5
21
-188.402
0
LINE
8
BLACK
6
CONTINUOUS
10
181.107
20
-188.879
11
181.869
21
-188.879
0
LINE
8
BLACK
6
CONTINUOUS
10
181.476
20
-188.212
11
181.262
21
-189.926
0
LINE
8
BLACK
6
CONTINUOUS
10
181.262
20
-189.926
11
181.334
21
-190.117
0
LINE
8
BLACK
6
CONTINUOUS
10
181.334
20
-190.117
11
181.512
21
-190.212
0
LINE
8
BLACK
6
CONTINUOUS
10
181.512
20
-190.212
11
181.703
21
-190.212
0
LINE
8
BLACK
6
CONTINUOUS
10
182.655
20
-190.212
11
182.476
21
-190.117
0
LINE
8
BLACK
6
CONTINUOUS
10
182.476
20
-190.117
11
182.405
21
-189.926
0
LINE
8
BLACK
6
CONTINUOUS
10
182.405
20
-189.926
11
182.619
21
-188.212
0
LINE
8
BLACK
6
CONTINUOUS
10
184.191
20
-190.117
11
183.988
21
-190.212
0
LINE
8
BLACK
6
CONTINUOUS
10
183.988
20
-190.212
11
183.607
21
-190.212
0
LINE
8
BLACK
6
CONTINUOUS
10
183.607
20
-190.212
11
183.429
21
-190.117
0
LINE
8
BLACK
6
CONTINUOUS
10
183.429
20
-190.117
11
183.357
21
-189.926
0
LINE
8
BLACK
6
CONTINUOUS
10
183.357
20
-189.926
11
183.453
21
-189.164
0
LINE
8
BLACK
6
CONTINUOUS
10
183.453
20
-189.164
11
183.572
21
-188.974
0
LINE
8
BLACK
6
CONTINUOUS
10
183.572
20
-188.974
11
183.774
21
-188.879
0
LINE
8
BLACK
6
CONTINUOUS
10
183.774
20
-188.879
11
184.155
21
-188.879
0
LINE
8
BLACK
6
CONTINUOUS
10
184.155
20
-188.879
11
184.334
21
-188.974
0
LINE
8
BLACK
6
CONTINUOUS
10
184.334
20
-188.974
11
184.405
21
-189.164
0
LINE
8
BLACK
6
CONTINUOUS
10
184.405
20
-189.164
11
184.381
21
-189.355
0
LINE
8
BLACK
6
CONTINUOUS
10
184.381
20
-189.355
11
183.405
21
-189.545
0
LINE
8
BLACK
6
CONTINUOUS
10
185.155
20
-190.021
11
185.238
21
-190.117
0
LINE
8
BLACK
6
CONTINUOUS
10
185.238
20
-190.117
11
185.131
21
-190.212
0
LINE
8
BLACK
6
CONTINUOUS
10
185.131
20
-190.212
11
185.048
21
-190.117
0
LINE
8
BLACK
6
CONTINUOUS
10
185.048
20
-190.117
11
185.155
21
-190.021
0
LINE
8
BLACK
6
CONTINUOUS
10
185.155
20
-190.021
11
185.131
21
-190.212
0
LINE
8
BLACK
6
CONTINUOUS
10
185.286
20
-188.974
11
185.369
21
-189.069
0
LINE
8
BLACK
6
CONTINUOUS
10
185.369
20
-189.069
11
185.262
21
-189.164
0
LINE
8
BLACK
6
CONTINUOUS
10
185.262
20
-189.164
11
185.179
21
-189.069
0
LINE
8
BLACK
6
CONTINUOUS
10
185.179
20
-189.069
11
185.286
21
-188.974
0
LINE
8
BLACK
6
CONTINUOUS
10
185.286
20
-188.974
11
185.262
21
-189.164
0
LINE
8
BLACK
6
CONTINUOUS
10
187.607
20
-190.212
11
187.857
21
-188.212
0
LINE
8
BLACK
6
CONTINUOUS
10
187.857
20
-188.212
11
188.619
21
-188.212
0
LINE
8
BLACK
6
CONTINUOUS
10
188.619
20
-188.212
11
188.798
21
-188.307
0
LINE
8
BLACK
6
CONTINUOUS
10
188.798
20
-188.307
11
188.881
21
-188.402
0
LINE
8
BLACK
6
CONTINUOUS
10
188.881
20
-188.402
11
188.953
21
-188.593
0
LINE
8
BLACK
6
CONTINUOUS
10
188.953
20
-188.593
11
188.917
21
-188.879
0
LINE
8
BLACK
6
CONTINUOUS
10
188.917
20
-188.879
11
188.798
21
-189.069
0
LINE
8
BLACK
6
CONTINUOUS
10
188.798
20
-189.069
11
188.691
21
-189.164
0
LINE
8
BLACK
6
CONTINUOUS
10
188.691
20
-189.164
11
188.488
21
-189.26
0
LINE
8
BLACK
6
CONTINUOUS
10
188.488
20
-189.26
11
187.726
21
-189.26
0
LINE
8
BLACK
6
CONTINUOUS
10
189.893
20
-190.212
11
189.715
21
-190.117
0
LINE
8
BLACK
6
CONTINUOUS
10
189.715
20
-190.117
11
189.643
21
-189.926
0
LINE
8
BLACK
6
CONTINUOUS
10
189.643
20
-189.926
11
189.857
21
-188.212
0
LINE
8
BLACK
6
CONTINUOUS
10
190.631
20
-188.879
11
190.941
21
-190.212
0
LINE
8
BLACK
6
CONTINUOUS
10
191.584
20
-188.879
11
190.941
21
-190.212
0
LINE
8
BLACK
6
CONTINUOUS
10
190.941
20
-190.212
11
190.691
21
-190.688
0
LINE
8
BLACK
6
CONTINUOUS
10
190.691
20
-190.688
11
190.584
21
-190.783
0
LINE
8
BLACK
6
CONTINUOUS
10
190.584
20
-190.783
11
190.381
21
-190.879
0
LINE
8
BLACK
6
CONTINUOUS
10
192.06
20
-188.879
11
192.822
21
-188.879
0
LINE
8
BLACK
6
CONTINUOUS
10
192.429
20
-188.212
11
192.215
21
-189.926
0
LINE
8
BLACK
6
CONTINUOUS
10
192.215
20
-189.926
11
192.286
21
-190.117
0
LINE
8
BLACK
6
CONTINUOUS
10
192.286
20
-190.117
11
192.465
21
-190.212
0
LINE
8
BLACK
6
CONTINUOUS
10
192.465
20
-190.212
11
192.655
21
-190.212
0
LINE
8
BLACK
6
CONTINUOUS
10
194.179
20
-190.212
11
194.31
21
-189.164
0
LINE
8
BLACK
6
CONTINUOUS
10
194.31
20
-189.164
11
194.238
21
-188.974
0
LINE
8
BLACK
6
CONTINUOUS
10
194.238
20
-188.974
11
194.06
21
-188.879
0
LINE
8
BLACK
6
CONTINUOUS
10
194.06
20
-188.879
11
193.679
21
-188.879
0
LINE
8
BLACK
6
CONTINUOUS
10
193.679
20
-188.879
11
193.476
21
-188.974
0
LINE
8
BLACK
6
CONTINUOUS
10
194.191
20
-190.117
11
193.988
21
-190.212
0
LINE
8
BLACK
6
CONTINUOUS
10
193.988
20
-190.212
11
193.512
21
-190.212
0
LINE
8
BLACK
6
CONTINUOUS
10
193.512
20
-190.212
11
193.334
21
-190.117
0
LINE
8
BLACK
6
CONTINUOUS
10
193.334
20
-190.117
11
193.262
21
-189.926
0
LINE
8
BLACK
6
CONTINUOUS
10
193.262
20
-189.926
11
193.286
21
-189.736
0
LINE
8
BLACK
6
CONTINUOUS
10
193.286
20
-189.736
11
193.405
21
-189.545
0
LINE
8
BLACK
6
CONTINUOUS
10
193.405
20
-189.545
11
193.607
21
-189.45
0
LINE
8
BLACK
6
CONTINUOUS
10
193.607
20
-189.45
11
194.084
21
-189.45
0
LINE
8
BLACK
6
CONTINUOUS
10
194.084
20
-189.45
11
194.286
21
-189.355
0
LINE
8
BLACK
6
CONTINUOUS
10
196.822
20
-188.879
11
196.572
21
-190.879
0
LINE
8
BLACK
6
CONTINUOUS
10
196.81
20
-188.974
11
197.012
21
-188.879
0
LINE
8
BLACK
6
CONTINUOUS
10
197.012
20
-188.879
11
197.393
21
-188.879
0
LINE
8
BLACK
6
CONTINUOUS
10
197.393
20
-188.879
11
197.572
21
-188.974
0
LINE
8
BLACK
6
CONTINUOUS
10
197.572
20
-188.974
11
197.655
21
-189.069
0
LINE
8
BLACK
6
CONTINUOUS
10
197.655
20
-189.069
11
197.726
21
-189.26
0
LINE
8
BLACK
6
CONTINUOUS
10
197.726
20
-189.26
11
197.655
21
-189.831
0
LINE
8
BLACK
6
CONTINUOUS
10
197.655
20
-189.831
11
197.536
21
-190.021
0
LINE
8
BLACK
6
CONTINUOUS
10
197.536
20
-190.021
11
197.429
21
-190.117
0
LINE
8
BLACK
6
CONTINUOUS
10
197.429
20
-190.117
11
197.226
21
-190.212
0
LINE
8
BLACK
6
CONTINUOUS
10
197.226
20
-190.212
11
196.846
21
-190.212
0
LINE
8
BLACK
6
CONTINUOUS
10
196.846
20
-190.212
11
196.667
21
-190.117
0
LINE
8
BLACK
6
CONTINUOUS
10
198.465
20
-190.212
11
198.631
21
-188.879
0
LINE
8
BLACK
6
CONTINUOUS
10
198.584
20
-189.26
11
198.703
21
-189.069
0
LINE
8
BLACK
6
CONTINUOUS
10
198.703
20
-189.069
11
198.81
21
-188.974
0
LINE
8
BLACK
6
CONTINUOUS
10
198.81
20
-188.974
11
199.012
21
-188.879
0
LINE
8
BLACK
6
CONTINUOUS
10
199.012
20
-188.879
11
199.203
21
-188.879
0
LINE
8
BLACK
6
CONTINUOUS
10
199.679
20
-188.879
11
200.726
21
-188.879
0
LINE
8
BLACK
6
CONTINUOUS
10
200.726
20
-188.879
11
199.512
21
-190.212
0
LINE
8
BLACK
6
CONTINUOUS
10
199.512
20
-190.212
11
200.56
21
-190.212
0
LINE
8
BLACK
6
CONTINUOUS
10
202.096
20
-190.117
11
201.893
21
-190.212
0
LINE
8
BLACK
6
CONTINUOUS
10
201.893
20
-190.212
11
201.512
21
-190.212
0
LINE
8
BLACK
6
CONTINUOUS
10
201.512
20
-190.212
11
201.334
21
-190.117
0
LINE
8
BLACK
6
CONTINUOUS
10
201.334
20
-190.117
11
201.262
21
-189.926
0
LINE
8
BLACK
6
CONTINUOUS
10
201.262
20
-189.926
11
201.357
21
-189.164
0
LINE
8
BLACK
6
CONTINUOUS
10
201.357
20
-189.164
11
201.476
21
-188.974
0
LINE
8
BLACK
6
CONTINUOUS
10
201.476
20
-188.974
11
201.679
21
-188.879
0
LINE
8
BLACK
6
CONTINUOUS
10
201.679
20
-188.879
11
202.06
21
-188.879
0
LINE
8
BLACK
6
CONTINUOUS
10
202.06
20
-188.879
11
202.238
21
-188.974
0
LINE
8
BLACK
6
CONTINUOUS
10
202.238
20
-188.974
11
202.31
21
-189.164
0
LINE
8
BLACK
6
CONTINUOUS
10
202.31
20
-189.164
11
202.286
21
-189.355
0
LINE
8
BLACK
6
CONTINUOUS
10
202.286
20
-189.355
11
201.31
21
-189.545
0
LINE
8
BLACK
6
CONTINUOUS
10
203.036
20
-190.212
11
203.286
21
-188.212
0
LINE
8
BLACK
6
CONTINUOUS
10
203.322
20
-189.45
11
203.798
21
-190.212
0
LINE
8
BLACK
6
CONTINUOUS
10
203.965
20
-188.879
11
203.107
21
-189.641
0
LINE
8
BLACK
6
CONTINUOUS
10
205.512
20
-190.212
11
205.643
21
-189.164
0
LINE
8
BLACK
6
CONTINUOUS
10
205.643
20
-189.164
11
205.572
21
-188.974
0
LINE
8
BLACK
6
CONTINUOUS
10
205.572
20
-188.974
11
205.393
21
-188.879
0
LINE
8
BLACK
6
CONTINUOUS
10
205.393
20
-188.879
11
205.012
21
-188.879
0
LINE
8
BLACK
6
CONTINUOUS
10
205.012
20
-188.879
11
204.81
21
-188.974
0
LINE
8
BLACK
6
CONTINUOUS
10
205.524
20
-190.117
11
205.322
21
-190.212
0
LINE
8
BLACK
6
CONTINUOUS
10
205.322
20
-190.212
11
204.846
21
-190.212
0
LINE
8
BLACK
6
CONTINUOUS
10
204.846
20
-190.212
11
204.667
21
-190.117
0
LINE
8
BLACK
6
CONTINUOUS
10
204.667
20
-190.117
11
204.596
21
-189.926
0
LINE
8
BLACK
6
CONTINUOUS
10
204.596
20
-189.926
11
204.619
21
-189.736
0
LINE
8
BLACK
6
CONTINUOUS
10
204.619
20
-189.736
11
204.738
21
-189.545
0
LINE
8
BLACK
6
CONTINUOUS
10
204.738
20
-189.545
11
204.941
21
-189.45
0
LINE
8
BLACK
6
CONTINUOUS
10
204.941
20
-189.45
11
205.417
21
-189.45
0
LINE
8
BLACK
6
CONTINUOUS
10
205.417
20
-189.45
11
205.619
21
-189.355
0
LINE
8
BLACK
6
CONTINUOUS
10
206.441
20
-188.879
11
207.488
21
-188.879
0
LINE
8
BLACK
6
CONTINUOUS
10
207.488
20
-188.879
11
206.274
21
-190.212
0
LINE
8
BLACK
6
CONTINUOUS
10
206.274
20
-190.212
11
207.322
21
-190.212
0
LINE
8
BLACK
6
CONTINUOUS
10
208.25
20
-188.879
11
208.084
21
-190.212
0
LINE
8
BLACK
6
CONTINUOUS
10
208.226
20
-189.069
11
208.334
21
-188.974
0
LINE
8
BLACK
6
CONTINUOUS
10
208.334
20
-188.974
11
208.536
21
-188.879
0
LINE
8
BLACK
6
CONTINUOUS
10
208.536
20
-188.879
11
208.822
21
-188.879
0
LINE
8
BLACK
6
CONTINUOUS
10
208.822
20
-188.879
11
209
21
-188.974
0
LINE
8
BLACK
6
CONTINUOUS
10
209
20
-188.974
11
209.072
21
-189.164
0
LINE
8
BLACK
6
CONTINUOUS
10
209.072
20
-189.164
11
208.941
21
-190.212
0
LINE
8
BLACK
6
CONTINUOUS
10
209.893
20
-190.212
11
210.06
21
-188.879
0
LINE
8
BLACK
6
CONTINUOUS
10
210.143
20
-188.212
11
210.036
21
-188.307
0
LINE
8
BLACK
6
CONTINUOUS
10
210.036
20
-188.307
11
210.119
21
-188.402
0
LINE
8
BLACK
6
CONTINUOUS
10
210.119
20
-188.402
11
210.226
21
-188.307
0
LINE
8
BLACK
6
CONTINUOUS
10
210.226
20
-188.307
11
210.143
21
-188.212
0
LINE
8
BLACK
6
CONTINUOUS
10
210.143
20
-188.212
11
210.119
21
-188.402
0
LINE
8
BLACK
6
CONTINUOUS
10
210.846
20
-190.212
11
211.096
21
-188.212
0
LINE
8
BLACK
6
CONTINUOUS
10
211.131
20
-189.45
11
211.607
21
-190.212
0
LINE
8
BLACK
6
CONTINUOUS
10
211.774
20
-188.879
11
210.917
21
-189.641
0
LINE
8
BLACK
6
CONTINUOUS
10
212.75
20
-190.212
11
212.572
21
-190.117
0
LINE
8
BLACK
6
CONTINUOUS
10
212.572
20
-190.117
11
212.488
21
-190.021
0
LINE
8
BLACK
6
CONTINUOUS
10
212.488
20
-190.021
11
212.417
21
-189.831
0
LINE
8
BLACK
6
CONTINUOUS
10
212.417
20
-189.831
11
212.488
21
-189.26
0
LINE
8
BLACK
6
CONTINUOUS
10
212.488
20
-189.26
11
212.607
21
-189.069
0
LINE
8
BLACK
6
CONTINUOUS
10
212.607
20
-189.069
11
212.715
21
-188.974
0
LINE
8
BLACK
6
CONTINUOUS
10
212.715
20
-188.974
11
212.917
21
-188.879
0
LINE
8
BLACK
6
CONTINUOUS
10
212.917
20
-188.879
11
213.203
21
-188.879
0
LINE
8
BLACK
6
CONTINUOUS
10
213.203
20
-188.879
11
213.381
21
-188.974
0
LINE
8
BLACK
6
CONTINUOUS
10
213.381
20
-188.974
11
213.465
21
-189.069
0
LINE
8
BLACK
6
CONTINUOUS
10
213.465
20
-189.069
11
213.536
21
-189.26
0
LINE
8
BLACK
6
CONTINUOUS
10
213.536
20
-189.26
11
213.465
21
-189.831
0
LINE
8
BLACK
6
CONTINUOUS
10
213.465
20
-189.831
11
213.346
21
-190.021
0
LINE
8
BLACK
6
CONTINUOUS
10
213.346
20
-190.021
11
213.238
21
-190.117
0
LINE
8
BLACK
6
CONTINUOUS
10
213.238
20
-190.117
11
213.036
21
-190.212
0
LINE
8
BLACK
6
CONTINUOUS
10
213.036
20
-190.212
11
212.75
21
-190.212
0
LINE
8
BLACK
6
CONTINUOUS
10
214.25
20
-188.879
11
214.465
21
-190.212
0
LINE
8
BLACK
6
CONTINUOUS
10
214.465
20
-190.212
11
214.965
21
-189.26
0
LINE
8
BLACK
6
CONTINUOUS
10
214.965
20
-189.26
11
215.226
21
-190.212
0
LINE
8
BLACK
6
CONTINUOUS
10
215.226
20
-190.212
11
215.774
21
-188.879
0
LINE
8
BLACK
6
CONTINUOUS
10
218.06
20
-188.879
11
217.893
21
-190.212
0
LINE
8
BLACK
6
CONTINUOUS
10
218.036
20
-189.069
11
218.143
21
-188.974
0
LINE
8
BLACK
6
CONTINUOUS
10
218.143
20
-188.974
11
218.346
21
-188.879
0
LINE
8
BLACK
6
CONTINUOUS
10
218.346
20
-188.879
11
218.631
21
-188.879
0
LINE
8
BLACK
6
CONTINUOUS
10
218.631
20
-188.879
11
218.81
21
-188.974
0
LINE
8
BLACK
6
CONTINUOUS
10
218.81
20
-188.974
11
218.881
21
-189.164
0
LINE
8
BLACK
6
CONTINUOUS
10
218.881
20
-189.164
11
218.75
21
-190.212
0
LINE
8
BLACK
6
CONTINUOUS
10
220.56
20
-190.212
11
220.691
21
-189.164
0
LINE
8
BLACK
6
CONTINUOUS
10
220.691
20
-189.164
11
220.619
21
-188.974
0
LINE
8
BLACK
6
CONTINUOUS
10
220.619
20
-188.974
11
220.441
21
-188.879
0
LINE
8
BLACK
6
CONTINUOUS
10
220.441
20
-188.879
11
220.06
21
-188.879
0
LINE
8
BLACK
6
CONTINUOUS
10
220.06
20
-188.879
11
219.857
21
-188.974
0
LINE
8
BLACK
6
CONTINUOUS
10
220.572
20
-190.117
11
220.369
21
-190.212
0
LINE
8
BLACK
6
CONTINUOUS
10
220.369
20
-190.212
11
219.893
21
-190.212
0
LINE
8
BLACK
6
CONTINUOUS
10
219.893
20
-190.212
11
219.715
21
-190.117
0
LINE
8
BLACK
6
CONTINUOUS
10
219.715
20
-190.117
11
219.643
21
-189.926
0
LINE
8
BLACK
6
CONTINUOUS
10
219.643
20
-189.926
11
219.667
21
-189.736
0
LINE
8
BLACK
6
CONTINUOUS
10
219.667
20
-189.736
11
219.786
21
-189.545
0
LINE
8
BLACK
6
CONTINUOUS
10
219.786
20
-189.545
11
219.988
21
-189.45
0
LINE
8
BLACK
6
CONTINUOUS
10
219.988
20
-189.45
11
220.465
21
-189.45
0
LINE
8
BLACK
6
CONTINUOUS
10
220.465
20
-189.45
11
220.667
21
-189.355
0
LINE
8
BLACK
6
CONTINUOUS
10
222.917
20
-188.879
11
223.679
21
-188.879
0
LINE
8
BLACK
6
CONTINUOUS
10
223.286
20
-188.212
11
223.072
21
-189.926
0
LINE
8
BLACK
6
CONTINUOUS
10
223.072
20
-189.926
11
223.143
21
-190.117
0
LINE
8
BLACK
6
CONTINUOUS
10
223.143
20
-190.117
11
223.322
21
-190.212
0
LINE
8
BLACK
6
CONTINUOUS
10
223.322
20
-190.212
11
223.512
21
-190.212
0
LINE
8
BLACK
6
CONTINUOUS
10
224.179
20
-190.212
11
224.346
21
-188.879
0
LINE
8
BLACK
6
CONTINUOUS
10
224.298
20
-189.26
11
224.417
21
-189.069
0
LINE
8
BLACK
6
CONTINUOUS
10
224.417
20
-189.069
11
224.524
21
-188.974
0
LINE
8
BLACK
6
CONTINUOUS
10
224.524
20
-188.974
11
224.726
21
-188.879
0
LINE
8
BLACK
6
CONTINUOUS
10
224.726
20
-188.879
11
224.917
21
-188.879
0
LINE
8
BLACK
6
CONTINUOUS
10
225.417
20
-190.212
11
225.584
21
-188.879
0
LINE
8
BLACK
6
CONTINUOUS
10
225.667
20
-188.212
11
225.56
21
-188.307
0
LINE
8
BLACK
6
CONTINUOUS
10
225.56
20
-188.307
11
225.643
21
-188.402
0
LINE
8
BLACK
6
CONTINUOUS
10
225.643
20
-188.402
11
225.75
21
-188.307
0
LINE
8
BLACK
6
CONTINUOUS
10
225.75
20
-188.307
11
225.667
21
-188.212
0
LINE
8
BLACK
6
CONTINUOUS
10
225.667
20
-188.212
11
225.643
21
-188.402
0
LINE
8
BLACK
6
CONTINUOUS
10
227.226
20
-190.212
11
227.357
21
-189.164
0
LINE
8
BLACK
6
CONTINUOUS
10
227.357
20
-189.164
11
227.286
21
-188.974
0
LINE
8
BLACK
6
CONTINUOUS
10
227.286
20
-188.974
11
227.107
21
-188.879
0
LINE
8
BLACK
6
CONTINUOUS
10
227.107
20
-188.879
11
226.726
21
-188.879
0
LINE
8
BLACK
6
CONTINUOUS
10
226.726
20
-188.879
11
226.524
21
-188.974
0
LINE
8
BLACK
6
CONTINUOUS
10
227.238
20
-190.117
11
227.036
21
-190.212
0
LINE
8
BLACK
6
CONTINUOUS
10
227.036
20
-190.212
11
226.56
21
-190.212
0
LINE
8
BLACK
6
CONTINUOUS
10
226.56
20
-190.212
11
226.381
21
-190.117
0
LINE
8
BLACK
6
CONTINUOUS
10
226.381
20
-190.117
11
226.31
21
-189.926
0
LINE
8
BLACK
6
CONTINUOUS
10
226.31
20
-189.926
11
226.334
21
-189.736
0
LINE
8
BLACK
6
CONTINUOUS
10
226.334
20
-189.736
11
226.453
21
-189.545
0
LINE
8
BLACK
6
CONTINUOUS
10
226.453
20
-189.545
11
226.655
21
-189.45
0
LINE
8
BLACK
6
CONTINUOUS
10
226.655
20
-189.45
11
227.131
21
-189.45
0
LINE
8
BLACK
6
CONTINUOUS
10
227.131
20
-189.45
11
227.334
21
-189.355
0
LINE
8
BLACK
6
CONTINUOUS
10
228.179
20
-190.212
11
228.429
21
-188.212
0
LINE
8
BLACK
6
CONTINUOUS
10
228.465
20
-189.45
11
228.941
21
-190.212
0
LINE
8
BLACK
6
CONTINUOUS
10
229.107
20
-188.879
11
228.25
21
-189.641
0
LINE
8
BLACK
6
CONTINUOUS
10
230.655
20
-190.212
11
230.786
21
-189.164
0
LINE
8
BLACK
6
CONTINUOUS
10
230.786
20
-189.164
11
230.715
21
-188.974
0
LINE
8
BLACK
6
CONTINUOUS
10
230.715
20
-188.974
11
230.536
21
-188.879
0
LINE
8
BLACK
6
CONTINUOUS
10
230.536
20
-188.879
11
230.155
21
-188.879
0
LINE
8
BLACK
6
CONTINUOUS
10
230.155
20
-188.879
11
229.953
21
-188.974
0
LINE
8
BLACK
6
CONTINUOUS
10
230.667
20
-190.117
11
230.465
21
-190.212
0
LINE
8
BLACK
6
CONTINUOUS
10
230.465
20
-190.212
11
229.988
21
-190.212
0
LINE
8
BLACK
6
CONTINUOUS
10
229.988
20
-190.212
11
229.81
21
-190.117
0
LINE
8
BLACK
6
CONTINUOUS
10
229.81
20
-190.117
11
229.738
21
-189.926
0
LINE
8
BLACK
6
CONTINUOUS
10
229.738
20
-189.926
11
229.762
21
-189.736
0
LINE
8
BLACK
6
CONTINUOUS
10
229.762
20
-189.736
11
229.881
21
-189.545
0
LINE
8
BLACK
6
CONTINUOUS
10
229.881
20
-189.545
11
230.084
21
-189.45
0
LINE
8
BLACK
6
CONTINUOUS
10
230.084
20
-189.45
11
230.56
21
-189.45
0
LINE
8
BLACK
6
CONTINUOUS
10
230.56
20
-189.45
11
230.762
21
-189.355
0
LINE
8
BLACK
6
CONTINUOUS
10
232.476
20
-190.117
11
232.274
21
-190.212
0
LINE
8
BLACK
6
CONTINUOUS
10
232.274
20
-190.212
11
231.893
21
-190.212
0
LINE
8
BLACK
6
CONTINUOUS
10
231.893
20
-190.212
11
231.715
21
-190.117
0
LINE
8
BLACK
6
CONTINUOUS
10
231.715
20
-190.117
11
231.631
21
-190.021
0
LINE
8
BLACK
6
CONTINUOUS
10
231.631
20
-190.021
11
231.56
21
-189.831
0
LINE
8
BLACK
6
CONTINUOUS
10
231.56
20
-189.831
11
231.631
21
-189.26
0
LINE
8
BLACK
6
CONTINUOUS
10
231.631
20
-189.26
11
231.75
21
-189.069
0
LINE
8
BLACK
6
CONTINUOUS
10
231.75
20
-189.069
11
231.857
21
-188.974
0
LINE
8
BLACK
6
CONTINUOUS
10
231.857
20
-188.974
11
232.06
21
-188.879
0
LINE
8
BLACK
6
CONTINUOUS
10
232.06
20
-188.879
11
232.441
21
-188.879
0
LINE
8
BLACK
6
CONTINUOUS
10
232.441
20
-188.879
11
232.619
21
-188.974
0
LINE
8
BLACK
6
CONTINUOUS
10
233.322
20
-190.212
11
233.572
21
-188.212
0
LINE
8
BLACK
6
CONTINUOUS
10
234.179
20
-190.212
11
234.31
21
-189.164
0
LINE
8
BLACK
6
CONTINUOUS
10
234.31
20
-189.164
11
234.238
21
-188.974
0
LINE
8
BLACK
6
CONTINUOUS
10
234.238
20
-188.974
11
234.06
21
-188.879
0
LINE
8
BLACK
6
CONTINUOUS
10
234.06
20
-188.879
11
233.774
21
-188.879
0
LINE
8
BLACK
6
CONTINUOUS
10
233.774
20
-188.879
11
233.572
21
-188.974
0
LINE
8
BLACK
6
CONTINUOUS
10
233.572
20
-188.974
11
233.465
21
-189.069
0
LINE
8
BLACK
6
CONTINUOUS
10
178.934
20
-185.6
11
178.434
21
-185.6
0
LINE
8
BLACK
6
CONTINUOUS
10
178.434
20
-186.386
11
178.434
21
-184.886
0
LINE
8
BLACK
6
CONTINUOUS
10
178.434
20
-184.886
11
179.149
21
-184.886
0
LINE
8
BLACK
6
CONTINUOUS
10
179.72
20
-186.386
11
179.72
21
-185.386
0
LINE
8
BLACK
6
CONTINUOUS
10
179.72
20
-184.886
11
179.649
21
-184.957
0
LINE
8
BLACK
6
CONTINUOUS
10
179.649
20
-184.957
11
179.72
21
-185.029
0
LINE
8
BLACK
6
CONTINUOUS
10
179.72
20
-185.029
11
179.791
21
-184.957
0
LINE
8
BLACK
6
CONTINUOUS
10
179.791
20
-184.957
11
179.72
21
-184.886
0
LINE
8
BLACK
6
CONTINUOUS
10
179.72
20
-184.886
11
179.72
21
-185.029
0
LINE
8
BLACK
6
CONTINUOUS
10
180.649
20
-186.386
11
180.506
21
-186.314
0
LINE
8
BLACK
6
CONTINUOUS
10
180.506
20
-186.314
11
180.434
21
-186.171
0
LINE
8
BLACK
6
CONTINUOUS
10
180.434
20
-186.171
11
180.434
21
-184.886
0
LINE
8
BLACK
6
CONTINUOUS
10
181.791
20
-186.314
11
181.649
21
-186.386
0
LINE
8
BLACK
6
CONTINUOUS
10
181.649
20
-186.386
11
181.363
21
-186.386
0
LINE
8
BLACK
6
CONTINUOUS
10
181.363
20
-186.386
11
181.22
21
-186.314
0
LINE
8
BLACK
6
CONTINUOUS
10
181.22
20
-186.314
11
181.149
21
-186.171
0
LINE
8
BLACK
6
CONTINUOUS
10
181.149
20
-186.171
11
181.149
21
-185.6
0
LINE
8
BLACK
6
CONTINUOUS
10
181.149
20
-185.6
11
181.22
21
-185.457
0
LINE
8
BLACK
6
CONTINUOUS
10
181.22
20
-185.457
11
181.363
21
-185.386
0
LINE
8
BLACK
6
CONTINUOUS
10
181.363
20
-185.386
11
181.649
21
-185.386
0
LINE
8
BLACK
6
CONTINUOUS
10
181.649
20
-185.386
11
181.791
21
-185.457
0
LINE
8
BLACK
6
CONTINUOUS
10
181.791
20
-185.457
11
181.863
21
-185.6
0
LINE
8
BLACK
6
CONTINUOUS
10
181.863
20
-185.6
11
181.863
21
-185.743
0
LINE
8
BLACK
6
CONTINUOUS
10
181.863
20
-185.743
11
181.149
21
-185.886
0
LINE
8
BLACK
6
CONTINUOUS
10
182.506
20
-186.243
11
182.577
21
-186.314
0
LINE
8
BLACK
6
CONTINUOUS
10
182.577
20
-186.314
11
182.506
21
-186.386
0
LINE
8
BLACK
6
CONTINUOUS
10
182.506
20
-186.386
11
182.434
21
-186.314
0
LINE
8
BLACK
6
CONTINUOUS
10
182.434
20
-186.314
11
182.506
21
-186.243
0
LINE
8
BLACK
6
CONTINUOUS
10
182.506
20
-186.243
11
182.506
21
-186.386
0
LINE
8
BLACK
6
CONTINUOUS
10
182.506
20
-185.457
11
182.577
21
-185.529
0
LINE
8
BLACK
6
CONTINUOUS
10
182.577
20
-185.529
11
182.506
21
-185.6
0
LINE
8
BLACK
6
CONTINUOUS
10
182.506
20
-185.6
11
182.434
21
-185.529
0
LINE
8
BLACK
6
CONTINUOUS
10
182.434
20
-185.529
11
182.506
21
-185.457
0
LINE
8
BLACK
6
CONTINUOUS
10
182.506
20
-185.457
11
182.506
21
-185.6
0
LINE
8
BLACK
6
CONTINUOUS
10
185.22
20
-186.243
11
185.149
21
-186.314
0
LINE
8
BLACK
6
CONTINUOUS
10
185.149
20
-186.314
11
184.934
21
-186.386
0
LINE
8
BLACK
6
CONTINUOUS
10
184.934
20
-186.386
11
184.791
21
-186.386
0
LINE
8
BLACK
6
CONTINUOUS
10
184.791
20
-186.386
11
184.577
21
-186.314
0
LINE
8
BLACK
6
CONTINUOUS
10
184.577
20
-186.314
11
184.434
21
-186.171
0
LINE
8
BLACK
6
CONTINUOUS
10
184.434
20
-186.171
11
184.363
21
-186.029
0
LINE
8
BLACK
6
CONTINUOUS
10
184.363
20
-186.029
11
184.291
21
-185.743
0
LINE
8
BLACK
6
CONTINUOUS
10
184.291
20
-185.743
11
184.291
21
-185.529
0
LINE
8
BLACK
6
CONTINUOUS
10
184.291
20
-185.529
11
184.363
21
-185.243
0
LINE
8
BLACK
6
CONTINUOUS
10
184.363
20
-185.243
11
184.434
21
-185.1
0
LINE
8
BLACK
6
CONTINUOUS
10
184.434
20
-185.1
11
184.577
21
-184.957
0
LINE
8
BLACK
6
CONTINUOUS
10
184.577
20
-184.957
11
184.791
21
-184.886
0
LINE
8
BLACK
6
CONTINUOUS
10
184.791
20
-184.886
11
184.934
21
-184.886
0
LINE
8
BLACK
6
CONTINUOUS
10
184.934
20
-184.886
11
185.149
21
-184.957
0
LINE
8
BLACK
6
CONTINUOUS
10
185.149
20
-184.957
11
185.22
21
-185.029
0
LINE
8
BLACK
6
CONTINUOUS
10
186.434
20
-186.314
11
186.291
21
-186.386
0
LINE
8
BLACK
6
CONTINUOUS
10
186.291
20
-186.386
11
186.006
21
-186.386
0
LINE
8
BLACK
6
CONTINUOUS
10
186.006
20
-186.386
11
185.863
21
-186.314
0
LINE
8
BLACK
6
CONTINUOUS
10
185.863
20
-186.314
11
185.791
21
-186.171
0
LINE
8
BLACK
6
CONTINUOUS
10
185.791
20
-186.171
11
185.791
21
-185.6
0
LINE
8
BLACK
6
CONTINUOUS
10
185.791
20
-185.6
11
185.863
21
-185.457
0
LINE
8
BLACK
6
CONTINUOUS
10
185.863
20
-185.457
11
186.006
21
-185.386
0
LINE
8
BLACK
6
CONTINUOUS
10
186.006
20
-185.386
11
186.291
21
-185.386
0
LINE
8
BLACK
6
CONTINUOUS
10
186.291
20
-185.386
11
186.434
21
-185.457
0
LINE
8
BLACK
6
CONTINUOUS
10
186.434
20
-185.457
11
186.506
21
-185.6
0
LINE
8
BLACK
6
CONTINUOUS
10
186.506
20
-185.6
11
186.506
21
-185.743
0
LINE
8
BLACK
6
CONTINUOUS
10
186.506
20
-185.743
11
185.791
21
-185.886
0
LINE
8
BLACK
6
CONTINUOUS
10
187.149
20
-185.386
11
187.149
21
-186.386
0
LINE
8
BLACK
6
CONTINUOUS
10
187.149
20
-185.529
11
187.22
21
-185.457
0
LINE
8
BLACK
6
CONTINUOUS
10
187.22
20
-185.457
11
187.363
21
-185.386
0
LINE
8
BLACK
6
CONTINUOUS
10
187.363
20
-185.386
11
187.577
21
-185.386
0
LINE
8
BLACK
6
CONTINUOUS
10
187.577
20
-185.386
11
187.72
21
-185.457
0
LINE
8
BLACK
6
CONTINUOUS
10
187.72
20
-185.457
11
187.791
21
-185.6
0
LINE
8
BLACK
6
CONTINUOUS
10
187.791
20
-185.6
11
187.791
21
-186.386
0
LINE
8
BLACK
6
CONTINUOUS
10
188.291
20
-185.386
11
188.863
21
-185.386
0
LINE
8
BLACK
6
CONTINUOUS
10
188.506
20
-184.886
11
188.506
21
-186.171
0
LINE
8
BLACK
6
CONTINUOUS
10
188.506
20
-186.171
11
188.577
21
-186.314
0
LINE
8
BLACK
6
CONTINUOUS
10
188.577
20
-186.314
11
188.72
21
-186.386
0
LINE
8
BLACK
6
CONTINUOUS
10
188.72
20
-186.386
11
188.863
21
-186.386
0
LINE
8
BLACK
6
CONTINUOUS
10
189.363
20
-186.386
11
189.363
21
-185.386
0
LINE
8
BLACK
6
CONTINUOUS
10
189.363
20
-185.671
11
189.434
21
-185.529
0
LINE
8
BLACK
6
CONTINUOUS
10
189.434
20
-185.529
11
189.506
21
-185.457
0
LINE
8
BLACK
6
CONTINUOUS
10
189.506
20
-185.457
11
189.649
21
-185.386
0
LINE
8
BLACK
6
CONTINUOUS
10
189.649
20
-185.386
11
189.791
21
-185.386
0
LINE
8
BLACK
6
CONTINUOUS
10
190.934
20
-186.386
11
190.934
21
-185.6
0
LINE
8
BLACK
6
CONTINUOUS
10
190.934
20
-185.6
11
190.863
21
-185.457
0
LINE
8
BLACK
6
CONTINUOUS
10
190.863
20
-185.457
11
190.72
21
-185.386
0
LINE
8
BLACK
6
CONTINUOUS
10
190.72
20
-185.386
11
190.434
21
-185.386
0
LINE
8
BLACK
6
CONTINUOUS
10
190.434
20
-185.386
11
190.291
21
-185.457
0
LINE
8
BLACK
6
CONTINUOUS
10
190.934
20
-186.314
11
190.791
21
-186.386
0
LINE
8
BLACK
6
CONTINUOUS
10
190.791
20
-186.386
11
190.434
21
-186.386
0
LINE
8
BLACK
6
CONTINUOUS
10
190.434
20
-186.386
11
190.291
21
-186.314
0
LINE
8
BLACK
6
CONTINUOUS
10
190.291
20
-186.314
11
190.22
21
-186.171
0
LINE
8
BLACK
6
CONTINUOUS
10
190.22
20
-186.171
11
190.22
21
-186.029
0
LINE
8
BLACK
6
CONTINUOUS
10
190.22
20
-186.029
11
190.291
21
-185.886
0
LINE
8
BLACK
6
CONTINUOUS
10
190.291
20
-185.886
11
190.434
21
-185.814
0
LINE
8
BLACK
6
CONTINUOUS
10
190.434
20
-185.814
11
190.791
21
-185.814
0
LINE
8
BLACK
6
CONTINUOUS
10
190.791
20
-185.814
11
190.934
21
-185.743
0
LINE
8
BLACK
6
CONTINUOUS
10
191.863
20
-186.386
11
191.72
21
-186.314
0
LINE
8
BLACK
6
CONTINUOUS
10
191.72
20
-186.314
11
191.649
21
-186.171
0
LINE
8
BLACK
6
CONTINUOUS
10
191.649
20
-186.171
11
191.649
21
-184.886
0
LINE
8
BLACK
6
CONTINUOUS
10
193.577
20
-186.386
11
193.577
21
-184.886
0
LINE
8
BLACK
6
CONTINUOUS
10
193.577
20
-185.6
11
194.434
21
-185.6
0
LINE
8
BLACK
6
CONTINUOUS
10
194.434
20
-186.386
11
194.434
21
-184.886
0
LINE
8
BLACK
6
CONTINUOUS
10
195.72
20
-186.314
11
195.577
21
-186.386
0
LINE
8
BLACK
6
CONTINUOUS
10
195.577
20
-186.386
11
195.291
21
-186.386
0
LINE
8
BLACK
6
CONTINUOUS
10
195.291
20
-186.386
11
195.149
21
-186.314
0
LINE
8
BLACK
6
CONTINUOUS
10
195.149
20
-186.314
11
195.077
21
-186.171
0
LINE
8
BLACK
6
CONTINUOUS
10
195.077
20
-186.171
11
195.077
21
-185.6
0
LINE
8
BLACK
6
CONTINUOUS
10
195.077
20
-185.6
11
195.149
21
-185.457
0
LINE
8
BLACK
6
CONTINUOUS
10
195.149
20
-185.457
11
195.291
21
-185.386
0
LINE
8
BLACK
6
CONTINUOUS
10
195.291
20
-185.386
11
195.577
21
-185.386
0
LINE
8
BLACK
6
CONTINUOUS
10
195.577
20
-185.386
11
195.72
21
-185.457
0
LINE
8
BLACK
6
CONTINUOUS
10
195.72
20
-185.457
11
195.791
21
-185.6
0
LINE
8
BLACK
6
CONTINUOUS
10
195.791
20
-185.6
11
195.791
21
-185.743
0
LINE
8
BLACK
6
CONTINUOUS
10
195.791
20
-185.743
11
195.077
21
-185.886
0
LINE
8
BLACK
6
CONTINUOUS
10
197.077
20
-186.386
11
197.077
21
-185.6
0
LINE
8
BLACK
6
CONTINUOUS
10
197.077
20
-185.6
11
197.006
21
-185.457
0
LINE
8
BLACK
6
CONTINUOUS
10
197.006
20
-185.457
11
196.863
21
-185.386
0
LINE
8
BLACK
6
CONTINUOUS
10
196.863
20
-185.386
11
196.577
21
-185.386
0
LINE
8
BLACK
6
CONTINUOUS
10
196.577
20
-185.386
11
196.434
21
-185.457
0
LINE
8
BLACK
6
CONTINUOUS
10
197.077
20
-186.314
11
196.934
21
-186.386
0
LINE
8
BLACK
6
CONTINUOUS
10
196.934
20
-186.386
11
196.577
21
-186.386
0
LINE
8
BLACK
6
CONTINUOUS
10
196.577
20
-186.386
11
196.434
21
-186.314
0
LINE
8
BLACK
6
CONTINUOUS
10
196.434
20
-186.314
11
196.363
21
-186.171
0
LINE
8
BLACK
6
CONTINUOUS
10
196.363
20
-186.171
11
196.363
21
-186.029
0
LINE
8
BLACK
6
CONTINUOUS
10
196.363
20
-186.029
11
196.434
21
-185.886
0
LINE
8
BLACK
6
CONTINUOUS
10
196.434
20
-185.886
11
196.577
21
-185.814
0
LINE
8
BLACK
6
CONTINUOUS
10
196.577
20
-185.814
11
196.934
21
-185.814
0
LINE
8
BLACK
6
CONTINUOUS
10
196.934
20
-185.814
11
197.077
21
-185.743
0
LINE
8
BLACK
6
CONTINUOUS
10
197.577
20
-185.386
11
198.149
21
-185.386
0
LINE
8
BLACK
6
CONTINUOUS
10
197.791
20
-184.886
11
197.791
21
-186.171
0
LINE
8
BLACK
6
CONTINUOUS
10
197.791
20
-186.171
11
197.863
21
-186.314
0
LINE
8
BLACK
6
CONTINUOUS
10
197.863
20
-186.314
11
198.006
21
-186.386
0
LINE
8
BLACK
6
CONTINUOUS
10
198.006
20
-186.386
11
198.149
21
-186.386
0
LINE
8
BLACK
6
CONTINUOUS
10
198.649
20
-186.386
11
198.649
21
-185.386
0
LINE
8
BLACK
6
CONTINUOUS
10
198.649
20
-184.886
11
198.577
21
-184.957
0
LINE
8
BLACK
6
CONTINUOUS
10
198.577
20
-184.957
11
198.649
21
-185.029
0
LINE
8
BLACK
6
CONTINUOUS
10
198.649
20
-185.029
11
198.72
21
-184.957
0
LINE
8
BLACK
6
CONTINUOUS
10
198.72
20
-184.957
11
198.649
21
-184.886
0
LINE
8
BLACK
6
CONTINUOUS
10
198.649
20
-184.886
11
198.649
21
-185.029
0
LINE
8
BLACK
6
CONTINUOUS
10
199.363
20
-185.386
11
199.363
21
-186.386
0
LINE
8
BLACK
6
CONTINUOUS
10
199.363
20
-185.529
11
199.434
21
-185.457
0
LINE
8
BLACK
6
CONTINUOUS
10
199.434
20
-185.457
11
199.577
21
-185.386
0
LINE
8
BLACK
6
CONTINUOUS
10
199.577
20
-185.386
11
199.791
21
-185.386
0
LINE
8
BLACK
6
CONTINUOUS
10
199.791
20
-185.386
11
199.934
21
-185.457
0
LINE
8
BLACK
6
CONTINUOUS
10
199.934
20
-185.457
11
200.006
21
-185.6
0
LINE
8
BLACK
6
CONTINUOUS
10
200.006
20
-185.6
11
200.006
21
-186.386
0
LINE
8
BLACK
6
CONTINUOUS
10
201.363
20
-185.386
11
201.363
21
-186.6
0
LINE
8
BLACK
6
CONTINUOUS
10
201.363
20
-186.6
11
201.291
21
-186.743
0
LINE
8
BLACK
6
CONTINUOUS
10
201.291
20
-186.743
11
201.22
21
-186.814
0
LINE
8
BLACK
6
CONTINUOUS
10
201.22
20
-186.814
11
201.077
21
-186.886
0
LINE
8
BLACK
6
CONTINUOUS
10
201.077
20
-186.886
11
200.863
21
-186.886
0
LINE
8
BLACK
6
CONTINUOUS
10
200.863
20
-186.886
11
200.72
21
-186.814
0
LINE
8
BLACK
6
CONTINUOUS
10
201.363
20
-186.314
11
201.22
21
-186.386
0
LINE
8
BLACK
6
CONTINUOUS
10
201.22
20
-186.386
11
200.934
21
-186.386
0
LINE
8
BLACK
6
CONTINUOUS
10
200.934
20
-186.386
11
200.791
21
-186.314
0
LINE
8
BLACK
6
CONTINUOUS
10
200.791
20
-186.314
11
200.72
21
-186.243
0
LINE
8
BLACK
6
CONTINUOUS
10
200.72
20
-186.243
11
200.649
21
-186.1
0
LINE
8
BLACK
6
CONTINUOUS
10
200.649
20
-186.1
11
200.649
21
-185.671
0
LINE
8
BLACK
6
CONTINUOUS
10
200.649
20
-185.671
11
200.72
21
-185.529
0
LINE
8
BLACK
6
CONTINUOUS
10
200.72
20
-185.529
11
200.791
21
-185.457
0
LINE
8
BLACK
6
CONTINUOUS
10
200.791
20
-185.457
11
200.934
21
-185.386
0
LINE
8
BLACK
6
CONTINUOUS
10
200.934
20
-185.386
11
201.22
21
-185.386
0
LINE
8
BLACK
6
CONTINUOUS
10
201.22
20
-185.386
11
201.363
21
-185.457
0
LINE
8
BLACK
6
CONTINUOUS
10
204.077
20
-186.243
11
204.006
21
-186.314
0
LINE
8
BLACK
6
CONTINUOUS
10
204.006
20
-186.314
11
203.791
21
-186.386
0
LINE
8
BLACK
6
CONTINUOUS
10
203.791
20
-186.386
11
203.649
21
-186.386
0
LINE
8
BLACK
6
CONTINUOUS
10
203.649
20
-186.386
11
203.434
21
-186.314
0
LINE
8
BLACK
6
CONTINUOUS
10
203.434
20
-186.314
11
203.291
21
-186.171
0
LINE
8
BLACK
6
CONTINUOUS
10
203.291
20
-186.171
11
203.22
21
-186.029
0
LINE
8
BLACK
6
CONTINUOUS
10
203.22
20
-186.029
11
203.149
21
-185.743
0
LINE
8
BLACK
6
CONTINUOUS
10
203.149
20
-185.743
11
203.149
21
-185.529
0
LINE
8
BLACK
6
CONTINUOUS
10
203.149
20
-185.529
11
203.22
21
-185.243
0
LINE
8
BLACK
6
CONTINUOUS
10
203.22
20
-185.243
11
203.291
21
-185.1
0
LINE
8
BLACK
6
CONTINUOUS
10
203.291
20
-185.1
11
203.434
21
-184.957
0
LINE
8
BLACK
6
CONTINUOUS
10
203.434
20
-184.957
11
203.649
21
-184.886
0
LINE
8
BLACK
6
CONTINUOUS
10
203.649
20
-184.886
11
203.791
21
-184.886
0
LINE
8
BLACK
6
CONTINUOUS
10
203.791
20
-184.886
11
204.006
21
-184.957
0
LINE
8
BLACK
6
CONTINUOUS
10
204.006
20
-184.957
11
204.077
21
-185.029
0
LINE
8
BLACK
6
CONTINUOUS
10
204.934
20
-186.386
11
204.791
21
-186.314
0
LINE
8
BLACK
6
CONTINUOUS
10
204.791
20
-186.314
11
204.72
21
-186.243
0
LINE
8
BLACK
6
CONTINUOUS
10
204.72
20
-186.243
11
204.649
21
-186.1
0
LINE
8
BLACK
6
CONTINUOUS
10
204.649
20
-186.1
11
204.649
21
-185.671
0
LINE
8
BLACK
6
CONTINUOUS
10
204.649
20
-185.671
11
204.72
21
-185.529
0
LINE
8
BLACK
6
CONTINUOUS
10
204.72
20
-185.529
11
204.791
21
-185.457
0
LINE
8
BLACK
6
CONTINUOUS
10
204.791
20
-185.457
11
204.934
21
-185.386
0
LINE
8
BLACK
6
CONTINUOUS
10
204.934
20
-185.386
11
205.149
21
-185.386
0
LINE
8
BLACK
6
CONTINUOUS
10
205.149
20
-185.386
11
205.291
21
-185.457
0
LINE
8
BLACK
6
CONTINUOUS
10
205.291
20
-185.457
11
205.363
21
-185.529
0
LINE
8
BLACK
6
CONTINUOUS
10
205.363
20
-185.529
11
205.434
21
-185.671
0
LINE
8
BLACK
6
CONTINUOUS
10
205.434
20
-185.671
11
205.434
21
-186.1
0
LINE
8
BLACK
6
CONTINUOUS
10
205.434
20
-186.1
11
205.363
21
-186.243
0
LINE
8
BLACK
6
CONTINUOUS
10
205.363
20
-186.243
11
205.291
21
-186.314
0
LINE
8
BLACK
6
CONTINUOUS
10
205.291
20
-186.314
11
205.149
21
-186.386
0
LINE
8
BLACK
6
CONTINUOUS
10
205.149
20
-186.386
11
204.934
21
-186.386
0
LINE
8
BLACK
6
CONTINUOUS
10
206.077
20
-185.386
11
206.077
21
-186.386
0
LINE
8
BLACK
6
CONTINUOUS
10
206.077
20
-185.529
11
206.149
21
-185.457
0
LINE
8
BLACK
6
CONTINUOUS
10
206.149
20
-185.457
11
206.291
21
-185.386
0
LINE
8
BLACK
6
CONTINUOUS
10
206.291
20
-185.386
11
206.506
21
-185.386
0
LINE
8
BLACK
6
CONTINUOUS
10
206.506
20
-185.386
11
206.649
21
-185.457
0
LINE
8
BLACK
6
CONTINUOUS
10
206.649
20
-185.457
11
206.72
21
-185.6
0
LINE
8
BLACK
6
CONTINUOUS
10
206.72
20
-185.6
11
206.72
21
-186.386
0
LINE
8
BLACK
6
CONTINUOUS
10
207.22
20
-185.386
11
207.791
21
-185.386
0
LINE
8
BLACK
6
CONTINUOUS
10
207.434
20
-184.886
11
207.434
21
-186.171
0
LINE
8
BLACK
6
CONTINUOUS
10
207.434
20
-186.171
11
207.506
21
-186.314
0
LINE
8
BLACK
6
CONTINUOUS
10
207.506
20
-186.314
11
207.649
21
-186.386
0
LINE
8
BLACK
6
CONTINUOUS
10
207.649
20
-186.386
11
207.791
21
-186.386
0
LINE
8
BLACK
6
CONTINUOUS
10
208.291
20
-186.386
11
208.291
21
-185.386
0
LINE
8
BLACK
6
CONTINUOUS
10
208.291
20
-185.671
11
208.363
21
-185.529
0
LINE
8
BLACK
6
CONTINUOUS
10
208.363
20
-185.529
11
208.434
21
-185.457
0
LINE
8
BLACK
6
CONTINUOUS
10
208.434
20
-185.457
11
208.577
21
-185.386
0
LINE
8
BLACK
6
CONTINUOUS
10
208.577
20
-185.386
11
208.72
21
-185.386
0
LINE
8
BLACK
6
CONTINUOUS
10
209.434
20
-186.386
11
209.291
21
-186.314
0
LINE
8
BLACK
6
CONTINUOUS
10
209.291
20
-186.314
11
209.22
21
-186.243
0
LINE
8
BLACK
6
CONTINUOUS
10
209.22
20
-186.243
11
209.149
21
-186.1
0
LINE
8
BLACK
6
CONTINUOUS
10
209.149
20
-186.1
11
209.149
21
-185.671
0
LINE
8
BLACK
6
CONTINUOUS
10
209.149
20
-185.671
11
209.22
21
-185.529
0
LINE
8
BLACK
6
CONTINUOUS
10
209.22
20
-185.529
11
209.291
21
-185.457
0
LINE
8
BLACK
6
CONTINUOUS
10
209.291
20
-185.457
11
209.434
21
-185.386
0
LINE
8
BLACK
6
CONTINUOUS
10
209.434
20
-185.386
11
209.649
21
-185.386
0
LINE
8
BLACK
6
CONTINUOUS
10
209.649
20
-185.386
11
209.791
21
-185.457
0
LINE
8
BLACK
6
CONTINUOUS
10
209.791
20
-185.457
11
209.863
21
-185.529
0
LINE
8
BLACK
6
CONTINUOUS
10
209.863
20
-185.529
11
209.934
21
-185.671
0
LINE
8
BLACK
6
CONTINUOUS
10
209.934
20
-185.671
11
209.934
21
-186.1
0
LINE
8
BLACK
6
CONTINUOUS
10
209.934
20
-186.1
11
209.863
21
-186.243
0
LINE
8
BLACK
6
CONTINUOUS
10
209.863
20
-186.243
11
209.791
21
-186.314
0
LINE
8
BLACK
6
CONTINUOUS
10
209.791
20
-186.314
11
209.649
21
-186.386
0
LINE
8
BLACK
6
CONTINUOUS
10
209.649
20
-186.386
11
209.434
21
-186.386
0
LINE
8
BLACK
6
CONTINUOUS
10
210.791
20
-186.386
11
210.649
21
-186.314
0
LINE
8
BLACK
6
CONTINUOUS
10
210.649
20
-186.314
11
210.577
21
-186.171
0
LINE
8
BLACK
6
CONTINUOUS
10
210.577
20
-186.171
11
210.577
21
-184.886
0
LINE
8
BLACK
6
CONTINUOUS
10
212.506
20
-186.386
11
212.506
21
-184.886
0
LINE
8
BLACK
6
CONTINUOUS
10
212.506
20
-184.886
11
213.077
21
-184.886
0
LINE
8
BLACK
6
CONTINUOUS
10
213.077
20
-184.886
11
213.22
21
-184.957
0
LINE
8
BLACK
6
CONTINUOUS
10
213.22
20
-184.957
11
213.291
21
-185.029
0
LINE
8
BLACK
6
CONTINUOUS
10
213.291
20
-185.029
11
213.363
21
-185.171
0
LINE
8
BLACK
6
CONTINUOUS
10
213.363
20
-185.171
11
213.363
21
-185.386
0
LINE
8
BLACK
6
CONTINUOUS
10
213.363
20
-185.386
11
213.291
21
-185.529
0
LINE
8
BLACK
6
CONTINUOUS
10
213.291
20
-185.529
11
213.22
21
-185.6
0
LINE
8
BLACK
6
CONTINUOUS
10
213.22
20
-185.6
11
213.077
21
-185.671
0
LINE
8
BLACK
6
CONTINUOUS
10
213.077
20
-185.671
11
212.506
21
-185.671
0
LINE
8
BLACK
6
CONTINUOUS
10
214.506
20
-185.6
11
214.72
21
-185.671
0
LINE
8
BLACK
6
CONTINUOUS
10
214.72
20
-185.671
11
214.791
21
-185.743
0
LINE
8
BLACK
6
CONTINUOUS
10
214.791
20
-185.743
11
214.863
21
-185.886
0
LINE
8
BLACK
6
CONTINUOUS
10
214.863
20
-185.886
11
214.863
21
-186.1
0
LINE
8
BLACK
6
CONTINUOUS
10
214.863
20
-186.1
11
214.791
21
-186.243
0
LINE
8
BLACK
6
CONTINUOUS
10
214.791
20
-186.243
11
214.72
21
-186.314
0
LINE
8
BLACK
6
CONTINUOUS
10
214.72
20
-186.314
11
214.577
21
-186.386
0
LINE
8
BLACK
6
CONTINUOUS
10
214.577
20
-186.386
11
214.006
21
-186.386
0
LINE
8
BLACK
6
CONTINUOUS
10
214.006
20
-186.386
11
214.006
21
-184.886
0
LINE
8
BLACK
6
CONTINUOUS
10
214.006
20
-184.886
11
214.506
21
-184.886
0
LINE
8
BLACK
6
CONTINUOUS
10
214.506
20
-184.886
11
214.649
21
-184.957
0
LINE
8
BLACK
6
CONTINUOUS
10
214.649
20
-184.957
11
214.72
21
-185.029
0
LINE
8
BLACK
6
CONTINUOUS
10
214.72
20
-185.029
11
214.791
21
-185.171
0
LINE
8
BLACK
6
CONTINUOUS
10
214.791
20
-185.171
11
214.791
21
-185.314
0
LINE
8
BLACK
6
CONTINUOUS
10
214.791
20
-185.314
11
214.72
21
-185.457
0
LINE
8
BLACK
6
CONTINUOUS
10
214.72
20
-185.457
11
214.649
21
-185.529
0
LINE
8
BLACK
6
CONTINUOUS
10
214.649
20
-185.529
11
214.506
21
-185.6
0
LINE
8
BLACK
6
CONTINUOUS
10
214.506
20
-185.6
11
214.006
21
-185.6
0
LINE
8
BLACK
6
CONTINUOUS
10
215.434
20
-185.957
11
216.149
21
-185.957
0
LINE
8
BLACK
6
CONTINUOUS
10
215.291
20
-186.386
11
215.791
21
-184.886
0
LINE
8
BLACK
6
CONTINUOUS
10
215.791
20
-184.886
11
216.291
21
-186.386
0
LINE
8
BLACK
6
CONTINUOUS
10
216.791
20
-186.243
11
216.863
21
-186.314
0
LINE
8
BLACK
6
CONTINUOUS
10
216.863
20
-186.314
11
216.791
21
-186.386
0
LINE
8
BLACK
6
CONTINUOUS
10
216.791
20
-186.386
11
216.72
21
-186.314
0
LINE
8
BLACK
6
CONTINUOUS
10
216.72
20
-186.314
11
216.791
21
-186.243
0
LINE
8
BLACK
6
CONTINUOUS
10
216.791
20
-186.243
11
216.791
21
-186.386
0
LINE
8
BLACK
6
CONTINUOUS
10
217.506
20
-186.386
11
217.506
21
-184.886
0
LINE
8
BLACK
6
CONTINUOUS
10
217.649
20
-185.814
11
218.077
21
-186.386
0
LINE
8
BLACK
6
CONTINUOUS
10
218.077
20
-185.386
11
217.506
21
-185.957
0
LINE
8
BLACK
6
CONTINUOUS
10
218.72
20
-186.386
11
218.72
21
-185.386
0
LINE
8
BLACK
6
CONTINUOUS
10
218.72
20
-184.886
11
218.649
21
-184.957
0
LINE
8
BLACK
6
CONTINUOUS
10
218.649
20
-184.957
11
218.72
21
-185.029
0
LINE
8
BLACK
6
CONTINUOUS
10
218.72
20
-185.029
11
218.791
21
-184.957
0
LINE
8
BLACK
6
CONTINUOUS
10
218.791
20
-184.957
11
218.72
21
-184.886
0
LINE
8
BLACK
6
CONTINUOUS
10
218.72
20
-184.886
11
218.72
21
-185.029
0
LINE
8
BLACK
6
CONTINUOUS
10
220.077
20
-186.314
11
219.934
21
-186.386
0
LINE
8
BLACK
6
CONTINUOUS
10
219.934
20
-186.386
11
219.649
21
-186.386
0
LINE
8
BLACK
6
CONTINUOUS
10
219.649
20
-186.386
11
219.506
21
-186.314
0
LINE
8
BLACK
6
CONTINUOUS
10
219.506
20
-186.314
11
219.434
21
-186.243
0
LINE
8
BLACK
6
CONTINUOUS
10
219.434
20
-186.243
11
219.363
21
-186.1
0
LINE
8
BLACK
6
CONTINUOUS
10
219.363
20
-186.1
11
219.363
21
-185.671
0
LINE
8
BLACK
6
CONTINUOUS
10
219.363
20
-185.671
11
219.434
21
-185.529
0
LINE
8
BLACK
6
CONTINUOUS
10
219.434
20
-185.529
11
219.506
21
-185.457
0
LINE
8
BLACK
6
CONTINUOUS
10
219.506
20
-185.457
11
219.649
21
-185.386
0
LINE
8
BLACK
6
CONTINUOUS
10
219.649
20
-185.386
11
219.934
21
-185.386
0
LINE
8
BLACK
6
CONTINUOUS
10
219.934
20
-185.386
11
220.077
21
-185.457
0
LINE
8
BLACK
6
CONTINUOUS
10
221.363
20
-186.386
11
221.363
21
-185.6
0
LINE
8
BLACK
6
CONTINUOUS
10
221.363
20
-185.6
11
221.291
21
-185.457
0
LINE
8
BLACK
6
CONTINUOUS
10
221.291
20
-185.457
11
221.149
21
-185.386
0
LINE
8
BLACK
6
CONTINUOUS
10
221.149
20
-185.386
11
220.863
21
-185.386
0
LINE
8
BLACK
6
CONTINUOUS
10
220.863
20
-185.386
11
220.72
21
-185.457
0
LINE
8
BLACK
6
CONTINUOUS
10
221.363
20
-186.314
11
221.22
21
-186.386
0
LINE
8
BLACK
6
CONTINUOUS
10
221.22
20
-186.386
11
220.863
21
-186.386
0
LINE
8
BLACK
6
CONTINUOUS
10
220.863
20
-186.386
11
220.72
21
-186.314
0
LINE
8
BLACK
6
CONTINUOUS
10
220.72
20
-186.314
11
220.649
21
-186.171
0
LINE
8
BLACK
6
CONTINUOUS
10
220.649
20
-186.171
11
220.649
21
-186.029
0
LINE
8
BLACK
6
CONTINUOUS
10
220.649
20
-186.029
11
220.72
21
-185.886
0
LINE
8
BLACK
6
CONTINUOUS
10
220.72
20
-185.886
11
220.863
21
-185.814
0
LINE
8
BLACK
6
CONTINUOUS
10
220.863
20
-185.814
11
221.22
21
-185.814
0
LINE
8
BLACK
6
CONTINUOUS
10
221.22
20
-185.814
11
221.363
21
-185.743
0
LINE
8
BLACK
6
CONTINUOUS
10
222.72
20
-186.386
11
222.72
21
-184.886
0
LINE
8
BLACK
6
CONTINUOUS
10
222.72
20
-186.314
11
222.577
21
-186.386
0
LINE
8
BLACK
6
CONTINUOUS
10
222.577
20
-186.386
11
222.291
21
-186.386
0
LINE
8
BLACK
6
CONTINUOUS
10
222.291
20
-186.386
11
222.149
21
-186.314
0
LINE
8
BLACK
6
CONTINUOUS
10
222.149
20
-186.314
11
222.077
21
-186.243
0
LINE
8
BLACK
6
CONTINUOUS
10
222.077
20
-186.243
11
222.006
21
-186.1
0
LINE
8
BLACK
6
CONTINUOUS
10
222.006
20
-186.1
11
222.006
21
-185.671
0
LINE
8
BLACK
6
CONTINUOUS
10
222.006
20
-185.671
11
222.077
21
-185.529
0
LINE
8
BLACK
6
CONTINUOUS
10
222.077
20
-185.529
11
222.149
21
-185.457
0
LINE
8
BLACK
6
CONTINUOUS
10
222.149
20
-185.457
11
222.291
21
-185.386
0
LINE
8
BLACK
6
CONTINUOUS
10
222.291
20
-185.386
11
222.577
21
-185.386
0
LINE
8
BLACK
6
CONTINUOUS
10
222.577
20
-185.386
11
222.72
21
-185.457
0
LINE
8
BLACK
6
CONTINUOUS
10
223.077
20
-186.529
11
224.22
21
-186.529
0
LINE
8
BLACK
6
CONTINUOUS
10
224.577
20
-185.386
11
224.577
21
-186.886
0
LINE
8
BLACK
6
CONTINUOUS
10
224.577
20
-185.457
11
224.72
21
-185.386
0
LINE
8
BLACK
6
CONTINUOUS
10
224.72
20
-185.386
11
225.006
21
-185.386
0
LINE
8
BLACK
6
CONTINUOUS
10
225.006
20
-185.386
11
225.149
21
-185.457
0
LINE
8
BLACK
6
CONTINUOUS
10
225.149
20
-185.457
11
225.22
21
-185.529
0
LINE
8
BLACK
6
CONTINUOUS
10
225.22
20
-185.529
11
225.291
21
-185.671
0
LINE
8
BLACK
6
CONTINUOUS
10
225.291
20
-185.671
11
225.291
21
-186.1
0
LINE
8
BLACK
6
CONTINUOUS
10
225.291
20
-186.1
11
225.22
21
-186.243
0
LINE
8
BLACK
6
CONTINUOUS
10
225.22
20
-186.243
11
225.149
21
-186.314
0
LINE
8
BLACK
6
CONTINUOUS
10
225.149
20
-186.314
11
225.006
21
-186.386
0
LINE
8
BLACK
6
CONTINUOUS
10
225.006
20
-186.386
11
224.72
21
-186.386
0
LINE
8
BLACK
6
CONTINUOUS
10
224.72
20
-186.386
11
224.577
21
-186.314
0
LINE
8
BLACK
6
CONTINUOUS
10
226.577
20
-186.314
11
226.434
21
-186.386
0
LINE
8
BLACK
6
CONTINUOUS
10
226.434
20
-186.386
11
226.149
21
-186.386
0
LINE
8
BLACK
6
CONTINUOUS
10
226.149
20
-186.386
11
226.006
21
-186.314
0
LINE
8
BLACK
6
CONTINUOUS
10
226.006
20
-186.314
11
225.934
21
-186.243
0
LINE
8
BLACK
6
CONTINUOUS
10
225.934
20
-186.243
11
225.863
21
-186.1
0
LINE
8
BLACK
6
CONTINUOUS
10
225.863
20
-186.1
11
225.863
21
-185.671
0
LINE
8
BLACK
6
CONTINUOUS
10
225.863
20
-185.671
11
225.934
21
-185.529
0
LINE
8
BLACK
6
CONTINUOUS
10
225.934
20
-185.529
11
226.006
21
-185.457
0
LINE
8
BLACK
6
CONTINUOUS
10
226.006
20
-185.457
11
226.149
21
-185.386
0
LINE
8
BLACK
6
CONTINUOUS
10
226.149
20
-185.386
11
226.434
21
-185.386
0
LINE
8
BLACK
6
CONTINUOUS
10
226.434
20
-185.386
11
226.577
21
-185.457
0
LINE
8
BLACK
6
CONTINUOUS
10
227.22
20
-186.386
11
227.22
21
-184.886
0
LINE
8
BLACK
6
CONTINUOUS
10
227.22
20
-185.457
11
227.363
21
-185.386
0
LINE
8
BLACK
6
CONTINUOUS
10
227.363
20
-185.386
11
227.649
21
-185.386
0
LINE
8
BLACK
6
CONTINUOUS
10
227.649
20
-185.386
11
227.791
21
-185.457
0
LINE
8
BLACK
6
CONTINUOUS
10
227.791
20
-185.457
11
227.863
21
-185.529
0
LINE
8
BLACK
6
CONTINUOUS
10
227.863
20
-185.529
11
227.934
21
-185.671
0
LINE
8
BLACK
6
CONTINUOUS
10
227.934
20
-185.671
11
227.934
21
-186.1
0
LINE
8
BLACK
6
CONTINUOUS
10
227.934
20
-186.1
11
227.863
21
-186.243
0
LINE
8
BLACK
6
CONTINUOUS
10
227.863
20
-186.243
11
227.791
21
-186.314
0
LINE
8
BLACK
6
CONTINUOUS
10
227.791
20
-186.314
11
227.649
21
-186.386
0
LINE
8
BLACK
6
CONTINUOUS
10
227.649
20
-186.386
11
227.363
21
-186.386
0
LINE
8
BLACK
6
CONTINUOUS
10
227.363
20
-186.386
11
227.22
21
-186.314
0
LINE
8
BLACK
6
CONTINUOUS
10
177.002
20
-181.507
11
285.002
21
-181.507
0
LINE
8
BLACK
6
CONTINUOUS
10
178.363
20
-183.614
11
178.577
21
-183.686
0
LINE
8
BLACK
6
CONTINUOUS
10
178.577
20
-183.686
11
178.934
21
-183.686
0
LINE
8
BLACK
6
CONTINUOUS
10
178.934
20
-183.686
11
179.077
21
-183.614
0
LINE
8
BLACK
6
CONTINUOUS
10
179.077
20
-183.614
11
179.149
21
-183.543
0
LINE
8
BLACK
6
CONTINUOUS
10
179.149
20
-183.543
11
179.22
21
-183.4
0
LINE
8
BLACK
6
CONTINUOUS
10
179.22
20
-183.4
11
179.22
21
-183.257
0
LINE
8
BLACK
6
CONTINUOUS
10
179.22
20
-183.257
11
179.149
21
-183.114
0
LINE
8
BLACK
6
CONTINUOUS
10
179.149
20
-183.114
11
179.077
21
-183.043
0
LINE
8
BLACK
6
CONTINUOUS
10
179.077
20
-183.043
11
178.934
21
-182.971
0
LINE
8
BLACK
6
CONTINUOUS
10
178.934
20
-182.971
11
178.649
21
-182.9
0
LINE
8
BLACK
6
CONTINUOUS
10
178.649
20
-182.9
11
178.506
21
-182.829
0
LINE
8
BLACK
6
CONTINUOUS
10
178.506
20
-182.829
11
178.434
21
-182.757
0
LINE
8
BLACK
6
CONTINUOUS
10
178.434
20
-182.757
11
178.363
21
-182.614
0
LINE
8
BLACK
6
CONTINUOUS
10
178.363
20
-182.614
11
178.363
21
-182.471
0
LINE
8
BLACK
6
CONTINUOUS
10
178.363
20
-182.471
11
178.434
21
-182.329
0
LINE
8
BLACK
6
CONTINUOUS
10
178.434
20
-182.329
11
178.506
21
-182.257
0
LINE
8
BLACK
6
CONTINUOUS
10
178.506
20
-182.257
11
178.649
21
-182.186
0
LINE
8
BLACK
6
CONTINUOUS
10
178.649
20
-182.186
11
179.006
21
-182.186
0
LINE
8
BLACK
6
CONTINUOUS
10
179.006
20
-182.186
11
179.22
21
-182.257
0
LINE
8
BLACK
6
CONTINUOUS
10
179.863
20
-183.686
11
179.863
21
-182.186
0
LINE
8
BLACK
6
CONTINUOUS
10
180.506
20
-183.686
11
180.506
21
-182.9
0
LINE
8
BLACK
6
CONTINUOUS
10
180.506
20
-182.9
11
180.434
21
-182.757
0
LINE
8
BLACK
6
CONTINUOUS
10
180.434
20
-182.757
11
180.291
21
-182.686
0
LINE
8
BLACK
6
CONTINUOUS
10
180.291
20
-182.686
11
180.077
21
-182.686
0
LINE
8
BLACK
6
CONTINUOUS
10
180.077
20
-182.686
11
179.934
21
-182.757
0
LINE
8
BLACK
6
CONTINUOUS
10
179.934
20
-182.757
11
179.863
21
-182.829
0
LINE
8
BLACK
6
CONTINUOUS
10
181.791
20
-183.614
11
181.649
21
-183.686
0
LINE
8
BLACK
6
CONTINUOUS
10
181.649
20
-183.686
11
181.363
21
-183.686
0
LINE
8
BLACK
6
CONTINUOUS
10
181.363
20
-183.686
11
181.22
21
-183.614
0
LINE
8
BLACK
6
CONTINUOUS
10
181.22
20
-183.614
11
181.149
21
-183.471
0
LINE
8
BLACK
6
CONTINUOUS
10
181.149
20
-183.471
11
181.149
21
-182.9
0
LINE
8
BLACK
6
CONTINUOUS
10
181.149
20
-182.9
11
181.22
21
-182.757
0
LINE
8
BLACK
6
CONTINUOUS
10
181.22
20
-182.757
11
181.363
21
-182.686
0
LINE
8
BLACK
6
CONTINUOUS
10
181.363
20
-182.686
11
181.649
21
-182.686
0
LINE
8
BLACK
6
CONTINUOUS
10
181.649
20
-182.686
11
181.791
21
-182.757
0
LINE
8
BLACK
6
CONTINUOUS
10
181.791
20
-182.757
11
181.863
21
-182.9
0
LINE
8
BLACK
6
CONTINUOUS
10
181.863
20
-182.9
11
181.863
21
-183.043
0
LINE
8
BLACK
6
CONTINUOUS
10
181.863
20
-183.043
11
181.149
21
-183.186
0
LINE
8
BLACK
6
CONTINUOUS
10
183.077
20
-183.614
11
182.934
21
-183.686
0
LINE
8
BLACK
6
CONTINUOUS
10
182.934
20
-183.686
11
182.649
21
-183.686
0
LINE
8
BLACK
6
CONTINUOUS
10
182.649
20
-183.686
11
182.506
21
-183.614
0
LINE
8
BLACK
6
CONTINUOUS
10
182.506
20
-183.614
11
182.434
21
-183.471
0
LINE
8
BLACK
6
CONTINUOUS
10
182.434
20
-183.471
11
182.434
21
-182.9
0
LINE
8
BLACK
6
CONTINUOUS
10
182.434
20
-182.9
11
182.506
21
-182.757
0
LINE
8
BLACK
6
CONTINUOUS
10
182.506
20
-182.757
11
182.649
21
-182.686
0
LINE
8
BLACK
6
CONTINUOUS
10
182.649
20
-182.686
11
182.934
21
-182.686
0
LINE
8
BLACK
6
CONTINUOUS
10
182.934
20
-182.686
11
183.077
21
-182.757
0
LINE
8
BLACK
6
CONTINUOUS
10
183.077
20
-182.757
11
183.149
21
-182.9
0
LINE
8
BLACK
6
CONTINUOUS
10
183.149
20
-182.9
11
183.149
21
-183.043
0
LINE
8
BLACK
6
CONTINUOUS
10
183.149
20
-183.043
11
182.434
21
-183.186
0
LINE
8
BLACK
6
CONTINUOUS
10
183.577
20
-182.686
11
184.149
21
-182.686
0
LINE
8
BLACK
6
CONTINUOUS
10
183.791
20
-182.186
11
183.791
21
-183.471
0
LINE
8
BLACK
6
CONTINUOUS
10
183.791
20
-183.471
11
183.863
21
-183.614
0
LINE
8
BLACK
6
CONTINUOUS
10
183.863
20
-183.614
11
184.006
21
-183.686
0
LINE
8
BLACK
6
CONTINUOUS
10
184.006
20
-183.686
11
184.149
21
-183.686
0
LINE
8
BLACK
6
CONTINUOUS
10
184.649
20
-183.543
11
184.72
21
-183.614
0
LINE
8
BLACK
6
CONTINUOUS
10
184.72
20
-183.614
11
184.649
21
-183.686
0
LINE
8
BLACK
6
CONTINUOUS
10
184.649
20
-183.686
11
184.577
21
-183.614
0
LINE
8
BLACK
6
CONTINUOUS
10
184.577
20
-183.614
11
184.649
21
-183.543
0
LINE
8
BLACK
6
CONTINUOUS
10
184.649
20
-183.543
11
184.649
21
-183.686
0
LINE
8
BLACK
6
CONTINUOUS
10
184.649
20
-182.757
11
184.72
21
-182.829
0
LINE
8
BLACK
6
CONTINUOUS
10
184.72
20
-182.829
11
184.649
21
-182.9
0
LINE
8
BLACK
6
CONTINUOUS
10
184.649
20
-182.9
11
184.577
21
-182.829
0
LINE
8
BLACK
6
CONTINUOUS
10
184.577
20
-182.829
11
184.649
21
-182.757
0
LINE
8
BLACK
6
CONTINUOUS
10
184.649
20
-182.757
11
184.649
21
-182.9
0
LINE
8
BLACK
6
CONTINUOUS
10
178.554
20
-180.686
11
178.554
21
-179.186
0
LINE
8
BLACK
6
CONTINUOUS
10
178.554
20
-179.186
11
179.054
21
-180.257
0
LINE
8
BLACK
6
CONTINUOUS
10
179.054
20
-180.257
11
179.554
21
-179.186
0
LINE
8
BLACK
6
CONTINUOUS
10
179.554
20
-179.186
11
179.554
21
-180.686
0
LINE
8
BLACK
6
CONTINUOUS
10
180.197
20
-180.257
11
180.911
21
-180.257
0
LINE
8
BLACK
6
CONTINUOUS
10
180.054
20
-180.686
11
180.554
21
-179.186
0
LINE
8
BLACK
6
CONTINUOUS
10
180.554
20
-179.186
11
181.054
21
-180.686
0
LINE
8
BLACK
6
CONTINUOUS
10
182.411
20
-180.686
11
181.911
21
-179.971
0
LINE
8
BLACK
6
CONTINUOUS
10
181.554
20
-180.686
11
181.554
21
-179.186
0
LINE
8
BLACK
6
CONTINUOUS
10
181.554
20
-179.186
11
182.126
21
-179.186
0
LINE
8
BLACK
6
CONTINUOUS
10
182.126
20
-179.186
11
182.269
21
-179.257
0
LINE
8
BLACK
6
CONTINUOUS
10
182.269
20
-179.257
11
182.34
21
-179.329
0
LINE
8
BLACK
6
CONTINUOUS
10
182.34
20
-179.329
11
182.411
21
-179.471
0
LINE
8
BLACK
6
CONTINUOUS
10
182.411
20
-179.471
11
182.411
21
-179.686
0
LINE
8
BLACK
6
CONTINUOUS
10
182.411
20
-179.686
11
182.34
21
-179.829
0
LINE
8
BLACK
6
CONTINUOUS
10
182.34
20
-179.829
11
182.269
21
-179.9
0
LINE
8
BLACK
6
CONTINUOUS
10
182.269
20
-179.9
11
182.126
21
-179.971
0
LINE
8
BLACK
6
CONTINUOUS
10
182.126
20
-179.971
11
181.554
21
-179.971
0
LINE
8
BLACK
6
CONTINUOUS
10
183.054
20
-180.686
11
183.054
21
-179.186
0
LINE
8
BLACK
6
CONTINUOUS
10
183.054
20
-179.186
11
183.554
21
-180.257
0
LINE
8
BLACK
6
CONTINUOUS
10
183.554
20
-180.257
11
184.054
21
-179.186
0
LINE
8
BLACK
6
CONTINUOUS
10
184.054
20
-179.186
11
184.054
21
-180.686
0
LINE
8
BLACK
6
CONTINUOUS
10
184.769
20
-180.543
11
184.84
21
-180.614
0
LINE
8
BLACK
6
CONTINUOUS
10
184.84
20
-180.614
11
184.769
21
-180.686
0
LINE
8
BLACK
6
CONTINUOUS
10
184.769
20
-180.686
11
184.697
21
-180.614
0
LINE
8
BLACK
6
CONTINUOUS
10
184.697
20
-180.614
11
184.769
21
-180.543
0
LINE
8
BLACK
6
CONTINUOUS
10
184.769
20
-180.543
11
184.769
21
-180.686
0
LINE
8
BLACK
6
CONTINUOUS
10
185.483
20
-179.686
11
185.483
21
-181.186
0
LINE
8
BLACK
6
CONTINUOUS
10
185.483
20
-179.757
11
185.626
21
-179.686
0
LINE
8
BLACK
6
CONTINUOUS
10
185.626
20
-179.686
11
185.911
21
-179.686
0
LINE
8
BLACK
6
CONTINUOUS
10
185.911
20
-179.686
11
186.054
21
-179.757
0
LINE
8
BLACK
6
CONTINUOUS
10
186.054
20
-179.757
11
186.126
21
-179.829
0
LINE
8
BLACK
6
CONTINUOUS
10
186.126
20
-179.829
11
186.197
21
-179.971
0
LINE
8
BLACK
6
CONTINUOUS
10
186.197
20
-179.971
11
186.197
21
-180.4
0
LINE
8
BLACK
6
CONTINUOUS
10
186.197
20
-180.4
11
186.126
21
-180.543
0
LINE
8
BLACK
6
CONTINUOUS
10
186.126
20
-180.543
11
186.054
21
-180.614
0
LINE
8
BLACK
6
CONTINUOUS
10
186.054
20
-180.614
11
185.911
21
-180.686
0
LINE
8
BLACK
6
CONTINUOUS
10
185.911
20
-180.686
11
185.626
21
-180.686
0
LINE
8
BLACK
6
CONTINUOUS
10
185.626
20
-180.686
11
185.483
21
-180.614
0
LINE
8
BLACK
6
CONTINUOUS
10
187.054
20
-180.686
11
186.911
21
-180.614
0
LINE
8
BLACK
6
CONTINUOUS
10
186.911
20
-180.614
11
186.84
21
-180.471
0
LINE
8
BLACK
6
CONTINUOUS
10
186.84
20
-180.471
11
186.84
21
-179.186
0
LINE
8
BLACK
6
CONTINUOUS
10
188.697
20
-180.614
11
188.911
21
-180.686
0
LINE
8
BLACK
6
CONTINUOUS
10
188.911
20
-180.686
11
189.269
21
-180.686
0
LINE
8
BLACK
6
CONTINUOUS
10
189.269
20
-180.686
11
189.411
21
-180.614
0
LINE
8
BLACK
6
CONTINUOUS
10
189.411
20
-180.614
11
189.483
21
-180.543
0
LINE
8
BLACK
6
CONTINUOUS
10
189.483
20
-180.543
11
189.554
21
-180.4
0
LINE
8
BLACK
6
CONTINUOUS
10
189.554
20
-180.4
11
189.554
21
-180.257
0
LINE
8
BLACK
6
CONTINUOUS
10
189.554
20
-180.257
11
189.483
21
-180.114
0
LINE
8
BLACK
6
CONTINUOUS
10
189.483
20
-180.114
11
189.411
21
-180.043
0
LINE
8
BLACK
6
CONTINUOUS
10
189.411
20
-180.043
11
189.269
21
-179.971
0
LINE
8
BLACK
6
CONTINUOUS
10
189.269
20
-179.971
11
188.983
21
-179.9
0
LINE
8
BLACK
6
CONTINUOUS
10
188.983
20
-179.9
11
188.84
21
-179.829
0
LINE
8
BLACK
6
CONTINUOUS
10
188.84
20
-179.829
11
188.769
21
-179.757
0
LINE
8
BLACK
6
CONTINUOUS
10
188.769
20
-179.757
11
188.697
21
-179.614
0
LINE
8
BLACK
6
CONTINUOUS
10
188.697
20
-179.614
11
188.697
21
-179.471
0
LINE
8
BLACK
6
CONTINUOUS
10
188.697
20
-179.471
11
188.769
21
-179.329
0
LINE
8
BLACK
6
CONTINUOUS
10
188.769
20
-179.329
11
188.84
21
-179.257
0
LINE
8
BLACK
6
CONTINUOUS
10
188.84
20
-179.257
11
188.983
21
-179.186
0
LINE
8
BLACK
6
CONTINUOUS
10
188.983
20
-179.186
11
189.34
21
-179.186
0
LINE
8
BLACK
6
CONTINUOUS
10
189.34
20
-179.186
11
189.554
21
-179.257
0
LINE
8
BLACK
6
CONTINUOUS
10
190.197
20
-179.686
11
190.197
21
-181.186
0
LINE
8
BLACK
6
CONTINUOUS
10
190.197
20
-179.757
11
190.34
21
-179.686
0
LINE
8
BLACK
6
CONTINUOUS
10
190.34
20
-179.686
11
190.626
21
-179.686
0
LINE
8
BLACK
6
CONTINUOUS
10
190.626
20
-179.686
11
190.769
21
-179.757
0
LINE
8
BLACK
6
CONTINUOUS
10
190.769
20
-179.757
11
190.84
21
-179.829
0
LINE
8
BLACK
6
CONTINUOUS
10
190.84
20
-179.829
11
190.911
21
-179.971
0
LINE
8
BLACK
6
CONTINUOUS
10
190.911
20
-179.971
11
190.911
21
-180.4
0
LINE
8
BLACK
6
CONTINUOUS
10
190.911
20
-180.4
11
190.84
21
-180.543
0
LINE
8
BLACK
6
CONTINUOUS
10
190.84
20
-180.543
11
190.769
21
-180.614
0
LINE
8
BLACK
6
CONTINUOUS
10
190.769
20
-180.614
11
190.626
21
-180.686
0
LINE
8
BLACK
6
CONTINUOUS
10
190.626
20
-180.686
11
190.34
21
-180.686
0
LINE
8
BLACK
6
CONTINUOUS
10
190.34
20
-180.686
11
190.197
21
-180.614
0
LINE
8
BLACK
6
CONTINUOUS
10
191.554
20
-180.543
11
191.626
21
-180.614
0
LINE
8
BLACK
6
CONTINUOUS
10
191.626
20
-180.614
11
191.554
21
-180.686
0
LINE
8
BLACK
6
CONTINUOUS
10
191.554
20
-180.686
11
191.483
21
-180.614
0
LINE
8
BLACK
6
CONTINUOUS
10
191.483
20
-180.614
11
191.554
21
-180.543
0
LINE
8
BLACK
6
CONTINUOUS
10
191.554
20
-180.543
11
191.554
21
-180.686
0
LINE
8
BLACK
6
CONTINUOUS
10
193.269
20
-179.686
11
194.054
21
-179.686
0
LINE
8
BLACK
6
CONTINUOUS
10
194.054
20
-179.686
11
193.269
21
-180.686
0
LINE
8
BLACK
6
CONTINUOUS
10
193.269
20
-180.686
11
194.054
21
-180.686
0
LINE
8
BLACK
6
CONTINUOUS
10
195.983
20
-180.686
11
195.84
21
-180.614
0
LINE
8
BLACK
6
CONTINUOUS
10
195.84
20
-180.614
11
195.769
21
-180.543
0
LINE
8
BLACK
6
CONTINUOUS
10
195.769
20
-180.543
11
195.697
21
-180.4
0
LINE
8
BLACK
6
CONTINUOUS
10
195.697
20
-180.4
11
195.697
21
-179.971
0
LINE
8
BLACK
6
CONTINUOUS
10
195.697
20
-179.971
11
195.769
21
-179.829
0
LINE
8
BLACK
6
CONTINUOUS
10
195.769
20
-179.829
11
195.84
21
-179.757
0
LINE
8
BLACK
6
CONTINUOUS
10
195.84
20
-179.757
11
195.983
21
-179.686
0
LINE
8
BLACK
6
CONTINUOUS
10
195.983
20
-179.686
11
196.197
21
-179.686
0
LINE
8
BLACK
6
CONTINUOUS
10
196.197
20
-179.686
11
196.34
21
-179.757
0
LINE
8
BLACK
6
CONTINUOUS
10
196.34
20
-179.757
11
196.411
21
-179.829
0
LINE
8
BLACK
6
CONTINUOUS
10
196.411
20
-179.829
11
196.483
21
-179.971
0
LINE
8
BLACK
6
CONTINUOUS
10
196.483
20
-179.971
11
196.483
21
-180.4
0
LINE
8
BLACK
6
CONTINUOUS
10
196.483
20
-180.4
11
196.411
21
-180.543
0
LINE
8
BLACK
6
CONTINUOUS
10
196.411
20
-180.543
11
196.34
21
-180.614
0
LINE
8
BLACK
6
CONTINUOUS
10
196.34
20
-180.614
11
196.197
21
-180.686
0
LINE
8
BLACK
6
CONTINUOUS
10
196.197
20
-180.686
11
195.983
21
-180.686
0
LINE
8
BLACK
6
CONTINUOUS
10
197.126
20
-180.543
11
197.197
21
-180.614
0
LINE
8
BLACK
6
CONTINUOUS
10
197.197
20
-180.614
11
197.126
21
-180.686
0
LINE
8
BLACK
6
CONTINUOUS
10
197.126
20
-180.686
11
197.054
21
-180.614
0
LINE
8
BLACK
6
CONTINUOUS
10
197.054
20
-180.614
11
197.126
21
-180.543
0
LINE
8
BLACK
6
CONTINUOUS
10
197.126
20
-180.543
11
197.126
21
-180.686
0
LINE
8
BLACK
6
CONTINUOUS
10
198.054
20
-180.686
11
197.911
21
-180.614
0
LINE
8
BLACK
6
CONTINUOUS
10
197.911
20
-180.614
11
197.84
21
-180.543
0
LINE
8
BLACK
6
CONTINUOUS
10
197.84
20
-180.543
11
197.769
21
-180.4
0
LINE
8
BLACK
6
CONTINUOUS
10
197.769
20
-180.4
11
197.769
21
-179.971
0
LINE
8
BLACK
6
CONTINUOUS
10
197.769
20
-179.971
11
197.84
21
-179.829
0
LINE
8
BLACK
6
CONTINUOUS
10
197.84
20
-179.829
11
197.911
21
-179.757
0
LINE
8
BLACK
6
CONTINUOUS
10
197.911
20
-179.757
11
198.054
21
-179.686
0
LINE
8
BLACK
6
CONTINUOUS
10
198.054
20
-179.686
11
198.269
21
-179.686
0
LINE
8
BLACK
6
CONTINUOUS
10
198.269
20
-179.686
11
198.411
21
-179.757
0
LINE
8
BLACK
6
CONTINUOUS
10
198.411
20
-179.757
11
198.483
21
-179.829
0
LINE
8
BLACK
6
CONTINUOUS
10
198.483
20
-179.829
11
198.554
21
-179.971
0
LINE
8
BLACK
6
CONTINUOUS
10
198.554
20
-179.971
11
198.554
21
-180.4
0
LINE
8
BLACK
6
CONTINUOUS
10
198.554
20
-180.4
11
198.483
21
-180.543
0
LINE
8
BLACK
6
CONTINUOUS
10
198.483
20
-180.543
11
198.411
21
-180.614
0
LINE
8
BLACK
6
CONTINUOUS
10
198.411
20
-180.614
11
198.269
21
-180.686
0
LINE
8
BLACK
6
CONTINUOUS
10
198.269
20
-180.686
11
198.054
21
-180.686
0
LINE
8
BLACK
6
CONTINUOUS
10
199.197
20
-180.543
11
199.269
21
-180.614
0
LINE
8
BLACK
6
CONTINUOUS
10
199.269
20
-180.614
11
199.197
21
-180.686
0
LINE
8
BLACK
6
CONTINUOUS
10
199.197
20
-180.686
11
199.126
21
-180.614
0
LINE
8
BLACK
6
CONTINUOUS
10
199.126
20
-180.614
11
199.197
21
-180.543
0
LINE
8
BLACK
6
CONTINUOUS
10
199.197
20
-180.543
11
199.197
21
-180.686
0
LINE
8
BLACK
6
CONTINUOUS
10
179.291
20
-177.686
11
178.791
21
-176.971
0
LINE
8
BLACK
6
CONTINUOUS
10
178.434
20
-177.686
11
178.434
21
-176.186
0
LINE
8
BLACK
6
CONTINUOUS
10
178.434
20
-176.186
11
179.006
21
-176.186
0
LINE
8
BLACK
6
CONTINUOUS
10
179.006
20
-176.186
11
179.149
21
-176.257
0
LINE
8
BLACK
6
CONTINUOUS
10
179.149
20
-176.257
11
179.22
21
-176.329
0
LINE
8
BLACK
6
CONTINUOUS
10
179.22
20
-176.329
11
179.291
21
-176.471
0
LINE
8
BLACK
6
CONTINUOUS
10
179.291
20
-176.471
11
179.291
21
-176.686
0
LINE
8
BLACK
6
CONTINUOUS
10
179.291
20
-176.686
11
179.22
21
-176.829
0
LINE
8
BLACK
6
CONTINUOUS
10
179.22
20
-176.829
11
179.149
21
-176.9
0
LINE
8
BLACK
6
CONTINUOUS
10
179.149
20
-176.9
11
179.006
21
-176.971
0
LINE
8
BLACK
6
CONTINUOUS
10
179.006
20
-176.971
11
178.434
21
-176.971
0
LINE
8
BLACK
6
CONTINUOUS
10
180.72
20
-176.257
11
180.577
21
-176.186
0
LINE
8
BLACK
6
CONTINUOUS
10
180.577
20
-176.186
11
180.363
21
-176.186
0
LINE
8
BLACK
6
CONTINUOUS
10
180.363
20
-176.186
11
180.149
21
-176.257
0
LINE
8
BLACK
6
CONTINUOUS
10
180.149
20
-176.257
11
180.006
21
-176.4
0
LINE
8
BLACK
6
CONTINUOUS
10
180.006
20
-176.4
11
179.934
21
-176.543
0
LINE
8
BLACK
6
CONTINUOUS
10
179.934
20
-176.543
11
179.863
21
-176.829
0
LINE
8
BLACK
6
CONTINUOUS
10
179.863
20
-176.829
11
179.863
21
-177.043
0
LINE
8
BLACK
6
CONTINUOUS
10
179.863
20
-177.043
11
179.934
21
-177.329
0
LINE
8
BLACK
6
CONTINUOUS
10
179.934
20
-177.329
11
180.006
21
-177.471
0
LINE
8
BLACK
6
CONTINUOUS
10
180.006
20
-177.471
11
180.149
21
-177.614
0
LINE
8
BLACK
6
CONTINUOUS
10
180.149
20
-177.614
11
180.363
21
-177.686
0
LINE
8
BLACK
6
CONTINUOUS
10
180.363
20
-177.686
11
180.506
21
-177.686
0
LINE
8
BLACK
6
CONTINUOUS
10
180.506
20
-177.686
11
180.72
21
-177.614
0
LINE
8
BLACK
6
CONTINUOUS
10
180.72
20
-177.614
11
180.791
21
-177.543
0
LINE
8
BLACK
6
CONTINUOUS
10
180.791
20
-177.543
11
180.791
21
-177.043
0
LINE
8
BLACK
6
CONTINUOUS
10
180.791
20
-177.043
11
180.506
21
-177.043
0
LINE
8
BLACK
6
CONTINUOUS
10
181.291
20
-176.186
11
181.649
21
-177.686
0
LINE
8
BLACK
6
CONTINUOUS
10
181.649
20
-177.686
11
181.934
21
-176.614
0
LINE
8
BLACK
6
CONTINUOUS
10
181.934
20
-176.614
11
182.22
21
-177.686
0
LINE
8
BLACK
6
CONTINUOUS
10
182.22
20
-177.686
11
182.577
21
-176.186
0
LINE
8
BLACK
6
CONTINUOUS
10
197.002
20
-191.507
11
197.002
21
-194.507
0
LINE
8
BLACK
6
CONTINUOUS
10
261.002
20
-191.507
11
261.002
21
-198.007
0
LINE
8
BLACK
6
CONTINUOUS
10
206.846
20
-36.7288
11
206.856
21
-36.7305
0
LINE
8
BLACK
6
CONTINUOUS
10
206.856
20
-36.7305
11
206.859
21
-36.7299
0
LINE
8
BLACK
6
CONTINUOUS
10
206.859
20
-36.7299
11
206.862
21
-36.7316
0
LINE
8
BLACK
6
CONTINUOUS
10
206.862
20
-36.7316
11
206.872
21
-36.7333
0
LINE
8
BLACK
6
CONTINUOUS
10
206.872
20
-36.7333
11
206.886
21
-36.7459
0
LINE
8
BLACK
6
CONTINUOUS
10
206.886
20
-36.7459
11
206.903
21
-36.7556
0
LINE
8
BLACK
6
CONTINUOUS
10
206.903
20
-36.7556
11
206.906
21
-36.762
0
LINE
8
BLACK
6
CONTINUOUS
10
206.906
20
-36.762
11
206.911
21
-36.7663
0
LINE
8
BLACK
6
CONTINUOUS
10
206.911
20
-36.7663
11
206.914
21
-36.7855
0
LINE
8
BLACK
6
CONTINUOUS
10
206.914
20
-36.7855
11
206.921
21
-36.8038
0
LINE
8
BLACK
6
CONTINUOUS
10
206.921
20
-36.8038
11
206.921
21
-122.27
0
LINE
8
BLACK
6
CONTINUOUS
10
206.921
20
-122.27
11
206.919
21
-122.28
0
LINE
8
BLACK
6
CONTINUOUS
10
206.919
20
-122.28
11
206.92
21
-122.283
0
LINE
8
BLACK
6
CONTINUOUS
10
206.92
20
-122.283
11
206.918
21
-122.286
0
LINE
8
BLACK
6
CONTINUOUS
10
206.918
20
-122.286
11
206.916
21
-122.295
0
LINE
8
BLACK
6
CONTINUOUS
10
206.916
20
-122.295
11
206.904
21
-122.31
0
LINE
8
BLACK
6
CONTINUOUS
10
206.904
20
-122.31
11
206.894
21
-122.327
0
LINE
8
BLACK
6
CONTINUOUS
10
206.894
20
-122.327
11
206.888
21
-122.33
0
LINE
8
BLACK
6
CONTINUOUS
10
206.888
20
-122.33
11
206.883
21
-122.335
0
LINE
8
BLACK
6
CONTINUOUS
10
206.883
20
-122.335
11
206.864
21
-122.338
0
LINE
8
BLACK
6
CONTINUOUS
10
206.864
20
-122.338
11
206.846
21
-122.345
0
LINE
8
BLACK
6
CONTINUOUS
10
206.846
20
-122.345
11
33.4909
21
-122.345
0
LINE
8
BLACK
6
CONTINUOUS
10
33.4909
20
-122.345
11
33.4811
21
-122.343
0
LINE
8
BLACK
6
CONTINUOUS
10
33.4811
20
-122.343
11
33.4778
21
-122.344
0
LINE
8
BLACK
6
CONTINUOUS
10
33.4778
20
-122.344
11
33.475
21
-122.342
0
LINE
8
BLACK
6
CONTINUOUS
10
33.475
20
-122.342
11
33.4652
21
-122.34
0
LINE
8
BLACK
6
CONTINUOUS
10
33.4652
20
-122.34
11
33.4503
21
-122.328
0
LINE
8
BLACK
6
CONTINUOUS
10
33.4503
20
-122.328
11
33.4334
21
-122.318
0
LINE
8
BLACK
6
CONTINUOUS
10
33.4334
20
-122.318
11
33.4311
21
-122.312
0
LINE
8
BLACK
6
CONTINUOUS
10
33.4311
20
-122.312
11
33.4259
21
-122.307
0
LINE
8
BLACK
6
CONTINUOUS
10
33.4259
20
-122.307
11
33.4225
21
-122.288
0
LINE
8
BLACK
6
CONTINUOUS
10
33.4225
20
-122.288
11
33.4159
21
-122.27
0
LINE
8
BLACK
6
CONTINUOUS
10
33.4159
20
-122.27
11
33.4163
21
-36.7559
0
LINE
8
BLACK
6
CONTINUOUS
10
33.4163
20
-36.7559
11
33.418
21
-36.7461
0
LINE
8
BLACK
6
CONTINUOUS
10
33.418
20
-36.7461
11
33.4174
21
-36.7428
0
LINE
8
BLACK
6
CONTINUOUS
10
33.4174
20
-36.7428
11
33.4191
21
-36.74
0
LINE
8
BLACK
6
CONTINUOUS
10
33.4191
20
-36.74
11
33.4208
21
-36.7302
0
LINE
8
BLACK
6
CONTINUOUS
10
33.4208
20
-36.7302
11
33.4334
21
-36.7153
0
LINE
8
BLACK
6
CONTINUOUS
10
33.4334
20
-36.7153
11
33.4431
21
-36.6984
0
LINE
8
BLACK
6
CONTINUOUS
10
33.4431
20
-36.6984
11
33.4495
21
-36.6961
0
LINE
8
BLACK
6
CONTINUOUS
10
33.4495
20
-36.6961
11
33.4538
21
-36.6909
0
LINE
8
BLACK
6
CONTINUOUS
10
33.4538
20
-36.6909
11
33.473
21
-36.6876
0
LINE
8
BLACK
6
CONTINUOUS
10
33.473
20
-36.6876
11
33.4913
21
-36.6809
0
LINE
8
BLACK
6
CONTINUOUS
10
33.4913
20
-36.6809
11
206.846
21
-36.7288
0
LINE
8
BLACK
6
CONTINUOUS
10
33.5659
20
-122.195
11
206.771
21
-122.195
0
LINE
8
BLACK
6
CONTINUOUS
10
206.771
20
-122.195
11
206.771
21
-36.8788
0
LINE
8
BLACK
6
CONTINUOUS
10
206.771
20
-36.8788
11
33.5663
21
-36.8309
0
LINE
8
BLACK
6
CONTINUOUS
10
33.5663
20
-36.8309
11
33.5659
21
-122.195
0
LINE
8
BLACK
6
CONTINUOUS
10
180.602
20
-114.804
11
180.695
21
-114.579
0
LINE
8
BLACK
6
CONTINUOUS
10
180.695
20
-114.579
11
180.823
21
-114.371
0
LINE
8
BLACK
6
CONTINUOUS
10
180.823
20
-114.371
11
180.981
21
-114.185
0
LINE
8
BLACK
6
CONTINUOUS
10
180.981
20
-114.185
11
181.167
21
-114.027
0
LINE
8
BLACK
6
CONTINUOUS
10
181.167
20
-114.027
11
181.375
21
-113.899
0
LINE
8
BLACK
6
CONTINUOUS
10
181.375
20
-113.899
11
181.6
21
-113.806
0
LINE
8
BLACK
6
CONTINUOUS
10
181.6
20
-113.806
11
181.838
21
-113.749
0
LINE
8
BLACK
6
CONTINUOUS
10
181.838
20
-113.749
11
182.081
21
-113.73
0
LINE
8
BLACK
6
CONTINUOUS
10
182.081
20
-113.73
11
182.324
21
-113.749
0
LINE
8
BLACK
6
CONTINUOUS
10
182.324
20
-113.749
11
182.561
21
-113.806
0
LINE
8
BLACK
6
CONTINUOUS
10
182.561
20
-113.806
11
182.787
21
-113.899
0
LINE
8
BLACK
6
CONTINUOUS
10
182.787
20
-113.899
11
182.995
21
-114.027
0
LINE
8
BLACK
6
CONTINUOUS
10
182.995
20
-114.027
11
183.18
21
-114.185
0
LINE
8
BLACK
6
CONTINUOUS
10
183.18
20
-114.185
11
183.339
21
-114.371
0
LINE
8
BLACK
6
CONTINUOUS
10
183.339
20
-114.371
11
183.466
21
-114.579
0
LINE
8
BLACK
6
CONTINUOUS
10
183.466
20
-114.579
11
183.56
21
-114.804
0
LINE
8
BLACK
6
CONTINUOUS
10
183.56
20
-114.804
11
183.617
21
-115.042
0
LINE
8
BLACK
6
CONTINUOUS
10
183.617
20
-115.042
11
183.636
21
-115.285
0
LINE
8
BLACK
6
CONTINUOUS
10
183.636
20
-115.285
11
183.617
21
-115.528
0
LINE
8
BLACK
6
CONTINUOUS
10
183.617
20
-115.528
11
183.56
21
-115.765
0
LINE
8
BLACK
6
CONTINUOUS
10
183.56
20
-115.765
11
183.466
21
-115.991
0
LINE
8
BLACK
6
CONTINUOUS
10
183.466
20
-115.991
11
183.339
21
-116.199
0
LINE
8
BLACK
6
CONTINUOUS
10
183.339
20
-116.199
11
183.18
21
-116.384
0
LINE
8
BLACK
6
CONTINUOUS
10
183.18
20
-116.384
11
182.995
21
-116.543
0
LINE
8
BLACK
6
CONTINUOUS
10
182.995
20
-116.543
11
182.787
21
-116.67
0
LINE
8
BLACK
6
CONTINUOUS
10
182.787
20
-116.67
11
182.561
21
-116.764
0
LINE
8
BLACK
6
CONTINUOUS
10
182.561
20
-116.764
11
182.324
21
-116.821
0
LINE
8
BLACK
6
CONTINUOUS
10
182.324
20
-116.821
11
182.081
21
-116.84
0
LINE
8
BLACK
6
CONTINUOUS
10
182.081
20
-116.84
11
181.838
21
-116.821
0
LINE
8
BLACK
6
CONTINUOUS
10
181.838
20
-116.821
11
181.6
21
-116.764
0
LINE
8
BLACK
6
CONTINUOUS
10
181.6
20
-116.764
11
181.375
21
-116.67
0
LINE
8
BLACK
6
CONTINUOUS
10
181.375
20
-116.67
11
181.167
21
-116.543
0
LINE
8
BLACK
6
CONTINUOUS
10
181.167
20
-116.543
11
180.981
21
-116.384
0
LINE
8
BLACK
6
CONTINUOUS
10
180.981
20
-116.384
11
180.823
21
-116.199
0
LINE
8
BLACK
6
CONTINUOUS
10
180.823
20
-116.199
11
180.695
21
-115.991
0
LINE
8
BLACK
6
CONTINUOUS
10
180.695
20
-115.991
11
180.602
21
-115.765
0
LINE
8
BLACK
6
CONTINUOUS
10
180.602
20
-115.765
11
180.545
21
-115.528
0
LINE
8
BLACK
6
CONTINUOUS
10
180.545
20
-115.528
11
180.526
21
-115.285
0
LINE
8
BLACK
6
CONTINUOUS
10
180.526
20
-115.285
11
180.529
21
-115.25
0
LINE
8
BLACK
6
CONTINUOUS
10
180.529
20
-115.25
11
180.545
21
-115.042
0
LINE
8
BLACK
6
CONTINUOUS
10
180.545
20
-115.042
11
180.602
21
-114.804
0
LINE
8
BLACK
6
CONTINUOUS
10
180.736
20
-115.706
11
180.822
21
-115.92
0
LINE
8
BLACK
6
CONTINUOUS
10
180.822
20
-115.92
11
180.943
21
-116.117
0
LINE
8
BLACK
6
CONTINUOUS
10
180.943
20
-116.117
11
181.094
21
-116.292
0
LINE
8
BLACK
6
CONTINUOUS
10
181.094
20
-116.292
11
181.272
21
-116.44
0
LINE
8
BLACK
6
CONTINUOUS
10
181.272
20
-116.44
11
181.472
21
-116.556
0
LINE
8
BLACK
6
CONTINUOUS
10
181.472
20
-116.556
11
181.688
21
-116.639
0
LINE
8
BLACK
6
CONTINUOUS
10
181.688
20
-116.639
11
181.914
21
-116.685
0
LINE
8
BLACK
6
CONTINUOUS
10
181.914
20
-116.685
11
182.145
21
-116.693
0
LINE
8
BLACK
6
CONTINUOUS
10
182.145
20
-116.693
11
182.374
21
-116.664
0
LINE
8
BLACK
6
CONTINUOUS
10
182.374
20
-116.664
11
182.595
21
-116.597
0
LINE
8
BLACK
6
CONTINUOUS
10
182.595
20
-116.597
11
182.803
21
-116.496
0
LINE
8
BLACK
6
CONTINUOUS
10
182.803
20
-116.496
11
182.991
21
-116.362
0
LINE
8
BLACK
6
CONTINUOUS
10
182.991
20
-116.362
11
183.154
21
-116.199
0
LINE
8
BLACK
6
CONTINUOUS
10
183.154
20
-116.199
11
183.289
21
-116.011
0
LINE
8
BLACK
6
CONTINUOUS
10
183.289
20
-116.011
11
183.392
21
-115.804
0
LINE
8
BLACK
6
CONTINUOUS
10
183.392
20
-115.804
11
183.459
21
-115.583
0
LINE
8
BLACK
6
CONTINUOUS
10
183.459
20
-115.583
11
183.489
21
-115.354
0
LINE
8
BLACK
6
CONTINUOUS
10
183.489
20
-115.354
11
183.491
21
-115.285
0
LINE
8
BLACK
6
CONTINUOUS
10
183.491
20
-115.285
11
183.472
21
-115.055
0
LINE
8
BLACK
6
CONTINUOUS
10
183.472
20
-115.055
11
183.415
21
-114.83
0
LINE
8
BLACK
6
CONTINUOUS
10
183.415
20
-114.83
11
183.323
21
-114.619
0
LINE
8
BLACK
6
CONTINUOUS
10
183.323
20
-114.619
11
183.198
21
-114.425
0
LINE
8
BLACK
6
CONTINUOUS
10
183.198
20
-114.425
11
183.042
21
-114.254
0
LINE
8
BLACK
6
CONTINUOUS
10
183.042
20
-114.254
11
182.861
21
-114.111
0
LINE
8
BLACK
6
CONTINUOUS
10
182.861
20
-114.111
11
182.659
21
-113.999
0
LINE
8
BLACK
6
CONTINUOUS
10
182.659
20
-113.999
11
182.441
21
-113.922
0
LINE
8
BLACK
6
CONTINUOUS
10
182.441
20
-113.922
11
182.214
21
-113.881
0
LINE
8
BLACK
6
CONTINUOUS
10
182.214
20
-113.881
11
181.983
21
-113.878
0
LINE
8
BLACK
6
CONTINUOUS
10
181.983
20
-113.878
11
181.754
21
-113.913
0
LINE
8
BLACK
6
CONTINUOUS
10
181.754
20
-113.913
11
181.535
21
-113.985
0
LINE
8
BLACK
6
CONTINUOUS
10
181.535
20
-113.985
11
181.33
21
-114.092
0
LINE
8
BLACK
6
CONTINUOUS
10
181.33
20
-114.092
11
181.145
21
-114.231
0
LINE
8
BLACK
6
CONTINUOUS
10
181.145
20
-114.231
11
180.985
21
-114.398
0
LINE
8
BLACK
6
CONTINUOUS
10
180.985
20
-114.398
11
180.855
21
-114.588
0
LINE
8
BLACK
6
CONTINUOUS
10
180.855
20
-114.588
11
180.758
21
-114.798
0
LINE
8
BLACK
6
CONTINUOUS
10
180.758
20
-114.798
11
180.696
21
-115.021
0
LINE
8
BLACK
6
CONTINUOUS
10
180.696
20
-115.021
11
180.671
21
-115.25
0
LINE
8
BLACK
6
CONTINUOUS
10
180.671
20
-115.25
11
180.685
21
-115.481
0
LINE
8
BLACK
6
CONTINUOUS
10
180.685
20
-115.481
11
180.736
21
-115.706
0
LINE
8
BLACK
6
CONTINUOUS
10
108.847
20
-109.724
11
108.94
21
-109.499
0
LINE
8
BLACK
6
CONTINUOUS
10
108.94
20
-109.499
11
109.068
21
-109.291
0
LINE
8
BLACK
6
CONTINUOUS
10
109.068
20
-109.291
11
109.226
21
-109.105
0
LINE
8
BLACK
6
CONTINUOUS
10
109.226
20
-109.105
11
109.412
21
-108.947
0
LINE
8
BLACK
6
CONTINUOUS
10
109.412
20
-108.947
11
109.62
21
-108.819
0
LINE
8
BLACK
6
CONTINUOUS
10
109.62
20
-108.819
11
109.845
21
-108.726
0
LINE
8
BLACK
6
CONTINUOUS
10
109.845
20
-108.726
11
110.083
21
-108.669
0
LINE
8
BLACK
6
CONTINUOUS
10
110.083
20
-108.669
11
110.326
21
-108.65
0
LINE
8
BLACK
6
CONTINUOUS
10
110.326
20
-108.65
11
110.569
21
-108.669
0
LINE
8
BLACK
6
CONTINUOUS
10
110.569
20
-108.669
11
110.806
21
-108.726
0
LINE
8
BLACK
6
CONTINUOUS
10
110.806
20
-108.726
11
111.032
21
-108.819
0
LINE
8
BLACK
6
CONTINUOUS
10
111.032
20
-108.819
11
111.24
21
-108.947
0
LINE
8
BLACK
6
CONTINUOUS
10
111.24
20
-108.947
11
111.425
21
-109.105
0
LINE
8
BLACK
6
CONTINUOUS
10
111.425
20
-109.105
11
111.584
21
-109.291
0
LINE
8
BLACK
6
CONTINUOUS
10
111.584
20
-109.291
11
111.711
21
-109.499
0
LINE
8
BLACK
6
CONTINUOUS
10
111.711
20
-109.499
11
111.805
21
-109.724
0
LINE
8
BLACK
6
CONTINUOUS
10
111.805
20
-109.724
11
111.862
21
-109.962
0
LINE
8
BLACK
6
CONTINUOUS
10
111.862
20
-109.962
11
111.881
21
-110.205
0
LINE
8
BLACK
6
CONTINUOUS
10
111.881
20
-110.205
11
111.862
21
-110.448
0
LINE
8
BLACK
6
CONTINUOUS
10
111.862
20
-110.448
11
111.805
21
-110.685
0
LINE
8
BLACK
6
CONTINUOUS
10
111.805
20
-110.685
11
111.711
21
-110.911
0
LINE
8
BLACK
6
CONTINUOUS
10
111.711
20
-110.911
11
111.584
21
-111.119
0
LINE
8
BLACK
6
CONTINUOUS
10
111.584
20
-111.119
11
111.425
21
-111.304
0
LINE
8
BLACK
6
CONTINUOUS
10
111.425
20
-111.304
11
111.24
21
-111.463
0
LINE
8
BLACK
6
CONTINUOUS
10
111.24
20
-111.463
11
111.032
21
-111.59
0
LINE
8
BLACK
6
CONTINUOUS
10
111.032
20
-111.59
11
110.806
21
-111.684
0
LINE
8
BLACK
6
CONTINUOUS
10
110.806
20
-111.684
11
110.569
21
-111.741
0
LINE
8
BLACK
6
CONTINUOUS
10
110.569
20
-111.741
11
110.326
21
-111.76
0
LINE
8
BLACK
6
CONTINUOUS
10
110.326
20
-111.76
11
110.083
21
-111.741
0
LINE
8
BLACK
6
CONTINUOUS
10
110.083
20
-111.741
11
109.845
21
-111.684
0
LINE
8
BLACK
6
CONTINUOUS
10
109.845
20
-111.684
11
109.62
21
-111.59
0
LINE
8
BLACK
6
CONTINUOUS
10
109.62
20
-111.59
11
109.412
21
-111.463
0
LINE
8
BLACK
6
CONTINUOUS
10
109.412
20
-111.463
11
109.226
21
-111.304
0
LINE
8
BLACK
6
CONTINUOUS
10
109.226
20
-111.304
11
109.068
21
-111.119
0
LINE
8
BLACK
6
CONTINUOUS
10
109.068
20
-111.119
11
108.94
21
-110.911
0
LINE
8
BLACK
6
CONTINUOUS
10
108.94
20
-110.911
11
108.847
21
-110.685
0
LINE
8
BLACK
6
CONTINUOUS
10
108.847
20
-110.685
11
108.79
21
-110.448
0
LINE
8
BLACK
6
CONTINUOUS
10
108.79
20
-110.448
11
108.771
21
-110.205
0
LINE
8
BLACK
6
CONTINUOUS
10
108.771
20
-110.205
11
108.774
21
-110.17
0
LINE
8
BLACK
6
CONTINUOUS
10
108.774
20
-110.17
11
108.79
21
-109.962
0
LINE
8
BLACK
6
CONTINUOUS
10
108.79
20
-109.962
11
108.847
21
-109.724
0
LINE
8
BLACK
6
CONTINUOUS
10
108.981
20
-110.626
11
109.067
21
-110.84
0
LINE
8
BLACK
6
CONTINUOUS
10
109.067
20
-110.84
11
109.188
21
-111.037
0
LINE
8
BLACK
6
CONTINUOUS
10
109.188
20
-111.037
11
109.339
21
-111.212
0
LINE
8
BLACK
6
CONTINUOUS
10
109.339
20
-111.212
11
109.517
21
-111.36
0
LINE
8
BLACK
6
CONTINUOUS
10
109.517
20
-111.36
11
109.717
21
-111.476
0
LINE
8
BLACK
6
CONTINUOUS
10
109.717
20
-111.476
11
109.933
21
-111.559
0
LINE
8
BLACK
6
CONTINUOUS
10
109.933
20
-111.559
11
110.159
21
-111.605
0
LINE
8
BLACK
6
CONTINUOUS
10
110.159
20
-111.605
11
110.39
21
-111.613
0
LINE
8
BLACK
6
CONTINUOUS
10
110.39
20
-111.613
11
110.619
21
-111.584
0
LINE
8
BLACK
6
CONTINUOUS
10
110.619
20
-111.584
11
110.84
21
-111.517
0
LINE
8
BLACK
6
CONTINUOUS
10
110.84
20
-111.517
11
111.048
21
-111.416
0
LINE
8
BLACK
6
CONTINUOUS
10
111.048
20
-111.416
11
111.236
21
-111.282
0
LINE
8
BLACK
6
CONTINUOUS
10
111.236
20
-111.282
11
111.399
21
-111.119
0
LINE
8
BLACK
6
CONTINUOUS
10
111.399
20
-111.119
11
111.534
21
-110.931
0
LINE
8
BLACK
6
CONTINUOUS
10
111.534
20
-110.931
11
111.637
21
-110.724
0
LINE
8
BLACK
6
CONTINUOUS
10
111.637
20
-110.724
11
111.704
21
-110.503
0
LINE
8
BLACK
6
CONTINUOUS
10
111.704
20
-110.503
11
111.734
21
-110.274
0
LINE
8
BLACK
6
CONTINUOUS
10
111.734
20
-110.274
11
111.736
21
-110.205
0
LINE
8
BLACK
6
CONTINUOUS
10
111.736
20
-110.205
11
111.717
21
-109.975
0
LINE
8
BLACK
6
CONTINUOUS
10
111.717
20
-109.975
11
111.66
21
-109.75
0
LINE
8
BLACK
6
CONTINUOUS
10
111.66
20
-109.75
11
111.568
21
-109.539
0
LINE
8
BLACK
6
CONTINUOUS
10
111.568
20
-109.539
11
111.443
21
-109.345
0
LINE
8
BLACK
6
CONTINUOUS
10
111.443
20
-109.345
11
111.287
21
-109.174
0
LINE
8
BLACK
6
CONTINUOUS
10
111.287
20
-109.174
11
111.106
21
-109.031
0
LINE
8
BLACK
6
CONTINUOUS
10
111.106
20
-109.031
11
110.904
21
-108.919
0
LINE
8
BLACK
6
CONTINUOUS
10
110.904
20
-108.919
11
110.686
21
-108.842
0
LINE
8
BLACK
6
CONTINUOUS
10
110.686
20
-108.842
11
110.459
21
-108.801
0
LINE
8
BLACK
6
CONTINUOUS
10
110.459
20
-108.801
11
110.228
21
-108.798
0
LINE
8
BLACK
6
CONTINUOUS
10
110.228
20
-108.798
11
109.999
21
-108.833
0
LINE
8
BLACK
6
CONTINUOUS
10
109.999
20
-108.833
11
109.78
21
-108.905
0
LINE
8
BLACK
6
CONTINUOUS
10
109.78
20
-108.905
11
109.575
21
-109.012
0
LINE
8
BLACK
6
CONTINUOUS
10
109.575
20
-109.012
11
109.39
21
-109.151
0
LINE
8
BLACK
6
CONTINUOUS
10
109.39
20
-109.151
11
109.23
21
-109.318
0
LINE
8
BLACK
6
CONTINUOUS
10
109.23
20
-109.318
11
109.1
21
-109.508
0
LINE
8
BLACK
6
CONTINUOUS
10
109.1
20
-109.508
11
109.003
21
-109.718
0
LINE
8
BLACK
6
CONTINUOUS
10
109.003
20
-109.718
11
108.941
21
-109.941
0
LINE
8
BLACK
6
CONTINUOUS
10
108.941
20
-109.941
11
108.916
21
-110.17
0
LINE
8
BLACK
6
CONTINUOUS
10
108.916
20
-110.17
11
108.93
21
-110.401
0
LINE
8
BLACK
6
CONTINUOUS
10
108.93
20
-110.401
11
108.981
21
-110.626
0
LINE
8
BLACK
6
CONTINUOUS
10
49.03
20
-98.9293
11
49.1234
21
-98.7038
0
LINE
8
BLACK
6
CONTINUOUS
10
49.1234
20
-98.7038
11
49.2508
21
-98.4958
0
LINE
8
BLACK
6
CONTINUOUS
10
49.2508
20
-98.4958
11
49.4093
21
-98.3103
0
LINE
8
BLACK
6
CONTINUOUS
10
49.4093
20
-98.3103
11
49.5949
21
-98.1518
0
LINE
8
BLACK
6
CONTINUOUS
10
49.5949
20
-98.1518
11
49.8029
21
-98.0243
0
LINE
8
BLACK
6
CONTINUOUS
10
49.8029
20
-98.0243
11
50.0283
21
-97.9309
0
LINE
8
BLACK
6
CONTINUOUS
10
50.0283
20
-97.9309
11
50.2656
21
-97.8739
0
LINE
8
BLACK
6
CONTINUOUS
10
50.2656
20
-97.8739
11
50.5089
21
-97.8548
0
LINE
8
BLACK
6
CONTINUOUS
10
50.5089
20
-97.8548
11
50.7521
21
-97.8739
0
LINE
8
BLACK
6
CONTINUOUS
10
50.7521
20
-97.8739
11
50.9894
21
-97.9309
0
LINE
8
BLACK
6
CONTINUOUS
10
50.9894
20
-97.9309
11
51.2148
21
-98.0243
0
LINE
8
BLACK
6
CONTINUOUS
10
51.2148
20
-98.0243
11
51.4229
21
-98.1518
0
LINE
8
BLACK
6
CONTINUOUS
10
51.4229
20
-98.1518
11
51.6084
21
-98.3103
0
LINE
8
BLACK
6
CONTINUOUS
10
51.6084
20
-98.3103
11
51.7669
21
-98.4958
0
LINE
8
BLACK
6
CONTINUOUS
10
51.7669
20
-98.4958
11
51.8944
21
-98.7038
0
LINE
8
BLACK
6
CONTINUOUS
10
51.8944
20
-98.7038
11
51.9878
21
-98.9293
0
LINE
8
BLACK
6
CONTINUOUS
10
51.9878
20
-98.9293
11
52.0447
21
-99.1665
0
LINE
8
BLACK
6
CONTINUOUS
10
52.0447
20
-99.1665
11
52.0639
21
-99.4098
0
LINE
8
BLACK
6
CONTINUOUS
10
52.0639
20
-99.4098
11
52.0447
21
-99.6531
0
LINE
8
BLACK
6
CONTINUOUS
10
52.0447
20
-99.6531
11
51.9878
21
-99.8903
0
LINE
8
BLACK
6
CONTINUOUS
10
51.9878
20
-99.8903
11
51.8944
21
-100.116
0
LINE
8
BLACK
6
CONTINUOUS
10
51.8944
20
-100.116
11
51.7669
21
-100.324
0
LINE
8
BLACK
6
CONTINUOUS
10
51.7669
20
-100.324
11
51.6084
21
-100.509
0
LINE
8
BLACK
6
CONTINUOUS
10
51.6084
20
-100.509
11
51.4229
21
-100.668
0
LINE
8
BLACK
6
CONTINUOUS
10
51.4229
20
-100.668
11
51.2148
21
-100.795
0
LINE
8
BLACK
6
CONTINUOUS
10
51.2148
20
-100.795
11
50.9894
21
-100.889
0
LINE
8
BLACK
6
CONTINUOUS
10
50.9894
20
-100.889
11
50.7521
21
-100.946
0
LINE
8
BLACK
6
CONTINUOUS
10
50.7521
20
-100.946
11
50.5089
21
-100.965
0
LINE
8
BLACK
6
CONTINUOUS
10
50.5089
20
-100.965
11
50.2656
21
-100.946
0
LINE
8
BLACK
6
CONTINUOUS
10
50.2656
20
-100.946
11
50.0283
21
-100.889
0
LINE
8
BLACK
6
CONTINUOUS
10
50.0283
20
-100.889
11
49.8029
21
-100.795
0
LINE
8
BLACK
6
CONTINUOUS
10
49.8029
20
-100.795
11
49.5949
21
-100.668
0
LINE
8
BLACK
6
CONTINUOUS
10
49.5949
20
-100.668
11
49.4093
21
-100.509
0
LINE
8
BLACK
6
CONTINUOUS
10
49.4093
20
-100.509
11
49.2508
21
-100.324
0
LINE
8
BLACK
6
CONTINUOUS
10
49.2508
20
-100.324
11
49.1234
21
-100.116
0
LINE
8
BLACK
6
CONTINUOUS
10
49.1234
20
-100.116
11
49.03
21
-99.8903
0
LINE
8
BLACK
6
CONTINUOUS
10
49.03
20
-99.8903
11
48.973
21
-99.6531
0
LINE
8
BLACK
6
CONTINUOUS
10
48.973
20
-99.6531
11
48.9539
21
-99.4098
0
LINE
8
BLACK
6
CONTINUOUS
10
48.9539
20
-99.4098
11
48.9566
21
-99.3754
0
LINE
8
BLACK
6
CONTINUOUS
10
48.9566
20
-99.3754
11
48.973
21
-99.1665
0
LINE
8
BLACK
6
CONTINUOUS
10
48.973
20
-99.1665
11
49.03
21
-98.9293
0
LINE
8
BLACK
6
CONTINUOUS
10
49.1636
20
-99.8314
11
49.2505
21
-100.045
0
LINE
8
BLACK
6
CONTINUOUS
10
49.2505
20
-100.045
11
49.3712
21
-100.242
0
LINE
8
BLACK
6
CONTINUOUS
10
49.3712
20
-100.242
11
49.5225
21
-100.417
0
LINE
8
BLACK
6
CONTINUOUS
10
49.5225
20
-100.417
11
49.7002
21
-100.565
0
LINE
8
BLACK
6
CONTINUOUS
10
49.7002
20
-100.565
11
49.8997
21
-100.681
0
LINE
8
BLACK
6
CONTINUOUS
10
49.8997
20
-100.681
11
50.1155
21
-100.764
0
LINE
8
BLACK
6
CONTINUOUS
10
50.1155
20
-100.764
11
50.3419
21
-100.81
0
LINE
8
BLACK
6
CONTINUOUS
10
50.3419
20
-100.81
11
50.5728
21
-100.818
0
LINE
8
BLACK
6
CONTINUOUS
10
50.5728
20
-100.818
11
50.802
21
-100.789
0
LINE
8
BLACK
6
CONTINUOUS
10
50.802
20
-100.789
11
51.0233
21
-100.722
0
LINE
8
BLACK
6
CONTINUOUS
10
51.0233
20
-100.722
11
51.2308
21
-100.621
0
LINE
8
BLACK
6
CONTINUOUS
10
51.2308
20
-100.621
11
51.4188
21
-100.487
0
LINE
8
BLACK
6
CONTINUOUS
10
51.4188
20
-100.487
11
51.5825
21
-100.324
0
LINE
8
BLACK
6
CONTINUOUS
10
51.5825
20
-100.324
11
51.7173
21
-100.136
0
LINE
8
BLACK
6
CONTINUOUS
10
51.7173
20
-100.136
11
51.8197
21
-99.9288
0
LINE
8
BLACK
6
CONTINUOUS
10
51.8197
20
-99.9288
11
51.8868
21
-99.7077
0
LINE
8
BLACK
6
CONTINUOUS
10
51.8868
20
-99.7077
11
51.917
21
-99.4787
0
LINE
8
BLACK
6
CONTINUOUS
10
51.917
20
-99.4787
11
51.9187
21
-99.4098
0
LINE
8
BLACK
6
CONTINUOUS
10
51.9187
20
-99.4098
11
51.8997
21
-99.1795
0
LINE
8
BLACK
6
CONTINUOUS
10
51.8997
20
-99.1795
11
51.8435
21
-98.9555
0
LINE
8
BLACK
6
CONTINUOUS
10
51.8435
20
-98.9555
11
51.7513
21
-98.7436
0
LINE
8
BLACK
6
CONTINUOUS
10
51.7513
20
-98.7436
11
51.6258
21
-98.5496
0
LINE
8
BLACK
6
CONTINUOUS
10
51.6258
20
-98.5496
11
51.4704
21
-98.3787
0
LINE
8
BLACK
6
CONTINUOUS
10
51.4704
20
-98.3787
11
51.289
21
-98.2355
0
LINE
8
BLACK
6
CONTINUOUS
10
51.289
20
-98.2355
11
51.0868
21
-98.1239
0
LINE
8
BLACK
6
CONTINUOUS
10
51.0868
20
-98.1239
11
50.869
21
-98.0468
0
LINE
8
BLACK
6
CONTINUOUS
10
50.869
20
-98.0468
11
50.6415
21
-98.0062
0
LINE
8
BLACK
6
CONTINUOUS
10
50.6415
20
-98.0062
11
50.4105
21
-98.0034
0
LINE
8
BLACK
6
CONTINUOUS
10
50.4105
20
-98.0034
11
50.1821
21
-98.0384
0
LINE
8
BLACK
6
CONTINUOUS
10
50.1821
20
-98.0384
11
49.9625
21
-98.1101
0
LINE
8
BLACK
6
CONTINUOUS
10
49.9625
20
-98.1101
11
49.7576
21
-98.2168
0
LINE
8
BLACK
6
CONTINUOUS
10
49.7576
20
-98.2168
11
49.5729
21
-98.3555
0
LINE
8
BLACK
6
CONTINUOUS
10
49.5729
20
-98.3555
11
49.4132
21
-98.5226
0
LINE
8
BLACK
6
CONTINUOUS
10
49.4132
20
-98.5226
11
49.283
21
-98.7134
0
LINE
8
BLACK
6
CONTINUOUS
10
49.283
20
-98.7134
11
49.1858
21
-98.923
0
LINE
8
BLACK
6
CONTINUOUS
10
49.1858
20
-98.923
11
49.124
21
-99.1456
0
LINE
8
BLACK
6
CONTINUOUS
10
49.124
20
-99.1456
11
49.0995
21
-99.3754
0
LINE
8
BLACK
6
CONTINUOUS
10
49.0995
20
-99.3754
11
49.1128
21
-99.606
0
LINE
8
BLACK
6
CONTINUOUS
10
49.1128
20
-99.606
11
49.1636
21
-99.8314
0
LINE
8
BLACK
6
CONTINUOUS
10
49.03
20
-49.3855
11
49.1234
21
-49.1601
0
LINE
8
BLACK
6
CONTINUOUS
10
49.1234
20
-49.1601
11
49.2508
21
-48.952
0
LINE
8
BLACK
6
CONTINUOUS
10
49.2508
20
-48.952
11
49.4093
21
-48.7665
0
LINE
8
BLACK
6
CONTINUOUS
10
49.4093
20
-48.7665
11
49.5949
21
-48.608
0
LINE
8
BLACK
6
CONTINUOUS
10
49.5949
20
-48.608
11
49.8029
21
-48.4805
0
LINE
8
BLACK
6
CONTINUOUS
10
49.8029
20
-48.4805
11
50.0283
21
-48.3871
0
LINE
8
BLACK
6
CONTINUOUS
10
50.0283
20
-48.3871
11
50.2656
21
-48.3302
0
LINE
8
BLACK
6
CONTINUOUS
10
50.2656
20
-48.3302
11
50.5089
21
-48.311
0
LINE
8
BLACK
6
CONTINUOUS
10
50.5089
20
-48.311
11
50.7521
21
-48.3302
0
LINE
8
BLACK
6
CONTINUOUS
10
50.7521
20
-48.3302
11
50.9894
21
-48.3871
0
LINE
8
BLACK
6
CONTINUOUS
10
50.9894
20
-48.3871
11
51.2148
21
-48.4805
0
LINE
8
BLACK
6
CONTINUOUS
10
51.2148
20
-48.4805
11
51.4229
21
-48.608
0
LINE
8
BLACK
6
CONTINUOUS
10
51.4229
20
-48.608
11
51.6084
21
-48.7665
0
LINE
8
BLACK
6
CONTINUOUS
10
51.6084
20
-48.7665
11
51.7669
21
-48.952
0
LINE
8
BLACK
6
CONTINUOUS
10
51.7669
20
-48.952
11
51.8944
21
-49.1601
0
LINE
8
BLACK
6
CONTINUOUS
10
51.8944
20
-49.1601
11
51.9878
21
-49.3855
0
LINE
8
BLACK
6
CONTINUOUS
10
51.9878
20
-49.3855
11
52.0447
21
-49.6228
0
LINE
8
BLACK
6
CONTINUOUS
10
52.0447
20
-49.6228
11
52.0639
21
-49.866
0
LINE
8
BLACK
6
CONTINUOUS
10
52.0639
20
-49.866
11
52.0447
21
-50.1093
0
LINE
8
BLACK
6
CONTINUOUS
10
52.0447
20
-50.1093
11
51.9878
21
-50.3466
0
LINE
8
BLACK
6
CONTINUOUS
10
51.9878
20
-50.3466
11
51.8944
21
-50.572
0
LINE
8
BLACK
6
CONTINUOUS
10
51.8944
20
-50.572
11
51.7669
21
-50.78
0
LINE
8
BLACK
6
CONTINUOUS
10
51.7669
20
-50.78
11
51.6084
21
-50.9656
0
LINE
8
BLACK
6
CONTINUOUS
10
51.6084
20
-50.9656
11
51.4229
21
-51.1241
0
LINE
8
BLACK
6
CONTINUOUS
10
51.4229
20
-51.1241
11
51.2148
21
-51.2516
0
LINE
8
BLACK
6
CONTINUOUS
10
51.2148
20
-51.2516
11
50.9894
21
-51.3449
0
LINE
8
BLACK
6
CONTINUOUS
10
50.9894
20
-51.3449
11
50.7521
21
-51.4019
0
LINE
8
BLACK
6
CONTINUOUS
10
50.7521
20
-51.4019
11
50.5089
21
-51.421
0
LINE
8
BLACK
6
CONTINUOUS
10
50.5089
20
-51.421
11
50.2656
21
-51.4019
0
LINE
8
BLACK
6
CONTINUOUS
10
50.2656
20
-51.4019
11
50.0283
21
-51.3449
0
LINE
8
BLACK
6
CONTINUOUS
10
50.0283
20
-51.3449
11
49.8029
21
-51.2516
0
LINE
8
BLACK
6
CONTINUOUS
10
49.8029
20
-51.2516
11
49.5949
21
-51.1241
0
LINE
8
BLACK
6
CONTINUOUS
10
49.5949
20
-51.1241
11
49.4093
21
-50.9656
0
LINE
8
BLACK
6
CONTINUOUS
10
49.4093
20
-50.9656
11
49.2508
21
-50.78
0
LINE
8
BLACK
6
CONTINUOUS
10
49.2508
20
-50.78
11
49.1234
21
-50.572
0
LINE
8
BLACK
6
CONTINUOUS
10
49.1234
20
-50.572
11
49.03
21
-50.3466
0
LINE
8
BLACK
6
CONTINUOUS
10
49.03
20
-50.3466
11
48.973
21
-50.1093
0
LINE
8
BLACK
6
CONTINUOUS
10
48.973
20
-50.1093
11
48.9539
21
-49.866
0
LINE
8
BLACK
6
CONTINUOUS
10
48.9539
20
-49.866
11
48.9566
21
-49.8316
0
LINE
8
BLACK
6
CONTINUOUS
10
48.9566
20
-49.8316
11
48.973
21
-49.6228
0
LINE
8
BLACK
6
CONTINUOUS
10
48.973
20
-49.6228
11
49.03
21
-49.3855
0
LINE
8
BLACK
6
CONTINUOUS
10
49.1636
20
-50.2876
11
49.2505
21
-50.5017
0
LINE
8
BLACK
6
CONTINUOUS
10
49.2505
20
-50.5017
11
49.3712
21
-50.6987
0
LINE
8
BLACK
6
CONTINUOUS
10
49.3712
20
-50.6987
11
49.5225
21
-50.8733
0
LINE
8
BLACK
6
CONTINUOUS
10
49.5225
20
-50.8733
11
49.7002
21
-51.0209
0
LINE
8
BLACK
6
CONTINUOUS
10
49.7002
20
-51.0209
11
49.8997
21
-51.1375
0
LINE
8
BLACK
6
CONTINUOUS
10
49.8997
20
-51.1375
11
50.1155
21
-51.2199
0
LINE
8
BLACK
6
CONTINUOUS
10
50.1155
20
-51.2199
11
50.3419
21
-51.2659
0
LINE
8
BLACK
6
CONTINUOUS
10
50.3419
20
-51.2659
11
50.5728
21
-51.2744
0
LINE
8
BLACK
6
CONTINUOUS
10
50.5728
20
-51.2744
11
50.802
21
-51.245
0
LINE
8
BLACK
6
CONTINUOUS
10
50.802
20
-51.245
11
51.0233
21
-51.1787
0
LINE
8
BLACK
6
CONTINUOUS
10
51.0233
20
-51.1787
11
51.2308
21
-51.077
0
LINE
8
BLACK
6
CONTINUOUS
10
51.2308
20
-51.077
11
51.4188
21
-50.9429
0
LINE
8
BLACK
6
CONTINUOUS
10
51.4188
20
-50.9429
11
51.5825
21
-50.7798
0
LINE
8
BLACK
6
CONTINUOUS
10
51.5825
20
-50.7798
11
51.7173
21
-50.5922
0
LINE
8
BLACK
6
CONTINUOUS
10
51.7173
20
-50.5922
11
51.8197
21
-50.385
0
LINE
8
BLACK
6
CONTINUOUS
10
51.8197
20
-50.385
11
51.8868
21
-50.164
0
LINE
8
BLACK
6
CONTINUOUS
10
51.8868
20
-50.164
11
51.917
21
-49.9349
0
LINE
8
BLACK
6
CONTINUOUS
10
51.917
20
-49.9349
11
51.9187
21
-49.866
0
LINE
8
BLACK
6
CONTINUOUS
10
51.9187
20
-49.866
11
51.8997
21
-49.6358
0
LINE
8
BLACK
6
CONTINUOUS
10
51.8997
20
-49.6358
11
51.8435
21
-49.4117
0
LINE
8
BLACK
6
CONTINUOUS
10
51.8435
20
-49.4117
11
51.7513
21
-49.1998
0
LINE
8
BLACK
6
CONTINUOUS
10
51.7513
20
-49.1998
11
51.6258
21
-49.0059
0
LINE
8
BLACK
6
CONTINUOUS
10
51.6258
20
-49.0059
11
51.4704
21
-48.835
0
LINE
8
BLACK
6
CONTINUOUS
10
51.4704
20
-48.835
11
51.289
21
-48.6918
0
LINE
8
BLACK
6
CONTINUOUS
10
51.289
20
-48.6918
11
51.0868
21
-48.5801
0
LINE
8
BLACK
6
CONTINUOUS
10
51.0868
20
-48.5801
11
50.869
21
-48.503
0
LINE
8
BLACK
6
CONTINUOUS
10
50.869
20
-48.503
11
50.6415
21
-48.4625
0
LINE
8
BLACK
6
CONTINUOUS
10
50.6415
20
-48.4625
11
50.4105
21
-48.4597
0
LINE
8
BLACK
6
CONTINUOUS
10
50.4105
20
-48.4597
11
50.1821
21
-48.4946
0
LINE
8
BLACK
6
CONTINUOUS
10
50.1821
20
-48.4946
11
49.9625
21
-48.5664
0
LINE
8
BLACK
6
CONTINUOUS
10
49.9625
20
-48.5664
11
49.7576
21
-48.6731
0
LINE
8
BLACK
6
CONTINUOUS
10
49.7576
20
-48.6731
11
49.5729
21
-48.8118
0
LINE
8
BLACK
6
CONTINUOUS
10
49.5729
20
-48.8118
11
49.4132
21
-48.9788
0
LINE
8
BLACK
6
CONTINUOUS
10
49.4132
20
-48.9788
11
49.283
21
-49.1697
0
LINE
8
BLACK
6
CONTINUOUS
10
49.283
20
-49.1697
11
49.1858
21
-49.3792
0
LINE
8
BLACK
6
CONTINUOUS
10
49.1858
20
-49.3792
11
49.124
21
-49.6019
0
LINE
8
BLACK
6
CONTINUOUS
10
49.124
20
-49.6019
11
49.0995
21
-49.8316
0
LINE
8
BLACK
6
CONTINUOUS
10
49.0995
20
-49.8316
11
49.1128
21
-50.0623
0
LINE
8
BLACK
6
CONTINUOUS
10
49.1128
20
-50.0623
11
49.1636
21
-50.2876
0
LINE
8
BLACK
6
CONTINUOUS
10
201.557
20
-42.7655
11
201.65
21
-42.5401
0
LINE
8
BLACK
6
CONTINUOUS
10
201.65
20
-42.5401
11
201.778
21
-42.332
0
LINE
8
BLACK
6
CONTINUOUS
10
201.778
20
-42.332
11
201.936
21
-42.1465
0
LINE
8
BLACK
6
CONTINUOUS
10
201.936
20
-42.1465
11
202.122
21
-41.988
0
LINE
8
BLACK
6
CONTINUOUS
10
202.122
20
-41.988
11
202.33
21
-41.8605
0
LINE
8
BLACK
6
CONTINUOUS
10
202.33
20
-41.8605
11
202.555
21
-41.7672
0
LINE
8
BLACK
6
CONTINUOUS
10
202.555
20
-41.7672
11
202.793
21
-41.7102
0
LINE
8
BLACK
6
CONTINUOUS
10
202.793
20
-41.7102
11
203.036
21
-41.691
0
LINE
8
BLACK
6
CONTINUOUS
10
203.036
20
-41.691
11
203.279
21
-41.7102
0
LINE
8
BLACK
6
CONTINUOUS
10
203.279
20
-41.7102
11
203.516
21
-41.7672
0
LINE
8
BLACK
6
CONTINUOUS
10
203.516
20
-41.7672
11
203.742
21
-41.8605
0
LINE
8
BLACK
6
CONTINUOUS
10
203.742
20
-41.8605
11
203.95
21
-41.988
0
LINE
8
BLACK
6
CONTINUOUS
10
203.95
20
-41.988
11
204.135
21
-42.1465
0
LINE
8
BLACK
6
CONTINUOUS
10
204.135
20
-42.1465
11
204.294
21
-42.332
0
LINE
8
BLACK
6
CONTINUOUS
10
204.294
20
-42.332
11
204.421
21
-42.5401
0
LINE
8
BLACK
6
CONTINUOUS
10
204.421
20
-42.5401
11
204.515
21
-42.7655
0
LINE
8
BLACK
6
CONTINUOUS
10
204.515
20
-42.7655
11
204.572
21
-43.0028
0
LINE
8
BLACK
6
CONTINUOUS
10
204.572
20
-43.0028
11
204.591
21
-43.246
0
LINE
8
BLACK
6
CONTINUOUS
10
204.591
20
-43.246
11
204.572
21
-43.4893
0
LINE
8
BLACK
6
CONTINUOUS
10
204.572
20
-43.4893
11
204.515
21
-43.7266
0
LINE
8
BLACK
6
CONTINUOUS
10
204.515
20
-43.7266
11
204.421
21
-43.952
0
LINE
8
BLACK
6
CONTINUOUS
10
204.421
20
-43.952
11
204.294
21
-44.16
0
LINE
8
BLACK
6
CONTINUOUS
10
204.294
20
-44.16
11
204.135
21
-44.3456
0
LINE
8
BLACK
6
CONTINUOUS
10
204.135
20
-44.3456
11
203.95
21
-44.5041
0
LINE
8
BLACK
6
CONTINUOUS
10
203.95
20
-44.5041
11
203.742
21
-44.6316
0
LINE
8
BLACK
6
CONTINUOUS
10
203.742
20
-44.6316
11
203.516
21
-44.7249
0
LINE
8
BLACK
6
CONTINUOUS
10
203.516
20
-44.7249
11
203.279
21
-44.7819
0
LINE
8
BLACK
6
CONTINUOUS
10
203.279
20
-44.7819
11
203.036
21
-44.801
0
LINE
8
BLACK
6
CONTINUOUS
10
203.036
20
-44.801
11
202.793
21
-44.7819
0
LINE
8
BLACK
6
CONTINUOUS
10
202.793
20
-44.7819
11
202.555
21
-44.7249
0
LINE
8
BLACK
6
CONTINUOUS
10
202.555
20
-44.7249
11
202.33
21
-44.6316
0
LINE
8
BLACK
6
CONTINUOUS
10
202.33
20
-44.6316
11
202.122
21
-44.5041
0
LINE
8
BLACK
6
CONTINUOUS
10
202.122
20
-44.5041
11
201.936
21
-44.3456
0
LINE
8
BLACK
6
CONTINUOUS
10
201.936
20
-44.3456
11
201.778
21
-44.16
0
LINE
8
BLACK
6
CONTINUOUS
10
201.778
20
-44.16
11
201.65
21
-43.952
0
LINE
8
BLACK
6
CONTINUOUS
10
201.65
20
-43.952
11
201.557
21
-43.7266
0
LINE
8
BLACK
6
CONTINUOUS
10
201.557
20
-43.7266
11
201.5
21
-43.4893
0
LINE
8
BLACK
6
CONTINUOUS
10
201.5
20
-43.4893
11
201.481
21
-43.246
0
LINE
8
BLACK
6
CONTINUOUS
10
201.481
20
-43.246
11
201.484
21
-43.2116
0
LINE
8
BLACK
6
CONTINUOUS
10
201.484
20
-43.2116
11
201.5
21
-43.0028
0
LINE
8
BLACK
6
CONTINUOUS
10
201.5
20
-43.0028
11
201.557
21
-42.7655
0
LINE
8
BLACK
6
CONTINUOUS
10
201.691
20
-43.6676
11
201.777
21
-43.8817
0
LINE
8
BLACK
6
CONTINUOUS
10
201.777
20
-43.8817
11
201.898
21
-44.0787
0
LINE
8
BLACK
6
CONTINUOUS
10
201.898
20
-44.0787
11
202.049
21
-44.2533
0
LINE
8
BLACK
6
CONTINUOUS
10
202.049
20
-44.2533
11
202.227
21
-44.4009
0
LINE
8
BLACK
6
CONTINUOUS
10
202.227
20
-44.4009
11
202.427
21
-44.5175
0
LINE
8
BLACK
6
CONTINUOUS
10
202.427
20
-44.5175
11
202.643
21
-44.5999
0
LINE
8
BLACK
6
CONTINUOUS
10
202.643
20
-44.5999
11
202.869
21
-44.6459
0
LINE
8
BLACK
6
CONTINUOUS
10
202.869
20
-44.6459
11
203.1
21
-44.6544
0
LINE
8
BLACK
6
CONTINUOUS
10
203.1
20
-44.6544
11
203.329
21
-44.625
0
LINE
8
BLACK
6
CONTINUOUS
10
203.329
20
-44.625
11
203.55
21
-44.5587
0
LINE
8
BLACK
6
CONTINUOUS
10
203.55
20
-44.5587
11
203.758
21
-44.457
0
LINE
8
BLACK
6
CONTINUOUS
10
203.758
20
-44.457
11
203.946
21
-44.3229
0
LINE
8
BLACK
6
CONTINUOUS
10
203.946
20
-44.3229
11
204.109
21
-44.1598
0
LINE
8
BLACK
6
CONTINUOUS
10
204.109
20
-44.1598
11
204.244
21
-43.9722
0
LINE
8
BLACK
6
CONTINUOUS
10
204.244
20
-43.9722
11
204.347
21
-43.765
0
LINE
8
BLACK
6
CONTINUOUS
10
204.347
20
-43.765
11
204.414
21
-43.544
0
LINE
8
BLACK
6
CONTINUOUS
10
204.414
20
-43.544
11
204.444
21
-43.3149
0
LINE
8
BLACK
6
CONTINUOUS
10
204.444
20
-43.3149
11
204.446
21
-43.246
0
LINE
8
BLACK
6
CONTINUOUS
10
204.446
20
-43.246
11
204.427
21
-43.0158
0
LINE
8
BLACK
6
CONTINUOUS
10
204.427
20
-43.0158
11
204.37
21
-42.7917
0
LINE
8
BLACK
6
CONTINUOUS
10
204.37
20
-42.7917
11
204.278
21
-42.5798
0
LINE
8
BLACK
6
CONTINUOUS
10
204.278
20
-42.5798
11
204.153
21
-42.3859
0
LINE
8
BLACK
6
CONTINUOUS
10
204.153
20
-42.3859
11
203.997
21
-42.215
0
LINE
8
BLACK
6
CONTINUOUS
10
203.997
20
-42.215
11
203.816
21
-42.0718
0
LINE
8
BLACK
6
CONTINUOUS
10
203.816
20
-42.0718
11
203.614
21
-41.9601
0
LINE
8
BLACK
6
CONTINUOUS
10
203.614
20
-41.9601
11
203.396
21
-41.883
0
LINE
8
BLACK
6
CONTINUOUS
10
203.396
20
-41.883
11
203.169
21
-41.8425
0
LINE
8
BLACK
6
CONTINUOUS
10
203.169
20
-41.8425
11
202.938
21
-41.8397
0
LINE
8
BLACK
6
CONTINUOUS
10
202.938
20
-41.8397
11
202.709
21
-41.8746
0
LINE
8
BLACK
6
CONTINUOUS
10
202.709
20
-41.8746
11
202.49
21
-41.9464
0
LINE
8
BLACK
6
CONTINUOUS
10
202.49
20
-41.9464
11
202.285
21
-42.0531
0
LINE
8
BLACK
6
CONTINUOUS
10
202.285
20
-42.0531
11
202.1
21
-42.1918
0
LINE
8
BLACK
6
CONTINUOUS
10
202.1
20
-42.1918
11
201.94
21
-42.3588
0
LINE
8
BLACK
6
CONTINUOUS
10
201.94
20
-42.3588
11
201.81
21
-42.5497
0
LINE
8
BLACK
6
CONTINUOUS
10
201.81
20
-42.5497
11
201.713
21
-42.7592
0
LINE
8
BLACK
6
CONTINUOUS
10
201.713
20
-42.7592
11
201.651
21
-42.9819
0
LINE
8
BLACK
6
CONTINUOUS
10
201.651
20
-42.9819
11
201.626
21
-43.2116
0
LINE
8
BLACK
6
CONTINUOUS
10
201.626
20
-43.2116
11
201.64
21
-43.4423
0
LINE
8
BLACK
6
CONTINUOUS
10
201.64
20
-43.4423
11
201.691
21
-43.6676
  0
ENDSEC
  0
EOF
