M48
; DRILL file {KiCad (6.0.4)} date Sun May 29 17:24:56 2022
; FORMAT={-:-/ absolute / metric / decimal}
; #@! TF.CreationDate,2022-05-29T17:24:56+02:00
; #@! TF.GenerationSoftware,Kicad,Pcbnew,(6.0.4)
; #@! TF.FileFunction,Plated,1,2,PTH
FMAT,2
METRIC
; #@! TA.AperFunction,Plated,PTH,ViaDrill
T1C0.400
; #@! TA.AperFunction,Plated,PTH,ComponentDrill
T2C0.762
; #@! TA.AperFunction,Plated,PTH,ComponentDrill
T3C0.800
; #@! TA.AperFunction,Plated,PTH,ComponentDrill
T4C0.900
; #@! TA.AperFunction,Plated,PTH,ComponentDrill
T5C1.000
; #@! TA.AperFunction,Plated,PTH,ComponentDrill
T6C1.100
; #@! TA.AperFunction,Plated,PTH,ComponentDrill
T7C1.200
; #@! TA.AperFunction,Plated,PTH,ComponentDrill
T8C1.300
; #@! TA.AperFunction,Plated,PTH,ComponentDrill
T9C1.400
; #@! TA.AperFunction,Plated,PTH,ComponentDrill
T10C3.000
%
G90
G05
T1
X83.35Y-95.55
X93.0Y-84.3
X122.0Y-84.4
T2
X85.75Y-93.98
X85.75Y-119.38
X88.29Y-93.98
X88.29Y-119.38
X90.83Y-93.98
X90.83Y-119.38
X93.37Y-93.98
X93.37Y-119.38
X95.91Y-93.98
X95.91Y-119.38
X98.45Y-93.98
X98.45Y-119.38
X100.99Y-93.98
X100.99Y-119.38
X103.53Y-93.98
X103.53Y-119.38
X106.07Y-93.98
X106.07Y-119.38
X108.61Y-93.98
X108.61Y-119.38
X111.15Y-93.98
X111.15Y-119.38
X113.69Y-93.98
X113.69Y-119.38
X116.23Y-93.98
X116.23Y-119.38
X118.77Y-93.98
X118.77Y-119.38
X121.31Y-93.98
X121.31Y-119.38
T3
X41.609Y-80.62
X41.609Y-88.24
X43.34Y-52.325
X44.149Y-80.62
X44.149Y-88.24
X45.4Y-61.555
X45.4Y-64.095
X45.4Y-71.805
X45.4Y-74.345
X45.88Y-52.325
X46.689Y-80.62
X46.689Y-88.24
X58.764Y-80.62
X58.764Y-88.24
X60.855Y-52.325
X61.304Y-80.62
X61.304Y-88.24
X62.5Y-61.555
X62.5Y-64.095
X62.5Y-71.805
X62.5Y-74.345
X63.395Y-52.325
X63.844Y-80.62
X63.844Y-88.24
X65.657Y-111.278
X65.657Y-112.748
X65.657Y-114.218
X72.602Y-96.52
X72.602Y-99.06
X72.602Y-101.6
X72.602Y-104.14
X73.359Y-80.62
X73.359Y-88.24
X75.355Y-52.325
X75.899Y-80.62
X75.899Y-88.24
X77.1Y-61.555
X77.1Y-64.095
X77.1Y-71.805
X77.1Y-74.345
X77.895Y-52.325
X78.439Y-80.62
X78.439Y-88.24
X87.964Y-80.62
X87.964Y-88.24
X89.955Y-52.325
X90.504Y-80.62
X90.504Y-88.24
X91.7Y-61.555
X91.7Y-64.095
X91.8Y-71.805
X91.8Y-74.345
X92.495Y-52.325
X93.044Y-80.62
X93.044Y-88.24
X103.214Y-80.63
X103.214Y-88.25
X105.31Y-52.325
X105.754Y-80.63
X105.754Y-88.25
X107.0Y-61.555
X107.0Y-64.095
X107.0Y-71.805
X107.0Y-74.345
X107.85Y-52.325
X108.294Y-80.63
X108.294Y-88.25
X117.852Y-80.632
X117.852Y-88.252
X119.91Y-52.325
X120.392Y-80.632
X120.392Y-88.252
X121.6Y-61.555
X121.6Y-64.095
X121.6Y-71.805
X121.6Y-74.345
X122.45Y-52.325
X122.932Y-80.632
X122.932Y-88.252
X132.705Y-80.62
X132.705Y-88.24
X133.419Y-52.325
X135.245Y-80.62
X135.245Y-88.24
X135.959Y-52.325
X136.2Y-61.555
X136.2Y-64.095
X136.2Y-71.805
X136.2Y-74.345
X137.785Y-80.62
X137.785Y-88.24
X147.686Y-80.62
X147.686Y-88.24
X150.226Y-80.62
X150.226Y-88.24
X151.4Y-61.555
X151.4Y-64.095
X151.4Y-71.805
X151.4Y-74.345
X151.834Y-52.325
X152.766Y-80.62
X152.766Y-88.24
X154.374Y-52.325
X163.529Y-80.62
X163.529Y-88.24
X165.01Y-52.325
X166.069Y-80.62
X166.069Y-88.24
X167.3Y-61.555
X167.3Y-64.095
X167.3Y-71.805
X167.3Y-74.345
X167.55Y-52.325
X168.609Y-80.62
X168.609Y-88.24
X178.769Y-80.62
X178.769Y-88.24
X180.31Y-52.325
X181.309Y-80.62
X181.309Y-88.24
X182.5Y-61.555
X182.5Y-64.095
X182.5Y-71.805
X182.5Y-74.345
X182.85Y-52.325
X183.849Y-80.62
X183.849Y-88.24
X192.739Y-80.62
X192.739Y-88.24
X194.61Y-52.325
X195.279Y-80.62
X195.279Y-88.24
X196.5Y-61.555
X196.5Y-64.095
X196.5Y-71.805
X196.5Y-74.345
X197.15Y-52.325
X197.819Y-80.62
X197.819Y-88.24
T4
X36.16Y-80.9
X38.7Y-80.9
X40.2Y-48.0
X45.2Y-49.2
X53.36Y-80.9
X55.9Y-80.9
X56.7Y-48.0
X61.7Y-49.2
X67.935Y-80.9
X70.475Y-80.9
X71.7Y-48.0
X76.7Y-49.2
X82.56Y-80.9
X85.1Y-80.9
X86.7Y-48.0
X91.7Y-49.2
X97.735Y-81.0
X100.275Y-81.0
X101.7Y-48.0
X106.7Y-49.2
X112.36Y-81.0
X114.9Y-81.0
X116.7Y-48.0
X121.7Y-49.2
X127.16Y-80.9
X129.289Y-48.0
X129.7Y-80.9
X134.289Y-49.2
X142.16Y-80.9
X144.7Y-80.9
X147.069Y-48.0
X152.069Y-49.2
X158.06Y-81.0
X160.6Y-81.0
X161.7Y-48.0
X166.7Y-49.2
X173.26Y-80.9
X175.8Y-80.9
X176.7Y-48.0
X181.481Y-109.53
X181.7Y-49.2
X182.681Y-104.53
X187.26Y-80.9
X189.8Y-80.9
X191.3Y-48.0
X196.3Y-49.2
T5
X36.6Y-52.3
X39.14Y-52.3
X54.386Y-52.3
X56.926Y-52.3
X68.894Y-52.3
X71.434Y-52.3
X83.499Y-52.3
X86.039Y-52.3
X88.265Y-103.505
X90.805Y-103.505
X93.345Y-103.505
X95.885Y-103.505
X98.425Y-103.505
X98.789Y-52.32
X100.965Y-103.505
X101.329Y-52.32
X103.505Y-103.505
X106.045Y-103.505
X108.585Y-103.505
X111.125Y-103.505
X113.344Y-52.3
X113.665Y-103.505
X115.884Y-52.3
X116.205Y-103.505
X127.314Y-52.3
X129.854Y-52.3
X145.729Y-52.3
X146.923Y-98.953
X146.923Y-114.353
X148.269Y-52.3
X159.1Y-52.3
X161.64Y-52.3
X173.7Y-52.3
X176.24Y-52.3
X176.323Y-104.153
X176.323Y-109.153
X188.2Y-52.3
X190.74Y-52.3
T6
X39.079Y-57.53
X41.619Y-57.53
X44.159Y-57.53
X56.224Y-57.53
X58.764Y-57.53
X61.304Y-57.53
X70.829Y-57.53
X73.369Y-57.53
X75.909Y-57.53
X85.434Y-57.53
X87.974Y-57.53
X90.514Y-57.53
X100.674Y-57.53
X103.214Y-57.53
X105.754Y-57.53
X115.279Y-57.53
X117.819Y-57.53
X120.359Y-57.53
X129.884Y-57.53
X132.424Y-57.53
X134.964Y-57.53
X145.124Y-57.53
X147.664Y-57.53
X150.204Y-57.53
X160.999Y-57.53
X163.539Y-57.53
X166.079Y-57.53
X176.239Y-57.53
X178.779Y-57.53
X181.319Y-57.53
X190.209Y-57.53
X192.749Y-57.53
X195.289Y-57.53
T7
X39.364Y-61.365
X39.364Y-76.365
X44.405Y-105.41
X44.405Y-109.22
X44.405Y-113.03
X56.5Y-61.4
X56.5Y-76.4
X71.0Y-61.4
X71.0Y-76.4
X85.6Y-61.3
X85.6Y-76.3
X100.7Y-61.4
X100.7Y-76.4
X115.3Y-61.4
X115.3Y-76.4
X130.0Y-61.4
X130.0Y-76.4
X145.2Y-61.4
X145.2Y-76.4
X161.1Y-61.4
X161.1Y-76.4
X176.3Y-61.3
X176.3Y-76.3
X190.3Y-61.3
X190.3Y-76.3
T8
X38.229Y-41.665
X45.729Y-41.665
X53.229Y-41.665
X60.729Y-41.665
X68.229Y-41.665
X75.729Y-41.665
X83.229Y-41.665
X90.729Y-41.665
X98.229Y-41.665
X105.729Y-41.665
X113.229Y-41.665
X120.729Y-41.665
X128.229Y-41.665
X135.729Y-41.665
X143.229Y-41.665
X150.729Y-41.665
X158.229Y-41.665
X165.729Y-41.665
X173.229Y-41.665
X180.729Y-41.665
X187.564Y-95.129
X187.564Y-99.729
X187.564Y-111.029
X187.564Y-115.629
X188.229Y-41.665
X195.729Y-41.665
X195.8Y-95.065
X195.8Y-100.145
X195.8Y-106.265
X195.8Y-111.345
T9
X137.609Y-102.478
X137.609Y-107.558
X137.609Y-112.638
T10
X50.514Y-99.402
X50.515Y-49.862
X110.327Y-110.203
X140.683Y-49.865
X182.078Y-115.282
X203.041Y-43.244
T0
M30
