  0
SECTION
  2
HEADER
  9
$ANGBASE
  50
0.0
  9
$ANGDIR
  70
1
  9
$MEASUREMENT
  70
1
  0
ENDSEC
  0
SECTION
  2
TABLES
  0
TABLE
  2
LTYPE
  70
4
  0
LTYPE
  5
40F
  2
CONTINUOUS
  70
0
  3
Solid line
  72
65
  73
0
  40
0.0
  0
LTYPE
  5
410
  2
DASHDOT
 70
0
  3
Dash Dot ____ _ ____ _
 72
65
 73
4
 40
2.0
 49
1.25
 49
-0.25
 49
0.25
 49
-0.25
  0
LTYPE
  5
411
  2
DASHED
 70
0
  3
Dashed __ __ __ __ __
 72
65
 73
2
 40
0.75
 49
0.5
 49
-0.25
  0
LTYPE
  5
43B
  2
DOTTED
 70
0
  3
Dotted .  .  .  .
 72
65
 73
2
 40
0.2
 49
0.0
 49
-0.2
  0
ENDTAB
  0
TABLE
  2
STYLE
  70
4
  0
STYLE
  2
KICAD
  70
0
  40
0
  41
1
  42
1
  50
0
  71
0
  3
isocp.shx
  0
STYLE
  2
KICADB
  70
0
  40
0
  41
1
  42
1
  50
0
  71
0
  3
isocp.shx
  0
STYLE
  2
KICADI
  70
0
  40
0
  41
1
  42
1
  50
15
  71
0
  3
isocp.shx
  0
STYLE
  2
KICADBI
  70
0
  40
0
  41
1
  42
1
  50
15
  71
0
  3
isocp.shx
  0
ENDTAB
  0
TABLE
  2
LAYER
  70
1
  0
LAYER
  2
BLACK
  70
0
  62
7
  6
CONTINUOUS
  0
ENDTAB
  0
ENDSEC
  0
SECTION
  2
ENTITIES
0
LINE
8
BLACK
6
CONTINUOUS
10
177.002
20
-166.007
11
177.002
21
-198.007
0
LINE
8
BLACK
6
CONTINUOUS
10
177.002
20
-198.007
11
285.002
21
-198.007
0
LINE
8
BLACK
6
CONTINUOUS
10
285.002
20
-198.007
11
285.002
21
-166.007
0
LINE
8
BLACK
6
CONTINUOUS
10
285.002
20
-166.007
11
177.002
21
-166.007
0
LINE
8
BLACK
6
CONTINUOUS
10
10
20
-10
11
10
21
-200.007
0
LINE
8
BLACK
6
CONTINUOUS
10
10
20
-200.007
11
287.002
21
-200.007
0
LINE
8
BLACK
6
CONTINUOUS
10
287.002
20
-200.007
11
287.002
21
-10
0
LINE
8
BLACK
6
CONTINUOUS
10
287.002
20
-10
11
10
21
-10
0
LINE
8
BLACK
6
CONTINUOUS
10
12
20
-12
11
12
21
-198.007
0
LINE
8
BLACK
6
CONTINUOUS
10
12
20
-198.007
11
285.002
21
-198.007
0
LINE
8
BLACK
6
CONTINUOUS
10
285.002
20
-198.007
11
285.002
21
-12
0
LINE
8
BLACK
6
CONTINUOUS
10
285.002
20
-12
11
12
21
-12
0
LINE
8
BLACK
6
CONTINUOUS
10
60
20
-12
11
60
21
-10
0
LINE
8
BLACK
6
CONTINUOUS
10
110
20
-12
11
110
21
-10
0
LINE
8
BLACK
6
CONTINUOUS
10
160
20
-12
11
160
21
-10
0
LINE
8
BLACK
6
CONTINUOUS
10
210
20
-12
11
210
21
-10
0
LINE
8
BLACK
6
CONTINUOUS
10
260
20
-12
11
260
21
-10
0
LINE
8
BLACK
6
CONTINUOUS
10
36.0655
20
-11.5881
11
35.3226
21
-11.5881
0
LINE
8
BLACK
6
CONTINUOUS
10
35.694
20
-11.5881
11
35.694
21
-10.2881
0
LINE
8
BLACK
6
CONTINUOUS
10
35.694
20
-10.2881
11
35.5702
21
-10.4738
0
LINE
8
BLACK
6
CONTINUOUS
10
35.5702
20
-10.4738
11
35.4464
21
-10.5976
0
LINE
8
BLACK
6
CONTINUOUS
10
35.4464
20
-10.5976
11
35.3226
21
-10.6595
0
LINE
8
BLACK
6
CONTINUOUS
10
85.3226
20
-10.4119
11
85.3845
21
-10.35
0
LINE
8
BLACK
6
CONTINUOUS
10
85.3845
20
-10.35
11
85.5083
21
-10.2881
0
LINE
8
BLACK
6
CONTINUOUS
10
85.5083
20
-10.2881
11
85.8179
21
-10.2881
0
LINE
8
BLACK
6
CONTINUOUS
10
85.8179
20
-10.2881
11
85.9417
21
-10.35
0
LINE
8
BLACK
6
CONTINUOUS
10
85.9417
20
-10.35
11
86.0036
21
-10.4119
0
LINE
8
BLACK
6
CONTINUOUS
10
86.0036
20
-10.4119
11
86.0655
21
-10.5357
0
LINE
8
BLACK
6
CONTINUOUS
10
86.0655
20
-10.5357
11
86.0655
21
-10.6595
0
LINE
8
BLACK
6
CONTINUOUS
10
86.0655
20
-10.6595
11
86.0036
21
-10.8452
0
LINE
8
BLACK
6
CONTINUOUS
10
86.0036
20
-10.8452
11
85.2607
21
-11.5881
0
LINE
8
BLACK
6
CONTINUOUS
10
85.2607
20
-11.5881
11
86.0655
21
-11.5881
0
LINE
8
BLACK
6
CONTINUOUS
10
135.261
20
-10.2881
11
136.065
21
-10.2881
0
LINE
8
BLACK
6
CONTINUOUS
10
136.065
20
-10.2881
11
135.632
21
-10.7833
0
LINE
8
BLACK
6
CONTINUOUS
10
135.632
20
-10.7833
11
135.818
21
-10.7833
0
LINE
8
BLACK
6
CONTINUOUS
10
135.818
20
-10.7833
11
135.942
21
-10.8452
0
LINE
8
BLACK
6
CONTINUOUS
10
135.942
20
-10.8452
11
136.004
21
-10.9071
0
LINE
8
BLACK
6
CONTINUOUS
10
136.004
20
-10.9071
11
136.065
21
-11.031
0
LINE
8
BLACK
6
CONTINUOUS
10
136.065
20
-11.031
11
136.065
21
-11.3405
0
LINE
8
BLACK
6
CONTINUOUS
10
136.065
20
-11.3405
11
136.004
21
-11.4643
0
LINE
8
BLACK
6
CONTINUOUS
10
136.004
20
-11.4643
11
135.942
21
-11.5262
0
LINE
8
BLACK
6
CONTINUOUS
10
135.942
20
-11.5262
11
135.818
21
-11.5881
0
LINE
8
BLACK
6
CONTINUOUS
10
135.818
20
-11.5881
11
135.446
21
-11.5881
0
LINE
8
BLACK
6
CONTINUOUS
10
135.446
20
-11.5881
11
135.323
21
-11.5262
0
LINE
8
BLACK
6
CONTINUOUS
10
135.323
20
-11.5262
11
135.261
21
-11.4643
0
LINE
8
BLACK
6
CONTINUOUS
10
185.942
20
-10.7214
11
185.942
21
-11.5881
0
LINE
8
BLACK
6
CONTINUOUS
10
185.632
20
-10.2262
11
185.323
21
-11.1548
0
LINE
8
BLACK
6
CONTINUOUS
10
185.323
20
-11.1548
11
186.127
21
-11.1548
0
LINE
8
BLACK
6
CONTINUOUS
10
236.004
20
-10.2881
11
235.385
21
-10.2881
0
LINE
8
BLACK
6
CONTINUOUS
10
235.385
20
-10.2881
11
235.323
21
-10.9071
0
LINE
8
BLACK
6
CONTINUOUS
10
235.323
20
-10.9071
11
235.385
21
-10.8452
0
LINE
8
BLACK
6
CONTINUOUS
10
235.385
20
-10.8452
11
235.508
21
-10.7833
0
LINE
8
BLACK
6
CONTINUOUS
10
235.508
20
-10.7833
11
235.818
21
-10.7833
0
LINE
8
BLACK
6
CONTINUOUS
10
235.818
20
-10.7833
11
235.942
21
-10.8452
0
LINE
8
BLACK
6
CONTINUOUS
10
235.942
20
-10.8452
11
236.004
21
-10.9071
0
LINE
8
BLACK
6
CONTINUOUS
10
236.004
20
-10.9071
11
236.065
21
-11.031
0
LINE
8
BLACK
6
CONTINUOUS
10
236.065
20
-11.031
11
236.065
21
-11.3405
0
LINE
8
BLACK
6
CONTINUOUS
10
236.065
20
-11.3405
11
236.004
21
-11.4643
0
LINE
8
BLACK
6
CONTINUOUS
10
236.004
20
-11.4643
11
235.942
21
-11.5262
0
LINE
8
BLACK
6
CONTINUOUS
10
235.942
20
-11.5262
11
235.818
21
-11.5881
0
LINE
8
BLACK
6
CONTINUOUS
10
235.818
20
-11.5881
11
235.508
21
-11.5881
0
LINE
8
BLACK
6
CONTINUOUS
10
235.508
20
-11.5881
11
235.385
21
-11.5262
0
LINE
8
BLACK
6
CONTINUOUS
10
235.385
20
-11.5262
11
235.323
21
-11.4643
0
LINE
8
BLACK
6
CONTINUOUS
10
285.942
20
-10.2881
11
285.694
21
-10.2881
0
LINE
8
BLACK
6
CONTINUOUS
10
285.694
20
-10.2881
11
285.57
21
-10.35
0
LINE
8
BLACK
6
CONTINUOUS
10
285.57
20
-10.35
11
285.508
21
-10.4119
0
LINE
8
BLACK
6
CONTINUOUS
10
285.508
20
-10.4119
11
285.385
21
-10.5976
0
LINE
8
BLACK
6
CONTINUOUS
10
285.385
20
-10.5976
11
285.323
21
-10.8452
0
LINE
8
BLACK
6
CONTINUOUS
10
285.323
20
-10.8452
11
285.323
21
-11.3405
0
LINE
8
BLACK
6
CONTINUOUS
10
285.323
20
-11.3405
11
285.385
21
-11.4643
0
LINE
8
BLACK
6
CONTINUOUS
10
285.385
20
-11.4643
11
285.446
21
-11.5262
0
LINE
8
BLACK
6
CONTINUOUS
10
285.446
20
-11.5262
11
285.57
21
-11.5881
0
LINE
8
BLACK
6
CONTINUOUS
10
285.57
20
-11.5881
11
285.818
21
-11.5881
0
LINE
8
BLACK
6
CONTINUOUS
10
285.818
20
-11.5881
11
285.942
21
-11.5262
0
LINE
8
BLACK
6
CONTINUOUS
10
285.942
20
-11.5262
11
286.004
21
-11.4643
0
LINE
8
BLACK
6
CONTINUOUS
10
286.004
20
-11.4643
11
286.065
21
-11.3405
0
LINE
8
BLACK
6
CONTINUOUS
10
286.065
20
-11.3405
11
286.065
21
-11.031
0
LINE
8
BLACK
6
CONTINUOUS
10
286.065
20
-11.031
11
286.004
21
-10.9071
0
LINE
8
BLACK
6
CONTINUOUS
10
286.004
20
-10.9071
11
285.942
21
-10.8452
0
LINE
8
BLACK
6
CONTINUOUS
10
285.942
20
-10.8452
11
285.818
21
-10.7833
0
LINE
8
BLACK
6
CONTINUOUS
10
285.818
20
-10.7833
11
285.57
21
-10.7833
0
LINE
8
BLACK
6
CONTINUOUS
10
285.57
20
-10.7833
11
285.446
21
-10.8452
0
LINE
8
BLACK
6
CONTINUOUS
10
285.446
20
-10.8452
11
285.385
21
-10.9071
0
LINE
8
BLACK
6
CONTINUOUS
10
285.385
20
-10.9071
11
285.323
21
-11.031
0
LINE
8
BLACK
6
CONTINUOUS
10
60
20
-198.007
11
60
21
-200.007
0
LINE
8
BLACK
6
CONTINUOUS
10
110
20
-198.007
11
110
21
-200.007
0
LINE
8
BLACK
6
CONTINUOUS
10
160
20
-198.007
11
160
21
-200.007
0
LINE
8
BLACK
6
CONTINUOUS
10
210
20
-198.007
11
210
21
-200.007
0
LINE
8
BLACK
6
CONTINUOUS
10
260
20
-198.007
11
260
21
-200.007
0
LINE
8
BLACK
6
CONTINUOUS
10
36.0655
20
-199.595
11
35.3226
21
-199.595
0
LINE
8
BLACK
6
CONTINUOUS
10
35.694
20
-199.595
11
35.694
21
-198.295
0
LINE
8
BLACK
6
CONTINUOUS
10
35.694
20
-198.295
11
35.5702
21
-198.481
0
LINE
8
BLACK
6
CONTINUOUS
10
35.5702
20
-198.481
11
35.4464
21
-198.605
0
LINE
8
BLACK
6
CONTINUOUS
10
35.4464
20
-198.605
11
35.3226
21
-198.667
0
LINE
8
BLACK
6
CONTINUOUS
10
85.3226
20
-198.419
11
85.3845
21
-198.357
0
LINE
8
BLACK
6
CONTINUOUS
10
85.3845
20
-198.357
11
85.5083
21
-198.295
0
LINE
8
BLACK
6
CONTINUOUS
10
85.5083
20
-198.295
11
85.8179
21
-198.295
0
LINE
8
BLACK
6
CONTINUOUS
10
85.8179
20
-198.295
11
85.9417
21
-198.357
0
LINE
8
BLACK
6
CONTINUOUS
10
85.9417
20
-198.357
11
86.0036
21
-198.419
0
LINE
8
BLACK
6
CONTINUOUS
10
86.0036
20
-198.419
11
86.0655
21
-198.543
0
LINE
8
BLACK
6
CONTINUOUS
10
86.0655
20
-198.543
11
86.0655
21
-198.667
0
LINE
8
BLACK
6
CONTINUOUS
10
86.0655
20
-198.667
11
86.0036
21
-198.852
0
LINE
8
BLACK
6
CONTINUOUS
10
86.0036
20
-198.852
11
85.2607
21
-199.595
0
LINE
8
BLACK
6
CONTINUOUS
10
85.2607
20
-199.595
11
86.0655
21
-199.595
0
LINE
8
BLACK
6
CONTINUOUS
10
135.261
20
-198.295
11
136.065
21
-198.295
0
LINE
8
BLACK
6
CONTINUOUS
10
136.065
20
-198.295
11
135.632
21
-198.791
0
LINE
8
BLACK
6
CONTINUOUS
10
135.632
20
-198.791
11
135.818
21
-198.791
0
LINE
8
BLACK
6
CONTINUOUS
10
135.818
20
-198.791
11
135.942
21
-198.852
0
LINE
8
BLACK
6
CONTINUOUS
10
135.942
20
-198.852
11
136.004
21
-198.914
0
LINE
8
BLACK
6
CONTINUOUS
10
136.004
20
-198.914
11
136.065
21
-199.038
0
LINE
8
BLACK
6
CONTINUOUS
10
136.065
20
-199.038
11
136.065
21
-199.348
0
LINE
8
BLACK
6
CONTINUOUS
10
136.065
20
-199.348
11
136.004
21
-199.471
0
LINE
8
BLACK
6
CONTINUOUS
10
136.004
20
-199.471
11
135.942
21
-199.533
0
LINE
8
BLACK
6
CONTINUOUS
10
135.942
20
-199.533
11
135.818
21
-199.595
0
LINE
8
BLACK
6
CONTINUOUS
10
135.818
20
-199.595
11
135.446
21
-199.595
0
LINE
8
BLACK
6
CONTINUOUS
10
135.446
20
-199.595
11
135.323
21
-199.533
0
LINE
8
BLACK
6
CONTINUOUS
10
135.323
20
-199.533
11
135.261
21
-199.471
0
LINE
8
BLACK
6
CONTINUOUS
10
185.942
20
-198.729
11
185.942
21
-199.595
0
LINE
8
BLACK
6
CONTINUOUS
10
185.632
20
-198.233
11
185.323
21
-199.162
0
LINE
8
BLACK
6
CONTINUOUS
10
185.323
20
-199.162
11
186.127
21
-199.162
0
LINE
8
BLACK
6
CONTINUOUS
10
236.004
20
-198.295
11
235.385
21
-198.295
0
LINE
8
BLACK
6
CONTINUOUS
10
235.385
20
-198.295
11
235.323
21
-198.914
0
LINE
8
BLACK
6
CONTINUOUS
10
235.323
20
-198.914
11
235.385
21
-198.852
0
LINE
8
BLACK
6
CONTINUOUS
10
235.385
20
-198.852
11
235.508
21
-198.791
0
LINE
8
BLACK
6
CONTINUOUS
10
235.508
20
-198.791
11
235.818
21
-198.791
0
LINE
8
BLACK
6
CONTINUOUS
10
235.818
20
-198.791
11
235.942
21
-198.852
0
LINE
8
BLACK
6
CONTINUOUS
10
235.942
20
-198.852
11
236.004
21
-198.914
0
LINE
8
BLACK
6
CONTINUOUS
10
236.004
20
-198.914
11
236.065
21
-199.038
0
LINE
8
BLACK
6
CONTINUOUS
10
236.065
20
-199.038
11
236.065
21
-199.348
0
LINE
8
BLACK
6
CONTINUOUS
10
236.065
20
-199.348
11
236.004
21
-199.471
0
LINE
8
BLACK
6
CONTINUOUS
10
236.004
20
-199.471
11
235.942
21
-199.533
0
LINE
8
BLACK
6
CONTINUOUS
10
235.942
20
-199.533
11
235.818
21
-199.595
0
LINE
8
BLACK
6
CONTINUOUS
10
235.818
20
-199.595
11
235.508
21
-199.595
0
LINE
8
BLACK
6
CONTINUOUS
10
235.508
20
-199.595
11
235.385
21
-199.533
0
LINE
8
BLACK
6
CONTINUOUS
10
235.385
20
-199.533
11
235.323
21
-199.471
0
LINE
8
BLACK
6
CONTINUOUS
10
285.942
20
-198.295
11
285.694
21
-198.295
0
LINE
8
BLACK
6
CONTINUOUS
10
285.694
20
-198.295
11
285.57
21
-198.357
0
LINE
8
BLACK
6
CONTINUOUS
10
285.57
20
-198.357
11
285.508
21
-198.419
0
LINE
8
BLACK
6
CONTINUOUS
10
285.508
20
-198.419
11
285.385
21
-198.605
0
LINE
8
BLACK
6
CONTINUOUS
10
285.385
20
-198.605
11
285.323
21
-198.852
0
LINE
8
BLACK
6
CONTINUOUS
10
285.323
20
-198.852
11
285.323
21
-199.348
0
LINE
8
BLACK
6
CONTINUOUS
10
285.323
20
-199.348
11
285.385
21
-199.471
0
LINE
8
BLACK
6
CONTINUOUS
10
285.385
20
-199.471
11
285.446
21
-199.533
0
LINE
8
BLACK
6
CONTINUOUS
10
285.446
20
-199.533
11
285.57
21
-199.595
0
LINE
8
BLACK
6
CONTINUOUS
10
285.57
20
-199.595
11
285.818
21
-199.595
0
LINE
8
BLACK
6
CONTINUOUS
10
285.818
20
-199.595
11
285.942
21
-199.533
0
LINE
8
BLACK
6
CONTINUOUS
10
285.942
20
-199.533
11
286.004
21
-199.471
0
LINE
8
BLACK
6
CONTINUOUS
10
286.004
20
-199.471
11
286.065
21
-199.348
0
LINE
8
BLACK
6
CONTINUOUS
10
286.065
20
-199.348
11
286.065
21
-199.038
0
LINE
8
BLACK
6
CONTINUOUS
10
286.065
20
-199.038
11
286.004
21
-198.914
0
LINE
8
BLACK
6
CONTINUOUS
10
286.004
20
-198.914
11
285.942
21
-198.852
0
LINE
8
BLACK
6
CONTINUOUS
10
285.942
20
-198.852
11
285.818
21
-198.791
0
LINE
8
BLACK
6
CONTINUOUS
10
285.818
20
-198.791
11
285.57
21
-198.791
0
LINE
8
BLACK
6
CONTINUOUS
10
285.57
20
-198.791
11
285.446
21
-198.852
0
LINE
8
BLACK
6
CONTINUOUS
10
285.446
20
-198.852
11
285.385
21
-198.914
0
LINE
8
BLACK
6
CONTINUOUS
10
285.385
20
-198.914
11
285.323
21
-199.038
0
LINE
8
BLACK
6
CONTINUOUS
10
10
20
-60
11
12
21
-60
0
LINE
8
BLACK
6
CONTINUOUS
10
10
20
-110
11
12
21
-110
0
LINE
8
BLACK
6
CONTINUOUS
10
10
20
-160
11
12
21
-160
0
LINE
8
BLACK
6
CONTINUOUS
10
10.6905
20
-35.2167
11
11.3095
21
-35.2167
0
LINE
8
BLACK
6
CONTINUOUS
10
10.5667
20
-35.5881
11
11
21
-34.2881
0
LINE
8
BLACK
6
CONTINUOUS
10
11
20
-34.2881
11
11.4333
21
-35.5881
0
LINE
8
BLACK
6
CONTINUOUS
10
11.0929
20
-84.9071
11
11.2786
21
-84.969
0
LINE
8
BLACK
6
CONTINUOUS
10
11.2786
20
-84.969
11
11.3405
21
-85.031
0
LINE
8
BLACK
6
CONTINUOUS
10
11.3405
20
-85.031
11
11.4024
21
-85.1548
0
LINE
8
BLACK
6
CONTINUOUS
10
11.4024
20
-85.1548
11
11.4024
21
-85.3405
0
LINE
8
BLACK
6
CONTINUOUS
10
11.4024
20
-85.3405
11
11.3405
21
-85.4643
0
LINE
8
BLACK
6
CONTINUOUS
10
11.3405
20
-85.4643
11
11.2786
21
-85.5262
0
LINE
8
BLACK
6
CONTINUOUS
10
11.2786
20
-85.5262
11
11.1548
21
-85.5881
0
LINE
8
BLACK
6
CONTINUOUS
10
11.1548
20
-85.5881
11
10.6595
21
-85.5881
0
LINE
8
BLACK
6
CONTINUOUS
10
10.6595
20
-85.5881
11
10.6595
21
-84.2881
0
LINE
8
BLACK
6
CONTINUOUS
10
10.6595
20
-84.2881
11
11.0929
21
-84.2881
0
LINE
8
BLACK
6
CONTINUOUS
10
11.0929
20
-84.2881
11
11.2167
21
-84.35
0
LINE
8
BLACK
6
CONTINUOUS
10
11.2167
20
-84.35
11
11.2786
21
-84.4119
0
LINE
8
BLACK
6
CONTINUOUS
10
11.2786
20
-84.4119
11
11.3405
21
-84.5357
0
LINE
8
BLACK
6
CONTINUOUS
10
11.3405
20
-84.5357
11
11.3405
21
-84.6595
0
LINE
8
BLACK
6
CONTINUOUS
10
11.3405
20
-84.6595
11
11.2786
21
-84.7833
0
LINE
8
BLACK
6
CONTINUOUS
10
11.2786
20
-84.7833
11
11.2167
21
-84.8452
0
LINE
8
BLACK
6
CONTINUOUS
10
11.2167
20
-84.8452
11
11.0929
21
-84.9071
0
LINE
8
BLACK
6
CONTINUOUS
10
11.0929
20
-84.9071
11
10.6595
21
-84.9071
0
LINE
8
BLACK
6
CONTINUOUS
10
11.4024
20
-135.464
11
11.3405
21
-135.526
0
LINE
8
BLACK
6
CONTINUOUS
10
11.3405
20
-135.526
11
11.1548
21
-135.588
0
LINE
8
BLACK
6
CONTINUOUS
10
11.1548
20
-135.588
11
11.031
21
-135.588
0
LINE
8
BLACK
6
CONTINUOUS
10
11.031
20
-135.588
11
10.8452
21
-135.526
0
LINE
8
BLACK
6
CONTINUOUS
10
10.8452
20
-135.526
11
10.7214
21
-135.402
0
LINE
8
BLACK
6
CONTINUOUS
10
10.7214
20
-135.402
11
10.6595
21
-135.279
0
LINE
8
BLACK
6
CONTINUOUS
10
10.6595
20
-135.279
11
10.5976
21
-135.031
0
LINE
8
BLACK
6
CONTINUOUS
10
10.5976
20
-135.031
11
10.5976
21
-134.845
0
LINE
8
BLACK
6
CONTINUOUS
10
10.5976
20
-134.845
11
10.6595
21
-134.598
0
LINE
8
BLACK
6
CONTINUOUS
10
10.6595
20
-134.598
11
10.7214
21
-134.474
0
LINE
8
BLACK
6
CONTINUOUS
10
10.7214
20
-134.474
11
10.8452
21
-134.35
0
LINE
8
BLACK
6
CONTINUOUS
10
10.8452
20
-134.35
11
11.031
21
-134.288
0
LINE
8
BLACK
6
CONTINUOUS
10
11.031
20
-134.288
11
11.1548
21
-134.288
0
LINE
8
BLACK
6
CONTINUOUS
10
11.1548
20
-134.288
11
11.3405
21
-134.35
0
LINE
8
BLACK
6
CONTINUOUS
10
11.3405
20
-134.35
11
11.4024
21
-134.412
0
LINE
8
BLACK
6
CONTINUOUS
10
10.6595
20
-185.588
11
10.6595
21
-184.288
0
LINE
8
BLACK
6
CONTINUOUS
10
10.6595
20
-184.288
11
10.969
21
-184.288
0
LINE
8
BLACK
6
CONTINUOUS
10
10.969
20
-184.288
11
11.1548
21
-184.35
0
LINE
8
BLACK
6
CONTINUOUS
10
11.1548
20
-184.35
11
11.2786
21
-184.474
0
LINE
8
BLACK
6
CONTINUOUS
10
11.2786
20
-184.474
11
11.3405
21
-184.598
0
LINE
8
BLACK
6
CONTINUOUS
10
11.3405
20
-184.598
11
11.4024
21
-184.845
0
LINE
8
BLACK
6
CONTINUOUS
10
11.4024
20
-184.845
11
11.4024
21
-185.031
0
LINE
8
BLACK
6
CONTINUOUS
10
11.4024
20
-185.031
11
11.3405
21
-185.279
0
LINE
8
BLACK
6
CONTINUOUS
10
11.3405
20
-185.279
11
11.2786
21
-185.402
0
LINE
8
BLACK
6
CONTINUOUS
10
11.2786
20
-185.402
11
11.1548
21
-185.526
0
LINE
8
BLACK
6
CONTINUOUS
10
11.1548
20
-185.526
11
10.969
21
-185.588
0
LINE
8
BLACK
6
CONTINUOUS
10
10.969
20
-185.588
11
10.6595
21
-185.588
0
LINE
8
BLACK
6
CONTINUOUS
10
287.002
20
-60
11
285.002
21
-60
0
LINE
8
BLACK
6
CONTINUOUS
10
287.002
20
-110
11
285.002
21
-110
0
LINE
8
BLACK
6
CONTINUOUS
10
287.002
20
-160
11
285.002
21
-160
0
LINE
8
BLACK
6
CONTINUOUS
10
285.693
20
-35.2167
11
286.312
21
-35.2167
0
LINE
8
BLACK
6
CONTINUOUS
10
285.569
20
-35.5881
11
286.002
21
-34.2881
0
LINE
8
BLACK
6
CONTINUOUS
10
286.002
20
-34.2881
11
286.436
21
-35.5881
0
LINE
8
BLACK
6
CONTINUOUS
10
286.095
20
-84.9071
11
286.281
21
-84.969
0
LINE
8
BLACK
6
CONTINUOUS
10
286.281
20
-84.969
11
286.343
21
-85.031
0
LINE
8
BLACK
6
CONTINUOUS
10
286.343
20
-85.031
11
286.405
21
-85.1548
0
LINE
8
BLACK
6
CONTINUOUS
10
286.405
20
-85.1548
11
286.405
21
-85.3405
0
LINE
8
BLACK
6
CONTINUOUS
10
286.405
20
-85.3405
11
286.343
21
-85.4643
0
LINE
8
BLACK
6
CONTINUOUS
10
286.343
20
-85.4643
11
286.281
21
-85.5262
0
LINE
8
BLACK
6
CONTINUOUS
10
286.281
20
-85.5262
11
286.157
21
-85.5881
0
LINE
8
BLACK
6
CONTINUOUS
10
286.157
20
-85.5881
11
285.662
21
-85.5881
0
LINE
8
BLACK
6
CONTINUOUS
10
285.662
20
-85.5881
11
285.662
21
-84.2881
0
LINE
8
BLACK
6
CONTINUOUS
10
285.662
20
-84.2881
11
286.095
21
-84.2881
0
LINE
8
BLACK
6
CONTINUOUS
10
286.095
20
-84.2881
11
286.219
21
-84.35
0
LINE
8
BLACK
6
CONTINUOUS
10
286.219
20
-84.35
11
286.281
21
-84.4119
0
LINE
8
BLACK
6
CONTINUOUS
10
286.281
20
-84.4119
11
286.343
21
-84.5357
0
LINE
8
BLACK
6
CONTINUOUS
10
286.343
20
-84.5357
11
286.343
21
-84.6595
0
LINE
8
BLACK
6
CONTINUOUS
10
286.343
20
-84.6595
11
286.281
21
-84.7833
0
LINE
8
BLACK
6
CONTINUOUS
10
286.281
20
-84.7833
11
286.219
21
-84.8452
0
LINE
8
BLACK
6
CONTINUOUS
10
286.219
20
-84.8452
11
286.095
21
-84.9071
0
LINE
8
BLACK
6
CONTINUOUS
10
286.095
20
-84.9071
11
285.662
21
-84.9071
0
LINE
8
BLACK
6
CONTINUOUS
10
286.405
20
-135.464
11
286.343
21
-135.526
0
LINE
8
BLACK
6
CONTINUOUS
10
286.343
20
-135.526
11
286.157
21
-135.588
0
LINE
8
BLACK
6
CONTINUOUS
10
286.157
20
-135.588
11
286.033
21
-135.588
0
LINE
8
BLACK
6
CONTINUOUS
10
286.033
20
-135.588
11
285.847
21
-135.526
0
LINE
8
BLACK
6
CONTINUOUS
10
285.847
20
-135.526
11
285.724
21
-135.402
0
LINE
8
BLACK
6
CONTINUOUS
10
285.724
20
-135.402
11
285.662
21
-135.279
0
LINE
8
BLACK
6
CONTINUOUS
10
285.662
20
-135.279
11
285.6
21
-135.031
0
LINE
8
BLACK
6
CONTINUOUS
10
285.6
20
-135.031
11
285.6
21
-134.845
0
LINE
8
BLACK
6
CONTINUOUS
10
285.6
20
-134.845
11
285.662
21
-134.598
0
LINE
8
BLACK
6
CONTINUOUS
10
285.662
20
-134.598
11
285.724
21
-134.474
0
LINE
8
BLACK
6
CONTINUOUS
10
285.724
20
-134.474
11
285.847
21
-134.35
0
LINE
8
BLACK
6
CONTINUOUS
10
285.847
20
-134.35
11
286.033
21
-134.288
0
LINE
8
BLACK
6
CONTINUOUS
10
286.033
20
-134.288
11
286.157
21
-134.288
0
LINE
8
BLACK
6
CONTINUOUS
10
286.157
20
-134.288
11
286.343
21
-134.35
0
LINE
8
BLACK
6
CONTINUOUS
10
286.343
20
-134.35
11
286.405
21
-134.412
0
LINE
8
BLACK
6
CONTINUOUS
10
285.662
20
-185.588
11
285.662
21
-184.288
0
LINE
8
BLACK
6
CONTINUOUS
10
285.662
20
-184.288
11
285.971
21
-184.288
0
LINE
8
BLACK
6
CONTINUOUS
10
285.971
20
-184.288
11
286.157
21
-184.35
0
LINE
8
BLACK
6
CONTINUOUS
10
286.157
20
-184.35
11
286.281
21
-184.474
0
LINE
8
BLACK
6
CONTINUOUS
10
286.281
20
-184.474
11
286.343
21
-184.598
0
LINE
8
BLACK
6
CONTINUOUS
10
286.343
20
-184.598
11
286.405
21
-184.845
0
LINE
8
BLACK
6
CONTINUOUS
10
286.405
20
-184.845
11
286.405
21
-185.031
0
LINE
8
BLACK
6
CONTINUOUS
10
286.405
20
-185.031
11
286.343
21
-185.279
0
LINE
8
BLACK
6
CONTINUOUS
10
286.343
20
-185.279
11
286.281
21
-185.402
0
LINE
8
BLACK
6
CONTINUOUS
10
286.281
20
-185.402
11
286.157
21
-185.526
0
LINE
8
BLACK
6
CONTINUOUS
10
286.157
20
-185.526
11
285.971
21
-185.588
0
LINE
8
BLACK
6
CONTINUOUS
10
285.971
20
-185.588
11
285.662
21
-185.588
0
LINE
8
BLACK
6
CONTINUOUS
10
200.434
20
-193.786
11
200.434
21
-192.286
0
LINE
8
BLACK
6
CONTINUOUS
10
200.434
20
-192.286
11
200.791
21
-192.286
0
LINE
8
BLACK
6
CONTINUOUS
10
200.791
20
-192.286
11
201.006
21
-192.357
0
LINE
8
BLACK
6
CONTINUOUS
10
201.006
20
-192.357
11
201.149
21
-192.5
0
LINE
8
BLACK
6
CONTINUOUS
10
201.149
20
-192.5
11
201.22
21
-192.643
0
LINE
8
BLACK
6
CONTINUOUS
10
201.22
20
-192.643
11
201.291
21
-192.929
0
LINE
8
BLACK
6
CONTINUOUS
10
201.291
20
-192.929
11
201.291
21
-193.143
0
LINE
8
BLACK
6
CONTINUOUS
10
201.291
20
-193.143
11
201.22
21
-193.429
0
LINE
8
BLACK
6
CONTINUOUS
10
201.22
20
-193.429
11
201.149
21
-193.571
0
LINE
8
BLACK
6
CONTINUOUS
10
201.149
20
-193.571
11
201.006
21
-193.714
0
LINE
8
BLACK
6
CONTINUOUS
10
201.006
20
-193.714
11
200.791
21
-193.786
0
LINE
8
BLACK
6
CONTINUOUS
10
200.791
20
-193.786
11
200.434
21
-193.786
0
LINE
8
BLACK
6
CONTINUOUS
10
202.577
20
-193.786
11
202.577
21
-193
0
LINE
8
BLACK
6
CONTINUOUS
10
202.577
20
-193
11
202.506
21
-192.857
0
LINE
8
BLACK
6
CONTINUOUS
10
202.506
20
-192.857
11
202.363
21
-192.786
0
LINE
8
BLACK
6
CONTINUOUS
10
202.363
20
-192.786
11
202.077
21
-192.786
0
LINE
8
BLACK
6
CONTINUOUS
10
202.077
20
-192.786
11
201.934
21
-192.857
0
LINE
8
BLACK
6
CONTINUOUS
10
202.577
20
-193.714
11
202.434
21
-193.786
0
LINE
8
BLACK
6
CONTINUOUS
10
202.434
20
-193.786
11
202.077
21
-193.786
0
LINE
8
BLACK
6
CONTINUOUS
10
202.077
20
-193.786
11
201.934
21
-193.714
0
LINE
8
BLACK
6
CONTINUOUS
10
201.934
20
-193.714
11
201.863
21
-193.571
0
LINE
8
BLACK
6
CONTINUOUS
10
201.863
20
-193.571
11
201.863
21
-193.429
0
LINE
8
BLACK
6
CONTINUOUS
10
201.863
20
-193.429
11
201.934
21
-193.286
0
LINE
8
BLACK
6
CONTINUOUS
10
201.934
20
-193.286
11
202.077
21
-193.214
0
LINE
8
BLACK
6
CONTINUOUS
10
202.077
20
-193.214
11
202.434
21
-193.214
0
LINE
8
BLACK
6
CONTINUOUS
10
202.434
20
-193.214
11
202.577
21
-193.143
0
LINE
8
BLACK
6
CONTINUOUS
10
203.077
20
-192.786
11
203.649
21
-192.786
0
LINE
8
BLACK
6
CONTINUOUS
10
203.291
20
-192.286
11
203.291
21
-193.571
0
LINE
8
BLACK
6
CONTINUOUS
10
203.291
20
-193.571
11
203.363
21
-193.714
0
LINE
8
BLACK
6
CONTINUOUS
10
203.363
20
-193.714
11
203.506
21
-193.786
0
LINE
8
BLACK
6
CONTINUOUS
10
203.506
20
-193.786
11
203.649
21
-193.786
0
LINE
8
BLACK
6
CONTINUOUS
10
204.72
20
-193.714
11
204.577
21
-193.786
0
LINE
8
BLACK
6
CONTINUOUS
10
204.577
20
-193.786
11
204.291
21
-193.786
0
LINE
8
BLACK
6
CONTINUOUS
10
204.291
20
-193.786
11
204.149
21
-193.714
0
LINE
8
BLACK
6
CONTINUOUS
10
204.149
20
-193.714
11
204.077
21
-193.571
0
LINE
8
BLACK
6
CONTINUOUS
10
204.077
20
-193.571
11
204.077
21
-193
0
LINE
8
BLACK
6
CONTINUOUS
10
204.077
20
-193
11
204.149
21
-192.857
0
LINE
8
BLACK
6
CONTINUOUS
10
204.149
20
-192.857
11
204.291
21
-192.786
0
LINE
8
BLACK
6
CONTINUOUS
10
204.291
20
-192.786
11
204.577
21
-192.786
0
LINE
8
BLACK
6
CONTINUOUS
10
204.577
20
-192.786
11
204.72
21
-192.857
0
LINE
8
BLACK
6
CONTINUOUS
10
204.72
20
-192.857
11
204.791
21
-193
0
LINE
8
BLACK
6
CONTINUOUS
10
204.791
20
-193
11
204.791
21
-193.143
0
LINE
8
BLACK
6
CONTINUOUS
10
204.791
20
-193.143
11
204.077
21
-193.286
0
LINE
8
BLACK
6
CONTINUOUS
10
205.434
20
-193.643
11
205.506
21
-193.714
0
LINE
8
BLACK
6
CONTINUOUS
10
205.506
20
-193.714
11
205.434
21
-193.786
0
LINE
8
BLACK
6
CONTINUOUS
10
205.434
20
-193.786
11
205.363
21
-193.714
0
LINE
8
BLACK
6
CONTINUOUS
10
205.363
20
-193.714
11
205.434
21
-193.643
0
LINE
8
BLACK
6
CONTINUOUS
10
205.434
20
-193.643
11
205.434
21
-193.786
0
LINE
8
BLACK
6
CONTINUOUS
10
205.434
20
-192.857
11
205.506
21
-192.929
0
LINE
8
BLACK
6
CONTINUOUS
10
205.506
20
-192.929
11
205.434
21
-193
0
LINE
8
BLACK
6
CONTINUOUS
10
205.434
20
-193
11
205.363
21
-192.929
0
LINE
8
BLACK
6
CONTINUOUS
10
205.363
20
-192.929
11
205.434
21
-192.857
0
LINE
8
BLACK
6
CONTINUOUS
10
205.434
20
-192.857
11
205.434
21
-193
0
LINE
8
BLACK
6
CONTINUOUS
10
207.22
20
-192.429
11
207.291
21
-192.357
0
LINE
8
BLACK
6
CONTINUOUS
10
207.291
20
-192.357
11
207.434
21
-192.286
0
LINE
8
BLACK
6
CONTINUOUS
10
207.434
20
-192.286
11
207.791
21
-192.286
0
LINE
8
BLACK
6
CONTINUOUS
10
207.791
20
-192.286
11
207.934
21
-192.357
0
LINE
8
BLACK
6
CONTINUOUS
10
207.934
20
-192.357
11
208.006
21
-192.429
0
LINE
8
BLACK
6
CONTINUOUS
10
208.006
20
-192.429
11
208.077
21
-192.571
0
LINE
8
BLACK
6
CONTINUOUS
10
208.077
20
-192.571
11
208.077
21
-192.714
0
LINE
8
BLACK
6
CONTINUOUS
10
208.077
20
-192.714
11
208.006
21
-192.929
0
LINE
8
BLACK
6
CONTINUOUS
10
208.006
20
-192.929
11
207.149
21
-193.786
0
LINE
8
BLACK
6
CONTINUOUS
10
207.149
20
-193.786
11
208.077
21
-193.786
0
LINE
8
BLACK
6
CONTINUOUS
10
209.006
20
-192.286
11
209.149
21
-192.286
0
LINE
8
BLACK
6
CONTINUOUS
10
209.149
20
-192.286
11
209.291
21
-192.357
0
LINE
8
BLACK
6
CONTINUOUS
10
209.291
20
-192.357
11
209.363
21
-192.429
0
LINE
8
BLACK
6
CONTINUOUS
10
209.363
20
-192.429
11
209.434
21
-192.571
0
LINE
8
BLACK
6
CONTINUOUS
10
209.434
20
-192.571
11
209.506
21
-192.857
0
LINE
8
BLACK
6
CONTINUOUS
10
209.506
20
-192.857
11
209.506
21
-193.214
0
LINE
8
BLACK
6
CONTINUOUS
10
209.506
20
-193.214
11
209.434
21
-193.5
0
LINE
8
BLACK
6
CONTINUOUS
10
209.434
20
-193.5
11
209.363
21
-193.643
0
LINE
8
BLACK
6
CONTINUOUS
10
209.363
20
-193.643
11
209.291
21
-193.714
0
LINE
8
BLACK
6
CONTINUOUS
10
209.291
20
-193.714
11
209.149
21
-193.786
0
LINE
8
BLACK
6
CONTINUOUS
10
209.149
20
-193.786
11
209.006
21
-193.786
0
LINE
8
BLACK
6
CONTINUOUS
10
209.006
20
-193.786
11
208.863
21
-193.714
0
LINE
8
BLACK
6
CONTINUOUS
10
208.863
20
-193.714
11
208.791
21
-193.643
0
LINE
8
BLACK
6
CONTINUOUS
10
208.791
20
-193.643
11
208.72
21
-193.5
0
LINE
8
BLACK
6
CONTINUOUS
10
208.72
20
-193.5
11
208.649
21
-193.214
0
LINE
8
BLACK
6
CONTINUOUS
10
208.649
20
-193.214
11
208.649
21
-192.857
0
LINE
8
BLACK
6
CONTINUOUS
10
208.649
20
-192.857
11
208.72
21
-192.571
0
LINE
8
BLACK
6
CONTINUOUS
10
208.72
20
-192.571
11
208.791
21
-192.429
0
LINE
8
BLACK
6
CONTINUOUS
10
208.791
20
-192.429
11
208.863
21
-192.357
0
LINE
8
BLACK
6
CONTINUOUS
10
208.863
20
-192.357
11
209.006
21
-192.286
0
LINE
8
BLACK
6
CONTINUOUS
10
210.077
20
-192.429
11
210.149
21
-192.357
0
LINE
8
BLACK
6
CONTINUOUS
10
210.149
20
-192.357
11
210.291
21
-192.286
0
LINE
8
BLACK
6
CONTINUOUS
10
210.291
20
-192.286
11
210.649
21
-192.286
0
LINE
8
BLACK
6
CONTINUOUS
10
210.649
20
-192.286
11
210.791
21
-192.357
0
LINE
8
BLACK
6
CONTINUOUS
10
210.791
20
-192.357
11
210.863
21
-192.429
0
LINE
8
BLACK
6
CONTINUOUS
10
210.863
20
-192.429
11
210.934
21
-192.571
0
LINE
8
BLACK
6
CONTINUOUS
10
210.934
20
-192.571
11
210.934
21
-192.714
0
LINE
8
BLACK
6
CONTINUOUS
10
210.934
20
-192.714
11
210.863
21
-192.929
0
LINE
8
BLACK
6
CONTINUOUS
10
210.863
20
-192.929
11
210.006
21
-193.786
0
LINE
8
BLACK
6
CONTINUOUS
10
210.006
20
-193.786
11
210.934
21
-193.786
0
LINE
8
BLACK
6
CONTINUOUS
10
211.506
20
-192.429
11
211.577
21
-192.357
0
LINE
8
BLACK
6
CONTINUOUS
10
211.577
20
-192.357
11
211.72
21
-192.286
0
LINE
8
BLACK
6
CONTINUOUS
10
211.72
20
-192.286
11
212.077
21
-192.286
0
LINE
8
BLACK
6
CONTINUOUS
10
212.077
20
-192.286
11
212.22
21
-192.357
0
LINE
8
BLACK
6
CONTINUOUS
10
212.22
20
-192.357
11
212.291
21
-192.429
0
LINE
8
BLACK
6
CONTINUOUS
10
212.291
20
-192.429
11
212.363
21
-192.571
0
LINE
8
BLACK
6
CONTINUOUS
10
212.363
20
-192.571
11
212.363
21
-192.714
0
LINE
8
BLACK
6
CONTINUOUS
10
212.363
20
-192.714
11
212.291
21
-192.929
0
LINE
8
BLACK
6
CONTINUOUS
10
212.291
20
-192.929
11
211.434
21
-193.786
0
LINE
8
BLACK
6
CONTINUOUS
10
211.434
20
-193.786
11
212.363
21
-193.786
0
LINE
8
BLACK
6
CONTINUOUS
10
213.006
20
-193.214
11
214.149
21
-193.214
0
LINE
8
BLACK
6
CONTINUOUS
10
215.149
20
-192.286
11
215.291
21
-192.286
0
LINE
8
BLACK
6
CONTINUOUS
10
215.291
20
-192.286
11
215.434
21
-192.357
0
LINE
8
BLACK
6
CONTINUOUS
10
215.434
20
-192.357
11
215.506
21
-192.429
0
LINE
8
BLACK
6
CONTINUOUS
10
215.506
20
-192.429
11
215.577
21
-192.571
0
LINE
8
BLACK
6
CONTINUOUS
10
215.577
20
-192.571
11
215.649
21
-192.857
0
LINE
8
BLACK
6
CONTINUOUS
10
215.649
20
-192.857
11
215.649
21
-193.214
0
LINE
8
BLACK
6
CONTINUOUS
10
215.649
20
-193.214
11
215.577
21
-193.5
0
LINE
8
BLACK
6
CONTINUOUS
10
215.577
20
-193.5
11
215.506
21
-193.643
0
LINE
8
BLACK
6
CONTINUOUS
10
215.506
20
-193.643
11
215.434
21
-193.714
0
LINE
8
BLACK
6
CONTINUOUS
10
215.434
20
-193.714
11
215.291
21
-193.786
0
LINE
8
BLACK
6
CONTINUOUS
10
215.291
20
-193.786
11
215.149
21
-193.786
0
LINE
8
BLACK
6
CONTINUOUS
10
215.149
20
-193.786
11
215.006
21
-193.714
0
LINE
8
BLACK
6
CONTINUOUS
10
215.006
20
-193.714
11
214.934
21
-193.643
0
LINE
8
BLACK
6
CONTINUOUS
10
214.934
20
-193.643
11
214.863
21
-193.5
0
LINE
8
BLACK
6
CONTINUOUS
10
214.863
20
-193.5
11
214.791
21
-193.214
0
LINE
8
BLACK
6
CONTINUOUS
10
214.791
20
-193.214
11
214.791
21
-192.857
0
LINE
8
BLACK
6
CONTINUOUS
10
214.791
20
-192.857
11
214.863
21
-192.571
0
LINE
8
BLACK
6
CONTINUOUS
10
214.863
20
-192.571
11
214.934
21
-192.429
0
LINE
8
BLACK
6
CONTINUOUS
10
214.934
20
-192.429
11
215.006
21
-192.357
0
LINE
8
BLACK
6
CONTINUOUS
10
215.006
20
-192.357
11
215.149
21
-192.286
0
LINE
8
BLACK
6
CONTINUOUS
10
217.006
20
-192.286
11
216.291
21
-192.286
0
LINE
8
BLACK
6
CONTINUOUS
10
216.291
20
-192.286
11
216.22
21
-193
0
LINE
8
BLACK
6
CONTINUOUS
10
216.22
20
-193
11
216.291
21
-192.929
0
LINE
8
BLACK
6
CONTINUOUS
10
216.291
20
-192.929
11
216.434
21
-192.857
0
LINE
8
BLACK
6
CONTINUOUS
10
216.434
20
-192.857
11
216.791
21
-192.857
0
LINE
8
BLACK
6
CONTINUOUS
10
216.791
20
-192.857
11
216.934
21
-192.929
0
LINE
8
BLACK
6
CONTINUOUS
10
216.934
20
-192.929
11
217.006
21
-193
0
LINE
8
BLACK
6
CONTINUOUS
10
217.006
20
-193
11
217.077
21
-193.143
0
LINE
8
BLACK
6
CONTINUOUS
10
217.077
20
-193.143
11
217.077
21
-193.5
0
LINE
8
BLACK
6
CONTINUOUS
10
217.077
20
-193.5
11
217.006
21
-193.643
0
LINE
8
BLACK
6
CONTINUOUS
10
217.006
20
-193.643
11
216.934
21
-193.714
0
LINE
8
BLACK
6
CONTINUOUS
10
216.934
20
-193.714
11
216.791
21
-193.786
0
LINE
8
BLACK
6
CONTINUOUS
10
216.791
20
-193.786
11
216.434
21
-193.786
0
LINE
8
BLACK
6
CONTINUOUS
10
216.434
20
-193.786
11
216.291
21
-193.714
0
LINE
8
BLACK
6
CONTINUOUS
10
216.291
20
-193.714
11
216.22
21
-193.643
0
LINE
8
BLACK
6
CONTINUOUS
10
217.72
20
-193.214
11
218.863
21
-193.214
0
LINE
8
BLACK
6
CONTINUOUS
10
219.863
20
-192.286
11
220.006
21
-192.286
0
LINE
8
BLACK
6
CONTINUOUS
10
220.006
20
-192.286
11
220.149
21
-192.357
0
LINE
8
BLACK
6
CONTINUOUS
10
220.149
20
-192.357
11
220.22
21
-192.429
0
LINE
8
BLACK
6
CONTINUOUS
10
220.22
20
-192.429
11
220.291
21
-192.571
0
LINE
8
BLACK
6
CONTINUOUS
10
220.291
20
-192.571
11
220.363
21
-192.857
0
LINE
8
BLACK
6
CONTINUOUS
10
220.363
20
-192.857
11
220.363
21
-193.214
0
LINE
8
BLACK
6
CONTINUOUS
10
220.363
20
-193.214
11
220.291
21
-193.5
0
LINE
8
BLACK
6
CONTINUOUS
10
220.291
20
-193.5
11
220.22
21
-193.643
0
LINE
8
BLACK
6
CONTINUOUS
10
220.22
20
-193.643
11
220.149
21
-193.714
0
LINE
8
BLACK
6
CONTINUOUS
10
220.149
20
-193.714
11
220.006
21
-193.786
0
LINE
8
BLACK
6
CONTINUOUS
10
220.006
20
-193.786
11
219.863
21
-193.786
0
LINE
8
BLACK
6
CONTINUOUS
10
219.863
20
-193.786
11
219.72
21
-193.714
0
LINE
8
BLACK
6
CONTINUOUS
10
219.72
20
-193.714
11
219.649
21
-193.643
0
LINE
8
BLACK
6
CONTINUOUS
10
219.649
20
-193.643
11
219.577
21
-193.5
0
LINE
8
BLACK
6
CONTINUOUS
10
219.577
20
-193.5
11
219.506
21
-193.214
0
LINE
8
BLACK
6
CONTINUOUS
10
219.506
20
-193.214
11
219.506
21
-192.857
0
LINE
8
BLACK
6
CONTINUOUS
10
219.506
20
-192.857
11
219.577
21
-192.571
0
LINE
8
BLACK
6
CONTINUOUS
10
219.577
20
-192.571
11
219.649
21
-192.429
0
LINE
8
BLACK
6
CONTINUOUS
10
219.649
20
-192.429
11
219.72
21
-192.357
0
LINE
8
BLACK
6
CONTINUOUS
10
219.72
20
-192.357
11
219.863
21
-192.286
0
LINE
8
BLACK
6
CONTINUOUS
10
220.863
20
-192.286
11
221.863
21
-192.286
0
LINE
8
BLACK
6
CONTINUOUS
10
221.863
20
-192.286
11
221.22
21
-193.786
0
LINE
8
BLACK
6
CONTINUOUS
10
177.002
20
-194.507
11
285.002
21
-194.507
0
LINE
8
BLACK
6
CONTINUOUS
10
178.434
20
-196.586
11
178.434
21
-195.086
0
LINE
8
BLACK
6
CONTINUOUS
10
179.291
20
-196.586
11
178.649
21
-195.729
0
LINE
8
BLACK
6
CONTINUOUS
10
179.291
20
-195.086
11
178.434
21
-195.943
0
LINE
8
BLACK
6
CONTINUOUS
10
179.934
20
-196.586
11
179.934
21
-195.586
0
LINE
8
BLACK
6
CONTINUOUS
10
179.934
20
-195.086
11
179.863
21
-195.157
0
LINE
8
BLACK
6
CONTINUOUS
10
179.863
20
-195.157
11
179.934
21
-195.229
0
LINE
8
BLACK
6
CONTINUOUS
10
179.934
20
-195.229
11
180.006
21
-195.157
0
LINE
8
BLACK
6
CONTINUOUS
10
180.006
20
-195.157
11
179.934
21
-195.086
0
LINE
8
BLACK
6
CONTINUOUS
10
179.934
20
-195.086
11
179.934
21
-195.229
0
LINE
8
BLACK
6
CONTINUOUS
10
181.506
20
-196.443
11
181.434
21
-196.514
0
LINE
8
BLACK
6
CONTINUOUS
10
181.434
20
-196.514
11
181.22
21
-196.586
0
LINE
8
BLACK
6
CONTINUOUS
10
181.22
20
-196.586
11
181.077
21
-196.586
0
LINE
8
BLACK
6
CONTINUOUS
10
181.077
20
-196.586
11
180.863
21
-196.514
0
LINE
8
BLACK
6
CONTINUOUS
10
180.863
20
-196.514
11
180.72
21
-196.371
0
LINE
8
BLACK
6
CONTINUOUS
10
180.72
20
-196.371
11
180.649
21
-196.229
0
LINE
8
BLACK
6
CONTINUOUS
10
180.649
20
-196.229
11
180.577
21
-195.943
0
LINE
8
BLACK
6
CONTINUOUS
10
180.577
20
-195.943
11
180.577
21
-195.729
0
LINE
8
BLACK
6
CONTINUOUS
10
180.577
20
-195.729
11
180.649
21
-195.443
0
LINE
8
BLACK
6
CONTINUOUS
10
180.649
20
-195.443
11
180.72
21
-195.3
0
LINE
8
BLACK
6
CONTINUOUS
10
180.72
20
-195.3
11
180.863
21
-195.157
0
LINE
8
BLACK
6
CONTINUOUS
10
180.863
20
-195.157
11
181.077
21
-195.086
0
LINE
8
BLACK
6
CONTINUOUS
10
181.077
20
-195.086
11
181.22
21
-195.086
0
LINE
8
BLACK
6
CONTINUOUS
10
181.22
20
-195.086
11
181.434
21
-195.157
0
LINE
8
BLACK
6
CONTINUOUS
10
181.434
20
-195.157
11
181.506
21
-195.229
0
LINE
8
BLACK
6
CONTINUOUS
10
182.791
20
-196.586
11
182.791
21
-195.8
0
LINE
8
BLACK
6
CONTINUOUS
10
182.791
20
-195.8
11
182.72
21
-195.657
0
LINE
8
BLACK
6
CONTINUOUS
10
182.72
20
-195.657
11
182.577
21
-195.586
0
LINE
8
BLACK
6
CONTINUOUS
10
182.577
20
-195.586
11
182.291
21
-195.586
0
LINE
8
BLACK
6
CONTINUOUS
10
182.291
20
-195.586
11
182.149
21
-195.657
0
LINE
8
BLACK
6
CONTINUOUS
10
182.791
20
-196.514
11
182.649
21
-196.586
0
LINE
8
BLACK
6
CONTINUOUS
10
182.649
20
-196.586
11
182.291
21
-196.586
0
LINE
8
BLACK
6
CONTINUOUS
10
182.291
20
-196.586
11
182.149
21
-196.514
0
LINE
8
BLACK
6
CONTINUOUS
10
182.149
20
-196.514
11
182.077
21
-196.371
0
LINE
8
BLACK
6
CONTINUOUS
10
182.077
20
-196.371
11
182.077
21
-196.229
0
LINE
8
BLACK
6
CONTINUOUS
10
182.077
20
-196.229
11
182.149
21
-196.086
0
LINE
8
BLACK
6
CONTINUOUS
10
182.149
20
-196.086
11
182.291
21
-196.014
0
LINE
8
BLACK
6
CONTINUOUS
10
182.291
20
-196.014
11
182.649
21
-196.014
0
LINE
8
BLACK
6
CONTINUOUS
10
182.649
20
-196.014
11
182.791
21
-195.943
0
LINE
8
BLACK
6
CONTINUOUS
10
184.149
20
-196.586
11
184.149
21
-195.086
0
LINE
8
BLACK
6
CONTINUOUS
10
184.149
20
-196.514
11
184.006
21
-196.586
0
LINE
8
BLACK
6
CONTINUOUS
10
184.006
20
-196.586
11
183.72
21
-196.586
0
LINE
8
BLACK
6
CONTINUOUS
10
183.72
20
-196.586
11
183.577
21
-196.514
0
LINE
8
BLACK
6
CONTINUOUS
10
183.577
20
-196.514
11
183.506
21
-196.443
0
LINE
8
BLACK
6
CONTINUOUS
10
183.506
20
-196.443
11
183.434
21
-196.3
0
LINE
8
BLACK
6
CONTINUOUS
10
183.434
20
-196.3
11
183.434
21
-195.871
0
LINE
8
BLACK
6
CONTINUOUS
10
183.434
20
-195.871
11
183.506
21
-195.729
0
LINE
8
BLACK
6
CONTINUOUS
10
183.506
20
-195.729
11
183.577
21
-195.657
0
LINE
8
BLACK
6
CONTINUOUS
10
183.577
20
-195.657
11
183.72
21
-195.586
0
LINE
8
BLACK
6
CONTINUOUS
10
183.72
20
-195.586
11
184.006
21
-195.586
0
LINE
8
BLACK
6
CONTINUOUS
10
184.006
20
-195.586
11
184.149
21
-195.657
0
LINE
8
BLACK
6
CONTINUOUS
10
186.006
20
-195.8
11
186.506
21
-195.8
0
LINE
8
BLACK
6
CONTINUOUS
10
186.72
20
-196.586
11
186.006
21
-196.586
0
LINE
8
BLACK
6
CONTINUOUS
10
186.006
20
-196.586
11
186.006
21
-195.086
0
LINE
8
BLACK
6
CONTINUOUS
10
186.006
20
-195.086
11
186.72
21
-195.086
0
LINE
8
BLACK
6
CONTINUOUS
10
187.363
20
-196.443
11
187.434
21
-196.514
0
LINE
8
BLACK
6
CONTINUOUS
10
187.434
20
-196.514
11
187.363
21
-196.586
0
LINE
8
BLACK
6
CONTINUOUS
10
187.363
20
-196.586
11
187.291
21
-196.514
0
LINE
8
BLACK
6
CONTINUOUS
10
187.291
20
-196.514
11
187.363
21
-196.443
0
LINE
8
BLACK
6
CONTINUOUS
10
187.363
20
-196.443
11
187.363
21
-196.586
0
LINE
8
BLACK
6
CONTINUOUS
10
188.077
20
-196.586
11
188.077
21
-195.086
0
LINE
8
BLACK
6
CONTINUOUS
10
188.077
20
-195.086
11
188.434
21
-195.086
0
LINE
8
BLACK
6
CONTINUOUS
10
188.434
20
-195.086
11
188.649
21
-195.157
0
LINE
8
BLACK
6
CONTINUOUS
10
188.649
20
-195.157
11
188.791
21
-195.3
0
LINE
8
BLACK
6
CONTINUOUS
10
188.791
20
-195.3
11
188.863
21
-195.443
0
LINE
8
BLACK
6
CONTINUOUS
10
188.863
20
-195.443
11
188.934
21
-195.729
0
LINE
8
BLACK
6
CONTINUOUS
10
188.934
20
-195.729
11
188.934
21
-195.943
0
LINE
8
BLACK
6
CONTINUOUS
10
188.934
20
-195.943
11
188.863
21
-196.229
0
LINE
8
BLACK
6
CONTINUOUS
10
188.863
20
-196.229
11
188.791
21
-196.371
0
LINE
8
BLACK
6
CONTINUOUS
10
188.791
20
-196.371
11
188.649
21
-196.514
0
LINE
8
BLACK
6
CONTINUOUS
10
188.649
20
-196.514
11
188.434
21
-196.586
0
LINE
8
BLACK
6
CONTINUOUS
10
188.434
20
-196.586
11
188.077
21
-196.586
0
LINE
8
BLACK
6
CONTINUOUS
10
189.577
20
-196.443
11
189.649
21
-196.514
0
LINE
8
BLACK
6
CONTINUOUS
10
189.649
20
-196.514
11
189.577
21
-196.586
0
LINE
8
BLACK
6
CONTINUOUS
10
189.577
20
-196.586
11
189.506
21
-196.514
0
LINE
8
BLACK
6
CONTINUOUS
10
189.506
20
-196.514
11
189.577
21
-196.443
0
LINE
8
BLACK
6
CONTINUOUS
10
189.577
20
-196.443
11
189.577
21
-196.586
0
LINE
8
BLACK
6
CONTINUOUS
10
190.22
20
-196.157
11
190.934
21
-196.157
0
LINE
8
BLACK
6
CONTINUOUS
10
190.077
20
-196.586
11
190.577
21
-195.086
0
LINE
8
BLACK
6
CONTINUOUS
10
190.577
20
-195.086
11
191.077
21
-196.586
0
LINE
8
BLACK
6
CONTINUOUS
10
191.577
20
-196.443
11
191.649
21
-196.514
0
LINE
8
BLACK
6
CONTINUOUS
10
191.649
20
-196.514
11
191.577
21
-196.586
0
LINE
8
BLACK
6
CONTINUOUS
10
191.577
20
-196.586
11
191.506
21
-196.514
0
LINE
8
BLACK
6
CONTINUOUS
10
191.506
20
-196.514
11
191.577
21
-196.443
0
LINE
8
BLACK
6
CONTINUOUS
10
191.577
20
-196.443
11
191.577
21
-196.586
0
LINE
8
BLACK
6
CONTINUOUS
10
194.577
20
-196.586
11
194.577
21
-195.086
0
LINE
8
BLACK
6
CONTINUOUS
10
194.72
20
-196.014
11
195.149
21
-196.586
0
LINE
8
BLACK
6
CONTINUOUS
10
195.149
20
-195.586
11
194.577
21
-196.157
0
LINE
8
BLACK
6
CONTINUOUS
10
195.791
20
-196.586
11
195.791
21
-195.586
0
LINE
8
BLACK
6
CONTINUOUS
10
195.791
20
-195.086
11
195.72
21
-195.157
0
LINE
8
BLACK
6
CONTINUOUS
10
195.72
20
-195.157
11
195.791
21
-195.229
0
LINE
8
BLACK
6
CONTINUOUS
10
195.791
20
-195.229
11
195.863
21
-195.157
0
LINE
8
BLACK
6
CONTINUOUS
10
195.863
20
-195.157
11
195.791
21
-195.086
0
LINE
8
BLACK
6
CONTINUOUS
10
195.791
20
-195.086
11
195.791
21
-195.229
0
LINE
8
BLACK
6
CONTINUOUS
10
197.149
20
-196.514
11
197.006
21
-196.586
0
LINE
8
BLACK
6
CONTINUOUS
10
197.006
20
-196.586
11
196.72
21
-196.586
0
LINE
8
BLACK
6
CONTINUOUS
10
196.72
20
-196.586
11
196.577
21
-196.514
0
LINE
8
BLACK
6
CONTINUOUS
10
196.577
20
-196.514
11
196.506
21
-196.443
0
LINE
8
BLACK
6
CONTINUOUS
10
196.506
20
-196.443
11
196.434
21
-196.3
0
LINE
8
BLACK
6
CONTINUOUS
10
196.434
20
-196.3
11
196.434
21
-195.871
0
LINE
8
BLACK
6
CONTINUOUS
10
196.434
20
-195.871
11
196.506
21
-195.729
0
LINE
8
BLACK
6
CONTINUOUS
10
196.506
20
-195.729
11
196.577
21
-195.657
0
LINE
8
BLACK
6
CONTINUOUS
10
196.577
20
-195.657
11
196.72
21
-195.586
0
LINE
8
BLACK
6
CONTINUOUS
10
196.72
20
-195.586
11
197.006
21
-195.586
0
LINE
8
BLACK
6
CONTINUOUS
10
197.006
20
-195.586
11
197.149
21
-195.657
0
LINE
8
BLACK
6
CONTINUOUS
10
198.434
20
-196.586
11
198.434
21
-195.8
0
LINE
8
BLACK
6
CONTINUOUS
10
198.434
20
-195.8
11
198.363
21
-195.657
0
LINE
8
BLACK
6
CONTINUOUS
10
198.363
20
-195.657
11
198.22
21
-195.586
0
LINE
8
BLACK
6
CONTINUOUS
10
198.22
20
-195.586
11
197.934
21
-195.586
0
LINE
8
BLACK
6
CONTINUOUS
10
197.934
20
-195.586
11
197.791
21
-195.657
0
LINE
8
BLACK
6
CONTINUOUS
10
198.434
20
-196.514
11
198.291
21
-196.586
0
LINE
8
BLACK
6
CONTINUOUS
10
198.291
20
-196.586
11
197.934
21
-196.586
0
LINE
8
BLACK
6
CONTINUOUS
10
197.934
20
-196.586
11
197.791
21
-196.514
0
LINE
8
BLACK
6
CONTINUOUS
10
197.791
20
-196.514
11
197.72
21
-196.371
0
LINE
8
BLACK
6
CONTINUOUS
10
197.72
20
-196.371
11
197.72
21
-196.229
0
LINE
8
BLACK
6
CONTINUOUS
10
197.72
20
-196.229
11
197.791
21
-196.086
0
LINE
8
BLACK
6
CONTINUOUS
10
197.791
20
-196.086
11
197.934
21
-196.014
0
LINE
8
BLACK
6
CONTINUOUS
10
197.934
20
-196.014
11
198.291
21
-196.014
0
LINE
8
BLACK
6
CONTINUOUS
10
198.291
20
-196.014
11
198.434
21
-195.943
0
LINE
8
BLACK
6
CONTINUOUS
10
199.791
20
-196.586
11
199.791
21
-195.086
0
LINE
8
BLACK
6
CONTINUOUS
10
199.791
20
-196.514
11
199.649
21
-196.586
0
LINE
8
BLACK
6
CONTINUOUS
10
199.649
20
-196.586
11
199.363
21
-196.586
0
LINE
8
BLACK
6
CONTINUOUS
10
199.363
20
-196.586
11
199.22
21
-196.514
0
LINE
8
BLACK
6
CONTINUOUS
10
199.22
20
-196.514
11
199.149
21
-196.443
0
LINE
8
BLACK
6
CONTINUOUS
10
199.149
20
-196.443
11
199.077
21
-196.3
0
LINE
8
BLACK
6
CONTINUOUS
10
199.077
20
-196.3
11
199.077
21
-195.871
0
LINE
8
BLACK
6
CONTINUOUS
10
199.077
20
-195.871
11
199.149
21
-195.729
0
LINE
8
BLACK
6
CONTINUOUS
10
199.149
20
-195.729
11
199.22
21
-195.657
0
LINE
8
BLACK
6
CONTINUOUS
10
199.22
20
-195.657
11
199.363
21
-195.586
0
LINE
8
BLACK
6
CONTINUOUS
10
199.363
20
-195.586
11
199.649
21
-195.586
0
LINE
8
BLACK
6
CONTINUOUS
10
199.649
20
-195.586
11
199.791
21
-195.657
0
LINE
8
BLACK
6
CONTINUOUS
10
202.077
20
-197.157
11
202.006
21
-197.086
0
LINE
8
BLACK
6
CONTINUOUS
10
202.006
20
-197.086
11
201.863
21
-196.871
0
LINE
8
BLACK
6
CONTINUOUS
10
201.863
20
-196.871
11
201.791
21
-196.729
0
LINE
8
BLACK
6
CONTINUOUS
10
201.791
20
-196.729
11
201.72
21
-196.514
0
LINE
8
BLACK
6
CONTINUOUS
10
201.72
20
-196.514
11
201.649
21
-196.157
0
LINE
8
BLACK
6
CONTINUOUS
10
201.649
20
-196.157
11
201.649
21
-195.871
0
LINE
8
BLACK
6
CONTINUOUS
10
201.649
20
-195.871
11
201.72
21
-195.514
0
LINE
8
BLACK
6
CONTINUOUS
10
201.72
20
-195.514
11
201.791
21
-195.3
0
LINE
8
BLACK
6
CONTINUOUS
10
201.791
20
-195.3
11
201.863
21
-195.157
0
LINE
8
BLACK
6
CONTINUOUS
10
201.863
20
-195.157
11
202.006
21
-194.943
0
LINE
8
BLACK
6
CONTINUOUS
10
202.006
20
-194.943
11
202.077
21
-194.871
0
LINE
8
BLACK
6
CONTINUOUS
10
203.291
20
-195.086
11
203.006
21
-195.086
0
LINE
8
BLACK
6
CONTINUOUS
10
203.006
20
-195.086
11
202.863
21
-195.157
0
LINE
8
BLACK
6
CONTINUOUS
10
202.863
20
-195.157
11
202.791
21
-195.229
0
LINE
8
BLACK
6
CONTINUOUS
10
202.791
20
-195.229
11
202.649
21
-195.443
0
LINE
8
BLACK
6
CONTINUOUS
10
202.649
20
-195.443
11
202.577
21
-195.729
0
LINE
8
BLACK
6
CONTINUOUS
10
202.577
20
-195.729
11
202.577
21
-196.3
0
LINE
8
BLACK
6
CONTINUOUS
10
202.577
20
-196.3
11
202.649
21
-196.443
0
LINE
8
BLACK
6
CONTINUOUS
10
202.649
20
-196.443
11
202.72
21
-196.514
0
LINE
8
BLACK
6
CONTINUOUS
10
202.72
20
-196.514
11
202.863
21
-196.586
0
LINE
8
BLACK
6
CONTINUOUS
10
202.863
20
-196.586
11
203.149
21
-196.586
0
LINE
8
BLACK
6
CONTINUOUS
10
203.149
20
-196.586
11
203.291
21
-196.514
0
LINE
8
BLACK
6
CONTINUOUS
10
203.291
20
-196.514
11
203.363
21
-196.443
0
LINE
8
BLACK
6
CONTINUOUS
10
203.363
20
-196.443
11
203.434
21
-196.3
0
LINE
8
BLACK
6
CONTINUOUS
10
203.434
20
-196.3
11
203.434
21
-195.943
0
LINE
8
BLACK
6
CONTINUOUS
10
203.434
20
-195.943
11
203.363
21
-195.8
0
LINE
8
BLACK
6
CONTINUOUS
10
203.363
20
-195.8
11
203.291
21
-195.729
0
LINE
8
BLACK
6
CONTINUOUS
10
203.291
20
-195.729
11
203.149
21
-195.657
0
LINE
8
BLACK
6
CONTINUOUS
10
203.149
20
-195.657
11
202.863
21
-195.657
0
LINE
8
BLACK
6
CONTINUOUS
10
202.863
20
-195.657
11
202.72
21
-195.729
0
LINE
8
BLACK
6
CONTINUOUS
10
202.72
20
-195.729
11
202.649
21
-195.8
0
LINE
8
BLACK
6
CONTINUOUS
10
202.649
20
-195.8
11
202.577
21
-195.943
0
LINE
8
BLACK
6
CONTINUOUS
10
204.077
20
-196.443
11
204.149
21
-196.514
0
LINE
8
BLACK
6
CONTINUOUS
10
204.149
20
-196.514
11
204.077
21
-196.586
0
LINE
8
BLACK
6
CONTINUOUS
10
204.077
20
-196.586
11
204.006
21
-196.514
0
LINE
8
BLACK
6
CONTINUOUS
10
204.006
20
-196.514
11
204.077
21
-196.443
0
LINE
8
BLACK
6
CONTINUOUS
10
204.077
20
-196.443
11
204.077
21
-196.586
0
LINE
8
BLACK
6
CONTINUOUS
10
205.077
20
-195.086
11
205.22
21
-195.086
0
LINE
8
BLACK
6
CONTINUOUS
10
205.22
20
-195.086
11
205.363
21
-195.157
0
LINE
8
BLACK
6
CONTINUOUS
10
205.363
20
-195.157
11
205.434
21
-195.229
0
LINE
8
BLACK
6
CONTINUOUS
10
205.434
20
-195.229
11
205.506
21
-195.371
0
LINE
8
BLACK
6
CONTINUOUS
10
205.506
20
-195.371
11
205.577
21
-195.657
0
LINE
8
BLACK
6
CONTINUOUS
10
205.577
20
-195.657
11
205.577
21
-196.014
0
LINE
8
BLACK
6
CONTINUOUS
10
205.577
20
-196.014
11
205.506
21
-196.3
0
LINE
8
BLACK
6
CONTINUOUS
10
205.506
20
-196.3
11
205.434
21
-196.443
0
LINE
8
BLACK
6
CONTINUOUS
10
205.434
20
-196.443
11
205.363
21
-196.514
0
LINE
8
BLACK
6
CONTINUOUS
10
205.363
20
-196.514
11
205.22
21
-196.586
0
LINE
8
BLACK
6
CONTINUOUS
10
205.22
20
-196.586
11
205.077
21
-196.586
0
LINE
8
BLACK
6
CONTINUOUS
10
205.077
20
-196.586
11
204.934
21
-196.514
0
LINE
8
BLACK
6
CONTINUOUS
10
204.934
20
-196.514
11
204.863
21
-196.443
0
LINE
8
BLACK
6
CONTINUOUS
10
204.863
20
-196.443
11
204.791
21
-196.3
0
LINE
8
BLACK
6
CONTINUOUS
10
204.791
20
-196.3
11
204.72
21
-196.014
0
LINE
8
BLACK
6
CONTINUOUS
10
204.72
20
-196.014
11
204.72
21
-195.657
0
LINE
8
BLACK
6
CONTINUOUS
10
204.72
20
-195.657
11
204.791
21
-195.371
0
LINE
8
BLACK
6
CONTINUOUS
10
204.791
20
-195.371
11
204.863
21
-195.229
0
LINE
8
BLACK
6
CONTINUOUS
10
204.863
20
-195.229
11
204.934
21
-195.157
0
LINE
8
BLACK
6
CONTINUOUS
10
204.934
20
-195.157
11
205.077
21
-195.086
0
LINE
8
BLACK
6
CONTINUOUS
10
206.22
20
-196.443
11
206.291
21
-196.514
0
LINE
8
BLACK
6
CONTINUOUS
10
206.291
20
-196.514
11
206.22
21
-196.586
0
LINE
8
BLACK
6
CONTINUOUS
10
206.22
20
-196.586
11
206.149
21
-196.514
0
LINE
8
BLACK
6
CONTINUOUS
10
206.149
20
-196.514
11
206.22
21
-196.443
0
LINE
8
BLACK
6
CONTINUOUS
10
206.22
20
-196.443
11
206.22
21
-196.586
0
LINE
8
BLACK
6
CONTINUOUS
10
207.577
20
-195.586
11
207.577
21
-196.586
0
LINE
8
BLACK
6
CONTINUOUS
10
207.22
20
-195.014
11
206.863
21
-196.086
0
LINE
8
BLACK
6
CONTINUOUS
10
206.863
20
-196.086
11
207.791
21
-196.086
0
LINE
8
BLACK
6
CONTINUOUS
10
208.22
20
-197.157
11
208.291
21
-197.086
0
LINE
8
BLACK
6
CONTINUOUS
10
208.291
20
-197.086
11
208.434
21
-196.871
0
LINE
8
BLACK
6
CONTINUOUS
10
208.434
20
-196.871
11
208.506
21
-196.729
0
LINE
8
BLACK
6
CONTINUOUS
10
208.506
20
-196.729
11
208.577
21
-196.514
0
LINE
8
BLACK
6
CONTINUOUS
10
208.577
20
-196.514
11
208.649
21
-196.157
0
LINE
8
BLACK
6
CONTINUOUS
10
208.649
20
-196.157
11
208.649
21
-195.871
0
LINE
8
BLACK
6
CONTINUOUS
10
208.649
20
-195.871
11
208.577
21
-195.514
0
LINE
8
BLACK
6
CONTINUOUS
10
208.577
20
-195.514
11
208.506
21
-195.3
0
LINE
8
BLACK
6
CONTINUOUS
10
208.506
20
-195.3
11
208.434
21
-195.157
0
LINE
8
BLACK
6
CONTINUOUS
10
208.434
20
-195.157
11
208.291
21
-194.943
0
LINE
8
BLACK
6
CONTINUOUS
10
208.291
20
-194.943
11
208.22
21
-194.871
0
LINE
8
BLACK
6
CONTINUOUS
10
177.002
20
-191.507
11
285.002
21
-191.507
0
LINE
8
BLACK
6
CONTINUOUS
10
264.411
20
-193.786
11
263.911
21
-193.071
0
LINE
8
BLACK
6
CONTINUOUS
10
263.554
20
-193.786
11
263.554
21
-192.286
0
LINE
8
BLACK
6
CONTINUOUS
10
263.554
20
-192.286
11
264.126
21
-192.286
0
LINE
8
BLACK
6
CONTINUOUS
10
264.126
20
-192.286
11
264.269
21
-192.357
0
LINE
8
BLACK
6
CONTINUOUS
10
264.269
20
-192.357
11
264.34
21
-192.429
0
LINE
8
BLACK
6
CONTINUOUS
10
264.34
20
-192.429
11
264.411
21
-192.571
0
LINE
8
BLACK
6
CONTINUOUS
10
264.411
20
-192.571
11
264.411
21
-192.786
0
LINE
8
BLACK
6
CONTINUOUS
10
264.411
20
-192.786
11
264.34
21
-192.929
0
LINE
8
BLACK
6
CONTINUOUS
10
264.34
20
-192.929
11
264.269
21
-193
0
LINE
8
BLACK
6
CONTINUOUS
10
264.269
20
-193
11
264.126
21
-193.071
0
LINE
8
BLACK
6
CONTINUOUS
10
264.126
20
-193.071
11
263.554
21
-193.071
0
LINE
8
BLACK
6
CONTINUOUS
10
265.626
20
-193.714
11
265.483
21
-193.786
0
LINE
8
BLACK
6
CONTINUOUS
10
265.483
20
-193.786
11
265.197
21
-193.786
0
LINE
8
BLACK
6
CONTINUOUS
10
265.197
20
-193.786
11
265.054
21
-193.714
0
LINE
8
BLACK
6
CONTINUOUS
10
265.054
20
-193.714
11
264.983
21
-193.571
0
LINE
8
BLACK
6
CONTINUOUS
10
264.983
20
-193.571
11
264.983
21
-193
0
LINE
8
BLACK
6
CONTINUOUS
10
264.983
20
-193
11
265.054
21
-192.857
0
LINE
8
BLACK
6
CONTINUOUS
10
265.054
20
-192.857
11
265.197
21
-192.786
0
LINE
8
BLACK
6
CONTINUOUS
10
265.197
20
-192.786
11
265.483
21
-192.786
0
LINE
8
BLACK
6
CONTINUOUS
10
265.483
20
-192.786
11
265.626
21
-192.857
0
LINE
8
BLACK
6
CONTINUOUS
10
265.626
20
-192.857
11
265.697
21
-193
0
LINE
8
BLACK
6
CONTINUOUS
10
265.697
20
-193
11
265.697
21
-193.143
0
LINE
8
BLACK
6
CONTINUOUS
10
265.697
20
-193.143
11
264.983
21
-193.286
0
LINE
8
BLACK
6
CONTINUOUS
10
266.197
20
-192.786
11
266.554
21
-193.786
0
LINE
8
BLACK
6
CONTINUOUS
10
266.554
20
-193.786
11
266.911
21
-192.786
0
LINE
8
BLACK
6
CONTINUOUS
10
267.483
20
-193.643
11
267.554
21
-193.714
0
LINE
8
BLACK
6
CONTINUOUS
10
267.554
20
-193.714
11
267.483
21
-193.786
0
LINE
8
BLACK
6
CONTINUOUS
10
267.483
20
-193.786
11
267.411
21
-193.714
0
LINE
8
BLACK
6
CONTINUOUS
10
267.411
20
-193.714
11
267.483
21
-193.643
0
LINE
8
BLACK
6
CONTINUOUS
10
267.483
20
-193.643
11
267.483
21
-193.786
0
LINE
8
BLACK
6
CONTINUOUS
10
267.483
20
-192.857
11
267.554
21
-192.929
0
LINE
8
BLACK
6
CONTINUOUS
10
267.554
20
-192.929
11
267.483
21
-193
0
LINE
8
BLACK
6
CONTINUOUS
10
267.483
20
-193
11
267.411
21
-192.929
0
LINE
8
BLACK
6
CONTINUOUS
10
267.411
20
-192.929
11
267.483
21
-192.857
0
LINE
8
BLACK
6
CONTINUOUS
10
267.483
20
-192.857
11
267.483
21
-193
0
LINE
8
BLACK
6
CONTINUOUS
10
269.269
20
-192.429
11
269.34
21
-192.357
0
LINE
8
BLACK
6
CONTINUOUS
10
269.34
20
-192.357
11
269.483
21
-192.286
0
LINE
8
BLACK
6
CONTINUOUS
10
269.483
20
-192.286
11
269.84
21
-192.286
0
LINE
8
BLACK
6
CONTINUOUS
10
269.84
20
-192.286
11
269.983
21
-192.357
0
LINE
8
BLACK
6
CONTINUOUS
10
269.983
20
-192.357
11
270.054
21
-192.429
0
LINE
8
BLACK
6
CONTINUOUS
10
270.054
20
-192.429
11
270.126
21
-192.571
0
LINE
8
BLACK
6
CONTINUOUS
10
270.126
20
-192.571
11
270.126
21
-192.714
0
LINE
8
BLACK
6
CONTINUOUS
10
270.126
20
-192.714
11
270.054
21
-192.929
0
LINE
8
BLACK
6
CONTINUOUS
10
270.054
20
-192.929
11
269.197
21
-193.786
0
LINE
8
BLACK
6
CONTINUOUS
10
269.197
20
-193.786
11
270.126
21
-193.786
0
LINE
8
BLACK
6
CONTINUOUS
10
270.769
20
-193.643
11
270.84
21
-193.714
0
LINE
8
BLACK
6
CONTINUOUS
10
270.84
20
-193.714
11
270.769
21
-193.786
0
LINE
8
BLACK
6
CONTINUOUS
10
270.769
20
-193.786
11
270.697
21
-193.714
0
LINE
8
BLACK
6
CONTINUOUS
10
270.697
20
-193.714
11
270.769
21
-193.643
0
LINE
8
BLACK
6
CONTINUOUS
10
270.769
20
-193.643
11
270.769
21
-193.786
0
LINE
8
BLACK
6
CONTINUOUS
10
271.769
20
-192.286
11
271.911
21
-192.286
0
LINE
8
BLACK
6
CONTINUOUS
10
271.911
20
-192.286
11
272.054
21
-192.357
0
LINE
8
BLACK
6
CONTINUOUS
10
272.054
20
-192.357
11
272.126
21
-192.429
0
LINE
8
BLACK
6
CONTINUOUS
10
272.126
20
-192.429
11
272.197
21
-192.571
0
LINE
8
BLACK
6
CONTINUOUS
10
272.197
20
-192.571
11
272.269
21
-192.857
0
LINE
8
BLACK
6
CONTINUOUS
10
272.269
20
-192.857
11
272.269
21
-193.214
0
LINE
8
BLACK
6
CONTINUOUS
10
272.269
20
-193.214
11
272.197
21
-193.5
0
LINE
8
BLACK
6
CONTINUOUS
10
272.197
20
-193.5
11
272.126
21
-193.643
0
LINE
8
BLACK
6
CONTINUOUS
10
272.126
20
-193.643
11
272.054
21
-193.714
0
LINE
8
BLACK
6
CONTINUOUS
10
272.054
20
-193.714
11
271.911
21
-193.786
0
LINE
8
BLACK
6
CONTINUOUS
10
271.911
20
-193.786
11
271.769
21
-193.786
0
LINE
8
BLACK
6
CONTINUOUS
10
271.769
20
-193.786
11
271.626
21
-193.714
0
LINE
8
BLACK
6
CONTINUOUS
10
271.626
20
-193.714
11
271.554
21
-193.643
0
LINE
8
BLACK
6
CONTINUOUS
10
271.554
20
-193.643
11
271.483
21
-193.5
0
LINE
8
BLACK
6
CONTINUOUS
10
271.483
20
-193.5
11
271.411
21
-193.214
0
LINE
8
BLACK
6
CONTINUOUS
10
271.411
20
-193.214
11
271.411
21
-192.857
0
LINE
8
BLACK
6
CONTINUOUS
10
271.411
20
-192.857
11
271.483
21
-192.571
0
LINE
8
BLACK
6
CONTINUOUS
10
271.483
20
-192.571
11
271.554
21
-192.429
0
LINE
8
BLACK
6
CONTINUOUS
10
271.554
20
-192.429
11
271.626
21
-192.357
0
LINE
8
BLACK
6
CONTINUOUS
10
271.626
20
-192.357
11
271.769
21
-192.286
0
LINE
8
BLACK
6
CONTINUOUS
10
178.363
20
-193.714
11
178.577
21
-193.786
0
LINE
8
BLACK
6
CONTINUOUS
10
178.577
20
-193.786
11
178.934
21
-193.786
0
LINE
8
BLACK
6
CONTINUOUS
10
178.934
20
-193.786
11
179.077
21
-193.714
0
LINE
8
BLACK
6
CONTINUOUS
10
179.077
20
-193.714
11
179.149
21
-193.643
0
LINE
8
BLACK
6
CONTINUOUS
10
179.149
20
-193.643
11
179.22
21
-193.5
0
LINE
8
BLACK
6
CONTINUOUS
10
179.22
20
-193.5
11
179.22
21
-193.357
0
LINE
8
BLACK
6
CONTINUOUS
10
179.22
20
-193.357
11
179.149
21
-193.214
0
LINE
8
BLACK
6
CONTINUOUS
10
179.149
20
-193.214
11
179.077
21
-193.143
0
LINE
8
BLACK
6
CONTINUOUS
10
179.077
20
-193.143
11
178.934
21
-193.071
0
LINE
8
BLACK
6
CONTINUOUS
10
178.934
20
-193.071
11
178.649
21
-193
0
LINE
8
BLACK
6
CONTINUOUS
10
178.649
20
-193
11
178.506
21
-192.929
0
LINE
8
BLACK
6
CONTINUOUS
10
178.506
20
-192.929
11
178.434
21
-192.857
0
LINE
8
BLACK
6
CONTINUOUS
10
178.434
20
-192.857
11
178.363
21
-192.714
0
LINE
8
BLACK
6
CONTINUOUS
10
178.363
20
-192.714
11
178.363
21
-192.571
0
LINE
8
BLACK
6
CONTINUOUS
10
178.363
20
-192.571
11
178.434
21
-192.429
0
LINE
8
BLACK
6
CONTINUOUS
10
178.434
20
-192.429
11
178.506
21
-192.357
0
LINE
8
BLACK
6
CONTINUOUS
10
178.506
20
-192.357
11
178.649
21
-192.286
0
LINE
8
BLACK
6
CONTINUOUS
10
178.649
20
-192.286
11
179.006
21
-192.286
0
LINE
8
BLACK
6
CONTINUOUS
10
179.006
20
-192.286
11
179.22
21
-192.357
0
LINE
8
BLACK
6
CONTINUOUS
10
179.863
20
-193.786
11
179.863
21
-192.786
0
LINE
8
BLACK
6
CONTINUOUS
10
179.863
20
-192.286
11
179.791
21
-192.357
0
LINE
8
BLACK
6
CONTINUOUS
10
179.791
20
-192.357
11
179.863
21
-192.429
0
LINE
8
BLACK
6
CONTINUOUS
10
179.863
20
-192.429
11
179.934
21
-192.357
0
LINE
8
BLACK
6
CONTINUOUS
10
179.934
20
-192.357
11
179.863
21
-192.286
0
LINE
8
BLACK
6
CONTINUOUS
10
179.863
20
-192.286
11
179.863
21
-192.429
0
LINE
8
BLACK
6
CONTINUOUS
10
180.434
20
-192.786
11
181.22
21
-192.786
0
LINE
8
BLACK
6
CONTINUOUS
10
181.22
20
-192.786
11
180.434
21
-193.786
0
LINE
8
BLACK
6
CONTINUOUS
10
180.434
20
-193.786
11
181.22
21
-193.786
0
LINE
8
BLACK
6
CONTINUOUS
10
182.363
20
-193.714
11
182.22
21
-193.786
0
LINE
8
BLACK
6
CONTINUOUS
10
182.22
20
-193.786
11
181.934
21
-193.786
0
LINE
8
BLACK
6
CONTINUOUS
10
181.934
20
-193.786
11
181.791
21
-193.714
0
LINE
8
BLACK
6
CONTINUOUS
10
181.791
20
-193.714
11
181.72
21
-193.571
0
LINE
8
BLACK
6
CONTINUOUS
10
181.72
20
-193.571
11
181.72
21
-193
0
LINE
8
BLACK
6
CONTINUOUS
10
181.72
20
-193
11
181.791
21
-192.857
0
LINE
8
BLACK
6
CONTINUOUS
10
181.791
20
-192.857
11
181.934
21
-192.786
0
LINE
8
BLACK
6
CONTINUOUS
10
181.934
20
-192.786
11
182.22
21
-192.786
0
LINE
8
BLACK
6
CONTINUOUS
10
182.22
20
-192.786
11
182.363
21
-192.857
0
LINE
8
BLACK
6
CONTINUOUS
10
182.363
20
-192.857
11
182.434
21
-193
0
LINE
8
BLACK
6
CONTINUOUS
10
182.434
20
-193
11
182.434
21
-193.143
0
LINE
8
BLACK
6
CONTINUOUS
10
182.434
20
-193.143
11
181.72
21
-193.286
0
LINE
8
BLACK
6
CONTINUOUS
10
183.077
20
-193.643
11
183.149
21
-193.714
0
LINE
8
BLACK
6
CONTINUOUS
10
183.149
20
-193.714
11
183.077
21
-193.786
0
LINE
8
BLACK
6
CONTINUOUS
10
183.077
20
-193.786
11
183.006
21
-193.714
0
LINE
8
BLACK
6
CONTINUOUS
10
183.006
20
-193.714
11
183.077
21
-193.643
0
LINE
8
BLACK
6
CONTINUOUS
10
183.077
20
-193.643
11
183.077
21
-193.786
0
LINE
8
BLACK
6
CONTINUOUS
10
183.077
20
-192.857
11
183.149
21
-192.929
0
LINE
8
BLACK
6
CONTINUOUS
10
183.149
20
-192.929
11
183.077
21
-193
0
LINE
8
BLACK
6
CONTINUOUS
10
183.077
20
-193
11
183.006
21
-192.929
0
LINE
8
BLACK
6
CONTINUOUS
10
183.006
20
-192.929
11
183.077
21
-192.857
0
LINE
8
BLACK
6
CONTINUOUS
10
183.077
20
-192.857
11
183.077
21
-193
0
LINE
8
BLACK
6
CONTINUOUS
10
184.863
20
-193.357
11
185.577
21
-193.357
0
LINE
8
BLACK
6
CONTINUOUS
10
184.72
20
-193.786
11
185.22
21
-192.286
0
LINE
8
BLACK
6
CONTINUOUS
10
185.22
20
-192.286
11
185.72
21
-193.786
0
LINE
8
BLACK
6
CONTINUOUS
10
186.863
20
-192.786
11
186.863
21
-193.786
0
LINE
8
BLACK
6
CONTINUOUS
10
186.506
20
-192.214
11
186.149
21
-193.286
0
LINE
8
BLACK
6
CONTINUOUS
10
186.149
20
-193.286
11
187.077
21
-193.286
0
LINE
8
BLACK
6
CONTINUOUS
10
263.434
20
-196.586
11
263.434
21
-195.086
0
LINE
8
BLACK
6
CONTINUOUS
10
264.791
20
-196.586
11
264.791
21
-195.086
0
LINE
8
BLACK
6
CONTINUOUS
10
264.791
20
-196.514
11
264.649
21
-196.586
0
LINE
8
BLACK
6
CONTINUOUS
10
264.649
20
-196.586
11
264.363
21
-196.586
0
LINE
8
BLACK
6
CONTINUOUS
10
264.363
20
-196.586
11
264.22
21
-196.514
0
LINE
8
BLACK
6
CONTINUOUS
10
264.22
20
-196.514
11
264.149
21
-196.443
0
LINE
8
BLACK
6
CONTINUOUS
10
264.149
20
-196.443
11
264.077
21
-196.3
0
LINE
8
BLACK
6
CONTINUOUS
10
264.077
20
-196.3
11
264.077
21
-195.871
0
LINE
8
BLACK
6
CONTINUOUS
10
264.077
20
-195.871
11
264.149
21
-195.729
0
LINE
8
BLACK
6
CONTINUOUS
10
264.149
20
-195.729
11
264.22
21
-195.657
0
LINE
8
BLACK
6
CONTINUOUS
10
264.22
20
-195.657
11
264.363
21
-195.586
0
LINE
8
BLACK
6
CONTINUOUS
10
264.363
20
-195.586
11
264.649
21
-195.586
0
LINE
8
BLACK
6
CONTINUOUS
10
264.649
20
-195.586
11
264.791
21
-195.657
0
LINE
8
BLACK
6
CONTINUOUS
10
265.506
20
-196.443
11
265.577
21
-196.514
0
LINE
8
BLACK
6
CONTINUOUS
10
265.577
20
-196.514
11
265.506
21
-196.586
0
LINE
8
BLACK
6
CONTINUOUS
10
265.506
20
-196.586
11
265.434
21
-196.514
0
LINE
8
BLACK
6
CONTINUOUS
10
265.434
20
-196.514
11
265.506
21
-196.443
0
LINE
8
BLACK
6
CONTINUOUS
10
265.506
20
-196.443
11
265.506
21
-196.586
0
LINE
8
BLACK
6
CONTINUOUS
10
265.506
20
-195.657
11
265.577
21
-195.729
0
LINE
8
BLACK
6
CONTINUOUS
10
265.577
20
-195.729
11
265.506
21
-195.8
0
LINE
8
BLACK
6
CONTINUOUS
10
265.506
20
-195.8
11
265.434
21
-195.729
0
LINE
8
BLACK
6
CONTINUOUS
10
265.434
20
-195.729
11
265.506
21
-195.657
0
LINE
8
BLACK
6
CONTINUOUS
10
265.506
20
-195.657
11
265.506
21
-195.8
0
LINE
8
BLACK
6
CONTINUOUS
10
268.149
20
-196.586
11
267.291
21
-196.586
0
LINE
8
BLACK
6
CONTINUOUS
10
267.72
20
-196.586
11
267.72
21
-195.086
0
LINE
8
BLACK
6
CONTINUOUS
10
267.72
20
-195.086
11
267.577
21
-195.3
0
LINE
8
BLACK
6
CONTINUOUS
10
267.577
20
-195.3
11
267.434
21
-195.443
0
LINE
8
BLACK
6
CONTINUOUS
10
267.434
20
-195.443
11
267.291
21
-195.514
0
LINE
8
BLACK
6
CONTINUOUS
10
269.863
20
-195.014
11
268.577
21
-196.943
0
LINE
8
BLACK
6
CONTINUOUS
10
271.149
20
-196.586
11
270.291
21
-196.586
0
LINE
8
BLACK
6
CONTINUOUS
10
270.72
20
-196.586
11
270.72
21
-195.086
0
LINE
8
BLACK
6
CONTINUOUS
10
270.72
20
-195.086
11
270.577
21
-195.3
0
LINE
8
BLACK
6
CONTINUOUS
10
270.577
20
-195.3
11
270.434
21
-195.443
0
LINE
8
BLACK
6
CONTINUOUS
10
270.434
20
-195.443
11
270.291
21
-195.514
0
LINE
8
BLACK
6
CONTINUOUS
10
177.002
20
-187.507
11
285.002
21
-187.507
0
LINE
8
BLACK
6
CONTINUOUS
10
178.715
20
-188.212
11
179.857
21
-188.212
0
LINE
8
BLACK
6
CONTINUOUS
10
179.036
20
-190.212
11
179.286
21
-188.212
0
LINE
8
BLACK
6
CONTINUOUS
10
180.274
20
-190.212
11
180.441
21
-188.879
0
LINE
8
BLACK
6
CONTINUOUS
10
180.524
20
-188.212
11
180.417
21
-188.307
0
LINE
8
BLACK
6
CONTINUOUS
10
180.417
20
-188.307
11
180.5
21
-188.402
0
LINE
8
BLACK
6
CONTINUOUS
10
180.5
20
-188.402
11
180.607
21
-188.307
0
LINE
8
BLACK
6
CONTINUOUS
10
180.607
20
-188.307
11
180.524
21
-188.212
0
LINE
8
BLACK
6
CONTINUOUS
10
180.524
20
-188.212
11
180.5
21
-188.402
0
LINE
8
BLACK
6
CONTINUOUS
10
181.107
20
-188.879
11
181.869
21
-188.879
0
LINE
8
BLACK
6
CONTINUOUS
10
181.476
20
-188.212
11
181.262
21
-189.926
0
LINE
8
BLACK
6
CONTINUOUS
10
181.262
20
-189.926
11
181.334
21
-190.117
0
LINE
8
BLACK
6
CONTINUOUS
10
181.334
20
-190.117
11
181.512
21
-190.212
0
LINE
8
BLACK
6
CONTINUOUS
10
181.512
20
-190.212
11
181.703
21
-190.212
0
LINE
8
BLACK
6
CONTINUOUS
10
182.655
20
-190.212
11
182.476
21
-190.117
0
LINE
8
BLACK
6
CONTINUOUS
10
182.476
20
-190.117
11
182.405
21
-189.926
0
LINE
8
BLACK
6
CONTINUOUS
10
182.405
20
-189.926
11
182.619
21
-188.212
0
LINE
8
BLACK
6
CONTINUOUS
10
184.191
20
-190.117
11
183.988
21
-190.212
0
LINE
8
BLACK
6
CONTINUOUS
10
183.988
20
-190.212
11
183.607
21
-190.212
0
LINE
8
BLACK
6
CONTINUOUS
10
183.607
20
-190.212
11
183.429
21
-190.117
0
LINE
8
BLACK
6
CONTINUOUS
10
183.429
20
-190.117
11
183.357
21
-189.926
0
LINE
8
BLACK
6
CONTINUOUS
10
183.357
20
-189.926
11
183.453
21
-189.164
0
LINE
8
BLACK
6
CONTINUOUS
10
183.453
20
-189.164
11
183.572
21
-188.974
0
LINE
8
BLACK
6
CONTINUOUS
10
183.572
20
-188.974
11
183.774
21
-188.879
0
LINE
8
BLACK
6
CONTINUOUS
10
183.774
20
-188.879
11
184.155
21
-188.879
0
LINE
8
BLACK
6
CONTINUOUS
10
184.155
20
-188.879
11
184.334
21
-188.974
0
LINE
8
BLACK
6
CONTINUOUS
10
184.334
20
-188.974
11
184.405
21
-189.164
0
LINE
8
BLACK
6
CONTINUOUS
10
184.405
20
-189.164
11
184.381
21
-189.355
0
LINE
8
BLACK
6
CONTINUOUS
10
184.381
20
-189.355
11
183.405
21
-189.545
0
LINE
8
BLACK
6
CONTINUOUS
10
185.155
20
-190.021
11
185.238
21
-190.117
0
LINE
8
BLACK
6
CONTINUOUS
10
185.238
20
-190.117
11
185.131
21
-190.212
0
LINE
8
BLACK
6
CONTINUOUS
10
185.131
20
-190.212
11
185.048
21
-190.117
0
LINE
8
BLACK
6
CONTINUOUS
10
185.048
20
-190.117
11
185.155
21
-190.021
0
LINE
8
BLACK
6
CONTINUOUS
10
185.155
20
-190.021
11
185.131
21
-190.212
0
LINE
8
BLACK
6
CONTINUOUS
10
185.286
20
-188.974
11
185.369
21
-189.069
0
LINE
8
BLACK
6
CONTINUOUS
10
185.369
20
-189.069
11
185.262
21
-189.164
0
LINE
8
BLACK
6
CONTINUOUS
10
185.262
20
-189.164
11
185.179
21
-189.069
0
LINE
8
BLACK
6
CONTINUOUS
10
185.179
20
-189.069
11
185.286
21
-188.974
0
LINE
8
BLACK
6
CONTINUOUS
10
185.286
20
-188.974
11
185.262
21
-189.164
0
LINE
8
BLACK
6
CONTINUOUS
10
187.607
20
-190.212
11
187.857
21
-188.212
0
LINE
8
BLACK
6
CONTINUOUS
10
187.857
20
-188.212
11
188.619
21
-188.212
0
LINE
8
BLACK
6
CONTINUOUS
10
188.619
20
-188.212
11
188.798
21
-188.307
0
LINE
8
BLACK
6
CONTINUOUS
10
188.798
20
-188.307
11
188.881
21
-188.402
0
LINE
8
BLACK
6
CONTINUOUS
10
188.881
20
-188.402
11
188.953
21
-188.593
0
LINE
8
BLACK
6
CONTINUOUS
10
188.953
20
-188.593
11
188.917
21
-188.879
0
LINE
8
BLACK
6
CONTINUOUS
10
188.917
20
-188.879
11
188.798
21
-189.069
0
LINE
8
BLACK
6
CONTINUOUS
10
188.798
20
-189.069
11
188.691
21
-189.164
0
LINE
8
BLACK
6
CONTINUOUS
10
188.691
20
-189.164
11
188.488
21
-189.26
0
LINE
8
BLACK
6
CONTINUOUS
10
188.488
20
-189.26
11
187.726
21
-189.26
0
LINE
8
BLACK
6
CONTINUOUS
10
189.893
20
-190.212
11
189.715
21
-190.117
0
LINE
8
BLACK
6
CONTINUOUS
10
189.715
20
-190.117
11
189.643
21
-189.926
0
LINE
8
BLACK
6
CONTINUOUS
10
189.643
20
-189.926
11
189.857
21
-188.212
0
LINE
8
BLACK
6
CONTINUOUS
10
190.631
20
-188.879
11
190.941
21
-190.212
0
LINE
8
BLACK
6
CONTINUOUS
10
191.584
20
-188.879
11
190.941
21
-190.212
0
LINE
8
BLACK
6
CONTINUOUS
10
190.941
20
-190.212
11
190.691
21
-190.688
0
LINE
8
BLACK
6
CONTINUOUS
10
190.691
20
-190.688
11
190.584
21
-190.783
0
LINE
8
BLACK
6
CONTINUOUS
10
190.584
20
-190.783
11
190.381
21
-190.879
0
LINE
8
BLACK
6
CONTINUOUS
10
192.06
20
-188.879
11
192.822
21
-188.879
0
LINE
8
BLACK
6
CONTINUOUS
10
192.429
20
-188.212
11
192.215
21
-189.926
0
LINE
8
BLACK
6
CONTINUOUS
10
192.215
20
-189.926
11
192.286
21
-190.117
0
LINE
8
BLACK
6
CONTINUOUS
10
192.286
20
-190.117
11
192.465
21
-190.212
0
LINE
8
BLACK
6
CONTINUOUS
10
192.465
20
-190.212
11
192.655
21
-190.212
0
LINE
8
BLACK
6
CONTINUOUS
10
194.179
20
-190.212
11
194.31
21
-189.164
0
LINE
8
BLACK
6
CONTINUOUS
10
194.31
20
-189.164
11
194.238
21
-188.974
0
LINE
8
BLACK
6
CONTINUOUS
10
194.238
20
-188.974
11
194.06
21
-188.879
0
LINE
8
BLACK
6
CONTINUOUS
10
194.06
20
-188.879
11
193.679
21
-188.879
0
LINE
8
BLACK
6
CONTINUOUS
10
193.679
20
-188.879
11
193.476
21
-188.974
0
LINE
8
BLACK
6
CONTINUOUS
10
194.191
20
-190.117
11
193.988
21
-190.212
0
LINE
8
BLACK
6
CONTINUOUS
10
193.988
20
-190.212
11
193.512
21
-190.212
0
LINE
8
BLACK
6
CONTINUOUS
10
193.512
20
-190.212
11
193.334
21
-190.117
0
LINE
8
BLACK
6
CONTINUOUS
10
193.334
20
-190.117
11
193.262
21
-189.926
0
LINE
8
BLACK
6
CONTINUOUS
10
193.262
20
-189.926
11
193.286
21
-189.736
0
LINE
8
BLACK
6
CONTINUOUS
10
193.286
20
-189.736
11
193.405
21
-189.545
0
LINE
8
BLACK
6
CONTINUOUS
10
193.405
20
-189.545
11
193.607
21
-189.45
0
LINE
8
BLACK
6
CONTINUOUS
10
193.607
20
-189.45
11
194.084
21
-189.45
0
LINE
8
BLACK
6
CONTINUOUS
10
194.084
20
-189.45
11
194.286
21
-189.355
0
LINE
8
BLACK
6
CONTINUOUS
10
196.822
20
-188.879
11
196.572
21
-190.879
0
LINE
8
BLACK
6
CONTINUOUS
10
196.81
20
-188.974
11
197.012
21
-188.879
0
LINE
8
BLACK
6
CONTINUOUS
10
197.012
20
-188.879
11
197.393
21
-188.879
0
LINE
8
BLACK
6
CONTINUOUS
10
197.393
20
-188.879
11
197.572
21
-188.974
0
LINE
8
BLACK
6
CONTINUOUS
10
197.572
20
-188.974
11
197.655
21
-189.069
0
LINE
8
BLACK
6
CONTINUOUS
10
197.655
20
-189.069
11
197.726
21
-189.26
0
LINE
8
BLACK
6
CONTINUOUS
10
197.726
20
-189.26
11
197.655
21
-189.831
0
LINE
8
BLACK
6
CONTINUOUS
10
197.655
20
-189.831
11
197.536
21
-190.021
0
LINE
8
BLACK
6
CONTINUOUS
10
197.536
20
-190.021
11
197.429
21
-190.117
0
LINE
8
BLACK
6
CONTINUOUS
10
197.429
20
-190.117
11
197.226
21
-190.212
0
LINE
8
BLACK
6
CONTINUOUS
10
197.226
20
-190.212
11
196.846
21
-190.212
0
LINE
8
BLACK
6
CONTINUOUS
10
196.846
20
-190.212
11
196.667
21
-190.117
0
LINE
8
BLACK
6
CONTINUOUS
10
198.465
20
-190.212
11
198.631
21
-188.879
0
LINE
8
BLACK
6
CONTINUOUS
10
198.584
20
-189.26
11
198.703
21
-189.069
0
LINE
8
BLACK
6
CONTINUOUS
10
198.703
20
-189.069
11
198.81
21
-188.974
0
LINE
8
BLACK
6
CONTINUOUS
10
198.81
20
-188.974
11
199.012
21
-188.879
0
LINE
8
BLACK
6
CONTINUOUS
10
199.012
20
-188.879
11
199.203
21
-188.879
0
LINE
8
BLACK
6
CONTINUOUS
10
199.679
20
-188.879
11
200.726
21
-188.879
0
LINE
8
BLACK
6
CONTINUOUS
10
200.726
20
-188.879
11
199.512
21
-190.212
0
LINE
8
BLACK
6
CONTINUOUS
10
199.512
20
-190.212
11
200.56
21
-190.212
0
LINE
8
BLACK
6
CONTINUOUS
10
202.096
20
-190.117
11
201.893
21
-190.212
0
LINE
8
BLACK
6
CONTINUOUS
10
201.893
20
-190.212
11
201.512
21
-190.212
0
LINE
8
BLACK
6
CONTINUOUS
10
201.512
20
-190.212
11
201.334
21
-190.117
0
LINE
8
BLACK
6
CONTINUOUS
10
201.334
20
-190.117
11
201.262
21
-189.926
0
LINE
8
BLACK
6
CONTINUOUS
10
201.262
20
-189.926
11
201.357
21
-189.164
0
LINE
8
BLACK
6
CONTINUOUS
10
201.357
20
-189.164
11
201.476
21
-188.974
0
LINE
8
BLACK
6
CONTINUOUS
10
201.476
20
-188.974
11
201.679
21
-188.879
0
LINE
8
BLACK
6
CONTINUOUS
10
201.679
20
-188.879
11
202.06
21
-188.879
0
LINE
8
BLACK
6
CONTINUOUS
10
202.06
20
-188.879
11
202.238
21
-188.974
0
LINE
8
BLACK
6
CONTINUOUS
10
202.238
20
-188.974
11
202.31
21
-189.164
0
LINE
8
BLACK
6
CONTINUOUS
10
202.31
20
-189.164
11
202.286
21
-189.355
0
LINE
8
BLACK
6
CONTINUOUS
10
202.286
20
-189.355
11
201.31
21
-189.545
0
LINE
8
BLACK
6
CONTINUOUS
10
203.036
20
-190.212
11
203.286
21
-188.212
0
LINE
8
BLACK
6
CONTINUOUS
10
203.322
20
-189.45
11
203.798
21
-190.212
0
LINE
8
BLACK
6
CONTINUOUS
10
203.965
20
-188.879
11
203.107
21
-189.641
0
LINE
8
BLACK
6
CONTINUOUS
10
205.512
20
-190.212
11
205.643
21
-189.164
0
LINE
8
BLACK
6
CONTINUOUS
10
205.643
20
-189.164
11
205.572
21
-188.974
0
LINE
8
BLACK
6
CONTINUOUS
10
205.572
20
-188.974
11
205.393
21
-188.879
0
LINE
8
BLACK
6
CONTINUOUS
10
205.393
20
-188.879
11
205.012
21
-188.879
0
LINE
8
BLACK
6
CONTINUOUS
10
205.012
20
-188.879
11
204.81
21
-188.974
0
LINE
8
BLACK
6
CONTINUOUS
10
205.524
20
-190.117
11
205.322
21
-190.212
0
LINE
8
BLACK
6
CONTINUOUS
10
205.322
20
-190.212
11
204.846
21
-190.212
0
LINE
8
BLACK
6
CONTINUOUS
10
204.846
20
-190.212
11
204.667
21
-190.117
0
LINE
8
BLACK
6
CONTINUOUS
10
204.667
20
-190.117
11
204.596
21
-189.926
0
LINE
8
BLACK
6
CONTINUOUS
10
204.596
20
-189.926
11
204.619
21
-189.736
0
LINE
8
BLACK
6
CONTINUOUS
10
204.619
20
-189.736
11
204.738
21
-189.545
0
LINE
8
BLACK
6
CONTINUOUS
10
204.738
20
-189.545
11
204.941
21
-189.45
0
LINE
8
BLACK
6
CONTINUOUS
10
204.941
20
-189.45
11
205.417
21
-189.45
0
LINE
8
BLACK
6
CONTINUOUS
10
205.417
20
-189.45
11
205.619
21
-189.355
0
LINE
8
BLACK
6
CONTINUOUS
10
206.441
20
-188.879
11
207.488
21
-188.879
0
LINE
8
BLACK
6
CONTINUOUS
10
207.488
20
-188.879
11
206.274
21
-190.212
0
LINE
8
BLACK
6
CONTINUOUS
10
206.274
20
-190.212
11
207.322
21
-190.212
0
LINE
8
BLACK
6
CONTINUOUS
10
208.25
20
-188.879
11
208.084
21
-190.212
0
LINE
8
BLACK
6
CONTINUOUS
10
208.226
20
-189.069
11
208.334
21
-188.974
0
LINE
8
BLACK
6
CONTINUOUS
10
208.334
20
-188.974
11
208.536
21
-188.879
0
LINE
8
BLACK
6
CONTINUOUS
10
208.536
20
-188.879
11
208.822
21
-188.879
0
LINE
8
BLACK
6
CONTINUOUS
10
208.822
20
-188.879
11
209
21
-188.974
0
LINE
8
BLACK
6
CONTINUOUS
10
209
20
-188.974
11
209.072
21
-189.164
0
LINE
8
BLACK
6
CONTINUOUS
10
209.072
20
-189.164
11
208.941
21
-190.212
0
LINE
8
BLACK
6
CONTINUOUS
10
209.893
20
-190.212
11
210.06
21
-188.879
0
LINE
8
BLACK
6
CONTINUOUS
10
210.143
20
-188.212
11
210.036
21
-188.307
0
LINE
8
BLACK
6
CONTINUOUS
10
210.036
20
-188.307
11
210.119
21
-188.402
0
LINE
8
BLACK
6
CONTINUOUS
10
210.119
20
-188.402
11
210.226
21
-188.307
0
LINE
8
BLACK
6
CONTINUOUS
10
210.226
20
-188.307
11
210.143
21
-188.212
0
LINE
8
BLACK
6
CONTINUOUS
10
210.143
20
-188.212
11
210.119
21
-188.402
0
LINE
8
BLACK
6
CONTINUOUS
10
210.846
20
-190.212
11
211.096
21
-188.212
0
LINE
8
BLACK
6
CONTINUOUS
10
211.131
20
-189.45
11
211.607
21
-190.212
0
LINE
8
BLACK
6
CONTINUOUS
10
211.774
20
-188.879
11
210.917
21
-189.641
0
LINE
8
BLACK
6
CONTINUOUS
10
212.75
20
-190.212
11
212.572
21
-190.117
0
LINE
8
BLACK
6
CONTINUOUS
10
212.572
20
-190.117
11
212.488
21
-190.021
0
LINE
8
BLACK
6
CONTINUOUS
10
212.488
20
-190.021
11
212.417
21
-189.831
0
LINE
8
BLACK
6
CONTINUOUS
10
212.417
20
-189.831
11
212.488
21
-189.26
0
LINE
8
BLACK
6
CONTINUOUS
10
212.488
20
-189.26
11
212.607
21
-189.069
0
LINE
8
BLACK
6
CONTINUOUS
10
212.607
20
-189.069
11
212.715
21
-188.974
0
LINE
8
BLACK
6
CONTINUOUS
10
212.715
20
-188.974
11
212.917
21
-188.879
0
LINE
8
BLACK
6
CONTINUOUS
10
212.917
20
-188.879
11
213.203
21
-188.879
0
LINE
8
BLACK
6
CONTINUOUS
10
213.203
20
-188.879
11
213.381
21
-188.974
0
LINE
8
BLACK
6
CONTINUOUS
10
213.381
20
-188.974
11
213.465
21
-189.069
0
LINE
8
BLACK
6
CONTINUOUS
10
213.465
20
-189.069
11
213.536
21
-189.26
0
LINE
8
BLACK
6
CONTINUOUS
10
213.536
20
-189.26
11
213.465
21
-189.831
0
LINE
8
BLACK
6
CONTINUOUS
10
213.465
20
-189.831
11
213.346
21
-190.021
0
LINE
8
BLACK
6
CONTINUOUS
10
213.346
20
-190.021
11
213.238
21
-190.117
0
LINE
8
BLACK
6
CONTINUOUS
10
213.238
20
-190.117
11
213.036
21
-190.212
0
LINE
8
BLACK
6
CONTINUOUS
10
213.036
20
-190.212
11
212.75
21
-190.212
0
LINE
8
BLACK
6
CONTINUOUS
10
214.25
20
-188.879
11
214.465
21
-190.212
0
LINE
8
BLACK
6
CONTINUOUS
10
214.465
20
-190.212
11
214.965
21
-189.26
0
LINE
8
BLACK
6
CONTINUOUS
10
214.965
20
-189.26
11
215.226
21
-190.212
0
LINE
8
BLACK
6
CONTINUOUS
10
215.226
20
-190.212
11
215.774
21
-188.879
0
LINE
8
BLACK
6
CONTINUOUS
10
218.06
20
-188.879
11
217.893
21
-190.212
0
LINE
8
BLACK
6
CONTINUOUS
10
218.036
20
-189.069
11
218.143
21
-188.974
0
LINE
8
BLACK
6
CONTINUOUS
10
218.143
20
-188.974
11
218.346
21
-188.879
0
LINE
8
BLACK
6
CONTINUOUS
10
218.346
20
-188.879
11
218.631
21
-188.879
0
LINE
8
BLACK
6
CONTINUOUS
10
218.631
20
-188.879
11
218.81
21
-188.974
0
LINE
8
BLACK
6
CONTINUOUS
10
218.81
20
-188.974
11
218.881
21
-189.164
0
LINE
8
BLACK
6
CONTINUOUS
10
218.881
20
-189.164
11
218.75
21
-190.212
0
LINE
8
BLACK
6
CONTINUOUS
10
220.56
20
-190.212
11
220.691
21
-189.164
0
LINE
8
BLACK
6
CONTINUOUS
10
220.691
20
-189.164
11
220.619
21
-188.974
0
LINE
8
BLACK
6
CONTINUOUS
10
220.619
20
-188.974
11
220.441
21
-188.879
0
LINE
8
BLACK
6
CONTINUOUS
10
220.441
20
-188.879
11
220.06
21
-188.879
0
LINE
8
BLACK
6
CONTINUOUS
10
220.06
20
-188.879
11
219.857
21
-188.974
0
LINE
8
BLACK
6
CONTINUOUS
10
220.572
20
-190.117
11
220.369
21
-190.212
0
LINE
8
BLACK
6
CONTINUOUS
10
220.369
20
-190.212
11
219.893
21
-190.212
0
LINE
8
BLACK
6
CONTINUOUS
10
219.893
20
-190.212
11
219.715
21
-190.117
0
LINE
8
BLACK
6
CONTINUOUS
10
219.715
20
-190.117
11
219.643
21
-189.926
0
LINE
8
BLACK
6
CONTINUOUS
10
219.643
20
-189.926
11
219.667
21
-189.736
0
LINE
8
BLACK
6
CONTINUOUS
10
219.667
20
-189.736
11
219.786
21
-189.545
0
LINE
8
BLACK
6
CONTINUOUS
10
219.786
20
-189.545
11
219.988
21
-189.45
0
LINE
8
BLACK
6
CONTINUOUS
10
219.988
20
-189.45
11
220.465
21
-189.45
0
LINE
8
BLACK
6
CONTINUOUS
10
220.465
20
-189.45
11
220.667
21
-189.355
0
LINE
8
BLACK
6
CONTINUOUS
10
222.917
20
-188.879
11
223.679
21
-188.879
0
LINE
8
BLACK
6
CONTINUOUS
10
223.286
20
-188.212
11
223.072
21
-189.926
0
LINE
8
BLACK
6
CONTINUOUS
10
223.072
20
-189.926
11
223.143
21
-190.117
0
LINE
8
BLACK
6
CONTINUOUS
10
223.143
20
-190.117
11
223.322
21
-190.212
0
LINE
8
BLACK
6
CONTINUOUS
10
223.322
20
-190.212
11
223.512
21
-190.212
0
LINE
8
BLACK
6
CONTINUOUS
10
224.179
20
-190.212
11
224.346
21
-188.879
0
LINE
8
BLACK
6
CONTINUOUS
10
224.298
20
-189.26
11
224.417
21
-189.069
0
LINE
8
BLACK
6
CONTINUOUS
10
224.417
20
-189.069
11
224.524
21
-188.974
0
LINE
8
BLACK
6
CONTINUOUS
10
224.524
20
-188.974
11
224.726
21
-188.879
0
LINE
8
BLACK
6
CONTINUOUS
10
224.726
20
-188.879
11
224.917
21
-188.879
0
LINE
8
BLACK
6
CONTINUOUS
10
225.417
20
-190.212
11
225.584
21
-188.879
0
LINE
8
BLACK
6
CONTINUOUS
10
225.667
20
-188.212
11
225.56
21
-188.307
0
LINE
8
BLACK
6
CONTINUOUS
10
225.56
20
-188.307
11
225.643
21
-188.402
0
LINE
8
BLACK
6
CONTINUOUS
10
225.643
20
-188.402
11
225.75
21
-188.307
0
LINE
8
BLACK
6
CONTINUOUS
10
225.75
20
-188.307
11
225.667
21
-188.212
0
LINE
8
BLACK
6
CONTINUOUS
10
225.667
20
-188.212
11
225.643
21
-188.402
0
LINE
8
BLACK
6
CONTINUOUS
10
227.226
20
-190.212
11
227.357
21
-189.164
0
LINE
8
BLACK
6
CONTINUOUS
10
227.357
20
-189.164
11
227.286
21
-188.974
0
LINE
8
BLACK
6
CONTINUOUS
10
227.286
20
-188.974
11
227.107
21
-188.879
0
LINE
8
BLACK
6
CONTINUOUS
10
227.107
20
-188.879
11
226.726
21
-188.879
0
LINE
8
BLACK
6
CONTINUOUS
10
226.726
20
-188.879
11
226.524
21
-188.974
0
LINE
8
BLACK
6
CONTINUOUS
10
227.238
20
-190.117
11
227.036
21
-190.212
0
LINE
8
BLACK
6
CONTINUOUS
10
227.036
20
-190.212
11
226.56
21
-190.212
0
LINE
8
BLACK
6
CONTINUOUS
10
226.56
20
-190.212
11
226.381
21
-190.117
0
LINE
8
BLACK
6
CONTINUOUS
10
226.381
20
-190.117
11
226.31
21
-189.926
0
LINE
8
BLACK
6
CONTINUOUS
10
226.31
20
-189.926
11
226.334
21
-189.736
0
LINE
8
BLACK
6
CONTINUOUS
10
226.334
20
-189.736
11
226.453
21
-189.545
0
LINE
8
BLACK
6
CONTINUOUS
10
226.453
20
-189.545
11
226.655
21
-189.45
0
LINE
8
BLACK
6
CONTINUOUS
10
226.655
20
-189.45
11
227.131
21
-189.45
0
LINE
8
BLACK
6
CONTINUOUS
10
227.131
20
-189.45
11
227.334
21
-189.355
0
LINE
8
BLACK
6
CONTINUOUS
10
228.179
20
-190.212
11
228.429
21
-188.212
0
LINE
8
BLACK
6
CONTINUOUS
10
228.465
20
-189.45
11
228.941
21
-190.212
0
LINE
8
BLACK
6
CONTINUOUS
10
229.107
20
-188.879
11
228.25
21
-189.641
0
LINE
8
BLACK
6
CONTINUOUS
10
230.655
20
-190.212
11
230.786
21
-189.164
0
LINE
8
BLACK
6
CONTINUOUS
10
230.786
20
-189.164
11
230.715
21
-188.974
0
LINE
8
BLACK
6
CONTINUOUS
10
230.715
20
-188.974
11
230.536
21
-188.879
0
LINE
8
BLACK
6
CONTINUOUS
10
230.536
20
-188.879
11
230.155
21
-188.879
0
LINE
8
BLACK
6
CONTINUOUS
10
230.155
20
-188.879
11
229.953
21
-188.974
0
LINE
8
BLACK
6
CONTINUOUS
10
230.667
20
-190.117
11
230.465
21
-190.212
0
LINE
8
BLACK
6
CONTINUOUS
10
230.465
20
-190.212
11
229.988
21
-190.212
0
LINE
8
BLACK
6
CONTINUOUS
10
229.988
20
-190.212
11
229.81
21
-190.117
0
LINE
8
BLACK
6
CONTINUOUS
10
229.81
20
-190.117
11
229.738
21
-189.926
0
LINE
8
BLACK
6
CONTINUOUS
10
229.738
20
-189.926
11
229.762
21
-189.736
0
LINE
8
BLACK
6
CONTINUOUS
10
229.762
20
-189.736
11
229.881
21
-189.545
0
LINE
8
BLACK
6
CONTINUOUS
10
229.881
20
-189.545
11
230.084
21
-189.45
0
LINE
8
BLACK
6
CONTINUOUS
10
230.084
20
-189.45
11
230.56
21
-189.45
0
LINE
8
BLACK
6
CONTINUOUS
10
230.56
20
-189.45
11
230.762
21
-189.355
0
LINE
8
BLACK
6
CONTINUOUS
10
232.476
20
-190.117
11
232.274
21
-190.212
0
LINE
8
BLACK
6
CONTINUOUS
10
232.274
20
-190.212
11
231.893
21
-190.212
0
LINE
8
BLACK
6
CONTINUOUS
10
231.893
20
-190.212
11
231.715
21
-190.117
0
LINE
8
BLACK
6
CONTINUOUS
10
231.715
20
-190.117
11
231.631
21
-190.021
0
LINE
8
BLACK
6
CONTINUOUS
10
231.631
20
-190.021
11
231.56
21
-189.831
0
LINE
8
BLACK
6
CONTINUOUS
10
231.56
20
-189.831
11
231.631
21
-189.26
0
LINE
8
BLACK
6
CONTINUOUS
10
231.631
20
-189.26
11
231.75
21
-189.069
0
LINE
8
BLACK
6
CONTINUOUS
10
231.75
20
-189.069
11
231.857
21
-188.974
0
LINE
8
BLACK
6
CONTINUOUS
10
231.857
20
-188.974
11
232.06
21
-188.879
0
LINE
8
BLACK
6
CONTINUOUS
10
232.06
20
-188.879
11
232.441
21
-188.879
0
LINE
8
BLACK
6
CONTINUOUS
10
232.441
20
-188.879
11
232.619
21
-188.974
0
LINE
8
BLACK
6
CONTINUOUS
10
233.322
20
-190.212
11
233.572
21
-188.212
0
LINE
8
BLACK
6
CONTINUOUS
10
234.179
20
-190.212
11
234.31
21
-189.164
0
LINE
8
BLACK
6
CONTINUOUS
10
234.31
20
-189.164
11
234.238
21
-188.974
0
LINE
8
BLACK
6
CONTINUOUS
10
234.238
20
-188.974
11
234.06
21
-188.879
0
LINE
8
BLACK
6
CONTINUOUS
10
234.06
20
-188.879
11
233.774
21
-188.879
0
LINE
8
BLACK
6
CONTINUOUS
10
233.774
20
-188.879
11
233.572
21
-188.974
0
LINE
8
BLACK
6
CONTINUOUS
10
233.572
20
-188.974
11
233.465
21
-189.069
0
LINE
8
BLACK
6
CONTINUOUS
10
178.934
20
-185.6
11
178.434
21
-185.6
0
LINE
8
BLACK
6
CONTINUOUS
10
178.434
20
-186.386
11
178.434
21
-184.886
0
LINE
8
BLACK
6
CONTINUOUS
10
178.434
20
-184.886
11
179.149
21
-184.886
0
LINE
8
BLACK
6
CONTINUOUS
10
179.72
20
-186.386
11
179.72
21
-185.386
0
LINE
8
BLACK
6
CONTINUOUS
10
179.72
20
-184.886
11
179.649
21
-184.957
0
LINE
8
BLACK
6
CONTINUOUS
10
179.649
20
-184.957
11
179.72
21
-185.029
0
LINE
8
BLACK
6
CONTINUOUS
10
179.72
20
-185.029
11
179.791
21
-184.957
0
LINE
8
BLACK
6
CONTINUOUS
10
179.791
20
-184.957
11
179.72
21
-184.886
0
LINE
8
BLACK
6
CONTINUOUS
10
179.72
20
-184.886
11
179.72
21
-185.029
0
LINE
8
BLACK
6
CONTINUOUS
10
180.649
20
-186.386
11
180.506
21
-186.314
0
LINE
8
BLACK
6
CONTINUOUS
10
180.506
20
-186.314
11
180.434
21
-186.171
0
LINE
8
BLACK
6
CONTINUOUS
10
180.434
20
-186.171
11
180.434
21
-184.886
0
LINE
8
BLACK
6
CONTINUOUS
10
181.791
20
-186.314
11
181.649
21
-186.386
0
LINE
8
BLACK
6
CONTINUOUS
10
181.649
20
-186.386
11
181.363
21
-186.386
0
LINE
8
BLACK
6
CONTINUOUS
10
181.363
20
-186.386
11
181.22
21
-186.314
0
LINE
8
BLACK
6
CONTINUOUS
10
181.22
20
-186.314
11
181.149
21
-186.171
0
LINE
8
BLACK
6
CONTINUOUS
10
181.149
20
-186.171
11
181.149
21
-185.6
0
LINE
8
BLACK
6
CONTINUOUS
10
181.149
20
-185.6
11
181.22
21
-185.457
0
LINE
8
BLACK
6
CONTINUOUS
10
181.22
20
-185.457
11
181.363
21
-185.386
0
LINE
8
BLACK
6
CONTINUOUS
10
181.363
20
-185.386
11
181.649
21
-185.386
0
LINE
8
BLACK
6
CONTINUOUS
10
181.649
20
-185.386
11
181.791
21
-185.457
0
LINE
8
BLACK
6
CONTINUOUS
10
181.791
20
-185.457
11
181.863
21
-185.6
0
LINE
8
BLACK
6
CONTINUOUS
10
181.863
20
-185.6
11
181.863
21
-185.743
0
LINE
8
BLACK
6
CONTINUOUS
10
181.863
20
-185.743
11
181.149
21
-185.886
0
LINE
8
BLACK
6
CONTINUOUS
10
182.506
20
-186.243
11
182.577
21
-186.314
0
LINE
8
BLACK
6
CONTINUOUS
10
182.577
20
-186.314
11
182.506
21
-186.386
0
LINE
8
BLACK
6
CONTINUOUS
10
182.506
20
-186.386
11
182.434
21
-186.314
0
LINE
8
BLACK
6
CONTINUOUS
10
182.434
20
-186.314
11
182.506
21
-186.243
0
LINE
8
BLACK
6
CONTINUOUS
10
182.506
20
-186.243
11
182.506
21
-186.386
0
LINE
8
BLACK
6
CONTINUOUS
10
182.506
20
-185.457
11
182.577
21
-185.529
0
LINE
8
BLACK
6
CONTINUOUS
10
182.577
20
-185.529
11
182.506
21
-185.6
0
LINE
8
BLACK
6
CONTINUOUS
10
182.506
20
-185.6
11
182.434
21
-185.529
0
LINE
8
BLACK
6
CONTINUOUS
10
182.434
20
-185.529
11
182.506
21
-185.457
0
LINE
8
BLACK
6
CONTINUOUS
10
182.506
20
-185.457
11
182.506
21
-185.6
0
LINE
8
BLACK
6
CONTINUOUS
10
185.22
20
-186.243
11
185.149
21
-186.314
0
LINE
8
BLACK
6
CONTINUOUS
10
185.149
20
-186.314
11
184.934
21
-186.386
0
LINE
8
BLACK
6
CONTINUOUS
10
184.934
20
-186.386
11
184.791
21
-186.386
0
LINE
8
BLACK
6
CONTINUOUS
10
184.791
20
-186.386
11
184.577
21
-186.314
0
LINE
8
BLACK
6
CONTINUOUS
10
184.577
20
-186.314
11
184.434
21
-186.171
0
LINE
8
BLACK
6
CONTINUOUS
10
184.434
20
-186.171
11
184.363
21
-186.029
0
LINE
8
BLACK
6
CONTINUOUS
10
184.363
20
-186.029
11
184.291
21
-185.743
0
LINE
8
BLACK
6
CONTINUOUS
10
184.291
20
-185.743
11
184.291
21
-185.529
0
LINE
8
BLACK
6
CONTINUOUS
10
184.291
20
-185.529
11
184.363
21
-185.243
0
LINE
8
BLACK
6
CONTINUOUS
10
184.363
20
-185.243
11
184.434
21
-185.1
0
LINE
8
BLACK
6
CONTINUOUS
10
184.434
20
-185.1
11
184.577
21
-184.957
0
LINE
8
BLACK
6
CONTINUOUS
10
184.577
20
-184.957
11
184.791
21
-184.886
0
LINE
8
BLACK
6
CONTINUOUS
10
184.791
20
-184.886
11
184.934
21
-184.886
0
LINE
8
BLACK
6
CONTINUOUS
10
184.934
20
-184.886
11
185.149
21
-184.957
0
LINE
8
BLACK
6
CONTINUOUS
10
185.149
20
-184.957
11
185.22
21
-185.029
0
LINE
8
BLACK
6
CONTINUOUS
10
186.434
20
-186.314
11
186.291
21
-186.386
0
LINE
8
BLACK
6
CONTINUOUS
10
186.291
20
-186.386
11
186.006
21
-186.386
0
LINE
8
BLACK
6
CONTINUOUS
10
186.006
20
-186.386
11
185.863
21
-186.314
0
LINE
8
BLACK
6
CONTINUOUS
10
185.863
20
-186.314
11
185.791
21
-186.171
0
LINE
8
BLACK
6
CONTINUOUS
10
185.791
20
-186.171
11
185.791
21
-185.6
0
LINE
8
BLACK
6
CONTINUOUS
10
185.791
20
-185.6
11
185.863
21
-185.457
0
LINE
8
BLACK
6
CONTINUOUS
10
185.863
20
-185.457
11
186.006
21
-185.386
0
LINE
8
BLACK
6
CONTINUOUS
10
186.006
20
-185.386
11
186.291
21
-185.386
0
LINE
8
BLACK
6
CONTINUOUS
10
186.291
20
-185.386
11
186.434
21
-185.457
0
LINE
8
BLACK
6
CONTINUOUS
10
186.434
20
-185.457
11
186.506
21
-185.6
0
LINE
8
BLACK
6
CONTINUOUS
10
186.506
20
-185.6
11
186.506
21
-185.743
0
LINE
8
BLACK
6
CONTINUOUS
10
186.506
20
-185.743
11
185.791
21
-185.886
0
LINE
8
BLACK
6
CONTINUOUS
10
187.149
20
-185.386
11
187.149
21
-186.386
0
LINE
8
BLACK
6
CONTINUOUS
10
187.149
20
-185.529
11
187.22
21
-185.457
0
LINE
8
BLACK
6
CONTINUOUS
10
187.22
20
-185.457
11
187.363
21
-185.386
0
LINE
8
BLACK
6
CONTINUOUS
10
187.363
20
-185.386
11
187.577
21
-185.386
0
LINE
8
BLACK
6
CONTINUOUS
10
187.577
20
-185.386
11
187.72
21
-185.457
0
LINE
8
BLACK
6
CONTINUOUS
10
187.72
20
-185.457
11
187.791
21
-185.6
0
LINE
8
BLACK
6
CONTINUOUS
10
187.791
20
-185.6
11
187.791
21
-186.386
0
LINE
8
BLACK
6
CONTINUOUS
10
188.291
20
-185.386
11
188.863
21
-185.386
0
LINE
8
BLACK
6
CONTINUOUS
10
188.506
20
-184.886
11
188.506
21
-186.171
0
LINE
8
BLACK
6
CONTINUOUS
10
188.506
20
-186.171
11
188.577
21
-186.314
0
LINE
8
BLACK
6
CONTINUOUS
10
188.577
20
-186.314
11
188.72
21
-186.386
0
LINE
8
BLACK
6
CONTINUOUS
10
188.72
20
-186.386
11
188.863
21
-186.386
0
LINE
8
BLACK
6
CONTINUOUS
10
189.363
20
-186.386
11
189.363
21
-185.386
0
LINE
8
BLACK
6
CONTINUOUS
10
189.363
20
-185.671
11
189.434
21
-185.529
0
LINE
8
BLACK
6
CONTINUOUS
10
189.434
20
-185.529
11
189.506
21
-185.457
0
LINE
8
BLACK
6
CONTINUOUS
10
189.506
20
-185.457
11
189.649
21
-185.386
0
LINE
8
BLACK
6
CONTINUOUS
10
189.649
20
-185.386
11
189.791
21
-185.386
0
LINE
8
BLACK
6
CONTINUOUS
10
190.934
20
-186.386
11
190.934
21
-185.6
0
LINE
8
BLACK
6
CONTINUOUS
10
190.934
20
-185.6
11
190.863
21
-185.457
0
LINE
8
BLACK
6
CONTINUOUS
10
190.863
20
-185.457
11
190.72
21
-185.386
0
LINE
8
BLACK
6
CONTINUOUS
10
190.72
20
-185.386
11
190.434
21
-185.386
0
LINE
8
BLACK
6
CONTINUOUS
10
190.434
20
-185.386
11
190.291
21
-185.457
0
LINE
8
BLACK
6
CONTINUOUS
10
190.934
20
-186.314
11
190.791
21
-186.386
0
LINE
8
BLACK
6
CONTINUOUS
10
190.791
20
-186.386
11
190.434
21
-186.386
0
LINE
8
BLACK
6
CONTINUOUS
10
190.434
20
-186.386
11
190.291
21
-186.314
0
LINE
8
BLACK
6
CONTINUOUS
10
190.291
20
-186.314
11
190.22
21
-186.171
0
LINE
8
BLACK
6
CONTINUOUS
10
190.22
20
-186.171
11
190.22
21
-186.029
0
LINE
8
BLACK
6
CONTINUOUS
10
190.22
20
-186.029
11
190.291
21
-185.886
0
LINE
8
BLACK
6
CONTINUOUS
10
190.291
20
-185.886
11
190.434
21
-185.814
0
LINE
8
BLACK
6
CONTINUOUS
10
190.434
20
-185.814
11
190.791
21
-185.814
0
LINE
8
BLACK
6
CONTINUOUS
10
190.791
20
-185.814
11
190.934
21
-185.743
0
LINE
8
BLACK
6
CONTINUOUS
10
191.863
20
-186.386
11
191.72
21
-186.314
0
LINE
8
BLACK
6
CONTINUOUS
10
191.72
20
-186.314
11
191.649
21
-186.171
0
LINE
8
BLACK
6
CONTINUOUS
10
191.649
20
-186.171
11
191.649
21
-184.886
0
LINE
8
BLACK
6
CONTINUOUS
10
193.577
20
-186.386
11
193.577
21
-184.886
0
LINE
8
BLACK
6
CONTINUOUS
10
193.577
20
-185.6
11
194.434
21
-185.6
0
LINE
8
BLACK
6
CONTINUOUS
10
194.434
20
-186.386
11
194.434
21
-184.886
0
LINE
8
BLACK
6
CONTINUOUS
10
195.72
20
-186.314
11
195.577
21
-186.386
0
LINE
8
BLACK
6
CONTINUOUS
10
195.577
20
-186.386
11
195.291
21
-186.386
0
LINE
8
BLACK
6
CONTINUOUS
10
195.291
20
-186.386
11
195.149
21
-186.314
0
LINE
8
BLACK
6
CONTINUOUS
10
195.149
20
-186.314
11
195.077
21
-186.171
0
LINE
8
BLACK
6
CONTINUOUS
10
195.077
20
-186.171
11
195.077
21
-185.6
0
LINE
8
BLACK
6
CONTINUOUS
10
195.077
20
-185.6
11
195.149
21
-185.457
0
LINE
8
BLACK
6
CONTINUOUS
10
195.149
20
-185.457
11
195.291
21
-185.386
0
LINE
8
BLACK
6
CONTINUOUS
10
195.291
20
-185.386
11
195.577
21
-185.386
0
LINE
8
BLACK
6
CONTINUOUS
10
195.577
20
-185.386
11
195.72
21
-185.457
0
LINE
8
BLACK
6
CONTINUOUS
10
195.72
20
-185.457
11
195.791
21
-185.6
0
LINE
8
BLACK
6
CONTINUOUS
10
195.791
20
-185.6
11
195.791
21
-185.743
0
LINE
8
BLACK
6
CONTINUOUS
10
195.791
20
-185.743
11
195.077
21
-185.886
0
LINE
8
BLACK
6
CONTINUOUS
10
197.077
20
-186.386
11
197.077
21
-185.6
0
LINE
8
BLACK
6
CONTINUOUS
10
197.077
20
-185.6
11
197.006
21
-185.457
0
LINE
8
BLACK
6
CONTINUOUS
10
197.006
20
-185.457
11
196.863
21
-185.386
0
LINE
8
BLACK
6
CONTINUOUS
10
196.863
20
-185.386
11
196.577
21
-185.386
0
LINE
8
BLACK
6
CONTINUOUS
10
196.577
20
-185.386
11
196.434
21
-185.457
0
LINE
8
BLACK
6
CONTINUOUS
10
197.077
20
-186.314
11
196.934
21
-186.386
0
LINE
8
BLACK
6
CONTINUOUS
10
196.934
20
-186.386
11
196.577
21
-186.386
0
LINE
8
BLACK
6
CONTINUOUS
10
196.577
20
-186.386
11
196.434
21
-186.314
0
LINE
8
BLACK
6
CONTINUOUS
10
196.434
20
-186.314
11
196.363
21
-186.171
0
LINE
8
BLACK
6
CONTINUOUS
10
196.363
20
-186.171
11
196.363
21
-186.029
0
LINE
8
BLACK
6
CONTINUOUS
10
196.363
20
-186.029
11
196.434
21
-185.886
0
LINE
8
BLACK
6
CONTINUOUS
10
196.434
20
-185.886
11
196.577
21
-185.814
0
LINE
8
BLACK
6
CONTINUOUS
10
196.577
20
-185.814
11
196.934
21
-185.814
0
LINE
8
BLACK
6
CONTINUOUS
10
196.934
20
-185.814
11
197.077
21
-185.743
0
LINE
8
BLACK
6
CONTINUOUS
10
197.577
20
-185.386
11
198.149
21
-185.386
0
LINE
8
BLACK
6
CONTINUOUS
10
197.791
20
-184.886
11
197.791
21
-186.171
0
LINE
8
BLACK
6
CONTINUOUS
10
197.791
20
-186.171
11
197.863
21
-186.314
0
LINE
8
BLACK
6
CONTINUOUS
10
197.863
20
-186.314
11
198.006
21
-186.386
0
LINE
8
BLACK
6
CONTINUOUS
10
198.006
20
-186.386
11
198.149
21
-186.386
0
LINE
8
BLACK
6
CONTINUOUS
10
198.649
20
-186.386
11
198.649
21
-185.386
0
LINE
8
BLACK
6
CONTINUOUS
10
198.649
20
-184.886
11
198.577
21
-184.957
0
LINE
8
BLACK
6
CONTINUOUS
10
198.577
20
-184.957
11
198.649
21
-185.029
0
LINE
8
BLACK
6
CONTINUOUS
10
198.649
20
-185.029
11
198.72
21
-184.957
0
LINE
8
BLACK
6
CONTINUOUS
10
198.72
20
-184.957
11
198.649
21
-184.886
0
LINE
8
BLACK
6
CONTINUOUS
10
198.649
20
-184.886
11
198.649
21
-185.029
0
LINE
8
BLACK
6
CONTINUOUS
10
199.363
20
-185.386
11
199.363
21
-186.386
0
LINE
8
BLACK
6
CONTINUOUS
10
199.363
20
-185.529
11
199.434
21
-185.457
0
LINE
8
BLACK
6
CONTINUOUS
10
199.434
20
-185.457
11
199.577
21
-185.386
0
LINE
8
BLACK
6
CONTINUOUS
10
199.577
20
-185.386
11
199.791
21
-185.386
0
LINE
8
BLACK
6
CONTINUOUS
10
199.791
20
-185.386
11
199.934
21
-185.457
0
LINE
8
BLACK
6
CONTINUOUS
10
199.934
20
-185.457
11
200.006
21
-185.6
0
LINE
8
BLACK
6
CONTINUOUS
10
200.006
20
-185.6
11
200.006
21
-186.386
0
LINE
8
BLACK
6
CONTINUOUS
10
201.363
20
-185.386
11
201.363
21
-186.6
0
LINE
8
BLACK
6
CONTINUOUS
10
201.363
20
-186.6
11
201.291
21
-186.743
0
LINE
8
BLACK
6
CONTINUOUS
10
201.291
20
-186.743
11
201.22
21
-186.814
0
LINE
8
BLACK
6
CONTINUOUS
10
201.22
20
-186.814
11
201.077
21
-186.886
0
LINE
8
BLACK
6
CONTINUOUS
10
201.077
20
-186.886
11
200.863
21
-186.886
0
LINE
8
BLACK
6
CONTINUOUS
10
200.863
20
-186.886
11
200.72
21
-186.814
0
LINE
8
BLACK
6
CONTINUOUS
10
201.363
20
-186.314
11
201.22
21
-186.386
0
LINE
8
BLACK
6
CONTINUOUS
10
201.22
20
-186.386
11
200.934
21
-186.386
0
LINE
8
BLACK
6
CONTINUOUS
10
200.934
20
-186.386
11
200.791
21
-186.314
0
LINE
8
BLACK
6
CONTINUOUS
10
200.791
20
-186.314
11
200.72
21
-186.243
0
LINE
8
BLACK
6
CONTINUOUS
10
200.72
20
-186.243
11
200.649
21
-186.1
0
LINE
8
BLACK
6
CONTINUOUS
10
200.649
20
-186.1
11
200.649
21
-185.671
0
LINE
8
BLACK
6
CONTINUOUS
10
200.649
20
-185.671
11
200.72
21
-185.529
0
LINE
8
BLACK
6
CONTINUOUS
10
200.72
20
-185.529
11
200.791
21
-185.457
0
LINE
8
BLACK
6
CONTINUOUS
10
200.791
20
-185.457
11
200.934
21
-185.386
0
LINE
8
BLACK
6
CONTINUOUS
10
200.934
20
-185.386
11
201.22
21
-185.386
0
LINE
8
BLACK
6
CONTINUOUS
10
201.22
20
-185.386
11
201.363
21
-185.457
0
LINE
8
BLACK
6
CONTINUOUS
10
204.077
20
-186.243
11
204.006
21
-186.314
0
LINE
8
BLACK
6
CONTINUOUS
10
204.006
20
-186.314
11
203.791
21
-186.386
0
LINE
8
BLACK
6
CONTINUOUS
10
203.791
20
-186.386
11
203.649
21
-186.386
0
LINE
8
BLACK
6
CONTINUOUS
10
203.649
20
-186.386
11
203.434
21
-186.314
0
LINE
8
BLACK
6
CONTINUOUS
10
203.434
20
-186.314
11
203.291
21
-186.171
0
LINE
8
BLACK
6
CONTINUOUS
10
203.291
20
-186.171
11
203.22
21
-186.029
0
LINE
8
BLACK
6
CONTINUOUS
10
203.22
20
-186.029
11
203.149
21
-185.743
0
LINE
8
BLACK
6
CONTINUOUS
10
203.149
20
-185.743
11
203.149
21
-185.529
0
LINE
8
BLACK
6
CONTINUOUS
10
203.149
20
-185.529
11
203.22
21
-185.243
0
LINE
8
BLACK
6
CONTINUOUS
10
203.22
20
-185.243
11
203.291
21
-185.1
0
LINE
8
BLACK
6
CONTINUOUS
10
203.291
20
-185.1
11
203.434
21
-184.957
0
LINE
8
BLACK
6
CONTINUOUS
10
203.434
20
-184.957
11
203.649
21
-184.886
0
LINE
8
BLACK
6
CONTINUOUS
10
203.649
20
-184.886
11
203.791
21
-184.886
0
LINE
8
BLACK
6
CONTINUOUS
10
203.791
20
-184.886
11
204.006
21
-184.957
0
LINE
8
BLACK
6
CONTINUOUS
10
204.006
20
-184.957
11
204.077
21
-185.029
0
LINE
8
BLACK
6
CONTINUOUS
10
204.934
20
-186.386
11
204.791
21
-186.314
0
LINE
8
BLACK
6
CONTINUOUS
10
204.791
20
-186.314
11
204.72
21
-186.243
0
LINE
8
BLACK
6
CONTINUOUS
10
204.72
20
-186.243
11
204.649
21
-186.1
0
LINE
8
BLACK
6
CONTINUOUS
10
204.649
20
-186.1
11
204.649
21
-185.671
0
LINE
8
BLACK
6
CONTINUOUS
10
204.649
20
-185.671
11
204.72
21
-185.529
0
LINE
8
BLACK
6
CONTINUOUS
10
204.72
20
-185.529
11
204.791
21
-185.457
0
LINE
8
BLACK
6
CONTINUOUS
10
204.791
20
-185.457
11
204.934
21
-185.386
0
LINE
8
BLACK
6
CONTINUOUS
10
204.934
20
-185.386
11
205.149
21
-185.386
0
LINE
8
BLACK
6
CONTINUOUS
10
205.149
20
-185.386
11
205.291
21
-185.457
0
LINE
8
BLACK
6
CONTINUOUS
10
205.291
20
-185.457
11
205.363
21
-185.529
0
LINE
8
BLACK
6
CONTINUOUS
10
205.363
20
-185.529
11
205.434
21
-185.671
0
LINE
8
BLACK
6
CONTINUOUS
10
205.434
20
-185.671
11
205.434
21
-186.1
0
LINE
8
BLACK
6
CONTINUOUS
10
205.434
20
-186.1
11
205.363
21
-186.243
0
LINE
8
BLACK
6
CONTINUOUS
10
205.363
20
-186.243
11
205.291
21
-186.314
0
LINE
8
BLACK
6
CONTINUOUS
10
205.291
20
-186.314
11
205.149
21
-186.386
0
LINE
8
BLACK
6
CONTINUOUS
10
205.149
20
-186.386
11
204.934
21
-186.386
0
LINE
8
BLACK
6
CONTINUOUS
10
206.077
20
-185.386
11
206.077
21
-186.386
0
LINE
8
BLACK
6
CONTINUOUS
10
206.077
20
-185.529
11
206.149
21
-185.457
0
LINE
8
BLACK
6
CONTINUOUS
10
206.149
20
-185.457
11
206.291
21
-185.386
0
LINE
8
BLACK
6
CONTINUOUS
10
206.291
20
-185.386
11
206.506
21
-185.386
0
LINE
8
BLACK
6
CONTINUOUS
10
206.506
20
-185.386
11
206.649
21
-185.457
0
LINE
8
BLACK
6
CONTINUOUS
10
206.649
20
-185.457
11
206.72
21
-185.6
0
LINE
8
BLACK
6
CONTINUOUS
10
206.72
20
-185.6
11
206.72
21
-186.386
0
LINE
8
BLACK
6
CONTINUOUS
10
207.22
20
-185.386
11
207.791
21
-185.386
0
LINE
8
BLACK
6
CONTINUOUS
10
207.434
20
-184.886
11
207.434
21
-186.171
0
LINE
8
BLACK
6
CONTINUOUS
10
207.434
20
-186.171
11
207.506
21
-186.314
0
LINE
8
BLACK
6
CONTINUOUS
10
207.506
20
-186.314
11
207.649
21
-186.386
0
LINE
8
BLACK
6
CONTINUOUS
10
207.649
20
-186.386
11
207.791
21
-186.386
0
LINE
8
BLACK
6
CONTINUOUS
10
208.291
20
-186.386
11
208.291
21
-185.386
0
LINE
8
BLACK
6
CONTINUOUS
10
208.291
20
-185.671
11
208.363
21
-185.529
0
LINE
8
BLACK
6
CONTINUOUS
10
208.363
20
-185.529
11
208.434
21
-185.457
0
LINE
8
BLACK
6
CONTINUOUS
10
208.434
20
-185.457
11
208.577
21
-185.386
0
LINE
8
BLACK
6
CONTINUOUS
10
208.577
20
-185.386
11
208.72
21
-185.386
0
LINE
8
BLACK
6
CONTINUOUS
10
209.434
20
-186.386
11
209.291
21
-186.314
0
LINE
8
BLACK
6
CONTINUOUS
10
209.291
20
-186.314
11
209.22
21
-186.243
0
LINE
8
BLACK
6
CONTINUOUS
10
209.22
20
-186.243
11
209.149
21
-186.1
0
LINE
8
BLACK
6
CONTINUOUS
10
209.149
20
-186.1
11
209.149
21
-185.671
0
LINE
8
BLACK
6
CONTINUOUS
10
209.149
20
-185.671
11
209.22
21
-185.529
0
LINE
8
BLACK
6
CONTINUOUS
10
209.22
20
-185.529
11
209.291
21
-185.457
0
LINE
8
BLACK
6
CONTINUOUS
10
209.291
20
-185.457
11
209.434
21
-185.386
0
LINE
8
BLACK
6
CONTINUOUS
10
209.434
20
-185.386
11
209.649
21
-185.386
0
LINE
8
BLACK
6
CONTINUOUS
10
209.649
20
-185.386
11
209.791
21
-185.457
0
LINE
8
BLACK
6
CONTINUOUS
10
209.791
20
-185.457
11
209.863
21
-185.529
0
LINE
8
BLACK
6
CONTINUOUS
10
209.863
20
-185.529
11
209.934
21
-185.671
0
LINE
8
BLACK
6
CONTINUOUS
10
209.934
20
-185.671
11
209.934
21
-186.1
0
LINE
8
BLACK
6
CONTINUOUS
10
209.934
20
-186.1
11
209.863
21
-186.243
0
LINE
8
BLACK
6
CONTINUOUS
10
209.863
20
-186.243
11
209.791
21
-186.314
0
LINE
8
BLACK
6
CONTINUOUS
10
209.791
20
-186.314
11
209.649
21
-186.386
0
LINE
8
BLACK
6
CONTINUOUS
10
209.649
20
-186.386
11
209.434
21
-186.386
0
LINE
8
BLACK
6
CONTINUOUS
10
210.791
20
-186.386
11
210.649
21
-186.314
0
LINE
8
BLACK
6
CONTINUOUS
10
210.649
20
-186.314
11
210.577
21
-186.171
0
LINE
8
BLACK
6
CONTINUOUS
10
210.577
20
-186.171
11
210.577
21
-184.886
0
LINE
8
BLACK
6
CONTINUOUS
10
212.506
20
-186.386
11
212.506
21
-184.886
0
LINE
8
BLACK
6
CONTINUOUS
10
212.506
20
-184.886
11
213.077
21
-184.886
0
LINE
8
BLACK
6
CONTINUOUS
10
213.077
20
-184.886
11
213.22
21
-184.957
0
LINE
8
BLACK
6
CONTINUOUS
10
213.22
20
-184.957
11
213.291
21
-185.029
0
LINE
8
BLACK
6
CONTINUOUS
10
213.291
20
-185.029
11
213.363
21
-185.171
0
LINE
8
BLACK
6
CONTINUOUS
10
213.363
20
-185.171
11
213.363
21
-185.386
0
LINE
8
BLACK
6
CONTINUOUS
10
213.363
20
-185.386
11
213.291
21
-185.529
0
LINE
8
BLACK
6
CONTINUOUS
10
213.291
20
-185.529
11
213.22
21
-185.6
0
LINE
8
BLACK
6
CONTINUOUS
10
213.22
20
-185.6
11
213.077
21
-185.671
0
LINE
8
BLACK
6
CONTINUOUS
10
213.077
20
-185.671
11
212.506
21
-185.671
0
LINE
8
BLACK
6
CONTINUOUS
10
214.506
20
-185.6
11
214.72
21
-185.671
0
LINE
8
BLACK
6
CONTINUOUS
10
214.72
20
-185.671
11
214.791
21
-185.743
0
LINE
8
BLACK
6
CONTINUOUS
10
214.791
20
-185.743
11
214.863
21
-185.886
0
LINE
8
BLACK
6
CONTINUOUS
10
214.863
20
-185.886
11
214.863
21
-186.1
0
LINE
8
BLACK
6
CONTINUOUS
10
214.863
20
-186.1
11
214.791
21
-186.243
0
LINE
8
BLACK
6
CONTINUOUS
10
214.791
20
-186.243
11
214.72
21
-186.314
0
LINE
8
BLACK
6
CONTINUOUS
10
214.72
20
-186.314
11
214.577
21
-186.386
0
LINE
8
BLACK
6
CONTINUOUS
10
214.577
20
-186.386
11
214.006
21
-186.386
0
LINE
8
BLACK
6
CONTINUOUS
10
214.006
20
-186.386
11
214.006
21
-184.886
0
LINE
8
BLACK
6
CONTINUOUS
10
214.006
20
-184.886
11
214.506
21
-184.886
0
LINE
8
BLACK
6
CONTINUOUS
10
214.506
20
-184.886
11
214.649
21
-184.957
0
LINE
8
BLACK
6
CONTINUOUS
10
214.649
20
-184.957
11
214.72
21
-185.029
0
LINE
8
BLACK
6
CONTINUOUS
10
214.72
20
-185.029
11
214.791
21
-185.171
0
LINE
8
BLACK
6
CONTINUOUS
10
214.791
20
-185.171
11
214.791
21
-185.314
0
LINE
8
BLACK
6
CONTINUOUS
10
214.791
20
-185.314
11
214.72
21
-185.457
0
LINE
8
BLACK
6
CONTINUOUS
10
214.72
20
-185.457
11
214.649
21
-185.529
0
LINE
8
BLACK
6
CONTINUOUS
10
214.649
20
-185.529
11
214.506
21
-185.6
0
LINE
8
BLACK
6
CONTINUOUS
10
214.506
20
-185.6
11
214.006
21
-185.6
0
LINE
8
BLACK
6
CONTINUOUS
10
215.434
20
-185.957
11
216.149
21
-185.957
0
LINE
8
BLACK
6
CONTINUOUS
10
215.291
20
-186.386
11
215.791
21
-184.886
0
LINE
8
BLACK
6
CONTINUOUS
10
215.791
20
-184.886
11
216.291
21
-186.386
0
LINE
8
BLACK
6
CONTINUOUS
10
216.791
20
-186.243
11
216.863
21
-186.314
0
LINE
8
BLACK
6
CONTINUOUS
10
216.863
20
-186.314
11
216.791
21
-186.386
0
LINE
8
BLACK
6
CONTINUOUS
10
216.791
20
-186.386
11
216.72
21
-186.314
0
LINE
8
BLACK
6
CONTINUOUS
10
216.72
20
-186.314
11
216.791
21
-186.243
0
LINE
8
BLACK
6
CONTINUOUS
10
216.791
20
-186.243
11
216.791
21
-186.386
0
LINE
8
BLACK
6
CONTINUOUS
10
217.506
20
-186.386
11
217.506
21
-184.886
0
LINE
8
BLACK
6
CONTINUOUS
10
217.649
20
-185.814
11
218.077
21
-186.386
0
LINE
8
BLACK
6
CONTINUOUS
10
218.077
20
-185.386
11
217.506
21
-185.957
0
LINE
8
BLACK
6
CONTINUOUS
10
218.72
20
-186.386
11
218.72
21
-185.386
0
LINE
8
BLACK
6
CONTINUOUS
10
218.72
20
-184.886
11
218.649
21
-184.957
0
LINE
8
BLACK
6
CONTINUOUS
10
218.649
20
-184.957
11
218.72
21
-185.029
0
LINE
8
BLACK
6
CONTINUOUS
10
218.72
20
-185.029
11
218.791
21
-184.957
0
LINE
8
BLACK
6
CONTINUOUS
10
218.791
20
-184.957
11
218.72
21
-184.886
0
LINE
8
BLACK
6
CONTINUOUS
10
218.72
20
-184.886
11
218.72
21
-185.029
0
LINE
8
BLACK
6
CONTINUOUS
10
220.077
20
-186.314
11
219.934
21
-186.386
0
LINE
8
BLACK
6
CONTINUOUS
10
219.934
20
-186.386
11
219.649
21
-186.386
0
LINE
8
BLACK
6
CONTINUOUS
10
219.649
20
-186.386
11
219.506
21
-186.314
0
LINE
8
BLACK
6
CONTINUOUS
10
219.506
20
-186.314
11
219.434
21
-186.243
0
LINE
8
BLACK
6
CONTINUOUS
10
219.434
20
-186.243
11
219.363
21
-186.1
0
LINE
8
BLACK
6
CONTINUOUS
10
219.363
20
-186.1
11
219.363
21
-185.671
0
LINE
8
BLACK
6
CONTINUOUS
10
219.363
20
-185.671
11
219.434
21
-185.529
0
LINE
8
BLACK
6
CONTINUOUS
10
219.434
20
-185.529
11
219.506
21
-185.457
0
LINE
8
BLACK
6
CONTINUOUS
10
219.506
20
-185.457
11
219.649
21
-185.386
0
LINE
8
BLACK
6
CONTINUOUS
10
219.649
20
-185.386
11
219.934
21
-185.386
0
LINE
8
BLACK
6
CONTINUOUS
10
219.934
20
-185.386
11
220.077
21
-185.457
0
LINE
8
BLACK
6
CONTINUOUS
10
221.363
20
-186.386
11
221.363
21
-185.6
0
LINE
8
BLACK
6
CONTINUOUS
10
221.363
20
-185.6
11
221.291
21
-185.457
0
LINE
8
BLACK
6
CONTINUOUS
10
221.291
20
-185.457
11
221.149
21
-185.386
0
LINE
8
BLACK
6
CONTINUOUS
10
221.149
20
-185.386
11
220.863
21
-185.386
0
LINE
8
BLACK
6
CONTINUOUS
10
220.863
20
-185.386
11
220.72
21
-185.457
0
LINE
8
BLACK
6
CONTINUOUS
10
221.363
20
-186.314
11
221.22
21
-186.386
0
LINE
8
BLACK
6
CONTINUOUS
10
221.22
20
-186.386
11
220.863
21
-186.386
0
LINE
8
BLACK
6
CONTINUOUS
10
220.863
20
-186.386
11
220.72
21
-186.314
0
LINE
8
BLACK
6
CONTINUOUS
10
220.72
20
-186.314
11
220.649
21
-186.171
0
LINE
8
BLACK
6
CONTINUOUS
10
220.649
20
-186.171
11
220.649
21
-186.029
0
LINE
8
BLACK
6
CONTINUOUS
10
220.649
20
-186.029
11
220.72
21
-185.886
0
LINE
8
BLACK
6
CONTINUOUS
10
220.72
20
-185.886
11
220.863
21
-185.814
0
LINE
8
BLACK
6
CONTINUOUS
10
220.863
20
-185.814
11
221.22
21
-185.814
0
LINE
8
BLACK
6
CONTINUOUS
10
221.22
20
-185.814
11
221.363
21
-185.743
0
LINE
8
BLACK
6
CONTINUOUS
10
222.72
20
-186.386
11
222.72
21
-184.886
0
LINE
8
BLACK
6
CONTINUOUS
10
222.72
20
-186.314
11
222.577
21
-186.386
0
LINE
8
BLACK
6
CONTINUOUS
10
222.577
20
-186.386
11
222.291
21
-186.386
0
LINE
8
BLACK
6
CONTINUOUS
10
222.291
20
-186.386
11
222.149
21
-186.314
0
LINE
8
BLACK
6
CONTINUOUS
10
222.149
20
-186.314
11
222.077
21
-186.243
0
LINE
8
BLACK
6
CONTINUOUS
10
222.077
20
-186.243
11
222.006
21
-186.1
0
LINE
8
BLACK
6
CONTINUOUS
10
222.006
20
-186.1
11
222.006
21
-185.671
0
LINE
8
BLACK
6
CONTINUOUS
10
222.006
20
-185.671
11
222.077
21
-185.529
0
LINE
8
BLACK
6
CONTINUOUS
10
222.077
20
-185.529
11
222.149
21
-185.457
0
LINE
8
BLACK
6
CONTINUOUS
10
222.149
20
-185.457
11
222.291
21
-185.386
0
LINE
8
BLACK
6
CONTINUOUS
10
222.291
20
-185.386
11
222.577
21
-185.386
0
LINE
8
BLACK
6
CONTINUOUS
10
222.577
20
-185.386
11
222.72
21
-185.457
0
LINE
8
BLACK
6
CONTINUOUS
10
223.077
20
-186.529
11
224.22
21
-186.529
0
LINE
8
BLACK
6
CONTINUOUS
10
224.577
20
-185.386
11
224.577
21
-186.886
0
LINE
8
BLACK
6
CONTINUOUS
10
224.577
20
-185.457
11
224.72
21
-185.386
0
LINE
8
BLACK
6
CONTINUOUS
10
224.72
20
-185.386
11
225.006
21
-185.386
0
LINE
8
BLACK
6
CONTINUOUS
10
225.006
20
-185.386
11
225.149
21
-185.457
0
LINE
8
BLACK
6
CONTINUOUS
10
225.149
20
-185.457
11
225.22
21
-185.529
0
LINE
8
BLACK
6
CONTINUOUS
10
225.22
20
-185.529
11
225.291
21
-185.671
0
LINE
8
BLACK
6
CONTINUOUS
10
225.291
20
-185.671
11
225.291
21
-186.1
0
LINE
8
BLACK
6
CONTINUOUS
10
225.291
20
-186.1
11
225.22
21
-186.243
0
LINE
8
BLACK
6
CONTINUOUS
10
225.22
20
-186.243
11
225.149
21
-186.314
0
LINE
8
BLACK
6
CONTINUOUS
10
225.149
20
-186.314
11
225.006
21
-186.386
0
LINE
8
BLACK
6
CONTINUOUS
10
225.006
20
-186.386
11
224.72
21
-186.386
0
LINE
8
BLACK
6
CONTINUOUS
10
224.72
20
-186.386
11
224.577
21
-186.314
0
LINE
8
BLACK
6
CONTINUOUS
10
226.577
20
-186.314
11
226.434
21
-186.386
0
LINE
8
BLACK
6
CONTINUOUS
10
226.434
20
-186.386
11
226.149
21
-186.386
0
LINE
8
BLACK
6
CONTINUOUS
10
226.149
20
-186.386
11
226.006
21
-186.314
0
LINE
8
BLACK
6
CONTINUOUS
10
226.006
20
-186.314
11
225.934
21
-186.243
0
LINE
8
BLACK
6
CONTINUOUS
10
225.934
20
-186.243
11
225.863
21
-186.1
0
LINE
8
BLACK
6
CONTINUOUS
10
225.863
20
-186.1
11
225.863
21
-185.671
0
LINE
8
BLACK
6
CONTINUOUS
10
225.863
20
-185.671
11
225.934
21
-185.529
0
LINE
8
BLACK
6
CONTINUOUS
10
225.934
20
-185.529
11
226.006
21
-185.457
0
LINE
8
BLACK
6
CONTINUOUS
10
226.006
20
-185.457
11
226.149
21
-185.386
0
LINE
8
BLACK
6
CONTINUOUS
10
226.149
20
-185.386
11
226.434
21
-185.386
0
LINE
8
BLACK
6
CONTINUOUS
10
226.434
20
-185.386
11
226.577
21
-185.457
0
LINE
8
BLACK
6
CONTINUOUS
10
227.22
20
-186.386
11
227.22
21
-184.886
0
LINE
8
BLACK
6
CONTINUOUS
10
227.22
20
-185.457
11
227.363
21
-185.386
0
LINE
8
BLACK
6
CONTINUOUS
10
227.363
20
-185.386
11
227.649
21
-185.386
0
LINE
8
BLACK
6
CONTINUOUS
10
227.649
20
-185.386
11
227.791
21
-185.457
0
LINE
8
BLACK
6
CONTINUOUS
10
227.791
20
-185.457
11
227.863
21
-185.529
0
LINE
8
BLACK
6
CONTINUOUS
10
227.863
20
-185.529
11
227.934
21
-185.671
0
LINE
8
BLACK
6
CONTINUOUS
10
227.934
20
-185.671
11
227.934
21
-186.1
0
LINE
8
BLACK
6
CONTINUOUS
10
227.934
20
-186.1
11
227.863
21
-186.243
0
LINE
8
BLACK
6
CONTINUOUS
10
227.863
20
-186.243
11
227.791
21
-186.314
0
LINE
8
BLACK
6
CONTINUOUS
10
227.791
20
-186.314
11
227.649
21
-186.386
0
LINE
8
BLACK
6
CONTINUOUS
10
227.649
20
-186.386
11
227.363
21
-186.386
0
LINE
8
BLACK
6
CONTINUOUS
10
227.363
20
-186.386
11
227.22
21
-186.314
0
LINE
8
BLACK
6
CONTINUOUS
10
177.002
20
-181.507
11
285.002
21
-181.507
0
LINE
8
BLACK
6
CONTINUOUS
10
178.363
20
-183.614
11
178.577
21
-183.686
0
LINE
8
BLACK
6
CONTINUOUS
10
178.577
20
-183.686
11
178.934
21
-183.686
0
LINE
8
BLACK
6
CONTINUOUS
10
178.934
20
-183.686
11
179.077
21
-183.614
0
LINE
8
BLACK
6
CONTINUOUS
10
179.077
20
-183.614
11
179.149
21
-183.543
0
LINE
8
BLACK
6
CONTINUOUS
10
179.149
20
-183.543
11
179.22
21
-183.4
0
LINE
8
BLACK
6
CONTINUOUS
10
179.22
20
-183.4
11
179.22
21
-183.257
0
LINE
8
BLACK
6
CONTINUOUS
10
179.22
20
-183.257
11
179.149
21
-183.114
0
LINE
8
BLACK
6
CONTINUOUS
10
179.149
20
-183.114
11
179.077
21
-183.043
0
LINE
8
BLACK
6
CONTINUOUS
10
179.077
20
-183.043
11
178.934
21
-182.971
0
LINE
8
BLACK
6
CONTINUOUS
10
178.934
20
-182.971
11
178.649
21
-182.9
0
LINE
8
BLACK
6
CONTINUOUS
10
178.649
20
-182.9
11
178.506
21
-182.829
0
LINE
8
BLACK
6
CONTINUOUS
10
178.506
20
-182.829
11
178.434
21
-182.757
0
LINE
8
BLACK
6
CONTINUOUS
10
178.434
20
-182.757
11
178.363
21
-182.614
0
LINE
8
BLACK
6
CONTINUOUS
10
178.363
20
-182.614
11
178.363
21
-182.471
0
LINE
8
BLACK
6
CONTINUOUS
10
178.363
20
-182.471
11
178.434
21
-182.329
0
LINE
8
BLACK
6
CONTINUOUS
10
178.434
20
-182.329
11
178.506
21
-182.257
0
LINE
8
BLACK
6
CONTINUOUS
10
178.506
20
-182.257
11
178.649
21
-182.186
0
LINE
8
BLACK
6
CONTINUOUS
10
178.649
20
-182.186
11
179.006
21
-182.186
0
LINE
8
BLACK
6
CONTINUOUS
10
179.006
20
-182.186
11
179.22
21
-182.257
0
LINE
8
BLACK
6
CONTINUOUS
10
179.863
20
-183.686
11
179.863
21
-182.186
0
LINE
8
BLACK
6
CONTINUOUS
10
180.506
20
-183.686
11
180.506
21
-182.9
0
LINE
8
BLACK
6
CONTINUOUS
10
180.506
20
-182.9
11
180.434
21
-182.757
0
LINE
8
BLACK
6
CONTINUOUS
10
180.434
20
-182.757
11
180.291
21
-182.686
0
LINE
8
BLACK
6
CONTINUOUS
10
180.291
20
-182.686
11
180.077
21
-182.686
0
LINE
8
BLACK
6
CONTINUOUS
10
180.077
20
-182.686
11
179.934
21
-182.757
0
LINE
8
BLACK
6
CONTINUOUS
10
179.934
20
-182.757
11
179.863
21
-182.829
0
LINE
8
BLACK
6
CONTINUOUS
10
181.791
20
-183.614
11
181.649
21
-183.686
0
LINE
8
BLACK
6
CONTINUOUS
10
181.649
20
-183.686
11
181.363
21
-183.686
0
LINE
8
BLACK
6
CONTINUOUS
10
181.363
20
-183.686
11
181.22
21
-183.614
0
LINE
8
BLACK
6
CONTINUOUS
10
181.22
20
-183.614
11
181.149
21
-183.471
0
LINE
8
BLACK
6
CONTINUOUS
10
181.149
20
-183.471
11
181.149
21
-182.9
0
LINE
8
BLACK
6
CONTINUOUS
10
181.149
20
-182.9
11
181.22
21
-182.757
0
LINE
8
BLACK
6
CONTINUOUS
10
181.22
20
-182.757
11
181.363
21
-182.686
0
LINE
8
BLACK
6
CONTINUOUS
10
181.363
20
-182.686
11
181.649
21
-182.686
0
LINE
8
BLACK
6
CONTINUOUS
10
181.649
20
-182.686
11
181.791
21
-182.757
0
LINE
8
BLACK
6
CONTINUOUS
10
181.791
20
-182.757
11
181.863
21
-182.9
0
LINE
8
BLACK
6
CONTINUOUS
10
181.863
20
-182.9
11
181.863
21
-183.043
0
LINE
8
BLACK
6
CONTINUOUS
10
181.863
20
-183.043
11
181.149
21
-183.186
0
LINE
8
BLACK
6
CONTINUOUS
10
183.077
20
-183.614
11
182.934
21
-183.686
0
LINE
8
BLACK
6
CONTINUOUS
10
182.934
20
-183.686
11
182.649
21
-183.686
0
LINE
8
BLACK
6
CONTINUOUS
10
182.649
20
-183.686
11
182.506
21
-183.614
0
LINE
8
BLACK
6
CONTINUOUS
10
182.506
20
-183.614
11
182.434
21
-183.471
0
LINE
8
BLACK
6
CONTINUOUS
10
182.434
20
-183.471
11
182.434
21
-182.9
0
LINE
8
BLACK
6
CONTINUOUS
10
182.434
20
-182.9
11
182.506
21
-182.757
0
LINE
8
BLACK
6
CONTINUOUS
10
182.506
20
-182.757
11
182.649
21
-182.686
0
LINE
8
BLACK
6
CONTINUOUS
10
182.649
20
-182.686
11
182.934
21
-182.686
0
LINE
8
BLACK
6
CONTINUOUS
10
182.934
20
-182.686
11
183.077
21
-182.757
0
LINE
8
BLACK
6
CONTINUOUS
10
183.077
20
-182.757
11
183.149
21
-182.9
0
LINE
8
BLACK
6
CONTINUOUS
10
183.149
20
-182.9
11
183.149
21
-183.043
0
LINE
8
BLACK
6
CONTINUOUS
10
183.149
20
-183.043
11
182.434
21
-183.186
0
LINE
8
BLACK
6
CONTINUOUS
10
183.577
20
-182.686
11
184.149
21
-182.686
0
LINE
8
BLACK
6
CONTINUOUS
10
183.791
20
-182.186
11
183.791
21
-183.471
0
LINE
8
BLACK
6
CONTINUOUS
10
183.791
20
-183.471
11
183.863
21
-183.614
0
LINE
8
BLACK
6
CONTINUOUS
10
183.863
20
-183.614
11
184.006
21
-183.686
0
LINE
8
BLACK
6
CONTINUOUS
10
184.006
20
-183.686
11
184.149
21
-183.686
0
LINE
8
BLACK
6
CONTINUOUS
10
184.649
20
-183.543
11
184.72
21
-183.614
0
LINE
8
BLACK
6
CONTINUOUS
10
184.72
20
-183.614
11
184.649
21
-183.686
0
LINE
8
BLACK
6
CONTINUOUS
10
184.649
20
-183.686
11
184.577
21
-183.614
0
LINE
8
BLACK
6
CONTINUOUS
10
184.577
20
-183.614
11
184.649
21
-183.543
0
LINE
8
BLACK
6
CONTINUOUS
10
184.649
20
-183.543
11
184.649
21
-183.686
0
LINE
8
BLACK
6
CONTINUOUS
10
184.649
20
-182.757
11
184.72
21
-182.829
0
LINE
8
BLACK
6
CONTINUOUS
10
184.72
20
-182.829
11
184.649
21
-182.9
0
LINE
8
BLACK
6
CONTINUOUS
10
184.649
20
-182.9
11
184.577
21
-182.829
0
LINE
8
BLACK
6
CONTINUOUS
10
184.577
20
-182.829
11
184.649
21
-182.757
0
LINE
8
BLACK
6
CONTINUOUS
10
184.649
20
-182.757
11
184.649
21
-182.9
0
LINE
8
BLACK
6
CONTINUOUS
10
178.554
20
-180.686
11
178.554
21
-179.186
0
LINE
8
BLACK
6
CONTINUOUS
10
178.554
20
-179.186
11
179.054
21
-180.257
0
LINE
8
BLACK
6
CONTINUOUS
10
179.054
20
-180.257
11
179.554
21
-179.186
0
LINE
8
BLACK
6
CONTINUOUS
10
179.554
20
-179.186
11
179.554
21
-180.686
0
LINE
8
BLACK
6
CONTINUOUS
10
180.197
20
-180.257
11
180.911
21
-180.257
0
LINE
8
BLACK
6
CONTINUOUS
10
180.054
20
-180.686
11
180.554
21
-179.186
0
LINE
8
BLACK
6
CONTINUOUS
10
180.554
20
-179.186
11
181.054
21
-180.686
0
LINE
8
BLACK
6
CONTINUOUS
10
182.411
20
-180.686
11
181.911
21
-179.971
0
LINE
8
BLACK
6
CONTINUOUS
10
181.554
20
-180.686
11
181.554
21
-179.186
0
LINE
8
BLACK
6
CONTINUOUS
10
181.554
20
-179.186
11
182.126
21
-179.186
0
LINE
8
BLACK
6
CONTINUOUS
10
182.126
20
-179.186
11
182.269
21
-179.257
0
LINE
8
BLACK
6
CONTINUOUS
10
182.269
20
-179.257
11
182.34
21
-179.329
0
LINE
8
BLACK
6
CONTINUOUS
10
182.34
20
-179.329
11
182.411
21
-179.471
0
LINE
8
BLACK
6
CONTINUOUS
10
182.411
20
-179.471
11
182.411
21
-179.686
0
LINE
8
BLACK
6
CONTINUOUS
10
182.411
20
-179.686
11
182.34
21
-179.829
0
LINE
8
BLACK
6
CONTINUOUS
10
182.34
20
-179.829
11
182.269
21
-179.9
0
LINE
8
BLACK
6
CONTINUOUS
10
182.269
20
-179.9
11
182.126
21
-179.971
0
LINE
8
BLACK
6
CONTINUOUS
10
182.126
20
-179.971
11
181.554
21
-179.971
0
LINE
8
BLACK
6
CONTINUOUS
10
183.054
20
-180.686
11
183.054
21
-179.186
0
LINE
8
BLACK
6
CONTINUOUS
10
183.054
20
-179.186
11
183.554
21
-180.257
0
LINE
8
BLACK
6
CONTINUOUS
10
183.554
20
-180.257
11
184.054
21
-179.186
0
LINE
8
BLACK
6
CONTINUOUS
10
184.054
20
-179.186
11
184.054
21
-180.686
0
LINE
8
BLACK
6
CONTINUOUS
10
184.769
20
-180.543
11
184.84
21
-180.614
0
LINE
8
BLACK
6
CONTINUOUS
10
184.84
20
-180.614
11
184.769
21
-180.686
0
LINE
8
BLACK
6
CONTINUOUS
10
184.769
20
-180.686
11
184.697
21
-180.614
0
LINE
8
BLACK
6
CONTINUOUS
10
184.697
20
-180.614
11
184.769
21
-180.543
0
LINE
8
BLACK
6
CONTINUOUS
10
184.769
20
-180.543
11
184.769
21
-180.686
0
LINE
8
BLACK
6
CONTINUOUS
10
185.483
20
-179.686
11
185.483
21
-181.186
0
LINE
8
BLACK
6
CONTINUOUS
10
185.483
20
-179.757
11
185.626
21
-179.686
0
LINE
8
BLACK
6
CONTINUOUS
10
185.626
20
-179.686
11
185.911
21
-179.686
0
LINE
8
BLACK
6
CONTINUOUS
10
185.911
20
-179.686
11
186.054
21
-179.757
0
LINE
8
BLACK
6
CONTINUOUS
10
186.054
20
-179.757
11
186.126
21
-179.829
0
LINE
8
BLACK
6
CONTINUOUS
10
186.126
20
-179.829
11
186.197
21
-179.971
0
LINE
8
BLACK
6
CONTINUOUS
10
186.197
20
-179.971
11
186.197
21
-180.4
0
LINE
8
BLACK
6
CONTINUOUS
10
186.197
20
-180.4
11
186.126
21
-180.543
0
LINE
8
BLACK
6
CONTINUOUS
10
186.126
20
-180.543
11
186.054
21
-180.614
0
LINE
8
BLACK
6
CONTINUOUS
10
186.054
20
-180.614
11
185.911
21
-180.686
0
LINE
8
BLACK
6
CONTINUOUS
10
185.911
20
-180.686
11
185.626
21
-180.686
0
LINE
8
BLACK
6
CONTINUOUS
10
185.626
20
-180.686
11
185.483
21
-180.614
0
LINE
8
BLACK
6
CONTINUOUS
10
187.054
20
-180.686
11
186.911
21
-180.614
0
LINE
8
BLACK
6
CONTINUOUS
10
186.911
20
-180.614
11
186.84
21
-180.471
0
LINE
8
BLACK
6
CONTINUOUS
10
186.84
20
-180.471
11
186.84
21
-179.186
0
LINE
8
BLACK
6
CONTINUOUS
10
188.697
20
-180.614
11
188.911
21
-180.686
0
LINE
8
BLACK
6
CONTINUOUS
10
188.911
20
-180.686
11
189.269
21
-180.686
0
LINE
8
BLACK
6
CONTINUOUS
10
189.269
20
-180.686
11
189.411
21
-180.614
0
LINE
8
BLACK
6
CONTINUOUS
10
189.411
20
-180.614
11
189.483
21
-180.543
0
LINE
8
BLACK
6
CONTINUOUS
10
189.483
20
-180.543
11
189.554
21
-180.4
0
LINE
8
BLACK
6
CONTINUOUS
10
189.554
20
-180.4
11
189.554
21
-180.257
0
LINE
8
BLACK
6
CONTINUOUS
10
189.554
20
-180.257
11
189.483
21
-180.114
0
LINE
8
BLACK
6
CONTINUOUS
10
189.483
20
-180.114
11
189.411
21
-180.043
0
LINE
8
BLACK
6
CONTINUOUS
10
189.411
20
-180.043
11
189.269
21
-179.971
0
LINE
8
BLACK
6
CONTINUOUS
10
189.269
20
-179.971
11
188.983
21
-179.9
0
LINE
8
BLACK
6
CONTINUOUS
10
188.983
20
-179.9
11
188.84
21
-179.829
0
LINE
8
BLACK
6
CONTINUOUS
10
188.84
20
-179.829
11
188.769
21
-179.757
0
LINE
8
BLACK
6
CONTINUOUS
10
188.769
20
-179.757
11
188.697
21
-179.614
0
LINE
8
BLACK
6
CONTINUOUS
10
188.697
20
-179.614
11
188.697
21
-179.471
0
LINE
8
BLACK
6
CONTINUOUS
10
188.697
20
-179.471
11
188.769
21
-179.329
0
LINE
8
BLACK
6
CONTINUOUS
10
188.769
20
-179.329
11
188.84
21
-179.257
0
LINE
8
BLACK
6
CONTINUOUS
10
188.84
20
-179.257
11
188.983
21
-179.186
0
LINE
8
BLACK
6
CONTINUOUS
10
188.983
20
-179.186
11
189.34
21
-179.186
0
LINE
8
BLACK
6
CONTINUOUS
10
189.34
20
-179.186
11
189.554
21
-179.257
0
LINE
8
BLACK
6
CONTINUOUS
10
190.197
20
-179.686
11
190.197
21
-181.186
0
LINE
8
BLACK
6
CONTINUOUS
10
190.197
20
-179.757
11
190.34
21
-179.686
0
LINE
8
BLACK
6
CONTINUOUS
10
190.34
20
-179.686
11
190.626
21
-179.686
0
LINE
8
BLACK
6
CONTINUOUS
10
190.626
20
-179.686
11
190.769
21
-179.757
0
LINE
8
BLACK
6
CONTINUOUS
10
190.769
20
-179.757
11
190.84
21
-179.829
0
LINE
8
BLACK
6
CONTINUOUS
10
190.84
20
-179.829
11
190.911
21
-179.971
0
LINE
8
BLACK
6
CONTINUOUS
10
190.911
20
-179.971
11
190.911
21
-180.4
0
LINE
8
BLACK
6
CONTINUOUS
10
190.911
20
-180.4
11
190.84
21
-180.543
0
LINE
8
BLACK
6
CONTINUOUS
10
190.84
20
-180.543
11
190.769
21
-180.614
0
LINE
8
BLACK
6
CONTINUOUS
10
190.769
20
-180.614
11
190.626
21
-180.686
0
LINE
8
BLACK
6
CONTINUOUS
10
190.626
20
-180.686
11
190.34
21
-180.686
0
LINE
8
BLACK
6
CONTINUOUS
10
190.34
20
-180.686
11
190.197
21
-180.614
0
LINE
8
BLACK
6
CONTINUOUS
10
191.554
20
-180.543
11
191.626
21
-180.614
0
LINE
8
BLACK
6
CONTINUOUS
10
191.626
20
-180.614
11
191.554
21
-180.686
0
LINE
8
BLACK
6
CONTINUOUS
10
191.554
20
-180.686
11
191.483
21
-180.614
0
LINE
8
BLACK
6
CONTINUOUS
10
191.483
20
-180.614
11
191.554
21
-180.543
0
LINE
8
BLACK
6
CONTINUOUS
10
191.554
20
-180.543
11
191.554
21
-180.686
0
LINE
8
BLACK
6
CONTINUOUS
10
193.269
20
-179.686
11
194.054
21
-179.686
0
LINE
8
BLACK
6
CONTINUOUS
10
194.054
20
-179.686
11
193.269
21
-180.686
0
LINE
8
BLACK
6
CONTINUOUS
10
193.269
20
-180.686
11
194.054
21
-180.686
0
LINE
8
BLACK
6
CONTINUOUS
10
195.983
20
-180.686
11
195.84
21
-180.614
0
LINE
8
BLACK
6
CONTINUOUS
10
195.84
20
-180.614
11
195.769
21
-180.543
0
LINE
8
BLACK
6
CONTINUOUS
10
195.769
20
-180.543
11
195.697
21
-180.4
0
LINE
8
BLACK
6
CONTINUOUS
10
195.697
20
-180.4
11
195.697
21
-179.971
0
LINE
8
BLACK
6
CONTINUOUS
10
195.697
20
-179.971
11
195.769
21
-179.829
0
LINE
8
BLACK
6
CONTINUOUS
10
195.769
20
-179.829
11
195.84
21
-179.757
0
LINE
8
BLACK
6
CONTINUOUS
10
195.84
20
-179.757
11
195.983
21
-179.686
0
LINE
8
BLACK
6
CONTINUOUS
10
195.983
20
-179.686
11
196.197
21
-179.686
0
LINE
8
BLACK
6
CONTINUOUS
10
196.197
20
-179.686
11
196.34
21
-179.757
0
LINE
8
BLACK
6
CONTINUOUS
10
196.34
20
-179.757
11
196.411
21
-179.829
0
LINE
8
BLACK
6
CONTINUOUS
10
196.411
20
-179.829
11
196.483
21
-179.971
0
LINE
8
BLACK
6
CONTINUOUS
10
196.483
20
-179.971
11
196.483
21
-180.4
0
LINE
8
BLACK
6
CONTINUOUS
10
196.483
20
-180.4
11
196.411
21
-180.543
0
LINE
8
BLACK
6
CONTINUOUS
10
196.411
20
-180.543
11
196.34
21
-180.614
0
LINE
8
BLACK
6
CONTINUOUS
10
196.34
20
-180.614
11
196.197
21
-180.686
0
LINE
8
BLACK
6
CONTINUOUS
10
196.197
20
-180.686
11
195.983
21
-180.686
0
LINE
8
BLACK
6
CONTINUOUS
10
197.126
20
-180.543
11
197.197
21
-180.614
0
LINE
8
BLACK
6
CONTINUOUS
10
197.197
20
-180.614
11
197.126
21
-180.686
0
LINE
8
BLACK
6
CONTINUOUS
10
197.126
20
-180.686
11
197.054
21
-180.614
0
LINE
8
BLACK
6
CONTINUOUS
10
197.054
20
-180.614
11
197.126
21
-180.543
0
LINE
8
BLACK
6
CONTINUOUS
10
197.126
20
-180.543
11
197.126
21
-180.686
0
LINE
8
BLACK
6
CONTINUOUS
10
198.054
20
-180.686
11
197.911
21
-180.614
0
LINE
8
BLACK
6
CONTINUOUS
10
197.911
20
-180.614
11
197.84
21
-180.543
0
LINE
8
BLACK
6
CONTINUOUS
10
197.84
20
-180.543
11
197.769
21
-180.4
0
LINE
8
BLACK
6
CONTINUOUS
10
197.769
20
-180.4
11
197.769
21
-179.971
0
LINE
8
BLACK
6
CONTINUOUS
10
197.769
20
-179.971
11
197.84
21
-179.829
0
LINE
8
BLACK
6
CONTINUOUS
10
197.84
20
-179.829
11
197.911
21
-179.757
0
LINE
8
BLACK
6
CONTINUOUS
10
197.911
20
-179.757
11
198.054
21
-179.686
0
LINE
8
BLACK
6
CONTINUOUS
10
198.054
20
-179.686
11
198.269
21
-179.686
0
LINE
8
BLACK
6
CONTINUOUS
10
198.269
20
-179.686
11
198.411
21
-179.757
0
LINE
8
BLACK
6
CONTINUOUS
10
198.411
20
-179.757
11
198.483
21
-179.829
0
LINE
8
BLACK
6
CONTINUOUS
10
198.483
20
-179.829
11
198.554
21
-179.971
0
LINE
8
BLACK
6
CONTINUOUS
10
198.554
20
-179.971
11
198.554
21
-180.4
0
LINE
8
BLACK
6
CONTINUOUS
10
198.554
20
-180.4
11
198.483
21
-180.543
0
LINE
8
BLACK
6
CONTINUOUS
10
198.483
20
-180.543
11
198.411
21
-180.614
0
LINE
8
BLACK
6
CONTINUOUS
10
198.411
20
-180.614
11
198.269
21
-180.686
0
LINE
8
BLACK
6
CONTINUOUS
10
198.269
20
-180.686
11
198.054
21
-180.686
0
LINE
8
BLACK
6
CONTINUOUS
10
199.197
20
-180.543
11
199.269
21
-180.614
0
LINE
8
BLACK
6
CONTINUOUS
10
199.269
20
-180.614
11
199.197
21
-180.686
0
LINE
8
BLACK
6
CONTINUOUS
10
199.197
20
-180.686
11
199.126
21
-180.614
0
LINE
8
BLACK
6
CONTINUOUS
10
199.126
20
-180.614
11
199.197
21
-180.543
0
LINE
8
BLACK
6
CONTINUOUS
10
199.197
20
-180.543
11
199.197
21
-180.686
0
LINE
8
BLACK
6
CONTINUOUS
10
179.291
20
-177.686
11
178.791
21
-176.971
0
LINE
8
BLACK
6
CONTINUOUS
10
178.434
20
-177.686
11
178.434
21
-176.186
0
LINE
8
BLACK
6
CONTINUOUS
10
178.434
20
-176.186
11
179.006
21
-176.186
0
LINE
8
BLACK
6
CONTINUOUS
10
179.006
20
-176.186
11
179.149
21
-176.257
0
LINE
8
BLACK
6
CONTINUOUS
10
179.149
20
-176.257
11
179.22
21
-176.329
0
LINE
8
BLACK
6
CONTINUOUS
10
179.22
20
-176.329
11
179.291
21
-176.471
0
LINE
8
BLACK
6
CONTINUOUS
10
179.291
20
-176.471
11
179.291
21
-176.686
0
LINE
8
BLACK
6
CONTINUOUS
10
179.291
20
-176.686
11
179.22
21
-176.829
0
LINE
8
BLACK
6
CONTINUOUS
10
179.22
20
-176.829
11
179.149
21
-176.9
0
LINE
8
BLACK
6
CONTINUOUS
10
179.149
20
-176.9
11
179.006
21
-176.971
0
LINE
8
BLACK
6
CONTINUOUS
10
179.006
20
-176.971
11
178.434
21
-176.971
0
LINE
8
BLACK
6
CONTINUOUS
10
180.72
20
-176.257
11
180.577
21
-176.186
0
LINE
8
BLACK
6
CONTINUOUS
10
180.577
20
-176.186
11
180.363
21
-176.186
0
LINE
8
BLACK
6
CONTINUOUS
10
180.363
20
-176.186
11
180.149
21
-176.257
0
LINE
8
BLACK
6
CONTINUOUS
10
180.149
20
-176.257
11
180.006
21
-176.4
0
LINE
8
BLACK
6
CONTINUOUS
10
180.006
20
-176.4
11
179.934
21
-176.543
0
LINE
8
BLACK
6
CONTINUOUS
10
179.934
20
-176.543
11
179.863
21
-176.829
0
LINE
8
BLACK
6
CONTINUOUS
10
179.863
20
-176.829
11
179.863
21
-177.043
0
LINE
8
BLACK
6
CONTINUOUS
10
179.863
20
-177.043
11
179.934
21
-177.329
0
LINE
8
BLACK
6
CONTINUOUS
10
179.934
20
-177.329
11
180.006
21
-177.471
0
LINE
8
BLACK
6
CONTINUOUS
10
180.006
20
-177.471
11
180.149
21
-177.614
0
LINE
8
BLACK
6
CONTINUOUS
10
180.149
20
-177.614
11
180.363
21
-177.686
0
LINE
8
BLACK
6
CONTINUOUS
10
180.363
20
-177.686
11
180.506
21
-177.686
0
LINE
8
BLACK
6
CONTINUOUS
10
180.506
20
-177.686
11
180.72
21
-177.614
0
LINE
8
BLACK
6
CONTINUOUS
10
180.72
20
-177.614
11
180.791
21
-177.543
0
LINE
8
BLACK
6
CONTINUOUS
10
180.791
20
-177.543
11
180.791
21
-177.043
0
LINE
8
BLACK
6
CONTINUOUS
10
180.791
20
-177.043
11
180.506
21
-177.043
0
LINE
8
BLACK
6
CONTINUOUS
10
181.291
20
-176.186
11
181.649
21
-177.686
0
LINE
8
BLACK
6
CONTINUOUS
10
181.649
20
-177.686
11
181.934
21
-176.614
0
LINE
8
BLACK
6
CONTINUOUS
10
181.934
20
-176.614
11
182.22
21
-177.686
0
LINE
8
BLACK
6
CONTINUOUS
10
182.22
20
-177.686
11
182.577
21
-176.186
0
LINE
8
BLACK
6
CONTINUOUS
10
197.002
20
-191.507
11
197.002
21
-194.507
0
LINE
8
BLACK
6
CONTINUOUS
10
261.002
20
-191.507
11
261.002
21
-198.007
0
LINE
8
BLACK
6
CONTINUOUS
10
206.846
20
-36.7288
11
206.856
21
-36.7305
0
LINE
8
BLACK
6
CONTINUOUS
10
206.856
20
-36.7305
11
206.859
21
-36.7299
0
LINE
8
BLACK
6
CONTINUOUS
10
206.859
20
-36.7299
11
206.862
21
-36.7316
0
LINE
8
BLACK
6
CONTINUOUS
10
206.862
20
-36.7316
11
206.872
21
-36.7333
0
LINE
8
BLACK
6
CONTINUOUS
10
206.872
20
-36.7333
11
206.886
21
-36.7459
0
LINE
8
BLACK
6
CONTINUOUS
10
206.886
20
-36.7459
11
206.903
21
-36.7556
0
LINE
8
BLACK
6
CONTINUOUS
10
206.903
20
-36.7556
11
206.906
21
-36.762
0
LINE
8
BLACK
6
CONTINUOUS
10
206.906
20
-36.762
11
206.911
21
-36.7663
0
LINE
8
BLACK
6
CONTINUOUS
10
206.911
20
-36.7663
11
206.914
21
-36.7855
0
LINE
8
BLACK
6
CONTINUOUS
10
206.914
20
-36.7855
11
206.921
21
-36.8038
0
LINE
8
BLACK
6
CONTINUOUS
10
206.921
20
-36.8038
11
206.921
21
-122.27
0
LINE
8
BLACK
6
CONTINUOUS
10
206.921
20
-122.27
11
206.919
21
-122.28
0
LINE
8
BLACK
6
CONTINUOUS
10
206.919
20
-122.28
11
206.92
21
-122.283
0
LINE
8
BLACK
6
CONTINUOUS
10
206.92
20
-122.283
11
206.918
21
-122.286
0
LINE
8
BLACK
6
CONTINUOUS
10
206.918
20
-122.286
11
206.916
21
-122.295
0
LINE
8
BLACK
6
CONTINUOUS
10
206.916
20
-122.295
11
206.904
21
-122.31
0
LINE
8
BLACK
6
CONTINUOUS
10
206.904
20
-122.31
11
206.894
21
-122.327
0
LINE
8
BLACK
6
CONTINUOUS
10
206.894
20
-122.327
11
206.888
21
-122.33
0
LINE
8
BLACK
6
CONTINUOUS
10
206.888
20
-122.33
11
206.883
21
-122.335
0
LINE
8
BLACK
6
CONTINUOUS
10
206.883
20
-122.335
11
206.864
21
-122.338
0
LINE
8
BLACK
6
CONTINUOUS
10
206.864
20
-122.338
11
206.846
21
-122.345
0
LINE
8
BLACK
6
CONTINUOUS
10
206.846
20
-122.345
11
33.4909
21
-122.345
0
LINE
8
BLACK
6
CONTINUOUS
10
33.4909
20
-122.345
11
33.4811
21
-122.343
0
LINE
8
BLACK
6
CONTINUOUS
10
33.4811
20
-122.343
11
33.4778
21
-122.344
0
LINE
8
BLACK
6
CONTINUOUS
10
33.4778
20
-122.344
11
33.475
21
-122.342
0
LINE
8
BLACK
6
CONTINUOUS
10
33.475
20
-122.342
11
33.4652
21
-122.34
0
LINE
8
BLACK
6
CONTINUOUS
10
33.4652
20
-122.34
11
33.4503
21
-122.328
0
LINE
8
BLACK
6
CONTINUOUS
10
33.4503
20
-122.328
11
33.4334
21
-122.318
0
LINE
8
BLACK
6
CONTINUOUS
10
33.4334
20
-122.318
11
33.4311
21
-122.312
0
LINE
8
BLACK
6
CONTINUOUS
10
33.4311
20
-122.312
11
33.4259
21
-122.307
0
LINE
8
BLACK
6
CONTINUOUS
10
33.4259
20
-122.307
11
33.4225
21
-122.288
0
LINE
8
BLACK
6
CONTINUOUS
10
33.4225
20
-122.288
11
33.4159
21
-122.27
0
LINE
8
BLACK
6
CONTINUOUS
10
33.4159
20
-122.27
11
33.4163
21
-36.7559
0
LINE
8
BLACK
6
CONTINUOUS
10
33.4163
20
-36.7559
11
33.418
21
-36.7461
0
LINE
8
BLACK
6
CONTINUOUS
10
33.418
20
-36.7461
11
33.4174
21
-36.7428
0
LINE
8
BLACK
6
CONTINUOUS
10
33.4174
20
-36.7428
11
33.4191
21
-36.74
0
LINE
8
BLACK
6
CONTINUOUS
10
33.4191
20
-36.74
11
33.4208
21
-36.7302
0
LINE
8
BLACK
6
CONTINUOUS
10
33.4208
20
-36.7302
11
33.4334
21
-36.7153
0
LINE
8
BLACK
6
CONTINUOUS
10
33.4334
20
-36.7153
11
33.4431
21
-36.6984
0
LINE
8
BLACK
6
CONTINUOUS
10
33.4431
20
-36.6984
11
33.4495
21
-36.6961
0
LINE
8
BLACK
6
CONTINUOUS
10
33.4495
20
-36.6961
11
33.4538
21
-36.6909
0
LINE
8
BLACK
6
CONTINUOUS
10
33.4538
20
-36.6909
11
33.473
21
-36.6876
0
LINE
8
BLACK
6
CONTINUOUS
10
33.473
20
-36.6876
11
33.4913
21
-36.6809
0
LINE
8
BLACK
6
CONTINUOUS
10
33.4913
20
-36.6809
11
206.846
21
-36.7288
0
LINE
8
BLACK
6
CONTINUOUS
10
33.5659
20
-122.195
11
206.771
21
-122.195
0
LINE
8
BLACK
6
CONTINUOUS
10
206.771
20
-122.195
11
206.771
21
-36.8788
0
LINE
8
BLACK
6
CONTINUOUS
10
206.771
20
-36.8788
11
33.5663
21
-36.8309
0
LINE
8
BLACK
6
CONTINUOUS
10
33.5663
20
-36.8309
11
33.5659
21
-122.195
0
LINE
8
BLACK
6
CONTINUOUS
10
180.612
20
-115.005
11
180.678
21
-114.769
0
LINE
8
BLACK
6
CONTINUOUS
10
180.678
20
-114.769
11
180.781
21
-114.546
0
LINE
8
BLACK
6
CONTINUOUS
10
180.781
20
-114.546
11
180.919
21
-114.344
0
LINE
8
BLACK
6
CONTINUOUS
10
180.919
20
-114.344
11
181.088
21
-114.167
0
LINE
8
BLACK
6
CONTINUOUS
10
181.088
20
-114.167
11
181.284
21
-114.02
0
LINE
8
BLACK
6
CONTINUOUS
10
181.284
20
-114.02
11
181.502
21
-113.907
0
LINE
8
BLACK
6
CONTINUOUS
10
181.502
20
-113.907
11
181.734
21
-113.831
0
LINE
8
BLACK
6
CONTINUOUS
10
181.734
20
-113.831
11
181.977
21
-113.794
0
LINE
8
BLACK
6
CONTINUOUS
10
181.977
20
-113.794
11
182.222
21
-113.797
0
LINE
8
BLACK
6
CONTINUOUS
10
182.222
20
-113.797
11
182.463
21
-113.839
0
LINE
8
BLACK
6
CONTINUOUS
10
182.463
20
-113.839
11
182.694
21
-113.921
0
LINE
8
BLACK
6
CONTINUOUS
10
182.694
20
-113.921
11
182.908
21
-114.04
0
LINE
8
BLACK
6
CONTINUOUS
10
182.908
20
-114.04
11
183.1
21
-114.191
0
LINE
8
BLACK
6
CONTINUOUS
10
183.1
20
-114.191
11
183.265
21
-114.373
0
LINE
8
BLACK
6
CONTINUOUS
10
183.265
20
-114.373
11
183.398
21
-114.578
0
LINE
8
BLACK
6
CONTINUOUS
10
183.398
20
-114.578
11
183.496
21
-114.803
0
LINE
8
BLACK
6
CONTINUOUS
10
183.496
20
-114.803
11
183.556
21
-115.041
0
LINE
8
BLACK
6
CONTINUOUS
10
183.556
20
-115.041
11
183.576
21
-115.285
0
LINE
8
BLACK
6
CONTINUOUS
10
183.576
20
-115.285
11
183.574
21
-115.358
0
LINE
8
BLACK
6
CONTINUOUS
10
183.574
20
-115.358
11
183.542
21
-115.601
0
LINE
8
BLACK
6
CONTINUOUS
10
183.542
20
-115.601
11
183.471
21
-115.835
0
LINE
8
BLACK
6
CONTINUOUS
10
183.471
20
-115.835
11
183.362
21
-116.055
0
LINE
8
BLACK
6
CONTINUOUS
10
183.362
20
-116.055
11
183.219
21
-116.254
0
LINE
8
BLACK
6
CONTINUOUS
10
183.219
20
-116.254
11
183.046
21
-116.427
0
LINE
8
BLACK
6
CONTINUOUS
10
183.046
20
-116.427
11
182.846
21
-116.569
0
LINE
8
BLACK
6
CONTINUOUS
10
182.846
20
-116.569
11
182.626
21
-116.677
0
LINE
8
BLACK
6
CONTINUOUS
10
182.626
20
-116.677
11
182.392
21
-116.747
0
LINE
8
BLACK
6
CONTINUOUS
10
182.392
20
-116.747
11
182.149
21
-116.778
0
LINE
8
BLACK
6
CONTINUOUS
10
182.149
20
-116.778
11
181.904
21
-116.769
0
LINE
8
BLACK
6
CONTINUOUS
10
181.904
20
-116.769
11
181.664
21
-116.72
0
LINE
8
BLACK
6
CONTINUOUS
10
181.664
20
-116.72
11
181.435
21
-116.633
0
LINE
8
BLACK
6
CONTINUOUS
10
181.435
20
-116.633
11
181.223
21
-116.509
0
LINE
8
BLACK
6
CONTINUOUS
10
181.223
20
-116.509
11
181.035
21
-116.353
0
LINE
8
BLACK
6
CONTINUOUS
10
181.035
20
-116.353
11
180.875
21
-116.168
0
LINE
8
BLACK
6
CONTINUOUS
10
180.875
20
-116.168
11
180.747
21
-115.959
0
LINE
8
BLACK
6
CONTINUOUS
10
180.747
20
-115.959
11
180.654
21
-115.732
0
LINE
8
BLACK
6
CONTINUOUS
10
180.654
20
-115.732
11
180.601
21
-115.493
0
LINE
8
BLACK
6
CONTINUOUS
10
180.601
20
-115.493
11
180.589
21
-115.285
0
LINE
8
BLACK
6
CONTINUOUS
10
180.589
20
-115.285
11
180.586
21
-115.248
0
LINE
8
BLACK
6
CONTINUOUS
10
180.586
20
-115.248
11
180.612
21
-115.005
0
LINE
8
BLACK
6
CONTINUOUS
10
180.812
20
-115.747
11
180.912
21
-115.96
0
LINE
8
BLACK
6
CONTINUOUS
10
180.912
20
-115.96
11
181.047
21
-116.153
0
LINE
8
BLACK
6
CONTINUOUS
10
181.047
20
-116.153
11
181.213
21
-116.319
0
LINE
8
BLACK
6
CONTINUOUS
10
181.213
20
-116.319
11
181.406
21
-116.454
0
LINE
8
BLACK
6
CONTINUOUS
10
181.406
20
-116.454
11
181.619
21
-116.553
0
LINE
8
BLACK
6
CONTINUOUS
10
181.619
20
-116.553
11
181.846
21
-116.614
0
LINE
8
BLACK
6
CONTINUOUS
10
181.846
20
-116.614
11
182.081
21
-116.635
0
LINE
8
BLACK
6
CONTINUOUS
10
182.081
20
-116.635
11
182.315
21
-116.614
0
LINE
8
BLACK
6
CONTINUOUS
10
182.315
20
-116.614
11
182.543
21
-116.553
0
LINE
8
BLACK
6
CONTINUOUS
10
182.543
20
-116.553
11
182.756
21
-116.454
0
LINE
8
BLACK
6
CONTINUOUS
10
182.756
20
-116.454
11
182.949
21
-116.319
0
LINE
8
BLACK
6
CONTINUOUS
10
182.949
20
-116.319
11
183.115
21
-116.153
0
LINE
8
BLACK
6
CONTINUOUS
10
183.115
20
-116.153
11
183.25
21
-115.96
0
LINE
8
BLACK
6
CONTINUOUS
10
183.25
20
-115.96
11
183.349
21
-115.747
0
LINE
8
BLACK
6
CONTINUOUS
10
183.349
20
-115.747
11
183.41
21
-115.519
0
LINE
8
BLACK
6
CONTINUOUS
10
183.41
20
-115.519
11
183.431
21
-115.285
0
LINE
8
BLACK
6
CONTINUOUS
10
183.431
20
-115.285
11
183.41
21
-115.05
0
LINE
8
BLACK
6
CONTINUOUS
10
183.41
20
-115.05
11
183.349
21
-114.823
0
LINE
8
BLACK
6
CONTINUOUS
10
183.349
20
-114.823
11
183.25
21
-114.61
0
LINE
8
BLACK
6
CONTINUOUS
10
183.25
20
-114.61
11
183.115
21
-114.417
0
LINE
8
BLACK
6
CONTINUOUS
10
183.115
20
-114.417
11
182.949
21
-114.251
0
LINE
8
BLACK
6
CONTINUOUS
10
182.949
20
-114.251
11
182.756
21
-114.116
0
LINE
8
BLACK
6
CONTINUOUS
10
182.756
20
-114.116
11
182.543
21
-114.016
0
LINE
8
BLACK
6
CONTINUOUS
10
182.543
20
-114.016
11
182.315
21
-113.955
0
LINE
8
BLACK
6
CONTINUOUS
10
182.315
20
-113.955
11
182.081
21
-113.935
0
LINE
8
BLACK
6
CONTINUOUS
10
182.081
20
-113.935
11
181.846
21
-113.955
0
LINE
8
BLACK
6
CONTINUOUS
10
181.846
20
-113.955
11
181.619
21
-114.016
0
LINE
8
BLACK
6
CONTINUOUS
10
181.619
20
-114.016
11
181.406
21
-114.116
0
LINE
8
BLACK
6
CONTINUOUS
10
181.406
20
-114.116
11
181.213
21
-114.251
0
LINE
8
BLACK
6
CONTINUOUS
10
181.213
20
-114.251
11
181.047
21
-114.417
0
LINE
8
BLACK
6
CONTINUOUS
10
181.047
20
-114.417
11
180.912
21
-114.61
0
LINE
8
BLACK
6
CONTINUOUS
10
180.912
20
-114.61
11
180.812
21
-114.823
0
LINE
8
BLACK
6
CONTINUOUS
10
180.812
20
-114.823
11
180.751
21
-115.05
0
LINE
8
BLACK
6
CONTINUOUS
10
180.751
20
-115.05
11
180.731
21
-115.285
0
LINE
8
BLACK
6
CONTINUOUS
10
180.731
20
-115.285
11
180.751
21
-115.519
0
LINE
8
BLACK
6
CONTINUOUS
10
180.751
20
-115.519
11
180.812
21
-115.747
0
LINE
8
BLACK
6
CONTINUOUS
10
108.857
20
-109.925
11
108.923
21
-109.689
0
LINE
8
BLACK
6
CONTINUOUS
10
108.923
20
-109.689
11
109.026
21
-109.466
0
LINE
8
BLACK
6
CONTINUOUS
10
109.026
20
-109.466
11
109.164
21
-109.264
0
LINE
8
BLACK
6
CONTINUOUS
10
109.164
20
-109.264
11
109.333
21
-109.087
0
LINE
8
BLACK
6
CONTINUOUS
10
109.333
20
-109.087
11
109.529
21
-108.94
0
LINE
8
BLACK
6
CONTINUOUS
10
109.529
20
-108.94
11
109.747
21
-108.827
0
LINE
8
BLACK
6
CONTINUOUS
10
109.747
20
-108.827
11
109.979
21
-108.751
0
LINE
8
BLACK
6
CONTINUOUS
10
109.979
20
-108.751
11
110.222
21
-108.714
0
LINE
8
BLACK
6
CONTINUOUS
10
110.222
20
-108.714
11
110.467
21
-108.717
0
LINE
8
BLACK
6
CONTINUOUS
10
110.467
20
-108.717
11
110.708
21
-108.759
0
LINE
8
BLACK
6
CONTINUOUS
10
110.708
20
-108.759
11
110.939
21
-108.841
0
LINE
8
BLACK
6
CONTINUOUS
10
110.939
20
-108.841
11
111.153
21
-108.96
0
LINE
8
BLACK
6
CONTINUOUS
10
111.153
20
-108.96
11
111.345
21
-109.111
0
LINE
8
BLACK
6
CONTINUOUS
10
111.345
20
-109.111
11
111.51
21
-109.293
0
LINE
8
BLACK
6
CONTINUOUS
10
111.51
20
-109.293
11
111.643
21
-109.498
0
LINE
8
BLACK
6
CONTINUOUS
10
111.643
20
-109.498
11
111.741
21
-109.723
0
LINE
8
BLACK
6
CONTINUOUS
10
111.741
20
-109.723
11
111.801
21
-109.961
0
LINE
8
BLACK
6
CONTINUOUS
10
111.801
20
-109.961
11
111.821
21
-110.205
0
LINE
8
BLACK
6
CONTINUOUS
10
111.821
20
-110.205
11
111.819
21
-110.278
0
LINE
8
BLACK
6
CONTINUOUS
10
111.819
20
-110.278
11
111.787
21
-110.521
0
LINE
8
BLACK
6
CONTINUOUS
10
111.787
20
-110.521
11
111.716
21
-110.755
0
LINE
8
BLACK
6
CONTINUOUS
10
111.716
20
-110.755
11
111.607
21
-110.975
0
LINE
8
BLACK
6
CONTINUOUS
10
111.607
20
-110.975
11
111.464
21
-111.174
0
LINE
8
BLACK
6
CONTINUOUS
10
111.464
20
-111.174
11
111.291
21
-111.347
0
LINE
8
BLACK
6
CONTINUOUS
10
111.291
20
-111.347
11
111.091
21
-111.489
0
LINE
8
BLACK
6
CONTINUOUS
10
111.091
20
-111.489
11
110.871
21
-111.597
0
LINE
8
BLACK
6
CONTINUOUS
10
110.871
20
-111.597
11
110.637
21
-111.667
0
LINE
8
BLACK
6
CONTINUOUS
10
110.637
20
-111.667
11
110.394
21
-111.698
0
LINE
8
BLACK
6
CONTINUOUS
10
110.394
20
-111.698
11
110.149
21
-111.689
0
LINE
8
BLACK
6
CONTINUOUS
10
110.149
20
-111.689
11
109.909
21
-111.64
0
LINE
8
BLACK
6
CONTINUOUS
10
109.909
20
-111.64
11
109.68
21
-111.553
0
LINE
8
BLACK
6
CONTINUOUS
10
109.68
20
-111.553
11
109.468
21
-111.429
0
LINE
8
BLACK
6
CONTINUOUS
10
109.468
20
-111.429
11
109.28
21
-111.273
0
LINE
8
BLACK
6
CONTINUOUS
10
109.28
20
-111.273
11
109.12
21
-111.088
0
LINE
8
BLACK
6
CONTINUOUS
10
109.12
20
-111.088
11
108.992
21
-110.879
0
LINE
8
BLACK
6
CONTINUOUS
10
108.992
20
-110.879
11
108.899
21
-110.652
0
LINE
8
BLACK
6
CONTINUOUS
10
108.899
20
-110.652
11
108.846
21
-110.413
0
LINE
8
BLACK
6
CONTINUOUS
10
108.846
20
-110.413
11
108.834
21
-110.205
0
LINE
8
BLACK
6
CONTINUOUS
10
108.834
20
-110.205
11
108.831
21
-110.168
0
LINE
8
BLACK
6
CONTINUOUS
10
108.831
20
-110.168
11
108.857
21
-109.925
0
LINE
8
BLACK
6
CONTINUOUS
10
109.057
20
-110.667
11
109.157
21
-110.88
0
LINE
8
BLACK
6
CONTINUOUS
10
109.157
20
-110.88
11
109.292
21
-111.073
0
LINE
8
BLACK
6
CONTINUOUS
10
109.292
20
-111.073
11
109.458
21
-111.239
0
LINE
8
BLACK
6
CONTINUOUS
10
109.458
20
-111.239
11
109.651
21
-111.374
0
LINE
8
BLACK
6
CONTINUOUS
10
109.651
20
-111.374
11
109.864
21
-111.473
0
LINE
8
BLACK
6
CONTINUOUS
10
109.864
20
-111.473
11
110.091
21
-111.534
0
LINE
8
BLACK
6
CONTINUOUS
10
110.091
20
-111.534
11
110.326
21
-111.555
0
LINE
8
BLACK
6
CONTINUOUS
10
110.326
20
-111.555
11
110.56
21
-111.534
0
LINE
8
BLACK
6
CONTINUOUS
10
110.56
20
-111.534
11
110.788
21
-111.473
0
LINE
8
BLACK
6
CONTINUOUS
10
110.788
20
-111.473
11
111.001
21
-111.374
0
LINE
8
BLACK
6
CONTINUOUS
10
111.001
20
-111.374
11
111.194
21
-111.239
0
LINE
8
BLACK
6
CONTINUOUS
10
111.194
20
-111.239
11
111.36
21
-111.073
0
LINE
8
BLACK
6
CONTINUOUS
10
111.36
20
-111.073
11
111.495
21
-110.88
0
LINE
8
BLACK
6
CONTINUOUS
10
111.495
20
-110.88
11
111.594
21
-110.667
0
LINE
8
BLACK
6
CONTINUOUS
10
111.594
20
-110.667
11
111.655
21
-110.439
0
LINE
8
BLACK
6
CONTINUOUS
10
111.655
20
-110.439
11
111.676
21
-110.205
0
LINE
8
BLACK
6
CONTINUOUS
10
111.676
20
-110.205
11
111.655
21
-109.97
0
LINE
8
BLACK
6
CONTINUOUS
10
111.655
20
-109.97
11
111.594
21
-109.743
0
LINE
8
BLACK
6
CONTINUOUS
10
111.594
20
-109.743
11
111.495
21
-109.53
0
LINE
8
BLACK
6
CONTINUOUS
10
111.495
20
-109.53
11
111.36
21
-109.337
0
LINE
8
BLACK
6
CONTINUOUS
10
111.36
20
-109.337
11
111.194
21
-109.171
0
LINE
8
BLACK
6
CONTINUOUS
10
111.194
20
-109.171
11
111.001
21
-109.036
0
LINE
8
BLACK
6
CONTINUOUS
10
111.001
20
-109.036
11
110.788
21
-108.936
0
LINE
8
BLACK
6
CONTINUOUS
10
110.788
20
-108.936
11
110.56
21
-108.875
0
LINE
8
BLACK
6
CONTINUOUS
10
110.56
20
-108.875
11
110.326
21
-108.855
0
LINE
8
BLACK
6
CONTINUOUS
10
110.326
20
-108.855
11
110.091
21
-108.875
0
LINE
8
BLACK
6
CONTINUOUS
10
110.091
20
-108.875
11
109.864
21
-108.936
0
LINE
8
BLACK
6
CONTINUOUS
10
109.864
20
-108.936
11
109.651
21
-109.036
0
LINE
8
BLACK
6
CONTINUOUS
10
109.651
20
-109.036
11
109.458
21
-109.171
0
LINE
8
BLACK
6
CONTINUOUS
10
109.458
20
-109.171
11
109.292
21
-109.337
0
LINE
8
BLACK
6
CONTINUOUS
10
109.292
20
-109.337
11
109.157
21
-109.53
0
LINE
8
BLACK
6
CONTINUOUS
10
109.157
20
-109.53
11
109.057
21
-109.743
0
LINE
8
BLACK
6
CONTINUOUS
10
109.057
20
-109.743
11
108.996
21
-109.97
0
LINE
8
BLACK
6
CONTINUOUS
10
108.996
20
-109.97
11
108.976
21
-110.205
0
LINE
8
BLACK
6
CONTINUOUS
10
108.976
20
-110.205
11
108.996
21
-110.439
0
LINE
8
BLACK
6
CONTINUOUS
10
108.996
20
-110.439
11
109.057
21
-110.667
0
LINE
8
BLACK
6
CONTINUOUS
10
49.0404
20
-99.1297
11
49.1059
21
-98.8936
0
LINE
8
BLACK
6
CONTINUOUS
10
49.1059
20
-98.8936
11
49.2091
21
-98.6714
0
LINE
8
BLACK
6
CONTINUOUS
10
49.2091
20
-98.6714
11
49.3471
21
-98.469
0
LINE
8
BLACK
6
CONTINUOUS
10
49.3471
20
-98.469
11
49.5164
21
-98.2919
0
LINE
8
BLACK
6
CONTINUOUS
10
49.5164
20
-98.2919
11
49.7123
21
-98.1448
0
LINE
8
BLACK
6
CONTINUOUS
10
49.7123
20
-98.1448
11
49.9296
21
-98.0317
0
LINE
8
BLACK
6
CONTINUOUS
10
49.9296
20
-98.0317
11
50.1624
21
-97.9556
0
LINE
8
BLACK
6
CONTINUOUS
10
50.1624
20
-97.9556
11
50.4046
21
-97.9185
0
LINE
8
BLACK
6
CONTINUOUS
10
50.4046
20
-97.9185
11
50.6495
21
-97.9215
0
LINE
8
BLACK
6
CONTINUOUS
10
50.6495
20
-97.9215
11
50.8907
21
-97.9645
0
LINE
8
BLACK
6
CONTINUOUS
10
50.8907
20
-97.9645
11
51.1217
21
-98.0463
0
LINE
8
BLACK
6
CONTINUOUS
10
51.1217
20
-98.0463
11
51.3361
21
-98.1647
0
LINE
8
BLACK
6
CONTINUOUS
10
51.3361
20
-98.1647
11
51.5284
21
-98.3165
0
LINE
8
BLACK
6
CONTINUOUS
10
51.5284
20
-98.3165
11
51.6933
21
-98.4977
0
LINE
8
BLACK
6
CONTINUOUS
10
51.6933
20
-98.4977
11
51.8263
21
-98.7034
0
LINE
8
BLACK
6
CONTINUOUS
10
51.8263
20
-98.7034
11
51.924
21
-98.928
0
LINE
8
BLACK
6
CONTINUOUS
10
51.924
20
-98.928
11
51.9837
21
-99.1656
0
LINE
8
BLACK
6
CONTINUOUS
10
51.9837
20
-99.1656
11
52.0038
21
-99.4098
0
LINE
8
BLACK
6
CONTINUOUS
10
52.0038
20
-99.4098
11
52.002
21
-99.4828
0
LINE
8
BLACK
6
CONTINUOUS
10
52.002
20
-99.4828
11
51.97
21
-99.7257
0
LINE
8
BLACK
6
CONTINUOUS
10
51.97
20
-99.7257
11
51.8988
21
-99.9601
0
LINE
8
BLACK
6
CONTINUOUS
10
51.8988
20
-99.9601
11
51.7902
21
-100.18
0
LINE
8
BLACK
6
CONTINUOUS
10
51.7902
20
-100.18
11
51.6473
21
-100.379
0
LINE
8
BLACK
6
CONTINUOUS
10
51.6473
20
-100.379
11
51.4738
21
-100.552
0
LINE
8
BLACK
6
CONTINUOUS
10
51.4738
20
-100.552
11
51.2743
21
-100.694
0
LINE
8
BLACK
6
CONTINUOUS
10
51.2743
20
-100.694
11
51.0543
21
-100.802
0
LINE
8
BLACK
6
CONTINUOUS
10
51.0543
20
-100.802
11
50.8197
21
-100.872
0
LINE
8
BLACK
6
CONTINUOUS
10
50.8197
20
-100.872
11
50.5767
21
-100.903
0
LINE
8
BLACK
6
CONTINUOUS
10
50.5767
20
-100.903
11
50.3319
21
-100.894
0
LINE
8
BLACK
6
CONTINUOUS
10
50.3319
20
-100.894
11
50.0918
21
-100.845
0
LINE
8
BLACK
6
CONTINUOUS
10
50.0918
20
-100.845
11
49.8629
21
-100.758
0
LINE
8
BLACK
6
CONTINUOUS
10
49.8629
20
-100.758
11
49.6514
21
-100.634
0
LINE
8
BLACK
6
CONTINUOUS
10
49.6514
20
-100.634
11
49.4629
21
-100.478
0
LINE
8
BLACK
6
CONTINUOUS
10
49.4629
20
-100.478
11
49.3025
21
-100.293
0
LINE
8
BLACK
6
CONTINUOUS
10
49.3025
20
-100.293
11
49.1745
21
-100.084
0
LINE
8
BLACK
6
CONTINUOUS
10
49.1745
20
-100.084
11
49.0824
21
-99.8568
0
LINE
8
BLACK
6
CONTINUOUS
10
49.0824
20
-99.8568
11
49.0285
21
-99.6179
0
LINE
8
BLACK
6
CONTINUOUS
10
49.0285
20
-99.6179
11
49.0165
21
-99.4098
0
LINE
8
BLACK
6
CONTINUOUS
10
49.0165
20
-99.4098
11
49.0144
21
-99.3733
0
LINE
8
BLACK
6
CONTINUOUS
10
49.0144
20
-99.3733
11
49.0404
21
-99.1297
0
LINE
8
BLACK
6
CONTINUOUS
10
49.2402
20
-99.8715
11
49.3397
21
-100.085
0
LINE
8
BLACK
6
CONTINUOUS
10
49.3397
20
-100.085
11
49.4747
21
-100.278
0
LINE
8
BLACK
6
CONTINUOUS
10
49.4747
20
-100.278
11
49.6411
21
-100.444
0
LINE
8
BLACK
6
CONTINUOUS
10
49.6411
20
-100.444
11
49.8338
21
-100.579
0
LINE
8
BLACK
6
CONTINUOUS
10
49.8338
20
-100.579
11
50.0471
21
-100.678
0
LINE
8
BLACK
6
CONTINUOUS
10
50.0471
20
-100.678
11
50.2744
21
-100.739
0
LINE
8
BLACK
6
CONTINUOUS
10
50.2744
20
-100.739
11
50.5089
21
-100.76
0
LINE
8
BLACK
6
CONTINUOUS
10
50.5089
20
-100.76
11
50.7433
21
-100.739
0
LINE
8
BLACK
6
CONTINUOUS
10
50.7433
20
-100.739
11
50.9706
21
-100.678
0
LINE
8
BLACK
6
CONTINUOUS
10
50.9706
20
-100.678
11
51.1839
21
-100.579
0
LINE
8
BLACK
6
CONTINUOUS
10
51.1839
20
-100.579
11
51.3767
21
-100.444
0
LINE
8
BLACK
6
CONTINUOUS
10
51.3767
20
-100.444
11
51.5431
21
-100.278
0
LINE
8
BLACK
6
CONTINUOUS
10
51.5431
20
-100.278
11
51.678
21
-100.085
0
LINE
8
BLACK
6
CONTINUOUS
10
51.678
20
-100.085
11
51.7775
21
-99.8715
0
LINE
8
BLACK
6
CONTINUOUS
10
51.7775
20
-99.8715
11
51.8384
21
-99.6442
0
LINE
8
BLACK
6
CONTINUOUS
10
51.8384
20
-99.6442
11
51.8589
21
-99.4098
0
LINE
8
BLACK
6
CONTINUOUS
10
51.8589
20
-99.4098
11
51.8384
21
-99.1754
0
LINE
8
BLACK
6
CONTINUOUS
10
51.8384
20
-99.1754
11
51.7775
21
-98.9481
0
LINE
8
BLACK
6
CONTINUOUS
10
51.7775
20
-98.9481
11
51.678
21
-98.7348
0
LINE
8
BLACK
6
CONTINUOUS
10
51.678
20
-98.7348
11
51.5431
21
-98.542
0
LINE
8
BLACK
6
CONTINUOUS
10
51.5431
20
-98.542
11
51.3767
21
-98.3756
0
LINE
8
BLACK
6
CONTINUOUS
10
51.3767
20
-98.3756
11
51.1839
21
-98.2406
0
LINE
8
BLACK
6
CONTINUOUS
10
51.1839
20
-98.2406
11
50.9706
21
-98.1412
0
LINE
8
BLACK
6
CONTINUOUS
10
50.9706
20
-98.1412
11
50.7433
21
-98.0803
0
LINE
8
BLACK
6
CONTINUOUS
10
50.7433
20
-98.0803
11
50.5089
21
-98.0598
0
LINE
8
BLACK
6
CONTINUOUS
10
50.5089
20
-98.0598
11
50.2744
21
-98.0803
0
LINE
8
BLACK
6
CONTINUOUS
10
50.2744
20
-98.0803
11
50.0471
21
-98.1412
0
LINE
8
BLACK
6
CONTINUOUS
10
50.0471
20
-98.1412
11
49.8338
21
-98.2406
0
LINE
8
BLACK
6
CONTINUOUS
10
49.8338
20
-98.2406
11
49.6411
21
-98.3756
0
LINE
8
BLACK
6
CONTINUOUS
10
49.6411
20
-98.3756
11
49.4747
21
-98.542
0
LINE
8
BLACK
6
CONTINUOUS
10
49.4747
20
-98.542
11
49.3397
21
-98.7348
0
LINE
8
BLACK
6
CONTINUOUS
10
49.3397
20
-98.7348
11
49.2402
21
-98.9481
0
LINE
8
BLACK
6
CONTINUOUS
10
49.2402
20
-98.9481
11
49.1793
21
-99.1754
0
LINE
8
BLACK
6
CONTINUOUS
10
49.1793
20
-99.1754
11
49.1588
21
-99.4098
0
LINE
8
BLACK
6
CONTINUOUS
10
49.1588
20
-99.4098
11
49.1793
21
-99.6442
0
LINE
8
BLACK
6
CONTINUOUS
10
49.1793
20
-99.6442
11
49.2402
21
-99.8715
0
LINE
8
BLACK
6
CONTINUOUS
10
49.0404
20
-49.5859
11
49.1059
21
-49.3499
0
LINE
8
BLACK
6
CONTINUOUS
10
49.1059
20
-49.3499
11
49.2091
21
-49.1276
0
LINE
8
BLACK
6
CONTINUOUS
10
49.2091
20
-49.1276
11
49.3471
21
-48.9253
0
LINE
8
BLACK
6
CONTINUOUS
10
49.3471
20
-48.9253
11
49.5164
21
-48.7482
0
LINE
8
BLACK
6
CONTINUOUS
10
49.5164
20
-48.7482
11
49.7123
21
-48.6011
0
LINE
8
BLACK
6
CONTINUOUS
10
49.7123
20
-48.6011
11
49.9296
21
-48.4879
0
LINE
8
BLACK
6
CONTINUOUS
10
49.9296
20
-48.4879
11
50.1624
21
-48.4118
0
LINE
8
BLACK
6
CONTINUOUS
10
50.1624
20
-48.4118
11
50.4046
21
-48.3748
0
LINE
8
BLACK
6
CONTINUOUS
10
50.4046
20
-48.3748
11
50.6495
21
-48.3778
0
LINE
8
BLACK
6
CONTINUOUS
10
50.6495
20
-48.3778
11
50.8907
21
-48.4207
0
LINE
8
BLACK
6
CONTINUOUS
10
50.8907
20
-48.4207
11
51.1217
21
-48.5025
0
LINE
8
BLACK
6
CONTINUOUS
10
51.1217
20
-48.5025
11
51.3361
21
-48.6209
0
LINE
8
BLACK
6
CONTINUOUS
10
51.3361
20
-48.6209
11
51.5284
21
-48.7727
0
LINE
8
BLACK
6
CONTINUOUS
10
51.5284
20
-48.7727
11
51.6933
21
-48.9539
0
LINE
8
BLACK
6
CONTINUOUS
10
51.6933
20
-48.9539
11
51.8263
21
-49.1596
0
LINE
8
BLACK
6
CONTINUOUS
10
51.8263
20
-49.1596
11
51.924
21
-49.3843
0
LINE
8
BLACK
6
CONTINUOUS
10
51.924
20
-49.3843
11
51.9837
21
-49.6219
0
LINE
8
BLACK
6
CONTINUOUS
10
51.9837
20
-49.6219
11
52.0038
21
-49.866
0
LINE
8
BLACK
6
CONTINUOUS
10
52.0038
20
-49.866
11
52.002
21
-49.9391
0
LINE
8
BLACK
6
CONTINUOUS
10
52.002
20
-49.9391
11
51.97
21
-50.182
0
LINE
8
BLACK
6
CONTINUOUS
10
51.97
20
-50.182
11
51.8988
21
-50.4164
0
LINE
8
BLACK
6
CONTINUOUS
10
51.8988
20
-50.4164
11
51.7902
21
-50.636
0
LINE
8
BLACK
6
CONTINUOUS
10
51.7902
20
-50.636
11
51.6473
21
-50.8349
0
LINE
8
BLACK
6
CONTINUOUS
10
51.6473
20
-50.8349
11
51.4738
21
-51.0078
0
LINE
8
BLACK
6
CONTINUOUS
10
51.4738
20
-51.0078
11
51.2743
21
-51.1501
0
LINE
8
BLACK
6
CONTINUOUS
10
51.2743
20
-51.1501
11
51.0543
21
-51.2579
0
LINE
8
BLACK
6
CONTINUOUS
10
51.0543
20
-51.2579
11
50.8197
21
-51.3283
0
LINE
8
BLACK
6
CONTINUOUS
10
50.8197
20
-51.3283
11
50.5767
21
-51.3594
0
LINE
8
BLACK
6
CONTINUOUS
10
50.5767
20
-51.3594
11
50.3319
21
-51.3504
0
LINE
8
BLACK
6
CONTINUOUS
10
50.3319
20
-51.3504
11
50.0918
21
-51.3016
0
LINE
8
BLACK
6
CONTINUOUS
10
50.0918
20
-51.3016
11
49.8629
21
-51.2142
0
LINE
8
BLACK
6
CONTINUOUS
10
49.8629
20
-51.2142
11
49.6514
21
-51.0906
0
LINE
8
BLACK
6
CONTINUOUS
10
49.6514
20
-51.0906
11
49.4629
21
-50.9341
0
LINE
8
BLACK
6
CONTINUOUS
10
49.4629
20
-50.9341
11
49.3025
21
-50.7489
0
LINE
8
BLACK
6
CONTINUOUS
10
49.3025
20
-50.7489
11
49.1745
21
-50.5401
0
LINE
8
BLACK
6
CONTINUOUS
10
49.1745
20
-50.5401
11
49.0824
21
-50.3131
0
LINE
8
BLACK
6
CONTINUOUS
10
49.0824
20
-50.3131
11
49.0285
21
-50.0741
0
LINE
8
BLACK
6
CONTINUOUS
10
49.0285
20
-50.0741
11
49.0165
21
-49.866
0
LINE
8
BLACK
6
CONTINUOUS
10
49.0165
20
-49.866
11
49.0144
21
-49.8295
0
LINE
8
BLACK
6
CONTINUOUS
10
49.0144
20
-49.8295
11
49.0404
21
-49.5859
0
LINE
8
BLACK
6
CONTINUOUS
10
49.2402
20
-50.3278
11
49.3397
21
-50.5411
0
LINE
8
BLACK
6
CONTINUOUS
10
49.3397
20
-50.5411
11
49.4747
21
-50.7338
0
LINE
8
BLACK
6
CONTINUOUS
10
49.4747
20
-50.7338
11
49.6411
21
-50.9002
0
LINE
8
BLACK
6
CONTINUOUS
10
49.6411
20
-50.9002
11
49.8338
21
-51.0352
0
LINE
8
BLACK
6
CONTINUOUS
10
49.8338
20
-51.0352
11
50.0471
21
-51.1347
0
LINE
8
BLACK
6
CONTINUOUS
10
50.0471
20
-51.1347
11
50.2744
21
-51.1956
0
LINE
8
BLACK
6
CONTINUOUS
10
50.2744
20
-51.1956
11
50.5089
21
-51.2161
0
LINE
8
BLACK
6
CONTINUOUS
10
50.5089
20
-51.2161
11
50.7433
21
-51.1956
0
LINE
8
BLACK
6
CONTINUOUS
10
50.7433
20
-51.1956
11
50.9706
21
-51.1347
0
LINE
8
BLACK
6
CONTINUOUS
10
50.9706
20
-51.1347
11
51.1839
21
-51.0352
0
LINE
8
BLACK
6
CONTINUOUS
10
51.1839
20
-51.0352
11
51.3767
21
-50.9002
0
LINE
8
BLACK
6
CONTINUOUS
10
51.3767
20
-50.9002
11
51.5431
21
-50.7338
0
LINE
8
BLACK
6
CONTINUOUS
10
51.5431
20
-50.7338
11
51.678
21
-50.5411
0
LINE
8
BLACK
6
CONTINUOUS
10
51.678
20
-50.5411
11
51.7775
21
-50.3278
0
LINE
8
BLACK
6
CONTINUOUS
10
51.7775
20
-50.3278
11
51.8384
21
-50.1005
0
LINE
8
BLACK
6
CONTINUOUS
10
51.8384
20
-50.1005
11
51.8589
21
-49.866
0
LINE
8
BLACK
6
CONTINUOUS
10
51.8589
20
-49.866
11
51.8384
21
-49.6316
0
LINE
8
BLACK
6
CONTINUOUS
10
51.8384
20
-49.6316
11
51.7775
21
-49.4043
0
LINE
8
BLACK
6
CONTINUOUS
10
51.7775
20
-49.4043
11
51.678
21
-49.191
0
LINE
8
BLACK
6
CONTINUOUS
10
51.678
20
-49.191
11
51.5431
21
-48.9983
0
LINE
8
BLACK
6
CONTINUOUS
10
51.5431
20
-48.9983
11
51.3767
21
-48.8319
0
LINE
8
BLACK
6
CONTINUOUS
10
51.3767
20
-48.8319
11
51.1839
21
-48.6969
0
LINE
8
BLACK
6
CONTINUOUS
10
51.1839
20
-48.6969
11
50.9706
21
-48.5974
0
LINE
8
BLACK
6
CONTINUOUS
10
50.9706
20
-48.5974
11
50.7433
21
-48.5365
0
LINE
8
BLACK
6
CONTINUOUS
10
50.7433
20
-48.5365
11
50.5089
21
-48.516
0
LINE
8
BLACK
6
CONTINUOUS
10
50.5089
20
-48.516
11
50.2744
21
-48.5365
0
LINE
8
BLACK
6
CONTINUOUS
10
50.2744
20
-48.5365
11
50.0471
21
-48.5974
0
LINE
8
BLACK
6
CONTINUOUS
10
50.0471
20
-48.5974
11
49.8338
21
-48.6969
0
LINE
8
BLACK
6
CONTINUOUS
10
49.8338
20
-48.6969
11
49.6411
21
-48.8319
0
LINE
8
BLACK
6
CONTINUOUS
10
49.6411
20
-48.8319
11
49.4747
21
-48.9983
0
LINE
8
BLACK
6
CONTINUOUS
10
49.4747
20
-48.9983
11
49.3397
21
-49.191
0
LINE
8
BLACK
6
CONTINUOUS
10
49.3397
20
-49.191
11
49.2402
21
-49.4043
0
LINE
8
BLACK
6
CONTINUOUS
10
49.2402
20
-49.4043
11
49.1793
21
-49.6316
0
LINE
8
BLACK
6
CONTINUOUS
10
49.1793
20
-49.6316
11
49.1588
21
-49.866
0
LINE
8
BLACK
6
CONTINUOUS
10
49.1588
20
-49.866
11
49.1793
21
-50.1005
0
LINE
8
BLACK
6
CONTINUOUS
10
49.1793
20
-50.1005
11
49.2402
21
-50.3278
0
LINE
8
BLACK
6
CONTINUOUS
10
139.21
20
-49.5859
11
139.276
21
-49.3499
0
LINE
8
BLACK
6
CONTINUOUS
10
139.276
20
-49.3499
11
139.379
21
-49.1276
0
LINE
8
BLACK
6
CONTINUOUS
10
139.379
20
-49.1276
11
139.517
21
-48.9253
0
LINE
8
BLACK
6
CONTINUOUS
10
139.517
20
-48.9253
11
139.686
21
-48.7482
0
LINE
8
BLACK
6
CONTINUOUS
10
139.686
20
-48.7482
11
139.882
21
-48.6011
0
LINE
8
BLACK
6
CONTINUOUS
10
139.882
20
-48.6011
11
140.1
21
-48.4879
0
LINE
8
BLACK
6
CONTINUOUS
10
140.1
20
-48.4879
11
140.332
21
-48.4118
0
LINE
8
BLACK
6
CONTINUOUS
10
140.332
20
-48.4118
11
140.575
21
-48.3748
0
LINE
8
BLACK
6
CONTINUOUS
10
140.575
20
-48.3748
11
140.82
21
-48.3778
0
LINE
8
BLACK
6
CONTINUOUS
10
140.82
20
-48.3778
11
141.061
21
-48.4207
0
LINE
8
BLACK
6
CONTINUOUS
10
141.061
20
-48.4207
11
141.292
21
-48.5025
0
LINE
8
BLACK
6
CONTINUOUS
10
141.292
20
-48.5025
11
141.506
21
-48.6209
0
LINE
8
BLACK
6
CONTINUOUS
10
141.506
20
-48.6209
11
141.698
21
-48.7727
0
LINE
8
BLACK
6
CONTINUOUS
10
141.698
20
-48.7727
11
141.863
21
-48.9539
0
LINE
8
BLACK
6
CONTINUOUS
10
141.863
20
-48.9539
11
141.996
21
-49.1596
0
LINE
8
BLACK
6
CONTINUOUS
10
141.996
20
-49.1596
11
142.094
21
-49.3843
0
LINE
8
BLACK
6
CONTINUOUS
10
142.094
20
-49.3843
11
142.154
21
-49.6219
0
LINE
8
BLACK
6
CONTINUOUS
10
142.154
20
-49.6219
11
142.174
21
-49.866
0
LINE
8
BLACK
6
CONTINUOUS
10
142.174
20
-49.866
11
142.172
21
-49.9391
0
LINE
8
BLACK
6
CONTINUOUS
10
142.172
20
-49.9391
11
142.14
21
-50.182
0
LINE
8
BLACK
6
CONTINUOUS
10
142.14
20
-50.182
11
142.069
21
-50.4164
0
LINE
8
BLACK
6
CONTINUOUS
10
142.069
20
-50.4164
11
141.96
21
-50.636
0
LINE
8
BLACK
6
CONTINUOUS
10
141.96
20
-50.636
11
141.817
21
-50.8349
0
LINE
8
BLACK
6
CONTINUOUS
10
141.817
20
-50.8349
11
141.644
21
-51.0078
0
LINE
8
BLACK
6
CONTINUOUS
10
141.644
20
-51.0078
11
141.444
21
-51.1501
0
LINE
8
BLACK
6
CONTINUOUS
10
141.444
20
-51.1501
11
141.224
21
-51.2579
0
LINE
8
BLACK
6
CONTINUOUS
10
141.224
20
-51.2579
11
140.99
21
-51.3283
0
LINE
8
BLACK
6
CONTINUOUS
10
140.99
20
-51.3283
11
140.747
21
-51.3594
0
LINE
8
BLACK
6
CONTINUOUS
10
140.747
20
-51.3594
11
140.502
21
-51.3504
0
LINE
8
BLACK
6
CONTINUOUS
10
140.502
20
-51.3504
11
140.262
21
-51.3016
0
LINE
8
BLACK
6
CONTINUOUS
10
140.262
20
-51.3016
11
140.033
21
-51.2142
0
LINE
8
BLACK
6
CONTINUOUS
10
140.033
20
-51.2142
11
139.821
21
-51.0906
0
LINE
8
BLACK
6
CONTINUOUS
10
139.821
20
-51.0906
11
139.633
21
-50.9341
0
LINE
8
BLACK
6
CONTINUOUS
10
139.633
20
-50.9341
11
139.473
21
-50.7489
0
LINE
8
BLACK
6
CONTINUOUS
10
139.473
20
-50.7489
11
139.345
21
-50.5401
0
LINE
8
BLACK
6
CONTINUOUS
10
139.345
20
-50.5401
11
139.252
21
-50.3131
0
LINE
8
BLACK
6
CONTINUOUS
10
139.252
20
-50.3131
11
139.199
21
-50.0741
0
LINE
8
BLACK
6
CONTINUOUS
10
139.199
20
-50.0741
11
139.187
21
-49.866
0
LINE
8
BLACK
6
CONTINUOUS
10
139.187
20
-49.866
11
139.184
21
-49.8295
0
LINE
8
BLACK
6
CONTINUOUS
10
139.184
20
-49.8295
11
139.21
21
-49.5859
0
LINE
8
BLACK
6
CONTINUOUS
10
139.41
20
-50.3278
11
139.51
21
-50.5411
0
LINE
8
BLACK
6
CONTINUOUS
10
139.51
20
-50.5411
11
139.645
21
-50.7338
0
LINE
8
BLACK
6
CONTINUOUS
10
139.645
20
-50.7338
11
139.811
21
-50.9002
0
LINE
8
BLACK
6
CONTINUOUS
10
139.811
20
-50.9002
11
140.004
21
-51.0352
0
LINE
8
BLACK
6
CONTINUOUS
10
140.004
20
-51.0352
11
140.217
21
-51.1347
0
LINE
8
BLACK
6
CONTINUOUS
10
140.217
20
-51.1347
11
140.444
21
-51.1956
0
LINE
8
BLACK
6
CONTINUOUS
10
140.444
20
-51.1956
11
140.679
21
-51.2161
0
LINE
8
BLACK
6
CONTINUOUS
10
140.679
20
-51.2161
11
140.913
21
-51.1956
0
LINE
8
BLACK
6
CONTINUOUS
10
140.913
20
-51.1956
11
141.141
21
-51.1347
0
LINE
8
BLACK
6
CONTINUOUS
10
141.141
20
-51.1347
11
141.354
21
-51.0352
0
LINE
8
BLACK
6
CONTINUOUS
10
141.354
20
-51.0352
11
141.547
21
-50.9002
0
LINE
8
BLACK
6
CONTINUOUS
10
141.547
20
-50.9002
11
141.713
21
-50.7338
0
LINE
8
BLACK
6
CONTINUOUS
10
141.713
20
-50.7338
11
141.848
21
-50.5411
0
LINE
8
BLACK
6
CONTINUOUS
10
141.848
20
-50.5411
11
141.947
21
-50.3278
0
LINE
8
BLACK
6
CONTINUOUS
10
141.947
20
-50.3278
11
142.008
21
-50.1005
0
LINE
8
BLACK
6
CONTINUOUS
10
142.008
20
-50.1005
11
142.029
21
-49.866
0
LINE
8
BLACK
6
CONTINUOUS
10
142.029
20
-49.866
11
142.008
21
-49.6316
0
LINE
8
BLACK
6
CONTINUOUS
10
142.008
20
-49.6316
11
141.947
21
-49.4043
0
LINE
8
BLACK
6
CONTINUOUS
10
141.947
20
-49.4043
11
141.848
21
-49.191
0
LINE
8
BLACK
6
CONTINUOUS
10
141.848
20
-49.191
11
141.713
21
-48.9983
0
LINE
8
BLACK
6
CONTINUOUS
10
141.713
20
-48.9983
11
141.547
21
-48.8319
0
LINE
8
BLACK
6
CONTINUOUS
10
141.547
20
-48.8319
11
141.354
21
-48.6969
0
LINE
8
BLACK
6
CONTINUOUS
10
141.354
20
-48.6969
11
141.141
21
-48.5974
0
LINE
8
BLACK
6
CONTINUOUS
10
141.141
20
-48.5974
11
140.913
21
-48.5365
0
LINE
8
BLACK
6
CONTINUOUS
10
140.913
20
-48.5365
11
140.679
21
-48.516
0
LINE
8
BLACK
6
CONTINUOUS
10
140.679
20
-48.516
11
140.444
21
-48.5365
0
LINE
8
BLACK
6
CONTINUOUS
10
140.444
20
-48.5365
11
140.217
21
-48.5974
0
LINE
8
BLACK
6
CONTINUOUS
10
140.217
20
-48.5974
11
140.004
21
-48.6969
0
LINE
8
BLACK
6
CONTINUOUS
10
140.004
20
-48.6969
11
139.811
21
-48.8319
0
LINE
8
BLACK
6
CONTINUOUS
10
139.811
20
-48.8319
11
139.645
21
-48.9983
0
LINE
8
BLACK
6
CONTINUOUS
10
139.645
20
-48.9983
11
139.51
21
-49.191
0
LINE
8
BLACK
6
CONTINUOUS
10
139.51
20
-49.191
11
139.41
21
-49.4043
0
LINE
8
BLACK
6
CONTINUOUS
10
139.41
20
-49.4043
11
139.349
21
-49.6316
0
LINE
8
BLACK
6
CONTINUOUS
10
139.349
20
-49.6316
11
139.329
21
-49.866
0
LINE
8
BLACK
6
CONTINUOUS
10
139.329
20
-49.866
11
139.349
21
-50.1005
0
LINE
8
BLACK
6
CONTINUOUS
10
139.349
20
-50.1005
11
139.41
21
-50.3278
0
LINE
8
BLACK
6
CONTINUOUS
10
201.567
20
-42.9659
11
201.633
21
-42.7299
0
LINE
8
BLACK
6
CONTINUOUS
10
201.633
20
-42.7299
11
201.736
21
-42.5076
0
LINE
8
BLACK
6
CONTINUOUS
10
201.736
20
-42.5076
11
201.874
21
-42.3053
0
LINE
8
BLACK
6
CONTINUOUS
10
201.874
20
-42.3053
11
202.043
21
-42.1282
0
LINE
8
BLACK
6
CONTINUOUS
10
202.043
20
-42.1282
11
202.239
21
-41.9811
0
LINE
8
BLACK
6
CONTINUOUS
10
202.239
20
-41.9811
11
202.457
21
-41.8679
0
LINE
8
BLACK
6
CONTINUOUS
10
202.457
20
-41.8679
11
202.689
21
-41.7918
0
LINE
8
BLACK
6
CONTINUOUS
10
202.689
20
-41.7918
11
202.932
21
-41.7548
0
LINE
8
BLACK
6
CONTINUOUS
10
202.932
20
-41.7548
11
203.177
21
-41.7578
0
LINE
8
BLACK
6
CONTINUOUS
10
203.177
20
-41.7578
11
203.418
21
-41.8007
0
LINE
8
BLACK
6
CONTINUOUS
10
203.418
20
-41.8007
11
203.649
21
-41.8825
0
LINE
8
BLACK
6
CONTINUOUS
10
203.649
20
-41.8825
11
203.863
21
-42.0009
0
LINE
8
BLACK
6
CONTINUOUS
10
203.863
20
-42.0009
11
204.055
21
-42.1527
0
LINE
8
BLACK
6
CONTINUOUS
10
204.055
20
-42.1527
11
204.22
21
-42.3339
0
LINE
8
BLACK
6
CONTINUOUS
10
204.22
20
-42.3339
11
204.353
21
-42.5396
0
LINE
8
BLACK
6
CONTINUOUS
10
204.353
20
-42.5396
11
204.451
21
-42.7643
0
LINE
8
BLACK
6
CONTINUOUS
10
204.451
20
-42.7643
11
204.511
21
-43.0019
0
LINE
8
BLACK
6
CONTINUOUS
10
204.511
20
-43.0019
11
204.531
21
-43.246
0
LINE
8
BLACK
6
CONTINUOUS
10
204.531
20
-43.246
11
204.529
21
-43.3191
0
LINE
8
BLACK
6
CONTINUOUS
10
204.529
20
-43.3191
11
204.497
21
-43.562
0
LINE
8
BLACK
6
CONTINUOUS
10
204.497
20
-43.562
11
204.426
21
-43.7964
0
LINE
8
BLACK
6
CONTINUOUS
10
204.426
20
-43.7964
11
204.317
21
-44.016
0
LINE
8
BLACK
6
CONTINUOUS
10
204.317
20
-44.016
11
204.174
21
-44.2149
0
LINE
8
BLACK
6
CONTINUOUS
10
204.174
20
-44.2149
11
204.001
21
-44.3878
0
LINE
8
BLACK
6
CONTINUOUS
10
204.001
20
-44.3878
11
203.801
21
-44.5301
0
LINE
8
BLACK
6
CONTINUOUS
10
203.801
20
-44.5301
11
203.581
21
-44.6379
0
LINE
8
BLACK
6
CONTINUOUS
10
203.581
20
-44.6379
11
203.347
21
-44.7083
0
LINE
8
BLACK
6
CONTINUOUS
10
203.347
20
-44.7083
11
203.104
21
-44.7394
0
LINE
8
BLACK
6
CONTINUOUS
10
203.104
20
-44.7394
11
202.859
21
-44.7304
0
LINE
8
BLACK
6
CONTINUOUS
10
202.859
20
-44.7304
11
202.619
21
-44.6816
0
LINE
8
BLACK
6
CONTINUOUS
10
202.619
20
-44.6816
11
202.39
21
-44.5942
0
LINE
8
BLACK
6
CONTINUOUS
10
202.39
20
-44.5942
11
202.178
21
-44.4706
0
LINE
8
BLACK
6
CONTINUOUS
10
202.178
20
-44.4706
11
201.99
21
-44.3141
0
LINE
8
BLACK
6
CONTINUOUS
10
201.99
20
-44.3141
11
201.83
21
-44.1289
0
LINE
8
BLACK
6
CONTINUOUS
10
201.83
20
-44.1289
11
201.702
21
-43.9201
0
LINE
8
BLACK
6
CONTINUOUS
10
201.702
20
-43.9201
11
201.609
21
-43.6931
0
LINE
8
BLACK
6
CONTINUOUS
10
201.609
20
-43.6931
11
201.556
21
-43.4541
0
LINE
8
BLACK
6
CONTINUOUS
10
201.556
20
-43.4541
11
201.544
21
-43.246
0
LINE
8
BLACK
6
CONTINUOUS
10
201.544
20
-43.246
11
201.541
21
-43.2095
0
LINE
8
BLACK
6
CONTINUOUS
10
201.541
20
-43.2095
11
201.567
21
-42.9659
0
LINE
8
BLACK
6
CONTINUOUS
10
201.767
20
-43.7078
11
201.867
21
-43.9211
0
LINE
8
BLACK
6
CONTINUOUS
10
201.867
20
-43.9211
11
202.002
21
-44.1138
0
LINE
8
BLACK
6
CONTINUOUS
10
202.002
20
-44.1138
11
202.168
21
-44.2802
0
LINE
8
BLACK
6
CONTINUOUS
10
202.168
20
-44.2802
11
202.361
21
-44.4152
0
LINE
8
BLACK
6
CONTINUOUS
10
202.361
20
-44.4152
11
202.574
21
-44.5147
0
LINE
8
BLACK
6
CONTINUOUS
10
202.574
20
-44.5147
11
202.801
21
-44.5756
0
LINE
8
BLACK
6
CONTINUOUS
10
202.801
20
-44.5756
11
203.036
21
-44.5961
0
LINE
8
BLACK
6
CONTINUOUS
10
203.036
20
-44.5961
11
203.27
21
-44.5756
0
LINE
8
BLACK
6
CONTINUOUS
10
203.27
20
-44.5756
11
203.498
21
-44.5147
0
LINE
8
BLACK
6
CONTINUOUS
10
203.498
20
-44.5147
11
203.711
21
-44.4152
0
LINE
8
BLACK
6
CONTINUOUS
10
203.711
20
-44.4152
11
203.904
21
-44.2802
0
LINE
8
BLACK
6
CONTINUOUS
10
203.904
20
-44.2802
11
204.07
21
-44.1138
0
LINE
8
BLACK
6
CONTINUOUS
10
204.07
20
-44.1138
11
204.205
21
-43.9211
0
LINE
8
BLACK
6
CONTINUOUS
10
204.205
20
-43.9211
11
204.304
21
-43.7078
0
LINE
8
BLACK
6
CONTINUOUS
10
204.304
20
-43.7078
11
204.365
21
-43.4805
0
LINE
8
BLACK
6
CONTINUOUS
10
204.365
20
-43.4805
11
204.386
21
-43.246
0
LINE
8
BLACK
6
CONTINUOUS
10
204.386
20
-43.246
11
204.365
21
-43.0116
0
LINE
8
BLACK
6
CONTINUOUS
10
204.365
20
-43.0116
11
204.304
21
-42.7843
0
LINE
8
BLACK
6
CONTINUOUS
10
204.304
20
-42.7843
11
204.205
21
-42.571
0
LINE
8
BLACK
6
CONTINUOUS
10
204.205
20
-42.571
11
204.07
21
-42.3783
0
LINE
8
BLACK
6
CONTINUOUS
10
204.07
20
-42.3783
11
203.904
21
-42.2119
0
LINE
8
BLACK
6
CONTINUOUS
10
203.904
20
-42.2119
11
203.711
21
-42.0769
0
LINE
8
BLACK
6
CONTINUOUS
10
203.711
20
-42.0769
11
203.498
21
-41.9774
0
LINE
8
BLACK
6
CONTINUOUS
10
203.498
20
-41.9774
11
203.27
21
-41.9165
0
LINE
8
BLACK
6
CONTINUOUS
10
203.27
20
-41.9165
11
203.036
21
-41.896
0
LINE
8
BLACK
6
CONTINUOUS
10
203.036
20
-41.896
11
202.801
21
-41.9165
0
LINE
8
BLACK
6
CONTINUOUS
10
202.801
20
-41.9165
11
202.574
21
-41.9774
0
LINE
8
BLACK
6
CONTINUOUS
10
202.574
20
-41.9774
11
202.361
21
-42.0769
0
LINE
8
BLACK
6
CONTINUOUS
10
202.361
20
-42.0769
11
202.168
21
-42.2119
0
LINE
8
BLACK
6
CONTINUOUS
10
202.168
20
-42.2119
11
202.002
21
-42.3783
0
LINE
8
BLACK
6
CONTINUOUS
10
202.002
20
-42.3783
11
201.867
21
-42.571
0
LINE
8
BLACK
6
CONTINUOUS
10
201.867
20
-42.571
11
201.767
21
-42.7843
0
LINE
8
BLACK
6
CONTINUOUS
10
201.767
20
-42.7843
11
201.706
21
-43.0116
0
LINE
8
BLACK
6
CONTINUOUS
10
201.706
20
-43.0116
11
201.686
21
-43.246
0
LINE
8
BLACK
6
CONTINUOUS
10
201.686
20
-43.246
11
201.706
21
-43.4805
0
LINE
8
BLACK
6
CONTINUOUS
10
201.706
20
-43.4805
11
201.767
21
-43.7078
  0
ENDSEC
  0
EOF
