%TF.GenerationSoftware,KiCad,Pcbnew,(6.0.4)*%
%TF.CreationDate,2022-05-29T19:49:35+02:00*%
%TF.ProjectId,Central Heating Control PBA,43656e74-7261-46c2-9048-656174696e67,2.1*%
%TF.SameCoordinates,Original*%
%TF.FileFunction,Copper,L2,Bot*%
%TF.FilePolarity,Positive*%
%FSLAX46Y46*%
G04 Gerber Fmt 4.6, Leading zero omitted, Abs format (unit mm)*
G04 Created by KiCad (PCBNEW (6.0.4)) date 2022-05-29 19:49:35*
%MOMM*%
%LPD*%
G01*
G04 APERTURE LIST*
%ADD10C,0.100000*%
%ADD11C,0.150000*%
%ADD12C,0.300000*%
%ADD13C,0.400000*%
%TA.AperFunction,Profile*%
%ADD14C,0.150000*%
%TD*%
%TA.AperFunction,NonConductor*%
%ADD15C,0.300000*%
%TD*%
%TA.AperFunction,ComponentPad*%
%ADD16C,3.000000*%
%TD*%
%TA.AperFunction,ComponentPad*%
%ADD17R,1.800000X1.800000*%
%TD*%
%TA.AperFunction,ComponentPad*%
%ADD18C,1.800000*%
%TD*%
%TA.AperFunction,ComponentPad*%
%ADD19R,2.500000X2.500000*%
%TD*%
%TA.AperFunction,ComponentPad*%
%ADD20C,2.500000*%
%TD*%
%TA.AperFunction,ComponentPad*%
%ADD21R,1.600000X2.400000*%
%TD*%
%TA.AperFunction,ComponentPad*%
%ADD22O,1.600000X2.400000*%
%TD*%
%TA.AperFunction,ComponentPad*%
%ADD23C,1.600000*%
%TD*%
%TA.AperFunction,ComponentPad*%
%ADD24O,1.600000X1.600000*%
%TD*%
%TA.AperFunction,ComponentPad*%
%ADD25R,1.905000X2.000000*%
%TD*%
%TA.AperFunction,ComponentPad*%
%ADD26O,1.905000X2.000000*%
%TD*%
%TA.AperFunction,ComponentPad*%
%ADD27C,2.400000*%
%TD*%
%TA.AperFunction,ComponentPad*%
%ADD28R,1.700000X1.700000*%
%TD*%
%TA.AperFunction,ComponentPad*%
%ADD29O,1.700000X1.700000*%
%TD*%
%TA.AperFunction,ComponentPad*%
%ADD30C,1.900000*%
%TD*%
%TA.AperFunction,ComponentPad*%
%ADD31R,2.600000X2.600000*%
%TD*%
%TA.AperFunction,ComponentPad*%
%ADD32C,2.600000*%
%TD*%
%TA.AperFunction,ComponentPad*%
%ADD33R,1.500000X1.500000*%
%TD*%
%TA.AperFunction,ComponentPad*%
%ADD34C,1.500000*%
%TD*%
%TA.AperFunction,ComponentPad*%
%ADD35R,1.800000X1.050000*%
%TD*%
%TA.AperFunction,ComponentPad*%
%ADD36O,1.800000X1.050000*%
%TD*%
%TA.AperFunction,ComponentPad*%
%ADD37C,2.300000*%
%TD*%
%TA.AperFunction,ComponentPad*%
%ADD38R,1.524000X1.524000*%
%TD*%
%TA.AperFunction,ComponentPad*%
%ADD39C,1.524000*%
%TD*%
%TA.AperFunction,ComponentPad*%
%ADD40R,2.300000X2.000000*%
%TD*%
%TA.AperFunction,ViaPad*%
%ADD41C,0.600000*%
%TD*%
%TA.AperFunction,Conductor*%
%ADD42C,1.600000*%
%TD*%
%TA.AperFunction,Conductor*%
%ADD43C,2.000000*%
%TD*%
%TA.AperFunction,Conductor*%
%ADD44C,1.200000*%
%TD*%
%TA.AperFunction,Conductor*%
%ADD45C,0.800000*%
%TD*%
%TA.AperFunction,Conductor*%
%ADD46C,1.500000*%
%TD*%
%TA.AperFunction,Conductor*%
%ADD47C,0.500000*%
%TD*%
G04 APERTURE END LIST*
D10*
D11*
X177002200Y-166007200D02*
X177002200Y-198007200D01*
X285002200Y-198007200D01*
X285002200Y-166007200D01*
X177002200Y-166007200D01*
D10*
D11*
X10000000Y-10000000D02*
X10000000Y-200007200D01*
X287002200Y-200007200D01*
X287002200Y-10000000D01*
X10000000Y-10000000D01*
D10*
D11*
X12000000Y-12000000D02*
X12000000Y-198007200D01*
X285002200Y-198007200D01*
X285002200Y-12000000D01*
X12000000Y-12000000D01*
D10*
D11*
X60000000Y-12000000D02*
X60000000Y-10000000D01*
D10*
D11*
X110000000Y-12000000D02*
X110000000Y-10000000D01*
D10*
D11*
X160000000Y-12000000D02*
X160000000Y-10000000D01*
D10*
D11*
X210000000Y-12000000D02*
X210000000Y-10000000D01*
D10*
D11*
X260000000Y-12000000D02*
X260000000Y-10000000D01*
D10*
D11*
X36065476Y-11588095D02*
X35322619Y-11588095D01*
X35694047Y-11588095D02*
X35694047Y-10288095D01*
X35570238Y-10473809D01*
X35446428Y-10597619D01*
X35322619Y-10659523D01*
D10*
D11*
X85322619Y-10411904D02*
X85384523Y-10350000D01*
X85508333Y-10288095D01*
X85817857Y-10288095D01*
X85941666Y-10350000D01*
X86003571Y-10411904D01*
X86065476Y-10535714D01*
X86065476Y-10659523D01*
X86003571Y-10845238D01*
X85260714Y-11588095D01*
X86065476Y-11588095D01*
D10*
D11*
X135260714Y-10288095D02*
X136065476Y-10288095D01*
X135632142Y-10783333D01*
X135817857Y-10783333D01*
X135941666Y-10845238D01*
X136003571Y-10907142D01*
X136065476Y-11030952D01*
X136065476Y-11340476D01*
X136003571Y-11464285D01*
X135941666Y-11526190D01*
X135817857Y-11588095D01*
X135446428Y-11588095D01*
X135322619Y-11526190D01*
X135260714Y-11464285D01*
D10*
D11*
X185941666Y-10721428D02*
X185941666Y-11588095D01*
X185632142Y-10226190D02*
X185322619Y-11154761D01*
X186127380Y-11154761D01*
D10*
D11*
X236003571Y-10288095D02*
X235384523Y-10288095D01*
X235322619Y-10907142D01*
X235384523Y-10845238D01*
X235508333Y-10783333D01*
X235817857Y-10783333D01*
X235941666Y-10845238D01*
X236003571Y-10907142D01*
X236065476Y-11030952D01*
X236065476Y-11340476D01*
X236003571Y-11464285D01*
X235941666Y-11526190D01*
X235817857Y-11588095D01*
X235508333Y-11588095D01*
X235384523Y-11526190D01*
X235322619Y-11464285D01*
D10*
D11*
X285941666Y-10288095D02*
X285694047Y-10288095D01*
X285570238Y-10350000D01*
X285508333Y-10411904D01*
X285384523Y-10597619D01*
X285322619Y-10845238D01*
X285322619Y-11340476D01*
X285384523Y-11464285D01*
X285446428Y-11526190D01*
X285570238Y-11588095D01*
X285817857Y-11588095D01*
X285941666Y-11526190D01*
X286003571Y-11464285D01*
X286065476Y-11340476D01*
X286065476Y-11030952D01*
X286003571Y-10907142D01*
X285941666Y-10845238D01*
X285817857Y-10783333D01*
X285570238Y-10783333D01*
X285446428Y-10845238D01*
X285384523Y-10907142D01*
X285322619Y-11030952D01*
D10*
D11*
X60000000Y-198007200D02*
X60000000Y-200007200D01*
D10*
D11*
X110000000Y-198007200D02*
X110000000Y-200007200D01*
D10*
D11*
X160000000Y-198007200D02*
X160000000Y-200007200D01*
D10*
D11*
X210000000Y-198007200D02*
X210000000Y-200007200D01*
D10*
D11*
X260000000Y-198007200D02*
X260000000Y-200007200D01*
D10*
D11*
X36065476Y-199595295D02*
X35322619Y-199595295D01*
X35694047Y-199595295D02*
X35694047Y-198295295D01*
X35570238Y-198481009D01*
X35446428Y-198604819D01*
X35322619Y-198666723D01*
D10*
D11*
X85322619Y-198419104D02*
X85384523Y-198357200D01*
X85508333Y-198295295D01*
X85817857Y-198295295D01*
X85941666Y-198357200D01*
X86003571Y-198419104D01*
X86065476Y-198542914D01*
X86065476Y-198666723D01*
X86003571Y-198852438D01*
X85260714Y-199595295D01*
X86065476Y-199595295D01*
D10*
D11*
X135260714Y-198295295D02*
X136065476Y-198295295D01*
X135632142Y-198790533D01*
X135817857Y-198790533D01*
X135941666Y-198852438D01*
X136003571Y-198914342D01*
X136065476Y-199038152D01*
X136065476Y-199347676D01*
X136003571Y-199471485D01*
X135941666Y-199533390D01*
X135817857Y-199595295D01*
X135446428Y-199595295D01*
X135322619Y-199533390D01*
X135260714Y-199471485D01*
D10*
D11*
X185941666Y-198728628D02*
X185941666Y-199595295D01*
X185632142Y-198233390D02*
X185322619Y-199161961D01*
X186127380Y-199161961D01*
D10*
D11*
X236003571Y-198295295D02*
X235384523Y-198295295D01*
X235322619Y-198914342D01*
X235384523Y-198852438D01*
X235508333Y-198790533D01*
X235817857Y-198790533D01*
X235941666Y-198852438D01*
X236003571Y-198914342D01*
X236065476Y-199038152D01*
X236065476Y-199347676D01*
X236003571Y-199471485D01*
X235941666Y-199533390D01*
X235817857Y-199595295D01*
X235508333Y-199595295D01*
X235384523Y-199533390D01*
X235322619Y-199471485D01*
D10*
D11*
X285941666Y-198295295D02*
X285694047Y-198295295D01*
X285570238Y-198357200D01*
X285508333Y-198419104D01*
X285384523Y-198604819D01*
X285322619Y-198852438D01*
X285322619Y-199347676D01*
X285384523Y-199471485D01*
X285446428Y-199533390D01*
X285570238Y-199595295D01*
X285817857Y-199595295D01*
X285941666Y-199533390D01*
X286003571Y-199471485D01*
X286065476Y-199347676D01*
X286065476Y-199038152D01*
X286003571Y-198914342D01*
X285941666Y-198852438D01*
X285817857Y-198790533D01*
X285570238Y-198790533D01*
X285446428Y-198852438D01*
X285384523Y-198914342D01*
X285322619Y-199038152D01*
D10*
D11*
X10000000Y-60000000D02*
X12000000Y-60000000D01*
D10*
D11*
X10000000Y-110000000D02*
X12000000Y-110000000D01*
D10*
D11*
X10000000Y-160000000D02*
X12000000Y-160000000D01*
D10*
D11*
X10690476Y-35216666D02*
X11309523Y-35216666D01*
X10566666Y-35588095D02*
X11000000Y-34288095D01*
X11433333Y-35588095D01*
D10*
D11*
X11092857Y-84907142D02*
X11278571Y-84969047D01*
X11340476Y-85030952D01*
X11402380Y-85154761D01*
X11402380Y-85340476D01*
X11340476Y-85464285D01*
X11278571Y-85526190D01*
X11154761Y-85588095D01*
X10659523Y-85588095D01*
X10659523Y-84288095D01*
X11092857Y-84288095D01*
X11216666Y-84350000D01*
X11278571Y-84411904D01*
X11340476Y-84535714D01*
X11340476Y-84659523D01*
X11278571Y-84783333D01*
X11216666Y-84845238D01*
X11092857Y-84907142D01*
X10659523Y-84907142D01*
D10*
D11*
X11402380Y-135464285D02*
X11340476Y-135526190D01*
X11154761Y-135588095D01*
X11030952Y-135588095D01*
X10845238Y-135526190D01*
X10721428Y-135402380D01*
X10659523Y-135278571D01*
X10597619Y-135030952D01*
X10597619Y-134845238D01*
X10659523Y-134597619D01*
X10721428Y-134473809D01*
X10845238Y-134350000D01*
X11030952Y-134288095D01*
X11154761Y-134288095D01*
X11340476Y-134350000D01*
X11402380Y-134411904D01*
D10*
D11*
X10659523Y-185588095D02*
X10659523Y-184288095D01*
X10969047Y-184288095D01*
X11154761Y-184350000D01*
X11278571Y-184473809D01*
X11340476Y-184597619D01*
X11402380Y-184845238D01*
X11402380Y-185030952D01*
X11340476Y-185278571D01*
X11278571Y-185402380D01*
X11154761Y-185526190D01*
X10969047Y-185588095D01*
X10659523Y-185588095D01*
D10*
D11*
X287002200Y-60000000D02*
X285002200Y-60000000D01*
D10*
D11*
X287002200Y-110000000D02*
X285002200Y-110000000D01*
D10*
D11*
X287002200Y-160000000D02*
X285002200Y-160000000D01*
D10*
D11*
X285692676Y-35216666D02*
X286311723Y-35216666D01*
X285568866Y-35588095D02*
X286002200Y-34288095D01*
X286435533Y-35588095D01*
D10*
D11*
X286095057Y-84907142D02*
X286280771Y-84969047D01*
X286342676Y-85030952D01*
X286404580Y-85154761D01*
X286404580Y-85340476D01*
X286342676Y-85464285D01*
X286280771Y-85526190D01*
X286156961Y-85588095D01*
X285661723Y-85588095D01*
X285661723Y-84288095D01*
X286095057Y-84288095D01*
X286218866Y-84350000D01*
X286280771Y-84411904D01*
X286342676Y-84535714D01*
X286342676Y-84659523D01*
X286280771Y-84783333D01*
X286218866Y-84845238D01*
X286095057Y-84907142D01*
X285661723Y-84907142D01*
D10*
D11*
X286404580Y-135464285D02*
X286342676Y-135526190D01*
X286156961Y-135588095D01*
X286033152Y-135588095D01*
X285847438Y-135526190D01*
X285723628Y-135402380D01*
X285661723Y-135278571D01*
X285599819Y-135030952D01*
X285599819Y-134845238D01*
X285661723Y-134597619D01*
X285723628Y-134473809D01*
X285847438Y-134350000D01*
X286033152Y-134288095D01*
X286156961Y-134288095D01*
X286342676Y-134350000D01*
X286404580Y-134411904D01*
D10*
D11*
X285661723Y-185588095D02*
X285661723Y-184288095D01*
X285971247Y-184288095D01*
X286156961Y-184350000D01*
X286280771Y-184473809D01*
X286342676Y-184597619D01*
X286404580Y-184845238D01*
X286404580Y-185030952D01*
X286342676Y-185278571D01*
X286280771Y-185402380D01*
X286156961Y-185526190D01*
X285971247Y-185588095D01*
X285661723Y-185588095D01*
D10*
D11*
X200434342Y-193785771D02*
X200434342Y-192285771D01*
X200791485Y-192285771D01*
X201005771Y-192357200D01*
X201148628Y-192500057D01*
X201220057Y-192642914D01*
X201291485Y-192928628D01*
X201291485Y-193142914D01*
X201220057Y-193428628D01*
X201148628Y-193571485D01*
X201005771Y-193714342D01*
X200791485Y-193785771D01*
X200434342Y-193785771D01*
X202577200Y-193785771D02*
X202577200Y-193000057D01*
X202505771Y-192857200D01*
X202362914Y-192785771D01*
X202077200Y-192785771D01*
X201934342Y-192857200D01*
X202577200Y-193714342D02*
X202434342Y-193785771D01*
X202077200Y-193785771D01*
X201934342Y-193714342D01*
X201862914Y-193571485D01*
X201862914Y-193428628D01*
X201934342Y-193285771D01*
X202077200Y-193214342D01*
X202434342Y-193214342D01*
X202577200Y-193142914D01*
X203077200Y-192785771D02*
X203648628Y-192785771D01*
X203291485Y-192285771D02*
X203291485Y-193571485D01*
X203362914Y-193714342D01*
X203505771Y-193785771D01*
X203648628Y-193785771D01*
X204720057Y-193714342D02*
X204577200Y-193785771D01*
X204291485Y-193785771D01*
X204148628Y-193714342D01*
X204077200Y-193571485D01*
X204077200Y-193000057D01*
X204148628Y-192857200D01*
X204291485Y-192785771D01*
X204577200Y-192785771D01*
X204720057Y-192857200D01*
X204791485Y-193000057D01*
X204791485Y-193142914D01*
X204077200Y-193285771D01*
X205434342Y-193642914D02*
X205505771Y-193714342D01*
X205434342Y-193785771D01*
X205362914Y-193714342D01*
X205434342Y-193642914D01*
X205434342Y-193785771D01*
X205434342Y-192857200D02*
X205505771Y-192928628D01*
X205434342Y-193000057D01*
X205362914Y-192928628D01*
X205434342Y-192857200D01*
X205434342Y-193000057D01*
X207220057Y-192428628D02*
X207291485Y-192357200D01*
X207434342Y-192285771D01*
X207791485Y-192285771D01*
X207934342Y-192357200D01*
X208005771Y-192428628D01*
X208077200Y-192571485D01*
X208077200Y-192714342D01*
X208005771Y-192928628D01*
X207148628Y-193785771D01*
X208077200Y-193785771D01*
X209005771Y-192285771D02*
X209148628Y-192285771D01*
X209291485Y-192357200D01*
X209362914Y-192428628D01*
X209434342Y-192571485D01*
X209505771Y-192857200D01*
X209505771Y-193214342D01*
X209434342Y-193500057D01*
X209362914Y-193642914D01*
X209291485Y-193714342D01*
X209148628Y-193785771D01*
X209005771Y-193785771D01*
X208862914Y-193714342D01*
X208791485Y-193642914D01*
X208720057Y-193500057D01*
X208648628Y-193214342D01*
X208648628Y-192857200D01*
X208720057Y-192571485D01*
X208791485Y-192428628D01*
X208862914Y-192357200D01*
X209005771Y-192285771D01*
X210077200Y-192428628D02*
X210148628Y-192357200D01*
X210291485Y-192285771D01*
X210648628Y-192285771D01*
X210791485Y-192357200D01*
X210862914Y-192428628D01*
X210934342Y-192571485D01*
X210934342Y-192714342D01*
X210862914Y-192928628D01*
X210005771Y-193785771D01*
X210934342Y-193785771D01*
X211505771Y-192428628D02*
X211577200Y-192357200D01*
X211720057Y-192285771D01*
X212077200Y-192285771D01*
X212220057Y-192357200D01*
X212291485Y-192428628D01*
X212362914Y-192571485D01*
X212362914Y-192714342D01*
X212291485Y-192928628D01*
X211434342Y-193785771D01*
X212362914Y-193785771D01*
X213005771Y-193214342D02*
X214148628Y-193214342D01*
X215148628Y-192285771D02*
X215291485Y-192285771D01*
X215434342Y-192357200D01*
X215505771Y-192428628D01*
X215577200Y-192571485D01*
X215648628Y-192857200D01*
X215648628Y-193214342D01*
X215577200Y-193500057D01*
X215505771Y-193642914D01*
X215434342Y-193714342D01*
X215291485Y-193785771D01*
X215148628Y-193785771D01*
X215005771Y-193714342D01*
X214934342Y-193642914D01*
X214862914Y-193500057D01*
X214791485Y-193214342D01*
X214791485Y-192857200D01*
X214862914Y-192571485D01*
X214934342Y-192428628D01*
X215005771Y-192357200D01*
X215148628Y-192285771D01*
X217005771Y-192285771D02*
X216291485Y-192285771D01*
X216220057Y-193000057D01*
X216291485Y-192928628D01*
X216434342Y-192857200D01*
X216791485Y-192857200D01*
X216934342Y-192928628D01*
X217005771Y-193000057D01*
X217077200Y-193142914D01*
X217077200Y-193500057D01*
X217005771Y-193642914D01*
X216934342Y-193714342D01*
X216791485Y-193785771D01*
X216434342Y-193785771D01*
X216291485Y-193714342D01*
X216220057Y-193642914D01*
X217720057Y-193214342D02*
X218862914Y-193214342D01*
X219862914Y-192285771D02*
X220005771Y-192285771D01*
X220148628Y-192357200D01*
X220220057Y-192428628D01*
X220291485Y-192571485D01*
X220362914Y-192857200D01*
X220362914Y-193214342D01*
X220291485Y-193500057D01*
X220220057Y-193642914D01*
X220148628Y-193714342D01*
X220005771Y-193785771D01*
X219862914Y-193785771D01*
X219720057Y-193714342D01*
X219648628Y-193642914D01*
X219577200Y-193500057D01*
X219505771Y-193214342D01*
X219505771Y-192857200D01*
X219577200Y-192571485D01*
X219648628Y-192428628D01*
X219720057Y-192357200D01*
X219862914Y-192285771D01*
X220862914Y-192285771D02*
X221862914Y-192285771D01*
X221220057Y-193785771D01*
D10*
D11*
X177002200Y-194507200D02*
X285002200Y-194507200D01*
D10*
D11*
X178434342Y-196585771D02*
X178434342Y-195085771D01*
X179291485Y-196585771D02*
X178648628Y-195728628D01*
X179291485Y-195085771D02*
X178434342Y-195942914D01*
X179934342Y-196585771D02*
X179934342Y-195585771D01*
X179934342Y-195085771D02*
X179862914Y-195157200D01*
X179934342Y-195228628D01*
X180005771Y-195157200D01*
X179934342Y-195085771D01*
X179934342Y-195228628D01*
X181505771Y-196442914D02*
X181434342Y-196514342D01*
X181220057Y-196585771D01*
X181077200Y-196585771D01*
X180862914Y-196514342D01*
X180720057Y-196371485D01*
X180648628Y-196228628D01*
X180577200Y-195942914D01*
X180577200Y-195728628D01*
X180648628Y-195442914D01*
X180720057Y-195300057D01*
X180862914Y-195157200D01*
X181077200Y-195085771D01*
X181220057Y-195085771D01*
X181434342Y-195157200D01*
X181505771Y-195228628D01*
X182791485Y-196585771D02*
X182791485Y-195800057D01*
X182720057Y-195657200D01*
X182577200Y-195585771D01*
X182291485Y-195585771D01*
X182148628Y-195657200D01*
X182791485Y-196514342D02*
X182648628Y-196585771D01*
X182291485Y-196585771D01*
X182148628Y-196514342D01*
X182077200Y-196371485D01*
X182077200Y-196228628D01*
X182148628Y-196085771D01*
X182291485Y-196014342D01*
X182648628Y-196014342D01*
X182791485Y-195942914D01*
X184148628Y-196585771D02*
X184148628Y-195085771D01*
X184148628Y-196514342D02*
X184005771Y-196585771D01*
X183720057Y-196585771D01*
X183577200Y-196514342D01*
X183505771Y-196442914D01*
X183434342Y-196300057D01*
X183434342Y-195871485D01*
X183505771Y-195728628D01*
X183577200Y-195657200D01*
X183720057Y-195585771D01*
X184005771Y-195585771D01*
X184148628Y-195657200D01*
X186005771Y-195800057D02*
X186505771Y-195800057D01*
X186720057Y-196585771D02*
X186005771Y-196585771D01*
X186005771Y-195085771D01*
X186720057Y-195085771D01*
X187362914Y-196442914D02*
X187434342Y-196514342D01*
X187362914Y-196585771D01*
X187291485Y-196514342D01*
X187362914Y-196442914D01*
X187362914Y-196585771D01*
X188077200Y-196585771D02*
X188077200Y-195085771D01*
X188434342Y-195085771D01*
X188648628Y-195157200D01*
X188791485Y-195300057D01*
X188862914Y-195442914D01*
X188934342Y-195728628D01*
X188934342Y-195942914D01*
X188862914Y-196228628D01*
X188791485Y-196371485D01*
X188648628Y-196514342D01*
X188434342Y-196585771D01*
X188077200Y-196585771D01*
X189577200Y-196442914D02*
X189648628Y-196514342D01*
X189577200Y-196585771D01*
X189505771Y-196514342D01*
X189577200Y-196442914D01*
X189577200Y-196585771D01*
X190220057Y-196157200D02*
X190934342Y-196157200D01*
X190077200Y-196585771D02*
X190577200Y-195085771D01*
X191077200Y-196585771D01*
X191577200Y-196442914D02*
X191648628Y-196514342D01*
X191577200Y-196585771D01*
X191505771Y-196514342D01*
X191577200Y-196442914D01*
X191577200Y-196585771D01*
X194577200Y-196585771D02*
X194577200Y-195085771D01*
X194720057Y-196014342D02*
X195148628Y-196585771D01*
X195148628Y-195585771D02*
X194577200Y-196157200D01*
X195791485Y-196585771D02*
X195791485Y-195585771D01*
X195791485Y-195085771D02*
X195720057Y-195157200D01*
X195791485Y-195228628D01*
X195862914Y-195157200D01*
X195791485Y-195085771D01*
X195791485Y-195228628D01*
X197148628Y-196514342D02*
X197005771Y-196585771D01*
X196720057Y-196585771D01*
X196577200Y-196514342D01*
X196505771Y-196442914D01*
X196434342Y-196300057D01*
X196434342Y-195871485D01*
X196505771Y-195728628D01*
X196577200Y-195657200D01*
X196720057Y-195585771D01*
X197005771Y-195585771D01*
X197148628Y-195657200D01*
X198434342Y-196585771D02*
X198434342Y-195800057D01*
X198362914Y-195657200D01*
X198220057Y-195585771D01*
X197934342Y-195585771D01*
X197791485Y-195657200D01*
X198434342Y-196514342D02*
X198291485Y-196585771D01*
X197934342Y-196585771D01*
X197791485Y-196514342D01*
X197720057Y-196371485D01*
X197720057Y-196228628D01*
X197791485Y-196085771D01*
X197934342Y-196014342D01*
X198291485Y-196014342D01*
X198434342Y-195942914D01*
X199791485Y-196585771D02*
X199791485Y-195085771D01*
X199791485Y-196514342D02*
X199648628Y-196585771D01*
X199362914Y-196585771D01*
X199220057Y-196514342D01*
X199148628Y-196442914D01*
X199077200Y-196300057D01*
X199077200Y-195871485D01*
X199148628Y-195728628D01*
X199220057Y-195657200D01*
X199362914Y-195585771D01*
X199648628Y-195585771D01*
X199791485Y-195657200D01*
X202077200Y-197157200D02*
X202005771Y-197085771D01*
X201862914Y-196871485D01*
X201791485Y-196728628D01*
X201720057Y-196514342D01*
X201648628Y-196157200D01*
X201648628Y-195871485D01*
X201720057Y-195514342D01*
X201791485Y-195300057D01*
X201862914Y-195157200D01*
X202005771Y-194942914D01*
X202077200Y-194871485D01*
X203291485Y-195085771D02*
X203005771Y-195085771D01*
X202862914Y-195157200D01*
X202791485Y-195228628D01*
X202648628Y-195442914D01*
X202577200Y-195728628D01*
X202577200Y-196300057D01*
X202648628Y-196442914D01*
X202720057Y-196514342D01*
X202862914Y-196585771D01*
X203148628Y-196585771D01*
X203291485Y-196514342D01*
X203362914Y-196442914D01*
X203434342Y-196300057D01*
X203434342Y-195942914D01*
X203362914Y-195800057D01*
X203291485Y-195728628D01*
X203148628Y-195657200D01*
X202862914Y-195657200D01*
X202720057Y-195728628D01*
X202648628Y-195800057D01*
X202577200Y-195942914D01*
X204077200Y-196442914D02*
X204148628Y-196514342D01*
X204077200Y-196585771D01*
X204005771Y-196514342D01*
X204077200Y-196442914D01*
X204077200Y-196585771D01*
X205077200Y-195085771D02*
X205220057Y-195085771D01*
X205362914Y-195157200D01*
X205434342Y-195228628D01*
X205505771Y-195371485D01*
X205577200Y-195657200D01*
X205577200Y-196014342D01*
X205505771Y-196300057D01*
X205434342Y-196442914D01*
X205362914Y-196514342D01*
X205220057Y-196585771D01*
X205077200Y-196585771D01*
X204934342Y-196514342D01*
X204862914Y-196442914D01*
X204791485Y-196300057D01*
X204720057Y-196014342D01*
X204720057Y-195657200D01*
X204791485Y-195371485D01*
X204862914Y-195228628D01*
X204934342Y-195157200D01*
X205077200Y-195085771D01*
X206220057Y-196442914D02*
X206291485Y-196514342D01*
X206220057Y-196585771D01*
X206148628Y-196514342D01*
X206220057Y-196442914D01*
X206220057Y-196585771D01*
X207577200Y-195585771D02*
X207577200Y-196585771D01*
X207220057Y-195014342D02*
X206862914Y-196085771D01*
X207791485Y-196085771D01*
X208220057Y-197157200D02*
X208291485Y-197085771D01*
X208434342Y-196871485D01*
X208505771Y-196728628D01*
X208577200Y-196514342D01*
X208648628Y-196157200D01*
X208648628Y-195871485D01*
X208577200Y-195514342D01*
X208505771Y-195300057D01*
X208434342Y-195157200D01*
X208291485Y-194942914D01*
X208220057Y-194871485D01*
D10*
D11*
X177002200Y-191507200D02*
X285002200Y-191507200D01*
D10*
D12*
X264411485Y-193785771D02*
X263911485Y-193071485D01*
X263554342Y-193785771D02*
X263554342Y-192285771D01*
X264125771Y-192285771D01*
X264268628Y-192357200D01*
X264340057Y-192428628D01*
X264411485Y-192571485D01*
X264411485Y-192785771D01*
X264340057Y-192928628D01*
X264268628Y-193000057D01*
X264125771Y-193071485D01*
X263554342Y-193071485D01*
X265625771Y-193714342D02*
X265482914Y-193785771D01*
X265197200Y-193785771D01*
X265054342Y-193714342D01*
X264982914Y-193571485D01*
X264982914Y-193000057D01*
X265054342Y-192857200D01*
X265197200Y-192785771D01*
X265482914Y-192785771D01*
X265625771Y-192857200D01*
X265697200Y-193000057D01*
X265697200Y-193142914D01*
X264982914Y-193285771D01*
X266197200Y-192785771D02*
X266554342Y-193785771D01*
X266911485Y-192785771D01*
X267482914Y-193642914D02*
X267554342Y-193714342D01*
X267482914Y-193785771D01*
X267411485Y-193714342D01*
X267482914Y-193642914D01*
X267482914Y-193785771D01*
X267482914Y-192857200D02*
X267554342Y-192928628D01*
X267482914Y-193000057D01*
X267411485Y-192928628D01*
X267482914Y-192857200D01*
X267482914Y-193000057D01*
X269268628Y-192428628D02*
X269340057Y-192357200D01*
X269482914Y-192285771D01*
X269840057Y-192285771D01*
X269982914Y-192357200D01*
X270054342Y-192428628D01*
X270125771Y-192571485D01*
X270125771Y-192714342D01*
X270054342Y-192928628D01*
X269197200Y-193785771D01*
X270125771Y-193785771D01*
X270768628Y-193642914D02*
X270840057Y-193714342D01*
X270768628Y-193785771D01*
X270697200Y-193714342D01*
X270768628Y-193642914D01*
X270768628Y-193785771D01*
X272268628Y-193785771D02*
X271411485Y-193785771D01*
X271840057Y-193785771D02*
X271840057Y-192285771D01*
X271697200Y-192500057D01*
X271554342Y-192642914D01*
X271411485Y-192714342D01*
D10*
D11*
X178362914Y-193714342D02*
X178577200Y-193785771D01*
X178934342Y-193785771D01*
X179077200Y-193714342D01*
X179148628Y-193642914D01*
X179220057Y-193500057D01*
X179220057Y-193357200D01*
X179148628Y-193214342D01*
X179077200Y-193142914D01*
X178934342Y-193071485D01*
X178648628Y-193000057D01*
X178505771Y-192928628D01*
X178434342Y-192857200D01*
X178362914Y-192714342D01*
X178362914Y-192571485D01*
X178434342Y-192428628D01*
X178505771Y-192357200D01*
X178648628Y-192285771D01*
X179005771Y-192285771D01*
X179220057Y-192357200D01*
X179862914Y-193785771D02*
X179862914Y-192785771D01*
X179862914Y-192285771D02*
X179791485Y-192357200D01*
X179862914Y-192428628D01*
X179934342Y-192357200D01*
X179862914Y-192285771D01*
X179862914Y-192428628D01*
X180434342Y-192785771D02*
X181220057Y-192785771D01*
X180434342Y-193785771D01*
X181220057Y-193785771D01*
X182362914Y-193714342D02*
X182220057Y-193785771D01*
X181934342Y-193785771D01*
X181791485Y-193714342D01*
X181720057Y-193571485D01*
X181720057Y-193000057D01*
X181791485Y-192857200D01*
X181934342Y-192785771D01*
X182220057Y-192785771D01*
X182362914Y-192857200D01*
X182434342Y-193000057D01*
X182434342Y-193142914D01*
X181720057Y-193285771D01*
X183077200Y-193642914D02*
X183148628Y-193714342D01*
X183077200Y-193785771D01*
X183005771Y-193714342D01*
X183077200Y-193642914D01*
X183077200Y-193785771D01*
X183077200Y-192857200D02*
X183148628Y-192928628D01*
X183077200Y-193000057D01*
X183005771Y-192928628D01*
X183077200Y-192857200D01*
X183077200Y-193000057D01*
X184862914Y-193357200D02*
X185577200Y-193357200D01*
X184720057Y-193785771D02*
X185220057Y-192285771D01*
X185720057Y-193785771D01*
X186862914Y-192785771D02*
X186862914Y-193785771D01*
X186505771Y-192214342D02*
X186148628Y-193285771D01*
X187077200Y-193285771D01*
D10*
D11*
X263434342Y-196585771D02*
X263434342Y-195085771D01*
X264791485Y-196585771D02*
X264791485Y-195085771D01*
X264791485Y-196514342D02*
X264648628Y-196585771D01*
X264362914Y-196585771D01*
X264220057Y-196514342D01*
X264148628Y-196442914D01*
X264077200Y-196300057D01*
X264077200Y-195871485D01*
X264148628Y-195728628D01*
X264220057Y-195657200D01*
X264362914Y-195585771D01*
X264648628Y-195585771D01*
X264791485Y-195657200D01*
X265505771Y-196442914D02*
X265577200Y-196514342D01*
X265505771Y-196585771D01*
X265434342Y-196514342D01*
X265505771Y-196442914D01*
X265505771Y-196585771D01*
X265505771Y-195657200D02*
X265577200Y-195728628D01*
X265505771Y-195800057D01*
X265434342Y-195728628D01*
X265505771Y-195657200D01*
X265505771Y-195800057D01*
X268148628Y-196585771D02*
X267291485Y-196585771D01*
X267720057Y-196585771D02*
X267720057Y-195085771D01*
X267577200Y-195300057D01*
X267434342Y-195442914D01*
X267291485Y-195514342D01*
X269862914Y-195014342D02*
X268577200Y-196942914D01*
X271148628Y-196585771D02*
X270291485Y-196585771D01*
X270720057Y-196585771D02*
X270720057Y-195085771D01*
X270577200Y-195300057D01*
X270434342Y-195442914D01*
X270291485Y-195514342D01*
D10*
D11*
X177002200Y-187507200D02*
X285002200Y-187507200D01*
D10*
D13*
X178714580Y-188211961D02*
X179857438Y-188211961D01*
X179036009Y-190211961D02*
X179286009Y-188211961D01*
X180274104Y-190211961D02*
X180440771Y-188878628D01*
X180524104Y-188211961D02*
X180416961Y-188307200D01*
X180500295Y-188402438D01*
X180607438Y-188307200D01*
X180524104Y-188211961D01*
X180500295Y-188402438D01*
X181107438Y-188878628D02*
X181869342Y-188878628D01*
X181476485Y-188211961D02*
X181262200Y-189926247D01*
X181333628Y-190116723D01*
X181512200Y-190211961D01*
X181702676Y-190211961D01*
X182655057Y-190211961D02*
X182476485Y-190116723D01*
X182405057Y-189926247D01*
X182619342Y-188211961D01*
X184190771Y-190116723D02*
X183988390Y-190211961D01*
X183607438Y-190211961D01*
X183428866Y-190116723D01*
X183357438Y-189926247D01*
X183452676Y-189164342D01*
X183571723Y-188973866D01*
X183774104Y-188878628D01*
X184155057Y-188878628D01*
X184333628Y-188973866D01*
X184405057Y-189164342D01*
X184381247Y-189354819D01*
X183405057Y-189545295D01*
X185155057Y-190021485D02*
X185238390Y-190116723D01*
X185131247Y-190211961D01*
X185047914Y-190116723D01*
X185155057Y-190021485D01*
X185131247Y-190211961D01*
X185286009Y-188973866D02*
X185369342Y-189069104D01*
X185262200Y-189164342D01*
X185178866Y-189069104D01*
X185286009Y-188973866D01*
X185262200Y-189164342D01*
X187607438Y-190211961D02*
X187857438Y-188211961D01*
X188619342Y-188211961D01*
X188797914Y-188307200D01*
X188881247Y-188402438D01*
X188952676Y-188592914D01*
X188916961Y-188878628D01*
X188797914Y-189069104D01*
X188690771Y-189164342D01*
X188488390Y-189259580D01*
X187726485Y-189259580D01*
X189893152Y-190211961D02*
X189714580Y-190116723D01*
X189643152Y-189926247D01*
X189857438Y-188211961D01*
X190631247Y-188878628D02*
X190940771Y-190211961D01*
X191583628Y-188878628D02*
X190940771Y-190211961D01*
X190690771Y-190688152D01*
X190583628Y-190783390D01*
X190381247Y-190878628D01*
X192059819Y-188878628D02*
X192821723Y-188878628D01*
X192428866Y-188211961D02*
X192214580Y-189926247D01*
X192286009Y-190116723D01*
X192464580Y-190211961D01*
X192655057Y-190211961D01*
X194178866Y-190211961D02*
X194309819Y-189164342D01*
X194238390Y-188973866D01*
X194059819Y-188878628D01*
X193678866Y-188878628D01*
X193476485Y-188973866D01*
X194190771Y-190116723D02*
X193988390Y-190211961D01*
X193512200Y-190211961D01*
X193333628Y-190116723D01*
X193262200Y-189926247D01*
X193286009Y-189735771D01*
X193405057Y-189545295D01*
X193607438Y-189450057D01*
X194083628Y-189450057D01*
X194286009Y-189354819D01*
X196821723Y-188878628D02*
X196571723Y-190878628D01*
X196809819Y-188973866D02*
X197012200Y-188878628D01*
X197393152Y-188878628D01*
X197571723Y-188973866D01*
X197655057Y-189069104D01*
X197726485Y-189259580D01*
X197655057Y-189831009D01*
X197536009Y-190021485D01*
X197428866Y-190116723D01*
X197226485Y-190211961D01*
X196845533Y-190211961D01*
X196666961Y-190116723D01*
X198464580Y-190211961D02*
X198631247Y-188878628D01*
X198583628Y-189259580D02*
X198702676Y-189069104D01*
X198809819Y-188973866D01*
X199012200Y-188878628D01*
X199202676Y-188878628D01*
X199678866Y-188878628D02*
X200726485Y-188878628D01*
X199512200Y-190211961D01*
X200559819Y-190211961D01*
X202095533Y-190116723D02*
X201893152Y-190211961D01*
X201512200Y-190211961D01*
X201333628Y-190116723D01*
X201262200Y-189926247D01*
X201357438Y-189164342D01*
X201476485Y-188973866D01*
X201678866Y-188878628D01*
X202059819Y-188878628D01*
X202238390Y-188973866D01*
X202309819Y-189164342D01*
X202286009Y-189354819D01*
X201309819Y-189545295D01*
X203036009Y-190211961D02*
X203286009Y-188211961D01*
X203321723Y-189450057D02*
X203797914Y-190211961D01*
X203964580Y-188878628D02*
X203107438Y-189640533D01*
X205512200Y-190211961D02*
X205643152Y-189164342D01*
X205571723Y-188973866D01*
X205393152Y-188878628D01*
X205012200Y-188878628D01*
X204809819Y-188973866D01*
X205524104Y-190116723D02*
X205321723Y-190211961D01*
X204845533Y-190211961D01*
X204666961Y-190116723D01*
X204595533Y-189926247D01*
X204619342Y-189735771D01*
X204738390Y-189545295D01*
X204940771Y-189450057D01*
X205416961Y-189450057D01*
X205619342Y-189354819D01*
X206440771Y-188878628D02*
X207488390Y-188878628D01*
X206274104Y-190211961D01*
X207321723Y-190211961D01*
X208250295Y-188878628D02*
X208083628Y-190211961D01*
X208226485Y-189069104D02*
X208333628Y-188973866D01*
X208536009Y-188878628D01*
X208821723Y-188878628D01*
X209000295Y-188973866D01*
X209071723Y-189164342D01*
X208940771Y-190211961D01*
X209893152Y-190211961D02*
X210059819Y-188878628D01*
X210143152Y-188211961D02*
X210036009Y-188307200D01*
X210119342Y-188402438D01*
X210226485Y-188307200D01*
X210143152Y-188211961D01*
X210119342Y-188402438D01*
X210845533Y-190211961D02*
X211095533Y-188211961D01*
X211131247Y-189450057D02*
X211607438Y-190211961D01*
X211774104Y-188878628D02*
X210916961Y-189640533D01*
X212750295Y-190211961D02*
X212571723Y-190116723D01*
X212488390Y-190021485D01*
X212416961Y-189831009D01*
X212488390Y-189259580D01*
X212607438Y-189069104D01*
X212714580Y-188973866D01*
X212916961Y-188878628D01*
X213202676Y-188878628D01*
X213381247Y-188973866D01*
X213464580Y-189069104D01*
X213536009Y-189259580D01*
X213464580Y-189831009D01*
X213345533Y-190021485D01*
X213238390Y-190116723D01*
X213036009Y-190211961D01*
X212750295Y-190211961D01*
X214250295Y-188878628D02*
X214464580Y-190211961D01*
X214964580Y-189259580D01*
X215226485Y-190211961D01*
X215774104Y-188878628D01*
X218059819Y-188878628D02*
X217893152Y-190211961D01*
X218036009Y-189069104D02*
X218143152Y-188973866D01*
X218345533Y-188878628D01*
X218631247Y-188878628D01*
X218809819Y-188973866D01*
X218881247Y-189164342D01*
X218750295Y-190211961D01*
X220559819Y-190211961D02*
X220690771Y-189164342D01*
X220619342Y-188973866D01*
X220440771Y-188878628D01*
X220059819Y-188878628D01*
X219857438Y-188973866D01*
X220571723Y-190116723D02*
X220369342Y-190211961D01*
X219893152Y-190211961D01*
X219714580Y-190116723D01*
X219643152Y-189926247D01*
X219666961Y-189735771D01*
X219786009Y-189545295D01*
X219988390Y-189450057D01*
X220464580Y-189450057D01*
X220666961Y-189354819D01*
X222916961Y-188878628D02*
X223678866Y-188878628D01*
X223286009Y-188211961D02*
X223071723Y-189926247D01*
X223143152Y-190116723D01*
X223321723Y-190211961D01*
X223512200Y-190211961D01*
X224178866Y-190211961D02*
X224345533Y-188878628D01*
X224297914Y-189259580D02*
X224416961Y-189069104D01*
X224524104Y-188973866D01*
X224726485Y-188878628D01*
X224916961Y-188878628D01*
X225416961Y-190211961D02*
X225583628Y-188878628D01*
X225666961Y-188211961D02*
X225559819Y-188307200D01*
X225643152Y-188402438D01*
X225750295Y-188307200D01*
X225666961Y-188211961D01*
X225643152Y-188402438D01*
X227226485Y-190211961D02*
X227357438Y-189164342D01*
X227286009Y-188973866D01*
X227107438Y-188878628D01*
X226726485Y-188878628D01*
X226524104Y-188973866D01*
X227238390Y-190116723D02*
X227036009Y-190211961D01*
X226559819Y-190211961D01*
X226381247Y-190116723D01*
X226309819Y-189926247D01*
X226333628Y-189735771D01*
X226452676Y-189545295D01*
X226655057Y-189450057D01*
X227131247Y-189450057D01*
X227333628Y-189354819D01*
X228178866Y-190211961D02*
X228428866Y-188211961D01*
X228464580Y-189450057D02*
X228940771Y-190211961D01*
X229107438Y-188878628D02*
X228250295Y-189640533D01*
X230655057Y-190211961D02*
X230786009Y-189164342D01*
X230714580Y-188973866D01*
X230536009Y-188878628D01*
X230155057Y-188878628D01*
X229952676Y-188973866D01*
X230666961Y-190116723D02*
X230464580Y-190211961D01*
X229988390Y-190211961D01*
X229809819Y-190116723D01*
X229738390Y-189926247D01*
X229762200Y-189735771D01*
X229881247Y-189545295D01*
X230083628Y-189450057D01*
X230559819Y-189450057D01*
X230762200Y-189354819D01*
X232476485Y-190116723D02*
X232274104Y-190211961D01*
X231893152Y-190211961D01*
X231714580Y-190116723D01*
X231631247Y-190021485D01*
X231559819Y-189831009D01*
X231631247Y-189259580D01*
X231750295Y-189069104D01*
X231857438Y-188973866D01*
X232059819Y-188878628D01*
X232440771Y-188878628D01*
X232619342Y-188973866D01*
X233321723Y-190211961D02*
X233571723Y-188211961D01*
X234178866Y-190211961D02*
X234309819Y-189164342D01*
X234238390Y-188973866D01*
X234059819Y-188878628D01*
X233774104Y-188878628D01*
X233571723Y-188973866D01*
X233464580Y-189069104D01*
D10*
D11*
X178934342Y-185600057D02*
X178434342Y-185600057D01*
X178434342Y-186385771D02*
X178434342Y-184885771D01*
X179148628Y-184885771D01*
X179720057Y-186385771D02*
X179720057Y-185385771D01*
X179720057Y-184885771D02*
X179648628Y-184957200D01*
X179720057Y-185028628D01*
X179791485Y-184957200D01*
X179720057Y-184885771D01*
X179720057Y-185028628D01*
X180648628Y-186385771D02*
X180505771Y-186314342D01*
X180434342Y-186171485D01*
X180434342Y-184885771D01*
X181791485Y-186314342D02*
X181648628Y-186385771D01*
X181362914Y-186385771D01*
X181220057Y-186314342D01*
X181148628Y-186171485D01*
X181148628Y-185600057D01*
X181220057Y-185457200D01*
X181362914Y-185385771D01*
X181648628Y-185385771D01*
X181791485Y-185457200D01*
X181862914Y-185600057D01*
X181862914Y-185742914D01*
X181148628Y-185885771D01*
X182505771Y-186242914D02*
X182577200Y-186314342D01*
X182505771Y-186385771D01*
X182434342Y-186314342D01*
X182505771Y-186242914D01*
X182505771Y-186385771D01*
X182505771Y-185457200D02*
X182577200Y-185528628D01*
X182505771Y-185600057D01*
X182434342Y-185528628D01*
X182505771Y-185457200D01*
X182505771Y-185600057D01*
X185220057Y-186242914D02*
X185148628Y-186314342D01*
X184934342Y-186385771D01*
X184791485Y-186385771D01*
X184577200Y-186314342D01*
X184434342Y-186171485D01*
X184362914Y-186028628D01*
X184291485Y-185742914D01*
X184291485Y-185528628D01*
X184362914Y-185242914D01*
X184434342Y-185100057D01*
X184577200Y-184957200D01*
X184791485Y-184885771D01*
X184934342Y-184885771D01*
X185148628Y-184957200D01*
X185220057Y-185028628D01*
X186434342Y-186314342D02*
X186291485Y-186385771D01*
X186005771Y-186385771D01*
X185862914Y-186314342D01*
X185791485Y-186171485D01*
X185791485Y-185600057D01*
X185862914Y-185457200D01*
X186005771Y-185385771D01*
X186291485Y-185385771D01*
X186434342Y-185457200D01*
X186505771Y-185600057D01*
X186505771Y-185742914D01*
X185791485Y-185885771D01*
X187148628Y-185385771D02*
X187148628Y-186385771D01*
X187148628Y-185528628D02*
X187220057Y-185457200D01*
X187362914Y-185385771D01*
X187577200Y-185385771D01*
X187720057Y-185457200D01*
X187791485Y-185600057D01*
X187791485Y-186385771D01*
X188291485Y-185385771D02*
X188862914Y-185385771D01*
X188505771Y-184885771D02*
X188505771Y-186171485D01*
X188577200Y-186314342D01*
X188720057Y-186385771D01*
X188862914Y-186385771D01*
X189362914Y-186385771D02*
X189362914Y-185385771D01*
X189362914Y-185671485D02*
X189434342Y-185528628D01*
X189505771Y-185457200D01*
X189648628Y-185385771D01*
X189791485Y-185385771D01*
X190934342Y-186385771D02*
X190934342Y-185600057D01*
X190862914Y-185457200D01*
X190720057Y-185385771D01*
X190434342Y-185385771D01*
X190291485Y-185457200D01*
X190934342Y-186314342D02*
X190791485Y-186385771D01*
X190434342Y-186385771D01*
X190291485Y-186314342D01*
X190220057Y-186171485D01*
X190220057Y-186028628D01*
X190291485Y-185885771D01*
X190434342Y-185814342D01*
X190791485Y-185814342D01*
X190934342Y-185742914D01*
X191862914Y-186385771D02*
X191720057Y-186314342D01*
X191648628Y-186171485D01*
X191648628Y-184885771D01*
X193577200Y-186385771D02*
X193577200Y-184885771D01*
X193577200Y-185600057D02*
X194434342Y-185600057D01*
X194434342Y-186385771D02*
X194434342Y-184885771D01*
X195720057Y-186314342D02*
X195577200Y-186385771D01*
X195291485Y-186385771D01*
X195148628Y-186314342D01*
X195077200Y-186171485D01*
X195077200Y-185600057D01*
X195148628Y-185457200D01*
X195291485Y-185385771D01*
X195577200Y-185385771D01*
X195720057Y-185457200D01*
X195791485Y-185600057D01*
X195791485Y-185742914D01*
X195077200Y-185885771D01*
X197077200Y-186385771D02*
X197077200Y-185600057D01*
X197005771Y-185457200D01*
X196862914Y-185385771D01*
X196577200Y-185385771D01*
X196434342Y-185457200D01*
X197077200Y-186314342D02*
X196934342Y-186385771D01*
X196577200Y-186385771D01*
X196434342Y-186314342D01*
X196362914Y-186171485D01*
X196362914Y-186028628D01*
X196434342Y-185885771D01*
X196577200Y-185814342D01*
X196934342Y-185814342D01*
X197077200Y-185742914D01*
X197577200Y-185385771D02*
X198148628Y-185385771D01*
X197791485Y-184885771D02*
X197791485Y-186171485D01*
X197862914Y-186314342D01*
X198005771Y-186385771D01*
X198148628Y-186385771D01*
X198648628Y-186385771D02*
X198648628Y-185385771D01*
X198648628Y-184885771D02*
X198577200Y-184957200D01*
X198648628Y-185028628D01*
X198720057Y-184957200D01*
X198648628Y-184885771D01*
X198648628Y-185028628D01*
X199362914Y-185385771D02*
X199362914Y-186385771D01*
X199362914Y-185528628D02*
X199434342Y-185457200D01*
X199577200Y-185385771D01*
X199791485Y-185385771D01*
X199934342Y-185457200D01*
X200005771Y-185600057D01*
X200005771Y-186385771D01*
X201362914Y-185385771D02*
X201362914Y-186600057D01*
X201291485Y-186742914D01*
X201220057Y-186814342D01*
X201077200Y-186885771D01*
X200862914Y-186885771D01*
X200720057Y-186814342D01*
X201362914Y-186314342D02*
X201220057Y-186385771D01*
X200934342Y-186385771D01*
X200791485Y-186314342D01*
X200720057Y-186242914D01*
X200648628Y-186100057D01*
X200648628Y-185671485D01*
X200720057Y-185528628D01*
X200791485Y-185457200D01*
X200934342Y-185385771D01*
X201220057Y-185385771D01*
X201362914Y-185457200D01*
X204077200Y-186242914D02*
X204005771Y-186314342D01*
X203791485Y-186385771D01*
X203648628Y-186385771D01*
X203434342Y-186314342D01*
X203291485Y-186171485D01*
X203220057Y-186028628D01*
X203148628Y-185742914D01*
X203148628Y-185528628D01*
X203220057Y-185242914D01*
X203291485Y-185100057D01*
X203434342Y-184957200D01*
X203648628Y-184885771D01*
X203791485Y-184885771D01*
X204005771Y-184957200D01*
X204077200Y-185028628D01*
X204934342Y-186385771D02*
X204791485Y-186314342D01*
X204720057Y-186242914D01*
X204648628Y-186100057D01*
X204648628Y-185671485D01*
X204720057Y-185528628D01*
X204791485Y-185457200D01*
X204934342Y-185385771D01*
X205148628Y-185385771D01*
X205291485Y-185457200D01*
X205362914Y-185528628D01*
X205434342Y-185671485D01*
X205434342Y-186100057D01*
X205362914Y-186242914D01*
X205291485Y-186314342D01*
X205148628Y-186385771D01*
X204934342Y-186385771D01*
X206077200Y-185385771D02*
X206077200Y-186385771D01*
X206077200Y-185528628D02*
X206148628Y-185457200D01*
X206291485Y-185385771D01*
X206505771Y-185385771D01*
X206648628Y-185457200D01*
X206720057Y-185600057D01*
X206720057Y-186385771D01*
X207220057Y-185385771D02*
X207791485Y-185385771D01*
X207434342Y-184885771D02*
X207434342Y-186171485D01*
X207505771Y-186314342D01*
X207648628Y-186385771D01*
X207791485Y-186385771D01*
X208291485Y-186385771D02*
X208291485Y-185385771D01*
X208291485Y-185671485D02*
X208362914Y-185528628D01*
X208434342Y-185457200D01*
X208577200Y-185385771D01*
X208720057Y-185385771D01*
X209434342Y-186385771D02*
X209291485Y-186314342D01*
X209220057Y-186242914D01*
X209148628Y-186100057D01*
X209148628Y-185671485D01*
X209220057Y-185528628D01*
X209291485Y-185457200D01*
X209434342Y-185385771D01*
X209648628Y-185385771D01*
X209791485Y-185457200D01*
X209862914Y-185528628D01*
X209934342Y-185671485D01*
X209934342Y-186100057D01*
X209862914Y-186242914D01*
X209791485Y-186314342D01*
X209648628Y-186385771D01*
X209434342Y-186385771D01*
X210791485Y-186385771D02*
X210648628Y-186314342D01*
X210577200Y-186171485D01*
X210577200Y-184885771D01*
X212505771Y-186385771D02*
X212505771Y-184885771D01*
X213077200Y-184885771D01*
X213220057Y-184957200D01*
X213291485Y-185028628D01*
X213362914Y-185171485D01*
X213362914Y-185385771D01*
X213291485Y-185528628D01*
X213220057Y-185600057D01*
X213077200Y-185671485D01*
X212505771Y-185671485D01*
X214505771Y-185600057D02*
X214720057Y-185671485D01*
X214791485Y-185742914D01*
X214862914Y-185885771D01*
X214862914Y-186100057D01*
X214791485Y-186242914D01*
X214720057Y-186314342D01*
X214577200Y-186385771D01*
X214005771Y-186385771D01*
X214005771Y-184885771D01*
X214505771Y-184885771D01*
X214648628Y-184957200D01*
X214720057Y-185028628D01*
X214791485Y-185171485D01*
X214791485Y-185314342D01*
X214720057Y-185457200D01*
X214648628Y-185528628D01*
X214505771Y-185600057D01*
X214005771Y-185600057D01*
X215434342Y-185957200D02*
X216148628Y-185957200D01*
X215291485Y-186385771D02*
X215791485Y-184885771D01*
X216291485Y-186385771D01*
X216791485Y-186242914D02*
X216862914Y-186314342D01*
X216791485Y-186385771D01*
X216720057Y-186314342D01*
X216791485Y-186242914D01*
X216791485Y-186385771D01*
X217505771Y-186385771D02*
X217505771Y-184885771D01*
X217648628Y-185814342D02*
X218077200Y-186385771D01*
X218077200Y-185385771D02*
X217505771Y-185957200D01*
X218720057Y-186385771D02*
X218720057Y-185385771D01*
X218720057Y-184885771D02*
X218648628Y-184957200D01*
X218720057Y-185028628D01*
X218791485Y-184957200D01*
X218720057Y-184885771D01*
X218720057Y-185028628D01*
X220077200Y-186314342D02*
X219934342Y-186385771D01*
X219648628Y-186385771D01*
X219505771Y-186314342D01*
X219434342Y-186242914D01*
X219362914Y-186100057D01*
X219362914Y-185671485D01*
X219434342Y-185528628D01*
X219505771Y-185457200D01*
X219648628Y-185385771D01*
X219934342Y-185385771D01*
X220077200Y-185457200D01*
X221362914Y-186385771D02*
X221362914Y-185600057D01*
X221291485Y-185457200D01*
X221148628Y-185385771D01*
X220862914Y-185385771D01*
X220720057Y-185457200D01*
X221362914Y-186314342D02*
X221220057Y-186385771D01*
X220862914Y-186385771D01*
X220720057Y-186314342D01*
X220648628Y-186171485D01*
X220648628Y-186028628D01*
X220720057Y-185885771D01*
X220862914Y-185814342D01*
X221220057Y-185814342D01*
X221362914Y-185742914D01*
X222720057Y-186385771D02*
X222720057Y-184885771D01*
X222720057Y-186314342D02*
X222577200Y-186385771D01*
X222291485Y-186385771D01*
X222148628Y-186314342D01*
X222077200Y-186242914D01*
X222005771Y-186100057D01*
X222005771Y-185671485D01*
X222077200Y-185528628D01*
X222148628Y-185457200D01*
X222291485Y-185385771D01*
X222577200Y-185385771D01*
X222720057Y-185457200D01*
X223077200Y-186528628D02*
X224220057Y-186528628D01*
X224577200Y-185385771D02*
X224577200Y-186885771D01*
X224577200Y-185457200D02*
X224720057Y-185385771D01*
X225005771Y-185385771D01*
X225148628Y-185457200D01*
X225220057Y-185528628D01*
X225291485Y-185671485D01*
X225291485Y-186100057D01*
X225220057Y-186242914D01*
X225148628Y-186314342D01*
X225005771Y-186385771D01*
X224720057Y-186385771D01*
X224577200Y-186314342D01*
X226577200Y-186314342D02*
X226434342Y-186385771D01*
X226148628Y-186385771D01*
X226005771Y-186314342D01*
X225934342Y-186242914D01*
X225862914Y-186100057D01*
X225862914Y-185671485D01*
X225934342Y-185528628D01*
X226005771Y-185457200D01*
X226148628Y-185385771D01*
X226434342Y-185385771D01*
X226577200Y-185457200D01*
X227220057Y-186385771D02*
X227220057Y-184885771D01*
X227220057Y-185457200D02*
X227362914Y-185385771D01*
X227648628Y-185385771D01*
X227791485Y-185457200D01*
X227862914Y-185528628D01*
X227934342Y-185671485D01*
X227934342Y-186100057D01*
X227862914Y-186242914D01*
X227791485Y-186314342D01*
X227648628Y-186385771D01*
X227362914Y-186385771D01*
X227220057Y-186314342D01*
D10*
D11*
X177002200Y-181507200D02*
X285002200Y-181507200D01*
D10*
D11*
X178362914Y-183614342D02*
X178577200Y-183685771D01*
X178934342Y-183685771D01*
X179077200Y-183614342D01*
X179148628Y-183542914D01*
X179220057Y-183400057D01*
X179220057Y-183257200D01*
X179148628Y-183114342D01*
X179077200Y-183042914D01*
X178934342Y-182971485D01*
X178648628Y-182900057D01*
X178505771Y-182828628D01*
X178434342Y-182757200D01*
X178362914Y-182614342D01*
X178362914Y-182471485D01*
X178434342Y-182328628D01*
X178505771Y-182257200D01*
X178648628Y-182185771D01*
X179005771Y-182185771D01*
X179220057Y-182257200D01*
X179862914Y-183685771D02*
X179862914Y-182185771D01*
X180505771Y-183685771D02*
X180505771Y-182900057D01*
X180434342Y-182757200D01*
X180291485Y-182685771D01*
X180077200Y-182685771D01*
X179934342Y-182757200D01*
X179862914Y-182828628D01*
X181791485Y-183614342D02*
X181648628Y-183685771D01*
X181362914Y-183685771D01*
X181220057Y-183614342D01*
X181148628Y-183471485D01*
X181148628Y-182900057D01*
X181220057Y-182757200D01*
X181362914Y-182685771D01*
X181648628Y-182685771D01*
X181791485Y-182757200D01*
X181862914Y-182900057D01*
X181862914Y-183042914D01*
X181148628Y-183185771D01*
X183077200Y-183614342D02*
X182934342Y-183685771D01*
X182648628Y-183685771D01*
X182505771Y-183614342D01*
X182434342Y-183471485D01*
X182434342Y-182900057D01*
X182505771Y-182757200D01*
X182648628Y-182685771D01*
X182934342Y-182685771D01*
X183077200Y-182757200D01*
X183148628Y-182900057D01*
X183148628Y-183042914D01*
X182434342Y-183185771D01*
X183577200Y-182685771D02*
X184148628Y-182685771D01*
X183791485Y-182185771D02*
X183791485Y-183471485D01*
X183862914Y-183614342D01*
X184005771Y-183685771D01*
X184148628Y-183685771D01*
X184648628Y-183542914D02*
X184720057Y-183614342D01*
X184648628Y-183685771D01*
X184577200Y-183614342D01*
X184648628Y-183542914D01*
X184648628Y-183685771D01*
X184648628Y-182757200D02*
X184720057Y-182828628D01*
X184648628Y-182900057D01*
X184577200Y-182828628D01*
X184648628Y-182757200D01*
X184648628Y-182900057D01*
D10*
D12*
X178554342Y-180685771D02*
X178554342Y-179185771D01*
X179054342Y-180257200D01*
X179554342Y-179185771D01*
X179554342Y-180685771D01*
X180197200Y-180257200D02*
X180911485Y-180257200D01*
X180054342Y-180685771D02*
X180554342Y-179185771D01*
X181054342Y-180685771D01*
X182411485Y-180685771D02*
X181911485Y-179971485D01*
X181554342Y-180685771D02*
X181554342Y-179185771D01*
X182125771Y-179185771D01*
X182268628Y-179257200D01*
X182340057Y-179328628D01*
X182411485Y-179471485D01*
X182411485Y-179685771D01*
X182340057Y-179828628D01*
X182268628Y-179900057D01*
X182125771Y-179971485D01*
X181554342Y-179971485D01*
X183054342Y-180685771D02*
X183054342Y-179185771D01*
X183554342Y-180257200D01*
X184054342Y-179185771D01*
X184054342Y-180685771D01*
X184768628Y-180542914D02*
X184840057Y-180614342D01*
X184768628Y-180685771D01*
X184697200Y-180614342D01*
X184768628Y-180542914D01*
X184768628Y-180685771D01*
X185482914Y-179685771D02*
X185482914Y-181185771D01*
X185482914Y-179757200D02*
X185625771Y-179685771D01*
X185911485Y-179685771D01*
X186054342Y-179757200D01*
X186125771Y-179828628D01*
X186197200Y-179971485D01*
X186197200Y-180400057D01*
X186125771Y-180542914D01*
X186054342Y-180614342D01*
X185911485Y-180685771D01*
X185625771Y-180685771D01*
X185482914Y-180614342D01*
X187054342Y-180685771D02*
X186911485Y-180614342D01*
X186840057Y-180471485D01*
X186840057Y-179185771D01*
X188697200Y-180614342D02*
X188911485Y-180685771D01*
X189268628Y-180685771D01*
X189411485Y-180614342D01*
X189482914Y-180542914D01*
X189554342Y-180400057D01*
X189554342Y-180257200D01*
X189482914Y-180114342D01*
X189411485Y-180042914D01*
X189268628Y-179971485D01*
X188982914Y-179900057D01*
X188840057Y-179828628D01*
X188768628Y-179757200D01*
X188697200Y-179614342D01*
X188697200Y-179471485D01*
X188768628Y-179328628D01*
X188840057Y-179257200D01*
X188982914Y-179185771D01*
X189340057Y-179185771D01*
X189554342Y-179257200D01*
X190197200Y-179685771D02*
X190197200Y-181185771D01*
X190197200Y-179757200D02*
X190340057Y-179685771D01*
X190625771Y-179685771D01*
X190768628Y-179757200D01*
X190840057Y-179828628D01*
X190911485Y-179971485D01*
X190911485Y-180400057D01*
X190840057Y-180542914D01*
X190768628Y-180614342D01*
X190625771Y-180685771D01*
X190340057Y-180685771D01*
X190197200Y-180614342D01*
X191554342Y-180542914D02*
X191625771Y-180614342D01*
X191554342Y-180685771D01*
X191482914Y-180614342D01*
X191554342Y-180542914D01*
X191554342Y-180685771D01*
X193268628Y-179685771D02*
X194054342Y-179685771D01*
X193268628Y-180685771D01*
X194054342Y-180685771D01*
X195982914Y-180685771D02*
X195840057Y-180614342D01*
X195768628Y-180542914D01*
X195697200Y-180400057D01*
X195697200Y-179971485D01*
X195768628Y-179828628D01*
X195840057Y-179757200D01*
X195982914Y-179685771D01*
X196197200Y-179685771D01*
X196340057Y-179757200D01*
X196411485Y-179828628D01*
X196482914Y-179971485D01*
X196482914Y-180400057D01*
X196411485Y-180542914D01*
X196340057Y-180614342D01*
X196197200Y-180685771D01*
X195982914Y-180685771D01*
X197125771Y-180542914D02*
X197197200Y-180614342D01*
X197125771Y-180685771D01*
X197054342Y-180614342D01*
X197125771Y-180542914D01*
X197125771Y-180685771D01*
X198054342Y-180685771D02*
X197911485Y-180614342D01*
X197840057Y-180542914D01*
X197768628Y-180400057D01*
X197768628Y-179971485D01*
X197840057Y-179828628D01*
X197911485Y-179757200D01*
X198054342Y-179685771D01*
X198268628Y-179685771D01*
X198411485Y-179757200D01*
X198482914Y-179828628D01*
X198554342Y-179971485D01*
X198554342Y-180400057D01*
X198482914Y-180542914D01*
X198411485Y-180614342D01*
X198268628Y-180685771D01*
X198054342Y-180685771D01*
X199197200Y-180542914D02*
X199268628Y-180614342D01*
X199197200Y-180685771D01*
X199125771Y-180614342D01*
X199197200Y-180542914D01*
X199197200Y-180685771D01*
D10*
D11*
X179291485Y-177685771D02*
X178791485Y-176971485D01*
X178434342Y-177685771D02*
X178434342Y-176185771D01*
X179005771Y-176185771D01*
X179148628Y-176257200D01*
X179220057Y-176328628D01*
X179291485Y-176471485D01*
X179291485Y-176685771D01*
X179220057Y-176828628D01*
X179148628Y-176900057D01*
X179005771Y-176971485D01*
X178434342Y-176971485D01*
X180720057Y-176257200D02*
X180577200Y-176185771D01*
X180362914Y-176185771D01*
X180148628Y-176257200D01*
X180005771Y-176400057D01*
X179934342Y-176542914D01*
X179862914Y-176828628D01*
X179862914Y-177042914D01*
X179934342Y-177328628D01*
X180005771Y-177471485D01*
X180148628Y-177614342D01*
X180362914Y-177685771D01*
X180505771Y-177685771D01*
X180720057Y-177614342D01*
X180791485Y-177542914D01*
X180791485Y-177042914D01*
X180505771Y-177042914D01*
X181291485Y-176185771D02*
X181648628Y-177685771D01*
X181934342Y-176614342D01*
X182220057Y-177685771D01*
X182577200Y-176185771D01*
D10*
D11*
D10*
D11*
D10*
D11*
D10*
D11*
X197002200Y-191507200D02*
X197002200Y-194507200D01*
D10*
D11*
X261002200Y-191507200D02*
X261002200Y-198007200D01*
D14*
X33490866Y-122269803D02*
X33491300Y-36755890D01*
X206845866Y-36803803D02*
X206845866Y-122269803D01*
X33491300Y-36755890D02*
X206845866Y-36803803D01*
X51988866Y-99409803D02*
G75*
G03*
X51988866Y-99409803I-1480000J0D01*
G01*
X183560866Y-115284803D02*
G75*
G03*
X183560866Y-115284803I-1480000J0D01*
G01*
X51988866Y-49866043D02*
G75*
G03*
X51988866Y-49866043I-1480000J0D01*
G01*
X206845866Y-122269803D02*
X33490866Y-122269803D01*
X111805866Y-110204803D02*
G75*
G03*
X111805866Y-110204803I-1480000J0D01*
G01*
X204515866Y-43246043D02*
G75*
G03*
X204515866Y-43246043I-1480000J0D01*
G01*
D12*
D15*
X178587857Y-119423571D02*
X178587857Y-117923571D01*
X178087857Y-118995000D01*
X177587857Y-117923571D01*
X177587857Y-119423571D01*
X176945000Y-118995000D02*
X176230714Y-118995000D01*
X177087857Y-119423571D02*
X176587857Y-117923571D01*
X176087857Y-119423571D01*
X174730714Y-119423571D02*
X175230714Y-118709285D01*
X175587857Y-119423571D02*
X175587857Y-117923571D01*
X175016428Y-117923571D01*
X174873571Y-117995000D01*
X174802142Y-118066428D01*
X174730714Y-118209285D01*
X174730714Y-118423571D01*
X174802142Y-118566428D01*
X174873571Y-118637857D01*
X175016428Y-118709285D01*
X175587857Y-118709285D01*
X174087857Y-119423571D02*
X174087857Y-117923571D01*
X173587857Y-118995000D01*
X173087857Y-117923571D01*
X173087857Y-119423571D01*
X172373571Y-119280714D02*
X172302142Y-119352142D01*
X172373571Y-119423571D01*
X172445000Y-119352142D01*
X172373571Y-119280714D01*
X172373571Y-119423571D01*
X171659285Y-118423571D02*
X171659285Y-119923571D01*
X171659285Y-118495000D02*
X171516428Y-118423571D01*
X171230714Y-118423571D01*
X171087857Y-118495000D01*
X171016428Y-118566428D01*
X170945000Y-118709285D01*
X170945000Y-119137857D01*
X171016428Y-119280714D01*
X171087857Y-119352142D01*
X171230714Y-119423571D01*
X171516428Y-119423571D01*
X171659285Y-119352142D01*
X170087857Y-119423571D02*
X170230714Y-119352142D01*
X170302142Y-119209285D01*
X170302142Y-117923571D01*
X168445000Y-119352142D02*
X168230714Y-119423571D01*
X167873571Y-119423571D01*
X167730714Y-119352142D01*
X167659285Y-119280714D01*
X167587857Y-119137857D01*
X167587857Y-118995000D01*
X167659285Y-118852142D01*
X167730714Y-118780714D01*
X167873571Y-118709285D01*
X168159285Y-118637857D01*
X168302142Y-118566428D01*
X168373571Y-118495000D01*
X168445000Y-118352142D01*
X168445000Y-118209285D01*
X168373571Y-118066428D01*
X168302142Y-117995000D01*
X168159285Y-117923571D01*
X167802142Y-117923571D01*
X167587857Y-117995000D01*
X166945000Y-118423571D02*
X166945000Y-119923571D01*
X166945000Y-118495000D02*
X166802142Y-118423571D01*
X166516428Y-118423571D01*
X166373571Y-118495000D01*
X166302142Y-118566428D01*
X166230714Y-118709285D01*
X166230714Y-119137857D01*
X166302142Y-119280714D01*
X166373571Y-119352142D01*
X166516428Y-119423571D01*
X166802142Y-119423571D01*
X166945000Y-119352142D01*
X165587857Y-119280714D02*
X165516428Y-119352142D01*
X165587857Y-119423571D01*
X165659285Y-119352142D01*
X165587857Y-119280714D01*
X165587857Y-119423571D01*
X163873571Y-118423571D02*
X163087857Y-118423571D01*
X163873571Y-119423571D01*
X163087857Y-119423571D01*
X161159285Y-119423571D02*
X161302142Y-119352142D01*
X161373571Y-119280714D01*
X161445000Y-119137857D01*
X161445000Y-118709285D01*
X161373571Y-118566428D01*
X161302142Y-118495000D01*
X161159285Y-118423571D01*
X160945000Y-118423571D01*
X160802142Y-118495000D01*
X160730714Y-118566428D01*
X160659285Y-118709285D01*
X160659285Y-119137857D01*
X160730714Y-119280714D01*
X160802142Y-119352142D01*
X160945000Y-119423571D01*
X161159285Y-119423571D01*
X160016428Y-119280714D02*
X159945000Y-119352142D01*
X160016428Y-119423571D01*
X160087857Y-119352142D01*
X160016428Y-119280714D01*
X160016428Y-119423571D01*
X159087857Y-119423571D02*
X159230714Y-119352142D01*
X159302142Y-119280714D01*
X159373571Y-119137857D01*
X159373571Y-118709285D01*
X159302142Y-118566428D01*
X159230714Y-118495000D01*
X159087857Y-118423571D01*
X158873571Y-118423571D01*
X158730714Y-118495000D01*
X158659285Y-118566428D01*
X158587857Y-118709285D01*
X158587857Y-119137857D01*
X158659285Y-119280714D01*
X158730714Y-119352142D01*
X158873571Y-119423571D01*
X159087857Y-119423571D01*
X157945000Y-119280714D02*
X157873571Y-119352142D01*
X157945000Y-119423571D01*
X158016428Y-119352142D01*
X157945000Y-119280714D01*
X157945000Y-119423571D01*
X155659285Y-119995000D02*
X155730714Y-119923571D01*
X155873571Y-119709285D01*
X155945000Y-119566428D01*
X156016428Y-119352142D01*
X156087857Y-118995000D01*
X156087857Y-118709285D01*
X156016428Y-118352142D01*
X155945000Y-118137857D01*
X155873571Y-117995000D01*
X155730714Y-117780714D01*
X155659285Y-117709285D01*
X154445000Y-119352142D02*
X154587857Y-119423571D01*
X154873571Y-119423571D01*
X155016428Y-119352142D01*
X155087857Y-119280714D01*
X155159285Y-119137857D01*
X155159285Y-118709285D01*
X155087857Y-118566428D01*
X155016428Y-118495000D01*
X154873571Y-118423571D01*
X154587857Y-118423571D01*
X154445000Y-118495000D01*
X153945000Y-119995000D02*
X153873571Y-119923571D01*
X153730714Y-119709285D01*
X153659285Y-119566428D01*
X153587857Y-119352142D01*
X153516428Y-118995000D01*
X153516428Y-118709285D01*
X153587857Y-118352142D01*
X153659285Y-118137857D01*
X153730714Y-117995000D01*
X153873571Y-117780714D01*
X153945000Y-117709285D01*
X152873571Y-118066428D02*
X152802142Y-117995000D01*
X152659285Y-117923571D01*
X152302142Y-117923571D01*
X152159285Y-117995000D01*
X152087857Y-118066428D01*
X152016428Y-118209285D01*
X152016428Y-118352142D01*
X152087857Y-118566428D01*
X152945000Y-119423571D01*
X152016428Y-119423571D01*
X151087857Y-117923571D02*
X150945000Y-117923571D01*
X150802142Y-117995000D01*
X150730714Y-118066428D01*
X150659285Y-118209285D01*
X150587857Y-118495000D01*
X150587857Y-118852142D01*
X150659285Y-119137857D01*
X150730714Y-119280714D01*
X150802142Y-119352142D01*
X150945000Y-119423571D01*
X151087857Y-119423571D01*
X151230714Y-119352142D01*
X151302142Y-119280714D01*
X151373571Y-119137857D01*
X151445000Y-118852142D01*
X151445000Y-118495000D01*
X151373571Y-118209285D01*
X151302142Y-118066428D01*
X151230714Y-117995000D01*
X151087857Y-117923571D01*
X150016428Y-118066428D02*
X149945000Y-117995000D01*
X149802142Y-117923571D01*
X149445000Y-117923571D01*
X149302142Y-117995000D01*
X149230714Y-118066428D01*
X149159285Y-118209285D01*
X149159285Y-118352142D01*
X149230714Y-118566428D01*
X150087857Y-119423571D01*
X149159285Y-119423571D01*
X148587857Y-118066428D02*
X148516428Y-117995000D01*
X148373571Y-117923571D01*
X148016428Y-117923571D01*
X147873571Y-117995000D01*
X147802142Y-118066428D01*
X147730714Y-118209285D01*
X147730714Y-118352142D01*
X147802142Y-118566428D01*
X148659285Y-119423571D01*
X147730714Y-119423571D01*
D14*
X183747532Y-115284803D02*
G75*
G03*
X183747532Y-115284803I-1666666J0D01*
G01*
X179580866Y-115284803D02*
X184580866Y-115284803D01*
X182080866Y-112784803D02*
X182080866Y-117784803D01*
X52175532Y-99409803D02*
G75*
G03*
X52175532Y-99409803I-1666666J0D01*
G01*
X48008866Y-99409803D02*
X53008866Y-99409803D01*
X50508866Y-96909803D02*
X50508866Y-101909803D01*
X204702532Y-43246043D02*
G75*
G03*
X204702532Y-43246043I-1666666J0D01*
G01*
X200535866Y-43246043D02*
X205535866Y-43246043D01*
X203035866Y-40746043D02*
X203035866Y-45746043D01*
X52175532Y-49866043D02*
G75*
G03*
X52175532Y-49866043I-1666666J0D01*
G01*
X48008866Y-49866043D02*
X53008866Y-49866043D01*
X50508866Y-47366043D02*
X50508866Y-52366043D01*
X111992532Y-110204803D02*
G75*
G03*
X111992532Y-110204803I-1666666J0D01*
G01*
X107825866Y-110204803D02*
X112825866Y-110204803D01*
X110325866Y-107704803D02*
X110325866Y-112704803D01*
X205501666Y-119380000D02*
G75*
G03*
X205501666Y-119380000I-1666666J0D01*
G01*
X201335000Y-119380000D02*
X206335000Y-119380000D01*
X203835000Y-116880000D02*
X203835000Y-121880000D01*
X142345532Y-49866043D02*
G75*
G03*
X142345532Y-49866043I-1666666J0D01*
G01*
X138178866Y-49866043D02*
X143178866Y-49866043D01*
X140678866Y-47366043D02*
X140678866Y-52366043D01*
D16*
%TO.P,REF\u002A\u002A,1*%
%TO.N,N/C*%
X140682623Y-49865097D03*
%TD*%
D17*
%TO.P,D3,1,K*%
%TO.N,Net-(D3-Pad1)*%
X70475000Y-80900000D03*
D18*
%TO.P,D3,2,A*%
%TO.N,Net-(D3-Pad2)*%
X67935000Y-80900000D03*
%TD*%
D19*
%TO.P,J13,1,Pin_1*%
%TO.N,NEUT*%
X195728894Y-41665346D03*
D20*
%TO.P,J13,2,Pin_2*%
%TO.N,Net-(C11-Pad2)*%
X188228894Y-41665346D03*
%TD*%
D21*
%TO.P,U8,1*%
%TO.N,Net-(D7-Pad1)*%
X132705000Y-88239803D03*
D22*
%TO.P,U8,2*%
%TO.N,Net-(Q19-Pad3)*%
X135245000Y-88239803D03*
%TO.P,U8,3,NC*%
%TO.N,unconnected-(U8-Pad3)*%
X137785000Y-88239803D03*
%TO.P,U8,4*%
%TO.N,Net-(Q7-Pad3)*%
X137785000Y-80619803D03*
%TO.P,U8,5,NC*%
%TO.N,unconnected-(U8-Pad5)*%
X135245000Y-80619803D03*
%TO.P,U8,6*%
%TO.N,Net-(R18-Pad1)*%
X132705000Y-80619803D03*
%TD*%
D23*
%TO.P,R40,1*%
%TO.N,Net-(Q9-Pad3)*%
X167550000Y-52325000D03*
D24*
%TO.P,R40,2*%
%TO.N,Net-(C9-Pad2)*%
X165010000Y-52325000D03*
%TD*%
D23*
%TO.P,R27,1*%
%TO.N,LINE*%
X121600000Y-61555000D03*
D24*
%TO.P,R27,2*%
%TO.N,Net-(C6-Pad1)*%
X121600000Y-64095000D03*
%TD*%
D17*
%TO.P,D2,1,K*%
%TO.N,Net-(D2-Pad1)*%
X55900000Y-80900000D03*
D18*
%TO.P,D2,2,A*%
%TO.N,Net-(D2-Pad2)*%
X53360000Y-80900000D03*
%TD*%
D25*
%TO.P,Q9,1,A1*%
%TO.N,Net-(C9-Pad2)*%
X160998866Y-57529606D03*
D26*
%TO.P,Q9,2,A2*%
%TO.N,LINE*%
X163538866Y-57529606D03*
%TO.P,Q9,3,G*%
%TO.N,Net-(Q9-Pad3)*%
X166078866Y-57529606D03*
%TD*%
D27*
%TO.P,C3,1*%
%TO.N,Net-(C3-Pad1)*%
X56500000Y-76400000D03*
%TO.P,C3,2*%
%TO.N,Net-(C3-Pad2)*%
X56500000Y-61400000D03*
%TD*%
D23*
%TO.P,R55,1*%
%TO.N,LINE*%
X196500000Y-61555000D03*
D24*
%TO.P,R55,2*%
%TO.N,Net-(C11-Pad1)*%
X196500000Y-64095000D03*
%TD*%
D28*
%TO.P,JP1,1,A*%
%TO.N,Net-(C2-Pad2)*%
X36600000Y-52300000D03*
D29*
%TO.P,JP1,2,B*%
%TO.N,LINE*%
X39140000Y-52300000D03*
%TD*%
D30*
%TO.P,RV6,1*%
%TO.N,NEUT*%
X121700000Y-49200000D03*
%TO.P,RV6,2*%
%TO.N,Net-(C6-Pad2)*%
X116700000Y-48000000D03*
%TD*%
D21*
%TO.P,U2,1*%
%TO.N,Net-(D1-Pad1)*%
X41608866Y-88239803D03*
D22*
%TO.P,U2,2*%
%TO.N,Net-(Q16-Pad3)*%
X44148866Y-88239803D03*
%TO.P,U2,3,NC*%
%TO.N,unconnected-(U2-Pad3)*%
X46688866Y-88239803D03*
%TO.P,U2,4*%
%TO.N,Net-(Q1-Pad3)*%
X46688866Y-80619803D03*
%TO.P,U2,5,NC*%
%TO.N,unconnected-(U2-Pad5)*%
X44148866Y-80619803D03*
%TO.P,U2,6*%
%TO.N,Net-(R13-Pad1)*%
X41608866Y-80619803D03*
%TD*%
D25*
%TO.P,Q7,1,A1*%
%TO.N,Net-(C7-Pad2)*%
X129883866Y-57529606D03*
D26*
%TO.P,Q7,2,A2*%
%TO.N,LINE*%
X132423866Y-57529606D03*
%TO.P,Q7,3,G*%
%TO.N,Net-(Q7-Pad3)*%
X134963866Y-57529606D03*
%TD*%
D23*
%TO.P,R30,1*%
%TO.N,LINE*%
X167300000Y-61555000D03*
D24*
%TO.P,R30,2*%
%TO.N,Net-(C9-Pad1)*%
X167300000Y-64095000D03*
%TD*%
D28*
%TO.P,JP9,1,A*%
%TO.N,Net-(C5-Pad2)*%
X83498866Y-52300000D03*
D29*
%TO.P,JP9,2,B*%
%TO.N,LINE*%
X86038866Y-52300000D03*
%TD*%
D19*
%TO.P,J12,1,Pin_1*%
%TO.N,NEUT*%
X180728894Y-41665346D03*
D20*
%TO.P,J12,2,Pin_2*%
%TO.N,Net-(C10-Pad2)*%
X173228894Y-41665346D03*
%TD*%
D31*
%TO.P,J3_DC5V1,1,Pin_1*%
%TO.N,+3V3*%
X137608606Y-112637762D03*
D32*
%TO.P,J3_DC5V1,2,Pin_2*%
%TO.N,GNDREF*%
X137608606Y-107557762D03*
%TO.P,J3_DC5V1,3,Pin_3*%
%TO.N,+5V*%
X137608606Y-102477762D03*
%TD*%
D25*
%TO.P,Q2,1,A1*%
%TO.N,Net-(C3-Pad2)*%
X56223866Y-57529606D03*
D26*
%TO.P,Q2,2,A2*%
%TO.N,LINE*%
X58763866Y-57529606D03*
%TO.P,Q2,3,G*%
%TO.N,Net-(Q2-Pad3)*%
X61303866Y-57529606D03*
%TD*%
D19*
%TO.P,J5,1,Pin_1*%
%TO.N,NEUT*%
X75728894Y-41665346D03*
D20*
%TO.P,J5,2,Pin_2*%
%TO.N,Net-(C4-Pad2)*%
X68228894Y-41665346D03*
%TD*%
D16*
%TO.P,REF\u002A\u002A,1*%
%TO.N,N/C*%
X110326509Y-110202797D03*
%TD*%
D23*
%TO.P,R28,1*%
%TO.N,LINE*%
X136200000Y-61555000D03*
D24*
%TO.P,R28,2*%
%TO.N,Net-(C7-Pad1)*%
X136200000Y-64095000D03*
%TD*%
D16*
%TO.P,REF\u002A\u002A,1*%
%TO.N,N/C*%
X50514727Y-49861708D03*
%TD*%
D33*
%TO.P,U14,1,VCC*%
%TO.N,+3V3*%
X72602500Y-104140000D03*
D34*
%TO.P,U14,2,IO*%
%TO.N,Net-(R57-Pad1)*%
X72602500Y-101600000D03*
%TO.P,U14,3,NC*%
%TO.N,unconnected-(U14-Pad3)*%
X72602500Y-99060000D03*
%TO.P,U14,4,GND*%
%TO.N,GNDREF*%
X72602500Y-96520000D03*
%TD*%
D17*
%TO.P,D5,1,K*%
%TO.N,Net-(D5-Pad1)*%
X100275000Y-81000000D03*
D18*
%TO.P,D5,2,A*%
%TO.N,Net-(D5-Pad2)*%
X97735000Y-81000000D03*
%TD*%
D23*
%TO.P,R38,1*%
%TO.N,Net-(Q7-Pad3)*%
X135958866Y-52325000D03*
D24*
%TO.P,R38,2*%
%TO.N,Net-(C7-Pad2)*%
X133418866Y-52325000D03*
%TD*%
D28*
%TO.P,JP6,1,A*%
%TO.N,Net-(C7-Pad2)*%
X127313866Y-52300000D03*
D29*
%TO.P,JP6,2,B*%
%TO.N,LINE*%
X129853866Y-52300000D03*
%TD*%
D19*
%TO.P,J6,1,Pin_1*%
%TO.N,NEUT*%
X90728894Y-41665346D03*
D20*
%TO.P,J6,2,Pin_2*%
%TO.N,Net-(C5-Pad2)*%
X83228894Y-41665346D03*
%TD*%
D19*
%TO.P,J7,1,Pin_1*%
%TO.N,NEUT*%
X105728894Y-41665346D03*
D20*
%TO.P,J7,2,Pin_2*%
%TO.N,Net-(C1-Pad2)*%
X98228894Y-41665346D03*
%TD*%
D19*
%TO.P,J5_AC_INPUT1,1,Pin_1*%
%TO.N,NEUT*%
X195800000Y-111345000D03*
D20*
%TO.P,J5_AC_INPUT1,2,Pin_2*%
%TO.N,LINE*%
X195800000Y-106265000D03*
%TD*%
D23*
%TO.P,R25,1*%
%TO.N,LINE*%
X77100000Y-61555000D03*
D24*
%TO.P,R25,2*%
%TO.N,Net-(C4-Pad1)*%
X77100000Y-64095000D03*
%TD*%
D27*
%TO.P,C4,1*%
%TO.N,Net-(C4-Pad1)*%
X71000000Y-76400000D03*
%TO.P,C4,2*%
%TO.N,Net-(C4-Pad2)*%
X71000000Y-61400000D03*
%TD*%
D28*
%TO.P,JP5,1,A*%
%TO.N,Net-(C6-Pad2)*%
X113343866Y-52300000D03*
D29*
%TO.P,JP5,2,B*%
%TO.N,LINE*%
X115883866Y-52300000D03*
%TD*%
D17*
%TO.P,D4,1,K*%
%TO.N,Net-(D4-Pad1)*%
X85100000Y-80900000D03*
D18*
%TO.P,D4,2,A*%
%TO.N,Net-(D4-Pad2)*%
X82560000Y-80900000D03*
%TD*%
D25*
%TO.P,Q1,1,A1*%
%TO.N,Net-(C2-Pad2)*%
X39078866Y-57529606D03*
D26*
%TO.P,Q1,2,A2*%
%TO.N,LINE*%
X41618866Y-57529606D03*
%TO.P,Q1,3,G*%
%TO.N,Net-(Q1-Pad3)*%
X44158866Y-57529606D03*
%TD*%
D19*
%TO.P,J4_AC_OUTPUT1,1,Pin_1*%
%TO.N,NEUT*%
X195800000Y-100145000D03*
D20*
%TO.P,J4_AC_OUTPUT1,2,Pin_2*%
%TO.N,LINE*%
X195800000Y-95065000D03*
%TD*%
D21*
%TO.P,U11,1*%
%TO.N,Net-(D10-Pad1)*%
X178768866Y-88239803D03*
D22*
%TO.P,U11,2*%
%TO.N,Net-(Q14-Pad3)*%
X181308866Y-88239803D03*
%TO.P,U11,3,NC*%
%TO.N,unconnected-(U11-Pad3)*%
X183848866Y-88239803D03*
%TO.P,U11,4*%
%TO.N,Net-(Q10-Pad3)*%
X183848866Y-80619803D03*
%TO.P,U11,5,NC*%
%TO.N,unconnected-(U11-Pad5)*%
X181308866Y-80619803D03*
%TO.P,U11,6*%
%TO.N,Net-(R21-Pad1)*%
X178768866Y-80619803D03*
%TD*%
D30*
%TO.P,RV2,1*%
%TO.N,NEUT*%
X61700000Y-49200000D03*
%TO.P,RV2,2*%
%TO.N,Net-(C3-Pad2)*%
X56700000Y-48000000D03*
%TD*%
D23*
%TO.P,R26,1*%
%TO.N,LINE*%
X91700000Y-61555000D03*
D24*
%TO.P,R26,2*%
%TO.N,Net-(C5-Pad1)*%
X91700000Y-64095000D03*
%TD*%
D35*
%TO.P,U13,1,GND*%
%TO.N,GNDREF*%
X65656956Y-111277825D03*
D36*
%TO.P,U13,2,DQ*%
%TO.N,Net-(J1-Pad2)*%
X65656956Y-112747825D03*
%TO.P,U13,3,VDD*%
%TO.N,+3V3*%
X65656956Y-114217825D03*
%TD*%
D23*
%TO.P,R31,1*%
%TO.N,LINE*%
X182500000Y-61555000D03*
D24*
%TO.P,R31,2*%
%TO.N,Net-(C10-Pad1)*%
X182500000Y-64095000D03*
%TD*%
D16*
%TO.P,REF\u002A\u002A,1*%
%TO.N,N/C*%
X182077764Y-115282470D03*
%TD*%
D28*
%TO.P,JP3,1,A*%
%TO.N,Net-(C4-Pad2)*%
X68893866Y-52300000D03*
D29*
%TO.P,JP3,2,B*%
%TO.N,LINE*%
X71433866Y-52300000D03*
%TD*%
D27*
%TO.P,C7,1*%
%TO.N,Net-(C7-Pad1)*%
X130000000Y-76400000D03*
%TO.P,C7,2*%
%TO.N,Net-(C7-Pad2)*%
X130000000Y-61400000D03*
%TD*%
D30*
%TO.P,RV1,1*%
%TO.N,NEUT*%
X45200000Y-49200000D03*
%TO.P,RV1,2*%
%TO.N,Net-(C2-Pad2)*%
X40200000Y-48000000D03*
%TD*%
D23*
%TO.P,R34,1*%
%TO.N,Net-(Q3-Pad3)*%
X77895000Y-52325000D03*
D24*
%TO.P,R34,2*%
%TO.N,Net-(C4-Pad2)*%
X75355000Y-52325000D03*
%TD*%
D25*
%TO.P,Q3,1,A1*%
%TO.N,Net-(C4-Pad2)*%
X70828866Y-57529606D03*
D26*
%TO.P,Q3,2,A2*%
%TO.N,LINE*%
X73368866Y-57529606D03*
%TO.P,Q3,3,G*%
%TO.N,Net-(Q3-Pad3)*%
X75908866Y-57529606D03*
%TD*%
D25*
%TO.P,Q8,1,A1*%
%TO.N,Net-(C8-Pad2)*%
X145123866Y-57529606D03*
D26*
%TO.P,Q8,2,A2*%
%TO.N,LINE*%
X147663866Y-57529606D03*
%TO.P,Q8,3,G*%
%TO.N,Net-(Q8-Pad3)*%
X150203866Y-57529606D03*
%TD*%
D28*
%TO.P,JP7,1,A*%
%TO.N,Net-(C8-Pad2)*%
X145728866Y-52300000D03*
D29*
%TO.P,JP7,2,B*%
%TO.N,LINE*%
X148268866Y-52300000D03*
%TD*%
D23*
%TO.P,R19,1*%
%TO.N,Net-(R19-Pad1)*%
X151400000Y-74345000D03*
D24*
%TO.P,R19,2*%
%TO.N,Net-(C8-Pad1)*%
X151400000Y-71805000D03*
%TD*%
D19*
%TO.P,J8,1,Pin_1*%
%TO.N,NEUT*%
X120728894Y-41665346D03*
D20*
%TO.P,J8,2,Pin_2*%
%TO.N,Net-(C6-Pad2)*%
X113228894Y-41665346D03*
%TD*%
D28*
%TO.P,JP11,1,A*%
%TO.N,Net-(C11-Pad2)*%
X188200000Y-52300000D03*
D29*
%TO.P,JP11,2,B*%
%TO.N,LINE*%
X190740000Y-52300000D03*
%TD*%
D28*
%TO.P,JP2,1,A*%
%TO.N,Net-(C3-Pad2)*%
X54385697Y-52300000D03*
D29*
%TO.P,JP2,2,B*%
%TO.N,LINE*%
X56925697Y-52300000D03*
%TD*%
D19*
%TO.P,J9,1,Pin_1*%
%TO.N,NEUT*%
X135728894Y-41665346D03*
D20*
%TO.P,J9,2,Pin_2*%
%TO.N,Net-(C7-Pad2)*%
X128228894Y-41665346D03*
%TD*%
D23*
%TO.P,R56,1*%
%TO.N,Net-(Q22-Pad3)*%
X197150000Y-52325000D03*
D24*
%TO.P,R56,2*%
%TO.N,Net-(C11-Pad2)*%
X194610000Y-52325000D03*
%TD*%
D30*
%TO.P,RV12,1*%
%TO.N,NEUT*%
X182680866Y-104529803D03*
%TO.P,RV12,2*%
%TO.N,LINE*%
X181480866Y-109529803D03*
%TD*%
D27*
%TO.P,C2,1*%
%TO.N,Net-(C2-Pad1)*%
X39364073Y-76364655D03*
%TO.P,C2,2*%
%TO.N,Net-(C2-Pad2)*%
X39364073Y-61364655D03*
%TD*%
D25*
%TO.P,Q10,1,A1*%
%TO.N,Net-(C10-Pad2)*%
X176238866Y-57529606D03*
D26*
%TO.P,Q10,2,A2*%
%TO.N,LINE*%
X178778866Y-57529606D03*
%TO.P,Q10,3,G*%
%TO.N,Net-(Q10-Pad3)*%
X181318866Y-57529606D03*
%TD*%
D21*
%TO.P,U10,1*%
%TO.N,Net-(D9-Pad1)*%
X163528866Y-88239803D03*
D22*
%TO.P,U10,2*%
%TO.N,Net-(Q17-Pad3)*%
X166068866Y-88239803D03*
%TO.P,U10,3,NC*%
%TO.N,unconnected-(U10-Pad3)*%
X168608866Y-88239803D03*
%TO.P,U10,4*%
%TO.N,Net-(Q9-Pad3)*%
X168608866Y-80619803D03*
%TO.P,U10,5,NC*%
%TO.N,unconnected-(U10-Pad5)*%
X166068866Y-80619803D03*
%TO.P,U10,6*%
%TO.N,Net-(R20-Pad1)*%
X163528866Y-80619803D03*
%TD*%
D23*
%TO.P,R54,1*%
%TO.N,Net-(R54-Pad1)*%
X196500000Y-74345000D03*
D24*
%TO.P,R54,2*%
%TO.N,Net-(C11-Pad1)*%
X196500000Y-71805000D03*
%TD*%
D17*
%TO.P,D8,1,K*%
%TO.N,Net-(D8-Pad1)*%
X144700000Y-80900000D03*
D18*
%TO.P,D8,2,A*%
%TO.N,Net-(D8-Pad2)*%
X142160000Y-80900000D03*
%TD*%
D37*
%TO.P,F1,1*%
%TO.N,LINE*%
X187564448Y-111028579D03*
X187564448Y-115628579D03*
%TO.P,F1,2*%
X187564448Y-95128579D03*
X187564448Y-99728579D03*
%TD*%
D23*
%TO.P,R24,1*%
%TO.N,LINE*%
X62500000Y-61555000D03*
D24*
%TO.P,R24,2*%
%TO.N,Net-(C3-Pad1)*%
X62500000Y-64095000D03*
%TD*%
D23*
%TO.P,R21,1*%
%TO.N,Net-(R21-Pad1)*%
X182500000Y-74345000D03*
D24*
%TO.P,R21,2*%
%TO.N,Net-(C10-Pad1)*%
X182500000Y-71805000D03*
%TD*%
D23*
%TO.P,R37,1*%
%TO.N,Net-(Q6-Pad3)*%
X122450000Y-52325000D03*
D24*
%TO.P,R37,2*%
%TO.N,Net-(C6-Pad2)*%
X119910000Y-52325000D03*
%TD*%
D23*
%TO.P,R41,1*%
%TO.N,Net-(Q10-Pad3)*%
X182850000Y-52325000D03*
D24*
%TO.P,R41,2*%
%TO.N,Net-(C10-Pad2)*%
X180310000Y-52325000D03*
%TD*%
D19*
%TO.P,J1,1,Pin_1*%
%TO.N,GNDREF*%
X44405000Y-105410000D03*
D20*
%TO.P,J1,2,Pin_2*%
%TO.N,Net-(J1-Pad2)*%
X44405000Y-109220000D03*
%TO.P,J1,3,Pin_3*%
%TO.N,+3V3*%
X44405000Y-113030000D03*
%TD*%
D30*
%TO.P,RV9,1*%
%TO.N,NEUT*%
X166700000Y-49200000D03*
%TO.P,RV9,2*%
%TO.N,Net-(C9-Pad2)*%
X161700000Y-48000000D03*
%TD*%
D27*
%TO.P,C11,1*%
%TO.N,Net-(C11-Pad1)*%
X190300000Y-76300000D03*
%TO.P,C11,2*%
%TO.N,Net-(C11-Pad2)*%
X190300000Y-61300000D03*
%TD*%
D23*
%TO.P,R22,1*%
%TO.N,LINE*%
X107000000Y-61555000D03*
D24*
%TO.P,R22,2*%
%TO.N,Net-(C1-Pad1)*%
X107000000Y-64095000D03*
%TD*%
D17*
%TO.P,D7,1,K*%
%TO.N,Net-(D7-Pad1)*%
X129700000Y-80900000D03*
D18*
%TO.P,D7,2,A*%
%TO.N,Net-(D7-Pad2)*%
X127160000Y-80900000D03*
%TD*%
D28*
%TO.P,J2,1,Pin_1*%
%TO.N,GNDREF*%
X88265000Y-103505000D03*
D29*
%TO.P,J2,2,Pin_2*%
%TO.N,Net-(J2-Pad2)*%
X90805000Y-103505000D03*
%TO.P,J2,3,Pin_3*%
%TO.N,Net-(J2-Pad3)*%
X93345000Y-103505000D03*
%TO.P,J2,4,Pin_4*%
%TO.N,Net-(J2-Pad4)*%
X95885000Y-103505000D03*
%TO.P,J2,5,Pin_5*%
%TO.N,Net-(J2-Pad5)*%
X98425000Y-103505000D03*
%TO.P,J2,6,Pin_6*%
%TO.N,Net-(J2-Pad6)*%
X100965000Y-103505000D03*
%TO.P,J2,7,Pin_7*%
%TO.N,Net-(J2-Pad7)*%
X103505000Y-103505000D03*
%TO.P,J2,8,Pin_8*%
%TO.N,Net-(J2-Pad8)*%
X106045000Y-103505000D03*
%TO.P,J2,9,Pin_9*%
%TO.N,Net-(J2-Pad9)*%
X108585000Y-103505000D03*
%TO.P,J2,10,Pin_10*%
%TO.N,Net-(J2-Pad10)*%
X111125000Y-103505000D03*
%TO.P,J2,11,Pin_11*%
%TO.N,Net-(J2-Pad11)*%
X113665000Y-103505000D03*
%TO.P,J2,12,Pin_12*%
%TO.N,Net-(J2-Pad12)*%
X116205000Y-103505000D03*
%TD*%
D28*
%TO.P,JP8,1,A*%
%TO.N,Net-(C9-Pad2)*%
X159100000Y-52300000D03*
D29*
%TO.P,JP8,2,B*%
%TO.N,LINE*%
X161640000Y-52300000D03*
%TD*%
D30*
%TO.P,RV7,1*%
%TO.N,NEUT*%
X134288866Y-49200000D03*
%TO.P,RV7,2*%
%TO.N,Net-(C7-Pad2)*%
X129288866Y-48000000D03*
%TD*%
D19*
%TO.P,J10,1,Pin_1*%
%TO.N,NEUT*%
X150728894Y-41665346D03*
D20*
%TO.P,J10,2,Pin_2*%
%TO.N,Net-(C8-Pad2)*%
X143228894Y-41665346D03*
%TD*%
D23*
%TO.P,R33,1*%
%TO.N,Net-(Q2-Pad3)*%
X63395000Y-52325000D03*
D24*
%TO.P,R33,2*%
%TO.N,Net-(C3-Pad2)*%
X60855000Y-52325000D03*
%TD*%
D27*
%TO.P,C6,1*%
%TO.N,Net-(C6-Pad1)*%
X115300000Y-76400000D03*
%TO.P,C6,2*%
%TO.N,Net-(C6-Pad2)*%
X115300000Y-61400000D03*
%TD*%
D19*
%TO.P,J3,1,Pin_1*%
%TO.N,NEUT*%
X45728894Y-41665346D03*
D20*
%TO.P,J3,2,Pin_2*%
%TO.N,Net-(C2-Pad2)*%
X38228894Y-41665346D03*
%TD*%
D25*
%TO.P,Q5,1,A1*%
%TO.N,Net-(C1-Pad2)*%
X100673866Y-57529606D03*
D26*
%TO.P,Q5,2,A2*%
%TO.N,LINE*%
X103213866Y-57529606D03*
%TO.P,Q5,3,G*%
%TO.N,Net-(Q5-Pad3)*%
X105753866Y-57529606D03*
%TD*%
D30*
%TO.P,RV4,1*%
%TO.N,NEUT*%
X91700000Y-49200000D03*
%TO.P,RV4,2*%
%TO.N,Net-(C5-Pad2)*%
X86700000Y-48000000D03*
%TD*%
%TO.P,RV10,1*%
%TO.N,NEUT*%
X181700000Y-49200000D03*
%TO.P,RV10,2*%
%TO.N,Net-(C10-Pad2)*%
X176700000Y-48000000D03*
%TD*%
D16*
%TO.P,REF\u002A\u002A,1*%
%TO.N,N/C*%
X203040941Y-43243738D03*
%TD*%
D17*
%TO.P,D1,1,K*%
%TO.N,Net-(D1-Pad1)*%
X38700000Y-80900000D03*
D18*
%TO.P,D1,2,A*%
%TO.N,Net-(D1-Pad2)*%
X36160000Y-80900000D03*
%TD*%
D21*
%TO.P,U9,1*%
%TO.N,Net-(D8-Pad1)*%
X147686227Y-88239803D03*
D22*
%TO.P,U9,2*%
%TO.N,Net-(Q20-Pad3)*%
X150226227Y-88239803D03*
%TO.P,U9,3,NC*%
%TO.N,unconnected-(U9-Pad3)*%
X152766227Y-88239803D03*
%TO.P,U9,4*%
%TO.N,Net-(Q8-Pad3)*%
X152766227Y-80619803D03*
%TO.P,U9,5,NC*%
%TO.N,unconnected-(U9-Pad5)*%
X150226227Y-80619803D03*
%TO.P,U9,6*%
%TO.N,Net-(R19-Pad1)*%
X147686227Y-80619803D03*
%TD*%
D28*
%TO.P,JP10,1,A*%
%TO.N,Net-(C10-Pad2)*%
X173700000Y-52300000D03*
D29*
%TO.P,JP10,2,B*%
%TO.N,LINE*%
X176240000Y-52300000D03*
%TD*%
D27*
%TO.P,C1,1*%
%TO.N,Net-(C1-Pad1)*%
X100700000Y-76400000D03*
%TO.P,C1,2*%
%TO.N,Net-(C1-Pad2)*%
X100700000Y-61400000D03*
%TD*%
D17*
%TO.P,D10,1,K*%
%TO.N,Net-(D10-Pad1)*%
X175800000Y-80900000D03*
D18*
%TO.P,D10,2,A*%
%TO.N,Net-(D10-Pad2)*%
X173260000Y-80900000D03*
%TD*%
D27*
%TO.P,C5,1*%
%TO.N,Net-(C5-Pad1)*%
X85600000Y-76300000D03*
%TO.P,C5,2*%
%TO.N,Net-(C5-Pad2)*%
X85600000Y-61300000D03*
%TD*%
D17*
%TO.P,D11,1,K*%
%TO.N,Net-(D11-Pad1)*%
X189800000Y-80900000D03*
D18*
%TO.P,D11,2,A*%
%TO.N,Net-(D11-Pad2)*%
X187260000Y-80900000D03*
%TD*%
D38*
%TO.P,U1,1,EN*%
%TO.N,unconnected-(U1-Pad1)*%
X121310000Y-93980000D03*
D39*
%TO.P,U1,2,SENSOR_VP*%
%TO.N,unconnected-(U1-Pad2)*%
X118770000Y-93980000D03*
%TO.P,U1,3,SENSOR_VN*%
%TO.N,unconnected-(U1-Pad3)*%
X116230000Y-93980000D03*
%TO.P,U1,4,IO34*%
%TO.N,unconnected-(U1-Pad4)*%
X113690000Y-93980000D03*
%TO.P,U1,5,IO35*%
%TO.N,unconnected-(U1-Pad5)*%
X111150000Y-93980000D03*
%TO.P,U1,6,IO32*%
%TO.N,Net-(J2-Pad9)*%
X108610000Y-93980000D03*
%TO.P,U1,7,IO33*%
%TO.N,Net-(J2-Pad8)*%
X106070000Y-93980000D03*
%TO.P,U1,8,IO25*%
%TO.N,Net-(J2-Pad7)*%
X103530000Y-93980000D03*
%TO.P,U1,9,IO26*%
%TO.N,Net-(J2-Pad6)*%
X100990000Y-93980000D03*
%TO.P,U1,10,IO27*%
%TO.N,Net-(J2-Pad5)*%
X98450000Y-93980000D03*
%TO.P,U1,11,IO14*%
%TO.N,Net-(J2-Pad4)*%
X95910000Y-93980000D03*
%TO.P,U1,12,IO12*%
%TO.N,unconnected-(U1-Pad12)*%
X93370000Y-93980000D03*
%TO.P,U1,13,IO13*%
%TO.N,Net-(J2-Pad2)*%
X90830000Y-93980000D03*
%TO.P,U1,14,GND*%
%TO.N,GNDREF*%
X88290000Y-93980000D03*
%TO.P,U1,15,VIN*%
%TO.N,Net-(D12-Pad1)*%
X85750000Y-93980000D03*
%TO.P,U1,16,3V3*%
%TO.N,+3V3*%
X85750000Y-119380000D03*
%TO.P,U1,17,GND*%
%TO.N,GNDREF*%
X88290000Y-119380000D03*
%TO.P,U1,18,IO15*%
%TO.N,Net-(J1-Pad2)*%
X90830000Y-119380000D03*
%TO.P,U1,19,IO2*%
%TO.N,unconnected-(U1-Pad19)*%
X93370000Y-119380000D03*
%TO.P,U1,20,IO4*%
%TO.N,unconnected-(U1-Pad20)*%
X95910000Y-119380000D03*
%TO.P,U1,21,IO16*%
%TO.N,unconnected-(U1-Pad21)*%
X98450000Y-119380000D03*
%TO.P,U1,22,IO17*%
%TO.N,unconnected-(U1-Pad22)*%
X100990000Y-119380000D03*
%TO.P,U1,23,IO5*%
%TO.N,Net-(R57-Pad1)*%
X103530000Y-119380000D03*
%TO.P,U1,24,IO18*%
%TO.N,Net-(JP12-Pad2)*%
X106070000Y-119380000D03*
%TO.P,U1,25,IO19*%
%TO.N,Net-(J2-Pad3)*%
X108610000Y-119380000D03*
%TO.P,U1,26,IO21*%
%TO.N,Net-(J2-Pad10)*%
X111150000Y-119380000D03*
%TO.P,U1,27,RXD0/IO3*%
%TO.N,unconnected-(U1-Pad27)*%
X113690000Y-119380000D03*
%TO.P,U1,28,TXD0/IO1*%
%TO.N,unconnected-(U1-Pad28)*%
X116230000Y-119380000D03*
%TO.P,U1,29,IO22*%
%TO.N,Net-(J2-Pad11)*%
X118770000Y-119380000D03*
%TO.P,U1,30,IO23*%
%TO.N,Net-(J2-Pad12)*%
X121310000Y-119380000D03*
%TD*%
D21*
%TO.P,U3,1*%
%TO.N,Net-(D2-Pad1)*%
X58763866Y-88239803D03*
D22*
%TO.P,U3,2*%
%TO.N,Net-(Q11-Pad3)*%
X61303866Y-88239803D03*
%TO.P,U3,3,NC*%
%TO.N,unconnected-(U3-Pad3)*%
X63843866Y-88239803D03*
%TO.P,U3,4*%
%TO.N,Net-(Q2-Pad3)*%
X63843866Y-80619803D03*
%TO.P,U3,5,NC*%
%TO.N,unconnected-(U3-Pad5)*%
X61303866Y-80619803D03*
%TO.P,U3,6*%
%TO.N,Net-(R14-Pad1)*%
X58763866Y-80619803D03*
%TD*%
D23*
%TO.P,R35,1*%
%TO.N,Net-(Q4-Pad3)*%
X92495000Y-52325000D03*
D24*
%TO.P,R35,2*%
%TO.N,Net-(C5-Pad2)*%
X89955000Y-52325000D03*
%TD*%
D30*
%TO.P,RV8,1*%
%TO.N,NEUT*%
X152068866Y-49200000D03*
%TO.P,RV8,2*%
%TO.N,Net-(C8-Pad2)*%
X147068866Y-48000000D03*
%TD*%
D19*
%TO.P,J4,1,Pin_1*%
%TO.N,NEUT*%
X60728894Y-41665346D03*
D20*
%TO.P,J4,2,Pin_2*%
%TO.N,Net-(C3-Pad2)*%
X53228894Y-41665346D03*
%TD*%
D27*
%TO.P,C10,1*%
%TO.N,Net-(C10-Pad1)*%
X176300000Y-76300000D03*
%TO.P,C10,2*%
%TO.N,Net-(C10-Pad2)*%
X176300000Y-61300000D03*
%TD*%
%TO.P,C9,1*%
%TO.N,Net-(C9-Pad1)*%
X161100000Y-76400000D03*
%TO.P,C9,2*%
%TO.N,Net-(C9-Pad2)*%
X161100000Y-61400000D03*
%TD*%
D21*
%TO.P,U7,1*%
%TO.N,Net-(D6-Pad1)*%
X117852341Y-88251926D03*
D22*
%TO.P,U7,2*%
%TO.N,Net-(Q21-Pad3)*%
X120392341Y-88251926D03*
%TO.P,U7,3,NC*%
%TO.N,unconnected-(U7-Pad3)*%
X122932341Y-88251926D03*
%TO.P,U7,4*%
%TO.N,Net-(Q6-Pad3)*%
X122932341Y-80631926D03*
%TO.P,U7,5,NC*%
%TO.N,unconnected-(U7-Pad5)*%
X120392341Y-80631926D03*
%TO.P,U7,6*%
%TO.N,Net-(R17-Pad1)*%
X117852341Y-80631926D03*
%TD*%
D30*
%TO.P,RV11,1*%
%TO.N,NEUT*%
X196300000Y-49200000D03*
%TO.P,RV11,2*%
%TO.N,Net-(C11-Pad2)*%
X191300000Y-48000000D03*
%TD*%
D23*
%TO.P,R16,1*%
%TO.N,Net-(R16-Pad1)*%
X91800000Y-74345000D03*
D24*
%TO.P,R16,2*%
%TO.N,Net-(C5-Pad1)*%
X91800000Y-71805000D03*
%TD*%
D25*
%TO.P,Q4,1,A1*%
%TO.N,Net-(C5-Pad2)*%
X85433866Y-57529606D03*
D26*
%TO.P,Q4,2,A2*%
%TO.N,LINE*%
X87973866Y-57529606D03*
%TO.P,Q4,3,G*%
%TO.N,Net-(Q4-Pad3)*%
X90513866Y-57529606D03*
%TD*%
D25*
%TO.P,Q22,1,A1*%
%TO.N,Net-(C11-Pad2)*%
X190208866Y-57529606D03*
D26*
%TO.P,Q22,2,A2*%
%TO.N,LINE*%
X192748866Y-57529606D03*
%TO.P,Q22,3,G*%
%TO.N,Net-(Q22-Pad3)*%
X195288866Y-57529606D03*
%TD*%
D27*
%TO.P,C8,1*%
%TO.N,Net-(C8-Pad1)*%
X145200000Y-76400000D03*
%TO.P,C8,2*%
%TO.N,Net-(C8-Pad2)*%
X145200000Y-61400000D03*
%TD*%
D23*
%TO.P,R18,1*%
%TO.N,Net-(R18-Pad1)*%
X136200000Y-74345000D03*
D24*
%TO.P,R18,2*%
%TO.N,Net-(C7-Pad1)*%
X136200000Y-71805000D03*
%TD*%
D23*
%TO.P,R14,1*%
%TO.N,Net-(R14-Pad1)*%
X62500000Y-74345000D03*
D24*
%TO.P,R14,2*%
%TO.N,Net-(C3-Pad1)*%
X62500000Y-71805000D03*
%TD*%
D16*
%TO.P,REF\u002A\u002A,1*%
%TO.N,N/C*%
X50513745Y-99401667D03*
%TD*%
D17*
%TO.P,D6,1,K*%
%TO.N,Net-(D6-Pad1)*%
X114900000Y-81000000D03*
D18*
%TO.P,D6,2,A*%
%TO.N,Net-(D6-Pad2)*%
X112360000Y-81000000D03*
%TD*%
D21*
%TO.P,U12,1*%
%TO.N,Net-(D11-Pad1)*%
X192738866Y-88239803D03*
D22*
%TO.P,U12,2*%
%TO.N,Net-(Q15-Pad3)*%
X195278866Y-88239803D03*
%TO.P,U12,3,NC*%
%TO.N,unconnected-(U12-Pad3)*%
X197818866Y-88239803D03*
%TO.P,U12,4*%
%TO.N,Net-(Q22-Pad3)*%
X197818866Y-80619803D03*
%TO.P,U12,5,NC*%
%TO.N,unconnected-(U12-Pad5)*%
X195278866Y-80619803D03*
%TO.P,U12,6*%
%TO.N,Net-(R54-Pad1)*%
X192738866Y-80619803D03*
%TD*%
D23*
%TO.P,R29,1*%
%TO.N,LINE*%
X151400000Y-61555000D03*
D24*
%TO.P,R29,2*%
%TO.N,Net-(C8-Pad1)*%
X151400000Y-64095000D03*
%TD*%
D23*
%TO.P,R13,1*%
%TO.N,Net-(R13-Pad1)*%
X45400000Y-74345000D03*
D24*
%TO.P,R13,2*%
%TO.N,Net-(C2-Pad1)*%
X45400000Y-71805000D03*
%TD*%
D23*
%TO.P,R32,1*%
%TO.N,Net-(Q1-Pad3)*%
X45880000Y-52325000D03*
D24*
%TO.P,R32,2*%
%TO.N,Net-(C2-Pad2)*%
X43340000Y-52325000D03*
%TD*%
D19*
%TO.P,J11,1,Pin_1*%
%TO.N,NEUT*%
X165728894Y-41665346D03*
D20*
%TO.P,J11,2,Pin_2*%
%TO.N,Net-(C9-Pad2)*%
X158228894Y-41665346D03*
%TD*%
D23*
%TO.P,R39,1*%
%TO.N,Net-(Q8-Pad3)*%
X154373866Y-52325000D03*
D24*
%TO.P,R39,2*%
%TO.N,Net-(C8-Pad2)*%
X151833866Y-52325000D03*
%TD*%
D40*
%TO.P,PS1,1,AC/L*%
%TO.N,LINE*%
X176323366Y-109152540D03*
D37*
%TO.P,PS1,2,AC/N*%
%TO.N,NEUT*%
X176323366Y-104152540D03*
%TO.P,PS1,3,-Vout*%
%TO.N,GNDREF*%
X146923366Y-114352540D03*
%TO.P,PS1,4,+Vout*%
%TO.N,+5V*%
X146923366Y-98952540D03*
%TD*%
D21*
%TO.P,U5,1*%
%TO.N,Net-(D4-Pad1)*%
X87963866Y-88239803D03*
D22*
%TO.P,U5,2*%
%TO.N,Net-(Q13-Pad3)*%
X90503866Y-88239803D03*
%TO.P,U5,3,NC*%
%TO.N,unconnected-(U5-Pad3)*%
X93043866Y-88239803D03*
%TO.P,U5,4*%
%TO.N,Net-(Q4-Pad3)*%
X93043866Y-80619803D03*
%TO.P,U5,5,NC*%
%TO.N,unconnected-(U5-Pad5)*%
X90503866Y-80619803D03*
%TO.P,U5,6*%
%TO.N,Net-(R16-Pad1)*%
X87963866Y-80619803D03*
%TD*%
D30*
%TO.P,RV3,1*%
%TO.N,NEUT*%
X76700000Y-49200000D03*
%TO.P,RV3,2*%
%TO.N,Net-(C4-Pad2)*%
X71700000Y-48000000D03*
%TD*%
D21*
%TO.P,U6,1*%
%TO.N,Net-(D5-Pad1)*%
X103213866Y-88249803D03*
D22*
%TO.P,U6,2*%
%TO.N,Net-(Q18-Pad3)*%
X105753866Y-88249803D03*
%TO.P,U6,3,NC*%
%TO.N,unconnected-(U6-Pad3)*%
X108293866Y-88249803D03*
%TO.P,U6,4*%
%TO.N,Net-(Q5-Pad3)*%
X108293866Y-80629803D03*
%TO.P,U6,5,NC*%
%TO.N,unconnected-(U6-Pad5)*%
X105753866Y-80629803D03*
%TO.P,U6,6*%
%TO.N,Net-(R12-Pad1)*%
X103213866Y-80629803D03*
%TD*%
D23*
%TO.P,R17,1*%
%TO.N,Net-(R17-Pad1)*%
X121600000Y-74345000D03*
D24*
%TO.P,R17,2*%
%TO.N,Net-(C6-Pad1)*%
X121600000Y-71805000D03*
%TD*%
D23*
%TO.P,R36,1*%
%TO.N,Net-(Q5-Pad3)*%
X107850000Y-52325000D03*
D24*
%TO.P,R36,2*%
%TO.N,Net-(C1-Pad2)*%
X105310000Y-52325000D03*
%TD*%
D17*
%TO.P,D9,1,K*%
%TO.N,Net-(D9-Pad1)*%
X160600000Y-81000000D03*
D18*
%TO.P,D9,2,A*%
%TO.N,Net-(D9-Pad2)*%
X158060000Y-81000000D03*
%TD*%
D23*
%TO.P,R12,1*%
%TO.N,Net-(R12-Pad1)*%
X107000000Y-74345000D03*
D24*
%TO.P,R12,2*%
%TO.N,Net-(C1-Pad1)*%
X107000000Y-71805000D03*
%TD*%
D23*
%TO.P,R15,1*%
%TO.N,Net-(R15-Pad1)*%
X77100000Y-74345000D03*
D24*
%TO.P,R15,2*%
%TO.N,Net-(C4-Pad1)*%
X77100000Y-71805000D03*
%TD*%
D25*
%TO.P,Q6,1,A1*%
%TO.N,Net-(C6-Pad2)*%
X115278866Y-57529606D03*
D26*
%TO.P,Q6,2,A2*%
%TO.N,LINE*%
X117818866Y-57529606D03*
%TO.P,Q6,3,G*%
%TO.N,Net-(Q6-Pad3)*%
X120358866Y-57529606D03*
%TD*%
D23*
%TO.P,R23,1*%
%TO.N,LINE*%
X45400000Y-61555000D03*
D24*
%TO.P,R23,2*%
%TO.N,Net-(C2-Pad1)*%
X45400000Y-64095000D03*
%TD*%
D21*
%TO.P,U4,1*%
%TO.N,Net-(D3-Pad1)*%
X73358866Y-88239803D03*
D22*
%TO.P,U4,2*%
%TO.N,Net-(Q12-Pad3)*%
X75898866Y-88239803D03*
%TO.P,U4,3,NC*%
%TO.N,unconnected-(U4-Pad3)*%
X78438866Y-88239803D03*
%TO.P,U4,4*%
%TO.N,Net-(Q3-Pad3)*%
X78438866Y-80619803D03*
%TO.P,U4,5,NC*%
%TO.N,unconnected-(U4-Pad5)*%
X75898866Y-80619803D03*
%TO.P,U4,6*%
%TO.N,Net-(R15-Pad1)*%
X73358866Y-80619803D03*
%TD*%
D28*
%TO.P,JP4,1,A*%
%TO.N,Net-(C1-Pad2)*%
X98788866Y-52320000D03*
D29*
%TO.P,JP4,2,B*%
%TO.N,LINE*%
X101328866Y-52320000D03*
%TD*%
D23*
%TO.P,R20,1*%
%TO.N,Net-(R20-Pad1)*%
X167300000Y-74345000D03*
D24*
%TO.P,R20,2*%
%TO.N,Net-(C9-Pad1)*%
X167300000Y-71805000D03*
%TD*%
D30*
%TO.P,RV5,1*%
%TO.N,NEUT*%
X106700000Y-49200000D03*
%TO.P,RV5,2*%
%TO.N,Net-(C1-Pad2)*%
X101700000Y-48000000D03*
%TD*%
D41*
%TO.N,+5V*%
X93000000Y-84300000D03*
X83350000Y-95550000D03*
X122000000Y-84400000D03*
%TD*%
D42*
%TO.N,Net-(C11-Pad1)*%
X191600000Y-66800000D02*
X191300000Y-66800000D01*
X196500000Y-71700000D02*
X191600000Y-66800000D01*
X196500000Y-71805000D02*
X196500000Y-71700000D01*
%TO.N,Net-(C10-Pad1)*%
X177800000Y-67000000D02*
X177800000Y-66100000D01*
X182500000Y-71805000D02*
X182500000Y-71700000D01*
X182500000Y-71700000D02*
X177800000Y-67000000D01*
%TO.N,Net-(C9-Pad1)*%
X162600000Y-67100000D02*
X162600000Y-66200000D01*
X167300000Y-71800000D02*
X162600000Y-67100000D01*
X167300000Y-71805000D02*
X167300000Y-71800000D01*
%TO.N,Net-(C8-Pad1)*%
X146450000Y-66850000D02*
X146450000Y-66550000D01*
X151400000Y-71805000D02*
X151400000Y-71800000D01*
X151400000Y-71800000D02*
X146450000Y-66850000D01*
%TO.N,Net-(C7-Pad1)*%
X131300000Y-66900000D02*
X131300000Y-66600000D01*
X136200000Y-71800000D02*
X131300000Y-66900000D01*
X136200000Y-71805000D02*
X136200000Y-71800000D01*
%TO.N,Net-(C6-Pad1)*%
X117200000Y-67400000D02*
X117200000Y-66500000D01*
X121600000Y-71800000D02*
X117200000Y-67400000D01*
X121600000Y-71805000D02*
X121600000Y-71800000D01*
%TO.N,Net-(C1-Pad1)*%
X102650000Y-67350000D02*
X102650000Y-66550000D01*
X107000000Y-71700000D02*
X102650000Y-67350000D01*
X107000000Y-71805000D02*
X107000000Y-71700000D01*
%TO.N,Net-(C4-Pad1)*%
X77100000Y-71800000D02*
X72300000Y-67000000D01*
X72300000Y-67000000D02*
X72300000Y-66600000D01*
X77100000Y-71805000D02*
X77100000Y-71800000D01*
%TO.N,Net-(C3-Pad1)*%
X57700000Y-67100000D02*
X57700000Y-66700000D01*
X62405000Y-71805000D02*
X57700000Y-67100000D01*
X62500000Y-71805000D02*
X62405000Y-71805000D01*
%TO.N,Net-(C2-Pad1)*%
X41500000Y-67800000D02*
X41500000Y-66400000D01*
X45400000Y-71700000D02*
X41500000Y-67800000D01*
X45400000Y-71805000D02*
X45400000Y-71700000D01*
%TO.N,Net-(C5-Pad1)*%
X91800000Y-71805000D02*
X87500000Y-67505000D01*
X87500000Y-66000000D02*
X85600000Y-67900000D01*
X87500000Y-67505000D02*
X87500000Y-66000000D01*
X89405000Y-64095000D02*
X87500000Y-66000000D01*
%TO.N,Net-(C2-Pad1)*%
X43805000Y-64095000D02*
X41500000Y-66400000D01*
X41500000Y-66400000D02*
X39364073Y-68535927D01*
%TO.N,Net-(C3-Pad1)*%
X57700000Y-66700000D02*
X56500000Y-67900000D01*
X60305000Y-64095000D02*
X57700000Y-66700000D01*
%TO.N,Net-(C4-Pad1)*%
X72300000Y-66600000D02*
X71000000Y-67900000D01*
X74805000Y-64095000D02*
X72300000Y-66600000D01*
%TO.N,Net-(C1-Pad1)*%
X102650000Y-66550000D02*
X100700000Y-68500000D01*
X105105000Y-64095000D02*
X102650000Y-66550000D01*
%TO.N,Net-(C11-Pad1)*%
X191300000Y-66800000D02*
X190300000Y-67800000D01*
X194005000Y-64095000D02*
X191300000Y-66800000D01*
%TO.N,Net-(C10-Pad1)*%
X177800000Y-66100000D02*
X176300000Y-67600000D01*
X179805000Y-64095000D02*
X177800000Y-66100000D01*
%TO.N,Net-(C9-Pad1)*%
X164705000Y-64095000D02*
X162600000Y-66200000D01*
X162600000Y-66200000D02*
X161100000Y-67700000D01*
%TO.N,Net-(C8-Pad1)*%
X146450000Y-66550000D02*
X145200000Y-67800000D01*
X148905000Y-64095000D02*
X146450000Y-66550000D01*
%TO.N,Net-(C7-Pad1)*%
X131300000Y-66600000D02*
X130000000Y-67900000D01*
X133805000Y-64095000D02*
X131300000Y-66600000D01*
%TO.N,Net-(C6-Pad1)*%
X117200000Y-66500000D02*
X115300000Y-68400000D01*
X119605000Y-64095000D02*
X117200000Y-66500000D01*
%TO.N,Net-(C3-Pad2)*%
X56223866Y-57529606D02*
X56223866Y-61123866D01*
X56223866Y-61123866D02*
X56500000Y-61400000D01*
D43*
%TO.N,Net-(C2-Pad2)*%
X40200000Y-48000000D02*
X43340000Y-51140000D01*
X43340000Y-51140000D02*
X43340000Y-52325000D01*
D42*
X39078866Y-61079448D02*
X39364073Y-61364655D01*
X39078866Y-57529606D02*
X39078866Y-61079448D01*
%TO.N,Net-(C5-Pad1)*%
X91700000Y-71705000D02*
X91800000Y-71805000D01*
X91700000Y-64095000D02*
X91700000Y-71705000D01*
D44*
%TO.N,GNDREF*%
X76670866Y-101014804D02*
X88215196Y-101014804D01*
D45*
X66790000Y-93900000D02*
X69785197Y-96895197D01*
D46*
X146923366Y-114352540D02*
X146923366Y-110310395D01*
D44*
X88265000Y-103505000D02*
X88265000Y-100965000D01*
D45*
X70600000Y-95000000D02*
X71100000Y-94500000D01*
D44*
X88265000Y-100965000D02*
X88265000Y-94005000D01*
D46*
X146684298Y-109733235D02*
X144854933Y-107903870D01*
D45*
X65656956Y-105661956D02*
X64770000Y-104775000D01*
D44*
X88265000Y-119355000D02*
X88265000Y-117475000D01*
X57085197Y-105150197D02*
X57085197Y-94300000D01*
D45*
X70925197Y-95625197D02*
X71055197Y-95625197D01*
D44*
X73400000Y-94000000D02*
X73300000Y-94100000D01*
X132682125Y-106012125D02*
X134227762Y-107557762D01*
D45*
X73400000Y-94000000D02*
X73400000Y-95510000D01*
D42*
X138080197Y-107664803D02*
X141890197Y-107664803D01*
D44*
X44340197Y-105785197D02*
X45500000Y-104625394D01*
X130810000Y-116205000D02*
X132080000Y-117475000D01*
X71100000Y-94500000D02*
X71000000Y-94500000D01*
X71100000Y-94500000D02*
X71200000Y-94400000D01*
D45*
X69882697Y-96895197D02*
X69882697Y-94317303D01*
X72390000Y-96520000D02*
X71120000Y-95250000D01*
X72390000Y-96520000D02*
X73025000Y-95885000D01*
X66040000Y-96520000D02*
X69947500Y-96520000D01*
X73400000Y-95510000D02*
X72390000Y-96520000D01*
D44*
X45500000Y-94500000D02*
X45900000Y-94100000D01*
X88867125Y-106012125D02*
X132682125Y-106012125D01*
X45500000Y-94500000D02*
X45800000Y-94200000D01*
X56515000Y-105410000D02*
X57150000Y-104775000D01*
D45*
X70600000Y-96100000D02*
X70600000Y-95000000D01*
D44*
X88265000Y-103505000D02*
X88265000Y-105410000D01*
D45*
X69947500Y-96520000D02*
X69850000Y-96520000D01*
X73025000Y-95885000D02*
X73025000Y-93980000D01*
D44*
X76670866Y-96572895D02*
X76670866Y-101014804D01*
D45*
X72390000Y-94210000D02*
X72500000Y-94100000D01*
X65592153Y-96512153D02*
X65592153Y-94207847D01*
D44*
X71200000Y-94400000D02*
X73300000Y-94400000D01*
D45*
X65656956Y-96136956D02*
X66040000Y-96520000D01*
X72390000Y-96520000D02*
X72390000Y-94210000D01*
X72905000Y-94100000D02*
X68100000Y-94100000D01*
D44*
X89535000Y-116205000D02*
X130810000Y-116205000D01*
X88265000Y-105410000D02*
X88867125Y-106012125D01*
D42*
X137795000Y-107950000D02*
X138080197Y-107664803D01*
D44*
X88265000Y-117475000D02*
X89535000Y-116205000D01*
X45500000Y-104625394D02*
X45500000Y-94500000D01*
D45*
X69882697Y-94317303D02*
X70100000Y-94100000D01*
D44*
X74436063Y-94000000D02*
X76431798Y-95995735D01*
X73400000Y-94000000D02*
X74436063Y-94000000D01*
D45*
X70485000Y-96520000D02*
X72390000Y-96520000D01*
D44*
X71000000Y-94500000D02*
X70400000Y-95100000D01*
X88215196Y-101014804D02*
X88265000Y-100965000D01*
X70200000Y-94900000D02*
X70200000Y-94400000D01*
X45900000Y-94100000D02*
X69690197Y-94100000D01*
X73300000Y-94100000D02*
X68100000Y-94100000D01*
X73300000Y-94400000D02*
X73900000Y-95000000D01*
D45*
X70485000Y-96520000D02*
X73025000Y-93980000D01*
X65592153Y-94207847D02*
X65900000Y-93900000D01*
X73025000Y-93980000D02*
X72905000Y-94100000D01*
D44*
X132080000Y-117475000D02*
X143800906Y-117475000D01*
D45*
X65656956Y-105661956D02*
X65656956Y-96136956D01*
D42*
X144615866Y-107664803D02*
X144854933Y-107903870D01*
D44*
X44405000Y-105410000D02*
X56515000Y-105410000D01*
D46*
X88265000Y-119355000D02*
X88290000Y-119380000D01*
D44*
X88265000Y-94005000D02*
X88290000Y-93980000D01*
D45*
X69947500Y-96520000D02*
X70485000Y-96520000D01*
D44*
X57150000Y-104775000D02*
X64770000Y-104775000D01*
D45*
X65656956Y-111277825D02*
X65656956Y-105661956D01*
X70400000Y-95100000D02*
X70925197Y-95625197D01*
D44*
X143800906Y-117475000D02*
X146923366Y-114352540D01*
D42*
X141890197Y-107664803D02*
X144615866Y-107664803D01*
D44*
X134227762Y-107557762D02*
X137608606Y-107557762D01*
D45*
X65900000Y-93900000D02*
X66790000Y-93900000D01*
D44*
X70400000Y-95100000D02*
X70200000Y-94900000D01*
D46*
X146684304Y-109733229D02*
G75*
G02*
X146923366Y-110310395I-577204J-577171D01*
G01*
D44*
X76670887Y-96572895D02*
G75*
G03*
X76431798Y-95995735I-816187J-5D01*
G01*
D42*
%TO.N,Net-(C1-Pad1)*%
X100700000Y-68500000D02*
X100700000Y-76400000D01*
X107000000Y-64095000D02*
X105105000Y-64095000D01*
%TO.N,Net-(C1-Pad2)*%
X102100000Y-48400000D02*
X102600000Y-48400000D01*
X101700000Y-48000000D02*
X102100000Y-48400000D01*
X100673866Y-57529606D02*
X100673866Y-61373866D01*
X105310000Y-52110000D02*
X105310000Y-52325000D01*
X100100000Y-48100000D02*
X98788866Y-49411134D01*
X98788866Y-52320000D02*
X98788866Y-55644606D01*
X98788866Y-49411134D02*
X98788866Y-52320000D01*
X101600000Y-48100000D02*
X100100000Y-48100000D01*
X98228894Y-44528894D02*
X101700000Y-48000000D01*
X102600000Y-48400000D02*
X102600000Y-49400000D01*
X98228894Y-41665346D02*
X98228894Y-44528894D01*
X101700000Y-48000000D02*
X101600000Y-48100000D01*
X98788866Y-55644606D02*
X100673866Y-57529606D01*
X100673866Y-61373866D02*
X100700000Y-61400000D01*
X102600000Y-49400000D02*
X105310000Y-52110000D01*
D43*
%TO.N,Net-(C2-Pad2)*%
X36600000Y-52300000D02*
X36600000Y-49900000D01*
X38228894Y-46028894D02*
X38228894Y-41665346D01*
D47*
X43518092Y-52070000D02*
X43827799Y-52070000D01*
D43*
X40200000Y-48000000D02*
X38228894Y-46028894D01*
X36600000Y-49900000D02*
X38500000Y-48000000D01*
X38500000Y-48000000D02*
X40200000Y-48000000D01*
X36600000Y-54954808D02*
X36600000Y-54612647D01*
X36600000Y-54500000D02*
X36600000Y-52300000D01*
X38906491Y-57261299D02*
X36600000Y-54954808D01*
D47*
X43858825Y-52144959D02*
G75*
G03*
X43827799Y-52070000I-31025J31059D01*
G01*
D42*
%TO.N,Net-(C4-Pad1)*%
X71000000Y-67900000D02*
X71000000Y-76400000D01*
X77100000Y-64095000D02*
X74805000Y-64095000D01*
%TO.N,Net-(C4-Pad2)*%
X69900000Y-48000000D02*
X68893866Y-49006134D01*
X68893866Y-55594606D02*
X70828866Y-57529606D01*
X68893866Y-52300000D02*
X68893866Y-55594606D01*
X70828866Y-57529606D02*
X70828866Y-61228866D01*
X68228894Y-41665346D02*
X68228894Y-44528894D01*
X71700000Y-48000000D02*
X69900000Y-48000000D01*
X75355000Y-51655000D02*
X75355000Y-52325000D01*
X71700000Y-48000000D02*
X75355000Y-51655000D01*
D45*
X70828866Y-61228866D02*
X71000000Y-61400000D01*
D42*
X68228894Y-44528894D02*
X71700000Y-48000000D01*
X68893866Y-49006134D02*
X68893866Y-52300000D01*
D45*
%TO.N,Net-(R13-Pad1)*%
X41608866Y-80619803D02*
X41608866Y-78691134D01*
X41608866Y-78691134D02*
X45400000Y-74900000D01*
X45400000Y-74900000D02*
X45400000Y-74345000D01*
%TO.N,Net-(R17-Pad1)*%
X121600000Y-74800000D02*
X121600000Y-74345000D01*
X117852341Y-78547659D02*
X121600000Y-74800000D01*
X117852341Y-80631926D02*
X117852341Y-78547659D01*
%TO.N,Net-(R19-Pad1)*%
X147686227Y-80619803D02*
X147686227Y-78613773D01*
X147686227Y-78613773D02*
X151400000Y-74900000D01*
X151400000Y-74900000D02*
X151400000Y-74345000D01*
%TO.N,Net-(R21-Pad1)*%
X182500000Y-74900000D02*
X182500000Y-74345000D01*
X178768866Y-80619803D02*
X178768866Y-78631134D01*
X178768866Y-78631134D02*
X182500000Y-74900000D01*
%TO.N,Net-(R12-Pad1)*%
X103213866Y-80629803D02*
X103213866Y-78536134D01*
X107000000Y-74750000D02*
X107000000Y-74345000D01*
X103213866Y-78536134D02*
X107000000Y-74750000D01*
%TO.N,Net-(R14-Pad1)*%
X58763866Y-78636134D02*
X62500000Y-74900000D01*
X62500000Y-74900000D02*
X62500000Y-74345000D01*
X58763866Y-80619803D02*
X58763866Y-78636134D01*
%TO.N,Net-(R16-Pad1)*%
X87963866Y-80619803D02*
X87963866Y-78686134D01*
X91900000Y-74750000D02*
X91900000Y-74445000D01*
X87963866Y-78686134D02*
X91900000Y-74750000D01*
X91900000Y-74445000D02*
X91800000Y-74345000D01*
%TO.N,Net-(R18-Pad1)*%
X132705000Y-78495000D02*
X136200000Y-75000000D01*
X132705000Y-80619803D02*
X132705000Y-78495000D01*
X136200000Y-75000000D02*
X136200000Y-74345000D01*
%TO.N,Net-(R20-Pad1)*%
X163528866Y-80619803D02*
X163528866Y-78571134D01*
X167300000Y-74800000D02*
X167300000Y-74345000D01*
X163528866Y-78571134D02*
X167300000Y-74800000D01*
D42*
%TO.N,Net-(C5-Pad2)*%
X88500000Y-49800000D02*
X88500000Y-50000000D01*
X83228894Y-41665346D02*
X83228894Y-44528894D01*
X84500000Y-48000000D02*
X83498866Y-49001134D01*
X86700000Y-48000000D02*
X88500000Y-49800000D01*
X85433866Y-57529606D02*
X85433866Y-61133866D01*
X86700000Y-48000000D02*
X84500000Y-48000000D01*
X83228894Y-44528894D02*
X86700000Y-48000000D01*
X83498866Y-52300000D02*
X83498866Y-55594606D01*
X89955000Y-51455000D02*
X89955000Y-52325000D01*
X88500000Y-50000000D02*
X89955000Y-51455000D01*
X83498866Y-55594606D02*
X85433866Y-57529606D01*
X85433866Y-61133866D02*
X85600000Y-61300000D01*
X83498866Y-49001134D02*
X83498866Y-52300000D01*
%TO.N,Net-(C2-Pad1)*%
X39364073Y-68535927D02*
X39364073Y-76364655D01*
X45400000Y-64095000D02*
X43805000Y-64095000D01*
%TO.N,Net-(C6-Pad2)*%
X116700000Y-48000000D02*
X115000000Y-48000000D01*
X113343866Y-49656134D02*
X113343866Y-52300000D01*
D45*
X115278866Y-61378866D02*
X115300000Y-61400000D01*
D42*
X113343866Y-55594606D02*
X115278866Y-57529606D01*
X116700000Y-48000000D02*
X117800000Y-49100000D01*
X113343866Y-52300000D02*
X113343866Y-55594606D01*
X115000000Y-48000000D02*
X113343866Y-49656134D01*
X117800000Y-49700000D02*
X119910000Y-51810000D01*
X119910000Y-51810000D02*
X119910000Y-52325000D01*
X117800000Y-49100000D02*
X117800000Y-49700000D01*
X113228894Y-41665346D02*
X113228894Y-44528894D01*
X113228894Y-44528894D02*
X116700000Y-48000000D01*
X115278866Y-57478866D02*
X115278866Y-61378866D01*
X114300000Y-56500000D02*
X115278866Y-57478866D01*
D45*
%TO.N,Net-(Q3-Pad3)*%
X79400000Y-77400000D02*
X79400000Y-57700000D01*
X75908866Y-57529606D02*
X79229606Y-57529606D01*
X79229606Y-57529606D02*
X79400000Y-57700000D01*
X79400000Y-57700000D02*
X79400000Y-53830000D01*
X78400000Y-78400000D02*
X79400000Y-77400000D01*
X79400000Y-53830000D02*
X77895000Y-52325000D01*
X78400000Y-80580937D02*
X78400000Y-78400000D01*
X77895000Y-55543472D02*
X77895000Y-52325000D01*
X75908866Y-57529606D02*
X77895000Y-55543472D01*
X78438866Y-80619803D02*
X78400000Y-80580937D01*
%TO.N,Net-(Q4-Pad3)*%
X94500000Y-77200000D02*
X94500000Y-57100000D01*
X93200000Y-78500000D02*
X94500000Y-77200000D01*
X90513866Y-57529606D02*
X92495000Y-55548472D01*
X93043866Y-80619803D02*
X93200000Y-80463669D01*
X94500000Y-54330000D02*
X92495000Y-52325000D01*
X94070394Y-57529606D02*
X94500000Y-57100000D01*
X90513866Y-57529606D02*
X94070394Y-57529606D01*
X92495000Y-55548472D02*
X92495000Y-52325000D01*
X93200000Y-80463669D02*
X93200000Y-78500000D01*
X94500000Y-57100000D02*
X94500000Y-54330000D01*
%TO.N,Net-(Q6-Pad3)*%
X122932341Y-78867659D02*
X122932341Y-80631926D01*
X124100000Y-57400000D02*
X124070394Y-57429606D01*
X124168866Y-77631134D02*
X122932341Y-78867659D01*
X122450000Y-55438472D02*
X122450000Y-52325000D01*
X122450000Y-52325000D02*
X124168866Y-54043866D01*
X124168866Y-54043866D02*
X124168866Y-77631134D01*
X124070394Y-57429606D02*
X120358866Y-57429606D01*
X120358866Y-57529606D02*
X122450000Y-55438472D01*
%TO.N,Net-(Q7-Pad3)*%
X139200000Y-57700000D02*
X139200000Y-55566134D01*
X137700000Y-78600000D02*
X139200000Y-77100000D01*
X137700000Y-80534803D02*
X137700000Y-78600000D01*
X135958866Y-56534606D02*
X135958866Y-52325000D01*
X134963866Y-57529606D02*
X135958866Y-56534606D01*
X139200000Y-55566134D02*
X135958866Y-52325000D01*
X139200000Y-77100000D02*
X139200000Y-57700000D01*
X137785000Y-80619803D02*
X137700000Y-80534803D01*
X134963866Y-57529606D02*
X139029606Y-57529606D01*
X139029606Y-57529606D02*
X139200000Y-57700000D01*
%TO.N,Net-(Q8-Pad3)*%
X154200000Y-77500000D02*
X152766227Y-78933773D01*
X150203866Y-57529606D02*
X154170394Y-57529606D01*
X154200000Y-57500000D02*
X154200000Y-77500000D01*
X152766227Y-78933773D02*
X152766227Y-80619803D01*
X154200000Y-57500000D02*
X154200000Y-52498866D01*
X154200000Y-52498866D02*
X154373866Y-52325000D01*
X154170394Y-57529606D02*
X154200000Y-57500000D01*
X150203866Y-57529606D02*
X154373866Y-53359606D01*
X154373866Y-53359606D02*
X154373866Y-52325000D01*
%TO.N,Net-(Q9-Pad3)*%
X169888866Y-57688866D02*
X169888866Y-54663866D01*
X169888866Y-54663866D02*
X167550000Y-52325000D01*
X169888866Y-77511134D02*
X168608866Y-78791134D01*
X168608866Y-78791134D02*
X168608866Y-80619803D01*
X166078866Y-57529606D02*
X167550000Y-56058472D01*
X169729606Y-57529606D02*
X169888866Y-57688866D01*
X169888866Y-57688866D02*
X169888866Y-77511134D01*
X167550000Y-56058472D02*
X167550000Y-52325000D01*
X166078866Y-57529606D02*
X169729606Y-57529606D01*
D42*
%TO.N,Net-(C7-Pad2)*%
X127313866Y-52300000D02*
X127313866Y-54959606D01*
X127313866Y-54959606D02*
X129883866Y-57529606D01*
X128228894Y-41665346D02*
X128228894Y-46940028D01*
X127313866Y-48586134D02*
X127313866Y-52300000D01*
X128228894Y-46940028D02*
X129288866Y-48000000D01*
X129288866Y-48195000D02*
X133418866Y-52325000D01*
D45*
X129883866Y-61283866D02*
X130000000Y-61400000D01*
D42*
X129288866Y-48000000D02*
X128100000Y-48000000D01*
X129883866Y-57529606D02*
X129883866Y-61283866D01*
X128000000Y-47900000D02*
X127313866Y-48586134D01*
X129288866Y-48000000D02*
X129288866Y-48195000D01*
X128100000Y-48000000D02*
X128000000Y-47900000D01*
D44*
%TO.N,+3V3*%
X137160000Y-113030000D02*
X81915000Y-113030000D01*
D47*
X69850000Y-106680000D02*
X69850000Y-114300000D01*
D44*
X80645000Y-114300000D02*
X81915000Y-113030000D01*
X45675000Y-114300000D02*
X69850000Y-114300000D01*
X85090000Y-119380000D02*
X85750000Y-119380000D01*
X69850000Y-114300000D02*
X80645000Y-114300000D01*
D47*
X72390000Y-104140000D02*
X69850000Y-106680000D01*
D44*
X83185000Y-113030000D02*
X83820000Y-113665000D01*
X137552238Y-112637762D02*
X137160000Y-113030000D01*
X137608606Y-112637762D02*
X137552238Y-112637762D01*
X83820000Y-118110000D02*
X85090000Y-119380000D01*
X83820000Y-113665000D02*
X83820000Y-118110000D01*
X44405000Y-113030000D02*
X45675000Y-114300000D01*
X81915000Y-113030000D02*
X83185000Y-113030000D01*
D42*
%TO.N,Net-(C8-Pad1)*%
X145200000Y-67800000D02*
X145200000Y-76400000D01*
X151400000Y-64095000D02*
X148905000Y-64095000D01*
D46*
%TO.N,+5V*%
X137795000Y-102870000D02*
X143005906Y-102870000D01*
D44*
X83300000Y-92100000D02*
X83960000Y-91440000D01*
X83300000Y-92100000D02*
X83300000Y-95500000D01*
X137630866Y-102705866D02*
X137630866Y-97207895D01*
X127470866Y-91440000D02*
X127470866Y-87570866D01*
X132080000Y-91440000D02*
X127856819Y-91440000D01*
X124300000Y-84400000D02*
X122000000Y-84400000D01*
X96440000Y-91440000D02*
X97576062Y-91440000D01*
X137391798Y-96630735D02*
X132201063Y-91440000D01*
X128905000Y-91440000D02*
X97155000Y-91440000D01*
X127470866Y-87570866D02*
X124300000Y-84400000D01*
X83300000Y-95500000D02*
X83350000Y-95550000D01*
X132201063Y-91440000D02*
X132080000Y-91440000D01*
D46*
X143005906Y-102870000D02*
X146923366Y-98952540D01*
D44*
X137795000Y-102870000D02*
X137630866Y-102705866D01*
X94100000Y-84300000D02*
X93000000Y-84300000D01*
X96440000Y-86640000D02*
X94100000Y-84300000D01*
X83960000Y-91440000D02*
X96440000Y-91440000D01*
X96440000Y-91440000D02*
X96440000Y-86640000D01*
X137391774Y-96630759D02*
G75*
G02*
X137630866Y-97207895I-577274J-577241D01*
G01*
D47*
%TO.N,Net-(J2-Pad9)*%
X108610000Y-103480000D02*
X108585000Y-103505000D01*
X108610000Y-93980000D02*
X108610000Y-103480000D01*
D42*
%TO.N,Net-(C8-Pad2)*%
X145728866Y-48571134D02*
X145728866Y-52300000D01*
X145123866Y-52905000D02*
X145123866Y-61323866D01*
X145728866Y-52300000D02*
X145123866Y-52905000D01*
X143228894Y-44160028D02*
X147068866Y-48000000D01*
X147068866Y-48000000D02*
X146568866Y-48500000D01*
D45*
X144727933Y-57925538D02*
X145123866Y-57529606D01*
D42*
X147068866Y-48000000D02*
X147600000Y-48000000D01*
X147600000Y-48000000D02*
X151833866Y-52233866D01*
X146568866Y-48500000D02*
X145800000Y-48500000D01*
X143228894Y-41665346D02*
X143228894Y-44160028D01*
X151833866Y-52233866D02*
X151833866Y-52325000D01*
D45*
X145123866Y-61323866D02*
X145200000Y-61400000D01*
D42*
X144900000Y-53100000D02*
X144900000Y-57305740D01*
X145700000Y-52300000D02*
X144900000Y-53100000D01*
X145800000Y-48500000D02*
X145728866Y-48571134D01*
X145728866Y-52300000D02*
X145700000Y-52300000D01*
D47*
%TO.N,Net-(J2-Pad7)*%
X103530000Y-93980000D02*
X103530000Y-103480000D01*
X103530000Y-103480000D02*
X103505000Y-103505000D01*
%TO.N,Net-(J2-Pad6)*%
X100990000Y-103480000D02*
X100965000Y-103505000D01*
X100990000Y-93980000D02*
X100990000Y-103480000D01*
D42*
%TO.N,Net-(C9-Pad1)*%
X161100000Y-67700000D02*
X161100000Y-76400000D01*
X167300000Y-64095000D02*
X164705000Y-64095000D01*
%TO.N,LINE*%
X147663866Y-59363866D02*
X149855000Y-61555000D01*
X86038866Y-52738866D02*
X88000000Y-54700000D01*
X71433866Y-53233866D02*
X73368866Y-55168866D01*
X73368866Y-55168866D02*
X73368866Y-57529606D01*
X149855000Y-61555000D02*
X151400000Y-61555000D01*
X119955000Y-61555000D02*
X121600000Y-61555000D01*
X41618866Y-54778866D02*
X39140000Y-52300000D01*
X73368866Y-57529606D02*
X73368866Y-58568866D01*
D43*
X187668866Y-115581163D02*
X187668866Y-112731134D01*
D46*
X172951798Y-97743870D02*
X169619933Y-101075735D01*
D42*
X129853866Y-52753866D02*
X132423866Y-55323866D01*
X178778866Y-55378866D02*
X178778866Y-57529606D01*
X166055000Y-61555000D02*
X167300000Y-61555000D01*
X76355000Y-61555000D02*
X77100000Y-61555000D01*
X58763866Y-57529606D02*
X58763866Y-59363866D01*
D46*
X172476695Y-109152540D02*
X176056600Y-109152540D01*
D42*
X178778866Y-57529606D02*
X178778866Y-59078866D01*
X163538866Y-59038866D02*
X166055000Y-61555000D01*
X88000000Y-57503472D02*
X87973866Y-57529606D01*
X73368866Y-58568866D02*
X76355000Y-61555000D01*
X41618866Y-57529606D02*
X41618866Y-59118866D01*
X41618866Y-59118866D02*
X44055000Y-61555000D01*
X147663866Y-54336134D02*
X147663866Y-57529606D01*
X132423866Y-55323866D02*
X132423866Y-57529606D01*
X101328866Y-52320000D02*
X101328866Y-52728866D01*
X176240000Y-52300000D02*
X176240000Y-52840000D01*
X163538866Y-57529606D02*
X163538866Y-59038866D01*
X88000000Y-54700000D02*
X88000000Y-57503472D01*
X192748866Y-59348866D02*
X194955000Y-61555000D01*
X58763866Y-59363866D02*
X60955000Y-61555000D01*
D46*
X176967394Y-109529803D02*
X181480866Y-109529803D01*
D42*
X115883866Y-52300000D02*
X115883866Y-52883866D01*
X87973866Y-57529606D02*
X87973866Y-59273866D01*
X58763866Y-54863866D02*
X58763866Y-57529606D01*
X56925697Y-52300000D02*
X56925697Y-53025697D01*
X132423866Y-59123866D02*
X134855000Y-61555000D01*
D46*
X201700000Y-62800000D02*
X201700000Y-91106816D01*
X184467535Y-109529803D02*
X187668866Y-112731134D01*
D42*
X129853866Y-52300000D02*
X129853866Y-52753866D01*
D46*
X201700000Y-91106816D02*
X201638866Y-91167950D01*
D42*
X148268866Y-53731134D02*
X147663866Y-54336134D01*
X103213866Y-57529606D02*
X103213866Y-59313866D01*
X190740000Y-53140000D02*
X192748866Y-55148866D01*
X148268866Y-52300000D02*
X148268866Y-53731134D01*
X192748866Y-57529606D02*
X192748866Y-59348866D01*
D46*
X185667933Y-97743870D02*
X187497049Y-99572986D01*
X196500000Y-61555000D02*
X200455000Y-61555000D01*
D42*
X147663866Y-57529606D02*
X147663866Y-59363866D01*
X178778866Y-59078866D02*
X181255000Y-61555000D01*
X41618866Y-57529606D02*
X41618866Y-54778866D01*
X194865000Y-107200000D02*
X195800000Y-106265000D01*
D43*
X187668866Y-112731134D02*
X187668866Y-111044803D01*
D42*
X117818866Y-57529606D02*
X117818866Y-59418866D01*
X161640000Y-53540000D02*
X163538866Y-55438866D01*
X56925697Y-53025697D02*
X58763866Y-54863866D01*
D46*
X169380866Y-106056710D02*
X169380866Y-101652895D01*
D42*
X117818866Y-59418866D02*
X119955000Y-61555000D01*
X187564448Y-109135552D02*
X189500000Y-107200000D01*
D46*
X187968864Y-95144803D02*
X194445773Y-95144803D01*
D42*
X60955000Y-61555000D02*
X62500000Y-61555000D01*
X189500000Y-107200000D02*
X194865000Y-107200000D01*
X90255000Y-61555000D02*
X91700000Y-61555000D01*
X197741816Y-95065000D02*
X201638866Y-91167950D01*
X103213866Y-59313866D02*
X105455000Y-61555000D01*
X105455000Y-61555000D02*
X107000000Y-61555000D01*
X86038866Y-52300000D02*
X86038866Y-52738866D01*
X87973866Y-59273866D02*
X90255000Y-61555000D01*
X115883866Y-52883866D02*
X117818866Y-54818866D01*
D46*
X181480866Y-109529803D02*
X184467535Y-109529803D01*
D42*
X44055000Y-61555000D02*
X45400000Y-61555000D01*
D46*
X169619933Y-106633870D02*
X171899535Y-108913472D01*
D42*
X103213866Y-54613866D02*
X103213866Y-57529606D01*
X194955000Y-61555000D02*
X196500000Y-61555000D01*
X195800000Y-95065000D02*
X197741816Y-95065000D01*
X192748866Y-55148866D02*
X192748866Y-57529606D01*
X163538866Y-55438866D02*
X163538866Y-57529606D01*
X161640000Y-52300000D02*
X161640000Y-53540000D01*
X101328866Y-52728866D02*
X103213866Y-54613866D01*
X132423866Y-57529606D02*
X132423866Y-59123866D01*
X181255000Y-61555000D02*
X182500000Y-61555000D01*
X190740000Y-52300000D02*
X190740000Y-53140000D01*
X117818866Y-54818866D02*
X117818866Y-57529606D01*
X176240000Y-52840000D02*
X178778866Y-55378866D01*
D46*
X187668866Y-95444801D02*
X187668866Y-99501817D01*
X185090773Y-97504803D02*
X173528958Y-97504803D01*
D42*
X134855000Y-61555000D02*
X135800000Y-61555000D01*
X187564448Y-111028579D02*
X187564448Y-109135552D01*
D46*
X200455000Y-61555000D02*
X201700000Y-62800000D01*
D42*
X71433866Y-52300000D02*
X71433866Y-53233866D01*
D46*
X172476695Y-109152539D02*
G75*
G02*
X171899535Y-108913472I5J816239D01*
G01*
X185090773Y-97504813D02*
G75*
G02*
X185667933Y-97743870I27J-816187D01*
G01*
X187668903Y-95444801D02*
G75*
G02*
X187968864Y-95144803I299997J1D01*
G01*
X169380861Y-106056710D02*
G75*
G03*
X169619933Y-106633870I816239J10D01*
G01*
X173528958Y-97504765D02*
G75*
G03*
X172951799Y-97743871I42J-816235D01*
G01*
X169380865Y-101652895D02*
G75*
G02*
X169619934Y-101075736I816235J-5D01*
G01*
X176512005Y-109341163D02*
G75*
G03*
X176967394Y-109529803I455395J455363D01*
G01*
D42*
%TO.N,Net-(C9-Pad2)*%
X161700000Y-48000000D02*
X161700000Y-48400000D01*
D45*
X160998866Y-61298866D02*
X161100000Y-61400000D01*
D42*
X161700000Y-48000000D02*
X160000000Y-48000000D01*
X161700000Y-48400000D02*
X165010000Y-51710000D01*
X159100000Y-52300000D02*
X159100000Y-55630740D01*
X160998866Y-57529606D02*
X160998866Y-61298866D01*
X158228894Y-41665346D02*
X158228894Y-44528894D01*
X165010000Y-51710000D02*
X165010000Y-52325000D01*
X159100000Y-48900000D02*
X159100000Y-52300000D01*
X160000000Y-48000000D02*
X159100000Y-48900000D01*
X158228894Y-44528894D02*
X161700000Y-48000000D01*
X159100000Y-55630740D02*
X160998866Y-57529606D01*
%TO.N,Net-(C10-Pad1)*%
X182500000Y-64095000D02*
X179805000Y-64095000D01*
X176300000Y-67600000D02*
X176300000Y-76300000D01*
D47*
%TO.N,Net-(J2-Pad2)*%
X90830000Y-103480000D02*
X90805000Y-103505000D01*
X90830000Y-93980000D02*
X90830000Y-103480000D01*
D42*
%TO.N,Net-(C10-Pad2)*%
X173228894Y-44528894D02*
X176700000Y-48000000D01*
X173700000Y-49000000D02*
X173700000Y-52300000D01*
X176300000Y-57590740D02*
X176238866Y-57529606D01*
X180310000Y-51910000D02*
X180310000Y-52325000D01*
X176700000Y-48000000D02*
X176700000Y-48300000D01*
X174800000Y-47900000D02*
X173700000Y-49000000D01*
X176700000Y-48300000D02*
X180310000Y-51910000D01*
X175200000Y-48300000D02*
X174800000Y-47900000D01*
X176400000Y-48300000D02*
X175200000Y-48300000D01*
X173700000Y-52300000D02*
X173700000Y-54990740D01*
X176700000Y-48000000D02*
X176400000Y-48300000D01*
X173228894Y-41665346D02*
X173228894Y-44528894D01*
X173700000Y-54990740D02*
X176238866Y-57529606D01*
X176300000Y-61300000D02*
X176300000Y-57590740D01*
%TO.N,Net-(C11-Pad1)*%
X190300000Y-67800000D02*
X190300000Y-76300000D01*
X196500000Y-64095000D02*
X194005000Y-64095000D01*
%TO.N,Net-(C11-Pad2)*%
X190000000Y-47500000D02*
X188200000Y-49300000D01*
X190500000Y-48000000D02*
X190000000Y-47500000D01*
X190300000Y-57620740D02*
X190208866Y-57529606D01*
X188200000Y-49300000D02*
X188200000Y-52300000D01*
X188228894Y-41665346D02*
X188228894Y-44928894D01*
X190300000Y-61300000D02*
X190300000Y-57620740D01*
X188200000Y-55520740D02*
X190208866Y-57529606D01*
X188200000Y-52300000D02*
X188200000Y-55520740D01*
X194610000Y-51810000D02*
X194610000Y-52325000D01*
X191300000Y-48000000D02*
X191300000Y-48500000D01*
X191300000Y-48500000D02*
X194610000Y-51810000D01*
X191300000Y-48000000D02*
X190500000Y-48000000D01*
X188228894Y-44928894D02*
X191300000Y-48000000D01*
D47*
%TO.N,Net-(D4-Pad1)*%
X85100000Y-83600000D02*
X87963866Y-86463866D01*
X87963866Y-86463866D02*
X87963866Y-88239803D01*
X85100000Y-80900000D02*
X85100000Y-83600000D01*
%TO.N,Net-(D8-Pad1)*%
X144700000Y-80900000D02*
X144700000Y-83200000D01*
X144700000Y-83200000D02*
X147700000Y-86200000D01*
X147700000Y-86200000D02*
X147700000Y-88226030D01*
X147700000Y-88226030D02*
X147686227Y-88239803D01*
D45*
%TO.N,Net-(R54-Pad1)*%
X192738866Y-80619803D02*
X192738866Y-78461134D01*
X192738866Y-78461134D02*
X196500000Y-74700000D01*
X196500000Y-74700000D02*
X196500000Y-74345000D01*
D42*
%TO.N,NEUT*%
X61700000Y-42636452D02*
X60728894Y-41665346D01*
X106700000Y-42636452D02*
X105728894Y-41665346D01*
X76700000Y-42636452D02*
X75728894Y-41665346D01*
X76700000Y-49200000D02*
X76700000Y-42636452D01*
X152068866Y-49200000D02*
X152068866Y-43005318D01*
X181700000Y-42636452D02*
X180728894Y-41665346D01*
X184010669Y-103200000D02*
X182680866Y-104529803D01*
X200660000Y-109840000D02*
X200660000Y-100960000D01*
X152068866Y-43005318D02*
X150728894Y-41665346D01*
X199155000Y-111345000D02*
X200660000Y-109840000D01*
X61700000Y-49200000D02*
X61700000Y-42636452D01*
X106700000Y-49200000D02*
X106700000Y-42636452D01*
X121700000Y-49200000D02*
X121700000Y-42636452D01*
X166700000Y-42636452D02*
X165728894Y-41665346D01*
X45200000Y-49200000D02*
X45728894Y-48671106D01*
D44*
X182036837Y-104152540D02*
X176323366Y-104152540D01*
D42*
X200660000Y-100960000D02*
X199845000Y-100145000D01*
X192075000Y-103200000D02*
X184010669Y-103200000D01*
X91700000Y-49200000D02*
X91700000Y-42636452D01*
X166700000Y-49200000D02*
X166700000Y-42636452D01*
X196300000Y-49200000D02*
X196300000Y-42236452D01*
X195130000Y-100145000D02*
X192075000Y-103200000D01*
X121700000Y-42636452D02*
X120728894Y-41665346D01*
X181700000Y-49200000D02*
X181700000Y-42636452D01*
X134288866Y-43105374D02*
X135728894Y-41665346D01*
X91700000Y-42636452D02*
X90728894Y-41665346D01*
X45728894Y-48671106D02*
X45728894Y-41665346D01*
X196300000Y-42236452D02*
X195728894Y-41665346D01*
X134288866Y-49200000D02*
X134288866Y-43105374D01*
X199845000Y-100145000D02*
X195130000Y-100145000D01*
X195800000Y-111345000D02*
X199155000Y-111345000D01*
D44*
X182036837Y-104152523D02*
G75*
G02*
X182492234Y-104341171I-37J-644077D01*
G01*
X182947631Y-104529788D02*
G75*
G02*
X182492234Y-104341171I-31J643988D01*
G01*
D47*
%TO.N,Net-(D1-Pad1)*%
X41608866Y-86508866D02*
X41608866Y-88239803D01*
X38700000Y-83600000D02*
X41608866Y-86508866D01*
X38700000Y-80900000D02*
X38700000Y-83600000D01*
%TO.N,Net-(D2-Pad1)*%
X55900000Y-83300000D02*
X58763866Y-86163866D01*
X58763866Y-86163866D02*
X58763866Y-88239803D01*
X55900000Y-80900000D02*
X55900000Y-83300000D01*
%TO.N,Net-(D3-Pad1)*%
X70475000Y-83375000D02*
X73358866Y-86258866D01*
X70475000Y-80900000D02*
X70475000Y-83375000D01*
X73358866Y-86258866D02*
X73358866Y-88239803D01*
%TO.N,Net-(D7-Pad1)*%
X129700000Y-83500000D02*
X132705000Y-86505000D01*
X132705000Y-86505000D02*
X132705000Y-88239803D01*
X129700000Y-80900000D02*
X129700000Y-83500000D01*
%TO.N,Net-(D5-Pad1)*%
X100275000Y-81000000D02*
X100275000Y-83275000D01*
X100275000Y-83275000D02*
X103213866Y-86213866D01*
X103213866Y-86213866D02*
X103213866Y-88249803D01*
%TO.N,Net-(D6-Pad1)*%
X114900000Y-81000000D02*
X114900000Y-84200000D01*
X117852341Y-84852341D02*
X117852341Y-88251926D01*
X117200000Y-84200000D02*
X117852341Y-84852341D01*
X114900000Y-84200000D02*
X117200000Y-84200000D01*
%TO.N,Net-(D9-Pad1)*%
X160600000Y-83000000D02*
X163528866Y-85928866D01*
X160600000Y-81000000D02*
X160600000Y-83000000D01*
X163528866Y-85928866D02*
X163528866Y-88239803D01*
%TO.N,Net-(D10-Pad1)*%
X175800000Y-80900000D02*
X175900000Y-81000000D01*
X175900000Y-83000000D02*
X178768866Y-85868866D01*
X178768866Y-85868866D02*
X178768866Y-88239803D01*
X175900000Y-81000000D02*
X175900000Y-83000000D01*
D45*
%TO.N,Net-(Q22-Pad3)*%
X195288866Y-57529606D02*
X197150000Y-55668472D01*
X197150000Y-55668472D02*
X197150000Y-52325000D01*
%TO.N,Net-(Q1-Pad3)*%
X44158866Y-57529606D02*
X47629606Y-57529606D01*
X44158866Y-57529606D02*
X45880000Y-55808472D01*
X45880000Y-55808472D02*
X45880000Y-52325000D01*
X45930000Y-52070000D02*
X47700000Y-53840000D01*
X46700000Y-80608669D02*
X46688866Y-80619803D01*
X46700000Y-78400000D02*
X46700000Y-80608669D01*
X47700000Y-53840000D02*
X47700000Y-57600000D01*
X47700000Y-77400000D02*
X46700000Y-78400000D01*
X47700000Y-57600000D02*
X47700000Y-77400000D01*
X47629606Y-57529606D02*
X47700000Y-57600000D01*
D47*
%TO.N,Net-(D11-Pad1)*%
X192738866Y-86938866D02*
X189800000Y-84000000D01*
X189800000Y-84000000D02*
X189800000Y-80900000D01*
X192738866Y-88239803D02*
X192738866Y-86938866D01*
%TO.N,Net-(J2-Pad4)*%
X95910000Y-93980000D02*
X95910000Y-103480000D01*
X95910000Y-103480000D02*
X95885000Y-103505000D01*
%TO.N,Net-(J2-Pad5)*%
X98450000Y-93980000D02*
X98450000Y-103480000D01*
X98450000Y-103480000D02*
X98425000Y-103505000D01*
%TO.N,Net-(J2-Pad8)*%
X106070000Y-103480000D02*
X106045000Y-103505000D01*
X106070000Y-93980000D02*
X106070000Y-103480000D01*
D45*
%TO.N,Net-(Q2-Pad3)*%
X63395000Y-55438472D02*
X63395000Y-52325000D01*
X63395000Y-52325000D02*
X64700000Y-53630000D01*
X64629606Y-57529606D02*
X64700000Y-57600000D01*
X64700000Y-57600000D02*
X64700000Y-77700000D01*
X61303866Y-57529606D02*
X64629606Y-57529606D01*
X63843866Y-78556134D02*
X63843866Y-80619803D01*
X64700000Y-53630000D02*
X64700000Y-57600000D01*
X64700000Y-77700000D02*
X63843866Y-78556134D01*
X61303866Y-57529606D02*
X63395000Y-55438472D01*
%TO.N,Net-(Q5-Pad3)*%
X105753866Y-57529606D02*
X107850000Y-55433472D01*
X105753866Y-57529606D02*
X109429606Y-57529606D01*
X107850000Y-52325000D02*
X109563866Y-54038866D01*
X109563866Y-57663866D02*
X109563866Y-77536134D01*
X109563866Y-77536134D02*
X108293866Y-78806134D01*
X109429606Y-57529606D02*
X109563866Y-57663866D01*
X108293866Y-78806134D02*
X108293866Y-80629803D01*
X109563866Y-54038866D02*
X109563866Y-57663866D01*
X107850000Y-55433472D02*
X107850000Y-52325000D01*
%TO.N,Net-(Q10-Pad3)*%
X185100000Y-77400000D02*
X185100000Y-57400000D01*
X181318866Y-57529606D02*
X182850000Y-55998472D01*
X181318866Y-57529606D02*
X184970394Y-57529606D01*
X185100000Y-54575000D02*
X182850000Y-52325000D01*
X183848866Y-78651134D02*
X185100000Y-77400000D01*
X184970394Y-57529606D02*
X185100000Y-57400000D01*
X185100000Y-57400000D02*
X185100000Y-54575000D01*
X183848866Y-80619803D02*
X183848866Y-78651134D01*
X182850000Y-55998472D02*
X182850000Y-52325000D01*
D42*
%TO.N,Net-(C3-Pad1)*%
X56500000Y-67900000D02*
X56500000Y-76400000D01*
X62500000Y-64095000D02*
X60305000Y-64095000D01*
%TO.N,Net-(C3-Pad2)*%
X56700000Y-48000000D02*
X56500000Y-48200000D01*
X53160000Y-41910000D02*
X53160000Y-44257177D01*
X53228894Y-44528894D02*
X56700000Y-48000000D01*
X56700000Y-48000000D02*
X60855000Y-52155000D01*
X54385697Y-52300000D02*
X54385697Y-55691437D01*
X55300000Y-48200000D02*
X54385697Y-49114303D01*
X60855000Y-52155000D02*
X60855000Y-52325000D01*
X56500000Y-48200000D02*
X55300000Y-48200000D01*
X53228894Y-41665346D02*
X53228894Y-44528894D01*
X54385697Y-55691437D02*
X56223866Y-57529606D01*
X54385697Y-49114303D02*
X54385697Y-52300000D01*
%TO.N,Net-(C5-Pad1)*%
X91700000Y-64095000D02*
X89405000Y-64095000D01*
X85600000Y-67900000D02*
X85600000Y-76300000D01*
%TO.N,Net-(C6-Pad1)*%
X121600000Y-64095000D02*
X119605000Y-64095000D01*
X115300000Y-68400000D02*
X115300000Y-76400000D01*
%TO.N,Net-(C7-Pad1)*%
X136200000Y-64095000D02*
X133805000Y-64095000D01*
X130000000Y-67900000D02*
X130000000Y-76400000D01*
D45*
%TO.N,Net-(R15-Pad1)*%
X73358866Y-80619803D02*
X73358866Y-78641134D01*
X73358866Y-78641134D02*
X77100000Y-74900000D01*
X77100000Y-74900000D02*
X77100000Y-74345000D01*
%TD*%
%TA.AperFunction,Conductor*%
%TO.N,GNDREF*%
G36*
X69497290Y-94422914D02*
G01*
X69543915Y-94476454D01*
X69555432Y-94529300D01*
X69553047Y-95902379D01*
X69532926Y-95970465D01*
X69509047Y-95997826D01*
X68971148Y-96458883D01*
X68906410Y-96488029D01*
X68887851Y-96489210D01*
X66081780Y-96460281D01*
X65258114Y-96872114D01*
X65258114Y-104654603D01*
X65238112Y-104722724D01*
X65184456Y-104769217D01*
X65127604Y-104780522D01*
X57841453Y-104519540D01*
X57774092Y-104497113D01*
X57729549Y-104441827D01*
X57719963Y-104393864D01*
X57700979Y-94558114D01*
X57720850Y-94489955D01*
X57774416Y-94443359D01*
X57826666Y-94431871D01*
X69429119Y-94403081D01*
X69497290Y-94422914D01*
G37*
%TD.AperFunction*%
%TD*%
M02*
