M48
; DRILL file {KiCad (6.0.4)} date Sat May  7 15:38:42 2022
; FORMAT={-:-/ absolute / metric / decimal}
; #@! TF.CreationDate,2022-05-07T15:38:42+02:00
; #@! TF.GenerationSoftware,Kicad,Pcbnew,(6.0.4)
; #@! TF.FileFunction,Plated,1,2,PTH
FMAT,2
METRIC
; #@! TA.AperFunction,Plated,PTH,ViaDrill
T1C0.400
; #@! TA.AperFunction,Plated,PTH,ComponentDrill
T2C0.600
; #@! TA.AperFunction,Plated,PTH,ComponentDrill
T3C0.762
; #@! TA.AperFunction,Plated,PTH,ComponentDrill
T4C0.800
; #@! TA.AperFunction,Plated,PTH,ComponentDrill
T5C0.900
; #@! TA.AperFunction,Plated,PTH,ComponentDrill
T6C1.000
; #@! TA.AperFunction,Plated,PTH,ComponentDrill
T7C1.100
; #@! TA.AperFunction,Plated,PTH,ComponentDrill
T8C1.200
; #@! TA.AperFunction,Plated,PTH,ComponentDrill
T9C1.300
; #@! TA.AperFunction,Plated,PTH,ComponentDrill
T10C1.520
%
G90
G05
T1
X-108.069Y36.652
X-78.224Y36.652
T2
X-165.478Y71.384
X-160.478Y70.184
X-147.063Y71.384
X-142.063Y70.184
X-133.093Y71.384
X-128.093Y70.184
X-118.488Y71.384
X-113.488Y70.184
X-103.248Y71.384
X-98.248Y70.184
X-88.643Y71.384
X-83.643Y70.184
X-74.673Y71.384
X-69.673Y70.184
X-56.893Y71.384
X-51.893Y70.184
X-43.558Y71.384
X-38.558Y70.184
X-28.318Y71.384
X-23.318Y70.184
X-22.481Y9.85
X-21.281Y14.85
X-13.713Y71.384
X-8.713Y70.184
T3
X-111.543Y25.05
X-111.543Y-0.35
X-109.003Y25.05
X-109.003Y-0.35
X-106.463Y25.05
X-106.463Y-0.35
X-103.923Y25.05
X-103.923Y-0.35
X-101.383Y25.05
X-101.383Y-0.35
X-98.843Y25.05
X-98.843Y-0.35
X-96.303Y25.05
X-96.303Y-0.35
X-93.763Y25.05
X-93.763Y-0.35
X-91.223Y25.05
X-91.223Y-0.35
X-88.683Y25.05
X-88.683Y-0.35
X-86.143Y25.05
X-86.143Y-0.35
X-83.603Y25.05
X-83.603Y-0.35
X-81.063Y25.05
X-81.063Y-0.35
X-78.523Y25.05
X-78.523Y-0.35
X-75.983Y25.05
X-75.983Y-0.35
T4
X-166.153Y55.895
X-166.153Y53.355
X-166.153Y49.77
X-166.153Y47.23
X-162.353Y38.76
X-162.353Y31.14
X-160.028Y67.31
X-159.813Y38.76
X-159.813Y31.14
X-157.488Y67.31
X-157.273Y38.76
X-157.273Y31.14
X-148.363Y55.895
X-148.363Y53.355
X-148.363Y49.77
X-148.363Y47.23
X-145.198Y38.76
X-145.198Y31.14
X-142.658Y38.76
X-142.658Y31.14
X-141.613Y67.31
X-140.118Y38.76
X-140.118Y31.14
X-139.073Y67.31
X-133.768Y55.895
X-133.768Y53.355
X-133.768Y49.77
X-133.768Y47.23
X-130.603Y38.76
X-130.603Y31.14
X-128.063Y38.76
X-128.063Y31.14
X-127.643Y67.31
X-125.523Y38.76
X-125.523Y31.14
X-125.103Y67.31
X-119.218Y49.79
X-119.218Y47.25
X-119.163Y55.895
X-119.163Y53.355
X-115.998Y38.76
X-115.998Y31.14
X-113.458Y38.76
X-113.458Y31.14
X-113.038Y67.31
X-110.918Y38.76
X-110.918Y31.14
X-110.498Y67.31
X-103.923Y55.895
X-103.923Y53.355
X-103.909Y49.753
X-103.909Y47.213
X-100.748Y38.75
X-100.748Y31.13
X-98.208Y38.75
X-98.208Y31.13
X-97.798Y67.31
X-95.668Y38.75
X-95.668Y31.13
X-95.258Y67.31
X-89.318Y55.895
X-89.318Y53.355
X-89.273Y49.77
X-89.273Y47.23
X-86.11Y38.748
X-86.11Y31.128
X-83.57Y38.748
X-83.57Y31.128
X-83.193Y67.31
X-81.03Y38.748
X-81.03Y31.128
X-80.653Y67.31
X-74.713Y55.895
X-74.713Y53.355
X-74.713Y49.77
X-74.713Y47.23
X-71.257Y38.76
X-71.257Y31.14
X-70.493Y67.31
X-68.717Y38.76
X-68.717Y31.14
X-67.953Y67.31
X-66.177Y38.76
X-66.177Y31.14
X-59.473Y55.895
X-59.473Y53.355
X-59.439Y49.77
X-59.439Y47.23
X-56.276Y38.76
X-56.276Y31.14
X-53.736Y38.76
X-53.736Y31.14
X-52.078Y67.31
X-51.196Y38.76
X-51.196Y31.14
X-49.538Y67.31
X-43.598Y55.895
X-43.598Y53.355
X-43.598Y49.77
X-43.598Y47.23
X-40.433Y38.76
X-40.433Y31.14
X-38.108Y67.31
X-37.893Y38.76
X-37.893Y31.14
X-35.568Y67.31
X-35.353Y38.76
X-35.353Y31.14
X-28.358Y55.895
X-28.358Y53.355
X-28.358Y49.77
X-28.358Y47.23
X-25.193Y38.76
X-25.193Y31.14
X-22.868Y67.31
X-22.653Y38.76
X-22.653Y31.14
X-20.328Y67.31
X-20.113Y38.76
X-20.113Y31.14
X-14.388Y55.895
X-14.388Y53.355
X-14.388Y49.77
X-14.388Y47.23
X-11.223Y38.76
X-11.223Y31.14
X-8.898Y67.31
X-8.683Y38.76
X-8.683Y31.14
X-6.358Y67.31
X-6.143Y38.76
X-6.143Y31.14
T5
X-166.336Y41.315
X-166.336Y38.775
X-149.064Y41.93
X-149.064Y39.39
X-134.523Y41.933
X-134.523Y39.393
X-119.878Y41.941
X-119.878Y39.401
X-104.688Y41.9
X-104.688Y39.36
X-90.147Y41.933
X-90.147Y39.393
X-75.336Y41.93
X-75.336Y39.39
X-60.276Y41.903
X-60.276Y39.363
X-44.363Y41.938
X-44.363Y39.398
X-29.068Y41.938
X-29.068Y39.398
X-15.099Y41.938
X-15.099Y39.398
T6
X-166.768Y67.06
X-164.228Y67.06
X-148.082Y67.093
X-145.542Y67.093
X-135.018Y67.06
X-132.478Y67.06
X-120.413Y67.06
X-117.873Y67.06
X-109.008Y17.43
X-106.468Y17.43
X-105.173Y67.06
X-103.928Y17.43
X-102.633Y67.06
X-101.388Y17.43
X-98.848Y17.43
X-96.308Y17.43
X-93.768Y17.43
X-91.228Y17.43
X-90.568Y67.06
X-88.688Y17.43
X-88.028Y67.06
X-86.148Y17.43
X-83.608Y17.43
X-81.068Y17.43
X-76.598Y67.06
X-74.058Y67.06
X-58.183Y67.06
X-57.039Y20.427
X-57.039Y5.027
X-55.643Y67.06
X-45.483Y67.06
X-42.943Y67.06
X-30.878Y67.06
X-28.338Y67.06
X-27.639Y15.227
X-27.639Y10.227
X-16.273Y67.06
X-13.733Y67.06
T7
X-164.883Y61.85
X-162.343Y61.85
X-159.803Y61.85
X-147.738Y61.85
X-145.198Y61.85
X-142.658Y61.85
X-133.133Y61.85
X-130.593Y61.85
X-128.053Y61.85
X-118.528Y61.85
X-115.988Y61.85
X-113.448Y61.85
X-103.288Y61.85
X-100.748Y61.85
X-98.208Y61.85
X-88.683Y61.85
X-86.143Y61.85
X-83.603Y61.85
X-74.078Y61.85
X-71.538Y61.85
X-68.998Y61.85
X-58.838Y61.85
X-56.298Y61.85
X-53.758Y61.85
X-42.963Y61.85
X-40.423Y61.85
X-37.883Y61.85
X-27.723Y61.85
X-25.183Y61.85
X-22.643Y61.85
X-13.753Y61.85
X-11.213Y61.85
X-8.673Y61.85
T8
X-159.803Y57.785
X-159.803Y42.785
X-142.648Y57.665
X-142.648Y42.665
X-128.053Y57.665
X-128.053Y42.665
X-113.448Y57.665
X-113.448Y42.665
X-98.208Y57.665
X-98.208Y42.665
X-83.603Y57.665
X-83.603Y42.665
X-68.707Y57.665
X-68.707Y42.665
X-53.758Y57.665
X-53.758Y42.665
X-37.883Y57.665
X-37.883Y42.665
X-22.643Y57.665
X-22.643Y42.665
X-8.673Y57.785
X-8.673Y42.785
T9
X-164.497Y77.769
X-159.497Y77.769
X-149.497Y77.769
X-144.497Y77.769
X-134.497Y77.769
X-129.497Y77.769
X-119.497Y77.769
X-114.497Y77.769
X-104.497Y77.769
X-99.497Y77.769
X-89.497Y77.769
X-84.497Y77.769
X-74.497Y77.769
X-69.497Y77.769
X-64.897Y16.715
X-64.897Y11.715
X-59.497Y77.769
X-54.497Y77.769
X-44.497Y77.769
X-39.497Y77.769
X-29.497Y77.769
X-24.497Y77.769
X-16.398Y24.251
X-16.398Y19.651
X-16.398Y8.351
X-16.398Y3.751
X-14.497Y77.769
X-9.497Y77.769
X-8.565Y24.723
X-8.565Y19.723
T10
X-160.782Y18.415
X-160.782Y13.335
X-160.782Y8.255
X-8.038Y8.905
X-8.038Y3.825
T0
M30
