%TF.GenerationSoftware,KiCad,Pcbnew,(6.0.4)*%
%TF.CreationDate,2022-05-07T15:38:29+02:00*%
%TF.ProjectId,Central Heating Control PBA,43656e74-7261-46c2-9048-656174696e67,2.0*%
%TF.SameCoordinates,PXc283690PY71d9820*%
%TF.FileFunction,Copper,L1,Top*%
%TF.FilePolarity,Positive*%
%FSLAX46Y46*%
G04 Gerber Fmt 4.6, Leading zero omitted, Abs format (unit mm)*
G04 Created by KiCad (PCBNEW (6.0.4)) date 2022-05-07 15:38:29*
%MOMM*%
%LPD*%
G01*
G04 APERTURE LIST*
G04 Aperture macros list*
%AMRoundRect*
0 Rectangle with rounded corners*
0 $1 Rounding radius*
0 $2 $3 $4 $5 $6 $7 $8 $9 X,Y pos of 4 corners*
0 Add a 4 corners polygon primitive as box body*
4,1,4,$2,$3,$4,$5,$6,$7,$8,$9,$2,$3,0*
0 Add four circle primitives for the rounded corners*
1,1,$1+$1,$2,$3*
1,1,$1+$1,$4,$5*
1,1,$1+$1,$6,$7*
1,1,$1+$1,$8,$9*
0 Add four rect primitives between the rounded corners*
20,1,$1+$1,$2,$3,$4,$5,0*
20,1,$1+$1,$4,$5,$6,$7,0*
20,1,$1+$1,$6,$7,$8,$9,0*
20,1,$1+$1,$8,$9,$2,$3,0*%
G04 Aperture macros list end*
%ADD10C,0.100000*%
%ADD11C,0.150000*%
%ADD12C,0.300000*%
%ADD13C,0.400000*%
%TA.AperFunction,Profile*%
%ADD14C,0.150000*%
%TD*%
%ADD15C,0.275000*%
%TA.AperFunction,NonConductor*%
%ADD16C,0.275000*%
%TD*%
%TA.AperFunction,NonConductor*%
%ADD17C,0.300000*%
%TD*%
%TA.AperFunction,ComponentPad*%
%ADD18R,1.800000X1.800000*%
%TD*%
%TA.AperFunction,ComponentPad*%
%ADD19C,1.800000*%
%TD*%
%TA.AperFunction,SMDPad,CuDef*%
%ADD20RoundRect,0.250000X-0.350000X-0.450000X0.350000X-0.450000X0.350000X0.450000X-0.350000X0.450000X0*%
%TD*%
%TA.AperFunction,ComponentPad*%
%ADD21R,2.500000X2.500000*%
%TD*%
%TA.AperFunction,ComponentPad*%
%ADD22C,2.500000*%
%TD*%
%TA.AperFunction,ComponentPad*%
%ADD23R,1.600000X2.400000*%
%TD*%
%TA.AperFunction,ComponentPad*%
%ADD24O,1.600000X2.400000*%
%TD*%
%TA.AperFunction,ComponentPad*%
%ADD25C,1.600000*%
%TD*%
%TA.AperFunction,ComponentPad*%
%ADD26O,1.600000X1.600000*%
%TD*%
%TA.AperFunction,ComponentPad*%
%ADD27R,1.905000X2.000000*%
%TD*%
%TA.AperFunction,ComponentPad*%
%ADD28O,1.905000X2.000000*%
%TD*%
%TA.AperFunction,ComponentPad*%
%ADD29C,2.400000*%
%TD*%
%TA.AperFunction,ComponentPad*%
%ADD30R,1.700000X1.700000*%
%TD*%
%TA.AperFunction,ComponentPad*%
%ADD31O,1.700000X1.700000*%
%TD*%
%TA.AperFunction,SMDPad,CuDef*%
%ADD32RoundRect,0.150000X-0.150000X0.587500X-0.150000X-0.587500X0.150000X-0.587500X0.150000X0.587500X0*%
%TD*%
%TA.AperFunction,SMDPad,CuDef*%
%ADD33RoundRect,0.250000X0.350000X0.450000X-0.350000X0.450000X-0.350000X-0.450000X0.350000X-0.450000X0*%
%TD*%
%TA.AperFunction,ComponentPad*%
%ADD34R,3.000000X3.000000*%
%TD*%
%TA.AperFunction,ComponentPad*%
%ADD35C,3.000000*%
%TD*%
%TA.AperFunction,ComponentPad*%
%ADD36C,2.300000*%
%TD*%
%TA.AperFunction,ComponentPad*%
%ADD37R,1.524000X1.524000*%
%TD*%
%TA.AperFunction,ComponentPad*%
%ADD38C,1.524000*%
%TD*%
%TA.AperFunction,ComponentPad*%
%ADD39R,2.300000X2.000000*%
%TD*%
%TA.AperFunction,ViaPad*%
%ADD40C,0.600000*%
%TD*%
%TA.AperFunction,Conductor*%
%ADD41C,1.500000*%
%TD*%
%TA.AperFunction,Conductor*%
%ADD42C,1.600000*%
%TD*%
%TA.AperFunction,Conductor*%
%ADD43C,1.200000*%
%TD*%
%TA.AperFunction,Conductor*%
%ADD44C,0.500000*%
%TD*%
%TA.AperFunction,Conductor*%
%ADD45C,0.800000*%
%TD*%
%TA.AperFunction,Conductor*%
%ADD46C,0.400000*%
%TD*%
%TA.AperFunction,Conductor*%
%ADD47C,2.000000*%
%TD*%
G04 APERTURE END LIST*
D10*
D11*
X-26959800Y-46627200D02*
X-26959800Y-78627200D01*
X81040200Y-78627200D01*
X81040200Y-46627200D01*
X-26959800Y-46627200D01*
D10*
D11*
X-193962000Y109380000D02*
X-193962000Y-80627200D01*
X83040200Y-80627200D01*
X83040200Y109380000D01*
X-193962000Y109380000D01*
D10*
D11*
X-191962000Y107380000D02*
X-191962000Y-78627200D01*
X81040200Y-78627200D01*
X81040200Y107380000D01*
X-191962000Y107380000D01*
D10*
D11*
X-143962000Y107380000D02*
X-143962000Y109380000D01*
D10*
D11*
X-93962000Y107380000D02*
X-93962000Y109380000D01*
D10*
D11*
X-43962000Y107380000D02*
X-43962000Y109380000D01*
D10*
D11*
X6038000Y107380000D02*
X6038000Y109380000D01*
D10*
D11*
X56038000Y107380000D02*
X56038000Y109380000D01*
D10*
D11*
X-167896524Y107791905D02*
X-168639381Y107791905D01*
X-168267953Y107791905D02*
X-168267953Y109091905D01*
X-168391762Y108906191D01*
X-168515572Y108782381D01*
X-168639381Y108720477D01*
D10*
D11*
X-118639381Y108968096D02*
X-118577477Y109030000D01*
X-118453667Y109091905D01*
X-118144143Y109091905D01*
X-118020334Y109030000D01*
X-117958429Y108968096D01*
X-117896524Y108844286D01*
X-117896524Y108720477D01*
X-117958429Y108534762D01*
X-118701286Y107791905D01*
X-117896524Y107791905D01*
D10*
D11*
X-68701286Y109091905D02*
X-67896524Y109091905D01*
X-68329858Y108596667D01*
X-68144143Y108596667D01*
X-68020334Y108534762D01*
X-67958429Y108472858D01*
X-67896524Y108349048D01*
X-67896524Y108039524D01*
X-67958429Y107915715D01*
X-68020334Y107853810D01*
X-68144143Y107791905D01*
X-68515572Y107791905D01*
X-68639381Y107853810D01*
X-68701286Y107915715D01*
D10*
D11*
X-18020334Y108658572D02*
X-18020334Y107791905D01*
X-18329858Y109153810D02*
X-18639381Y108225239D01*
X-17834620Y108225239D01*
D10*
D11*
X32041571Y109091905D02*
X31422523Y109091905D01*
X31360619Y108472858D01*
X31422523Y108534762D01*
X31546333Y108596667D01*
X31855857Y108596667D01*
X31979666Y108534762D01*
X32041571Y108472858D01*
X32103476Y108349048D01*
X32103476Y108039524D01*
X32041571Y107915715D01*
X31979666Y107853810D01*
X31855857Y107791905D01*
X31546333Y107791905D01*
X31422523Y107853810D01*
X31360619Y107915715D01*
D10*
D11*
X81979666Y109091905D02*
X81732047Y109091905D01*
X81608238Y109030000D01*
X81546333Y108968096D01*
X81422523Y108782381D01*
X81360619Y108534762D01*
X81360619Y108039524D01*
X81422523Y107915715D01*
X81484428Y107853810D01*
X81608238Y107791905D01*
X81855857Y107791905D01*
X81979666Y107853810D01*
X82041571Y107915715D01*
X82103476Y108039524D01*
X82103476Y108349048D01*
X82041571Y108472858D01*
X81979666Y108534762D01*
X81855857Y108596667D01*
X81608238Y108596667D01*
X81484428Y108534762D01*
X81422523Y108472858D01*
X81360619Y108349048D01*
D10*
D11*
X-143962000Y-78627200D02*
X-143962000Y-80627200D01*
D10*
D11*
X-93962000Y-78627200D02*
X-93962000Y-80627200D01*
D10*
D11*
X-43962000Y-78627200D02*
X-43962000Y-80627200D01*
D10*
D11*
X6038000Y-78627200D02*
X6038000Y-80627200D01*
D10*
D11*
X56038000Y-78627200D02*
X56038000Y-80627200D01*
D10*
D11*
X-167896524Y-80215295D02*
X-168639381Y-80215295D01*
X-168267953Y-80215295D02*
X-168267953Y-78915295D01*
X-168391762Y-79101009D01*
X-168515572Y-79224819D01*
X-168639381Y-79286723D01*
D10*
D11*
X-118639381Y-79039104D02*
X-118577477Y-78977200D01*
X-118453667Y-78915295D01*
X-118144143Y-78915295D01*
X-118020334Y-78977200D01*
X-117958429Y-79039104D01*
X-117896524Y-79162914D01*
X-117896524Y-79286723D01*
X-117958429Y-79472438D01*
X-118701286Y-80215295D01*
X-117896524Y-80215295D01*
D10*
D11*
X-68701286Y-78915295D02*
X-67896524Y-78915295D01*
X-68329858Y-79410533D01*
X-68144143Y-79410533D01*
X-68020334Y-79472438D01*
X-67958429Y-79534342D01*
X-67896524Y-79658152D01*
X-67896524Y-79967676D01*
X-67958429Y-80091485D01*
X-68020334Y-80153390D01*
X-68144143Y-80215295D01*
X-68515572Y-80215295D01*
X-68639381Y-80153390D01*
X-68701286Y-80091485D01*
D10*
D11*
X-18020334Y-79348628D02*
X-18020334Y-80215295D01*
X-18329858Y-78853390D02*
X-18639381Y-79781961D01*
X-17834620Y-79781961D01*
D10*
D11*
X32041571Y-78915295D02*
X31422523Y-78915295D01*
X31360619Y-79534342D01*
X31422523Y-79472438D01*
X31546333Y-79410533D01*
X31855857Y-79410533D01*
X31979666Y-79472438D01*
X32041571Y-79534342D01*
X32103476Y-79658152D01*
X32103476Y-79967676D01*
X32041571Y-80091485D01*
X31979666Y-80153390D01*
X31855857Y-80215295D01*
X31546333Y-80215295D01*
X31422523Y-80153390D01*
X31360619Y-80091485D01*
D10*
D11*
X81979666Y-78915295D02*
X81732047Y-78915295D01*
X81608238Y-78977200D01*
X81546333Y-79039104D01*
X81422523Y-79224819D01*
X81360619Y-79472438D01*
X81360619Y-79967676D01*
X81422523Y-80091485D01*
X81484428Y-80153390D01*
X81608238Y-80215295D01*
X81855857Y-80215295D01*
X81979666Y-80153390D01*
X82041571Y-80091485D01*
X82103476Y-79967676D01*
X82103476Y-79658152D01*
X82041571Y-79534342D01*
X81979666Y-79472438D01*
X81855857Y-79410533D01*
X81608238Y-79410533D01*
X81484428Y-79472438D01*
X81422523Y-79534342D01*
X81360619Y-79658152D01*
D10*
D11*
X-193962000Y59380000D02*
X-191962000Y59380000D01*
D10*
D11*
X-193962000Y9380000D02*
X-191962000Y9380000D01*
D10*
D11*
X-193962000Y-40620000D02*
X-191962000Y-40620000D01*
D10*
D11*
X-193271524Y84163334D02*
X-192652477Y84163334D01*
X-193395334Y83791905D02*
X-192962000Y85091905D01*
X-192528667Y83791905D01*
D10*
D11*
X-192869143Y34472858D02*
X-192683429Y34410953D01*
X-192621524Y34349048D01*
X-192559620Y34225239D01*
X-192559620Y34039524D01*
X-192621524Y33915715D01*
X-192683429Y33853810D01*
X-192807239Y33791905D01*
X-193302477Y33791905D01*
X-193302477Y35091905D01*
X-192869143Y35091905D01*
X-192745334Y35030000D01*
X-192683429Y34968096D01*
X-192621524Y34844286D01*
X-192621524Y34720477D01*
X-192683429Y34596667D01*
X-192745334Y34534762D01*
X-192869143Y34472858D01*
X-193302477Y34472858D01*
D10*
D11*
X-192559620Y-16084285D02*
X-192621524Y-16146190D01*
X-192807239Y-16208095D01*
X-192931048Y-16208095D01*
X-193116762Y-16146190D01*
X-193240572Y-16022380D01*
X-193302477Y-15898571D01*
X-193364381Y-15650952D01*
X-193364381Y-15465238D01*
X-193302477Y-15217619D01*
X-193240572Y-15093809D01*
X-193116762Y-14970000D01*
X-192931048Y-14908095D01*
X-192807239Y-14908095D01*
X-192621524Y-14970000D01*
X-192559620Y-15031904D01*
D10*
D11*
X-193302477Y-66208095D02*
X-193302477Y-64908095D01*
X-192992953Y-64908095D01*
X-192807239Y-64970000D01*
X-192683429Y-65093809D01*
X-192621524Y-65217619D01*
X-192559620Y-65465238D01*
X-192559620Y-65650952D01*
X-192621524Y-65898571D01*
X-192683429Y-66022380D01*
X-192807239Y-66146190D01*
X-192992953Y-66208095D01*
X-193302477Y-66208095D01*
D10*
D11*
X83040200Y59380000D02*
X81040200Y59380000D01*
D10*
D11*
X83040200Y9380000D02*
X81040200Y9380000D01*
D10*
D11*
X83040200Y-40620000D02*
X81040200Y-40620000D01*
D10*
D11*
X81730676Y84163334D02*
X82349723Y84163334D01*
X81606866Y83791905D02*
X82040200Y85091905D01*
X82473533Y83791905D01*
D10*
D11*
X82133057Y34472858D02*
X82318771Y34410953D01*
X82380676Y34349048D01*
X82442580Y34225239D01*
X82442580Y34039524D01*
X82380676Y33915715D01*
X82318771Y33853810D01*
X82194961Y33791905D01*
X81699723Y33791905D01*
X81699723Y35091905D01*
X82133057Y35091905D01*
X82256866Y35030000D01*
X82318771Y34968096D01*
X82380676Y34844286D01*
X82380676Y34720477D01*
X82318771Y34596667D01*
X82256866Y34534762D01*
X82133057Y34472858D01*
X81699723Y34472858D01*
D10*
D11*
X82442580Y-16084285D02*
X82380676Y-16146190D01*
X82194961Y-16208095D01*
X82071152Y-16208095D01*
X81885438Y-16146190D01*
X81761628Y-16022380D01*
X81699723Y-15898571D01*
X81637819Y-15650952D01*
X81637819Y-15465238D01*
X81699723Y-15217619D01*
X81761628Y-15093809D01*
X81885438Y-14970000D01*
X82071152Y-14908095D01*
X82194961Y-14908095D01*
X82380676Y-14970000D01*
X82442580Y-15031904D01*
D10*
D11*
X81699723Y-66208095D02*
X81699723Y-64908095D01*
X82009247Y-64908095D01*
X82194961Y-64970000D01*
X82318771Y-65093809D01*
X82380676Y-65217619D01*
X82442580Y-65465238D01*
X82442580Y-65650952D01*
X82380676Y-65898571D01*
X82318771Y-66022380D01*
X82194961Y-66146190D01*
X82009247Y-66208095D01*
X81699723Y-66208095D01*
D10*
D11*
X-3527658Y-74405771D02*
X-3527658Y-72905771D01*
X-3170515Y-72905771D01*
X-2956229Y-72977200D01*
X-2813372Y-73120057D01*
X-2741943Y-73262914D01*
X-2670515Y-73548628D01*
X-2670515Y-73762914D01*
X-2741943Y-74048628D01*
X-2813372Y-74191485D01*
X-2956229Y-74334342D01*
X-3170515Y-74405771D01*
X-3527658Y-74405771D01*
X-1384800Y-74405771D02*
X-1384800Y-73620057D01*
X-1456229Y-73477200D01*
X-1599086Y-73405771D01*
X-1884800Y-73405771D01*
X-2027658Y-73477200D01*
X-1384800Y-74334342D02*
X-1527658Y-74405771D01*
X-1884800Y-74405771D01*
X-2027658Y-74334342D01*
X-2099086Y-74191485D01*
X-2099086Y-74048628D01*
X-2027658Y-73905771D01*
X-1884800Y-73834342D01*
X-1527658Y-73834342D01*
X-1384800Y-73762914D01*
X-884800Y-73405771D02*
X-313372Y-73405771D01*
X-670515Y-72905771D02*
X-670515Y-74191485D01*
X-599086Y-74334342D01*
X-456229Y-74405771D01*
X-313372Y-74405771D01*
X758057Y-74334342D02*
X615200Y-74405771D01*
X329485Y-74405771D01*
X186628Y-74334342D01*
X115200Y-74191485D01*
X115200Y-73620057D01*
X186628Y-73477200D01*
X329485Y-73405771D01*
X615200Y-73405771D01*
X758057Y-73477200D01*
X829485Y-73620057D01*
X829485Y-73762914D01*
X115200Y-73905771D01*
X1472342Y-74262914D02*
X1543771Y-74334342D01*
X1472342Y-74405771D01*
X1400914Y-74334342D01*
X1472342Y-74262914D01*
X1472342Y-74405771D01*
X1472342Y-73477200D02*
X1543771Y-73548628D01*
X1472342Y-73620057D01*
X1400914Y-73548628D01*
X1472342Y-73477200D01*
X1472342Y-73620057D01*
X3258057Y-73048628D02*
X3329485Y-72977200D01*
X3472342Y-72905771D01*
X3829485Y-72905771D01*
X3972342Y-72977200D01*
X4043771Y-73048628D01*
X4115200Y-73191485D01*
X4115200Y-73334342D01*
X4043771Y-73548628D01*
X3186628Y-74405771D01*
X4115200Y-74405771D01*
X5043771Y-72905771D02*
X5186628Y-72905771D01*
X5329485Y-72977200D01*
X5400914Y-73048628D01*
X5472342Y-73191485D01*
X5543771Y-73477200D01*
X5543771Y-73834342D01*
X5472342Y-74120057D01*
X5400914Y-74262914D01*
X5329485Y-74334342D01*
X5186628Y-74405771D01*
X5043771Y-74405771D01*
X4900914Y-74334342D01*
X4829485Y-74262914D01*
X4758057Y-74120057D01*
X4686628Y-73834342D01*
X4686628Y-73477200D01*
X4758057Y-73191485D01*
X4829485Y-73048628D01*
X4900914Y-72977200D01*
X5043771Y-72905771D01*
X6115200Y-73048628D02*
X6186628Y-72977200D01*
X6329485Y-72905771D01*
X6686628Y-72905771D01*
X6829485Y-72977200D01*
X6900914Y-73048628D01*
X6972342Y-73191485D01*
X6972342Y-73334342D01*
X6900914Y-73548628D01*
X6043771Y-74405771D01*
X6972342Y-74405771D01*
X7543771Y-73048628D02*
X7615200Y-72977200D01*
X7758057Y-72905771D01*
X8115200Y-72905771D01*
X8258057Y-72977200D01*
X8329485Y-73048628D01*
X8400914Y-73191485D01*
X8400914Y-73334342D01*
X8329485Y-73548628D01*
X7472342Y-74405771D01*
X8400914Y-74405771D01*
X9043771Y-73834342D02*
X10186628Y-73834342D01*
X11186628Y-72905771D02*
X11329485Y-72905771D01*
X11472342Y-72977200D01*
X11543771Y-73048628D01*
X11615200Y-73191485D01*
X11686628Y-73477200D01*
X11686628Y-73834342D01*
X11615200Y-74120057D01*
X11543771Y-74262914D01*
X11472342Y-74334342D01*
X11329485Y-74405771D01*
X11186628Y-74405771D01*
X11043771Y-74334342D01*
X10972342Y-74262914D01*
X10900914Y-74120057D01*
X10829485Y-73834342D01*
X10829485Y-73477200D01*
X10900914Y-73191485D01*
X10972342Y-73048628D01*
X11043771Y-72977200D01*
X11186628Y-72905771D01*
X13043771Y-72905771D02*
X12329485Y-72905771D01*
X12258057Y-73620057D01*
X12329485Y-73548628D01*
X12472342Y-73477200D01*
X12829485Y-73477200D01*
X12972342Y-73548628D01*
X13043771Y-73620057D01*
X13115200Y-73762914D01*
X13115200Y-74120057D01*
X13043771Y-74262914D01*
X12972342Y-74334342D01*
X12829485Y-74405771D01*
X12472342Y-74405771D01*
X12329485Y-74334342D01*
X12258057Y-74262914D01*
X13758057Y-73834342D02*
X14900914Y-73834342D01*
X15900914Y-72905771D02*
X16043771Y-72905771D01*
X16186628Y-72977200D01*
X16258057Y-73048628D01*
X16329485Y-73191485D01*
X16400914Y-73477200D01*
X16400914Y-73834342D01*
X16329485Y-74120057D01*
X16258057Y-74262914D01*
X16186628Y-74334342D01*
X16043771Y-74405771D01*
X15900914Y-74405771D01*
X15758057Y-74334342D01*
X15686628Y-74262914D01*
X15615200Y-74120057D01*
X15543771Y-73834342D01*
X15543771Y-73477200D01*
X15615200Y-73191485D01*
X15686628Y-73048628D01*
X15758057Y-72977200D01*
X15900914Y-72905771D01*
X16900914Y-72905771D02*
X17900914Y-72905771D01*
X17258057Y-74405771D01*
D10*
D11*
X-26959800Y-75127200D02*
X81040200Y-75127200D01*
D10*
D11*
X-25527658Y-77205771D02*
X-25527658Y-75705771D01*
X-24670515Y-77205771D02*
X-25313372Y-76348628D01*
X-24670515Y-75705771D02*
X-25527658Y-76562914D01*
X-24027658Y-77205771D02*
X-24027658Y-76205771D01*
X-24027658Y-75705771D02*
X-24099086Y-75777200D01*
X-24027658Y-75848628D01*
X-23956229Y-75777200D01*
X-24027658Y-75705771D01*
X-24027658Y-75848628D01*
X-22456229Y-77062914D02*
X-22527658Y-77134342D01*
X-22741943Y-77205771D01*
X-22884800Y-77205771D01*
X-23099086Y-77134342D01*
X-23241943Y-76991485D01*
X-23313372Y-76848628D01*
X-23384800Y-76562914D01*
X-23384800Y-76348628D01*
X-23313372Y-76062914D01*
X-23241943Y-75920057D01*
X-23099086Y-75777200D01*
X-22884800Y-75705771D01*
X-22741943Y-75705771D01*
X-22527658Y-75777200D01*
X-22456229Y-75848628D01*
X-21170515Y-77205771D02*
X-21170515Y-76420057D01*
X-21241943Y-76277200D01*
X-21384800Y-76205771D01*
X-21670515Y-76205771D01*
X-21813372Y-76277200D01*
X-21170515Y-77134342D02*
X-21313372Y-77205771D01*
X-21670515Y-77205771D01*
X-21813372Y-77134342D01*
X-21884800Y-76991485D01*
X-21884800Y-76848628D01*
X-21813372Y-76705771D01*
X-21670515Y-76634342D01*
X-21313372Y-76634342D01*
X-21170515Y-76562914D01*
X-19813372Y-77205771D02*
X-19813372Y-75705771D01*
X-19813372Y-77134342D02*
X-19956229Y-77205771D01*
X-20241943Y-77205771D01*
X-20384800Y-77134342D01*
X-20456229Y-77062914D01*
X-20527658Y-76920057D01*
X-20527658Y-76491485D01*
X-20456229Y-76348628D01*
X-20384800Y-76277200D01*
X-20241943Y-76205771D01*
X-19956229Y-76205771D01*
X-19813372Y-76277200D01*
X-17956229Y-76420057D02*
X-17456229Y-76420057D01*
X-17241943Y-77205771D02*
X-17956229Y-77205771D01*
X-17956229Y-75705771D01*
X-17241943Y-75705771D01*
X-16599086Y-77062914D02*
X-16527658Y-77134342D01*
X-16599086Y-77205771D01*
X-16670515Y-77134342D01*
X-16599086Y-77062914D01*
X-16599086Y-77205771D01*
X-15884800Y-77205771D02*
X-15884800Y-75705771D01*
X-15527658Y-75705771D01*
X-15313372Y-75777200D01*
X-15170515Y-75920057D01*
X-15099086Y-76062914D01*
X-15027658Y-76348628D01*
X-15027658Y-76562914D01*
X-15099086Y-76848628D01*
X-15170515Y-76991485D01*
X-15313372Y-77134342D01*
X-15527658Y-77205771D01*
X-15884800Y-77205771D01*
X-14384800Y-77062914D02*
X-14313372Y-77134342D01*
X-14384800Y-77205771D01*
X-14456229Y-77134342D01*
X-14384800Y-77062914D01*
X-14384800Y-77205771D01*
X-13741943Y-76777200D02*
X-13027658Y-76777200D01*
X-13884800Y-77205771D02*
X-13384800Y-75705771D01*
X-12884800Y-77205771D01*
X-12384800Y-77062914D02*
X-12313372Y-77134342D01*
X-12384800Y-77205771D01*
X-12456229Y-77134342D01*
X-12384800Y-77062914D01*
X-12384800Y-77205771D01*
X-9384800Y-77205771D02*
X-9384800Y-75705771D01*
X-9241943Y-76634342D02*
X-8813372Y-77205771D01*
X-8813372Y-76205771D02*
X-9384800Y-76777200D01*
X-8170515Y-77205771D02*
X-8170515Y-76205771D01*
X-8170515Y-75705771D02*
X-8241943Y-75777200D01*
X-8170515Y-75848628D01*
X-8099086Y-75777200D01*
X-8170515Y-75705771D01*
X-8170515Y-75848628D01*
X-6813372Y-77134342D02*
X-6956229Y-77205771D01*
X-7241943Y-77205771D01*
X-7384800Y-77134342D01*
X-7456229Y-77062914D01*
X-7527658Y-76920057D01*
X-7527658Y-76491485D01*
X-7456229Y-76348628D01*
X-7384800Y-76277200D01*
X-7241943Y-76205771D01*
X-6956229Y-76205771D01*
X-6813372Y-76277200D01*
X-5527658Y-77205771D02*
X-5527658Y-76420057D01*
X-5599086Y-76277200D01*
X-5741943Y-76205771D01*
X-6027658Y-76205771D01*
X-6170515Y-76277200D01*
X-5527658Y-77134342D02*
X-5670515Y-77205771D01*
X-6027658Y-77205771D01*
X-6170515Y-77134342D01*
X-6241943Y-76991485D01*
X-6241943Y-76848628D01*
X-6170515Y-76705771D01*
X-6027658Y-76634342D01*
X-5670515Y-76634342D01*
X-5527658Y-76562914D01*
X-4170515Y-77205771D02*
X-4170515Y-75705771D01*
X-4170515Y-77134342D02*
X-4313372Y-77205771D01*
X-4599086Y-77205771D01*
X-4741943Y-77134342D01*
X-4813372Y-77062914D01*
X-4884800Y-76920057D01*
X-4884800Y-76491485D01*
X-4813372Y-76348628D01*
X-4741943Y-76277200D01*
X-4599086Y-76205771D01*
X-4313372Y-76205771D01*
X-4170515Y-76277200D01*
X-1884800Y-77777200D02*
X-1956229Y-77705771D01*
X-2099086Y-77491485D01*
X-2170515Y-77348628D01*
X-2241943Y-77134342D01*
X-2313372Y-76777200D01*
X-2313372Y-76491485D01*
X-2241943Y-76134342D01*
X-2170515Y-75920057D01*
X-2099086Y-75777200D01*
X-1956229Y-75562914D01*
X-1884800Y-75491485D01*
X-670515Y-75705771D02*
X-956229Y-75705771D01*
X-1099086Y-75777200D01*
X-1170515Y-75848628D01*
X-1313372Y-76062914D01*
X-1384800Y-76348628D01*
X-1384800Y-76920057D01*
X-1313372Y-77062914D01*
X-1241943Y-77134342D01*
X-1099086Y-77205771D01*
X-813372Y-77205771D01*
X-670515Y-77134342D01*
X-599086Y-77062914D01*
X-527658Y-76920057D01*
X-527658Y-76562914D01*
X-599086Y-76420057D01*
X-670515Y-76348628D01*
X-813372Y-76277200D01*
X-1099086Y-76277200D01*
X-1241943Y-76348628D01*
X-1313372Y-76420057D01*
X-1384800Y-76562914D01*
X115200Y-77062914D02*
X186628Y-77134342D01*
X115200Y-77205771D01*
X43771Y-77134342D01*
X115200Y-77062914D01*
X115200Y-77205771D01*
X1115200Y-75705771D02*
X1258057Y-75705771D01*
X1400914Y-75777200D01*
X1472342Y-75848628D01*
X1543771Y-75991485D01*
X1615200Y-76277200D01*
X1615200Y-76634342D01*
X1543771Y-76920057D01*
X1472342Y-77062914D01*
X1400914Y-77134342D01*
X1258057Y-77205771D01*
X1115200Y-77205771D01*
X972342Y-77134342D01*
X900914Y-77062914D01*
X829485Y-76920057D01*
X758057Y-76634342D01*
X758057Y-76277200D01*
X829485Y-75991485D01*
X900914Y-75848628D01*
X972342Y-75777200D01*
X1115200Y-75705771D01*
X2258057Y-77062914D02*
X2329485Y-77134342D01*
X2258057Y-77205771D01*
X2186628Y-77134342D01*
X2258057Y-77062914D01*
X2258057Y-77205771D01*
X3615200Y-76205771D02*
X3615200Y-77205771D01*
X3258057Y-75634342D02*
X2900914Y-76705771D01*
X3829485Y-76705771D01*
X4258057Y-77777200D02*
X4329485Y-77705771D01*
X4472342Y-77491485D01*
X4543771Y-77348628D01*
X4615200Y-77134342D01*
X4686628Y-76777200D01*
X4686628Y-76491485D01*
X4615200Y-76134342D01*
X4543771Y-75920057D01*
X4472342Y-75777200D01*
X4329485Y-75562914D01*
X4258057Y-75491485D01*
D10*
D11*
X-26959800Y-72127200D02*
X81040200Y-72127200D01*
D10*
D12*
X60449485Y-74405771D02*
X59949485Y-73691485D01*
X59592342Y-74405771D02*
X59592342Y-72905771D01*
X60163771Y-72905771D01*
X60306628Y-72977200D01*
X60378057Y-73048628D01*
X60449485Y-73191485D01*
X60449485Y-73405771D01*
X60378057Y-73548628D01*
X60306628Y-73620057D01*
X60163771Y-73691485D01*
X59592342Y-73691485D01*
X61663771Y-74334342D02*
X61520914Y-74405771D01*
X61235200Y-74405771D01*
X61092342Y-74334342D01*
X61020914Y-74191485D01*
X61020914Y-73620057D01*
X61092342Y-73477200D01*
X61235200Y-73405771D01*
X61520914Y-73405771D01*
X61663771Y-73477200D01*
X61735200Y-73620057D01*
X61735200Y-73762914D01*
X61020914Y-73905771D01*
X62235200Y-73405771D02*
X62592342Y-74405771D01*
X62949485Y-73405771D01*
X63520914Y-74262914D02*
X63592342Y-74334342D01*
X63520914Y-74405771D01*
X63449485Y-74334342D01*
X63520914Y-74262914D01*
X63520914Y-74405771D01*
X63520914Y-73477200D02*
X63592342Y-73548628D01*
X63520914Y-73620057D01*
X63449485Y-73548628D01*
X63520914Y-73477200D01*
X63520914Y-73620057D01*
X65306628Y-73048628D02*
X65378057Y-72977200D01*
X65520914Y-72905771D01*
X65878057Y-72905771D01*
X66020914Y-72977200D01*
X66092342Y-73048628D01*
X66163771Y-73191485D01*
X66163771Y-73334342D01*
X66092342Y-73548628D01*
X65235200Y-74405771D01*
X66163771Y-74405771D01*
X66806628Y-74262914D02*
X66878057Y-74334342D01*
X66806628Y-74405771D01*
X66735200Y-74334342D01*
X66806628Y-74262914D01*
X66806628Y-74405771D01*
X67806628Y-72905771D02*
X67949485Y-72905771D01*
X68092342Y-72977200D01*
X68163771Y-73048628D01*
X68235200Y-73191485D01*
X68306628Y-73477200D01*
X68306628Y-73834342D01*
X68235200Y-74120057D01*
X68163771Y-74262914D01*
X68092342Y-74334342D01*
X67949485Y-74405771D01*
X67806628Y-74405771D01*
X67663771Y-74334342D01*
X67592342Y-74262914D01*
X67520914Y-74120057D01*
X67449485Y-73834342D01*
X67449485Y-73477200D01*
X67520914Y-73191485D01*
X67592342Y-73048628D01*
X67663771Y-72977200D01*
X67806628Y-72905771D01*
D10*
D11*
X-25599086Y-74334342D02*
X-25384800Y-74405771D01*
X-25027658Y-74405771D01*
X-24884800Y-74334342D01*
X-24813372Y-74262914D01*
X-24741943Y-74120057D01*
X-24741943Y-73977200D01*
X-24813372Y-73834342D01*
X-24884800Y-73762914D01*
X-25027658Y-73691485D01*
X-25313372Y-73620057D01*
X-25456229Y-73548628D01*
X-25527658Y-73477200D01*
X-25599086Y-73334342D01*
X-25599086Y-73191485D01*
X-25527658Y-73048628D01*
X-25456229Y-72977200D01*
X-25313372Y-72905771D01*
X-24956229Y-72905771D01*
X-24741943Y-72977200D01*
X-24099086Y-74405771D02*
X-24099086Y-73405771D01*
X-24099086Y-72905771D02*
X-24170515Y-72977200D01*
X-24099086Y-73048628D01*
X-24027658Y-72977200D01*
X-24099086Y-72905771D01*
X-24099086Y-73048628D01*
X-23527658Y-73405771D02*
X-22741943Y-73405771D01*
X-23527658Y-74405771D01*
X-22741943Y-74405771D01*
X-21599086Y-74334342D02*
X-21741943Y-74405771D01*
X-22027658Y-74405771D01*
X-22170515Y-74334342D01*
X-22241943Y-74191485D01*
X-22241943Y-73620057D01*
X-22170515Y-73477200D01*
X-22027658Y-73405771D01*
X-21741943Y-73405771D01*
X-21599086Y-73477200D01*
X-21527658Y-73620057D01*
X-21527658Y-73762914D01*
X-22241943Y-73905771D01*
X-20884800Y-74262914D02*
X-20813372Y-74334342D01*
X-20884800Y-74405771D01*
X-20956229Y-74334342D01*
X-20884800Y-74262914D01*
X-20884800Y-74405771D01*
X-20884800Y-73477200D02*
X-20813372Y-73548628D01*
X-20884800Y-73620057D01*
X-20956229Y-73548628D01*
X-20884800Y-73477200D01*
X-20884800Y-73620057D01*
X-19099086Y-73977200D02*
X-18384800Y-73977200D01*
X-19241943Y-74405771D02*
X-18741943Y-72905771D01*
X-18241943Y-74405771D01*
X-17099086Y-73405771D02*
X-17099086Y-74405771D01*
X-17456229Y-72834342D02*
X-17813372Y-73905771D01*
X-16884800Y-73905771D01*
D10*
D11*
X59472342Y-77205771D02*
X59472342Y-75705771D01*
X60829485Y-77205771D02*
X60829485Y-75705771D01*
X60829485Y-77134342D02*
X60686628Y-77205771D01*
X60400914Y-77205771D01*
X60258057Y-77134342D01*
X60186628Y-77062914D01*
X60115200Y-76920057D01*
X60115200Y-76491485D01*
X60186628Y-76348628D01*
X60258057Y-76277200D01*
X60400914Y-76205771D01*
X60686628Y-76205771D01*
X60829485Y-76277200D01*
X61543771Y-77062914D02*
X61615200Y-77134342D01*
X61543771Y-77205771D01*
X61472342Y-77134342D01*
X61543771Y-77062914D01*
X61543771Y-77205771D01*
X61543771Y-76277200D02*
X61615200Y-76348628D01*
X61543771Y-76420057D01*
X61472342Y-76348628D01*
X61543771Y-76277200D01*
X61543771Y-76420057D01*
X64186628Y-77205771D02*
X63329485Y-77205771D01*
X63758057Y-77205771D02*
X63758057Y-75705771D01*
X63615200Y-75920057D01*
X63472342Y-76062914D01*
X63329485Y-76134342D01*
X65900914Y-75634342D02*
X64615200Y-77562914D01*
X67186628Y-77205771D02*
X66329485Y-77205771D01*
X66758057Y-77205771D02*
X66758057Y-75705771D01*
X66615200Y-75920057D01*
X66472342Y-76062914D01*
X66329485Y-76134342D01*
D10*
D11*
X-26959800Y-68127200D02*
X81040200Y-68127200D01*
D10*
D13*
X-25247420Y-68831961D02*
X-24104562Y-68831961D01*
X-24925991Y-70831961D02*
X-24675991Y-68831961D01*
X-23687896Y-70831961D02*
X-23521229Y-69498628D01*
X-23437896Y-68831961D02*
X-23545039Y-68927200D01*
X-23461705Y-69022438D01*
X-23354562Y-68927200D01*
X-23437896Y-68831961D01*
X-23461705Y-69022438D01*
X-22854562Y-69498628D02*
X-22092658Y-69498628D01*
X-22485515Y-68831961D02*
X-22699800Y-70546247D01*
X-22628372Y-70736723D01*
X-22449800Y-70831961D01*
X-22259324Y-70831961D01*
X-21306943Y-70831961D02*
X-21485515Y-70736723D01*
X-21556943Y-70546247D01*
X-21342658Y-68831961D01*
X-19771229Y-70736723D02*
X-19973610Y-70831961D01*
X-20354562Y-70831961D01*
X-20533134Y-70736723D01*
X-20604562Y-70546247D01*
X-20509324Y-69784342D01*
X-20390277Y-69593866D01*
X-20187896Y-69498628D01*
X-19806943Y-69498628D01*
X-19628372Y-69593866D01*
X-19556943Y-69784342D01*
X-19580753Y-69974819D01*
X-20556943Y-70165295D01*
X-18806943Y-70641485D02*
X-18723610Y-70736723D01*
X-18830753Y-70831961D01*
X-18914086Y-70736723D01*
X-18806943Y-70641485D01*
X-18830753Y-70831961D01*
X-18675991Y-69593866D02*
X-18592658Y-69689104D01*
X-18699800Y-69784342D01*
X-18783134Y-69689104D01*
X-18675991Y-69593866D01*
X-18699800Y-69784342D01*
X-16354562Y-70831961D02*
X-16104562Y-68831961D01*
X-15342658Y-68831961D01*
X-15164086Y-68927200D01*
X-15080753Y-69022438D01*
X-15009324Y-69212914D01*
X-15045039Y-69498628D01*
X-15164086Y-69689104D01*
X-15271229Y-69784342D01*
X-15473610Y-69879580D01*
X-16235515Y-69879580D01*
X-14068848Y-70831961D02*
X-14247420Y-70736723D01*
X-14318848Y-70546247D01*
X-14104562Y-68831961D01*
X-13330753Y-69498628D02*
X-13021229Y-70831961D01*
X-12378372Y-69498628D02*
X-13021229Y-70831961D01*
X-13271229Y-71308152D01*
X-13378372Y-71403390D01*
X-13580753Y-71498628D01*
X-11902181Y-69498628D02*
X-11140277Y-69498628D01*
X-11533134Y-68831961D02*
X-11747420Y-70546247D01*
X-11675991Y-70736723D01*
X-11497420Y-70831961D01*
X-11306943Y-70831961D01*
X-9783134Y-70831961D02*
X-9652181Y-69784342D01*
X-9723610Y-69593866D01*
X-9902181Y-69498628D01*
X-10283134Y-69498628D01*
X-10485515Y-69593866D01*
X-9771229Y-70736723D02*
X-9973610Y-70831961D01*
X-10449800Y-70831961D01*
X-10628372Y-70736723D01*
X-10699800Y-70546247D01*
X-10675991Y-70355771D01*
X-10556943Y-70165295D01*
X-10354562Y-70070057D01*
X-9878372Y-70070057D01*
X-9675991Y-69974819D01*
X-7140277Y-69498628D02*
X-7390277Y-71498628D01*
X-7152181Y-69593866D02*
X-6949800Y-69498628D01*
X-6568848Y-69498628D01*
X-6390277Y-69593866D01*
X-6306943Y-69689104D01*
X-6235515Y-69879580D01*
X-6306943Y-70451009D01*
X-6425991Y-70641485D01*
X-6533134Y-70736723D01*
X-6735515Y-70831961D01*
X-7116467Y-70831961D01*
X-7295039Y-70736723D01*
X-5497420Y-70831961D02*
X-5330753Y-69498628D01*
X-5378372Y-69879580D02*
X-5259324Y-69689104D01*
X-5152181Y-69593866D01*
X-4949800Y-69498628D01*
X-4759324Y-69498628D01*
X-4283134Y-69498628D02*
X-3235515Y-69498628D01*
X-4449800Y-70831961D01*
X-3402181Y-70831961D01*
X-1866467Y-70736723D02*
X-2068848Y-70831961D01*
X-2449800Y-70831961D01*
X-2628372Y-70736723D01*
X-2699800Y-70546247D01*
X-2604562Y-69784342D01*
X-2485515Y-69593866D01*
X-2283134Y-69498628D01*
X-1902181Y-69498628D01*
X-1723610Y-69593866D01*
X-1652181Y-69784342D01*
X-1675991Y-69974819D01*
X-2652181Y-70165295D01*
X-925991Y-70831961D02*
X-675991Y-68831961D01*
X-640277Y-70070057D02*
X-164086Y-70831961D01*
X2580Y-69498628D02*
X-854562Y-70260533D01*
X1550200Y-70831961D02*
X1681152Y-69784342D01*
X1609723Y-69593866D01*
X1431152Y-69498628D01*
X1050200Y-69498628D01*
X847819Y-69593866D01*
X1562104Y-70736723D02*
X1359723Y-70831961D01*
X883533Y-70831961D01*
X704961Y-70736723D01*
X633533Y-70546247D01*
X657342Y-70355771D01*
X776390Y-70165295D01*
X978771Y-70070057D01*
X1454961Y-70070057D01*
X1657342Y-69974819D01*
X2478771Y-69498628D02*
X3526390Y-69498628D01*
X2312104Y-70831961D01*
X3359723Y-70831961D01*
X4288295Y-69498628D02*
X4121628Y-70831961D01*
X4264485Y-69689104D02*
X4371628Y-69593866D01*
X4574009Y-69498628D01*
X4859723Y-69498628D01*
X5038295Y-69593866D01*
X5109723Y-69784342D01*
X4978771Y-70831961D01*
X5931152Y-70831961D02*
X6097819Y-69498628D01*
X6181152Y-68831961D02*
X6074009Y-68927200D01*
X6157342Y-69022438D01*
X6264485Y-68927200D01*
X6181152Y-68831961D01*
X6157342Y-69022438D01*
X6883533Y-70831961D02*
X7133533Y-68831961D01*
X7169247Y-70070057D02*
X7645438Y-70831961D01*
X7812104Y-69498628D02*
X6954961Y-70260533D01*
X8788295Y-70831961D02*
X8609723Y-70736723D01*
X8526390Y-70641485D01*
X8454961Y-70451009D01*
X8526390Y-69879580D01*
X8645438Y-69689104D01*
X8752580Y-69593866D01*
X8954961Y-69498628D01*
X9240676Y-69498628D01*
X9419247Y-69593866D01*
X9502580Y-69689104D01*
X9574009Y-69879580D01*
X9502580Y-70451009D01*
X9383533Y-70641485D01*
X9276390Y-70736723D01*
X9074009Y-70831961D01*
X8788295Y-70831961D01*
X10288295Y-69498628D02*
X10502580Y-70831961D01*
X11002580Y-69879580D01*
X11264485Y-70831961D01*
X11812104Y-69498628D01*
X14097819Y-69498628D02*
X13931152Y-70831961D01*
X14074009Y-69689104D02*
X14181152Y-69593866D01*
X14383533Y-69498628D01*
X14669247Y-69498628D01*
X14847819Y-69593866D01*
X14919247Y-69784342D01*
X14788295Y-70831961D01*
X16597819Y-70831961D02*
X16728771Y-69784342D01*
X16657342Y-69593866D01*
X16478771Y-69498628D01*
X16097819Y-69498628D01*
X15895438Y-69593866D01*
X16609723Y-70736723D02*
X16407342Y-70831961D01*
X15931152Y-70831961D01*
X15752580Y-70736723D01*
X15681152Y-70546247D01*
X15704961Y-70355771D01*
X15824009Y-70165295D01*
X16026390Y-70070057D01*
X16502580Y-70070057D01*
X16704961Y-69974819D01*
X18954961Y-69498628D02*
X19716866Y-69498628D01*
X19324009Y-68831961D02*
X19109723Y-70546247D01*
X19181152Y-70736723D01*
X19359723Y-70831961D01*
X19550200Y-70831961D01*
X20216866Y-70831961D02*
X20383533Y-69498628D01*
X20335914Y-69879580D02*
X20454961Y-69689104D01*
X20562104Y-69593866D01*
X20764485Y-69498628D01*
X20954961Y-69498628D01*
X21454961Y-70831961D02*
X21621628Y-69498628D01*
X21704961Y-68831961D02*
X21597819Y-68927200D01*
X21681152Y-69022438D01*
X21788295Y-68927200D01*
X21704961Y-68831961D01*
X21681152Y-69022438D01*
X23264485Y-70831961D02*
X23395438Y-69784342D01*
X23324009Y-69593866D01*
X23145438Y-69498628D01*
X22764485Y-69498628D01*
X22562104Y-69593866D01*
X23276390Y-70736723D02*
X23074009Y-70831961D01*
X22597819Y-70831961D01*
X22419247Y-70736723D01*
X22347819Y-70546247D01*
X22371628Y-70355771D01*
X22490676Y-70165295D01*
X22693057Y-70070057D01*
X23169247Y-70070057D01*
X23371628Y-69974819D01*
X24216866Y-70831961D02*
X24466866Y-68831961D01*
X24502580Y-70070057D02*
X24978771Y-70831961D01*
X25145438Y-69498628D02*
X24288295Y-70260533D01*
X26693057Y-70831961D02*
X26824009Y-69784342D01*
X26752580Y-69593866D01*
X26574009Y-69498628D01*
X26193057Y-69498628D01*
X25990676Y-69593866D01*
X26704961Y-70736723D02*
X26502580Y-70831961D01*
X26026390Y-70831961D01*
X25847819Y-70736723D01*
X25776390Y-70546247D01*
X25800200Y-70355771D01*
X25919247Y-70165295D01*
X26121628Y-70070057D01*
X26597819Y-70070057D01*
X26800200Y-69974819D01*
X28514485Y-70736723D02*
X28312104Y-70831961D01*
X27931152Y-70831961D01*
X27752580Y-70736723D01*
X27669247Y-70641485D01*
X27597819Y-70451009D01*
X27669247Y-69879580D01*
X27788295Y-69689104D01*
X27895438Y-69593866D01*
X28097819Y-69498628D01*
X28478771Y-69498628D01*
X28657342Y-69593866D01*
X29359723Y-70831961D02*
X29609723Y-68831961D01*
X30216866Y-70831961D02*
X30347819Y-69784342D01*
X30276390Y-69593866D01*
X30097819Y-69498628D01*
X29812104Y-69498628D01*
X29609723Y-69593866D01*
X29502580Y-69689104D01*
D10*
D11*
X-25027658Y-66220057D02*
X-25527658Y-66220057D01*
X-25527658Y-67005771D02*
X-25527658Y-65505771D01*
X-24813372Y-65505771D01*
X-24241943Y-67005771D02*
X-24241943Y-66005771D01*
X-24241943Y-65505771D02*
X-24313372Y-65577200D01*
X-24241943Y-65648628D01*
X-24170515Y-65577200D01*
X-24241943Y-65505771D01*
X-24241943Y-65648628D01*
X-23313372Y-67005771D02*
X-23456229Y-66934342D01*
X-23527658Y-66791485D01*
X-23527658Y-65505771D01*
X-22170515Y-66934342D02*
X-22313372Y-67005771D01*
X-22599086Y-67005771D01*
X-22741943Y-66934342D01*
X-22813372Y-66791485D01*
X-22813372Y-66220057D01*
X-22741943Y-66077200D01*
X-22599086Y-66005771D01*
X-22313372Y-66005771D01*
X-22170515Y-66077200D01*
X-22099086Y-66220057D01*
X-22099086Y-66362914D01*
X-22813372Y-66505771D01*
X-21456229Y-66862914D02*
X-21384800Y-66934342D01*
X-21456229Y-67005771D01*
X-21527658Y-66934342D01*
X-21456229Y-66862914D01*
X-21456229Y-67005771D01*
X-21456229Y-66077200D02*
X-21384800Y-66148628D01*
X-21456229Y-66220057D01*
X-21527658Y-66148628D01*
X-21456229Y-66077200D01*
X-21456229Y-66220057D01*
X-18741943Y-66862914D02*
X-18813372Y-66934342D01*
X-19027658Y-67005771D01*
X-19170515Y-67005771D01*
X-19384800Y-66934342D01*
X-19527658Y-66791485D01*
X-19599086Y-66648628D01*
X-19670515Y-66362914D01*
X-19670515Y-66148628D01*
X-19599086Y-65862914D01*
X-19527658Y-65720057D01*
X-19384800Y-65577200D01*
X-19170515Y-65505771D01*
X-19027658Y-65505771D01*
X-18813372Y-65577200D01*
X-18741943Y-65648628D01*
X-17527658Y-66934342D02*
X-17670515Y-67005771D01*
X-17956229Y-67005771D01*
X-18099086Y-66934342D01*
X-18170515Y-66791485D01*
X-18170515Y-66220057D01*
X-18099086Y-66077200D01*
X-17956229Y-66005771D01*
X-17670515Y-66005771D01*
X-17527658Y-66077200D01*
X-17456229Y-66220057D01*
X-17456229Y-66362914D01*
X-18170515Y-66505771D01*
X-16813372Y-66005771D02*
X-16813372Y-67005771D01*
X-16813372Y-66148628D02*
X-16741943Y-66077200D01*
X-16599086Y-66005771D01*
X-16384800Y-66005771D01*
X-16241943Y-66077200D01*
X-16170515Y-66220057D01*
X-16170515Y-67005771D01*
X-15670515Y-66005771D02*
X-15099086Y-66005771D01*
X-15456229Y-65505771D02*
X-15456229Y-66791485D01*
X-15384800Y-66934342D01*
X-15241943Y-67005771D01*
X-15099086Y-67005771D01*
X-14599086Y-67005771D02*
X-14599086Y-66005771D01*
X-14599086Y-66291485D02*
X-14527658Y-66148628D01*
X-14456229Y-66077200D01*
X-14313372Y-66005771D01*
X-14170515Y-66005771D01*
X-13027658Y-67005771D02*
X-13027658Y-66220057D01*
X-13099086Y-66077200D01*
X-13241943Y-66005771D01*
X-13527658Y-66005771D01*
X-13670515Y-66077200D01*
X-13027658Y-66934342D02*
X-13170515Y-67005771D01*
X-13527658Y-67005771D01*
X-13670515Y-66934342D01*
X-13741943Y-66791485D01*
X-13741943Y-66648628D01*
X-13670515Y-66505771D01*
X-13527658Y-66434342D01*
X-13170515Y-66434342D01*
X-13027658Y-66362914D01*
X-12099086Y-67005771D02*
X-12241943Y-66934342D01*
X-12313372Y-66791485D01*
X-12313372Y-65505771D01*
X-10384800Y-67005771D02*
X-10384800Y-65505771D01*
X-10384800Y-66220057D02*
X-9527658Y-66220057D01*
X-9527658Y-67005771D02*
X-9527658Y-65505771D01*
X-8241943Y-66934342D02*
X-8384800Y-67005771D01*
X-8670515Y-67005771D01*
X-8813372Y-66934342D01*
X-8884800Y-66791485D01*
X-8884800Y-66220057D01*
X-8813372Y-66077200D01*
X-8670515Y-66005771D01*
X-8384800Y-66005771D01*
X-8241943Y-66077200D01*
X-8170515Y-66220057D01*
X-8170515Y-66362914D01*
X-8884800Y-66505771D01*
X-6884800Y-67005771D02*
X-6884800Y-66220057D01*
X-6956229Y-66077200D01*
X-7099086Y-66005771D01*
X-7384800Y-66005771D01*
X-7527658Y-66077200D01*
X-6884800Y-66934342D02*
X-7027658Y-67005771D01*
X-7384800Y-67005771D01*
X-7527658Y-66934342D01*
X-7599086Y-66791485D01*
X-7599086Y-66648628D01*
X-7527658Y-66505771D01*
X-7384800Y-66434342D01*
X-7027658Y-66434342D01*
X-6884800Y-66362914D01*
X-6384800Y-66005771D02*
X-5813372Y-66005771D01*
X-6170515Y-65505771D02*
X-6170515Y-66791485D01*
X-6099086Y-66934342D01*
X-5956229Y-67005771D01*
X-5813372Y-67005771D01*
X-5313372Y-67005771D02*
X-5313372Y-66005771D01*
X-5313372Y-65505771D02*
X-5384800Y-65577200D01*
X-5313372Y-65648628D01*
X-5241943Y-65577200D01*
X-5313372Y-65505771D01*
X-5313372Y-65648628D01*
X-4599086Y-66005771D02*
X-4599086Y-67005771D01*
X-4599086Y-66148628D02*
X-4527658Y-66077200D01*
X-4384800Y-66005771D01*
X-4170515Y-66005771D01*
X-4027658Y-66077200D01*
X-3956229Y-66220057D01*
X-3956229Y-67005771D01*
X-2599086Y-66005771D02*
X-2599086Y-67220057D01*
X-2670515Y-67362914D01*
X-2741943Y-67434342D01*
X-2884800Y-67505771D01*
X-3099086Y-67505771D01*
X-3241943Y-67434342D01*
X-2599086Y-66934342D02*
X-2741943Y-67005771D01*
X-3027658Y-67005771D01*
X-3170515Y-66934342D01*
X-3241943Y-66862914D01*
X-3313372Y-66720057D01*
X-3313372Y-66291485D01*
X-3241943Y-66148628D01*
X-3170515Y-66077200D01*
X-3027658Y-66005771D01*
X-2741943Y-66005771D01*
X-2599086Y-66077200D01*
X115200Y-66862914D02*
X43771Y-66934342D01*
X-170515Y-67005771D01*
X-313372Y-67005771D01*
X-527658Y-66934342D01*
X-670515Y-66791485D01*
X-741943Y-66648628D01*
X-813372Y-66362914D01*
X-813372Y-66148628D01*
X-741943Y-65862914D01*
X-670515Y-65720057D01*
X-527658Y-65577200D01*
X-313372Y-65505771D01*
X-170515Y-65505771D01*
X43771Y-65577200D01*
X115200Y-65648628D01*
X972342Y-67005771D02*
X829485Y-66934342D01*
X758057Y-66862914D01*
X686628Y-66720057D01*
X686628Y-66291485D01*
X758057Y-66148628D01*
X829485Y-66077200D01*
X972342Y-66005771D01*
X1186628Y-66005771D01*
X1329485Y-66077200D01*
X1400914Y-66148628D01*
X1472342Y-66291485D01*
X1472342Y-66720057D01*
X1400914Y-66862914D01*
X1329485Y-66934342D01*
X1186628Y-67005771D01*
X972342Y-67005771D01*
X2115200Y-66005771D02*
X2115200Y-67005771D01*
X2115200Y-66148628D02*
X2186628Y-66077200D01*
X2329485Y-66005771D01*
X2543771Y-66005771D01*
X2686628Y-66077200D01*
X2758057Y-66220057D01*
X2758057Y-67005771D01*
X3258057Y-66005771D02*
X3829485Y-66005771D01*
X3472342Y-65505771D02*
X3472342Y-66791485D01*
X3543771Y-66934342D01*
X3686628Y-67005771D01*
X3829485Y-67005771D01*
X4329485Y-67005771D02*
X4329485Y-66005771D01*
X4329485Y-66291485D02*
X4400914Y-66148628D01*
X4472342Y-66077200D01*
X4615200Y-66005771D01*
X4758057Y-66005771D01*
X5472342Y-67005771D02*
X5329485Y-66934342D01*
X5258057Y-66862914D01*
X5186628Y-66720057D01*
X5186628Y-66291485D01*
X5258057Y-66148628D01*
X5329485Y-66077200D01*
X5472342Y-66005771D01*
X5686628Y-66005771D01*
X5829485Y-66077200D01*
X5900914Y-66148628D01*
X5972342Y-66291485D01*
X5972342Y-66720057D01*
X5900914Y-66862914D01*
X5829485Y-66934342D01*
X5686628Y-67005771D01*
X5472342Y-67005771D01*
X6829485Y-67005771D02*
X6686628Y-66934342D01*
X6615200Y-66791485D01*
X6615200Y-65505771D01*
X8543771Y-67005771D02*
X8543771Y-65505771D01*
X9115200Y-65505771D01*
X9258057Y-65577200D01*
X9329485Y-65648628D01*
X9400914Y-65791485D01*
X9400914Y-66005771D01*
X9329485Y-66148628D01*
X9258057Y-66220057D01*
X9115200Y-66291485D01*
X8543771Y-66291485D01*
X10543771Y-66220057D02*
X10758057Y-66291485D01*
X10829485Y-66362914D01*
X10900914Y-66505771D01*
X10900914Y-66720057D01*
X10829485Y-66862914D01*
X10758057Y-66934342D01*
X10615200Y-67005771D01*
X10043771Y-67005771D01*
X10043771Y-65505771D01*
X10543771Y-65505771D01*
X10686628Y-65577200D01*
X10758057Y-65648628D01*
X10829485Y-65791485D01*
X10829485Y-65934342D01*
X10758057Y-66077200D01*
X10686628Y-66148628D01*
X10543771Y-66220057D01*
X10043771Y-66220057D01*
X11472342Y-66577200D02*
X12186628Y-66577200D01*
X11329485Y-67005771D02*
X11829485Y-65505771D01*
X12329485Y-67005771D01*
X12829485Y-66862914D02*
X12900914Y-66934342D01*
X12829485Y-67005771D01*
X12758057Y-66934342D01*
X12829485Y-66862914D01*
X12829485Y-67005771D01*
X13543771Y-67005771D02*
X13543771Y-65505771D01*
X13686628Y-66434342D02*
X14115200Y-67005771D01*
X14115200Y-66005771D02*
X13543771Y-66577200D01*
X14758057Y-67005771D02*
X14758057Y-66005771D01*
X14758057Y-65505771D02*
X14686628Y-65577200D01*
X14758057Y-65648628D01*
X14829485Y-65577200D01*
X14758057Y-65505771D01*
X14758057Y-65648628D01*
X16115200Y-66934342D02*
X15972342Y-67005771D01*
X15686628Y-67005771D01*
X15543771Y-66934342D01*
X15472342Y-66862914D01*
X15400914Y-66720057D01*
X15400914Y-66291485D01*
X15472342Y-66148628D01*
X15543771Y-66077200D01*
X15686628Y-66005771D01*
X15972342Y-66005771D01*
X16115200Y-66077200D01*
X17400914Y-67005771D02*
X17400914Y-66220057D01*
X17329485Y-66077200D01*
X17186628Y-66005771D01*
X16900914Y-66005771D01*
X16758057Y-66077200D01*
X17400914Y-66934342D02*
X17258057Y-67005771D01*
X16900914Y-67005771D01*
X16758057Y-66934342D01*
X16686628Y-66791485D01*
X16686628Y-66648628D01*
X16758057Y-66505771D01*
X16900914Y-66434342D01*
X17258057Y-66434342D01*
X17400914Y-66362914D01*
X18758057Y-67005771D02*
X18758057Y-65505771D01*
X18758057Y-66934342D02*
X18615200Y-67005771D01*
X18329485Y-67005771D01*
X18186628Y-66934342D01*
X18115200Y-66862914D01*
X18043771Y-66720057D01*
X18043771Y-66291485D01*
X18115200Y-66148628D01*
X18186628Y-66077200D01*
X18329485Y-66005771D01*
X18615200Y-66005771D01*
X18758057Y-66077200D01*
X19115200Y-67148628D02*
X20258057Y-67148628D01*
X20615200Y-66005771D02*
X20615200Y-67505771D01*
X20615200Y-66077200D02*
X20758057Y-66005771D01*
X21043771Y-66005771D01*
X21186628Y-66077200D01*
X21258057Y-66148628D01*
X21329485Y-66291485D01*
X21329485Y-66720057D01*
X21258057Y-66862914D01*
X21186628Y-66934342D01*
X21043771Y-67005771D01*
X20758057Y-67005771D01*
X20615200Y-66934342D01*
X22615200Y-66934342D02*
X22472342Y-67005771D01*
X22186628Y-67005771D01*
X22043771Y-66934342D01*
X21972342Y-66862914D01*
X21900914Y-66720057D01*
X21900914Y-66291485D01*
X21972342Y-66148628D01*
X22043771Y-66077200D01*
X22186628Y-66005771D01*
X22472342Y-66005771D01*
X22615200Y-66077200D01*
X23258057Y-67005771D02*
X23258057Y-65505771D01*
X23258057Y-66077200D02*
X23400914Y-66005771D01*
X23686628Y-66005771D01*
X23829485Y-66077200D01*
X23900914Y-66148628D01*
X23972342Y-66291485D01*
X23972342Y-66720057D01*
X23900914Y-66862914D01*
X23829485Y-66934342D01*
X23686628Y-67005771D01*
X23400914Y-67005771D01*
X23258057Y-66934342D01*
D10*
D11*
X-26959800Y-62127200D02*
X81040200Y-62127200D01*
D10*
D11*
X-25599086Y-64234342D02*
X-25384800Y-64305771D01*
X-25027658Y-64305771D01*
X-24884800Y-64234342D01*
X-24813372Y-64162914D01*
X-24741943Y-64020057D01*
X-24741943Y-63877200D01*
X-24813372Y-63734342D01*
X-24884800Y-63662914D01*
X-25027658Y-63591485D01*
X-25313372Y-63520057D01*
X-25456229Y-63448628D01*
X-25527658Y-63377200D01*
X-25599086Y-63234342D01*
X-25599086Y-63091485D01*
X-25527658Y-62948628D01*
X-25456229Y-62877200D01*
X-25313372Y-62805771D01*
X-24956229Y-62805771D01*
X-24741943Y-62877200D01*
X-24099086Y-64305771D02*
X-24099086Y-62805771D01*
X-23456229Y-64305771D02*
X-23456229Y-63520057D01*
X-23527658Y-63377200D01*
X-23670515Y-63305771D01*
X-23884800Y-63305771D01*
X-24027658Y-63377200D01*
X-24099086Y-63448628D01*
X-22170515Y-64234342D02*
X-22313372Y-64305771D01*
X-22599086Y-64305771D01*
X-22741943Y-64234342D01*
X-22813372Y-64091485D01*
X-22813372Y-63520057D01*
X-22741943Y-63377200D01*
X-22599086Y-63305771D01*
X-22313372Y-63305771D01*
X-22170515Y-63377200D01*
X-22099086Y-63520057D01*
X-22099086Y-63662914D01*
X-22813372Y-63805771D01*
X-20884800Y-64234342D02*
X-21027658Y-64305771D01*
X-21313372Y-64305771D01*
X-21456229Y-64234342D01*
X-21527658Y-64091485D01*
X-21527658Y-63520057D01*
X-21456229Y-63377200D01*
X-21313372Y-63305771D01*
X-21027658Y-63305771D01*
X-20884800Y-63377200D01*
X-20813372Y-63520057D01*
X-20813372Y-63662914D01*
X-21527658Y-63805771D01*
X-20384800Y-63305771D02*
X-19813372Y-63305771D01*
X-20170515Y-62805771D02*
X-20170515Y-64091485D01*
X-20099086Y-64234342D01*
X-19956229Y-64305771D01*
X-19813372Y-64305771D01*
X-19313372Y-64162914D02*
X-19241943Y-64234342D01*
X-19313372Y-64305771D01*
X-19384800Y-64234342D01*
X-19313372Y-64162914D01*
X-19313372Y-64305771D01*
X-19313372Y-63377200D02*
X-19241943Y-63448628D01*
X-19313372Y-63520057D01*
X-19384800Y-63448628D01*
X-19313372Y-63377200D01*
X-19313372Y-63520057D01*
D10*
D12*
X-25407658Y-61305771D02*
X-25407658Y-59805771D01*
X-24907658Y-60877200D01*
X-24407658Y-59805771D01*
X-24407658Y-61305771D01*
X-23764800Y-60877200D02*
X-23050515Y-60877200D01*
X-23907658Y-61305771D02*
X-23407658Y-59805771D01*
X-22907658Y-61305771D01*
X-21550515Y-61305771D02*
X-22050515Y-60591485D01*
X-22407658Y-61305771D02*
X-22407658Y-59805771D01*
X-21836229Y-59805771D01*
X-21693372Y-59877200D01*
X-21621943Y-59948628D01*
X-21550515Y-60091485D01*
X-21550515Y-60305771D01*
X-21621943Y-60448628D01*
X-21693372Y-60520057D01*
X-21836229Y-60591485D01*
X-22407658Y-60591485D01*
X-20907658Y-61305771D02*
X-20907658Y-59805771D01*
X-20407658Y-60877200D01*
X-19907658Y-59805771D01*
X-19907658Y-61305771D01*
X-19193372Y-61162914D02*
X-19121943Y-61234342D01*
X-19193372Y-61305771D01*
X-19264800Y-61234342D01*
X-19193372Y-61162914D01*
X-19193372Y-61305771D01*
X-18479086Y-60305771D02*
X-18479086Y-61805771D01*
X-18479086Y-60377200D02*
X-18336229Y-60305771D01*
X-18050515Y-60305771D01*
X-17907658Y-60377200D01*
X-17836229Y-60448628D01*
X-17764800Y-60591485D01*
X-17764800Y-61020057D01*
X-17836229Y-61162914D01*
X-17907658Y-61234342D01*
X-18050515Y-61305771D01*
X-18336229Y-61305771D01*
X-18479086Y-61234342D01*
X-16907658Y-61305771D02*
X-17050515Y-61234342D01*
X-17121943Y-61091485D01*
X-17121943Y-59805771D01*
X-15264800Y-61234342D02*
X-15050515Y-61305771D01*
X-14693372Y-61305771D01*
X-14550515Y-61234342D01*
X-14479086Y-61162914D01*
X-14407658Y-61020057D01*
X-14407658Y-60877200D01*
X-14479086Y-60734342D01*
X-14550515Y-60662914D01*
X-14693372Y-60591485D01*
X-14979086Y-60520057D01*
X-15121943Y-60448628D01*
X-15193372Y-60377200D01*
X-15264800Y-60234342D01*
X-15264800Y-60091485D01*
X-15193372Y-59948628D01*
X-15121943Y-59877200D01*
X-14979086Y-59805771D01*
X-14621943Y-59805771D01*
X-14407658Y-59877200D01*
X-13764800Y-60305771D02*
X-13764800Y-61805771D01*
X-13764800Y-60377200D02*
X-13621943Y-60305771D01*
X-13336229Y-60305771D01*
X-13193372Y-60377200D01*
X-13121943Y-60448628D01*
X-13050515Y-60591485D01*
X-13050515Y-61020057D01*
X-13121943Y-61162914D01*
X-13193372Y-61234342D01*
X-13336229Y-61305771D01*
X-13621943Y-61305771D01*
X-13764800Y-61234342D01*
X-12407658Y-61162914D02*
X-12336229Y-61234342D01*
X-12407658Y-61305771D01*
X-12479086Y-61234342D01*
X-12407658Y-61162914D01*
X-12407658Y-61305771D01*
X-10693372Y-60305771D02*
X-9907658Y-60305771D01*
X-10693372Y-61305771D01*
X-9907658Y-61305771D01*
X-7979086Y-61305771D02*
X-8121943Y-61234342D01*
X-8193372Y-61162914D01*
X-8264800Y-61020057D01*
X-8264800Y-60591485D01*
X-8193372Y-60448628D01*
X-8121943Y-60377200D01*
X-7979086Y-60305771D01*
X-7764800Y-60305771D01*
X-7621943Y-60377200D01*
X-7550515Y-60448628D01*
X-7479086Y-60591485D01*
X-7479086Y-61020057D01*
X-7550515Y-61162914D01*
X-7621943Y-61234342D01*
X-7764800Y-61305771D01*
X-7979086Y-61305771D01*
X-6836229Y-61162914D02*
X-6764800Y-61234342D01*
X-6836229Y-61305771D01*
X-6907658Y-61234342D01*
X-6836229Y-61162914D01*
X-6836229Y-61305771D01*
X-5907658Y-61305771D02*
X-6050515Y-61234342D01*
X-6121943Y-61162914D01*
X-6193372Y-61020057D01*
X-6193372Y-60591485D01*
X-6121943Y-60448628D01*
X-6050515Y-60377200D01*
X-5907658Y-60305771D01*
X-5693372Y-60305771D01*
X-5550515Y-60377200D01*
X-5479086Y-60448628D01*
X-5407658Y-60591485D01*
X-5407658Y-61020057D01*
X-5479086Y-61162914D01*
X-5550515Y-61234342D01*
X-5693372Y-61305771D01*
X-5907658Y-61305771D01*
X-4764800Y-61162914D02*
X-4693372Y-61234342D01*
X-4764800Y-61305771D01*
X-4836229Y-61234342D01*
X-4764800Y-61162914D01*
X-4764800Y-61305771D01*
D10*
D11*
X-24670515Y-58305771D02*
X-25170515Y-57591485D01*
X-25527658Y-58305771D02*
X-25527658Y-56805771D01*
X-24956229Y-56805771D01*
X-24813372Y-56877200D01*
X-24741943Y-56948628D01*
X-24670515Y-57091485D01*
X-24670515Y-57305771D01*
X-24741943Y-57448628D01*
X-24813372Y-57520057D01*
X-24956229Y-57591485D01*
X-25527658Y-57591485D01*
X-23241943Y-56877200D02*
X-23384800Y-56805771D01*
X-23599086Y-56805771D01*
X-23813372Y-56877200D01*
X-23956229Y-57020057D01*
X-24027658Y-57162914D01*
X-24099086Y-57448628D01*
X-24099086Y-57662914D01*
X-24027658Y-57948628D01*
X-23956229Y-58091485D01*
X-23813372Y-58234342D01*
X-23599086Y-58305771D01*
X-23456229Y-58305771D01*
X-23241943Y-58234342D01*
X-23170515Y-58162914D01*
X-23170515Y-57662914D01*
X-23456229Y-57662914D01*
X-22670515Y-56805771D02*
X-22313372Y-58305771D01*
X-22027658Y-57234342D01*
X-21741943Y-58305771D01*
X-21384800Y-56805771D01*
D10*
D11*
D10*
D11*
D10*
D11*
D10*
D11*
X-6959800Y-72127200D02*
X-6959800Y-75127200D01*
D10*
D11*
X57040200Y-72127200D02*
X57040200Y-78627200D01*
D14*
X-170471134Y-2889803D02*
X-170470700Y82624110D01*
X2883866Y82576197D02*
X2883866Y-2889803D01*
X-170470700Y82624110D02*
X2883866Y82576197D01*
X-152033231Y19970197D02*
G75*
G03*
X-152033231Y19970197I-1419903J0D01*
G01*
X-20461231Y4095197D02*
G75*
G03*
X-20461231Y4095197I-1419903J0D01*
G01*
X-152033231Y69513957D02*
G75*
G03*
X-152033231Y69513957I-1419903J0D01*
G01*
X-61863231Y69513957D02*
G75*
G03*
X-61863231Y69513957I-1419903J0D01*
G01*
X2883866Y-2889803D02*
X-170471134Y-2889803D01*
X-92216231Y9175197D02*
G75*
G03*
X-92216231Y9175197I-1419903J0D01*
G01*
X493769Y76133957D02*
G75*
G03*
X493769Y76133957I-1419903J0D01*
G01*
D15*
D16*
X-166464381Y6893096D02*
X-166464381Y7574048D01*
X-166045334Y7207381D01*
X-166045334Y7364524D01*
X-165992953Y7469286D01*
X-165940572Y7521667D01*
X-165835810Y7574048D01*
X-165573905Y7574048D01*
X-165469143Y7521667D01*
X-165416762Y7469286D01*
X-165364381Y7364524D01*
X-165364381Y7050239D01*
X-165416762Y6945477D01*
X-165469143Y6893096D01*
X-166464381Y7888334D02*
X-165364381Y8255000D01*
X-166464381Y8621667D01*
X-166464381Y8883572D02*
X-166464381Y9564524D01*
X-166045334Y9197858D01*
X-166045334Y9355000D01*
X-165992953Y9459762D01*
X-165940572Y9512143D01*
X-165835810Y9564524D01*
X-165573905Y9564524D01*
X-165469143Y9512143D01*
X-165416762Y9459762D01*
X-165364381Y9355000D01*
X-165364381Y9040715D01*
X-165416762Y8935953D01*
X-165469143Y8883572D01*
D15*
D16*
X-166412000Y17576905D02*
X-166464381Y17472143D01*
X-166464381Y17315000D01*
X-166412000Y17157858D01*
X-166307239Y17053096D01*
X-166202477Y17000715D01*
X-165992953Y16948334D01*
X-165835810Y16948334D01*
X-165626286Y17000715D01*
X-165521524Y17053096D01*
X-165416762Y17157858D01*
X-165364381Y17315000D01*
X-165364381Y17419762D01*
X-165416762Y17576905D01*
X-165469143Y17629286D01*
X-165835810Y17629286D01*
X-165835810Y17419762D01*
X-165364381Y18100715D02*
X-166464381Y18100715D01*
X-165364381Y18729286D01*
X-166464381Y18729286D01*
X-165364381Y19253096D02*
X-166464381Y19253096D01*
X-166464381Y19515000D01*
X-166412000Y19672143D01*
X-166307239Y19776905D01*
X-166202477Y19829286D01*
X-165992953Y19881667D01*
X-165835810Y19881667D01*
X-165626286Y19829286D01*
X-165521524Y19776905D01*
X-165416762Y19672143D01*
X-165364381Y19515000D01*
X-165364381Y19253096D01*
D15*
D16*
X-165364381Y12120912D02*
X-166464381Y12120912D01*
X-166464381Y12382817D01*
X-166412000Y12539959D01*
X-166307239Y12644721D01*
X-166202477Y12697102D01*
X-165992953Y12749483D01*
X-165835810Y12749483D01*
X-165626286Y12697102D01*
X-165521524Y12644721D01*
X-165416762Y12539959D01*
X-165364381Y12382817D01*
X-165364381Y12120912D01*
X-165259620Y13954245D02*
X-165312000Y13849483D01*
X-165416762Y13744721D01*
X-165573905Y13587578D01*
X-165626286Y13482817D01*
X-165626286Y13378055D01*
X-165364381Y13430436D02*
X-165416762Y13325674D01*
X-165521524Y13220912D01*
X-165731048Y13168531D01*
X-166097715Y13168531D01*
X-166307239Y13220912D01*
X-166412000Y13325674D01*
X-166464381Y13430436D01*
X-166464381Y13639959D01*
X-166412000Y13744721D01*
X-166307239Y13849483D01*
X-166097715Y13901864D01*
X-165731048Y13901864D01*
X-165521524Y13849483D01*
X-165416762Y13744721D01*
X-165364381Y13639959D01*
X-165364381Y13430436D01*
D15*
D16*
X-65264230Y8455197D02*
X-65368992Y8507578D01*
X-65526134Y8507578D01*
X-65683277Y8455197D01*
X-65788039Y8350436D01*
X-65840420Y8245674D01*
X-65892801Y8036150D01*
X-65892801Y7879007D01*
X-65840420Y7669483D01*
X-65788039Y7564721D01*
X-65683277Y7459959D01*
X-65526134Y7407578D01*
X-65421373Y7407578D01*
X-65264230Y7459959D01*
X-65211849Y7512340D01*
X-65211849Y7879007D01*
X-65421373Y7879007D01*
X-64740420Y7407578D02*
X-64740420Y8507578D01*
X-64111849Y7407578D01*
X-64111849Y8507578D01*
X-63588039Y7407578D02*
X-63588039Y8507578D01*
X-63326134Y8507578D01*
X-63168992Y8455197D01*
X-63064230Y8350436D01*
X-63011849Y8245674D01*
X-62959468Y8036150D01*
X-62959468Y7879007D01*
X-63011849Y7669483D01*
X-63064230Y7564721D01*
X-63168992Y7459959D01*
X-63326134Y7407578D01*
X-63588039Y7407578D01*
D12*
D17*
X-62249858Y17756429D02*
X-62249858Y18899286D01*
X-61678429Y18327858D02*
X-62821286Y18327858D01*
X-63178429Y20327858D02*
X-63178429Y19613572D01*
X-62464143Y19542143D01*
X-62535572Y19613572D01*
X-62607000Y19756429D01*
X-62607000Y20113572D01*
X-62535572Y20256429D01*
X-62464143Y20327858D01*
X-62321286Y20399286D01*
X-61964143Y20399286D01*
X-61821286Y20327858D01*
X-61749858Y20256429D01*
X-61678429Y20113572D01*
X-61678429Y19756429D01*
X-61749858Y19613572D01*
X-61821286Y19542143D01*
X-63178429Y20827858D02*
X-61678429Y21327858D01*
X-63178429Y21827858D01*
D14*
X-20214468Y4095197D02*
G75*
G03*
X-20214468Y4095197I-1666666J0D01*
G01*
X-24381134Y4095197D02*
X-19381134Y4095197D01*
X-21881134Y6595197D02*
X-21881134Y1595197D01*
X-151786468Y19970197D02*
G75*
G03*
X-151786468Y19970197I-1666666J0D01*
G01*
X-155953134Y19970197D02*
X-150953134Y19970197D01*
X-153453134Y22470197D02*
X-153453134Y17470197D01*
X740532Y76133957D02*
G75*
G03*
X740532Y76133957I-1666666J0D01*
G01*
X-3426134Y76133957D02*
X1573866Y76133957D01*
X-926134Y78633957D02*
X-926134Y73633957D01*
X-151786468Y69513957D02*
G75*
G03*
X-151786468Y69513957I-1666666J0D01*
G01*
X-155953134Y69513957D02*
X-150953134Y69513957D01*
X-153453134Y72013957D02*
X-153453134Y67013957D01*
X-91969468Y9175197D02*
G75*
G03*
X-91969468Y9175197I-1666666J0D01*
G01*
X-96136134Y9175197D02*
X-91136134Y9175197D01*
X-93636134Y11675197D02*
X-93636134Y6675197D01*
X1539666Y0D02*
G75*
G03*
X1539666Y0I-1666666J0D01*
G01*
X-2627000Y0D02*
X2373000Y0D01*
X-127000Y2500000D02*
X-127000Y-2500000D01*
X-61616468Y69513957D02*
G75*
G03*
X-61616468Y69513957I-1666666J0D01*
G01*
X-65783134Y69513957D02*
X-60783134Y69513957D01*
X-63283134Y72013957D02*
X-63283134Y67013957D01*
D18*
%TO.P,D3,1,K*%
%TO.N,GNDREF*%
X-134523236Y41933468D03*
D19*
%TO.P,D3,2,A*%
%TO.N,Net-(D3-Pad2)*%
X-134523236Y39393468D03*
%TD*%
D20*
%TO.P,R5,1*%
%TO.N,Net-(Q13-Pad3)*%
X-120798134Y34940197D03*
%TO.P,R5,2*%
%TO.N,Net-(R5-Pad2)*%
X-118798134Y34940197D03*
%TD*%
D21*
%TO.P,J13,1,Pin_1*%
%TO.N,NEUT*%
X-9497000Y77768957D03*
D22*
%TO.P,J13,2,Pin_2*%
%TO.N,Net-(J13-Pad2)*%
X-14497000Y77768957D03*
%TD*%
D23*
%TO.P,U8,1*%
%TO.N,Net-(R8-Pad1)*%
X-71257000Y31140197D03*
D24*
%TO.P,U8,2*%
%TO.N,Net-(D7-Pad2)*%
X-68717000Y31140197D03*
%TO.P,U8,3,NC*%
%TO.N,unconnected-(U8-Pad3)*%
X-66177000Y31140197D03*
%TO.P,U8,4*%
%TO.N,Net-(Q7-Pad3)*%
X-66177000Y38760197D03*
%TO.P,U8,5,NC*%
%TO.N,unconnected-(U8-Pad5)*%
X-68717000Y38760197D03*
%TO.P,U8,6*%
%TO.N,Net-(R18-Pad1)*%
X-71257000Y38760197D03*
%TD*%
D20*
%TO.P,R50,1*%
%TO.N,Net-(J2-Pad8)*%
X-80028144Y28359374D03*
%TO.P,R50,2*%
%TO.N,Net-(Q19-Pad1)*%
X-78028144Y28359374D03*
%TD*%
D25*
%TO.P,R40,1*%
%TO.N,Net-(Q9-Pad3)*%
X-35568134Y67310000D03*
D26*
%TO.P,R40,2*%
%TO.N,Net-(C1-Pad2)*%
X-38108134Y67310000D03*
%TD*%
D25*
%TO.P,R27,1*%
%TO.N,Net-(C6-Pad1)*%
X-89318134Y53355197D03*
D26*
%TO.P,R27,2*%
%TO.N,Net-(J8-Pad2)*%
X-89318134Y55895197D03*
%TD*%
D18*
%TO.P,D2,1,K*%
%TO.N,GNDREF*%
X-149064035Y41930197D03*
D19*
%TO.P,D2,2,A*%
%TO.N,Net-(D2-Pad2)*%
X-149064035Y39390197D03*
%TD*%
D27*
%TO.P,Q9,1,A1*%
%TO.N,Net-(J11-Pad2)*%
X-42963134Y61850394D03*
D28*
%TO.P,Q9,2,A2*%
%TO.N,Net-(C1-Pad2)*%
X-40423134Y61850394D03*
%TO.P,Q9,3,G*%
%TO.N,Net-(Q9-Pad3)*%
X-37883134Y61850394D03*
%TD*%
D29*
%TO.P,C3,1*%
%TO.N,Net-(C3-Pad1)*%
X-142648134Y42665000D03*
%TO.P,C3,2*%
%TO.N,Net-(C1-Pad2)*%
X-142648134Y57665000D03*
%TD*%
D25*
%TO.P,R55,1*%
%TO.N,Net-(C11-Pad1)*%
X-14388134Y53355197D03*
D26*
%TO.P,R55,2*%
%TO.N,Net-(J13-Pad2)*%
X-14388134Y55895197D03*
%TD*%
D30*
%TO.P,JP1,1,A*%
%TO.N,Net-(J3-Pad2)*%
X-166768134Y67060000D03*
D31*
%TO.P,JP1,2,B*%
%TO.N,Net-(C1-Pad2)*%
X-164228134Y67060000D03*
%TD*%
D25*
%TO.P,RV6,1*%
%TO.N,Net-(C1-Pad2)*%
X-83643134Y70183957D03*
%TO.P,RV6,2*%
%TO.N,Net-(J8-Pad2)*%
X-88643134Y71383957D03*
%TD*%
D20*
%TO.P,R2,1*%
%TO.N,Net-(Q16-Pad3)*%
X-166884211Y34823911D03*
%TO.P,R2,2*%
%TO.N,Net-(R2-Pad2)*%
X-164884211Y34823911D03*
%TD*%
D23*
%TO.P,U2,1*%
%TO.N,Net-(R2-Pad2)*%
X-162353134Y31140197D03*
D24*
%TO.P,U2,2*%
%TO.N,Net-(D1-Pad2)*%
X-159813134Y31140197D03*
%TO.P,U2,3,NC*%
%TO.N,unconnected-(U2-Pad3)*%
X-157273134Y31140197D03*
%TO.P,U2,4*%
%TO.N,Net-(Q1-Pad3)*%
X-157273134Y38760197D03*
%TO.P,U2,5,NC*%
%TO.N,unconnected-(U2-Pad5)*%
X-159813134Y38760197D03*
%TO.P,U2,6*%
%TO.N,Net-(R13-Pad1)*%
X-162353134Y38760197D03*
%TD*%
D27*
%TO.P,Q7,1,A1*%
%TO.N,Net-(J9-Pad2)*%
X-74078134Y61850394D03*
D28*
%TO.P,Q7,2,A2*%
%TO.N,Net-(C1-Pad2)*%
X-71538134Y61850394D03*
%TO.P,Q7,3,G*%
%TO.N,Net-(Q7-Pad3)*%
X-68998134Y61850394D03*
%TD*%
D25*
%TO.P,R30,1*%
%TO.N,Net-(C9-Pad1)*%
X-43598134Y53355197D03*
D26*
%TO.P,R30,2*%
%TO.N,Net-(J11-Pad2)*%
X-43598134Y55895197D03*
%TD*%
D32*
%TO.P,Q19,1,B*%
%TO.N,Net-(Q19-Pad1)*%
X-75078798Y32331165D03*
%TO.P,Q19,2,E*%
%TO.N,+5V*%
X-76978798Y32331165D03*
%TO.P,Q19,3,C*%
%TO.N,Net-(Q19-Pad3)*%
X-76028798Y30456165D03*
%TD*%
D30*
%TO.P,JP9,1,A*%
%TO.N,Net-(J6-Pad2)*%
X-120413134Y67060000D03*
D31*
%TO.P,JP9,2,B*%
%TO.N,Net-(C1-Pad2)*%
X-117873134Y67060000D03*
%TD*%
D21*
%TO.P,J12,1,Pin_1*%
%TO.N,NEUT*%
X-24497000Y77768957D03*
D22*
%TO.P,J12,2,Pin_2*%
%TO.N,Net-(J12-Pad2)*%
X-29497000Y77768957D03*
%TD*%
D21*
%TO.P,J3_DC5V1,1,Pin_1*%
%TO.N,GNDREF*%
X-64897000Y11715197D03*
D22*
%TO.P,J3_DC5V1,2,Pin_2*%
%TO.N,+5V*%
X-64897000Y16715197D03*
%TD*%
D27*
%TO.P,Q2,1,A1*%
%TO.N,Net-(J4-Pad2)*%
X-147738134Y61850394D03*
D28*
%TO.P,Q2,2,A2*%
%TO.N,Net-(C1-Pad2)*%
X-145198134Y61850394D03*
%TO.P,Q2,3,G*%
%TO.N,Net-(Q2-Pad3)*%
X-142658134Y61850394D03*
%TD*%
D21*
%TO.P,J5,1,Pin_1*%
%TO.N,NEUT*%
X-129497000Y77768957D03*
D22*
%TO.P,J5,2,Pin_2*%
%TO.N,Net-(J5-Pad2)*%
X-134497000Y77768957D03*
%TD*%
D25*
%TO.P,R28,1*%
%TO.N,Net-(C7-Pad1)*%
X-74713134Y53355197D03*
D26*
%TO.P,R28,2*%
%TO.N,Net-(J9-Pad2)*%
X-74713134Y55895197D03*
%TD*%
D20*
%TO.P,R48,1*%
%TO.N,Net-(J2-Pad10)*%
X-49558224Y28480324D03*
%TO.P,R48,2*%
%TO.N,Net-(Q17-Pad1)*%
X-47558224Y28480324D03*
%TD*%
D18*
%TO.P,D5,1,K*%
%TO.N,GNDREF*%
X-104688220Y41899744D03*
D19*
%TO.P,D5,2,A*%
%TO.N,Net-(D5-Pad2)*%
X-104688220Y39359744D03*
%TD*%
D33*
%TO.P,R44,1*%
%TO.N,Net-(J2-Pad5)*%
X-116602000Y28263788D03*
%TO.P,R44,2*%
%TO.N,Net-(Q13-Pad1)*%
X-118602000Y28263788D03*
%TD*%
D25*
%TO.P,R38,1*%
%TO.N,Net-(Q7-Pad3)*%
X-67953134Y67310000D03*
D26*
%TO.P,R38,2*%
%TO.N,Net-(C1-Pad2)*%
X-70493134Y67310000D03*
%TD*%
D30*
%TO.P,JP6,1,A*%
%TO.N,Net-(J9-Pad2)*%
X-76598134Y67060000D03*
D31*
%TO.P,JP6,2,B*%
%TO.N,Net-(C1-Pad2)*%
X-74058134Y67060000D03*
%TD*%
D21*
%TO.P,J6,1,Pin_1*%
%TO.N,NEUT*%
X-114497000Y77768957D03*
D22*
%TO.P,J6,2,Pin_2*%
%TO.N,Net-(J6-Pad2)*%
X-119497000Y77768957D03*
%TD*%
D21*
%TO.P,J7,1,Pin_1*%
%TO.N,NEUT*%
X-99497000Y77768957D03*
D22*
%TO.P,J7,2,Pin_2*%
%TO.N,Net-(J7-Pad2)*%
X-104497000Y77768957D03*
%TD*%
D34*
%TO.P,J5_AC_INPUT1,1,Pin_1*%
%TO.N,NEUT*%
X-8038134Y8905197D03*
D35*
%TO.P,J5_AC_INPUT1,2,Pin_2*%
%TO.N,LINE*%
X-8038134Y3825197D03*
%TD*%
D25*
%TO.P,R25,1*%
%TO.N,Net-(C4-Pad1)*%
X-133768134Y53355197D03*
D26*
%TO.P,R25,2*%
%TO.N,Net-(J5-Pad2)*%
X-133768134Y55895197D03*
%TD*%
D29*
%TO.P,C4,1*%
%TO.N,Net-(C4-Pad1)*%
X-128053134Y42665000D03*
%TO.P,C4,2*%
%TO.N,Net-(C1-Pad2)*%
X-128053134Y57665000D03*
%TD*%
D30*
%TO.P,JP5,1,A*%
%TO.N,Net-(J8-Pad2)*%
X-90568134Y67060000D03*
D31*
%TO.P,JP5,2,B*%
%TO.N,Net-(C1-Pad2)*%
X-88028134Y67060000D03*
%TD*%
D18*
%TO.P,D4,1,K*%
%TO.N,GNDREF*%
X-119877525Y41940831D03*
D19*
%TO.P,D4,2,A*%
%TO.N,Net-(D4-Pad2)*%
X-119877525Y39400831D03*
%TD*%
D33*
%TO.P,R47,1*%
%TO.N,Net-(J2-Pad2)*%
X-161216134Y28225197D03*
%TO.P,R47,2*%
%TO.N,Net-(Q16-Pad1)*%
X-163216134Y28225197D03*
%TD*%
D27*
%TO.P,Q1,1,A1*%
%TO.N,Net-(J3-Pad2)*%
X-164883134Y61850394D03*
D28*
%TO.P,Q1,2,A2*%
%TO.N,Net-(C1-Pad2)*%
X-162343134Y61850394D03*
%TO.P,Q1,3,G*%
%TO.N,Net-(Q1-Pad3)*%
X-159803134Y61850394D03*
%TD*%
D21*
%TO.P,J4_AC_OUTPUT1,1,Pin_1*%
%TO.N,NEUT*%
X-8564848Y19722543D03*
D22*
%TO.P,J4_AC_OUTPUT1,2,Pin_2*%
%TO.N,Net-(C1-Pad2)*%
X-8564848Y24722543D03*
%TD*%
D23*
%TO.P,U11,1*%
%TO.N,Net-(R11-Pad1)*%
X-25193134Y31140197D03*
D24*
%TO.P,U11,2*%
%TO.N,Net-(D10-Pad2)*%
X-22653134Y31140197D03*
%TO.P,U11,3,NC*%
%TO.N,unconnected-(U11-Pad3)*%
X-20113134Y31140197D03*
%TO.P,U11,4*%
%TO.N,Net-(Q10-Pad3)*%
X-20113134Y38760197D03*
%TO.P,U11,5,NC*%
%TO.N,unconnected-(U11-Pad5)*%
X-22653134Y38760197D03*
%TO.P,U11,6*%
%TO.N,Net-(R21-Pad1)*%
X-25193134Y38760197D03*
%TD*%
D25*
%TO.P,RV2,1*%
%TO.N,Net-(C1-Pad2)*%
X-142063134Y70183957D03*
%TO.P,RV2,2*%
%TO.N,Net-(J4-Pad2)*%
X-147063134Y71383957D03*
%TD*%
%TO.P,R26,1*%
%TO.N,Net-(C5-Pad1)*%
X-119163134Y53355197D03*
D26*
%TO.P,R26,2*%
%TO.N,Net-(J6-Pad2)*%
X-119163134Y55895197D03*
%TD*%
D25*
%TO.P,R31,1*%
%TO.N,Net-(C10-Pad1)*%
X-28358134Y53355197D03*
D26*
%TO.P,R31,2*%
%TO.N,Net-(J12-Pad2)*%
X-28358134Y55895197D03*
%TD*%
D32*
%TO.P,Q18,1,B*%
%TO.N,Net-(Q18-Pad1)*%
X-104234862Y32331165D03*
%TO.P,Q18,2,E*%
%TO.N,+5V*%
X-106134862Y32331165D03*
%TO.P,Q18,3,C*%
%TO.N,Net-(Q18-Pad3)*%
X-105184862Y30456165D03*
%TD*%
D30*
%TO.P,JP3,1,A*%
%TO.N,Net-(J5-Pad2)*%
X-135018134Y67060000D03*
D31*
%TO.P,JP3,2,B*%
%TO.N,Net-(C1-Pad2)*%
X-132478134Y67060000D03*
%TD*%
D29*
%TO.P,C7,1*%
%TO.N,Net-(C7-Pad1)*%
X-68707000Y42665000D03*
%TO.P,C7,2*%
%TO.N,Net-(C1-Pad2)*%
X-68707000Y57665000D03*
%TD*%
D25*
%TO.P,RV1,1*%
%TO.N,Net-(C1-Pad2)*%
X-160478134Y70183957D03*
%TO.P,RV1,2*%
%TO.N,Net-(J3-Pad2)*%
X-165478134Y71383957D03*
%TD*%
%TO.P,R34,1*%
%TO.N,Net-(Q3-Pad3)*%
X-125103134Y67310000D03*
D26*
%TO.P,R34,2*%
%TO.N,Net-(C1-Pad2)*%
X-127643134Y67310000D03*
%TD*%
D33*
%TO.P,R9,1*%
%TO.N,Net-(R9-Pad1)*%
X-58743134Y34940197D03*
%TO.P,R9,2*%
%TO.N,Net-(Q20-Pad3)*%
X-60743134Y34940197D03*
%TD*%
D27*
%TO.P,Q3,1,A1*%
%TO.N,Net-(J5-Pad2)*%
X-133133134Y61850394D03*
D28*
%TO.P,Q3,2,A2*%
%TO.N,Net-(C1-Pad2)*%
X-130593134Y61850394D03*
%TO.P,Q3,3,G*%
%TO.N,Net-(Q3-Pad3)*%
X-128053134Y61850394D03*
%TD*%
D27*
%TO.P,Q8,1,A1*%
%TO.N,Net-(J10-Pad2)*%
X-58838134Y61850394D03*
D28*
%TO.P,Q8,2,A2*%
%TO.N,Net-(C1-Pad2)*%
X-56298134Y61850394D03*
%TO.P,Q8,3,G*%
%TO.N,Net-(Q8-Pad3)*%
X-53758134Y61850394D03*
%TD*%
D33*
%TO.P,R7,1*%
%TO.N,Net-(R7-Pad1)*%
X-88953134Y34940197D03*
%TO.P,R7,2*%
%TO.N,Net-(Q21-Pad3)*%
X-90953134Y34940197D03*
%TD*%
D30*
%TO.P,JP7,1,A*%
%TO.N,Net-(J10-Pad2)*%
X-58183134Y67060000D03*
D31*
%TO.P,JP7,2,B*%
%TO.N,Net-(C1-Pad2)*%
X-55643134Y67060000D03*
%TD*%
D25*
%TO.P,R19,1*%
%TO.N,Net-(R19-Pad1)*%
X-59438645Y47230197D03*
D26*
%TO.P,R19,2*%
%TO.N,Net-(C8-Pad1)*%
X-59438645Y49770197D03*
%TD*%
D21*
%TO.P,J8,1,Pin_1*%
%TO.N,NEUT*%
X-84497000Y77768957D03*
D22*
%TO.P,J8,2,Pin_2*%
%TO.N,Net-(J8-Pad2)*%
X-89497000Y77768957D03*
%TD*%
D30*
%TO.P,JP11,1,A*%
%TO.N,Net-(J13-Pad2)*%
X-16273134Y67060000D03*
D31*
%TO.P,JP11,2,B*%
%TO.N,Net-(C1-Pad2)*%
X-13733134Y67060000D03*
%TD*%
D30*
%TO.P,JP2,1,A*%
%TO.N,Net-(J4-Pad2)*%
X-148082437Y67093202D03*
D31*
%TO.P,JP2,2,B*%
%TO.N,Net-(C1-Pad2)*%
X-145542437Y67093202D03*
%TD*%
D21*
%TO.P,J9,1,Pin_1*%
%TO.N,NEUT*%
X-69497000Y77768957D03*
D22*
%TO.P,J9,2,Pin_2*%
%TO.N,Net-(J9-Pad2)*%
X-74497000Y77768957D03*
%TD*%
D20*
%TO.P,R4,1*%
%TO.N,Net-(Q12-Pad3)*%
X-135112000Y35034948D03*
%TO.P,R4,2*%
%TO.N,Net-(R4-Pad2)*%
X-133112000Y35034948D03*
%TD*%
D25*
%TO.P,R56,1*%
%TO.N,Net-(Q22-Pad3)*%
X-6358134Y67310000D03*
D26*
%TO.P,R56,2*%
%TO.N,Net-(C1-Pad2)*%
X-8898134Y67310000D03*
%TD*%
D25*
%TO.P,RV12,1*%
%TO.N,NEUT*%
X-21281134Y14850197D03*
%TO.P,RV12,2*%
%TO.N,Net-(C1-Pad2)*%
X-22481134Y9850197D03*
%TD*%
D29*
%TO.P,C2,1*%
%TO.N,Net-(C2-Pad1)*%
X-159803134Y42785000D03*
%TO.P,C2,2*%
%TO.N,Net-(C1-Pad2)*%
X-159803134Y57785000D03*
%TD*%
D27*
%TO.P,Q10,1,A1*%
%TO.N,Net-(J12-Pad2)*%
X-27723134Y61850394D03*
D28*
%TO.P,Q10,2,A2*%
%TO.N,Net-(C1-Pad2)*%
X-25183134Y61850394D03*
%TO.P,Q10,3,G*%
%TO.N,Net-(Q10-Pad3)*%
X-22643134Y61850394D03*
%TD*%
D20*
%TO.P,R45,1*%
%TO.N,Net-(J2-Pad11)*%
X-34119929Y28399035D03*
%TO.P,R45,2*%
%TO.N,Net-(Q14-Pad1)*%
X-32119929Y28399035D03*
%TD*%
D23*
%TO.P,U10,1*%
%TO.N,Net-(R10-Pad1)*%
X-40433134Y31140197D03*
D24*
%TO.P,U10,2*%
%TO.N,Net-(D9-Pad2)*%
X-37893134Y31140197D03*
%TO.P,U10,3,NC*%
%TO.N,unconnected-(U10-Pad3)*%
X-35353134Y31140197D03*
%TO.P,U10,4*%
%TO.N,Net-(Q9-Pad3)*%
X-35353134Y38760197D03*
%TO.P,U10,5,NC*%
%TO.N,unconnected-(U10-Pad5)*%
X-37893134Y38760197D03*
%TO.P,U10,6*%
%TO.N,Net-(R20-Pad1)*%
X-40433134Y38760197D03*
%TD*%
D25*
%TO.P,R54,1*%
%TO.N,Net-(R54-Pad1)*%
X-14388134Y47230197D03*
D26*
%TO.P,R54,2*%
%TO.N,Net-(C11-Pad1)*%
X-14388134Y49770197D03*
%TD*%
D20*
%TO.P,R52,1*%
%TO.N,Net-(J2-Pad7)*%
X-95134072Y28413517D03*
%TO.P,R52,2*%
%TO.N,Net-(Q21-Pad1)*%
X-93134072Y28413517D03*
%TD*%
D18*
%TO.P,D8,1,K*%
%TO.N,GNDREF*%
X-60276200Y41903126D03*
D19*
%TO.P,D8,2,A*%
%TO.N,Net-(D8-Pad2)*%
X-60276200Y39363126D03*
%TD*%
D36*
%TO.P,F1,1*%
%TO.N,LINE*%
X-16397552Y8351421D03*
X-16397552Y3751421D03*
%TO.P,F1,2*%
%TO.N,Net-(C1-Pad2)*%
X-16397552Y24251421D03*
X-16397552Y19651421D03*
%TD*%
D25*
%TO.P,R24,1*%
%TO.N,Net-(C3-Pad1)*%
X-148363134Y53355197D03*
D26*
%TO.P,R24,2*%
%TO.N,Net-(J4-Pad2)*%
X-148363134Y55895197D03*
%TD*%
D25*
%TO.P,R21,1*%
%TO.N,Net-(R21-Pad1)*%
X-28358134Y47230197D03*
D26*
%TO.P,R21,2*%
%TO.N,Net-(C10-Pad1)*%
X-28358134Y49770197D03*
%TD*%
D25*
%TO.P,R37,1*%
%TO.N,Net-(Q6-Pad3)*%
X-80653134Y67310000D03*
D26*
%TO.P,R37,2*%
%TO.N,Net-(C1-Pad2)*%
X-83193134Y67310000D03*
%TD*%
D25*
%TO.P,R41,1*%
%TO.N,Net-(Q10-Pad3)*%
X-20328134Y67310000D03*
D26*
%TO.P,R41,2*%
%TO.N,Net-(C1-Pad2)*%
X-22868134Y67310000D03*
%TD*%
D34*
%TO.P,J1,1,Pin_1*%
%TO.N,GNDREF*%
X-160782000Y18415000D03*
D35*
%TO.P,J1,2,Pin_2*%
%TO.N,Net-(J1-Pad2)*%
X-160782000Y13335000D03*
%TO.P,J1,3,Pin_3*%
%TO.N,+3V3*%
X-160782000Y8255000D03*
%TD*%
D25*
%TO.P,RV9,1*%
%TO.N,Net-(C1-Pad2)*%
X-38558134Y70183957D03*
%TO.P,RV9,2*%
%TO.N,Net-(J11-Pad2)*%
X-43558134Y71383957D03*
%TD*%
D29*
%TO.P,C11,1*%
%TO.N,Net-(C11-Pad1)*%
X-8673134Y42785000D03*
%TO.P,C11,2*%
%TO.N,Net-(C1-Pad2)*%
X-8673134Y57785000D03*
%TD*%
D25*
%TO.P,R22,1*%
%TO.N,Net-(C1-Pad1)*%
X-103923134Y53355197D03*
D26*
%TO.P,R22,2*%
%TO.N,Net-(J7-Pad2)*%
X-103923134Y55895197D03*
%TD*%
D18*
%TO.P,D7,1,K*%
%TO.N,GNDREF*%
X-75335722Y41930197D03*
D19*
%TO.P,D7,2,A*%
%TO.N,Net-(D7-Pad2)*%
X-75335722Y39390197D03*
%TD*%
D30*
%TO.P,J2,1,Pin_1*%
%TO.N,GNDREF*%
X-109008134Y17430197D03*
D31*
%TO.P,J2,2,Pin_2*%
%TO.N,Net-(J2-Pad2)*%
X-106468134Y17430197D03*
%TO.P,J2,3,Pin_3*%
%TO.N,Net-(J2-Pad3)*%
X-103928134Y17430197D03*
%TO.P,J2,4,Pin_4*%
%TO.N,Net-(J2-Pad4)*%
X-101388134Y17430197D03*
%TO.P,J2,5,Pin_5*%
%TO.N,Net-(J2-Pad5)*%
X-98848134Y17430197D03*
%TO.P,J2,6,Pin_6*%
%TO.N,Net-(J2-Pad6)*%
X-96308134Y17430197D03*
%TO.P,J2,7,Pin_7*%
%TO.N,Net-(J2-Pad7)*%
X-93768134Y17430197D03*
%TO.P,J2,8,Pin_8*%
%TO.N,Net-(J2-Pad8)*%
X-91228134Y17430197D03*
%TO.P,J2,9,Pin_9*%
%TO.N,Net-(J2-Pad9)*%
X-88688134Y17430197D03*
%TO.P,J2,10,Pin_10*%
%TO.N,Net-(J2-Pad10)*%
X-86148134Y17430197D03*
%TO.P,J2,11,Pin_11*%
%TO.N,Net-(J2-Pad11)*%
X-83608134Y17430197D03*
%TO.P,J2,12,Pin_12*%
%TO.N,Net-(J2-Pad12)*%
X-81068134Y17430197D03*
%TD*%
D30*
%TO.P,JP8,1,A*%
%TO.N,Net-(J11-Pad2)*%
X-45483134Y67060000D03*
D31*
%TO.P,JP8,2,B*%
%TO.N,Net-(C1-Pad2)*%
X-42943134Y67060000D03*
%TD*%
D20*
%TO.P,R46,1*%
%TO.N,Net-(J2-Pad12)*%
X-20275142Y28547929D03*
%TO.P,R46,2*%
%TO.N,Net-(Q15-Pad1)*%
X-18275142Y28547929D03*
%TD*%
D33*
%TO.P,R8,1*%
%TO.N,Net-(R8-Pad1)*%
X-74348134Y34940197D03*
%TO.P,R8,2*%
%TO.N,Net-(Q19-Pad3)*%
X-76348134Y34940197D03*
%TD*%
D25*
%TO.P,RV7,1*%
%TO.N,Net-(C1-Pad2)*%
X-69673134Y70183957D03*
%TO.P,RV7,2*%
%TO.N,Net-(J9-Pad2)*%
X-74673134Y71383957D03*
%TD*%
D21*
%TO.P,J10,1,Pin_1*%
%TO.N,NEUT*%
X-54497000Y77768957D03*
D22*
%TO.P,J10,2,Pin_2*%
%TO.N,Net-(J10-Pad2)*%
X-59497000Y77768957D03*
%TD*%
D32*
%TO.P,Q15,1,B*%
%TO.N,Net-(Q15-Pad1)*%
X-14753798Y32331165D03*
%TO.P,Q15,2,E*%
%TO.N,+5V*%
X-16653798Y32331165D03*
%TO.P,Q15,3,C*%
%TO.N,Net-(Q15-Pad3)*%
X-15703798Y30456165D03*
%TD*%
D25*
%TO.P,R33,1*%
%TO.N,Net-(Q2-Pad3)*%
X-139073134Y67310000D03*
D26*
%TO.P,R33,2*%
%TO.N,Net-(C1-Pad2)*%
X-141613134Y67310000D03*
%TD*%
D29*
%TO.P,C6,1*%
%TO.N,Net-(C6-Pad1)*%
X-83603134Y42665000D03*
%TO.P,C6,2*%
%TO.N,Net-(C1-Pad2)*%
X-83603134Y57665000D03*
%TD*%
D21*
%TO.P,J3,1,Pin_1*%
%TO.N,NEUT*%
X-159497000Y77768957D03*
D22*
%TO.P,J3,2,Pin_2*%
%TO.N,Net-(J3-Pad2)*%
X-164497000Y77768957D03*
%TD*%
D27*
%TO.P,Q5,1,A1*%
%TO.N,Net-(J7-Pad2)*%
X-103288134Y61850394D03*
D28*
%TO.P,Q5,2,A2*%
%TO.N,Net-(C1-Pad2)*%
X-100748134Y61850394D03*
%TO.P,Q5,3,G*%
%TO.N,Net-(Q5-Pad3)*%
X-98208134Y61850394D03*
%TD*%
D25*
%TO.P,RV4,1*%
%TO.N,Net-(C1-Pad2)*%
X-113488134Y70183957D03*
%TO.P,RV4,2*%
%TO.N,Net-(J6-Pad2)*%
X-118488134Y71383957D03*
%TD*%
D33*
%TO.P,R49,1*%
%TO.N,Net-(J2-Pad6)*%
X-98351134Y28225197D03*
%TO.P,R49,2*%
%TO.N,Net-(Q18-Pad1)*%
X-100351134Y28225197D03*
%TD*%
D25*
%TO.P,RV10,1*%
%TO.N,Net-(C1-Pad2)*%
X-23318134Y70183957D03*
%TO.P,RV10,2*%
%TO.N,Net-(J12-Pad2)*%
X-28318134Y71383957D03*
%TD*%
D32*
%TO.P,Q20,1,B*%
%TO.N,Net-(Q20-Pad1)*%
X-59838798Y32331165D03*
%TO.P,Q20,2,E*%
%TO.N,+5V*%
X-61738798Y32331165D03*
%TO.P,Q20,3,C*%
%TO.N,Net-(Q20-Pad3)*%
X-60788798Y30456165D03*
%TD*%
D33*
%TO.P,R53,1*%
%TO.N,Net-(R53-Pad1)*%
X-13747137Y34950426D03*
%TO.P,R53,2*%
%TO.N,Net-(Q15-Pad3)*%
X-15747137Y34950426D03*
%TD*%
D32*
%TO.P,Q13,1,B*%
%TO.N,Net-(Q13-Pad1)*%
X-119528798Y32331165D03*
%TO.P,Q13,2,E*%
%TO.N,+5V*%
X-121428798Y32331165D03*
%TO.P,Q13,3,C*%
%TO.N,Net-(Q13-Pad3)*%
X-120478798Y30456165D03*
%TD*%
D18*
%TO.P,D1,1,K*%
%TO.N,GNDREF*%
X-166335687Y41314915D03*
D19*
%TO.P,D1,2,A*%
%TO.N,Net-(D1-Pad2)*%
X-166335687Y38774915D03*
%TD*%
D23*
%TO.P,U9,1*%
%TO.N,Net-(R9-Pad1)*%
X-56275773Y31140197D03*
D24*
%TO.P,U9,2*%
%TO.N,Net-(D8-Pad2)*%
X-53735773Y31140197D03*
%TO.P,U9,3,NC*%
%TO.N,unconnected-(U9-Pad3)*%
X-51195773Y31140197D03*
%TO.P,U9,4*%
%TO.N,Net-(Q8-Pad3)*%
X-51195773Y38760197D03*
%TO.P,U9,5,NC*%
%TO.N,unconnected-(U9-Pad5)*%
X-53735773Y38760197D03*
%TO.P,U9,6*%
%TO.N,Net-(R19-Pad1)*%
X-56275773Y38760197D03*
%TD*%
D30*
%TO.P,JP10,1,A*%
%TO.N,Net-(J12-Pad2)*%
X-30878134Y67060000D03*
D31*
%TO.P,JP10,2,B*%
%TO.N,Net-(C1-Pad2)*%
X-28338134Y67060000D03*
%TD*%
D29*
%TO.P,C1,1*%
%TO.N,Net-(C1-Pad1)*%
X-98208134Y42665000D03*
%TO.P,C1,2*%
%TO.N,Net-(C1-Pad2)*%
X-98208134Y57665000D03*
%TD*%
D18*
%TO.P,D10,1,K*%
%TO.N,GNDREF*%
X-29067990Y41937524D03*
D19*
%TO.P,D10,2,A*%
%TO.N,Net-(D10-Pad2)*%
X-29067990Y39397524D03*
%TD*%
D29*
%TO.P,C5,1*%
%TO.N,Net-(C5-Pad1)*%
X-113448134Y42665000D03*
%TO.P,C5,2*%
%TO.N,Net-(C1-Pad2)*%
X-113448134Y57665000D03*
%TD*%
D33*
%TO.P,R6,1*%
%TO.N,Net-(R6-Pad1)*%
X-103558134Y34940197D03*
%TO.P,R6,2*%
%TO.N,Net-(Q18-Pad3)*%
X-105558134Y34940197D03*
%TD*%
D18*
%TO.P,D11,1,K*%
%TO.N,GNDREF*%
X-15099067Y41937524D03*
D19*
%TO.P,D11,2,A*%
%TO.N,Net-(D11-Pad2)*%
X-15099067Y39397524D03*
%TD*%
D37*
%TO.P,U1,1,EN*%
%TO.N,unconnected-(U1-Pad1)*%
X-75983134Y25050197D03*
D38*
%TO.P,U1,2,SENSOR_VP*%
%TO.N,unconnected-(U1-Pad2)*%
X-78523134Y25050197D03*
%TO.P,U1,3,SENSOR_VN*%
%TO.N,unconnected-(U1-Pad3)*%
X-81063134Y25050197D03*
%TO.P,U1,4,IO34*%
%TO.N,unconnected-(U1-Pad4)*%
X-83603134Y25050197D03*
%TO.P,U1,5,IO35*%
%TO.N,unconnected-(U1-Pad5)*%
X-86143134Y25050197D03*
%TO.P,U1,6,IO32*%
%TO.N,Net-(J2-Pad9)*%
X-88683134Y25050197D03*
%TO.P,U1,7,IO33*%
%TO.N,Net-(J2-Pad8)*%
X-91223134Y25050197D03*
%TO.P,U1,8,IO25*%
%TO.N,Net-(J2-Pad7)*%
X-93763134Y25050197D03*
%TO.P,U1,9,IO26*%
%TO.N,Net-(J2-Pad6)*%
X-96303134Y25050197D03*
%TO.P,U1,10,IO27*%
%TO.N,Net-(J2-Pad5)*%
X-98843134Y25050197D03*
%TO.P,U1,11,IO14*%
%TO.N,Net-(J2-Pad4)*%
X-101383134Y25050197D03*
%TO.P,U1,12,IO12*%
%TO.N,Net-(J2-Pad3)*%
X-103923134Y25050197D03*
%TO.P,U1,13,IO13*%
%TO.N,Net-(J2-Pad2)*%
X-106463134Y25050197D03*
%TO.P,U1,14,GND*%
%TO.N,GNDREF*%
X-109003134Y25050197D03*
%TO.P,U1,15,VIN*%
%TO.N,+5V*%
X-111543134Y25050197D03*
%TO.P,U1,16,3V3*%
%TO.N,+3V3*%
X-111543134Y-349803D03*
%TO.P,U1,17,GND*%
%TO.N,GNDREF*%
X-109003134Y-349803D03*
%TO.P,U1,18,IO15*%
%TO.N,Net-(J1-Pad2)*%
X-106463134Y-349803D03*
%TO.P,U1,19,IO2*%
%TO.N,unconnected-(U1-Pad19)*%
X-103923134Y-349803D03*
%TO.P,U1,20,IO4*%
%TO.N,unconnected-(U1-Pad20)*%
X-101383134Y-349803D03*
%TO.P,U1,21,IO16*%
%TO.N,unconnected-(U1-Pad21)*%
X-98843134Y-349803D03*
%TO.P,U1,22,IO17*%
%TO.N,unconnected-(U1-Pad22)*%
X-96303134Y-349803D03*
%TO.P,U1,23,IO5*%
%TO.N,unconnected-(U1-Pad23)*%
X-93763134Y-349803D03*
%TO.P,U1,24,IO18*%
%TO.N,unconnected-(U1-Pad24)*%
X-91223134Y-349803D03*
%TO.P,U1,25,IO19*%
%TO.N,unconnected-(U1-Pad25)*%
X-88683134Y-349803D03*
%TO.P,U1,26,IO21*%
%TO.N,Net-(J2-Pad10)*%
X-86143134Y-349803D03*
%TO.P,U1,27,RXD0/IO3*%
%TO.N,unconnected-(U1-Pad27)*%
X-83603134Y-349803D03*
%TO.P,U1,28,TXD0/IO1*%
%TO.N,unconnected-(U1-Pad28)*%
X-81063134Y-349803D03*
%TO.P,U1,29,IO22*%
%TO.N,Net-(J2-Pad11)*%
X-78523134Y-349803D03*
%TO.P,U1,30,IO23*%
%TO.N,Net-(J2-Pad12)*%
X-75983134Y-349803D03*
%TD*%
D23*
%TO.P,U3,1*%
%TO.N,Net-(R3-Pad2)*%
X-145198134Y31140197D03*
D24*
%TO.P,U3,2*%
%TO.N,Net-(D2-Pad2)*%
X-142658134Y31140197D03*
%TO.P,U3,3,NC*%
%TO.N,unconnected-(U3-Pad3)*%
X-140118134Y31140197D03*
%TO.P,U3,4*%
%TO.N,Net-(Q2-Pad3)*%
X-140118134Y38760197D03*
%TO.P,U3,5,NC*%
%TO.N,unconnected-(U3-Pad5)*%
X-142658134Y38760197D03*
%TO.P,U3,6*%
%TO.N,Net-(R14-Pad1)*%
X-145198134Y38760197D03*
%TD*%
D25*
%TO.P,R35,1*%
%TO.N,Net-(Q4-Pad3)*%
X-110498134Y67310000D03*
D26*
%TO.P,R35,2*%
%TO.N,Net-(C1-Pad2)*%
X-113038134Y67310000D03*
%TD*%
D25*
%TO.P,RV8,1*%
%TO.N,Net-(C1-Pad2)*%
X-51893134Y70183957D03*
%TO.P,RV8,2*%
%TO.N,Net-(J10-Pad2)*%
X-56893134Y71383957D03*
%TD*%
D21*
%TO.P,J4,1,Pin_1*%
%TO.N,NEUT*%
X-144497000Y77768957D03*
D22*
%TO.P,J4,2,Pin_2*%
%TO.N,Net-(J4-Pad2)*%
X-149497000Y77768957D03*
%TD*%
D29*
%TO.P,C10,1*%
%TO.N,Net-(C10-Pad1)*%
X-22643134Y42665000D03*
%TO.P,C10,2*%
%TO.N,Net-(C1-Pad2)*%
X-22643134Y57665000D03*
%TD*%
%TO.P,C9,1*%
%TO.N,Net-(C9-Pad1)*%
X-37883134Y42665000D03*
%TO.P,C9,2*%
%TO.N,Net-(C1-Pad2)*%
X-37883134Y57665000D03*
%TD*%
D23*
%TO.P,U7,1*%
%TO.N,Net-(R7-Pad1)*%
X-86109659Y31128074D03*
D24*
%TO.P,U7,2*%
%TO.N,Net-(D6-Pad2)*%
X-83569659Y31128074D03*
%TO.P,U7,3,NC*%
%TO.N,unconnected-(U7-Pad3)*%
X-81029659Y31128074D03*
%TO.P,U7,4*%
%TO.N,Net-(Q6-Pad3)*%
X-81029659Y38748074D03*
%TO.P,U7,5,NC*%
%TO.N,unconnected-(U7-Pad5)*%
X-83569659Y38748074D03*
%TO.P,U7,6*%
%TO.N,Net-(R17-Pad1)*%
X-86109659Y38748074D03*
%TD*%
D25*
%TO.P,RV11,1*%
%TO.N,Net-(C1-Pad2)*%
X-8713134Y70183957D03*
%TO.P,RV11,2*%
%TO.N,Net-(J13-Pad2)*%
X-13713134Y71383957D03*
%TD*%
D33*
%TO.P,R11,1*%
%TO.N,Net-(R11-Pad1)*%
X-27993134Y34940197D03*
%TO.P,R11,2*%
%TO.N,Net-(Q14-Pad3)*%
X-29993134Y34940197D03*
%TD*%
D25*
%TO.P,R16,1*%
%TO.N,Net-(R16-Pad1)*%
X-119218434Y47250448D03*
D26*
%TO.P,R16,2*%
%TO.N,Net-(C5-Pad1)*%
X-119218434Y49790448D03*
%TD*%
D32*
%TO.P,Q12,1,B*%
%TO.N,Net-(Q12-Pad1)*%
X-134133798Y32331165D03*
%TO.P,Q12,2,E*%
%TO.N,+5V*%
X-136033798Y32331165D03*
%TO.P,Q12,3,C*%
%TO.N,Net-(Q12-Pad3)*%
X-135083798Y30456165D03*
%TD*%
D27*
%TO.P,Q4,1,A1*%
%TO.N,Net-(J6-Pad2)*%
X-118528134Y61850394D03*
D28*
%TO.P,Q4,2,A2*%
%TO.N,Net-(C1-Pad2)*%
X-115988134Y61850394D03*
%TO.P,Q4,3,G*%
%TO.N,Net-(Q4-Pad3)*%
X-113448134Y61850394D03*
%TD*%
D27*
%TO.P,Q22,1,A1*%
%TO.N,Net-(J13-Pad2)*%
X-13753134Y61850394D03*
D28*
%TO.P,Q22,2,A2*%
%TO.N,Net-(C1-Pad2)*%
X-11213134Y61850394D03*
%TO.P,Q22,3,G*%
%TO.N,Net-(Q22-Pad3)*%
X-8673134Y61850394D03*
%TD*%
D29*
%TO.P,C8,1*%
%TO.N,Net-(C8-Pad1)*%
X-53758134Y42665000D03*
%TO.P,C8,2*%
%TO.N,Net-(C1-Pad2)*%
X-53758134Y57665000D03*
%TD*%
D25*
%TO.P,R18,1*%
%TO.N,Net-(R18-Pad1)*%
X-74713134Y47230197D03*
D26*
%TO.P,R18,2*%
%TO.N,Net-(C7-Pad1)*%
X-74713134Y49770197D03*
%TD*%
D25*
%TO.P,R14,1*%
%TO.N,Net-(R14-Pad1)*%
X-148363134Y47230197D03*
D26*
%TO.P,R14,2*%
%TO.N,Net-(C3-Pad1)*%
X-148363134Y49770197D03*
%TD*%
D18*
%TO.P,D6,1,K*%
%TO.N,GNDREF*%
X-90147071Y41933220D03*
D19*
%TO.P,D6,2,A*%
%TO.N,Net-(D6-Pad2)*%
X-90147071Y39393220D03*
%TD*%
D23*
%TO.P,U12,1*%
%TO.N,Net-(R53-Pad1)*%
X-11223134Y31140197D03*
D24*
%TO.P,U12,2*%
%TO.N,Net-(D11-Pad2)*%
X-8683134Y31140197D03*
%TO.P,U12,3,NC*%
%TO.N,unconnected-(U12-Pad3)*%
X-6143134Y31140197D03*
%TO.P,U12,4*%
%TO.N,Net-(Q22-Pad3)*%
X-6143134Y38760197D03*
%TO.P,U12,5,NC*%
%TO.N,unconnected-(U12-Pad5)*%
X-8683134Y38760197D03*
%TO.P,U12,6*%
%TO.N,Net-(R54-Pad1)*%
X-11223134Y38760197D03*
%TD*%
D25*
%TO.P,R29,1*%
%TO.N,Net-(C8-Pad1)*%
X-59473134Y53355197D03*
D26*
%TO.P,R29,2*%
%TO.N,Net-(J10-Pad2)*%
X-59473134Y55895197D03*
%TD*%
D25*
%TO.P,R13,1*%
%TO.N,Net-(R13-Pad1)*%
X-166153134Y47230197D03*
D26*
%TO.P,R13,2*%
%TO.N,Net-(C2-Pad1)*%
X-166153134Y49770197D03*
%TD*%
D25*
%TO.P,R32,1*%
%TO.N,Net-(Q1-Pad3)*%
X-157488134Y67310000D03*
D26*
%TO.P,R32,2*%
%TO.N,Net-(C1-Pad2)*%
X-160028134Y67310000D03*
%TD*%
D21*
%TO.P,J11,1,Pin_1*%
%TO.N,NEUT*%
X-39497000Y77768957D03*
D22*
%TO.P,J11,2,Pin_2*%
%TO.N,Net-(J11-Pad2)*%
X-44497000Y77768957D03*
%TD*%
D33*
%TO.P,R1,1*%
%TO.N,Net-(J1-Pad2)*%
X-107876134Y7270197D03*
%TO.P,R1,2*%
%TO.N,+3V3*%
X-109876134Y7270197D03*
%TD*%
%TO.P,R42,1*%
%TO.N,Net-(J2-Pad3)*%
X-144896663Y28317931D03*
%TO.P,R42,2*%
%TO.N,Net-(Q11-Pad1)*%
X-146896663Y28317931D03*
%TD*%
D32*
%TO.P,Q14,1,B*%
%TO.N,Net-(Q14-Pad1)*%
X-28723798Y32331165D03*
%TO.P,Q14,2,E*%
%TO.N,+5V*%
X-30623798Y32331165D03*
%TO.P,Q14,3,C*%
%TO.N,Net-(Q14-Pad3)*%
X-29673798Y30456165D03*
%TD*%
D33*
%TO.P,R43,1*%
%TO.N,Net-(J2-Pad4)*%
X-130278024Y28236717D03*
%TO.P,R43,2*%
%TO.N,Net-(Q12-Pad1)*%
X-132278024Y28236717D03*
%TD*%
D25*
%TO.P,R39,1*%
%TO.N,Net-(Q8-Pad3)*%
X-49538134Y67310000D03*
D26*
%TO.P,R39,2*%
%TO.N,Net-(C1-Pad2)*%
X-52078134Y67310000D03*
%TD*%
D39*
%TO.P,PS1,1,AC/L*%
%TO.N,Net-(C1-Pad2)*%
X-27638634Y10227460D03*
D36*
%TO.P,PS1,2,AC/N*%
%TO.N,NEUT*%
X-27638634Y15227460D03*
%TO.P,PS1,3,-Vout*%
%TO.N,GNDREF*%
X-57038634Y5027460D03*
%TO.P,PS1,4,+Vout*%
%TO.N,+5V*%
X-57038634Y20427460D03*
%TD*%
D32*
%TO.P,Q11,1,B*%
%TO.N,Net-(Q11-Pad1)*%
X-148738798Y32331165D03*
%TO.P,Q11,2,E*%
%TO.N,+5V*%
X-150638798Y32331165D03*
%TO.P,Q11,3,C*%
%TO.N,Net-(Q11-Pad3)*%
X-149688798Y30456165D03*
%TD*%
%TO.P,Q17,1,B*%
%TO.N,Net-(Q17-Pad1)*%
X-43963798Y32331165D03*
%TO.P,Q17,2,E*%
%TO.N,+5V*%
X-45863798Y32331165D03*
%TO.P,Q17,3,C*%
%TO.N,Net-(Q17-Pad3)*%
X-44913798Y30456165D03*
%TD*%
D23*
%TO.P,U5,1*%
%TO.N,Net-(R5-Pad2)*%
X-115998134Y31140197D03*
D24*
%TO.P,U5,2*%
%TO.N,Net-(D4-Pad2)*%
X-113458134Y31140197D03*
%TO.P,U5,3,NC*%
%TO.N,unconnected-(U5-Pad3)*%
X-110918134Y31140197D03*
%TO.P,U5,4*%
%TO.N,Net-(Q4-Pad3)*%
X-110918134Y38760197D03*
%TO.P,U5,5,NC*%
%TO.N,unconnected-(U5-Pad5)*%
X-113458134Y38760197D03*
%TO.P,U5,6*%
%TO.N,Net-(R16-Pad1)*%
X-115998134Y38760197D03*
%TD*%
D25*
%TO.P,RV3,1*%
%TO.N,Net-(C1-Pad2)*%
X-128093134Y70183957D03*
%TO.P,RV3,2*%
%TO.N,Net-(J5-Pad2)*%
X-133093134Y71383957D03*
%TD*%
D23*
%TO.P,U6,1*%
%TO.N,Net-(R6-Pad1)*%
X-100748134Y31130197D03*
D24*
%TO.P,U6,2*%
%TO.N,Net-(D5-Pad2)*%
X-98208134Y31130197D03*
%TO.P,U6,3,NC*%
%TO.N,unconnected-(U6-Pad3)*%
X-95668134Y31130197D03*
%TO.P,U6,4*%
%TO.N,Net-(Q5-Pad3)*%
X-95668134Y38750197D03*
%TO.P,U6,5,NC*%
%TO.N,unconnected-(U6-Pad5)*%
X-98208134Y38750197D03*
%TO.P,U6,6*%
%TO.N,Net-(R12-Pad1)*%
X-100748134Y38750197D03*
%TD*%
D25*
%TO.P,R17,1*%
%TO.N,Net-(R17-Pad1)*%
X-89272531Y47230197D03*
D26*
%TO.P,R17,2*%
%TO.N,Net-(C6-Pad1)*%
X-89272531Y49770197D03*
%TD*%
D25*
%TO.P,R36,1*%
%TO.N,Net-(Q5-Pad3)*%
X-95258134Y67310000D03*
D26*
%TO.P,R36,2*%
%TO.N,Net-(C1-Pad2)*%
X-97798134Y67310000D03*
%TD*%
D20*
%TO.P,R51,1*%
%TO.N,Net-(J2-Pad9)*%
X-65422155Y28534467D03*
%TO.P,R51,2*%
%TO.N,Net-(Q20-Pad1)*%
X-63422155Y28534467D03*
%TD*%
D18*
%TO.P,D9,1,K*%
%TO.N,GNDREF*%
X-44363418Y41937524D03*
D19*
%TO.P,D9,2,A*%
%TO.N,Net-(D9-Pad2)*%
X-44363418Y39397524D03*
%TD*%
D25*
%TO.P,R12,1*%
%TO.N,Net-(R12-Pad1)*%
X-103909431Y47213109D03*
D26*
%TO.P,R12,2*%
%TO.N,Net-(C1-Pad1)*%
X-103909431Y49753109D03*
%TD*%
D32*
%TO.P,Q21,1,B*%
%TO.N,Net-(Q21-Pad1)*%
X-89683798Y32331165D03*
%TO.P,Q21,2,E*%
%TO.N,+5V*%
X-91583798Y32331165D03*
%TO.P,Q21,3,C*%
%TO.N,Net-(Q21-Pad3)*%
X-90633798Y30456165D03*
%TD*%
D33*
%TO.P,R10,1*%
%TO.N,Net-(R10-Pad1)*%
X-43233134Y34940197D03*
%TO.P,R10,2*%
%TO.N,Net-(Q17-Pad3)*%
X-45233134Y34940197D03*
%TD*%
D20*
%TO.P,R3,1*%
%TO.N,Net-(Q11-Pad3)*%
X-149998134Y34940197D03*
%TO.P,R3,2*%
%TO.N,Net-(R3-Pad2)*%
X-147998134Y34940197D03*
%TD*%
D25*
%TO.P,R15,1*%
%TO.N,Net-(R15-Pad1)*%
X-133768134Y47230197D03*
D26*
%TO.P,R15,2*%
%TO.N,Net-(C4-Pad1)*%
X-133768134Y49770197D03*
%TD*%
D32*
%TO.P,Q16,1,B*%
%TO.N,Net-(Q16-Pad1)*%
X-165248798Y32331165D03*
%TO.P,Q16,2,E*%
%TO.N,+5V*%
X-167148798Y32331165D03*
%TO.P,Q16,3,C*%
%TO.N,Net-(Q16-Pad3)*%
X-166198798Y30456165D03*
%TD*%
D27*
%TO.P,Q6,1,A1*%
%TO.N,Net-(J8-Pad2)*%
X-88683134Y61850394D03*
D28*
%TO.P,Q6,2,A2*%
%TO.N,Net-(C1-Pad2)*%
X-86143134Y61850394D03*
%TO.P,Q6,3,G*%
%TO.N,Net-(Q6-Pad3)*%
X-83603134Y61850394D03*
%TD*%
D25*
%TO.P,R23,1*%
%TO.N,Net-(C2-Pad1)*%
X-166153134Y53355197D03*
D26*
%TO.P,R23,2*%
%TO.N,Net-(J3-Pad2)*%
X-166153134Y55895197D03*
%TD*%
D23*
%TO.P,U4,1*%
%TO.N,Net-(R4-Pad2)*%
X-130603134Y31140197D03*
D24*
%TO.P,U4,2*%
%TO.N,Net-(D3-Pad2)*%
X-128063134Y31140197D03*
%TO.P,U4,3,NC*%
%TO.N,unconnected-(U4-Pad3)*%
X-125523134Y31140197D03*
%TO.P,U4,4*%
%TO.N,Net-(Q3-Pad3)*%
X-125523134Y38760197D03*
%TO.P,U4,5,NC*%
%TO.N,unconnected-(U4-Pad5)*%
X-128063134Y38760197D03*
%TO.P,U4,6*%
%TO.N,Net-(R15-Pad1)*%
X-130603134Y38760197D03*
%TD*%
D30*
%TO.P,JP4,1,A*%
%TO.N,Net-(J7-Pad2)*%
X-105173134Y67060000D03*
D31*
%TO.P,JP4,2,B*%
%TO.N,Net-(C1-Pad2)*%
X-102633134Y67060000D03*
%TD*%
D25*
%TO.P,R20,1*%
%TO.N,Net-(R20-Pad1)*%
X-43598134Y47230197D03*
D26*
%TO.P,R20,2*%
%TO.N,Net-(C9-Pad1)*%
X-43598134Y49770197D03*
%TD*%
D25*
%TO.P,RV5,1*%
%TO.N,Net-(C1-Pad2)*%
X-98248134Y70183957D03*
%TO.P,RV5,2*%
%TO.N,Net-(J7-Pad2)*%
X-103248134Y71383957D03*
%TD*%
D40*
%TO.N,+5V*%
X-108068905Y36652426D03*
X-78223905Y36652426D03*
%TD*%
D41*
%TO.N,Net-(C1-Pad2)*%
X-29149823Y64614918D02*
X-36454566Y64614918D01*
X-163098580Y67060000D02*
X-164051358Y67060000D01*
X-23318134Y67513296D02*
X-23318134Y70183957D01*
X-75109067Y64674462D02*
X-74297202Y65486327D01*
X-44571227Y64435394D02*
X-51694035Y64435394D01*
X-13381664Y67060000D02*
X-12679452Y67060000D01*
D42*
X-144694870Y66252132D02*
X-143876068Y67070933D01*
D41*
X-55643134Y66883224D02*
X-55643134Y66033093D01*
X-117873134Y66760002D02*
X-117873134Y65838885D01*
X-12353130Y66820933D02*
X-11452202Y65920005D01*
X-154015697Y64435394D02*
X-158068042Y64435394D01*
X-162745027Y67060000D02*
X-161399227Y67060000D01*
X-55882202Y65486327D02*
X-56438304Y64930225D01*
X-81995042Y64435394D02*
X-75686227Y64435394D01*
X-96728805Y64691157D02*
X-89394223Y64691157D01*
X-86143134Y66817455D02*
X-86143134Y61950394D01*
D42*
X-98248134Y70008222D02*
X-98248134Y68078199D01*
D41*
X-118112202Y65292119D02*
X-118474096Y64930226D01*
D42*
X-163801358Y67310000D02*
X-160271120Y67310000D01*
D41*
X-42643136Y67060000D02*
X-40406636Y67060000D01*
D42*
X-117748134Y67185000D02*
X-117873134Y67060000D01*
D41*
X-52078134Y69868143D02*
X-52078134Y67325427D01*
X-16121543Y64435394D02*
X-15361227Y64435394D01*
X-132478134Y66760002D02*
X-132478134Y65719326D01*
D42*
X-133689176Y64538678D02*
X-143332646Y64538678D01*
D41*
X-40326971Y67060000D02*
X-40406636Y67060000D01*
X-100731636Y67060000D02*
X-100651971Y67060000D01*
X-12943667Y67060000D02*
X-13381664Y67060000D01*
X-98248134Y70183957D02*
X-98248134Y67760000D01*
X-128561134Y66053908D02*
X-128561134Y65308162D01*
X-85620195Y67310000D02*
X-86053412Y67310000D01*
X-130496971Y67060000D02*
X-128069911Y67060000D01*
X-40423134Y66963837D02*
X-40423134Y66315937D01*
X-71538134Y66008239D02*
X-71538134Y61950394D01*
X-87601358Y67310000D02*
X-86053412Y67310000D01*
D42*
X-153312757Y64435394D02*
X-143581995Y64435394D01*
D41*
X-52078134Y67661470D02*
X-52078134Y67010002D01*
X-100731636Y67060000D02*
X-102333136Y67060000D01*
X-162495027Y67310000D02*
X-160271120Y67310000D01*
X-74058134Y66760002D02*
X-74058134Y66033093D01*
X-51985634Y70091457D02*
X-51893134Y70183957D01*
X-8974384Y67233750D02*
X-9006884Y67201250D01*
X-40423134Y66963837D02*
X-40326971Y67060000D01*
X-27911358Y67310000D02*
X-25093412Y67310000D01*
X-70254067Y69603025D02*
X-69673134Y70183957D01*
X-133112016Y64777746D02*
X-132717203Y65172560D01*
X-14784067Y64674462D02*
X-12540635Y66917895D01*
X-22868134Y67242969D02*
X-22868134Y66238093D01*
X-70493134Y69025865D02*
X-70493134Y67150734D01*
X-103301304Y64930225D02*
X-102872202Y65359327D01*
X-97842067Y65466327D02*
X-97305965Y64930225D01*
D42*
X-144658474Y65791474D02*
X-143457320Y64590320D01*
D41*
X-70617398Y67185737D02*
X-70618135Y67185001D01*
X-70919911Y67060000D02*
X-72039212Y67060000D01*
X-127868134Y69958957D02*
X-128093134Y70183957D01*
X-55216358Y67310000D02*
X-52378133Y67310000D01*
D42*
X-98023134Y67535000D02*
X-97923134Y67435000D01*
D41*
X-40423134Y66346331D02*
X-40423134Y61950394D01*
X-100748134Y64426134D02*
X-101013157Y64691157D01*
X-68915805Y64691157D02*
X-57015464Y64691157D01*
D42*
X-145119131Y66252131D02*
X-145394735Y66527735D01*
D41*
X-97922767Y67185369D02*
X-97997634Y67110500D01*
X-115988134Y66994231D02*
X-115988134Y61950394D01*
X-158645202Y64674462D02*
X-160822067Y66851327D01*
X-113147705Y64991156D02*
X-113147705Y67153345D01*
D42*
X-16739009Y64691157D02*
X-101013157Y64691157D01*
X-160199951Y67481817D02*
X-160253134Y67535000D01*
D41*
X-12943667Y67060000D02*
X-12349212Y67060000D01*
X-113038134Y69415759D02*
X-113038134Y67051436D01*
X-72633667Y67060000D02*
X-72039212Y67060000D01*
X-130593134Y66994231D02*
X-130593134Y61950394D01*
D42*
X-160478134Y68078199D02*
X-160478134Y70183957D01*
D41*
X-119051256Y64691157D02*
X-127913736Y64691157D01*
X-40326971Y67060000D02*
X-38534911Y67060000D01*
D42*
X-141784951Y67481817D02*
X-141838134Y67535000D01*
D41*
X-38233134Y67185000D02*
X-38313134Y67105000D01*
X-127767398Y67185737D02*
X-127768135Y67185001D01*
X-83193134Y67661470D02*
X-83193134Y67010002D01*
X-103878464Y64691157D02*
X-112847707Y64691157D01*
X-128322067Y66631068D02*
X-127768134Y67185000D01*
X-43994067Y64674462D02*
X-43182202Y65486327D01*
X-98224911Y67060000D02*
X-100651971Y67060000D01*
X-88028134Y66883224D02*
X-88028134Y66026852D01*
X-24660195Y67310000D02*
X-25093412Y67310000D01*
X-23069229Y67310000D02*
X-22935166Y67310000D01*
X-102633134Y66760002D02*
X-102633134Y65906093D01*
X-16483246Y64435394D02*
X-21035042Y64435394D01*
X-8974384Y67233750D02*
X-8805634Y67402500D01*
D42*
X-142063134Y68078199D02*
X-142063134Y70183957D01*
D41*
X-98081134Y66908914D02*
X-98081134Y66013093D01*
D42*
X-127989976Y64614918D02*
X-127913736Y64691157D01*
D41*
X-70618134Y67185000D02*
X-70698134Y67105000D01*
X-16121543Y64435394D02*
X-16483246Y64435394D01*
X-130576636Y67060000D02*
X-132178136Y67060000D01*
X-162796803Y66935000D02*
X-162582202Y66720399D01*
X-160199951Y67481817D02*
X-160253134Y67535000D01*
X-83193134Y69415759D02*
X-83193134Y67325427D01*
X-98248134Y70008222D02*
X-98248134Y66976044D01*
D42*
X-141856120Y67310000D02*
X-143298908Y67310000D01*
D41*
X-52078134Y64819494D02*
X-52078134Y67040396D01*
X-73758136Y67060000D02*
X-72633667Y67060000D01*
X-38727180Y70014912D02*
X-38558134Y70183957D01*
X-98248134Y67760000D02*
X-97798134Y67310000D01*
X-160478134Y66823396D02*
X-160478134Y69265197D01*
X-9324911Y67060000D02*
X-12349212Y67060000D01*
X-11213134Y65373239D02*
X-11213134Y61950394D01*
X-83418134Y69958957D02*
X-83643134Y70183957D01*
X-130496971Y67060000D02*
X-130576636Y67060000D01*
D42*
X-101013157Y64691157D02*
X-103878464Y64691157D01*
D41*
X-113263134Y69958957D02*
X-113488134Y70183957D01*
X-82572202Y64674462D02*
X-82954067Y65056327D01*
X-70903134Y66605000D02*
X-70903134Y66610087D01*
X-100748134Y61850394D02*
X-100748134Y64426134D01*
X-9023134Y67185000D02*
X-9006884Y67201250D01*
X-23069229Y67310000D02*
X-24660195Y67310000D01*
X-88267202Y65480086D02*
X-88817063Y64930225D01*
X-40326971Y67060000D02*
X-38358134Y67060000D01*
X-162343134Y66173633D02*
X-162343134Y61950394D01*
X-25183134Y66817455D02*
X-25183134Y61950394D01*
X-38108134Y67486777D02*
X-38108134Y68742845D01*
D42*
X-144658474Y65791474D02*
X-145119131Y66252131D01*
D41*
X-8713134Y67289772D02*
X-8713134Y70183957D01*
X-38518134Y66610087D02*
X-38518134Y66605000D01*
D42*
X-145542437Y66884320D02*
X-145542437Y67093202D01*
D41*
X-113163134Y67185000D02*
X-113092920Y67255215D01*
D42*
X-117446358Y67310000D02*
X-113038134Y67310000D01*
D41*
X-37031726Y64853986D02*
X-38309538Y66131798D01*
X-127643134Y69415759D02*
X-127643134Y67150734D01*
X-85620195Y67310000D02*
X-83493133Y67310000D01*
X-23160166Y67467969D02*
X-23049596Y67357399D01*
D42*
X-128174034Y64538678D02*
X-133689176Y64538678D01*
D41*
X-72043130Y66820933D02*
X-71777202Y66555005D01*
X-22629067Y65691327D02*
X-21612202Y64674462D01*
X-38232398Y67185737D02*
X-38233135Y67185001D01*
D42*
X-153312757Y64435394D02*
X-154015697Y64435394D01*
D41*
X-38727180Y69363940D02*
X-38347202Y68983962D01*
X-69492965Y64930225D02*
X-70694538Y66131798D01*
X-42943134Y66760002D02*
X-42943134Y66033093D01*
X-97922766Y67185369D02*
X-97923134Y67185000D01*
X-115971636Y67060000D02*
X-117573136Y67060000D01*
X-115891971Y67060000D02*
X-113464911Y67060000D01*
X-115971636Y67060000D02*
X-115891971Y67060000D01*
X-28338134Y66883224D02*
X-28338134Y65396213D01*
D42*
X-119051256Y64691157D02*
X-112847707Y64691157D01*
X-98224911Y67060000D02*
X-102633134Y67060000D01*
D41*
X-83193134Y67010002D02*
X-83193134Y65603093D01*
X-12353146Y66820917D02*
G75*
G03*
X-12943667Y67059999I-583954J-593517D01*
G01*
X-70694546Y66101396D02*
G75*
G02*
X-70903134Y66605000I503646J503604D01*
G01*
X-162495027Y67310011D02*
G75*
G03*
X-162796802Y67184999I27J-426811D01*
G01*
X-115959991Y67031857D02*
G75*
G02*
X-115891971Y67060000I67991J-68057D01*
G01*
D42*
X-143457298Y64590342D02*
G75*
G02*
X-143457320Y64487036I-51702J-51642D01*
G01*
D41*
X-100651971Y67059969D02*
G75*
G03*
X-100719969Y67031835I-29J-96169D01*
G01*
X-25183108Y66787061D02*
G75*
G02*
X-25029969Y67156835I522908J39D01*
G01*
X-127868120Y69958971D02*
G75*
G02*
X-127643134Y69415759I-543180J-543171D01*
G01*
X-25029963Y67156829D02*
G75*
G02*
X-24660195Y67310000I369763J-369729D01*
G01*
X-81995042Y64435359D02*
G75*
G02*
X-82572202Y64674462I42J816241D01*
G01*
X-12540634Y66887500D02*
G75*
G03*
X-12540634Y67002500I-57466J57500D01*
G01*
X-40394991Y67031857D02*
G75*
G02*
X-40326971Y67060000I67991J-68057D01*
G01*
X-128371507Y64880785D02*
G75*
G03*
X-127913736Y64691157I457807J457815D01*
G01*
X-25029990Y67156856D02*
G75*
G03*
X-25093412Y67310000I-63410J63444D01*
G01*
D42*
X-16739009Y64691138D02*
G75*
G02*
X-16430276Y64563276I9J-436638D01*
G01*
X-160253140Y67534994D02*
G75*
G02*
X-160478134Y68078199I543240J543206D01*
G01*
D41*
X-42943137Y66063487D02*
G75*
G02*
X-43182202Y65486327I-816263J13D01*
G01*
X-55518160Y67185026D02*
G75*
G02*
X-55216358Y67310000I301760J-301826D01*
G01*
X-52078100Y67010002D02*
G75*
G03*
X-52378133Y67310000I-300000J-2D01*
G01*
X-38862020Y69689426D02*
G75*
G02*
X-38727179Y70014911I460320J-26D01*
G01*
X-40394944Y67031810D02*
G75*
G03*
X-40423134Y66963837I67944J-68010D01*
G01*
X-163098580Y67060007D02*
G75*
G02*
X-162796803Y66935000I-20J-426807D01*
G01*
D42*
X-164051358Y67059991D02*
G75*
G02*
X-164103134Y67185000I-42J73209D01*
G01*
D41*
X-117573136Y67060034D02*
G75*
G03*
X-117873134Y66760002I36J-300034D01*
G01*
X-43994058Y64674453D02*
G75*
G02*
X-44571227Y64435394I-577142J577147D01*
G01*
X-11452213Y65950388D02*
G75*
G02*
X-11213134Y65373239I-577187J-577188D01*
G01*
X-38861984Y69689426D02*
G75*
G03*
X-38727180Y69363940I460284J-26D01*
G01*
X-71538114Y65977845D02*
G75*
G03*
X-71777202Y66555005I-816286J-45D01*
G01*
X-128069911Y67060016D02*
G75*
G03*
X-127768135Y67185001I11J426784D01*
G01*
X-83193100Y67010002D02*
G75*
G03*
X-83493133Y67310000I-300000J-2D01*
G01*
D42*
X-128174034Y64538710D02*
G75*
G03*
X-127989976Y64614918I34J260290D01*
G01*
D41*
X-73758136Y67060034D02*
G75*
G03*
X-74058134Y66760002I36J-300034D01*
G01*
X-38108115Y67486777D02*
G75*
G02*
X-38233134Y67185000I-426785J23D01*
G01*
X-70493107Y69025865D02*
G75*
G02*
X-70254067Y69603025I816207J35D01*
G01*
X-72039212Y67059999D02*
G75*
G03*
X-72043130Y66820934I63112J-120599D01*
G01*
X-75109058Y64674453D02*
G75*
G02*
X-75686227Y64435394I-577142J577147D01*
G01*
D42*
X-164103160Y67185026D02*
G75*
G02*
X-163801358Y67310000I301760J-301826D01*
G01*
X-117748160Y67185026D02*
G75*
G02*
X-117446358Y67310000I301760J-301826D01*
G01*
D41*
X-23318108Y67849339D02*
G75*
G03*
X-23160166Y67467969I539308J-39D01*
G01*
X-52078176Y67661467D02*
G75*
G02*
X-52378133Y67310001I-327924J-23867D01*
G01*
X-130576636Y67059972D02*
G75*
G02*
X-130564970Y67031836I36J-16472D01*
G01*
X-23049607Y67357388D02*
G75*
G03*
X-22935166Y67310000I114407J114412D01*
G01*
X-98081141Y66043487D02*
G75*
G03*
X-97842067Y65466327I816241J13D01*
G01*
X-132478161Y65749720D02*
G75*
G02*
X-132717203Y65172560I-816239J-20D01*
G01*
X-70618133Y67184999D02*
G75*
G02*
X-70617398Y67185737I271933J-270799D01*
G01*
X-88817048Y64930210D02*
G75*
G02*
X-89394223Y64691157I-577152J577190D01*
G01*
X-87903114Y67184980D02*
G75*
G03*
X-88028134Y66883224I301714J-301780D01*
G01*
X-158068042Y64435359D02*
G75*
G02*
X-158645202Y64674462I42J816241D01*
G01*
D42*
X-97923134Y67185000D02*
G75*
G03*
X-97923134Y67435000I-124966J125000D01*
G01*
D41*
X-70493117Y67486777D02*
G75*
G02*
X-70617398Y67185737I-425583J-477D01*
G01*
D42*
X-160271120Y67309933D02*
G75*
G03*
X-160199952Y67481816I20J100667D01*
G01*
D41*
X-97923124Y67184990D02*
G75*
G02*
X-98224911Y67060000I-301776J301810D01*
G01*
D42*
X-141856120Y67309933D02*
G75*
G03*
X-141784952Y67481816I20J100667D01*
G01*
D41*
X-38108145Y68406802D02*
G75*
G03*
X-38347203Y68983961I-816255J-2D01*
G01*
X-97305966Y64930224D02*
G75*
G03*
X-96728805Y64691157I577166J577176D01*
G01*
X-97997616Y67110482D02*
G75*
G03*
X-98081134Y66908914I201516J-201582D01*
G01*
X-128322064Y66631065D02*
G75*
G03*
X-128561134Y66053908I577164J-577165D01*
G01*
X-28575862Y64852646D02*
G75*
G02*
X-29149823Y64614918I-573938J573954D01*
G01*
X-28338132Y65426607D02*
G75*
G02*
X-28575872Y64852656I-811668J-7D01*
G01*
X-130564991Y67031857D02*
G75*
G02*
X-130496971Y67060000I67991J-68057D01*
G01*
X-100748169Y66963837D02*
G75*
G02*
X-100719969Y67031835I96169J-37D01*
G01*
D42*
X-143457289Y64487005D02*
G75*
G02*
X-143332646Y64538678I124689J-124605D01*
G01*
D41*
X-128561155Y65338556D02*
G75*
G03*
X-128371516Y64880776I647455J44D01*
G01*
X-70618148Y67185014D02*
G75*
G03*
X-70493134Y67486777I-301752J301786D01*
G01*
X-133689176Y64538660D02*
G75*
G03*
X-133112016Y64777746I-24J816240D01*
G01*
X-70919911Y67060016D02*
G75*
G03*
X-70618135Y67185001I11J426784D01*
G01*
X-52078158Y69868143D02*
G75*
G02*
X-51985634Y70091457I315858J-43D01*
G01*
D42*
X-141838140Y67534994D02*
G75*
G02*
X-142063134Y68078199I543240J543206D01*
G01*
D41*
X-162796762Y67184959D02*
G75*
G03*
X-162745027Y67060000I51762J-51759D01*
G01*
X-103878464Y64691137D02*
G75*
G03*
X-103301304Y64930225I-36J816263D01*
G01*
X-52078128Y64819494D02*
G75*
G03*
X-51965634Y64547894I384128J6D01*
G01*
X-40406636Y67059972D02*
G75*
G02*
X-40394970Y67031836I36J-16472D01*
G01*
X-74058137Y66063487D02*
G75*
G02*
X-74297202Y65486327I-816263J13D01*
G01*
X-127768133Y67184999D02*
G75*
G02*
X-127767398Y67185737I271933J-270799D01*
G01*
X-22868141Y66268487D02*
G75*
G03*
X-22629067Y65691327I816241J13D01*
G01*
X-162745027Y67060058D02*
G75*
G03*
X-162796803Y66935000I27J-73258D01*
G01*
D42*
X-144694869Y66252131D02*
G75*
G02*
X-145119131Y66252131I-212131J212169D01*
G01*
D41*
X-12349212Y67059999D02*
G75*
G03*
X-12353130Y66820934I63112J-120599D01*
G01*
X-16430259Y64563293D02*
G75*
G02*
X-16483246Y64435394I-52941J-52993D01*
G01*
X-115988169Y66963837D02*
G75*
G02*
X-115959969Y67031835I96169J-37D01*
G01*
X-117873131Y65869279D02*
G75*
G02*
X-118112202Y65292119I-816269J21D01*
G01*
X-127643115Y67486777D02*
G75*
G02*
X-127768134Y67185000I-426785J23D01*
G01*
X-98248158Y67312087D02*
G75*
G03*
X-98164633Y67110501I285058J13D01*
G01*
X-55518114Y67184980D02*
G75*
G03*
X-55643134Y66883224I301714J-301780D01*
G01*
X-113038154Y69415759D02*
G75*
G03*
X-113263134Y69958957I-768146J41D01*
G01*
X-97997635Y67110501D02*
G75*
G02*
X-98164633Y67110501I-83499J83502D01*
G01*
D42*
X-16121543Y64435362D02*
G75*
G02*
X-16430276Y64563276I43J436638D01*
G01*
D41*
X-68915805Y64691159D02*
G75*
G02*
X-69492965Y64930225I5J816241D01*
G01*
D42*
X-143581995Y64435388D02*
G75*
G03*
X-143457321Y64487037I-5J176312D01*
G01*
D41*
X-85989990Y67156856D02*
G75*
G03*
X-86053412Y67310000I-63410J63444D01*
G01*
X-85989963Y67156829D02*
G75*
G02*
X-85620195Y67310000I369763J-369729D01*
G01*
X-38309546Y66101396D02*
G75*
G02*
X-38518134Y66605000I503646J503604D01*
G01*
X-162796808Y67185005D02*
G75*
G02*
X-163098580Y67060000I-301792J301795D01*
G01*
X-38534911Y67060016D02*
G75*
G03*
X-38233135Y67185001I11J426784D01*
G01*
X-22935166Y67310066D02*
G75*
G02*
X-22868134Y67242969I-34J-67066D01*
G01*
X-72633667Y67060021D02*
G75*
G02*
X-72043131Y66820932I6567J-832621D01*
G01*
X-38108117Y67486777D02*
G75*
G02*
X-38232398Y67185737I-425583J-477D01*
G01*
X-132178136Y67060034D02*
G75*
G03*
X-132478134Y66760002I36J-300034D01*
G01*
X-102633100Y66760002D02*
G75*
G02*
X-102333136Y67060000I300000J-2D01*
G01*
D42*
X-143332646Y64538648D02*
G75*
G02*
X-143457320Y64590320I46J176352D01*
G01*
D41*
X-36454566Y64614930D02*
G75*
G02*
X-37031725Y64853987I-34J816170D01*
G01*
X-83418120Y69958971D02*
G75*
G02*
X-83193134Y69415759I-543180J-543171D01*
G01*
D42*
X-145394734Y66527736D02*
G75*
G02*
X-145542437Y66884320I356534J356564D01*
G01*
X-143876058Y67070923D02*
G75*
G02*
X-143298908Y67310000I577158J-577123D01*
G01*
D41*
X-97922766Y67185369D02*
G75*
G02*
X-97922766Y67185369I0J0D01*
G01*
X-9324911Y67060015D02*
G75*
G03*
X-9023134Y67185000I11J426785D01*
G01*
X-98164645Y67110489D02*
G75*
G02*
X-98081134Y66908914I-201555J-201589D01*
G01*
X-38313145Y67105011D02*
G75*
G03*
X-38518134Y66610087I494945J-494911D01*
G01*
X-21612177Y64674487D02*
G75*
G03*
X-21035042Y64435394I577177J577113D01*
G01*
X-42943100Y66760002D02*
G75*
G02*
X-42643136Y67060000I300000J-2D01*
G01*
X-12540612Y67002522D02*
G75*
G03*
X-12679452Y67060000I-138788J-138822D01*
G01*
X-83193141Y65633487D02*
G75*
G03*
X-82954067Y65056327I816241J13D01*
G01*
X-162343119Y66143239D02*
G75*
G03*
X-162582203Y66720398I-816281J-39D01*
G01*
X-130593169Y66963837D02*
G75*
G02*
X-130564969Y67031835I96169J-37D01*
G01*
X-86143108Y66787061D02*
G75*
G02*
X-85989969Y67156835I522908J39D01*
G01*
X-57015464Y64691137D02*
G75*
G03*
X-56438304Y64930225I-36J816263D01*
G01*
X-112847707Y64691195D02*
G75*
G02*
X-113147705Y64991156I7J300005D01*
G01*
X-38233133Y67184999D02*
G75*
G02*
X-38232398Y67185737I271933J-270799D01*
G01*
X-28213160Y67185026D02*
G75*
G02*
X-27911358Y67310000I301760J-301826D01*
G01*
X-115959950Y67031816D02*
G75*
G03*
X-115971636Y67060000I-11650J11684D01*
G01*
X-51694035Y64435372D02*
G75*
G02*
X-51965634Y64547894I35J384128D01*
G01*
D42*
X-98224911Y67060015D02*
G75*
G03*
X-97923134Y67185000I11J426785D01*
G01*
X-98023140Y67534994D02*
G75*
G02*
X-98248134Y68078199I543240J543206D01*
G01*
D41*
X-88028179Y66057246D02*
G75*
G02*
X-88267203Y65480087I-816221J-46D01*
G01*
X-83193176Y67661467D02*
G75*
G02*
X-83493133Y67310001I-327924J-23867D01*
G01*
X-102633137Y65936487D02*
G75*
G02*
X-102872202Y65359327I-816263J13D01*
G01*
X-70903118Y66610087D02*
G75*
G02*
X-70698134Y67105000I699918J13D01*
G01*
X-28213114Y67184980D02*
G75*
G03*
X-28338134Y66883224I301714J-301780D01*
G01*
X-100719950Y67031816D02*
G75*
G03*
X-100731636Y67060000I-11650J11684D01*
G01*
X-118474114Y64930244D02*
G75*
G02*
X-119051256Y64691157I-577186J577156D01*
G01*
X-160271120Y67309933D02*
G75*
G03*
X-160199952Y67481816I20J100667D01*
G01*
X-87903160Y67185026D02*
G75*
G02*
X-87601358Y67310000I301760J-301826D01*
G01*
X-55643137Y66063487D02*
G75*
G02*
X-55882202Y65486327I-816263J13D01*
G01*
X-160822059Y66820941D02*
G75*
G03*
X-161399227Y67060000I-577141J-577141D01*
G01*
X-113464911Y67060015D02*
G75*
G03*
X-113163134Y67185000I11J426785D01*
G01*
X-23049540Y67357455D02*
G75*
G02*
X-23069229Y67310000I-19660J-19655D01*
G01*
X-15361227Y64435408D02*
G75*
G03*
X-14784068Y64674463I27J816192D01*
G01*
X-127643117Y67486777D02*
G75*
G02*
X-127767398Y67185737I-425583J-477D01*
G01*
D42*
X-144658505Y65791439D02*
G75*
G02*
X-144694870Y66252132I215105J248761D01*
G01*
%TO.N,Net-(J1-Pad2)*%
X-160432197Y12985197D02*
X-160782000Y13335000D01*
X-106336134Y8878290D02*
X-106336134Y10742105D01*
X-106463134Y6424105D02*
X-106463134Y-349803D01*
X-147732197Y12985197D02*
X-160432197Y12985197D01*
X-106575202Y11319265D02*
X-108002067Y12746130D01*
X-106702202Y7001265D02*
X-106971134Y7270197D01*
X-107606134Y7270197D02*
X-106575202Y8301130D01*
X-108579227Y12985197D02*
X-147732197Y12985197D01*
X-106575196Y11319271D02*
G75*
G02*
X-106336134Y10742105I-577204J-577171D01*
G01*
X-106336139Y8878290D02*
G75*
G02*
X-106575202Y8301130I-816261J10D01*
G01*
X-108579227Y12985187D02*
G75*
G02*
X-108002067Y12746130I27J-816187D01*
G01*
X-106702196Y7001271D02*
G75*
G02*
X-106463134Y6424105I-577204J-577171D01*
G01*
D43*
%TO.N,GNDREF*%
X-80824067Y45766130D02*
X-77227202Y42169265D01*
X-45535042Y41930197D02*
X-43730634Y41930197D01*
X-28696227Y41930197D02*
X-29660042Y41930197D01*
X-19806227Y46005197D02*
X-23945042Y46005197D01*
X-139186227Y46005197D02*
X-144585042Y46005197D01*
X-24522202Y45766130D02*
X-28119067Y42169265D01*
X-145162202Y45766130D02*
X-148759067Y42169265D01*
D42*
X-109008134Y17430197D02*
X-109404067Y17826130D01*
D43*
X-43504443Y42288889D02*
X-40027202Y45766130D01*
X-55637202Y45766130D02*
X-59234067Y42169265D01*
X-155696227Y46005197D02*
X-161100042Y46005197D01*
X-89224443Y42288889D02*
X-85747202Y45766130D01*
X-94794067Y45766130D02*
X-91197202Y42169265D01*
X-55060042Y46005197D02*
X-50286227Y46005197D01*
X-161677202Y45766130D02*
X-166153134Y41290197D01*
X-120465042Y41930197D02*
X-119295634Y41930197D01*
D42*
X-158877000Y24130000D02*
X-160782000Y22225000D01*
D43*
X-65526227Y46005197D02*
X-70300042Y46005197D01*
X-151522202Y42169265D02*
X-155119067Y45766130D01*
X-30237202Y42169265D02*
X-33834067Y45766130D01*
D41*
X-57038634Y9286634D02*
X-59467197Y11715197D01*
D43*
X-135012202Y42169265D02*
X-138609067Y45766130D01*
X-15632202Y42169265D02*
X-19229067Y45766130D01*
X-150945042Y41930197D02*
X-149336227Y41930197D01*
X-39450042Y46005197D02*
X-34411227Y46005197D01*
X-119069443Y42288889D02*
X-115592202Y45766130D01*
X-99775042Y46005197D02*
X-95371227Y46005197D01*
X-106437202Y42169265D02*
X-110034067Y45766130D01*
X-90620042Y41930197D02*
X-89450634Y41930197D01*
D41*
X-59467197Y11715197D02*
X-64897000Y11715197D01*
D42*
X-160782000Y22225000D02*
X-160782000Y18415000D01*
X-144557197Y18065197D02*
X-150622000Y24130000D01*
D43*
X-103829443Y42288889D02*
X-100352202Y45766130D01*
X-129620042Y46005197D02*
X-125216227Y46005197D01*
D42*
X-109981227Y18065197D02*
X-144557197Y18065197D01*
D43*
X-115015042Y46005197D02*
X-110611227Y46005197D01*
X-76650042Y41930197D02*
X-75051227Y41930197D01*
X-61352202Y42169265D02*
X-64949067Y45766130D01*
X-70877202Y45766130D02*
X-74474067Y42169265D01*
X-49709067Y45766130D02*
X-46112202Y42169265D01*
X-59811227Y41930197D02*
X-60775042Y41930197D01*
X-85170042Y46005197D02*
X-81401227Y46005197D01*
X-134435042Y41930197D02*
X-133900634Y41930197D01*
D42*
X-150622000Y24130000D02*
X-158877000Y24130000D01*
D43*
X-121042202Y42169265D02*
X-124639067Y45766130D01*
X-105860042Y41930197D02*
X-104055634Y41930197D01*
D41*
X-57038634Y5027460D02*
X-57038634Y9286634D01*
D43*
X-130197202Y45766130D02*
X-133674443Y42288889D01*
X-91197176Y42169291D02*
G75*
G03*
X-90620042Y41930197I577176J577109D01*
G01*
X-70300042Y46005235D02*
G75*
G03*
X-70877201Y45766129I42J-816235D01*
G01*
X-129620042Y46005235D02*
G75*
G03*
X-130197201Y45766129I42J-816235D01*
G01*
X-64949060Y45766137D02*
G75*
G03*
X-65526227Y46005197I-577140J-577137D01*
G01*
X-77227176Y42169291D02*
G75*
G03*
X-76650042Y41930197I577176J577109D01*
G01*
X-50286227Y46005187D02*
G75*
G02*
X-49709067Y45766130I27J-816187D01*
G01*
X-149336227Y41930210D02*
G75*
G03*
X-148759068Y42169266I27J816190D01*
G01*
X-144585042Y46005235D02*
G75*
G03*
X-145162201Y45766129I42J-816235D01*
G01*
X-161677174Y45766102D02*
G75*
G02*
X-161100042Y46005197I577174J-577102D01*
G01*
X-59234058Y42169256D02*
G75*
G02*
X-59811227Y41930197I-577142J577144D01*
G01*
X-100352174Y45766102D02*
G75*
G02*
X-99775042Y46005197I577174J-577102D01*
G01*
X-28119058Y42169256D02*
G75*
G02*
X-28696227Y41930197I-577142J577144D01*
G01*
X-139186227Y46005187D02*
G75*
G02*
X-138609067Y45766130I27J-816187D01*
G01*
X-115015042Y46005235D02*
G75*
G03*
X-115592201Y45766129I42J-816235D01*
G01*
X-95371227Y46005187D02*
G75*
G02*
X-94794067Y45766130I27J-816187D01*
G01*
X-155119060Y45766137D02*
G75*
G03*
X-155696227Y46005197I-577140J-577137D01*
G01*
X-119163147Y42062697D02*
G75*
G02*
X-119069443Y42288889I319847J3D01*
G01*
X-125216227Y46005187D02*
G75*
G02*
X-124639067Y45766130I27J-816187D01*
G01*
X-89318147Y42062697D02*
G75*
G02*
X-89224443Y42288889I319847J3D01*
G01*
X-15055042Y41930161D02*
G75*
G02*
X-15632202Y42169265I42J816239D01*
G01*
X-75051227Y41930210D02*
G75*
G03*
X-74474068Y42169266I27J816190D01*
G01*
X-40027174Y45766102D02*
G75*
G02*
X-39450042Y46005197I577174J-577102D01*
G01*
X-105860042Y41930161D02*
G75*
G02*
X-106437202Y42169265I42J816239D01*
G01*
X-29660042Y41930161D02*
G75*
G02*
X-30237202Y42169265I42J816239D01*
G01*
X-45535042Y41930161D02*
G75*
G02*
X-46112202Y42169265I42J816239D01*
G01*
X-81401227Y46005187D02*
G75*
G02*
X-80824067Y45766130I27J-816187D01*
G01*
X-134435042Y41930161D02*
G75*
G02*
X-135012202Y42169265I42J816239D01*
G01*
X-55637174Y45766102D02*
G75*
G02*
X-55060042Y46005197I577174J-577102D01*
G01*
X-120465042Y41930161D02*
G75*
G02*
X-121042202Y42169265I42J816239D01*
G01*
X-150945042Y41930161D02*
G75*
G02*
X-151522202Y42169265I42J816239D01*
G01*
X-103923147Y42062697D02*
G75*
G02*
X-103829443Y42288889I319847J3D01*
G01*
X-85747174Y45766102D02*
G75*
G02*
X-85170042Y46005197I577174J-577102D01*
G01*
X-43598147Y42062697D02*
G75*
G02*
X-43504443Y42288889I319847J3D01*
G01*
X-133768147Y42062697D02*
G75*
G02*
X-133674443Y42288889I319847J3D01*
G01*
X-60775042Y41930161D02*
G75*
G02*
X-61352202Y42169265I42J816239D01*
G01*
X-19229060Y45766137D02*
G75*
G03*
X-19806227Y46005197I-577140J-577137D01*
G01*
X-34411227Y46005187D02*
G75*
G02*
X-33834067Y45766130I27J-816187D01*
G01*
X-110611227Y46005187D02*
G75*
G02*
X-110034067Y45766130I27J-816187D01*
G01*
D42*
X-109981227Y18065187D02*
G75*
G02*
X-109404067Y17826130I27J-816187D01*
G01*
D43*
X-23945042Y46005235D02*
G75*
G03*
X-24522201Y45766129I42J-816235D01*
G01*
D44*
%TO.N,Net-(R2-Pad2)*%
X-162592202Y34195202D02*
X-163103665Y34706665D01*
X-162353134Y33618042D02*
X-162353134Y31140197D01*
X-163680825Y34945732D02*
X-164802996Y34945732D01*
X-163680825Y34945713D02*
G75*
G02*
X-163103665Y34706665I25J-816213D01*
G01*
X-162353116Y33618042D02*
G75*
G03*
X-162592202Y34195202I-816284J-42D01*
G01*
%TO.N,Net-(R4-Pad2)*%
X-130603134Y33618042D02*
X-130603134Y31140197D01*
X-132020041Y35034948D02*
X-133144234Y35034948D01*
X-130842202Y34195202D02*
X-131442881Y34795881D01*
X-132020041Y35034913D02*
G75*
G02*
X-131442881Y34795881I41J-816213D01*
G01*
X-130603116Y33618042D02*
G75*
G03*
X-130842202Y34195202I-816284J-42D01*
G01*
%TO.N,Net-(R5-Pad2)*%
X-116237202Y34195202D02*
X-116743130Y34701130D01*
X-117320290Y34940197D02*
X-118798134Y34940197D01*
X-115998134Y33618042D02*
X-115998134Y31140197D01*
X-115998116Y33618042D02*
G75*
G03*
X-116237202Y34195202I-816284J-42D01*
G01*
X-117320290Y34940213D02*
G75*
G02*
X-116743130Y34701130I-10J-816213D01*
G01*
%TO.N,Net-(R3-Pad2)*%
X-145437202Y33550202D02*
X-146588130Y34701130D01*
X-145198134Y32973042D02*
X-145198134Y31140197D01*
X-147165290Y34940197D02*
X-147998134Y34940197D01*
X-147165290Y34940213D02*
G75*
G02*
X-146588130Y34701130I-10J-816213D01*
G01*
X-145198116Y32973042D02*
G75*
G03*
X-145437202Y33550202I-816284J-42D01*
G01*
D42*
%TO.N,+3V3*%
X-111416134Y7605199D02*
X-111416134Y-133000D01*
X-111754227Y7905197D02*
X-160432197Y7905197D01*
X-160432197Y7905197D02*
X-160782000Y8255000D01*
X-111479634Y-286303D02*
X-111543134Y-349803D01*
D43*
X-111244318Y7733381D02*
X-111020202Y7509265D01*
D42*
X-110443042Y7270197D02*
X-109876134Y7270197D01*
X-111416123Y-133000D02*
G75*
G02*
X-111479634Y-286303I-216777J0D01*
G01*
D43*
X-111416109Y7605204D02*
G75*
G02*
X-111244318Y7733381I115809J23996D01*
G01*
X-111020176Y7509291D02*
G75*
G03*
X-110443042Y7270197I577176J577109D01*
G01*
D42*
X-111244309Y7733392D02*
G75*
G03*
X-111754227Y7905196I-467691J-545492D01*
G01*
X-111416145Y7605198D02*
G75*
G03*
X-111754227Y7905197I-320155J-20298D01*
G01*
D44*
%TO.N,+5V*%
X-109217121Y36652426D02*
X-109460690Y36652426D01*
X-155572121Y36652426D02*
X-139015148Y36652426D01*
X-63552067Y33291630D02*
X-62830670Y32570233D01*
X-153284010Y32331165D02*
X-150638798Y32331165D01*
X-79666134Y34503790D02*
X-79666134Y36358413D01*
X-168327067Y36084266D02*
X-167997973Y36413359D01*
X-155627067Y34336130D02*
X-153861170Y32570233D01*
X-34125375Y36652426D02*
X-33473907Y36652426D01*
X-94032067Y33701130D02*
X-92901170Y32570233D01*
X-92324010Y32331165D02*
X-91583798Y32331165D01*
D41*
X-61087000Y16510000D02*
X-64691803Y16510000D01*
D44*
X-48312067Y33404223D02*
X-47478077Y32570233D01*
X-79372121Y36652426D02*
X-79615690Y36652426D01*
X-155866134Y36358413D02*
X-155866134Y34913290D01*
X-106390884Y32337697D02*
X-106143134Y32337697D01*
X-63497121Y36652426D02*
X-63740690Y36652426D01*
X-93481135Y36652426D02*
X-79615690Y36652426D01*
X-16630966Y32758090D02*
X-16608134Y32780922D01*
X-20479639Y36652426D02*
X-33473907Y36652426D01*
X-33773905Y34966561D02*
X-33773905Y36352428D01*
X-138771579Y36652426D02*
X-124065690Y36652426D01*
X-136774010Y32331165D02*
X-136033798Y32331165D01*
X-16653798Y32702969D02*
X-16653798Y32331165D01*
X-155572121Y36652426D02*
X-155815690Y36652426D01*
X-94271134Y34278290D02*
X-94271134Y35862427D01*
X-94135592Y36652426D02*
X-108068905Y36652426D01*
X-48551134Y36358413D02*
X-48551134Y33981383D01*
X-168156417Y32331165D02*
X-167148798Y32331165D01*
X-124116134Y36358413D02*
X-124116134Y33981383D01*
X-63791134Y36358413D02*
X-63791134Y33868790D01*
X-34125375Y36652426D02*
X-48601579Y36652426D01*
X-48845148Y36652426D02*
X-63497121Y36652426D01*
X-16847202Y33358082D02*
X-19902479Y36413359D01*
X-79427067Y33926630D02*
X-78070670Y32570233D01*
X-31138510Y32331165D02*
X-30623798Y32331165D01*
X-155815690Y36652426D02*
X-167420813Y36652426D01*
X-94039749Y36421041D02*
X-93980180Y36480610D01*
X-122465917Y32331165D02*
X-121428798Y32331165D01*
X-78223905Y36652426D02*
X-63740690Y36652426D01*
X-168566134Y33008290D02*
X-168566134Y35507105D01*
X-138482067Y33701130D02*
X-137351170Y32570233D01*
X-33534838Y34389401D02*
X-31715670Y32570233D01*
X-94135592Y36652426D02*
X-93481135Y36652426D01*
X-77493510Y32331165D02*
X-76978798Y32331165D01*
X-138721134Y34278290D02*
X-138721134Y36358413D01*
D43*
X-57038634Y20427460D02*
X-57169540Y20427460D01*
D44*
X-46900917Y32331165D02*
X-45863798Y32331165D01*
D41*
X-57169540Y20427460D02*
X-61087000Y16510000D01*
X-79372121Y36652426D02*
X-78223905Y36652426D01*
D44*
X-123822121Y36652426D02*
X-124065690Y36652426D01*
D41*
X-64691803Y16510000D02*
X-64897000Y16715197D01*
D44*
X-109511134Y34875196D02*
X-109511134Y36358413D01*
X-109211136Y34575197D02*
X-109193634Y34575197D01*
X-108651628Y34350691D02*
X-106813820Y32512883D01*
X-123822121Y36652426D02*
X-109460690Y36652426D01*
D41*
X-109217121Y36652426D02*
X-108068905Y36652426D01*
D44*
X-62253510Y32331165D02*
X-61738798Y32331165D01*
X-168277085Y32381148D02*
X-168327067Y32431130D01*
X-48845148Y36652426D02*
X-48601579Y36652426D01*
X-123043077Y32570233D02*
X-123877067Y33404223D01*
X-138771579Y36652426D02*
X-139015148Y36652426D01*
X-79666139Y34503790D02*
G75*
G03*
X-79427067Y33926630I816239J10D01*
G01*
X-155780017Y36566309D02*
G75*
G03*
X-155866134Y36358413I207917J-207909D01*
G01*
X-79615690Y36652464D02*
G75*
G02*
X-79580021Y36566313I-10J-50464D01*
G01*
X-31138510Y32331161D02*
G75*
G02*
X-31715670Y32570233I10J816239D01*
G01*
X-33473907Y36652405D02*
G75*
G03*
X-33773905Y36352428I7J-300005D01*
G01*
X-48312060Y33404230D02*
G75*
G02*
X-48551134Y33981383I577160J577170D01*
G01*
X-46900917Y32331156D02*
G75*
G02*
X-47478077Y32570233I17J816244D01*
G01*
X-168156417Y32331149D02*
G75*
G02*
X-168277085Y32381148I17J170651D01*
G01*
X-109460690Y36652464D02*
G75*
G02*
X-109425021Y36566313I-10J-50464D01*
G01*
X-167997966Y36413352D02*
G75*
G02*
X-167420813Y36652426I577166J-577152D01*
G01*
X-155780012Y36566304D02*
G75*
G02*
X-155572121Y36652426I207912J-207904D01*
G01*
X-93481134Y36652435D02*
G75*
G03*
X-93980180Y36480610I-37766J-700935D01*
G01*
X-122465917Y32331156D02*
G75*
G02*
X-123043077Y32570233I17J816244D01*
G01*
X-138807237Y36566324D02*
G75*
G02*
X-138771579Y36652426I35637J35676D01*
G01*
X-153284010Y32331161D02*
G75*
G02*
X-153861170Y32570233I10J816239D01*
G01*
X-48601579Y36652442D02*
G75*
G03*
X-48637248Y36566313I-21J-50442D01*
G01*
X-63791139Y33868790D02*
G75*
G03*
X-63552067Y33291630I816239J10D01*
G01*
X-124030017Y36566309D02*
G75*
G03*
X-124116134Y36358413I207917J-207909D01*
G01*
X-33773939Y34966561D02*
G75*
G03*
X-33534838Y34389401I816239J39D01*
G01*
X-168327065Y36084264D02*
G75*
G03*
X-168566134Y35507105I577165J-577164D01*
G01*
X-19902460Y36413378D02*
G75*
G03*
X-20479639Y36652426I-577140J-577178D01*
G01*
X-16847205Y33358079D02*
G75*
G02*
X-16608134Y32780922I-577195J-577179D01*
G01*
X-124065690Y36652464D02*
G75*
G02*
X-124030021Y36566313I-10J-50464D01*
G01*
X-16653792Y32702969D02*
G75*
G02*
X-16630966Y32758090I77892J31D01*
G01*
X-168327063Y32431134D02*
G75*
G02*
X-168566134Y33008290I577163J577166D01*
G01*
X-77493510Y32331161D02*
G75*
G02*
X-78070670Y32570233I10J816239D01*
G01*
D41*
X-109217121Y36652437D02*
G75*
G03*
X-109425020Y36566312I21J-294037D01*
G01*
X-79372121Y36652437D02*
G75*
G03*
X-79580020Y36566312I21J-294037D01*
G01*
D44*
X-138807244Y36566317D02*
G75*
G02*
X-138721134Y36358413I-207956J-207917D01*
G01*
X-93980226Y36480627D02*
G75*
G03*
X-94135592Y36652425I-122274J45573D01*
G01*
X-139015148Y36652388D02*
G75*
G02*
X-138807250Y36566311I48J-293988D01*
G01*
X-92324010Y32331161D02*
G75*
G02*
X-92901170Y32570233I10J816239D01*
G01*
X-63740690Y36652464D02*
G75*
G02*
X-63705021Y36566313I-10J-50464D01*
G01*
X-63497121Y36652437D02*
G75*
G03*
X-63705020Y36566312I21J-294037D01*
G01*
X-155866139Y34913290D02*
G75*
G03*
X-155627067Y34336130I816239J10D01*
G01*
X-155780047Y36566339D02*
G75*
G03*
X-155815690Y36652426I-35653J35661D01*
G01*
X-63791137Y36358413D02*
G75*
G02*
X-63705020Y36566312I294037J-13D01*
G01*
X-123877060Y33404230D02*
G75*
G02*
X-124116134Y33981383I577160J577170D01*
G01*
X-109193634Y34575177D02*
G75*
G02*
X-108651628Y34350691I34J-766477D01*
G01*
X-138721139Y34278290D02*
G75*
G03*
X-138482067Y33701130I816239J10D01*
G01*
X-136774010Y32331161D02*
G75*
G02*
X-137351170Y32570233I10J816239D01*
G01*
X-79666137Y36358413D02*
G75*
G02*
X-79580020Y36566312I294037J-13D01*
G01*
X-48637244Y36566317D02*
G75*
G02*
X-48551134Y36358413I-207956J-207917D01*
G01*
X-94271143Y35862427D02*
G75*
G02*
X-94039749Y36421041I790043J-27D01*
G01*
X-109211136Y34575166D02*
G75*
G02*
X-109511134Y34875196I36J300034D01*
G01*
X-48845148Y36652388D02*
G75*
G02*
X-48637250Y36566311I48J-293988D01*
G01*
X-62253510Y32331161D02*
G75*
G02*
X-62830670Y32570233I10J816239D01*
G01*
X-34125374Y36652415D02*
G75*
G02*
X-33773905Y36352428I23874J-327915D01*
G01*
X-94032063Y33701134D02*
G75*
G02*
X-94271134Y34278290I577163J577166D01*
G01*
X-106390884Y32337703D02*
G75*
G02*
X-106813820Y32512883I-16J598097D01*
G01*
X-109511137Y36358413D02*
G75*
G02*
X-109425020Y36566312I294037J-13D01*
G01*
X-124030012Y36566304D02*
G75*
G02*
X-123822121Y36652426I207912J-207904D01*
G01*
%TO.N,Net-(J2-Pad11)*%
X-65358042Y25685197D02*
X-56509227Y25685197D01*
X-41962067Y26559265D02*
X-40535202Y27986130D01*
X-83608134Y19109859D02*
X-83608134Y17430197D01*
X-42539227Y26320197D02*
X-55198041Y26320197D01*
X-83382796Y19335197D02*
X-72384227Y19335197D01*
X-55932067Y25924265D02*
X-55775203Y26081130D01*
X-39958042Y28225197D02*
X-34919227Y28225197D01*
X-71807067Y19574265D02*
X-65935202Y25446130D01*
X-34342058Y28464256D02*
G75*
G02*
X-34919227Y28225197I-577142J577144D01*
G01*
X-83542128Y19269191D02*
G75*
G02*
X-83382796Y19335197I159328J-159291D01*
G01*
X-41962058Y26559256D02*
G75*
G02*
X-42539227Y26320197I-577142J577144D01*
G01*
X-56509227Y25685210D02*
G75*
G03*
X-55932068Y25924266I27J816190D01*
G01*
X-40535174Y27986102D02*
G75*
G02*
X-39958042Y28225197I577174J-577102D01*
G01*
X-83542154Y19269217D02*
G75*
G03*
X-83608134Y19109859I159354J-159317D01*
G01*
X-65935174Y25446102D02*
G75*
G02*
X-65358042Y25685197I577174J-577102D01*
G01*
X-55198041Y26320236D02*
G75*
G03*
X-55775203Y26081130I41J-816236D01*
G01*
X-72384227Y19335210D02*
G75*
G03*
X-71807068Y19574266I27J816190D01*
G01*
%TO.N,Net-(J2-Pad10)*%
X-85043041Y21240197D02*
X-73654227Y21240197D01*
X-86148134Y20135105D02*
X-86148134Y17430197D01*
X-85620203Y21001130D02*
X-85909067Y20712265D01*
X-57103042Y28225197D02*
X-49993754Y28225197D01*
X-49685788Y28352761D02*
X-49558224Y28480324D01*
X-59049227Y26955197D02*
X-67263042Y26955197D01*
X-67840202Y26716130D02*
X-73077067Y21479265D01*
X-58472067Y27194265D02*
X-57680202Y27986130D01*
X-85043041Y21240236D02*
G75*
G03*
X-85620203Y21001130I41J-816236D01*
G01*
X-49993754Y28225157D02*
G75*
G03*
X-49685788Y28352761I-46J435543D01*
G01*
X-57680174Y27986102D02*
G75*
G02*
X-57103042Y28225197I577174J-577102D01*
G01*
X-73654227Y21240210D02*
G75*
G03*
X-73077068Y21479266I27J816190D01*
G01*
X-59049227Y26955210D02*
G75*
G03*
X-58472068Y27194266I27J816190D01*
G01*
X-85909066Y20712264D02*
G75*
G03*
X-86148134Y20135105I577166J-577164D01*
G01*
X-67263042Y26955235D02*
G75*
G03*
X-67840201Y26716129I42J-816235D01*
G01*
%TO.N,Net-(J2-Pad9)*%
X-88683134Y24698727D02*
X-88683134Y23362000D01*
X-74347067Y23384265D02*
X-69275317Y28456016D01*
X-69223016Y28508317D02*
X-69275317Y28456016D01*
X-74924227Y23145197D02*
X-88466332Y23145197D01*
X-69159883Y28534467D02*
X-65422155Y28534467D01*
X-88683134Y24698727D02*
X-88683134Y17438733D01*
D45*
X-88683134Y25050197D02*
X-88683134Y24698727D01*
D44*
X-88619618Y23208713D02*
G75*
G03*
X-88466332Y23145197I153318J153287D01*
G01*
X-69223021Y28508322D02*
G75*
G02*
X-69159883Y28534467I63121J-63122D01*
G01*
X-74347058Y23384256D02*
G75*
G02*
X-74924227Y23145197I-577142J577144D01*
G01*
X-88619640Y23208691D02*
G75*
G02*
X-88683134Y23362000I153340J153309D01*
G01*
%TO.N,Net-(J2-Pad8)*%
X-91223134Y25401667D02*
X-91223134Y24698727D01*
X-88952067Y27194265D02*
X-87764270Y28382063D01*
X-87187110Y28621130D02*
X-80963926Y28621130D01*
X-91223134Y24698727D02*
X-91223134Y17438733D01*
X-90984067Y26432265D02*
X-90700203Y26716130D01*
X-80331991Y28359374D02*
X-80028144Y28359374D01*
X-91223134Y25401667D02*
X-91223134Y25855105D01*
X-89529227Y26955197D02*
X-90123041Y26955197D01*
X-91223135Y25855105D02*
G75*
G02*
X-90984066Y26432264I816235J-5D01*
G01*
X-80963926Y28621116D02*
G75*
G02*
X-80647958Y28490252I26J-446816D01*
G01*
X-80331991Y28359375D02*
G75*
G02*
X-80647958Y28490252I-9J446825D01*
G01*
X-87764265Y28382058D02*
G75*
G02*
X-87187110Y28621130I577165J-577158D01*
G01*
X-89529227Y26955210D02*
G75*
G03*
X-88952068Y27194266I27J816190D01*
G01*
X-90700175Y26716102D02*
G75*
G02*
X-90123041Y26955197I577175J-577102D01*
G01*
%TO.N,Net-(J2-Pad7)*%
X-93989740Y25917740D02*
X-94895005Y26823005D01*
X-95134072Y27400165D02*
X-95134072Y28413517D01*
X-93763134Y25370666D02*
X-93763134Y24729729D01*
X-93763134Y24729729D02*
X-93763134Y17438733D01*
X-93763155Y25370666D02*
G75*
G03*
X-93989740Y25917740I-773645J34D01*
G01*
X-94894996Y26823014D02*
G75*
G02*
X-95134072Y27400165I577196J577186D01*
G01*
%TO.N,Net-(J2-Pad6)*%
X-97207067Y27986130D02*
X-96415202Y27194265D01*
X-96303134Y25050197D02*
X-96303134Y25140000D01*
X-97784227Y28225197D02*
X-98351134Y28225197D01*
X-96176134Y26617105D02*
X-96176134Y25267000D01*
X-96303134Y24986697D02*
X-96303134Y17438733D01*
X-96303134Y25140000D02*
X-96176134Y25267000D01*
X-97784227Y28225187D02*
G75*
G02*
X-97207067Y27986130I27J-816187D01*
G01*
X-96415196Y27194271D02*
G75*
G02*
X-96176134Y26617105I-577204J-577171D01*
G01*
%TO.N,Net-(J2-Pad2)*%
X-112925202Y22749265D02*
X-114352067Y24176130D01*
X-106463134Y24874462D02*
X-106463134Y17438733D01*
X-114929227Y24415197D02*
X-139018042Y24415197D01*
X-141022067Y26081130D02*
X-139595202Y24654265D01*
X-150390202Y26559265D02*
X-151817067Y27986130D01*
X-112348042Y22510197D02*
X-108579227Y22510197D01*
X-108002067Y22749265D02*
X-106702202Y24049130D01*
X-106463134Y25050197D02*
X-106463134Y24626290D01*
X-152394227Y28225197D02*
X-161216134Y28225197D01*
X-149813042Y26320197D02*
X-141599227Y26320197D01*
X-106463139Y24626290D02*
G75*
G02*
X-106702202Y24049130I-816261J10D01*
G01*
X-149813042Y26320161D02*
G75*
G02*
X-150390202Y26559265I42J816239D01*
G01*
X-112925176Y22749291D02*
G75*
G03*
X-112348042Y22510197I577176J577109D01*
G01*
X-108002058Y22749256D02*
G75*
G02*
X-108579227Y22510197I-577142J577144D01*
G01*
X-141599227Y26320187D02*
G75*
G02*
X-141022067Y26081130I27J-816187D01*
G01*
X-139018042Y24415161D02*
G75*
G02*
X-139595202Y24654265I42J816239D01*
G01*
X-152394227Y28225187D02*
G75*
G02*
X-151817067Y27986130I27J-816187D01*
G01*
X-114352060Y24176137D02*
G75*
G03*
X-114929227Y24415197I-577140J-577137D01*
G01*
%TO.N,Net-(J2-Pad3)*%
X-140964227Y28225197D02*
X-145341134Y28225197D01*
X-105661176Y26716130D02*
X-104020738Y25075692D01*
X-137920254Y25857409D02*
X-114757015Y25857409D01*
X-114179855Y26096477D02*
X-113560202Y26716130D01*
X-106238336Y26955197D02*
X-112983042Y26955197D01*
X-138497414Y26096477D02*
X-140387067Y27986130D01*
X-103923134Y17438733D02*
X-103923134Y25014143D01*
X-105661165Y26716141D02*
G75*
G03*
X-106238336Y26955197I-577135J-577141D01*
G01*
X-113560174Y26716102D02*
G75*
G02*
X-112983042Y26955197I577174J-577102D01*
G01*
X-114757015Y25857410D02*
G75*
G03*
X-114179856Y26096478I15J816190D01*
G01*
X-140964227Y28225187D02*
G75*
G02*
X-140387067Y27986130I27J-816187D01*
G01*
X-137920254Y25857432D02*
G75*
G02*
X-138497413Y26096478I-46J816168D01*
G01*
%TO.N,Net-(J2-Pad4)*%
X-105284079Y27719355D02*
X-105346005Y27719355D01*
X-105878689Y27940000D02*
X-113903239Y27940000D01*
X-101383134Y25050197D02*
X-101383134Y25177197D01*
X-126359227Y28225197D02*
X-126364987Y28230957D01*
X-101383134Y25177197D02*
X-102696061Y26490124D01*
X-124990202Y27194265D02*
X-125782067Y27986130D01*
X-126378893Y28236717D02*
X-130278024Y28236717D01*
X-114480399Y27700933D02*
X-114987067Y27194265D01*
X-103273221Y26729191D02*
X-103737878Y26729191D01*
X-104315038Y26968259D02*
X-104912024Y27565245D01*
X-101383134Y24986697D02*
X-101383134Y17438733D01*
X-115564227Y26955197D02*
X-124413042Y26955197D01*
X-105612341Y27829684D02*
G75*
G03*
X-105346005Y27719355I266341J266316D01*
G01*
X-124990176Y27194291D02*
G75*
G03*
X-124413042Y26955197I577176J577109D01*
G01*
X-105878689Y27939997D02*
G75*
G02*
X-105612347Y27829678I-11J-376697D01*
G01*
X-115564227Y26955210D02*
G75*
G03*
X-114987068Y27194266I27J816190D01*
G01*
X-126359227Y28225187D02*
G75*
G02*
X-125782067Y27986130I27J-816187D01*
G01*
X-105284079Y27719373D02*
G75*
G02*
X-104912024Y27565245I-21J-526173D01*
G01*
X-103273221Y26729187D02*
G75*
G02*
X-102696061Y26490124I21J-816187D01*
G01*
X-126378893Y28236736D02*
G75*
G02*
X-126364987Y28230957I-7J-19636D01*
G01*
X-104315045Y26968252D02*
G75*
G03*
X-103737878Y26729191I577145J577148D01*
G01*
X-114480374Y27700908D02*
G75*
G02*
X-113903239Y27940000I577174J-577108D01*
G01*
%TO.N,Net-(J2-Pad5)*%
X-99082202Y26686265D02*
X-99112067Y26716130D01*
X-116305106Y28263788D02*
X-116602000Y28263788D01*
X-103771505Y27829265D02*
X-104563370Y28621130D01*
X-102864227Y27590197D02*
X-103194345Y27590197D01*
X-105140530Y28860197D02*
X-105167484Y28833244D01*
X-98843134Y25050197D02*
X-98843134Y26109105D01*
X-98843134Y25050197D02*
X-98843134Y17438733D01*
X-99689227Y26955197D02*
X-101553042Y26955197D01*
X-102130202Y27194265D02*
X-102287067Y27351130D01*
X-105232556Y28806290D02*
X-115127617Y28806290D01*
X-115704779Y28567223D02*
X-115798277Y28473724D01*
X-99689227Y26955187D02*
G75*
G02*
X-99112067Y26716130I27J-816187D01*
G01*
X-99082196Y26686271D02*
G75*
G02*
X-98843134Y26109105I-577204J-577171D01*
G01*
X-102130176Y27194291D02*
G75*
G03*
X-101553042Y26955197I577176J577109D01*
G01*
X-105140530Y28860185D02*
G75*
G02*
X-104563370Y28621130I30J-816185D01*
G01*
X-115704761Y28567205D02*
G75*
G02*
X-115127617Y28806290I577161J-577105D01*
G01*
X-102864227Y27590187D02*
G75*
G02*
X-102287067Y27351130I27J-816187D01*
G01*
X-103771478Y27829292D02*
G75*
G03*
X-103194345Y27590197I577178J577108D01*
G01*
X-116305106Y28263807D02*
G75*
G03*
X-115798277Y28473724I6J716793D01*
G01*
X-105232556Y28806255D02*
G75*
G03*
X-105167484Y28833244I-44J92045D01*
G01*
%TO.N,Net-(Q11-Pad1)*%
X-148173903Y32331165D02*
X-148738798Y32331165D01*
X-148082000Y29391704D02*
X-148082000Y32346933D01*
X-147470181Y28719244D02*
X-147661166Y28910230D01*
X-147746771Y28995835D02*
X-147661166Y28910230D01*
X-147953516Y29081516D02*
X-147867835Y28995835D01*
X-147746771Y28995835D02*
X-148007067Y29256130D01*
X-147764500Y28953042D02*
G75*
G02*
X-147867834Y28995836I0J146158D01*
G01*
X-147764500Y28953033D02*
G75*
G02*
X-147661166Y28910230I0J-146133D01*
G01*
X-148173903Y32331177D02*
G75*
G03*
X-148108918Y32358083I3J91923D01*
G01*
X-148108940Y32358105D02*
G75*
G02*
X-148082000Y32346933I11140J-11205D01*
G01*
X-147746777Y28995829D02*
G75*
G02*
X-147764500Y28953032I-17723J-17729D01*
G01*
X-147953524Y29081508D02*
G75*
G02*
X-148082000Y29391704I310224J310192D01*
G01*
X-147341128Y28407697D02*
G75*
G03*
X-147470181Y28719244I-440572J3D01*
G01*
%TO.N,Net-(Q12-Pad1)*%
X-133641134Y29833290D02*
X-133641134Y31500409D01*
X-133880202Y32077569D02*
X-134133798Y32331165D01*
X-133402067Y29256130D02*
X-132419647Y28273710D01*
X-132330339Y28236717D02*
X-132278024Y28236717D01*
X-133402063Y29256134D02*
G75*
G02*
X-133641134Y29833290I577163J577166D01*
G01*
X-132330339Y28236685D02*
G75*
G02*
X-132419647Y28273710I39J126315D01*
G01*
X-133641140Y31500409D02*
G75*
G03*
X-133880203Y32077568I-816260J-9D01*
G01*
%TO.N,Net-(Q13-Pad1)*%
X-118841068Y31643435D02*
X-119528798Y32331165D01*
X-118602000Y31066275D02*
X-118602000Y28263788D01*
X-118602010Y31066275D02*
G75*
G03*
X-118841068Y31643435I-816190J25D01*
G01*
%TO.N,Net-(Q14-Pad1)*%
X-28366999Y28575000D02*
X-32147000Y28575000D01*
X-28067000Y31336275D02*
X-28067000Y28874999D01*
X-28306068Y31913435D02*
X-28723798Y32331165D01*
X-28366999Y28575000D02*
G75*
G03*
X-28067000Y28874999I-1J300000D01*
G01*
X-28067010Y31336275D02*
G75*
G03*
X-28306068Y31913435I-816190J25D01*
G01*
%TO.N,Net-(Q15-Pad1)*%
X-14520004Y28786998D02*
X-14336068Y28970933D01*
X-14336068Y31913435D02*
X-14753798Y32331165D01*
X-15097164Y28547929D02*
X-18275142Y28547929D01*
X-14097000Y31336275D02*
X-14097000Y29548093D01*
X-14336077Y28970942D02*
G75*
G03*
X-14097000Y29548093I-577123J577158D01*
G01*
X-14097010Y31336275D02*
G75*
G03*
X-14336068Y31913435I-816190J25D01*
G01*
X-15097164Y28547918D02*
G75*
G03*
X-14520004Y28786998I-36J816282D01*
G01*
D46*
%TO.N,Net-(Q15-Pad3)*%
X-15703798Y34876442D02*
X-15703798Y30456165D01*
D44*
X-15725468Y34928757D02*
X-15747137Y34950426D01*
X-15703774Y34876442D02*
G75*
G03*
X-15725468Y34928757I-74026J-42D01*
G01*
%TO.N,Net-(Q16-Pad1)*%
X-165248798Y32347789D02*
X-165248798Y32331165D01*
X-164360202Y28464265D02*
X-164517067Y28621130D01*
X-163783042Y28225197D02*
X-163216134Y28225197D01*
X-165216101Y32374101D02*
X-164991567Y32149567D01*
X-164756134Y29198290D02*
X-164756134Y31581182D01*
X-163783042Y28225161D02*
G75*
G02*
X-164360202Y28464265I42J816239D01*
G01*
X-165237899Y32374101D02*
G75*
G02*
X-165216101Y32374101I10899J-10897D01*
G01*
X-164517063Y28621134D02*
G75*
G02*
X-164756134Y29198290I577163J577166D01*
G01*
X-164756162Y31581182D02*
G75*
G03*
X-164991568Y32149566I-803838J18D01*
G01*
X-165248793Y32347789D02*
G75*
G02*
X-165237898Y32374100I37193J11D01*
G01*
%TO.N,Net-(Q17-Pad1)*%
X-43307000Y31336275D02*
X-43307000Y28641947D01*
X-43468623Y28480324D02*
X-47558224Y28480324D01*
X-43546068Y31913435D02*
X-43963798Y32331165D01*
X-43354320Y28527644D02*
G75*
G03*
X-43307000Y28641947I-114280J114256D01*
G01*
X-43307010Y31336275D02*
G75*
G03*
X-43546068Y31913435I-816190J25D01*
G01*
X-43468623Y28480356D02*
G75*
G03*
X-43354338Y28527662I23J161644D01*
G01*
%TO.N,Net-(Q18-Pad1)*%
X-103392933Y29605933D02*
X-102886265Y29099265D01*
X-103632000Y30183093D02*
X-103632000Y31411908D01*
X-104224014Y32331165D02*
X-104234862Y32331165D01*
X-100747067Y28621130D02*
X-100351134Y28225197D01*
X-101324227Y28860197D02*
X-102309105Y28860197D01*
X-103871068Y31989068D02*
X-104205494Y32323494D01*
X-100747060Y28621137D02*
G75*
G03*
X-101324227Y28860197I-577140J-577137D01*
G01*
X-103631987Y31411908D02*
G75*
G03*
X-103871068Y31989068I-816213J-8D01*
G01*
X-102309105Y28860187D02*
G75*
G02*
X-102886265Y29099265I5J816213D01*
G01*
X-104224014Y32331162D02*
G75*
G02*
X-104205495Y32323493I14J-26162D01*
G01*
X-103392924Y29605942D02*
G75*
G02*
X-103632000Y30183093I577124J577158D01*
G01*
%TO.N,Net-(Q19-Pad1)*%
X-74155097Y28359374D02*
X-78028144Y28359374D01*
X-73787000Y28727471D02*
X-73787000Y31411908D01*
X-74706258Y32331165D02*
X-75078798Y32331165D01*
X-74129098Y32092098D02*
X-74026068Y31989068D01*
X-73894827Y28467201D02*
G75*
G03*
X-73787000Y28727471I-260273J260299D01*
G01*
X-74155097Y28359381D02*
G75*
G03*
X-73894814Y28467188I-3J368119D01*
G01*
X-73786987Y31411908D02*
G75*
G03*
X-74026068Y31989068I-816213J-8D01*
G01*
X-74706258Y32331184D02*
G75*
G02*
X-74129098Y32092098I-42J-816284D01*
G01*
%TO.N,Net-(Q20-Pad1)*%
X-59421068Y31913435D02*
X-59838798Y32331165D01*
X-59251195Y28534467D02*
X-63422155Y28534467D01*
X-59182000Y28603662D02*
X-59182000Y31336275D01*
X-59251195Y28534475D02*
G75*
G03*
X-59202267Y28554734I-5J69225D01*
G01*
X-59182010Y31336275D02*
G75*
G03*
X-59421068Y31913435I-816190J25D01*
G01*
X-59202285Y28554752D02*
G75*
G03*
X-59182000Y28603662I-48915J48948D01*
G01*
%TO.N,Net-(Q21-Pad1)*%
X-89584416Y28652586D02*
X-89266068Y28970933D01*
X-89266068Y31913435D02*
X-89683798Y32331165D01*
X-90161576Y28413517D02*
X-93134072Y28413517D01*
X-89027000Y31336275D02*
X-89027000Y29548093D01*
X-90161576Y28413518D02*
G75*
G03*
X-89584416Y28652586I-24J816282D01*
G01*
X-89027010Y31336275D02*
G75*
G03*
X-89266068Y31913435I-816190J25D01*
G01*
X-89266077Y28970942D02*
G75*
G03*
X-89027000Y29548093I-577123J577158D01*
G01*
%TO.N,Net-(R6-Pad1)*%
X-100748134Y33608042D02*
X-100748134Y31130197D01*
X-102080290Y34940197D02*
X-103558134Y34940197D01*
X-101503130Y34701130D02*
X-100987202Y34185202D01*
X-100748116Y33608042D02*
G75*
G03*
X-100987202Y34185202I-816284J-42D01*
G01*
X-102080290Y34940213D02*
G75*
G02*
X-101503130Y34701130I-10J-816213D01*
G01*
%TO.N,Net-(R7-Pad1)*%
X-86109659Y32939567D02*
X-86109659Y31128074D01*
X-86348727Y33516727D02*
X-87533130Y34701130D01*
X-88110290Y34940197D02*
X-88953134Y34940197D01*
X-88110290Y34940213D02*
G75*
G02*
X-87533130Y34701130I-10J-816213D01*
G01*
X-86109687Y32939567D02*
G75*
G03*
X-86348727Y33516727I-816213J33D01*
G01*
%TO.N,Net-(R8-Pad1)*%
X-72870290Y34940197D02*
X-74348134Y34940197D01*
X-71257000Y33326908D02*
X-71257000Y31140197D01*
X-71496068Y33904068D02*
X-72293130Y34701130D01*
X-71256987Y33326908D02*
G75*
G03*
X-71496068Y33904068I-816213J-8D01*
G01*
X-72870290Y34940213D02*
G75*
G02*
X-72293130Y34701130I-10J-816213D01*
G01*
%TO.N,Net-(R9-Pad1)*%
X-58265290Y34940197D02*
X-58743134Y34940197D01*
X-56514841Y33527841D02*
X-57688130Y34701130D01*
X-56275773Y32950681D02*
X-56275773Y31140197D01*
X-56275787Y32950681D02*
G75*
G03*
X-56514841Y33527841I-816213J19D01*
G01*
X-58265290Y34940213D02*
G75*
G02*
X-57688130Y34701130I-10J-816213D01*
G01*
%TO.N,Net-(R10-Pad1)*%
X-41755290Y34940197D02*
X-43233134Y34940197D01*
X-40433134Y33618042D02*
X-40433134Y31140197D01*
X-41178130Y34701130D02*
X-40672202Y34195202D01*
X-40433116Y33618042D02*
G75*
G03*
X-40672202Y34195202I-816284J-42D01*
G01*
X-41755290Y34940213D02*
G75*
G02*
X-41178130Y34701130I-10J-816213D01*
G01*
%TO.N,Net-(R11-Pad1)*%
X-26515290Y34940197D02*
X-27993134Y34940197D01*
X-25432202Y34195202D02*
X-25938130Y34701130D01*
X-25193134Y33618042D02*
X-25193134Y31140197D01*
X-26515290Y34940213D02*
G75*
G02*
X-25938130Y34701130I-10J-816213D01*
G01*
X-25193116Y33618042D02*
G75*
G03*
X-25432202Y34195202I-816284J-42D01*
G01*
%TO.N,Net-(J2-Pad12)*%
X-20949227Y28225197D02*
X-24083042Y28225197D01*
X-40057067Y24654265D02*
X-38630202Y26081130D01*
X-75856134Y17130199D02*
X-75856134Y-133000D01*
X-64665202Y24176130D02*
X-71172067Y17669265D01*
X-76207604Y17430197D02*
X-75556136Y17430197D01*
X-75556136Y17430197D02*
X-71749227Y17430197D01*
X-76207604Y17430197D02*
X-81068134Y17430197D01*
X-64088042Y24415197D02*
X-40634227Y24415197D01*
X-20447000Y28575000D02*
X-20177000Y28575000D01*
X-26087067Y26559265D02*
X-24660202Y27986130D01*
X-26664227Y26320197D02*
X-38053042Y26320197D01*
X-75856226Y17130191D02*
G75*
G03*
X-76207604Y17430196I-327574J-27891D01*
G01*
X-38053042Y26320235D02*
G75*
G03*
X-38630201Y26081129I42J-816235D01*
G01*
X-71172058Y17669256D02*
G75*
G02*
X-71749227Y17430197I-577142J577144D01*
G01*
X-24660174Y27986102D02*
G75*
G02*
X-24083042Y28225197I577174J-577102D01*
G01*
X-64088042Y24415235D02*
G75*
G03*
X-64665201Y24176129I42J-816235D01*
G01*
X-20372058Y28464256D02*
G75*
G02*
X-20949227Y28225197I-577142J577144D01*
G01*
X-40634227Y24415210D02*
G75*
G03*
X-40057068Y24654266I27J816190D01*
G01*
X-26664227Y26320210D02*
G75*
G03*
X-26087068Y26559266I27J816190D01*
G01*
X-75856097Y17130199D02*
G75*
G02*
X-75556136Y17430197I299997J1D01*
G01*
%TO.N,Net-(R53-Pad1)*%
X-13416342Y34950426D02*
X-13747137Y34950426D01*
X-12530093Y34925000D02*
X-13354959Y34925000D01*
X-11223134Y33618042D02*
X-11223134Y31140197D01*
X-11952933Y34685933D02*
X-11462202Y34195202D01*
X-12530093Y34925013D02*
G75*
G02*
X-11952933Y34685933I-7J-816213D01*
G01*
X-11223116Y33618042D02*
G75*
G03*
X-11462202Y34195202I-816284J-42D01*
G01*
X-13354959Y34925029D02*
G75*
G02*
X-13385649Y34937714I-41J43371D01*
G01*
X-13416342Y34950390D02*
G75*
G02*
X-13385650Y34937713I42J-43390D01*
G01*
D46*
%TO.N,Net-(Q11-Pad3)*%
X-149688798Y34412128D02*
X-149688798Y29933857D01*
D44*
X-149843466Y34785529D02*
X-149998134Y34940197D01*
X-149688789Y34412128D02*
G75*
G03*
X-149843467Y34785528I-528111J-28D01*
G01*
D46*
%TO.N,Net-(Q12-Pad3)*%
X-135083798Y34931778D02*
X-135083798Y29933857D01*
D44*
X-135083824Y34931778D02*
G75*
G03*
X-135114017Y35004729I-103176J22D01*
G01*
%TO.N,Net-(Q13-Pad3)*%
X-120638466Y34780529D02*
X-120798134Y34940197D01*
D46*
X-120478798Y34395057D02*
X-120478798Y29933857D01*
D44*
X-120478818Y34395057D02*
G75*
G03*
X-120638466Y34780529I-545082J43D01*
G01*
D46*
%TO.N,Net-(Q14-Pad3)*%
X-29673798Y34395057D02*
X-29673798Y30456165D01*
D44*
X-29833466Y34780529D02*
X-29993134Y34940197D01*
X-29673818Y34395057D02*
G75*
G03*
X-29833466Y34780529I-545082J43D01*
G01*
D46*
%TO.N,Net-(Q16-Pad3)*%
X-166198798Y34003442D02*
X-166198798Y30456165D01*
D44*
X-166437866Y34580602D02*
X-166802996Y34945732D01*
X-166198762Y34003442D02*
G75*
G03*
X-166437867Y34580601I-816238J-42D01*
G01*
%TO.N,Net-(Q17-Pad3)*%
X-45073466Y34780529D02*
X-45233134Y34940197D01*
D46*
X-44913798Y34395057D02*
X-44913798Y30456165D01*
D44*
X-44913818Y34395057D02*
G75*
G03*
X-45073466Y34780529I-545082J43D01*
G01*
%TO.N,Net-(Q18-Pad3)*%
X-105371498Y34753561D02*
X-105558134Y34940197D01*
D46*
X-105184862Y34302982D02*
X-105184862Y29933857D01*
D44*
X-105184882Y34302982D02*
G75*
G03*
X-105371498Y34753561I-637218J18D01*
G01*
%TO.N,Net-(Q19-Pad3)*%
X-76188466Y34780529D02*
X-76348134Y34940197D01*
D46*
X-76028798Y34395057D02*
X-76028798Y30456165D01*
D44*
X-76028818Y34395057D02*
G75*
G03*
X-76188466Y34780529I-545082J43D01*
G01*
%TO.N,Net-(Q20-Pad3)*%
X-60765966Y34917365D02*
X-60743134Y34940197D01*
D46*
X-60788798Y34862244D02*
X-60788798Y30456165D01*
D44*
X-60788845Y34862244D02*
G75*
G02*
X-60765966Y34917365I77945J-44D01*
G01*
%TO.N,Net-(Q21-Pad3)*%
X-90793466Y34780529D02*
X-90953134Y34940197D01*
D46*
X-90633798Y34395057D02*
X-90633798Y29933857D01*
D44*
X-90633818Y34395057D02*
G75*
G03*
X-90793466Y34780529I-545082J43D01*
G01*
D47*
%TO.N,NEUT*%
X-69497000Y75085493D02*
X-69497000Y77768957D01*
D42*
X-9497000Y74557128D02*
X-9497000Y77768957D01*
D47*
X-8673134Y9878290D02*
X-8673134Y13917105D01*
D42*
X-129233560Y74268080D02*
X-114345666Y74268080D01*
X-6510350Y74268080D02*
X-38943352Y74268080D01*
D47*
X-8673134Y14606667D02*
X-8673134Y19440199D01*
X-8673134Y14606667D02*
X-8673134Y13917105D01*
X-69257933Y74508333D02*
X-69256748Y74507148D01*
X-144497000Y74437630D02*
X-144497000Y77768957D01*
D42*
X-68678750Y74268080D02*
X-54472304Y74268080D01*
D47*
X-39497000Y74821729D02*
X-39497000Y77768957D01*
D43*
X-10289426Y14850197D02*
X-21281134Y14850197D01*
D47*
X-114497000Y74941227D02*
X-114497000Y77768957D01*
X-54497000Y74412024D02*
X-54497000Y77768957D01*
X-84497000Y74943549D02*
X-84497000Y77768957D01*
D43*
X-8844951Y14427014D02*
X-9456766Y15038829D01*
D42*
X-39402009Y74268080D02*
X-54353057Y74268080D01*
X-85172469Y74268080D02*
X-99501195Y74268080D01*
X-3197202Y22257983D02*
X-5493574Y19961611D01*
X-2958134Y22835143D02*
X-2958134Y70715865D01*
D47*
X-159497000Y77436359D02*
X-159497000Y77768957D01*
X-99497000Y74292526D02*
X-99497000Y77768957D01*
D42*
X-144666550Y74268080D02*
X-156323228Y74268080D01*
X-6070734Y19722543D02*
X-8564848Y19722543D01*
D47*
X-24497000Y74412024D02*
X-24497000Y77768957D01*
D42*
X-84612892Y74268080D02*
X-69260666Y74268080D01*
D47*
X-129497000Y74531521D02*
X-129497000Y77768957D01*
D42*
X-159261818Y76868578D02*
X-156900388Y74507148D01*
X-113823854Y74268080D02*
X-99521446Y74268080D01*
X-3197202Y71293025D02*
X-5933190Y74029013D01*
D47*
X-84694840Y74465920D02*
X-84720864Y74439897D01*
D42*
X-129451801Y74268080D02*
X-144526091Y74268080D01*
D47*
X-69497013Y75085493D02*
G75*
G03*
X-69257933Y74508333I816213J7D01*
G01*
D43*
X-9456767Y15038828D02*
G75*
G03*
X-9834029Y15038829I-188631J-188630D01*
G01*
D42*
X-2958171Y70715865D02*
G75*
G03*
X-3197202Y71293025I-816229J35D01*
G01*
D43*
X-9834021Y15038821D02*
G75*
G02*
X-10289426Y14850197I-455379J455379D01*
G01*
D47*
X-159261805Y76868591D02*
G75*
G02*
X-159497000Y77436359I567805J567809D01*
G01*
X-84497044Y74943549D02*
G75*
G02*
X-84694840Y74465920I-675456J-49D01*
G01*
D42*
X-3197172Y22257953D02*
G75*
G03*
X-2958134Y22835143I-577228J577147D01*
G01*
D43*
X-8844962Y14426970D02*
G75*
G03*
X-8673134Y14606667I34062J139430D01*
G01*
D47*
X-8673145Y13917106D02*
G75*
G03*
X-8844952Y14427013I-717355J42194D01*
G01*
D42*
X-5933175Y74029028D02*
G75*
G03*
X-6510350Y74268080I-577125J-577128D01*
G01*
D47*
X-8434063Y9301134D02*
G75*
G02*
X-8673134Y9878290I577163J577166D01*
G01*
D42*
X-6070734Y19722577D02*
G75*
G03*
X-5493575Y19961612I34J816223D01*
G01*
D47*
X-114299844Y74465236D02*
G75*
G02*
X-114497000Y74941227I475944J475964D01*
G01*
%TD*%
M02*
