%TF.GenerationSoftware,KiCad,Pcbnew,(6.0.4)*%
%TF.CreationDate,2022-05-29T19:49:35+02:00*%
%TF.ProjectId,Central Heating Control PBA,43656e74-7261-46c2-9048-656174696e67,2.1*%
%TF.SameCoordinates,Original*%
%TF.FileFunction,Copper,L1,Top*%
%TF.FilePolarity,Positive*%
%FSLAX46Y46*%
G04 Gerber Fmt 4.6, Leading zero omitted, Abs format (unit mm)*
G04 Created by KiCad (PCBNEW (6.0.4)) date 2022-05-29 19:49:35*
%MOMM*%
%LPD*%
G01*
G04 APERTURE LIST*
G04 Aperture macros list*
%AMRoundRect*
0 Rectangle with rounded corners*
0 $1 Rounding radius*
0 $2 $3 $4 $5 $6 $7 $8 $9 X,Y pos of 4 corners*
0 Add a 4 corners polygon primitive as box body*
4,1,4,$2,$3,$4,$5,$6,$7,$8,$9,$2,$3,0*
0 Add four circle primitives for the rounded corners*
1,1,$1+$1,$2,$3*
1,1,$1+$1,$4,$5*
1,1,$1+$1,$6,$7*
1,1,$1+$1,$8,$9*
0 Add four rect primitives between the rounded corners*
20,1,$1+$1,$2,$3,$4,$5,0*
20,1,$1+$1,$4,$5,$6,$7,0*
20,1,$1+$1,$6,$7,$8,$9,0*
20,1,$1+$1,$8,$9,$2,$3,0*%
%AMFreePoly0*
4,1,6,1.000000,0.000000,0.500000,-0.750000,-0.500000,-0.750000,-0.500000,0.750000,0.500000,0.750000,1.000000,0.000000,1.000000,0.000000,$1*%
%AMFreePoly1*
4,1,6,0.500000,-0.750000,-0.650000,-0.750000,-0.150000,0.000000,-0.650000,0.750000,0.500000,0.750000,0.500000,-0.750000,0.500000,-0.750000,$1*%
G04 Aperture macros list end*
%ADD10C,0.100000*%
%ADD11C,0.150000*%
%ADD12C,0.300000*%
%ADD13C,0.400000*%
%TA.AperFunction,Profile*%
%ADD14C,0.150000*%
%TD*%
%ADD15C,0.275000*%
%TA.AperFunction,NonConductor*%
%ADD16C,0.275000*%
%TD*%
%TA.AperFunction,ComponentPad*%
%ADD17C,3.000000*%
%TD*%
%TA.AperFunction,ComponentPad*%
%ADD18R,1.800000X1.800000*%
%TD*%
%TA.AperFunction,ComponentPad*%
%ADD19C,1.800000*%
%TD*%
%TA.AperFunction,SMDPad,CuDef*%
%ADD20RoundRect,0.250000X0.350000X0.450000X-0.350000X0.450000X-0.350000X-0.450000X0.350000X-0.450000X0*%
%TD*%
%TA.AperFunction,ComponentPad*%
%ADD21R,2.500000X2.500000*%
%TD*%
%TA.AperFunction,ComponentPad*%
%ADD22C,2.500000*%
%TD*%
%TA.AperFunction,ComponentPad*%
%ADD23R,1.600000X2.400000*%
%TD*%
%TA.AperFunction,ComponentPad*%
%ADD24O,1.600000X2.400000*%
%TD*%
%TA.AperFunction,SMDPad,CuDef*%
%ADD25RoundRect,0.250000X-0.350000X-0.450000X0.350000X-0.450000X0.350000X0.450000X-0.350000X0.450000X0*%
%TD*%
%TA.AperFunction,ComponentPad*%
%ADD26C,1.600000*%
%TD*%
%TA.AperFunction,ComponentPad*%
%ADD27O,1.600000X1.600000*%
%TD*%
%TA.AperFunction,ComponentPad*%
%ADD28R,1.905000X2.000000*%
%TD*%
%TA.AperFunction,ComponentPad*%
%ADD29O,1.905000X2.000000*%
%TD*%
%TA.AperFunction,ComponentPad*%
%ADD30C,2.400000*%
%TD*%
%TA.AperFunction,ComponentPad*%
%ADD31R,1.700000X1.700000*%
%TD*%
%TA.AperFunction,ComponentPad*%
%ADD32O,1.700000X1.700000*%
%TD*%
%TA.AperFunction,ComponentPad*%
%ADD33C,1.900000*%
%TD*%
%TA.AperFunction,SMDPad,CuDef*%
%ADD34RoundRect,0.150000X0.150000X-0.587500X0.150000X0.587500X-0.150000X0.587500X-0.150000X-0.587500X0*%
%TD*%
%TA.AperFunction,ComponentPad*%
%ADD35R,2.600000X2.600000*%
%TD*%
%TA.AperFunction,ComponentPad*%
%ADD36C,2.600000*%
%TD*%
%TA.AperFunction,ComponentPad*%
%ADD37R,1.500000X1.500000*%
%TD*%
%TA.AperFunction,ComponentPad*%
%ADD38C,1.500000*%
%TD*%
%TA.AperFunction,ComponentPad*%
%ADD39R,1.800000X1.050000*%
%TD*%
%TA.AperFunction,ComponentPad*%
%ADD40O,1.800000X1.050000*%
%TD*%
%TA.AperFunction,SMDPad,CuDef*%
%ADD41RoundRect,0.250000X-0.550000X1.500000X-0.550000X-1.500000X0.550000X-1.500000X0.550000X1.500000X0*%
%TD*%
%TA.AperFunction,ComponentPad*%
%ADD42C,2.300000*%
%TD*%
%TA.AperFunction,SMDPad,CuDef*%
%ADD43RoundRect,0.250000X0.337500X0.475000X-0.337500X0.475000X-0.337500X-0.475000X0.337500X-0.475000X0*%
%TD*%
%TA.AperFunction,SMDPad,CuDef*%
%ADD44FreePoly0,270.000000*%
%TD*%
%TA.AperFunction,SMDPad,CuDef*%
%ADD45FreePoly1,270.000000*%
%TD*%
%TA.AperFunction,ComponentPad*%
%ADD46R,1.524000X1.524000*%
%TD*%
%TA.AperFunction,ComponentPad*%
%ADD47C,1.524000*%
%TD*%
%TA.AperFunction,SMDPad,CuDef*%
%ADD48R,0.900000X1.200000*%
%TD*%
%TA.AperFunction,ComponentPad*%
%ADD49R,2.300000X2.000000*%
%TD*%
%TA.AperFunction,ViaPad*%
%ADD50C,0.600000*%
%TD*%
%TA.AperFunction,Conductor*%
%ADD51C,1.600000*%
%TD*%
%TA.AperFunction,Conductor*%
%ADD52C,2.000000*%
%TD*%
%TA.AperFunction,Conductor*%
%ADD53C,1.500000*%
%TD*%
%TA.AperFunction,Conductor*%
%ADD54C,0.800000*%
%TD*%
%TA.AperFunction,Conductor*%
%ADD55C,0.500000*%
%TD*%
%TA.AperFunction,Conductor*%
%ADD56C,1.200000*%
%TD*%
G04 APERTURE END LIST*
D10*
D11*
X177002200Y-166007200D02*
X177002200Y-198007200D01*
X285002200Y-198007200D01*
X285002200Y-166007200D01*
X177002200Y-166007200D01*
D10*
D11*
X10000000Y-10000000D02*
X10000000Y-200007200D01*
X287002200Y-200007200D01*
X287002200Y-10000000D01*
X10000000Y-10000000D01*
D10*
D11*
X12000000Y-12000000D02*
X12000000Y-198007200D01*
X285002200Y-198007200D01*
X285002200Y-12000000D01*
X12000000Y-12000000D01*
D10*
D11*
X60000000Y-12000000D02*
X60000000Y-10000000D01*
D10*
D11*
X110000000Y-12000000D02*
X110000000Y-10000000D01*
D10*
D11*
X160000000Y-12000000D02*
X160000000Y-10000000D01*
D10*
D11*
X210000000Y-12000000D02*
X210000000Y-10000000D01*
D10*
D11*
X260000000Y-12000000D02*
X260000000Y-10000000D01*
D10*
D11*
X36065476Y-11588095D02*
X35322619Y-11588095D01*
X35694047Y-11588095D02*
X35694047Y-10288095D01*
X35570238Y-10473809D01*
X35446428Y-10597619D01*
X35322619Y-10659523D01*
D10*
D11*
X85322619Y-10411904D02*
X85384523Y-10350000D01*
X85508333Y-10288095D01*
X85817857Y-10288095D01*
X85941666Y-10350000D01*
X86003571Y-10411904D01*
X86065476Y-10535714D01*
X86065476Y-10659523D01*
X86003571Y-10845238D01*
X85260714Y-11588095D01*
X86065476Y-11588095D01*
D10*
D11*
X135260714Y-10288095D02*
X136065476Y-10288095D01*
X135632142Y-10783333D01*
X135817857Y-10783333D01*
X135941666Y-10845238D01*
X136003571Y-10907142D01*
X136065476Y-11030952D01*
X136065476Y-11340476D01*
X136003571Y-11464285D01*
X135941666Y-11526190D01*
X135817857Y-11588095D01*
X135446428Y-11588095D01*
X135322619Y-11526190D01*
X135260714Y-11464285D01*
D10*
D11*
X185941666Y-10721428D02*
X185941666Y-11588095D01*
X185632142Y-10226190D02*
X185322619Y-11154761D01*
X186127380Y-11154761D01*
D10*
D11*
X236003571Y-10288095D02*
X235384523Y-10288095D01*
X235322619Y-10907142D01*
X235384523Y-10845238D01*
X235508333Y-10783333D01*
X235817857Y-10783333D01*
X235941666Y-10845238D01*
X236003571Y-10907142D01*
X236065476Y-11030952D01*
X236065476Y-11340476D01*
X236003571Y-11464285D01*
X235941666Y-11526190D01*
X235817857Y-11588095D01*
X235508333Y-11588095D01*
X235384523Y-11526190D01*
X235322619Y-11464285D01*
D10*
D11*
X285941666Y-10288095D02*
X285694047Y-10288095D01*
X285570238Y-10350000D01*
X285508333Y-10411904D01*
X285384523Y-10597619D01*
X285322619Y-10845238D01*
X285322619Y-11340476D01*
X285384523Y-11464285D01*
X285446428Y-11526190D01*
X285570238Y-11588095D01*
X285817857Y-11588095D01*
X285941666Y-11526190D01*
X286003571Y-11464285D01*
X286065476Y-11340476D01*
X286065476Y-11030952D01*
X286003571Y-10907142D01*
X285941666Y-10845238D01*
X285817857Y-10783333D01*
X285570238Y-10783333D01*
X285446428Y-10845238D01*
X285384523Y-10907142D01*
X285322619Y-11030952D01*
D10*
D11*
X60000000Y-198007200D02*
X60000000Y-200007200D01*
D10*
D11*
X110000000Y-198007200D02*
X110000000Y-200007200D01*
D10*
D11*
X160000000Y-198007200D02*
X160000000Y-200007200D01*
D10*
D11*
X210000000Y-198007200D02*
X210000000Y-200007200D01*
D10*
D11*
X260000000Y-198007200D02*
X260000000Y-200007200D01*
D10*
D11*
X36065476Y-199595295D02*
X35322619Y-199595295D01*
X35694047Y-199595295D02*
X35694047Y-198295295D01*
X35570238Y-198481009D01*
X35446428Y-198604819D01*
X35322619Y-198666723D01*
D10*
D11*
X85322619Y-198419104D02*
X85384523Y-198357200D01*
X85508333Y-198295295D01*
X85817857Y-198295295D01*
X85941666Y-198357200D01*
X86003571Y-198419104D01*
X86065476Y-198542914D01*
X86065476Y-198666723D01*
X86003571Y-198852438D01*
X85260714Y-199595295D01*
X86065476Y-199595295D01*
D10*
D11*
X135260714Y-198295295D02*
X136065476Y-198295295D01*
X135632142Y-198790533D01*
X135817857Y-198790533D01*
X135941666Y-198852438D01*
X136003571Y-198914342D01*
X136065476Y-199038152D01*
X136065476Y-199347676D01*
X136003571Y-199471485D01*
X135941666Y-199533390D01*
X135817857Y-199595295D01*
X135446428Y-199595295D01*
X135322619Y-199533390D01*
X135260714Y-199471485D01*
D10*
D11*
X185941666Y-198728628D02*
X185941666Y-199595295D01*
X185632142Y-198233390D02*
X185322619Y-199161961D01*
X186127380Y-199161961D01*
D10*
D11*
X236003571Y-198295295D02*
X235384523Y-198295295D01*
X235322619Y-198914342D01*
X235384523Y-198852438D01*
X235508333Y-198790533D01*
X235817857Y-198790533D01*
X235941666Y-198852438D01*
X236003571Y-198914342D01*
X236065476Y-199038152D01*
X236065476Y-199347676D01*
X236003571Y-199471485D01*
X235941666Y-199533390D01*
X235817857Y-199595295D01*
X235508333Y-199595295D01*
X235384523Y-199533390D01*
X235322619Y-199471485D01*
D10*
D11*
X285941666Y-198295295D02*
X285694047Y-198295295D01*
X285570238Y-198357200D01*
X285508333Y-198419104D01*
X285384523Y-198604819D01*
X285322619Y-198852438D01*
X285322619Y-199347676D01*
X285384523Y-199471485D01*
X285446428Y-199533390D01*
X285570238Y-199595295D01*
X285817857Y-199595295D01*
X285941666Y-199533390D01*
X286003571Y-199471485D01*
X286065476Y-199347676D01*
X286065476Y-199038152D01*
X286003571Y-198914342D01*
X285941666Y-198852438D01*
X285817857Y-198790533D01*
X285570238Y-198790533D01*
X285446428Y-198852438D01*
X285384523Y-198914342D01*
X285322619Y-199038152D01*
D10*
D11*
X10000000Y-60000000D02*
X12000000Y-60000000D01*
D10*
D11*
X10000000Y-110000000D02*
X12000000Y-110000000D01*
D10*
D11*
X10000000Y-160000000D02*
X12000000Y-160000000D01*
D10*
D11*
X10690476Y-35216666D02*
X11309523Y-35216666D01*
X10566666Y-35588095D02*
X11000000Y-34288095D01*
X11433333Y-35588095D01*
D10*
D11*
X11092857Y-84907142D02*
X11278571Y-84969047D01*
X11340476Y-85030952D01*
X11402380Y-85154761D01*
X11402380Y-85340476D01*
X11340476Y-85464285D01*
X11278571Y-85526190D01*
X11154761Y-85588095D01*
X10659523Y-85588095D01*
X10659523Y-84288095D01*
X11092857Y-84288095D01*
X11216666Y-84350000D01*
X11278571Y-84411904D01*
X11340476Y-84535714D01*
X11340476Y-84659523D01*
X11278571Y-84783333D01*
X11216666Y-84845238D01*
X11092857Y-84907142D01*
X10659523Y-84907142D01*
D10*
D11*
X11402380Y-135464285D02*
X11340476Y-135526190D01*
X11154761Y-135588095D01*
X11030952Y-135588095D01*
X10845238Y-135526190D01*
X10721428Y-135402380D01*
X10659523Y-135278571D01*
X10597619Y-135030952D01*
X10597619Y-134845238D01*
X10659523Y-134597619D01*
X10721428Y-134473809D01*
X10845238Y-134350000D01*
X11030952Y-134288095D01*
X11154761Y-134288095D01*
X11340476Y-134350000D01*
X11402380Y-134411904D01*
D10*
D11*
X10659523Y-185588095D02*
X10659523Y-184288095D01*
X10969047Y-184288095D01*
X11154761Y-184350000D01*
X11278571Y-184473809D01*
X11340476Y-184597619D01*
X11402380Y-184845238D01*
X11402380Y-185030952D01*
X11340476Y-185278571D01*
X11278571Y-185402380D01*
X11154761Y-185526190D01*
X10969047Y-185588095D01*
X10659523Y-185588095D01*
D10*
D11*
X287002200Y-60000000D02*
X285002200Y-60000000D01*
D10*
D11*
X287002200Y-110000000D02*
X285002200Y-110000000D01*
D10*
D11*
X287002200Y-160000000D02*
X285002200Y-160000000D01*
D10*
D11*
X285692676Y-35216666D02*
X286311723Y-35216666D01*
X285568866Y-35588095D02*
X286002200Y-34288095D01*
X286435533Y-35588095D01*
D10*
D11*
X286095057Y-84907142D02*
X286280771Y-84969047D01*
X286342676Y-85030952D01*
X286404580Y-85154761D01*
X286404580Y-85340476D01*
X286342676Y-85464285D01*
X286280771Y-85526190D01*
X286156961Y-85588095D01*
X285661723Y-85588095D01*
X285661723Y-84288095D01*
X286095057Y-84288095D01*
X286218866Y-84350000D01*
X286280771Y-84411904D01*
X286342676Y-84535714D01*
X286342676Y-84659523D01*
X286280771Y-84783333D01*
X286218866Y-84845238D01*
X286095057Y-84907142D01*
X285661723Y-84907142D01*
D10*
D11*
X286404580Y-135464285D02*
X286342676Y-135526190D01*
X286156961Y-135588095D01*
X286033152Y-135588095D01*
X285847438Y-135526190D01*
X285723628Y-135402380D01*
X285661723Y-135278571D01*
X285599819Y-135030952D01*
X285599819Y-134845238D01*
X285661723Y-134597619D01*
X285723628Y-134473809D01*
X285847438Y-134350000D01*
X286033152Y-134288095D01*
X286156961Y-134288095D01*
X286342676Y-134350000D01*
X286404580Y-134411904D01*
D10*
D11*
X285661723Y-185588095D02*
X285661723Y-184288095D01*
X285971247Y-184288095D01*
X286156961Y-184350000D01*
X286280771Y-184473809D01*
X286342676Y-184597619D01*
X286404580Y-184845238D01*
X286404580Y-185030952D01*
X286342676Y-185278571D01*
X286280771Y-185402380D01*
X286156961Y-185526190D01*
X285971247Y-185588095D01*
X285661723Y-185588095D01*
D10*
D11*
X200434342Y-193785771D02*
X200434342Y-192285771D01*
X200791485Y-192285771D01*
X201005771Y-192357200D01*
X201148628Y-192500057D01*
X201220057Y-192642914D01*
X201291485Y-192928628D01*
X201291485Y-193142914D01*
X201220057Y-193428628D01*
X201148628Y-193571485D01*
X201005771Y-193714342D01*
X200791485Y-193785771D01*
X200434342Y-193785771D01*
X202577200Y-193785771D02*
X202577200Y-193000057D01*
X202505771Y-192857200D01*
X202362914Y-192785771D01*
X202077200Y-192785771D01*
X201934342Y-192857200D01*
X202577200Y-193714342D02*
X202434342Y-193785771D01*
X202077200Y-193785771D01*
X201934342Y-193714342D01*
X201862914Y-193571485D01*
X201862914Y-193428628D01*
X201934342Y-193285771D01*
X202077200Y-193214342D01*
X202434342Y-193214342D01*
X202577200Y-193142914D01*
X203077200Y-192785771D02*
X203648628Y-192785771D01*
X203291485Y-192285771D02*
X203291485Y-193571485D01*
X203362914Y-193714342D01*
X203505771Y-193785771D01*
X203648628Y-193785771D01*
X204720057Y-193714342D02*
X204577200Y-193785771D01*
X204291485Y-193785771D01*
X204148628Y-193714342D01*
X204077200Y-193571485D01*
X204077200Y-193000057D01*
X204148628Y-192857200D01*
X204291485Y-192785771D01*
X204577200Y-192785771D01*
X204720057Y-192857200D01*
X204791485Y-193000057D01*
X204791485Y-193142914D01*
X204077200Y-193285771D01*
X205434342Y-193642914D02*
X205505771Y-193714342D01*
X205434342Y-193785771D01*
X205362914Y-193714342D01*
X205434342Y-193642914D01*
X205434342Y-193785771D01*
X205434342Y-192857200D02*
X205505771Y-192928628D01*
X205434342Y-193000057D01*
X205362914Y-192928628D01*
X205434342Y-192857200D01*
X205434342Y-193000057D01*
X207220057Y-192428628D02*
X207291485Y-192357200D01*
X207434342Y-192285771D01*
X207791485Y-192285771D01*
X207934342Y-192357200D01*
X208005771Y-192428628D01*
X208077200Y-192571485D01*
X208077200Y-192714342D01*
X208005771Y-192928628D01*
X207148628Y-193785771D01*
X208077200Y-193785771D01*
X209005771Y-192285771D02*
X209148628Y-192285771D01*
X209291485Y-192357200D01*
X209362914Y-192428628D01*
X209434342Y-192571485D01*
X209505771Y-192857200D01*
X209505771Y-193214342D01*
X209434342Y-193500057D01*
X209362914Y-193642914D01*
X209291485Y-193714342D01*
X209148628Y-193785771D01*
X209005771Y-193785771D01*
X208862914Y-193714342D01*
X208791485Y-193642914D01*
X208720057Y-193500057D01*
X208648628Y-193214342D01*
X208648628Y-192857200D01*
X208720057Y-192571485D01*
X208791485Y-192428628D01*
X208862914Y-192357200D01*
X209005771Y-192285771D01*
X210077200Y-192428628D02*
X210148628Y-192357200D01*
X210291485Y-192285771D01*
X210648628Y-192285771D01*
X210791485Y-192357200D01*
X210862914Y-192428628D01*
X210934342Y-192571485D01*
X210934342Y-192714342D01*
X210862914Y-192928628D01*
X210005771Y-193785771D01*
X210934342Y-193785771D01*
X211505771Y-192428628D02*
X211577200Y-192357200D01*
X211720057Y-192285771D01*
X212077200Y-192285771D01*
X212220057Y-192357200D01*
X212291485Y-192428628D01*
X212362914Y-192571485D01*
X212362914Y-192714342D01*
X212291485Y-192928628D01*
X211434342Y-193785771D01*
X212362914Y-193785771D01*
X213005771Y-193214342D02*
X214148628Y-193214342D01*
X215148628Y-192285771D02*
X215291485Y-192285771D01*
X215434342Y-192357200D01*
X215505771Y-192428628D01*
X215577200Y-192571485D01*
X215648628Y-192857200D01*
X215648628Y-193214342D01*
X215577200Y-193500057D01*
X215505771Y-193642914D01*
X215434342Y-193714342D01*
X215291485Y-193785771D01*
X215148628Y-193785771D01*
X215005771Y-193714342D01*
X214934342Y-193642914D01*
X214862914Y-193500057D01*
X214791485Y-193214342D01*
X214791485Y-192857200D01*
X214862914Y-192571485D01*
X214934342Y-192428628D01*
X215005771Y-192357200D01*
X215148628Y-192285771D01*
X217005771Y-192285771D02*
X216291485Y-192285771D01*
X216220057Y-193000057D01*
X216291485Y-192928628D01*
X216434342Y-192857200D01*
X216791485Y-192857200D01*
X216934342Y-192928628D01*
X217005771Y-193000057D01*
X217077200Y-193142914D01*
X217077200Y-193500057D01*
X217005771Y-193642914D01*
X216934342Y-193714342D01*
X216791485Y-193785771D01*
X216434342Y-193785771D01*
X216291485Y-193714342D01*
X216220057Y-193642914D01*
X217720057Y-193214342D02*
X218862914Y-193214342D01*
X219862914Y-192285771D02*
X220005771Y-192285771D01*
X220148628Y-192357200D01*
X220220057Y-192428628D01*
X220291485Y-192571485D01*
X220362914Y-192857200D01*
X220362914Y-193214342D01*
X220291485Y-193500057D01*
X220220057Y-193642914D01*
X220148628Y-193714342D01*
X220005771Y-193785771D01*
X219862914Y-193785771D01*
X219720057Y-193714342D01*
X219648628Y-193642914D01*
X219577200Y-193500057D01*
X219505771Y-193214342D01*
X219505771Y-192857200D01*
X219577200Y-192571485D01*
X219648628Y-192428628D01*
X219720057Y-192357200D01*
X219862914Y-192285771D01*
X220862914Y-192285771D02*
X221862914Y-192285771D01*
X221220057Y-193785771D01*
D10*
D11*
X177002200Y-194507200D02*
X285002200Y-194507200D01*
D10*
D11*
X178434342Y-196585771D02*
X178434342Y-195085771D01*
X179291485Y-196585771D02*
X178648628Y-195728628D01*
X179291485Y-195085771D02*
X178434342Y-195942914D01*
X179934342Y-196585771D02*
X179934342Y-195585771D01*
X179934342Y-195085771D02*
X179862914Y-195157200D01*
X179934342Y-195228628D01*
X180005771Y-195157200D01*
X179934342Y-195085771D01*
X179934342Y-195228628D01*
X181505771Y-196442914D02*
X181434342Y-196514342D01*
X181220057Y-196585771D01*
X181077200Y-196585771D01*
X180862914Y-196514342D01*
X180720057Y-196371485D01*
X180648628Y-196228628D01*
X180577200Y-195942914D01*
X180577200Y-195728628D01*
X180648628Y-195442914D01*
X180720057Y-195300057D01*
X180862914Y-195157200D01*
X181077200Y-195085771D01*
X181220057Y-195085771D01*
X181434342Y-195157200D01*
X181505771Y-195228628D01*
X182791485Y-196585771D02*
X182791485Y-195800057D01*
X182720057Y-195657200D01*
X182577200Y-195585771D01*
X182291485Y-195585771D01*
X182148628Y-195657200D01*
X182791485Y-196514342D02*
X182648628Y-196585771D01*
X182291485Y-196585771D01*
X182148628Y-196514342D01*
X182077200Y-196371485D01*
X182077200Y-196228628D01*
X182148628Y-196085771D01*
X182291485Y-196014342D01*
X182648628Y-196014342D01*
X182791485Y-195942914D01*
X184148628Y-196585771D02*
X184148628Y-195085771D01*
X184148628Y-196514342D02*
X184005771Y-196585771D01*
X183720057Y-196585771D01*
X183577200Y-196514342D01*
X183505771Y-196442914D01*
X183434342Y-196300057D01*
X183434342Y-195871485D01*
X183505771Y-195728628D01*
X183577200Y-195657200D01*
X183720057Y-195585771D01*
X184005771Y-195585771D01*
X184148628Y-195657200D01*
X186005771Y-195800057D02*
X186505771Y-195800057D01*
X186720057Y-196585771D02*
X186005771Y-196585771D01*
X186005771Y-195085771D01*
X186720057Y-195085771D01*
X187362914Y-196442914D02*
X187434342Y-196514342D01*
X187362914Y-196585771D01*
X187291485Y-196514342D01*
X187362914Y-196442914D01*
X187362914Y-196585771D01*
X188077200Y-196585771D02*
X188077200Y-195085771D01*
X188434342Y-195085771D01*
X188648628Y-195157200D01*
X188791485Y-195300057D01*
X188862914Y-195442914D01*
X188934342Y-195728628D01*
X188934342Y-195942914D01*
X188862914Y-196228628D01*
X188791485Y-196371485D01*
X188648628Y-196514342D01*
X188434342Y-196585771D01*
X188077200Y-196585771D01*
X189577200Y-196442914D02*
X189648628Y-196514342D01*
X189577200Y-196585771D01*
X189505771Y-196514342D01*
X189577200Y-196442914D01*
X189577200Y-196585771D01*
X190220057Y-196157200D02*
X190934342Y-196157200D01*
X190077200Y-196585771D02*
X190577200Y-195085771D01*
X191077200Y-196585771D01*
X191577200Y-196442914D02*
X191648628Y-196514342D01*
X191577200Y-196585771D01*
X191505771Y-196514342D01*
X191577200Y-196442914D01*
X191577200Y-196585771D01*
X194577200Y-196585771D02*
X194577200Y-195085771D01*
X194720057Y-196014342D02*
X195148628Y-196585771D01*
X195148628Y-195585771D02*
X194577200Y-196157200D01*
X195791485Y-196585771D02*
X195791485Y-195585771D01*
X195791485Y-195085771D02*
X195720057Y-195157200D01*
X195791485Y-195228628D01*
X195862914Y-195157200D01*
X195791485Y-195085771D01*
X195791485Y-195228628D01*
X197148628Y-196514342D02*
X197005771Y-196585771D01*
X196720057Y-196585771D01*
X196577200Y-196514342D01*
X196505771Y-196442914D01*
X196434342Y-196300057D01*
X196434342Y-195871485D01*
X196505771Y-195728628D01*
X196577200Y-195657200D01*
X196720057Y-195585771D01*
X197005771Y-195585771D01*
X197148628Y-195657200D01*
X198434342Y-196585771D02*
X198434342Y-195800057D01*
X198362914Y-195657200D01*
X198220057Y-195585771D01*
X197934342Y-195585771D01*
X197791485Y-195657200D01*
X198434342Y-196514342D02*
X198291485Y-196585771D01*
X197934342Y-196585771D01*
X197791485Y-196514342D01*
X197720057Y-196371485D01*
X197720057Y-196228628D01*
X197791485Y-196085771D01*
X197934342Y-196014342D01*
X198291485Y-196014342D01*
X198434342Y-195942914D01*
X199791485Y-196585771D02*
X199791485Y-195085771D01*
X199791485Y-196514342D02*
X199648628Y-196585771D01*
X199362914Y-196585771D01*
X199220057Y-196514342D01*
X199148628Y-196442914D01*
X199077200Y-196300057D01*
X199077200Y-195871485D01*
X199148628Y-195728628D01*
X199220057Y-195657200D01*
X199362914Y-195585771D01*
X199648628Y-195585771D01*
X199791485Y-195657200D01*
X202077200Y-197157200D02*
X202005771Y-197085771D01*
X201862914Y-196871485D01*
X201791485Y-196728628D01*
X201720057Y-196514342D01*
X201648628Y-196157200D01*
X201648628Y-195871485D01*
X201720057Y-195514342D01*
X201791485Y-195300057D01*
X201862914Y-195157200D01*
X202005771Y-194942914D01*
X202077200Y-194871485D01*
X203291485Y-195085771D02*
X203005771Y-195085771D01*
X202862914Y-195157200D01*
X202791485Y-195228628D01*
X202648628Y-195442914D01*
X202577200Y-195728628D01*
X202577200Y-196300057D01*
X202648628Y-196442914D01*
X202720057Y-196514342D01*
X202862914Y-196585771D01*
X203148628Y-196585771D01*
X203291485Y-196514342D01*
X203362914Y-196442914D01*
X203434342Y-196300057D01*
X203434342Y-195942914D01*
X203362914Y-195800057D01*
X203291485Y-195728628D01*
X203148628Y-195657200D01*
X202862914Y-195657200D01*
X202720057Y-195728628D01*
X202648628Y-195800057D01*
X202577200Y-195942914D01*
X204077200Y-196442914D02*
X204148628Y-196514342D01*
X204077200Y-196585771D01*
X204005771Y-196514342D01*
X204077200Y-196442914D01*
X204077200Y-196585771D01*
X205077200Y-195085771D02*
X205220057Y-195085771D01*
X205362914Y-195157200D01*
X205434342Y-195228628D01*
X205505771Y-195371485D01*
X205577200Y-195657200D01*
X205577200Y-196014342D01*
X205505771Y-196300057D01*
X205434342Y-196442914D01*
X205362914Y-196514342D01*
X205220057Y-196585771D01*
X205077200Y-196585771D01*
X204934342Y-196514342D01*
X204862914Y-196442914D01*
X204791485Y-196300057D01*
X204720057Y-196014342D01*
X204720057Y-195657200D01*
X204791485Y-195371485D01*
X204862914Y-195228628D01*
X204934342Y-195157200D01*
X205077200Y-195085771D01*
X206220057Y-196442914D02*
X206291485Y-196514342D01*
X206220057Y-196585771D01*
X206148628Y-196514342D01*
X206220057Y-196442914D01*
X206220057Y-196585771D01*
X207577200Y-195585771D02*
X207577200Y-196585771D01*
X207220057Y-195014342D02*
X206862914Y-196085771D01*
X207791485Y-196085771D01*
X208220057Y-197157200D02*
X208291485Y-197085771D01*
X208434342Y-196871485D01*
X208505771Y-196728628D01*
X208577200Y-196514342D01*
X208648628Y-196157200D01*
X208648628Y-195871485D01*
X208577200Y-195514342D01*
X208505771Y-195300057D01*
X208434342Y-195157200D01*
X208291485Y-194942914D01*
X208220057Y-194871485D01*
D10*
D11*
X177002200Y-191507200D02*
X285002200Y-191507200D01*
D10*
D12*
X264411485Y-193785771D02*
X263911485Y-193071485D01*
X263554342Y-193785771D02*
X263554342Y-192285771D01*
X264125771Y-192285771D01*
X264268628Y-192357200D01*
X264340057Y-192428628D01*
X264411485Y-192571485D01*
X264411485Y-192785771D01*
X264340057Y-192928628D01*
X264268628Y-193000057D01*
X264125771Y-193071485D01*
X263554342Y-193071485D01*
X265625771Y-193714342D02*
X265482914Y-193785771D01*
X265197200Y-193785771D01*
X265054342Y-193714342D01*
X264982914Y-193571485D01*
X264982914Y-193000057D01*
X265054342Y-192857200D01*
X265197200Y-192785771D01*
X265482914Y-192785771D01*
X265625771Y-192857200D01*
X265697200Y-193000057D01*
X265697200Y-193142914D01*
X264982914Y-193285771D01*
X266197200Y-192785771D02*
X266554342Y-193785771D01*
X266911485Y-192785771D01*
X267482914Y-193642914D02*
X267554342Y-193714342D01*
X267482914Y-193785771D01*
X267411485Y-193714342D01*
X267482914Y-193642914D01*
X267482914Y-193785771D01*
X267482914Y-192857200D02*
X267554342Y-192928628D01*
X267482914Y-193000057D01*
X267411485Y-192928628D01*
X267482914Y-192857200D01*
X267482914Y-193000057D01*
X269268628Y-192428628D02*
X269340057Y-192357200D01*
X269482914Y-192285771D01*
X269840057Y-192285771D01*
X269982914Y-192357200D01*
X270054342Y-192428628D01*
X270125771Y-192571485D01*
X270125771Y-192714342D01*
X270054342Y-192928628D01*
X269197200Y-193785771D01*
X270125771Y-193785771D01*
X270768628Y-193642914D02*
X270840057Y-193714342D01*
X270768628Y-193785771D01*
X270697200Y-193714342D01*
X270768628Y-193642914D01*
X270768628Y-193785771D01*
X272268628Y-193785771D02*
X271411485Y-193785771D01*
X271840057Y-193785771D02*
X271840057Y-192285771D01*
X271697200Y-192500057D01*
X271554342Y-192642914D01*
X271411485Y-192714342D01*
D10*
D11*
X178362914Y-193714342D02*
X178577200Y-193785771D01*
X178934342Y-193785771D01*
X179077200Y-193714342D01*
X179148628Y-193642914D01*
X179220057Y-193500057D01*
X179220057Y-193357200D01*
X179148628Y-193214342D01*
X179077200Y-193142914D01*
X178934342Y-193071485D01*
X178648628Y-193000057D01*
X178505771Y-192928628D01*
X178434342Y-192857200D01*
X178362914Y-192714342D01*
X178362914Y-192571485D01*
X178434342Y-192428628D01*
X178505771Y-192357200D01*
X178648628Y-192285771D01*
X179005771Y-192285771D01*
X179220057Y-192357200D01*
X179862914Y-193785771D02*
X179862914Y-192785771D01*
X179862914Y-192285771D02*
X179791485Y-192357200D01*
X179862914Y-192428628D01*
X179934342Y-192357200D01*
X179862914Y-192285771D01*
X179862914Y-192428628D01*
X180434342Y-192785771D02*
X181220057Y-192785771D01*
X180434342Y-193785771D01*
X181220057Y-193785771D01*
X182362914Y-193714342D02*
X182220057Y-193785771D01*
X181934342Y-193785771D01*
X181791485Y-193714342D01*
X181720057Y-193571485D01*
X181720057Y-193000057D01*
X181791485Y-192857200D01*
X181934342Y-192785771D01*
X182220057Y-192785771D01*
X182362914Y-192857200D01*
X182434342Y-193000057D01*
X182434342Y-193142914D01*
X181720057Y-193285771D01*
X183077200Y-193642914D02*
X183148628Y-193714342D01*
X183077200Y-193785771D01*
X183005771Y-193714342D01*
X183077200Y-193642914D01*
X183077200Y-193785771D01*
X183077200Y-192857200D02*
X183148628Y-192928628D01*
X183077200Y-193000057D01*
X183005771Y-192928628D01*
X183077200Y-192857200D01*
X183077200Y-193000057D01*
X184862914Y-193357200D02*
X185577200Y-193357200D01*
X184720057Y-193785771D02*
X185220057Y-192285771D01*
X185720057Y-193785771D01*
X186862914Y-192785771D02*
X186862914Y-193785771D01*
X186505771Y-192214342D02*
X186148628Y-193285771D01*
X187077200Y-193285771D01*
D10*
D11*
X263434342Y-196585771D02*
X263434342Y-195085771D01*
X264791485Y-196585771D02*
X264791485Y-195085771D01*
X264791485Y-196514342D02*
X264648628Y-196585771D01*
X264362914Y-196585771D01*
X264220057Y-196514342D01*
X264148628Y-196442914D01*
X264077200Y-196300057D01*
X264077200Y-195871485D01*
X264148628Y-195728628D01*
X264220057Y-195657200D01*
X264362914Y-195585771D01*
X264648628Y-195585771D01*
X264791485Y-195657200D01*
X265505771Y-196442914D02*
X265577200Y-196514342D01*
X265505771Y-196585771D01*
X265434342Y-196514342D01*
X265505771Y-196442914D01*
X265505771Y-196585771D01*
X265505771Y-195657200D02*
X265577200Y-195728628D01*
X265505771Y-195800057D01*
X265434342Y-195728628D01*
X265505771Y-195657200D01*
X265505771Y-195800057D01*
X268148628Y-196585771D02*
X267291485Y-196585771D01*
X267720057Y-196585771D02*
X267720057Y-195085771D01*
X267577200Y-195300057D01*
X267434342Y-195442914D01*
X267291485Y-195514342D01*
X269862914Y-195014342D02*
X268577200Y-196942914D01*
X271148628Y-196585771D02*
X270291485Y-196585771D01*
X270720057Y-196585771D02*
X270720057Y-195085771D01*
X270577200Y-195300057D01*
X270434342Y-195442914D01*
X270291485Y-195514342D01*
D10*
D11*
X177002200Y-187507200D02*
X285002200Y-187507200D01*
D10*
D13*
X178714580Y-188211961D02*
X179857438Y-188211961D01*
X179036009Y-190211961D02*
X179286009Y-188211961D01*
X180274104Y-190211961D02*
X180440771Y-188878628D01*
X180524104Y-188211961D02*
X180416961Y-188307200D01*
X180500295Y-188402438D01*
X180607438Y-188307200D01*
X180524104Y-188211961D01*
X180500295Y-188402438D01*
X181107438Y-188878628D02*
X181869342Y-188878628D01*
X181476485Y-188211961D02*
X181262200Y-189926247D01*
X181333628Y-190116723D01*
X181512200Y-190211961D01*
X181702676Y-190211961D01*
X182655057Y-190211961D02*
X182476485Y-190116723D01*
X182405057Y-189926247D01*
X182619342Y-188211961D01*
X184190771Y-190116723D02*
X183988390Y-190211961D01*
X183607438Y-190211961D01*
X183428866Y-190116723D01*
X183357438Y-189926247D01*
X183452676Y-189164342D01*
X183571723Y-188973866D01*
X183774104Y-188878628D01*
X184155057Y-188878628D01*
X184333628Y-188973866D01*
X184405057Y-189164342D01*
X184381247Y-189354819D01*
X183405057Y-189545295D01*
X185155057Y-190021485D02*
X185238390Y-190116723D01*
X185131247Y-190211961D01*
X185047914Y-190116723D01*
X185155057Y-190021485D01*
X185131247Y-190211961D01*
X185286009Y-188973866D02*
X185369342Y-189069104D01*
X185262200Y-189164342D01*
X185178866Y-189069104D01*
X185286009Y-188973866D01*
X185262200Y-189164342D01*
X187607438Y-190211961D02*
X187857438Y-188211961D01*
X188619342Y-188211961D01*
X188797914Y-188307200D01*
X188881247Y-188402438D01*
X188952676Y-188592914D01*
X188916961Y-188878628D01*
X188797914Y-189069104D01*
X188690771Y-189164342D01*
X188488390Y-189259580D01*
X187726485Y-189259580D01*
X189893152Y-190211961D02*
X189714580Y-190116723D01*
X189643152Y-189926247D01*
X189857438Y-188211961D01*
X190631247Y-188878628D02*
X190940771Y-190211961D01*
X191583628Y-188878628D02*
X190940771Y-190211961D01*
X190690771Y-190688152D01*
X190583628Y-190783390D01*
X190381247Y-190878628D01*
X192059819Y-188878628D02*
X192821723Y-188878628D01*
X192428866Y-188211961D02*
X192214580Y-189926247D01*
X192286009Y-190116723D01*
X192464580Y-190211961D01*
X192655057Y-190211961D01*
X194178866Y-190211961D02*
X194309819Y-189164342D01*
X194238390Y-188973866D01*
X194059819Y-188878628D01*
X193678866Y-188878628D01*
X193476485Y-188973866D01*
X194190771Y-190116723D02*
X193988390Y-190211961D01*
X193512200Y-190211961D01*
X193333628Y-190116723D01*
X193262200Y-189926247D01*
X193286009Y-189735771D01*
X193405057Y-189545295D01*
X193607438Y-189450057D01*
X194083628Y-189450057D01*
X194286009Y-189354819D01*
X196821723Y-188878628D02*
X196571723Y-190878628D01*
X196809819Y-188973866D02*
X197012200Y-188878628D01*
X197393152Y-188878628D01*
X197571723Y-188973866D01*
X197655057Y-189069104D01*
X197726485Y-189259580D01*
X197655057Y-189831009D01*
X197536009Y-190021485D01*
X197428866Y-190116723D01*
X197226485Y-190211961D01*
X196845533Y-190211961D01*
X196666961Y-190116723D01*
X198464580Y-190211961D02*
X198631247Y-188878628D01*
X198583628Y-189259580D02*
X198702676Y-189069104D01*
X198809819Y-188973866D01*
X199012200Y-188878628D01*
X199202676Y-188878628D01*
X199678866Y-188878628D02*
X200726485Y-188878628D01*
X199512200Y-190211961D01*
X200559819Y-190211961D01*
X202095533Y-190116723D02*
X201893152Y-190211961D01*
X201512200Y-190211961D01*
X201333628Y-190116723D01*
X201262200Y-189926247D01*
X201357438Y-189164342D01*
X201476485Y-188973866D01*
X201678866Y-188878628D01*
X202059819Y-188878628D01*
X202238390Y-188973866D01*
X202309819Y-189164342D01*
X202286009Y-189354819D01*
X201309819Y-189545295D01*
X203036009Y-190211961D02*
X203286009Y-188211961D01*
X203321723Y-189450057D02*
X203797914Y-190211961D01*
X203964580Y-188878628D02*
X203107438Y-189640533D01*
X205512200Y-190211961D02*
X205643152Y-189164342D01*
X205571723Y-188973866D01*
X205393152Y-188878628D01*
X205012200Y-188878628D01*
X204809819Y-188973866D01*
X205524104Y-190116723D02*
X205321723Y-190211961D01*
X204845533Y-190211961D01*
X204666961Y-190116723D01*
X204595533Y-189926247D01*
X204619342Y-189735771D01*
X204738390Y-189545295D01*
X204940771Y-189450057D01*
X205416961Y-189450057D01*
X205619342Y-189354819D01*
X206440771Y-188878628D02*
X207488390Y-188878628D01*
X206274104Y-190211961D01*
X207321723Y-190211961D01*
X208250295Y-188878628D02*
X208083628Y-190211961D01*
X208226485Y-189069104D02*
X208333628Y-188973866D01*
X208536009Y-188878628D01*
X208821723Y-188878628D01*
X209000295Y-188973866D01*
X209071723Y-189164342D01*
X208940771Y-190211961D01*
X209893152Y-190211961D02*
X210059819Y-188878628D01*
X210143152Y-188211961D02*
X210036009Y-188307200D01*
X210119342Y-188402438D01*
X210226485Y-188307200D01*
X210143152Y-188211961D01*
X210119342Y-188402438D01*
X210845533Y-190211961D02*
X211095533Y-188211961D01*
X211131247Y-189450057D02*
X211607438Y-190211961D01*
X211774104Y-188878628D02*
X210916961Y-189640533D01*
X212750295Y-190211961D02*
X212571723Y-190116723D01*
X212488390Y-190021485D01*
X212416961Y-189831009D01*
X212488390Y-189259580D01*
X212607438Y-189069104D01*
X212714580Y-188973866D01*
X212916961Y-188878628D01*
X213202676Y-188878628D01*
X213381247Y-188973866D01*
X213464580Y-189069104D01*
X213536009Y-189259580D01*
X213464580Y-189831009D01*
X213345533Y-190021485D01*
X213238390Y-190116723D01*
X213036009Y-190211961D01*
X212750295Y-190211961D01*
X214250295Y-188878628D02*
X214464580Y-190211961D01*
X214964580Y-189259580D01*
X215226485Y-190211961D01*
X215774104Y-188878628D01*
X218059819Y-188878628D02*
X217893152Y-190211961D01*
X218036009Y-189069104D02*
X218143152Y-188973866D01*
X218345533Y-188878628D01*
X218631247Y-188878628D01*
X218809819Y-188973866D01*
X218881247Y-189164342D01*
X218750295Y-190211961D01*
X220559819Y-190211961D02*
X220690771Y-189164342D01*
X220619342Y-188973866D01*
X220440771Y-188878628D01*
X220059819Y-188878628D01*
X219857438Y-188973866D01*
X220571723Y-190116723D02*
X220369342Y-190211961D01*
X219893152Y-190211961D01*
X219714580Y-190116723D01*
X219643152Y-189926247D01*
X219666961Y-189735771D01*
X219786009Y-189545295D01*
X219988390Y-189450057D01*
X220464580Y-189450057D01*
X220666961Y-189354819D01*
X222916961Y-188878628D02*
X223678866Y-188878628D01*
X223286009Y-188211961D02*
X223071723Y-189926247D01*
X223143152Y-190116723D01*
X223321723Y-190211961D01*
X223512200Y-190211961D01*
X224178866Y-190211961D02*
X224345533Y-188878628D01*
X224297914Y-189259580D02*
X224416961Y-189069104D01*
X224524104Y-188973866D01*
X224726485Y-188878628D01*
X224916961Y-188878628D01*
X225416961Y-190211961D02*
X225583628Y-188878628D01*
X225666961Y-188211961D02*
X225559819Y-188307200D01*
X225643152Y-188402438D01*
X225750295Y-188307200D01*
X225666961Y-188211961D01*
X225643152Y-188402438D01*
X227226485Y-190211961D02*
X227357438Y-189164342D01*
X227286009Y-188973866D01*
X227107438Y-188878628D01*
X226726485Y-188878628D01*
X226524104Y-188973866D01*
X227238390Y-190116723D02*
X227036009Y-190211961D01*
X226559819Y-190211961D01*
X226381247Y-190116723D01*
X226309819Y-189926247D01*
X226333628Y-189735771D01*
X226452676Y-189545295D01*
X226655057Y-189450057D01*
X227131247Y-189450057D01*
X227333628Y-189354819D01*
X228178866Y-190211961D02*
X228428866Y-188211961D01*
X228464580Y-189450057D02*
X228940771Y-190211961D01*
X229107438Y-188878628D02*
X228250295Y-189640533D01*
X230655057Y-190211961D02*
X230786009Y-189164342D01*
X230714580Y-188973866D01*
X230536009Y-188878628D01*
X230155057Y-188878628D01*
X229952676Y-188973866D01*
X230666961Y-190116723D02*
X230464580Y-190211961D01*
X229988390Y-190211961D01*
X229809819Y-190116723D01*
X229738390Y-189926247D01*
X229762200Y-189735771D01*
X229881247Y-189545295D01*
X230083628Y-189450057D01*
X230559819Y-189450057D01*
X230762200Y-189354819D01*
X232476485Y-190116723D02*
X232274104Y-190211961D01*
X231893152Y-190211961D01*
X231714580Y-190116723D01*
X231631247Y-190021485D01*
X231559819Y-189831009D01*
X231631247Y-189259580D01*
X231750295Y-189069104D01*
X231857438Y-188973866D01*
X232059819Y-188878628D01*
X232440771Y-188878628D01*
X232619342Y-188973866D01*
X233321723Y-190211961D02*
X233571723Y-188211961D01*
X234178866Y-190211961D02*
X234309819Y-189164342D01*
X234238390Y-188973866D01*
X234059819Y-188878628D01*
X233774104Y-188878628D01*
X233571723Y-188973866D01*
X233464580Y-189069104D01*
D10*
D11*
X178934342Y-185600057D02*
X178434342Y-185600057D01*
X178434342Y-186385771D02*
X178434342Y-184885771D01*
X179148628Y-184885771D01*
X179720057Y-186385771D02*
X179720057Y-185385771D01*
X179720057Y-184885771D02*
X179648628Y-184957200D01*
X179720057Y-185028628D01*
X179791485Y-184957200D01*
X179720057Y-184885771D01*
X179720057Y-185028628D01*
X180648628Y-186385771D02*
X180505771Y-186314342D01*
X180434342Y-186171485D01*
X180434342Y-184885771D01*
X181791485Y-186314342D02*
X181648628Y-186385771D01*
X181362914Y-186385771D01*
X181220057Y-186314342D01*
X181148628Y-186171485D01*
X181148628Y-185600057D01*
X181220057Y-185457200D01*
X181362914Y-185385771D01*
X181648628Y-185385771D01*
X181791485Y-185457200D01*
X181862914Y-185600057D01*
X181862914Y-185742914D01*
X181148628Y-185885771D01*
X182505771Y-186242914D02*
X182577200Y-186314342D01*
X182505771Y-186385771D01*
X182434342Y-186314342D01*
X182505771Y-186242914D01*
X182505771Y-186385771D01*
X182505771Y-185457200D02*
X182577200Y-185528628D01*
X182505771Y-185600057D01*
X182434342Y-185528628D01*
X182505771Y-185457200D01*
X182505771Y-185600057D01*
X185220057Y-186242914D02*
X185148628Y-186314342D01*
X184934342Y-186385771D01*
X184791485Y-186385771D01*
X184577200Y-186314342D01*
X184434342Y-186171485D01*
X184362914Y-186028628D01*
X184291485Y-185742914D01*
X184291485Y-185528628D01*
X184362914Y-185242914D01*
X184434342Y-185100057D01*
X184577200Y-184957200D01*
X184791485Y-184885771D01*
X184934342Y-184885771D01*
X185148628Y-184957200D01*
X185220057Y-185028628D01*
X186434342Y-186314342D02*
X186291485Y-186385771D01*
X186005771Y-186385771D01*
X185862914Y-186314342D01*
X185791485Y-186171485D01*
X185791485Y-185600057D01*
X185862914Y-185457200D01*
X186005771Y-185385771D01*
X186291485Y-185385771D01*
X186434342Y-185457200D01*
X186505771Y-185600057D01*
X186505771Y-185742914D01*
X185791485Y-185885771D01*
X187148628Y-185385771D02*
X187148628Y-186385771D01*
X187148628Y-185528628D02*
X187220057Y-185457200D01*
X187362914Y-185385771D01*
X187577200Y-185385771D01*
X187720057Y-185457200D01*
X187791485Y-185600057D01*
X187791485Y-186385771D01*
X188291485Y-185385771D02*
X188862914Y-185385771D01*
X188505771Y-184885771D02*
X188505771Y-186171485D01*
X188577200Y-186314342D01*
X188720057Y-186385771D01*
X188862914Y-186385771D01*
X189362914Y-186385771D02*
X189362914Y-185385771D01*
X189362914Y-185671485D02*
X189434342Y-185528628D01*
X189505771Y-185457200D01*
X189648628Y-185385771D01*
X189791485Y-185385771D01*
X190934342Y-186385771D02*
X190934342Y-185600057D01*
X190862914Y-185457200D01*
X190720057Y-185385771D01*
X190434342Y-185385771D01*
X190291485Y-185457200D01*
X190934342Y-186314342D02*
X190791485Y-186385771D01*
X190434342Y-186385771D01*
X190291485Y-186314342D01*
X190220057Y-186171485D01*
X190220057Y-186028628D01*
X190291485Y-185885771D01*
X190434342Y-185814342D01*
X190791485Y-185814342D01*
X190934342Y-185742914D01*
X191862914Y-186385771D02*
X191720057Y-186314342D01*
X191648628Y-186171485D01*
X191648628Y-184885771D01*
X193577200Y-186385771D02*
X193577200Y-184885771D01*
X193577200Y-185600057D02*
X194434342Y-185600057D01*
X194434342Y-186385771D02*
X194434342Y-184885771D01*
X195720057Y-186314342D02*
X195577200Y-186385771D01*
X195291485Y-186385771D01*
X195148628Y-186314342D01*
X195077200Y-186171485D01*
X195077200Y-185600057D01*
X195148628Y-185457200D01*
X195291485Y-185385771D01*
X195577200Y-185385771D01*
X195720057Y-185457200D01*
X195791485Y-185600057D01*
X195791485Y-185742914D01*
X195077200Y-185885771D01*
X197077200Y-186385771D02*
X197077200Y-185600057D01*
X197005771Y-185457200D01*
X196862914Y-185385771D01*
X196577200Y-185385771D01*
X196434342Y-185457200D01*
X197077200Y-186314342D02*
X196934342Y-186385771D01*
X196577200Y-186385771D01*
X196434342Y-186314342D01*
X196362914Y-186171485D01*
X196362914Y-186028628D01*
X196434342Y-185885771D01*
X196577200Y-185814342D01*
X196934342Y-185814342D01*
X197077200Y-185742914D01*
X197577200Y-185385771D02*
X198148628Y-185385771D01*
X197791485Y-184885771D02*
X197791485Y-186171485D01*
X197862914Y-186314342D01*
X198005771Y-186385771D01*
X198148628Y-186385771D01*
X198648628Y-186385771D02*
X198648628Y-185385771D01*
X198648628Y-184885771D02*
X198577200Y-184957200D01*
X198648628Y-185028628D01*
X198720057Y-184957200D01*
X198648628Y-184885771D01*
X198648628Y-185028628D01*
X199362914Y-185385771D02*
X199362914Y-186385771D01*
X199362914Y-185528628D02*
X199434342Y-185457200D01*
X199577200Y-185385771D01*
X199791485Y-185385771D01*
X199934342Y-185457200D01*
X200005771Y-185600057D01*
X200005771Y-186385771D01*
X201362914Y-185385771D02*
X201362914Y-186600057D01*
X201291485Y-186742914D01*
X201220057Y-186814342D01*
X201077200Y-186885771D01*
X200862914Y-186885771D01*
X200720057Y-186814342D01*
X201362914Y-186314342D02*
X201220057Y-186385771D01*
X200934342Y-186385771D01*
X200791485Y-186314342D01*
X200720057Y-186242914D01*
X200648628Y-186100057D01*
X200648628Y-185671485D01*
X200720057Y-185528628D01*
X200791485Y-185457200D01*
X200934342Y-185385771D01*
X201220057Y-185385771D01*
X201362914Y-185457200D01*
X204077200Y-186242914D02*
X204005771Y-186314342D01*
X203791485Y-186385771D01*
X203648628Y-186385771D01*
X203434342Y-186314342D01*
X203291485Y-186171485D01*
X203220057Y-186028628D01*
X203148628Y-185742914D01*
X203148628Y-185528628D01*
X203220057Y-185242914D01*
X203291485Y-185100057D01*
X203434342Y-184957200D01*
X203648628Y-184885771D01*
X203791485Y-184885771D01*
X204005771Y-184957200D01*
X204077200Y-185028628D01*
X204934342Y-186385771D02*
X204791485Y-186314342D01*
X204720057Y-186242914D01*
X204648628Y-186100057D01*
X204648628Y-185671485D01*
X204720057Y-185528628D01*
X204791485Y-185457200D01*
X204934342Y-185385771D01*
X205148628Y-185385771D01*
X205291485Y-185457200D01*
X205362914Y-185528628D01*
X205434342Y-185671485D01*
X205434342Y-186100057D01*
X205362914Y-186242914D01*
X205291485Y-186314342D01*
X205148628Y-186385771D01*
X204934342Y-186385771D01*
X206077200Y-185385771D02*
X206077200Y-186385771D01*
X206077200Y-185528628D02*
X206148628Y-185457200D01*
X206291485Y-185385771D01*
X206505771Y-185385771D01*
X206648628Y-185457200D01*
X206720057Y-185600057D01*
X206720057Y-186385771D01*
X207220057Y-185385771D02*
X207791485Y-185385771D01*
X207434342Y-184885771D02*
X207434342Y-186171485D01*
X207505771Y-186314342D01*
X207648628Y-186385771D01*
X207791485Y-186385771D01*
X208291485Y-186385771D02*
X208291485Y-185385771D01*
X208291485Y-185671485D02*
X208362914Y-185528628D01*
X208434342Y-185457200D01*
X208577200Y-185385771D01*
X208720057Y-185385771D01*
X209434342Y-186385771D02*
X209291485Y-186314342D01*
X209220057Y-186242914D01*
X209148628Y-186100057D01*
X209148628Y-185671485D01*
X209220057Y-185528628D01*
X209291485Y-185457200D01*
X209434342Y-185385771D01*
X209648628Y-185385771D01*
X209791485Y-185457200D01*
X209862914Y-185528628D01*
X209934342Y-185671485D01*
X209934342Y-186100057D01*
X209862914Y-186242914D01*
X209791485Y-186314342D01*
X209648628Y-186385771D01*
X209434342Y-186385771D01*
X210791485Y-186385771D02*
X210648628Y-186314342D01*
X210577200Y-186171485D01*
X210577200Y-184885771D01*
X212505771Y-186385771D02*
X212505771Y-184885771D01*
X213077200Y-184885771D01*
X213220057Y-184957200D01*
X213291485Y-185028628D01*
X213362914Y-185171485D01*
X213362914Y-185385771D01*
X213291485Y-185528628D01*
X213220057Y-185600057D01*
X213077200Y-185671485D01*
X212505771Y-185671485D01*
X214505771Y-185600057D02*
X214720057Y-185671485D01*
X214791485Y-185742914D01*
X214862914Y-185885771D01*
X214862914Y-186100057D01*
X214791485Y-186242914D01*
X214720057Y-186314342D01*
X214577200Y-186385771D01*
X214005771Y-186385771D01*
X214005771Y-184885771D01*
X214505771Y-184885771D01*
X214648628Y-184957200D01*
X214720057Y-185028628D01*
X214791485Y-185171485D01*
X214791485Y-185314342D01*
X214720057Y-185457200D01*
X214648628Y-185528628D01*
X214505771Y-185600057D01*
X214005771Y-185600057D01*
X215434342Y-185957200D02*
X216148628Y-185957200D01*
X215291485Y-186385771D02*
X215791485Y-184885771D01*
X216291485Y-186385771D01*
X216791485Y-186242914D02*
X216862914Y-186314342D01*
X216791485Y-186385771D01*
X216720057Y-186314342D01*
X216791485Y-186242914D01*
X216791485Y-186385771D01*
X217505771Y-186385771D02*
X217505771Y-184885771D01*
X217648628Y-185814342D02*
X218077200Y-186385771D01*
X218077200Y-185385771D02*
X217505771Y-185957200D01*
X218720057Y-186385771D02*
X218720057Y-185385771D01*
X218720057Y-184885771D02*
X218648628Y-184957200D01*
X218720057Y-185028628D01*
X218791485Y-184957200D01*
X218720057Y-184885771D01*
X218720057Y-185028628D01*
X220077200Y-186314342D02*
X219934342Y-186385771D01*
X219648628Y-186385771D01*
X219505771Y-186314342D01*
X219434342Y-186242914D01*
X219362914Y-186100057D01*
X219362914Y-185671485D01*
X219434342Y-185528628D01*
X219505771Y-185457200D01*
X219648628Y-185385771D01*
X219934342Y-185385771D01*
X220077200Y-185457200D01*
X221362914Y-186385771D02*
X221362914Y-185600057D01*
X221291485Y-185457200D01*
X221148628Y-185385771D01*
X220862914Y-185385771D01*
X220720057Y-185457200D01*
X221362914Y-186314342D02*
X221220057Y-186385771D01*
X220862914Y-186385771D01*
X220720057Y-186314342D01*
X220648628Y-186171485D01*
X220648628Y-186028628D01*
X220720057Y-185885771D01*
X220862914Y-185814342D01*
X221220057Y-185814342D01*
X221362914Y-185742914D01*
X222720057Y-186385771D02*
X222720057Y-184885771D01*
X222720057Y-186314342D02*
X222577200Y-186385771D01*
X222291485Y-186385771D01*
X222148628Y-186314342D01*
X222077200Y-186242914D01*
X222005771Y-186100057D01*
X222005771Y-185671485D01*
X222077200Y-185528628D01*
X222148628Y-185457200D01*
X222291485Y-185385771D01*
X222577200Y-185385771D01*
X222720057Y-185457200D01*
X223077200Y-186528628D02*
X224220057Y-186528628D01*
X224577200Y-185385771D02*
X224577200Y-186885771D01*
X224577200Y-185457200D02*
X224720057Y-185385771D01*
X225005771Y-185385771D01*
X225148628Y-185457200D01*
X225220057Y-185528628D01*
X225291485Y-185671485D01*
X225291485Y-186100057D01*
X225220057Y-186242914D01*
X225148628Y-186314342D01*
X225005771Y-186385771D01*
X224720057Y-186385771D01*
X224577200Y-186314342D01*
X226577200Y-186314342D02*
X226434342Y-186385771D01*
X226148628Y-186385771D01*
X226005771Y-186314342D01*
X225934342Y-186242914D01*
X225862914Y-186100057D01*
X225862914Y-185671485D01*
X225934342Y-185528628D01*
X226005771Y-185457200D01*
X226148628Y-185385771D01*
X226434342Y-185385771D01*
X226577200Y-185457200D01*
X227220057Y-186385771D02*
X227220057Y-184885771D01*
X227220057Y-185457200D02*
X227362914Y-185385771D01*
X227648628Y-185385771D01*
X227791485Y-185457200D01*
X227862914Y-185528628D01*
X227934342Y-185671485D01*
X227934342Y-186100057D01*
X227862914Y-186242914D01*
X227791485Y-186314342D01*
X227648628Y-186385771D01*
X227362914Y-186385771D01*
X227220057Y-186314342D01*
D10*
D11*
X177002200Y-181507200D02*
X285002200Y-181507200D01*
D10*
D11*
X178362914Y-183614342D02*
X178577200Y-183685771D01*
X178934342Y-183685771D01*
X179077200Y-183614342D01*
X179148628Y-183542914D01*
X179220057Y-183400057D01*
X179220057Y-183257200D01*
X179148628Y-183114342D01*
X179077200Y-183042914D01*
X178934342Y-182971485D01*
X178648628Y-182900057D01*
X178505771Y-182828628D01*
X178434342Y-182757200D01*
X178362914Y-182614342D01*
X178362914Y-182471485D01*
X178434342Y-182328628D01*
X178505771Y-182257200D01*
X178648628Y-182185771D01*
X179005771Y-182185771D01*
X179220057Y-182257200D01*
X179862914Y-183685771D02*
X179862914Y-182185771D01*
X180505771Y-183685771D02*
X180505771Y-182900057D01*
X180434342Y-182757200D01*
X180291485Y-182685771D01*
X180077200Y-182685771D01*
X179934342Y-182757200D01*
X179862914Y-182828628D01*
X181791485Y-183614342D02*
X181648628Y-183685771D01*
X181362914Y-183685771D01*
X181220057Y-183614342D01*
X181148628Y-183471485D01*
X181148628Y-182900057D01*
X181220057Y-182757200D01*
X181362914Y-182685771D01*
X181648628Y-182685771D01*
X181791485Y-182757200D01*
X181862914Y-182900057D01*
X181862914Y-183042914D01*
X181148628Y-183185771D01*
X183077200Y-183614342D02*
X182934342Y-183685771D01*
X182648628Y-183685771D01*
X182505771Y-183614342D01*
X182434342Y-183471485D01*
X182434342Y-182900057D01*
X182505771Y-182757200D01*
X182648628Y-182685771D01*
X182934342Y-182685771D01*
X183077200Y-182757200D01*
X183148628Y-182900057D01*
X183148628Y-183042914D01*
X182434342Y-183185771D01*
X183577200Y-182685771D02*
X184148628Y-182685771D01*
X183791485Y-182185771D02*
X183791485Y-183471485D01*
X183862914Y-183614342D01*
X184005771Y-183685771D01*
X184148628Y-183685771D01*
X184648628Y-183542914D02*
X184720057Y-183614342D01*
X184648628Y-183685771D01*
X184577200Y-183614342D01*
X184648628Y-183542914D01*
X184648628Y-183685771D01*
X184648628Y-182757200D02*
X184720057Y-182828628D01*
X184648628Y-182900057D01*
X184577200Y-182828628D01*
X184648628Y-182757200D01*
X184648628Y-182900057D01*
D10*
D12*
X178554342Y-180685771D02*
X178554342Y-179185771D01*
X179054342Y-180257200D01*
X179554342Y-179185771D01*
X179554342Y-180685771D01*
X180197200Y-180257200D02*
X180911485Y-180257200D01*
X180054342Y-180685771D02*
X180554342Y-179185771D01*
X181054342Y-180685771D01*
X182411485Y-180685771D02*
X181911485Y-179971485D01*
X181554342Y-180685771D02*
X181554342Y-179185771D01*
X182125771Y-179185771D01*
X182268628Y-179257200D01*
X182340057Y-179328628D01*
X182411485Y-179471485D01*
X182411485Y-179685771D01*
X182340057Y-179828628D01*
X182268628Y-179900057D01*
X182125771Y-179971485D01*
X181554342Y-179971485D01*
X183054342Y-180685771D02*
X183054342Y-179185771D01*
X183554342Y-180257200D01*
X184054342Y-179185771D01*
X184054342Y-180685771D01*
X184768628Y-180542914D02*
X184840057Y-180614342D01*
X184768628Y-180685771D01*
X184697200Y-180614342D01*
X184768628Y-180542914D01*
X184768628Y-180685771D01*
X185482914Y-179685771D02*
X185482914Y-181185771D01*
X185482914Y-179757200D02*
X185625771Y-179685771D01*
X185911485Y-179685771D01*
X186054342Y-179757200D01*
X186125771Y-179828628D01*
X186197200Y-179971485D01*
X186197200Y-180400057D01*
X186125771Y-180542914D01*
X186054342Y-180614342D01*
X185911485Y-180685771D01*
X185625771Y-180685771D01*
X185482914Y-180614342D01*
X187054342Y-180685771D02*
X186911485Y-180614342D01*
X186840057Y-180471485D01*
X186840057Y-179185771D01*
X188697200Y-180614342D02*
X188911485Y-180685771D01*
X189268628Y-180685771D01*
X189411485Y-180614342D01*
X189482914Y-180542914D01*
X189554342Y-180400057D01*
X189554342Y-180257200D01*
X189482914Y-180114342D01*
X189411485Y-180042914D01*
X189268628Y-179971485D01*
X188982914Y-179900057D01*
X188840057Y-179828628D01*
X188768628Y-179757200D01*
X188697200Y-179614342D01*
X188697200Y-179471485D01*
X188768628Y-179328628D01*
X188840057Y-179257200D01*
X188982914Y-179185771D01*
X189340057Y-179185771D01*
X189554342Y-179257200D01*
X190197200Y-179685771D02*
X190197200Y-181185771D01*
X190197200Y-179757200D02*
X190340057Y-179685771D01*
X190625771Y-179685771D01*
X190768628Y-179757200D01*
X190840057Y-179828628D01*
X190911485Y-179971485D01*
X190911485Y-180400057D01*
X190840057Y-180542914D01*
X190768628Y-180614342D01*
X190625771Y-180685771D01*
X190340057Y-180685771D01*
X190197200Y-180614342D01*
X191554342Y-180542914D02*
X191625771Y-180614342D01*
X191554342Y-180685771D01*
X191482914Y-180614342D01*
X191554342Y-180542914D01*
X191554342Y-180685771D01*
X193268628Y-179685771D02*
X194054342Y-179685771D01*
X193268628Y-180685771D01*
X194054342Y-180685771D01*
X195982914Y-180685771D02*
X195840057Y-180614342D01*
X195768628Y-180542914D01*
X195697200Y-180400057D01*
X195697200Y-179971485D01*
X195768628Y-179828628D01*
X195840057Y-179757200D01*
X195982914Y-179685771D01*
X196197200Y-179685771D01*
X196340057Y-179757200D01*
X196411485Y-179828628D01*
X196482914Y-179971485D01*
X196482914Y-180400057D01*
X196411485Y-180542914D01*
X196340057Y-180614342D01*
X196197200Y-180685771D01*
X195982914Y-180685771D01*
X197125771Y-180542914D02*
X197197200Y-180614342D01*
X197125771Y-180685771D01*
X197054342Y-180614342D01*
X197125771Y-180542914D01*
X197125771Y-180685771D01*
X198054342Y-180685771D02*
X197911485Y-180614342D01*
X197840057Y-180542914D01*
X197768628Y-180400057D01*
X197768628Y-179971485D01*
X197840057Y-179828628D01*
X197911485Y-179757200D01*
X198054342Y-179685771D01*
X198268628Y-179685771D01*
X198411485Y-179757200D01*
X198482914Y-179828628D01*
X198554342Y-179971485D01*
X198554342Y-180400057D01*
X198482914Y-180542914D01*
X198411485Y-180614342D01*
X198268628Y-180685771D01*
X198054342Y-180685771D01*
X199197200Y-180542914D02*
X199268628Y-180614342D01*
X199197200Y-180685771D01*
X199125771Y-180614342D01*
X199197200Y-180542914D01*
X199197200Y-180685771D01*
D10*
D11*
X179291485Y-177685771D02*
X178791485Y-176971485D01*
X178434342Y-177685771D02*
X178434342Y-176185771D01*
X179005771Y-176185771D01*
X179148628Y-176257200D01*
X179220057Y-176328628D01*
X179291485Y-176471485D01*
X179291485Y-176685771D01*
X179220057Y-176828628D01*
X179148628Y-176900057D01*
X179005771Y-176971485D01*
X178434342Y-176971485D01*
X180720057Y-176257200D02*
X180577200Y-176185771D01*
X180362914Y-176185771D01*
X180148628Y-176257200D01*
X180005771Y-176400057D01*
X179934342Y-176542914D01*
X179862914Y-176828628D01*
X179862914Y-177042914D01*
X179934342Y-177328628D01*
X180005771Y-177471485D01*
X180148628Y-177614342D01*
X180362914Y-177685771D01*
X180505771Y-177685771D01*
X180720057Y-177614342D01*
X180791485Y-177542914D01*
X180791485Y-177042914D01*
X180505771Y-177042914D01*
X181291485Y-176185771D02*
X181648628Y-177685771D01*
X181934342Y-176614342D01*
X182220057Y-177685771D01*
X182577200Y-176185771D01*
D10*
D11*
D10*
D11*
D10*
D11*
D10*
D11*
X197002200Y-191507200D02*
X197002200Y-194507200D01*
D10*
D11*
X261002200Y-191507200D02*
X261002200Y-198007200D01*
D14*
X33490866Y-122269803D02*
X33491300Y-36755890D01*
X206845866Y-36803803D02*
X206845866Y-122269803D01*
X33491300Y-36755890D02*
X206845866Y-36803803D01*
X51988866Y-99409803D02*
G75*
G03*
X51988866Y-99409803I-1480000J0D01*
G01*
X183560866Y-115284803D02*
G75*
G03*
X183560866Y-115284803I-1480000J0D01*
G01*
X51988866Y-49866043D02*
G75*
G03*
X51988866Y-49866043I-1480000J0D01*
G01*
X206845866Y-122269803D02*
X33490866Y-122269803D01*
X111805866Y-110204803D02*
G75*
G03*
X111805866Y-110204803I-1480000J0D01*
G01*
X204515866Y-43246043D02*
G75*
G03*
X204515866Y-43246043I-1480000J0D01*
G01*
D15*
D16*
X38767619Y-114391904D02*
X38767619Y-113710952D01*
X39186666Y-114077619D01*
X39186666Y-113920476D01*
X39239047Y-113815714D01*
X39291428Y-113763333D01*
X39396190Y-113710952D01*
X39658095Y-113710952D01*
X39762857Y-113763333D01*
X39815238Y-113815714D01*
X39867619Y-113920476D01*
X39867619Y-114234761D01*
X39815238Y-114339523D01*
X39762857Y-114391904D01*
X38767619Y-113396666D02*
X39867619Y-113030000D01*
X38767619Y-112663333D01*
X38767619Y-112401428D02*
X38767619Y-111720476D01*
X39186666Y-112087142D01*
X39186666Y-111930000D01*
X39239047Y-111825238D01*
X39291428Y-111772857D01*
X39396190Y-111720476D01*
X39658095Y-111720476D01*
X39762857Y-111772857D01*
X39815238Y-111825238D01*
X39867619Y-111930000D01*
X39867619Y-112244285D01*
X39815238Y-112349047D01*
X39762857Y-112401428D01*
D15*
D16*
X38820000Y-105613095D02*
X38767619Y-105717857D01*
X38767619Y-105875000D01*
X38820000Y-106032142D01*
X38924761Y-106136904D01*
X39029523Y-106189285D01*
X39239047Y-106241666D01*
X39396190Y-106241666D01*
X39605714Y-106189285D01*
X39710476Y-106136904D01*
X39815238Y-106032142D01*
X39867619Y-105875000D01*
X39867619Y-105770238D01*
X39815238Y-105613095D01*
X39762857Y-105560714D01*
X39396190Y-105560714D01*
X39396190Y-105770238D01*
X39867619Y-105089285D02*
X38767619Y-105089285D01*
X39867619Y-104460714D01*
X38767619Y-104460714D01*
X39867619Y-103936904D02*
X38767619Y-103936904D01*
X38767619Y-103675000D01*
X38820000Y-103517857D01*
X38924761Y-103413095D01*
X39029523Y-103360714D01*
X39239047Y-103308333D01*
X39396190Y-103308333D01*
X39605714Y-103360714D01*
X39710476Y-103413095D01*
X39815238Y-103517857D01*
X39867619Y-103675000D01*
X39867619Y-103936904D01*
D15*
D16*
X39867619Y-110084285D02*
X38767619Y-110084285D01*
X38767619Y-109822380D01*
X38820000Y-109665238D01*
X38924761Y-109560476D01*
X39029523Y-109508095D01*
X39239047Y-109455714D01*
X39396190Y-109455714D01*
X39605714Y-109508095D01*
X39710476Y-109560476D01*
X39815238Y-109665238D01*
X39867619Y-109822380D01*
X39867619Y-110084285D01*
X39972380Y-108250952D02*
X39920000Y-108355714D01*
X39815238Y-108460476D01*
X39658095Y-108617619D01*
X39605714Y-108722380D01*
X39605714Y-108827142D01*
X39867619Y-108774761D02*
X39815238Y-108879523D01*
X39710476Y-108984285D01*
X39500952Y-109036666D01*
X39134285Y-109036666D01*
X38924761Y-108984285D01*
X38820000Y-108879523D01*
X38767619Y-108774761D01*
X38767619Y-108565238D01*
X38820000Y-108460476D01*
X38924761Y-108355714D01*
X39134285Y-108303333D01*
X39500952Y-108303333D01*
X39710476Y-108355714D01*
X39815238Y-108460476D01*
X39867619Y-108565238D01*
X39867619Y-108774761D01*
D14*
X183747532Y-115284803D02*
G75*
G03*
X183747532Y-115284803I-1666666J0D01*
G01*
X179580866Y-115284803D02*
X184580866Y-115284803D01*
X182080866Y-112784803D02*
X182080866Y-117784803D01*
X52175532Y-99409803D02*
G75*
G03*
X52175532Y-99409803I-1666666J0D01*
G01*
X48008866Y-99409803D02*
X53008866Y-99409803D01*
X50508866Y-96909803D02*
X50508866Y-101909803D01*
X204702532Y-43246043D02*
G75*
G03*
X204702532Y-43246043I-1666666J0D01*
G01*
X200535866Y-43246043D02*
X205535866Y-43246043D01*
X203035866Y-40746043D02*
X203035866Y-45746043D01*
X52175532Y-49866043D02*
G75*
G03*
X52175532Y-49866043I-1666666J0D01*
G01*
X48008866Y-49866043D02*
X53008866Y-49866043D01*
X50508866Y-47366043D02*
X50508866Y-52366043D01*
X111992532Y-110204803D02*
G75*
G03*
X111992532Y-110204803I-1666666J0D01*
G01*
X107825866Y-110204803D02*
X112825866Y-110204803D01*
X110325866Y-107704803D02*
X110325866Y-112704803D01*
X205501666Y-119380000D02*
G75*
G03*
X205501666Y-119380000I-1666666J0D01*
G01*
X201335000Y-119380000D02*
X206335000Y-119380000D01*
X203835000Y-116880000D02*
X203835000Y-121880000D01*
X142345532Y-49866043D02*
G75*
G03*
X142345532Y-49866043I-1666666J0D01*
G01*
X138178866Y-49866043D02*
X143178866Y-49866043D01*
X140678866Y-47366043D02*
X140678866Y-52366043D01*
D17*
%TO.P,REF\u002A\u002A,1*%
%TO.N,N/C*%
X140682623Y-49865097D03*
%TD*%
D18*
%TO.P,D3,1,K*%
%TO.N,Net-(D3-Pad1)*%
X70475000Y-80900000D03*
D19*
%TO.P,D3,2,A*%
%TO.N,Net-(D3-Pad2)*%
X67935000Y-80900000D03*
%TD*%
D20*
%TO.P,R5,1*%
%TO.N,+5V*%
X84800002Y-83300000D03*
%TO.P,R5,2*%
%TO.N,Net-(D4-Pad2)*%
X82800002Y-83300000D03*
%TD*%
D21*
%TO.P,J13,1,Pin_1*%
%TO.N,NEUT*%
X195728894Y-41665346D03*
D22*
%TO.P,J13,2,Pin_2*%
%TO.N,Net-(C11-Pad2)*%
X188228894Y-41665346D03*
%TD*%
D23*
%TO.P,U8,1*%
%TO.N,Net-(D7-Pad1)*%
X132705000Y-88239803D03*
D24*
%TO.P,U8,2*%
%TO.N,Net-(Q19-Pad3)*%
X135245000Y-88239803D03*
%TO.P,U8,3,NC*%
%TO.N,unconnected-(U8-Pad3)*%
X137785000Y-88239803D03*
%TO.P,U8,4*%
%TO.N,Net-(Q7-Pad3)*%
X137785000Y-80619803D03*
%TO.P,U8,5,NC*%
%TO.N,unconnected-(U8-Pad5)*%
X135245000Y-80619803D03*
%TO.P,U8,6*%
%TO.N,Net-(R18-Pad1)*%
X132705000Y-80619803D03*
%TD*%
D25*
%TO.P,R50,1*%
%TO.N,Net-(J2-Pad8)*%
X123144489Y-91062069D03*
%TO.P,R50,2*%
%TO.N,Net-(Q19-Pad1)*%
X125144489Y-91062069D03*
%TD*%
D26*
%TO.P,R40,1*%
%TO.N,Net-(Q9-Pad3)*%
X167550000Y-52325000D03*
D27*
%TO.P,R40,2*%
%TO.N,Net-(C9-Pad2)*%
X165010000Y-52325000D03*
%TD*%
D26*
%TO.P,R27,1*%
%TO.N,LINE*%
X121600000Y-61555000D03*
D27*
%TO.P,R27,2*%
%TO.N,Net-(C6-Pad1)*%
X121600000Y-64095000D03*
%TD*%
D18*
%TO.P,D2,1,K*%
%TO.N,Net-(D2-Pad1)*%
X55900000Y-80900000D03*
D19*
%TO.P,D2,2,A*%
%TO.N,Net-(D2-Pad2)*%
X53360000Y-80900000D03*
%TD*%
D28*
%TO.P,Q9,1,A1*%
%TO.N,Net-(C9-Pad2)*%
X160998866Y-57529606D03*
D29*
%TO.P,Q9,2,A2*%
%TO.N,LINE*%
X163538866Y-57529606D03*
%TO.P,Q9,3,G*%
%TO.N,Net-(Q9-Pad3)*%
X166078866Y-57529606D03*
%TD*%
D30*
%TO.P,C3,1*%
%TO.N,Net-(C3-Pad1)*%
X56500000Y-76400000D03*
%TO.P,C3,2*%
%TO.N,Net-(C3-Pad2)*%
X56500000Y-61400000D03*
%TD*%
D26*
%TO.P,R55,1*%
%TO.N,LINE*%
X196500000Y-61555000D03*
D27*
%TO.P,R55,2*%
%TO.N,Net-(C11-Pad1)*%
X196500000Y-64095000D03*
%TD*%
D31*
%TO.P,JP1,1,A*%
%TO.N,Net-(C2-Pad2)*%
X36600000Y-52300000D03*
D32*
%TO.P,JP1,2,B*%
%TO.N,LINE*%
X39140000Y-52300000D03*
%TD*%
D33*
%TO.P,RV6,1*%
%TO.N,NEUT*%
X121700000Y-49200000D03*
%TO.P,RV6,2*%
%TO.N,Net-(C6-Pad2)*%
X116700000Y-48000000D03*
%TD*%
D20*
%TO.P,R2,1*%
%TO.N,+5V*%
X38700002Y-83300000D03*
%TO.P,R2,2*%
%TO.N,Net-(D1-Pad2)*%
X36700002Y-83300000D03*
%TD*%
D23*
%TO.P,U2,1*%
%TO.N,Net-(D1-Pad1)*%
X41608866Y-88239803D03*
D24*
%TO.P,U2,2*%
%TO.N,Net-(Q16-Pad3)*%
X44148866Y-88239803D03*
%TO.P,U2,3,NC*%
%TO.N,unconnected-(U2-Pad3)*%
X46688866Y-88239803D03*
%TO.P,U2,4*%
%TO.N,Net-(Q1-Pad3)*%
X46688866Y-80619803D03*
%TO.P,U2,5,NC*%
%TO.N,unconnected-(U2-Pad5)*%
X44148866Y-80619803D03*
%TO.P,U2,6*%
%TO.N,Net-(R13-Pad1)*%
X41608866Y-80619803D03*
%TD*%
D28*
%TO.P,Q7,1,A1*%
%TO.N,Net-(C7-Pad2)*%
X129883866Y-57529606D03*
D29*
%TO.P,Q7,2,A2*%
%TO.N,LINE*%
X132423866Y-57529606D03*
%TO.P,Q7,3,G*%
%TO.N,Net-(Q7-Pad3)*%
X134963866Y-57529606D03*
%TD*%
D26*
%TO.P,R30,1*%
%TO.N,LINE*%
X167300000Y-61555000D03*
D27*
%TO.P,R30,2*%
%TO.N,Net-(C9-Pad1)*%
X167300000Y-64095000D03*
%TD*%
D34*
%TO.P,Q19,1,B*%
%TO.N,Net-(Q19-Pad1)*%
X126983202Y-88923835D03*
%TO.P,Q19,2,E*%
%TO.N,GNDREF*%
X128883202Y-88923835D03*
%TO.P,Q19,3,C*%
%TO.N,Net-(Q19-Pad3)*%
X127933202Y-87048835D03*
%TD*%
D31*
%TO.P,JP9,1,A*%
%TO.N,Net-(C5-Pad2)*%
X83498866Y-52300000D03*
D32*
%TO.P,JP9,2,B*%
%TO.N,LINE*%
X86038866Y-52300000D03*
%TD*%
D21*
%TO.P,J12,1,Pin_1*%
%TO.N,NEUT*%
X180728894Y-41665346D03*
D22*
%TO.P,J12,2,Pin_2*%
%TO.N,Net-(C10-Pad2)*%
X173228894Y-41665346D03*
%TD*%
D35*
%TO.P,J3_DC5V1,1,Pin_1*%
%TO.N,+3V3*%
X137608606Y-112637762D03*
D36*
%TO.P,J3_DC5V1,2,Pin_2*%
%TO.N,GNDREF*%
X137608606Y-107557762D03*
%TO.P,J3_DC5V1,3,Pin_3*%
%TO.N,+5V*%
X137608606Y-102477762D03*
%TD*%
D28*
%TO.P,Q2,1,A1*%
%TO.N,Net-(C3-Pad2)*%
X56223866Y-57529606D03*
D29*
%TO.P,Q2,2,A2*%
%TO.N,LINE*%
X58763866Y-57529606D03*
%TO.P,Q2,3,G*%
%TO.N,Net-(Q2-Pad3)*%
X61303866Y-57529606D03*
%TD*%
D21*
%TO.P,J5,1,Pin_1*%
%TO.N,NEUT*%
X75728894Y-41665346D03*
D22*
%TO.P,J5,2,Pin_2*%
%TO.N,Net-(C4-Pad2)*%
X68228894Y-41665346D03*
%TD*%
D17*
%TO.P,REF\u002A\u002A,1*%
%TO.N,N/C*%
X110326509Y-110202797D03*
%TD*%
D26*
%TO.P,R28,1*%
%TO.N,LINE*%
X136200000Y-61555000D03*
D27*
%TO.P,R28,2*%
%TO.N,Net-(C7-Pad1)*%
X136200000Y-64095000D03*
%TD*%
D17*
%TO.P,REF\u002A\u002A,1*%
%TO.N,N/C*%
X50514727Y-49861708D03*
%TD*%
D25*
%TO.P,R48,1*%
%TO.N,Net-(J2-Pad10)*%
X154321633Y-91062069D03*
%TO.P,R48,2*%
%TO.N,Net-(Q17-Pad1)*%
X156321633Y-91062069D03*
%TD*%
D37*
%TO.P,U14,1,VCC*%
%TO.N,+3V3*%
X72602500Y-104140000D03*
D38*
%TO.P,U14,2,IO*%
%TO.N,Net-(R57-Pad1)*%
X72602500Y-101600000D03*
%TO.P,U14,3,NC*%
%TO.N,unconnected-(U14-Pad3)*%
X72602500Y-99060000D03*
%TO.P,U14,4,GND*%
%TO.N,GNDREF*%
X72602500Y-96520000D03*
%TD*%
D18*
%TO.P,D5,1,K*%
%TO.N,Net-(D5-Pad1)*%
X100275000Y-81000000D03*
D19*
%TO.P,D5,2,A*%
%TO.N,Net-(D5-Pad2)*%
X97735000Y-81000000D03*
%TD*%
D20*
%TO.P,R44,1*%
%TO.N,Net-(J2-Pad5)*%
X95800000Y-91062069D03*
%TO.P,R44,2*%
%TO.N,Net-(Q13-Pad1)*%
X93800000Y-91062069D03*
%TD*%
D26*
%TO.P,R38,1*%
%TO.N,Net-(Q7-Pad3)*%
X135958866Y-52325000D03*
D27*
%TO.P,R38,2*%
%TO.N,Net-(C7-Pad2)*%
X133418866Y-52325000D03*
%TD*%
D31*
%TO.P,JP6,1,A*%
%TO.N,Net-(C7-Pad2)*%
X127313866Y-52300000D03*
D32*
%TO.P,JP6,2,B*%
%TO.N,LINE*%
X129853866Y-52300000D03*
%TD*%
D21*
%TO.P,J6,1,Pin_1*%
%TO.N,NEUT*%
X90728894Y-41665346D03*
D22*
%TO.P,J6,2,Pin_2*%
%TO.N,Net-(C5-Pad2)*%
X83228894Y-41665346D03*
%TD*%
D21*
%TO.P,J7,1,Pin_1*%
%TO.N,NEUT*%
X105728894Y-41665346D03*
D22*
%TO.P,J7,2,Pin_2*%
%TO.N,Net-(C1-Pad2)*%
X98228894Y-41665346D03*
%TD*%
D21*
%TO.P,J5_AC_INPUT1,1,Pin_1*%
%TO.N,NEUT*%
X195800000Y-111345000D03*
D22*
%TO.P,J5_AC_INPUT1,2,Pin_2*%
%TO.N,LINE*%
X195800000Y-106265000D03*
%TD*%
D26*
%TO.P,R25,1*%
%TO.N,LINE*%
X77100000Y-61555000D03*
D27*
%TO.P,R25,2*%
%TO.N,Net-(C4-Pad1)*%
X77100000Y-64095000D03*
%TD*%
D30*
%TO.P,C4,1*%
%TO.N,Net-(C4-Pad1)*%
X71000000Y-76400000D03*
%TO.P,C4,2*%
%TO.N,Net-(C4-Pad2)*%
X71000000Y-61400000D03*
%TD*%
D31*
%TO.P,JP5,1,A*%
%TO.N,Net-(C6-Pad2)*%
X113343866Y-52300000D03*
D32*
%TO.P,JP5,2,B*%
%TO.N,LINE*%
X115883866Y-52300000D03*
%TD*%
D18*
%TO.P,D4,1,K*%
%TO.N,Net-(D4-Pad1)*%
X85100000Y-80900000D03*
D19*
%TO.P,D4,2,A*%
%TO.N,Net-(D4-Pad2)*%
X82560000Y-80900000D03*
%TD*%
D20*
%TO.P,R47,1*%
%TO.N,Net-(J2-Pad2)*%
X47355000Y-91062069D03*
%TO.P,R47,2*%
%TO.N,Net-(Q16-Pad1)*%
X45355000Y-91062069D03*
%TD*%
D28*
%TO.P,Q1,1,A1*%
%TO.N,Net-(C2-Pad2)*%
X39078866Y-57529606D03*
D29*
%TO.P,Q1,2,A2*%
%TO.N,LINE*%
X41618866Y-57529606D03*
%TO.P,Q1,3,G*%
%TO.N,Net-(Q1-Pad3)*%
X44158866Y-57529606D03*
%TD*%
D21*
%TO.P,J4_AC_OUTPUT1,1,Pin_1*%
%TO.N,NEUT*%
X195800000Y-100145000D03*
D22*
%TO.P,J4_AC_OUTPUT1,2,Pin_2*%
%TO.N,LINE*%
X195800000Y-95065000D03*
%TD*%
D23*
%TO.P,U11,1*%
%TO.N,Net-(D10-Pad1)*%
X178768866Y-88239803D03*
D24*
%TO.P,U11,2*%
%TO.N,Net-(Q14-Pad3)*%
X181308866Y-88239803D03*
%TO.P,U11,3,NC*%
%TO.N,unconnected-(U11-Pad3)*%
X183848866Y-88239803D03*
%TO.P,U11,4*%
%TO.N,Net-(Q10-Pad3)*%
X183848866Y-80619803D03*
%TO.P,U11,5,NC*%
%TO.N,unconnected-(U11-Pad5)*%
X181308866Y-80619803D03*
%TO.P,U11,6*%
%TO.N,Net-(R21-Pad1)*%
X178768866Y-80619803D03*
%TD*%
D33*
%TO.P,RV2,1*%
%TO.N,NEUT*%
X61700000Y-49200000D03*
%TO.P,RV2,2*%
%TO.N,Net-(C3-Pad2)*%
X56700000Y-48000000D03*
%TD*%
D26*
%TO.P,R26,1*%
%TO.N,LINE*%
X91700000Y-61555000D03*
D27*
%TO.P,R26,2*%
%TO.N,Net-(C5-Pad1)*%
X91700000Y-64095000D03*
%TD*%
D39*
%TO.P,U13,1,GND*%
%TO.N,GNDREF*%
X65656956Y-111277825D03*
D40*
%TO.P,U13,2,DQ*%
%TO.N,Net-(J1-Pad2)*%
X65656956Y-112747825D03*
%TO.P,U13,3,VDD*%
%TO.N,+3V3*%
X65656956Y-114217825D03*
%TD*%
D26*
%TO.P,R31,1*%
%TO.N,LINE*%
X182500000Y-61555000D03*
D27*
%TO.P,R31,2*%
%TO.N,Net-(C10-Pad1)*%
X182500000Y-64095000D03*
%TD*%
D34*
%TO.P,Q18,1,B*%
%TO.N,Net-(Q18-Pad1)*%
X97827138Y-88923835D03*
%TO.P,Q18,2,E*%
%TO.N,GNDREF*%
X99727138Y-88923835D03*
%TO.P,Q18,3,C*%
%TO.N,Net-(Q18-Pad3)*%
X98777138Y-87048835D03*
%TD*%
D17*
%TO.P,REF\u002A\u002A,1*%
%TO.N,N/C*%
X182077764Y-115282470D03*
%TD*%
D31*
%TO.P,JP3,1,A*%
%TO.N,Net-(C4-Pad2)*%
X68893866Y-52300000D03*
D32*
%TO.P,JP3,2,B*%
%TO.N,LINE*%
X71433866Y-52300000D03*
%TD*%
D30*
%TO.P,C7,1*%
%TO.N,Net-(C7-Pad1)*%
X130000000Y-76400000D03*
%TO.P,C7,2*%
%TO.N,Net-(C7-Pad2)*%
X130000000Y-61400000D03*
%TD*%
D33*
%TO.P,RV1,1*%
%TO.N,NEUT*%
X45200000Y-49200000D03*
%TO.P,RV1,2*%
%TO.N,Net-(C2-Pad2)*%
X40200000Y-48000000D03*
%TD*%
D26*
%TO.P,R34,1*%
%TO.N,Net-(Q3-Pad3)*%
X77895000Y-52325000D03*
D27*
%TO.P,R34,2*%
%TO.N,Net-(C4-Pad2)*%
X75355000Y-52325000D03*
%TD*%
D20*
%TO.P,R9,1*%
%TO.N,+5V*%
X144600002Y-83300000D03*
%TO.P,R9,2*%
%TO.N,Net-(D8-Pad2)*%
X142600002Y-83300000D03*
%TD*%
D28*
%TO.P,Q3,1,A1*%
%TO.N,Net-(C4-Pad2)*%
X70828866Y-57529606D03*
D29*
%TO.P,Q3,2,A2*%
%TO.N,LINE*%
X73368866Y-57529606D03*
%TO.P,Q3,3,G*%
%TO.N,Net-(Q3-Pad3)*%
X75908866Y-57529606D03*
%TD*%
D28*
%TO.P,Q8,1,A1*%
%TO.N,Net-(C8-Pad2)*%
X145123866Y-57529606D03*
D29*
%TO.P,Q8,2,A2*%
%TO.N,LINE*%
X147663866Y-57529606D03*
%TO.P,Q8,3,G*%
%TO.N,Net-(Q8-Pad3)*%
X150203866Y-57529606D03*
%TD*%
D25*
%TO.P,R7,1*%
%TO.N,Net-(D6-Pad2)*%
X112700002Y-83300000D03*
%TO.P,R7,2*%
%TO.N,+5V*%
X114700002Y-83300000D03*
%TD*%
D31*
%TO.P,JP7,1,A*%
%TO.N,Net-(C8-Pad2)*%
X145728866Y-52300000D03*
D32*
%TO.P,JP7,2,B*%
%TO.N,LINE*%
X148268866Y-52300000D03*
%TD*%
D26*
%TO.P,R19,1*%
%TO.N,Net-(R19-Pad1)*%
X151400000Y-74345000D03*
D27*
%TO.P,R19,2*%
%TO.N,Net-(C8-Pad1)*%
X151400000Y-71805000D03*
%TD*%
D21*
%TO.P,J8,1,Pin_1*%
%TO.N,NEUT*%
X120728894Y-41665346D03*
D22*
%TO.P,J8,2,Pin_2*%
%TO.N,Net-(C6-Pad2)*%
X113228894Y-41665346D03*
%TD*%
D41*
%TO.P,C13,1*%
%TO.N,+5V*%
X80010000Y-95625000D03*
%TO.P,C13,2*%
%TO.N,GNDREF*%
X80010000Y-101225000D03*
%TD*%
D31*
%TO.P,JP11,1,A*%
%TO.N,Net-(C11-Pad2)*%
X188200000Y-52300000D03*
D32*
%TO.P,JP11,2,B*%
%TO.N,LINE*%
X190740000Y-52300000D03*
%TD*%
D25*
%TO.P,R53,1*%
%TO.N,Net-(D11-Pad2)*%
X187300002Y-83300000D03*
%TO.P,R53,2*%
%TO.N,+5V*%
X189300002Y-83300000D03*
%TD*%
D31*
%TO.P,JP2,1,A*%
%TO.N,Net-(C3-Pad2)*%
X54385697Y-52300000D03*
D32*
%TO.P,JP2,2,B*%
%TO.N,LINE*%
X56925697Y-52300000D03*
%TD*%
D21*
%TO.P,J9,1,Pin_1*%
%TO.N,NEUT*%
X135728894Y-41665346D03*
D22*
%TO.P,J9,2,Pin_2*%
%TO.N,Net-(C7-Pad2)*%
X128228894Y-41665346D03*
%TD*%
D20*
%TO.P,R4,1*%
%TO.N,+5V*%
X70200002Y-83300000D03*
%TO.P,R4,2*%
%TO.N,Net-(D3-Pad2)*%
X68200002Y-83300000D03*
%TD*%
D26*
%TO.P,R56,1*%
%TO.N,Net-(Q22-Pad3)*%
X197150000Y-52325000D03*
D27*
%TO.P,R56,2*%
%TO.N,Net-(C11-Pad2)*%
X194610000Y-52325000D03*
%TD*%
D33*
%TO.P,RV12,1*%
%TO.N,NEUT*%
X182680866Y-104529803D03*
%TO.P,RV12,2*%
%TO.N,LINE*%
X181480866Y-109529803D03*
%TD*%
D30*
%TO.P,C2,1*%
%TO.N,Net-(C2-Pad1)*%
X39364073Y-76364655D03*
%TO.P,C2,2*%
%TO.N,Net-(C2-Pad2)*%
X39364073Y-61364655D03*
%TD*%
D28*
%TO.P,Q10,1,A1*%
%TO.N,Net-(C10-Pad2)*%
X176238866Y-57529606D03*
D29*
%TO.P,Q10,2,A2*%
%TO.N,LINE*%
X178778866Y-57529606D03*
%TO.P,Q10,3,G*%
%TO.N,Net-(Q10-Pad3)*%
X181318866Y-57529606D03*
%TD*%
D25*
%TO.P,R45,1*%
%TO.N,Net-(J2-Pad11)*%
X169842071Y-91062069D03*
%TO.P,R45,2*%
%TO.N,Net-(Q14-Pad1)*%
X171842071Y-91062069D03*
%TD*%
D23*
%TO.P,U10,1*%
%TO.N,Net-(D9-Pad1)*%
X163528866Y-88239803D03*
D24*
%TO.P,U10,2*%
%TO.N,Net-(Q17-Pad3)*%
X166068866Y-88239803D03*
%TO.P,U10,3,NC*%
%TO.N,unconnected-(U10-Pad3)*%
X168608866Y-88239803D03*
%TO.P,U10,4*%
%TO.N,Net-(Q9-Pad3)*%
X168608866Y-80619803D03*
%TO.P,U10,5,NC*%
%TO.N,unconnected-(U10-Pad5)*%
X166068866Y-80619803D03*
%TO.P,U10,6*%
%TO.N,Net-(R20-Pad1)*%
X163528866Y-80619803D03*
%TD*%
D26*
%TO.P,R54,1*%
%TO.N,Net-(R54-Pad1)*%
X196500000Y-74345000D03*
D27*
%TO.P,R54,2*%
%TO.N,Net-(C11-Pad1)*%
X196500000Y-71805000D03*
%TD*%
D25*
%TO.P,R52,1*%
%TO.N,Net-(J2-Pad7)*%
X107000000Y-91062069D03*
%TO.P,R52,2*%
%TO.N,Net-(Q21-Pad1)*%
X109000000Y-91062069D03*
%TD*%
D18*
%TO.P,D8,1,K*%
%TO.N,Net-(D8-Pad1)*%
X144700000Y-80900000D03*
D19*
%TO.P,D8,2,A*%
%TO.N,Net-(D8-Pad2)*%
X142160000Y-80900000D03*
%TD*%
D42*
%TO.P,F1,1*%
%TO.N,LINE*%
X187564448Y-111028579D03*
X187564448Y-115628579D03*
%TO.P,F1,2*%
X187564448Y-95128579D03*
X187564448Y-99728579D03*
%TD*%
D26*
%TO.P,R24,1*%
%TO.N,LINE*%
X62500000Y-61555000D03*
D27*
%TO.P,R24,2*%
%TO.N,Net-(C3-Pad1)*%
X62500000Y-64095000D03*
%TD*%
D26*
%TO.P,R21,1*%
%TO.N,Net-(R21-Pad1)*%
X182500000Y-74345000D03*
D27*
%TO.P,R21,2*%
%TO.N,Net-(C10-Pad1)*%
X182500000Y-71805000D03*
%TD*%
D26*
%TO.P,R37,1*%
%TO.N,Net-(Q6-Pad3)*%
X122450000Y-52325000D03*
D27*
%TO.P,R37,2*%
%TO.N,Net-(C6-Pad2)*%
X119910000Y-52325000D03*
%TD*%
D43*
%TO.P,C12,1*%
%TO.N,GNDREF*%
X88667500Y-115570000D03*
%TO.P,C12,2*%
%TO.N,+3V3*%
X86592500Y-115570000D03*
%TD*%
D26*
%TO.P,R41,1*%
%TO.N,Net-(Q10-Pad3)*%
X182850000Y-52325000D03*
D27*
%TO.P,R41,2*%
%TO.N,Net-(C10-Pad2)*%
X180310000Y-52325000D03*
%TD*%
D21*
%TO.P,J1,1,Pin_1*%
%TO.N,GNDREF*%
X44405000Y-105410000D03*
D22*
%TO.P,J1,2,Pin_2*%
%TO.N,Net-(J1-Pad2)*%
X44405000Y-109220000D03*
%TO.P,J1,3,Pin_3*%
%TO.N,+3V3*%
X44405000Y-113030000D03*
%TD*%
D33*
%TO.P,RV9,1*%
%TO.N,NEUT*%
X166700000Y-49200000D03*
%TO.P,RV9,2*%
%TO.N,Net-(C9-Pad2)*%
X161700000Y-48000000D03*
%TD*%
D30*
%TO.P,C11,1*%
%TO.N,Net-(C11-Pad1)*%
X190300000Y-76300000D03*
%TO.P,C11,2*%
%TO.N,Net-(C11-Pad2)*%
X190300000Y-61300000D03*
%TD*%
D26*
%TO.P,R22,1*%
%TO.N,LINE*%
X107000000Y-61555000D03*
D27*
%TO.P,R22,2*%
%TO.N,Net-(C1-Pad1)*%
X107000000Y-64095000D03*
%TD*%
D20*
%TO.P,R57,1*%
%TO.N,Net-(R57-Pad1)*%
X79105000Y-106045000D03*
%TO.P,R57,2*%
%TO.N,+3V3*%
X77105000Y-106045000D03*
%TD*%
D18*
%TO.P,D7,1,K*%
%TO.N,Net-(D7-Pad1)*%
X129700000Y-80900000D03*
D19*
%TO.P,D7,2,A*%
%TO.N,Net-(D7-Pad2)*%
X127160000Y-80900000D03*
%TD*%
D31*
%TO.P,J2,1,Pin_1*%
%TO.N,GNDREF*%
X88265000Y-103505000D03*
D32*
%TO.P,J2,2,Pin_2*%
%TO.N,Net-(J2-Pad2)*%
X90805000Y-103505000D03*
%TO.P,J2,3,Pin_3*%
%TO.N,Net-(J2-Pad3)*%
X93345000Y-103505000D03*
%TO.P,J2,4,Pin_4*%
%TO.N,Net-(J2-Pad4)*%
X95885000Y-103505000D03*
%TO.P,J2,5,Pin_5*%
%TO.N,Net-(J2-Pad5)*%
X98425000Y-103505000D03*
%TO.P,J2,6,Pin_6*%
%TO.N,Net-(J2-Pad6)*%
X100965000Y-103505000D03*
%TO.P,J2,7,Pin_7*%
%TO.N,Net-(J2-Pad7)*%
X103505000Y-103505000D03*
%TO.P,J2,8,Pin_8*%
%TO.N,Net-(J2-Pad8)*%
X106045000Y-103505000D03*
%TO.P,J2,9,Pin_9*%
%TO.N,Net-(J2-Pad9)*%
X108585000Y-103505000D03*
%TO.P,J2,10,Pin_10*%
%TO.N,Net-(J2-Pad10)*%
X111125000Y-103505000D03*
%TO.P,J2,11,Pin_11*%
%TO.N,Net-(J2-Pad11)*%
X113665000Y-103505000D03*
%TO.P,J2,12,Pin_12*%
%TO.N,Net-(J2-Pad12)*%
X116205000Y-103505000D03*
%TD*%
D31*
%TO.P,JP8,1,A*%
%TO.N,Net-(C9-Pad2)*%
X159100000Y-52300000D03*
D32*
%TO.P,JP8,2,B*%
%TO.N,LINE*%
X161640000Y-52300000D03*
%TD*%
D25*
%TO.P,R46,1*%
%TO.N,Net-(J2-Pad12)*%
X183686858Y-91062069D03*
%TO.P,R46,2*%
%TO.N,Net-(Q15-Pad1)*%
X185686858Y-91062069D03*
%TD*%
D44*
%TO.P,JP12,1,A*%
%TO.N,GNDREF*%
X101100000Y-111975000D03*
D45*
%TO.P,JP12,2,B*%
%TO.N,Net-(JP12-Pad2)*%
X101100000Y-113425000D03*
%TD*%
D20*
%TO.P,R8,1*%
%TO.N,+5V*%
X129400002Y-83300000D03*
%TO.P,R8,2*%
%TO.N,Net-(D7-Pad2)*%
X127400002Y-83300000D03*
%TD*%
D33*
%TO.P,RV7,1*%
%TO.N,NEUT*%
X134288866Y-49200000D03*
%TO.P,RV7,2*%
%TO.N,Net-(C7-Pad2)*%
X129288866Y-48000000D03*
%TD*%
D21*
%TO.P,J10,1,Pin_1*%
%TO.N,NEUT*%
X150728894Y-41665346D03*
D22*
%TO.P,J10,2,Pin_2*%
%TO.N,Net-(C8-Pad2)*%
X143228894Y-41665346D03*
%TD*%
D34*
%TO.P,Q15,1,B*%
%TO.N,Net-(Q15-Pad1)*%
X187050000Y-88923835D03*
%TO.P,Q15,2,E*%
%TO.N,GNDREF*%
X188950000Y-88923835D03*
%TO.P,Q15,3,C*%
%TO.N,Net-(Q15-Pad3)*%
X188000000Y-87048835D03*
%TD*%
D26*
%TO.P,R33,1*%
%TO.N,Net-(Q2-Pad3)*%
X63395000Y-52325000D03*
D27*
%TO.P,R33,2*%
%TO.N,Net-(C3-Pad2)*%
X60855000Y-52325000D03*
%TD*%
D30*
%TO.P,C6,1*%
%TO.N,Net-(C6-Pad1)*%
X115300000Y-76400000D03*
%TO.P,C6,2*%
%TO.N,Net-(C6-Pad2)*%
X115300000Y-61400000D03*
%TD*%
D21*
%TO.P,J3,1,Pin_1*%
%TO.N,NEUT*%
X45728894Y-41665346D03*
D22*
%TO.P,J3,2,Pin_2*%
%TO.N,Net-(C2-Pad2)*%
X38228894Y-41665346D03*
%TD*%
D28*
%TO.P,Q5,1,A1*%
%TO.N,Net-(C1-Pad2)*%
X100673866Y-57529606D03*
D29*
%TO.P,Q5,2,A2*%
%TO.N,LINE*%
X103213866Y-57529606D03*
%TO.P,Q5,3,G*%
%TO.N,Net-(Q5-Pad3)*%
X105753866Y-57529606D03*
%TD*%
D33*
%TO.P,RV4,1*%
%TO.N,NEUT*%
X91700000Y-49200000D03*
%TO.P,RV4,2*%
%TO.N,Net-(C5-Pad2)*%
X86700000Y-48000000D03*
%TD*%
D20*
%TO.P,R49,1*%
%TO.N,Net-(J2-Pad6)*%
X101400000Y-91700000D03*
%TO.P,R49,2*%
%TO.N,Net-(Q18-Pad1)*%
X99400000Y-91700000D03*
%TD*%
D33*
%TO.P,RV10,1*%
%TO.N,NEUT*%
X181700000Y-49200000D03*
%TO.P,RV10,2*%
%TO.N,Net-(C10-Pad2)*%
X176700000Y-48000000D03*
%TD*%
D34*
%TO.P,Q20,1,B*%
%TO.N,Net-(Q20-Pad1)*%
X142223202Y-88923835D03*
%TO.P,Q20,2,E*%
%TO.N,GNDREF*%
X144123202Y-88923835D03*
%TO.P,Q20,3,C*%
%TO.N,Net-(Q20-Pad3)*%
X143173202Y-87048835D03*
%TD*%
D17*
%TO.P,REF\u002A\u002A,1*%
%TO.N,N/C*%
X203040941Y-43243738D03*
%TD*%
D34*
%TO.P,Q13,1,B*%
%TO.N,Net-(Q13-Pad1)*%
X82533202Y-88923835D03*
%TO.P,Q13,2,E*%
%TO.N,GNDREF*%
X84433202Y-88923835D03*
%TO.P,Q13,3,C*%
%TO.N,Net-(Q13-Pad3)*%
X83483202Y-87048835D03*
%TD*%
D18*
%TO.P,D1,1,K*%
%TO.N,Net-(D1-Pad1)*%
X38700000Y-80900000D03*
D19*
%TO.P,D1,2,A*%
%TO.N,Net-(D1-Pad2)*%
X36160000Y-80900000D03*
%TD*%
D23*
%TO.P,U9,1*%
%TO.N,Net-(D8-Pad1)*%
X147686227Y-88239803D03*
D24*
%TO.P,U9,2*%
%TO.N,Net-(Q20-Pad3)*%
X150226227Y-88239803D03*
%TO.P,U9,3,NC*%
%TO.N,unconnected-(U9-Pad3)*%
X152766227Y-88239803D03*
%TO.P,U9,4*%
%TO.N,Net-(Q8-Pad3)*%
X152766227Y-80619803D03*
%TO.P,U9,5,NC*%
%TO.N,unconnected-(U9-Pad5)*%
X150226227Y-80619803D03*
%TO.P,U9,6*%
%TO.N,Net-(R19-Pad1)*%
X147686227Y-80619803D03*
%TD*%
D31*
%TO.P,JP10,1,A*%
%TO.N,Net-(C10-Pad2)*%
X173700000Y-52300000D03*
D32*
%TO.P,JP10,2,B*%
%TO.N,LINE*%
X176240000Y-52300000D03*
%TD*%
D30*
%TO.P,C1,1*%
%TO.N,Net-(C1-Pad1)*%
X100700000Y-76400000D03*
%TO.P,C1,2*%
%TO.N,Net-(C1-Pad2)*%
X100700000Y-61400000D03*
%TD*%
D18*
%TO.P,D10,1,K*%
%TO.N,Net-(D10-Pad1)*%
X175800000Y-80900000D03*
D19*
%TO.P,D10,2,A*%
%TO.N,Net-(D10-Pad2)*%
X173260000Y-80900000D03*
%TD*%
D30*
%TO.P,C5,1*%
%TO.N,Net-(C5-Pad1)*%
X85600000Y-76300000D03*
%TO.P,C5,2*%
%TO.N,Net-(C5-Pad2)*%
X85600000Y-61300000D03*
%TD*%
D25*
%TO.P,R6,1*%
%TO.N,Net-(D5-Pad2)*%
X98000002Y-83300000D03*
%TO.P,R6,2*%
%TO.N,+5V*%
X100000002Y-83300000D03*
%TD*%
D18*
%TO.P,D11,1,K*%
%TO.N,Net-(D11-Pad1)*%
X189800000Y-80900000D03*
D19*
%TO.P,D11,2,A*%
%TO.N,Net-(D11-Pad2)*%
X187260000Y-80900000D03*
%TD*%
D46*
%TO.P,U1,1,EN*%
%TO.N,unconnected-(U1-Pad1)*%
X121310000Y-93980000D03*
D47*
%TO.P,U1,2,SENSOR_VP*%
%TO.N,unconnected-(U1-Pad2)*%
X118770000Y-93980000D03*
%TO.P,U1,3,SENSOR_VN*%
%TO.N,unconnected-(U1-Pad3)*%
X116230000Y-93980000D03*
%TO.P,U1,4,IO34*%
%TO.N,unconnected-(U1-Pad4)*%
X113690000Y-93980000D03*
%TO.P,U1,5,IO35*%
%TO.N,unconnected-(U1-Pad5)*%
X111150000Y-93980000D03*
%TO.P,U1,6,IO32*%
%TO.N,Net-(J2-Pad9)*%
X108610000Y-93980000D03*
%TO.P,U1,7,IO33*%
%TO.N,Net-(J2-Pad8)*%
X106070000Y-93980000D03*
%TO.P,U1,8,IO25*%
%TO.N,Net-(J2-Pad7)*%
X103530000Y-93980000D03*
%TO.P,U1,9,IO26*%
%TO.N,Net-(J2-Pad6)*%
X100990000Y-93980000D03*
%TO.P,U1,10,IO27*%
%TO.N,Net-(J2-Pad5)*%
X98450000Y-93980000D03*
%TO.P,U1,11,IO14*%
%TO.N,Net-(J2-Pad4)*%
X95910000Y-93980000D03*
%TO.P,U1,12,IO12*%
%TO.N,unconnected-(U1-Pad12)*%
X93370000Y-93980000D03*
%TO.P,U1,13,IO13*%
%TO.N,Net-(J2-Pad2)*%
X90830000Y-93980000D03*
%TO.P,U1,14,GND*%
%TO.N,GNDREF*%
X88290000Y-93980000D03*
%TO.P,U1,15,VIN*%
%TO.N,Net-(D12-Pad1)*%
X85750000Y-93980000D03*
%TO.P,U1,16,3V3*%
%TO.N,+3V3*%
X85750000Y-119380000D03*
%TO.P,U1,17,GND*%
%TO.N,GNDREF*%
X88290000Y-119380000D03*
%TO.P,U1,18,IO15*%
%TO.N,Net-(J1-Pad2)*%
X90830000Y-119380000D03*
%TO.P,U1,19,IO2*%
%TO.N,unconnected-(U1-Pad19)*%
X93370000Y-119380000D03*
%TO.P,U1,20,IO4*%
%TO.N,unconnected-(U1-Pad20)*%
X95910000Y-119380000D03*
%TO.P,U1,21,IO16*%
%TO.N,unconnected-(U1-Pad21)*%
X98450000Y-119380000D03*
%TO.P,U1,22,IO17*%
%TO.N,unconnected-(U1-Pad22)*%
X100990000Y-119380000D03*
%TO.P,U1,23,IO5*%
%TO.N,Net-(R57-Pad1)*%
X103530000Y-119380000D03*
%TO.P,U1,24,IO18*%
%TO.N,Net-(JP12-Pad2)*%
X106070000Y-119380000D03*
%TO.P,U1,25,IO19*%
%TO.N,Net-(J2-Pad3)*%
X108610000Y-119380000D03*
%TO.P,U1,26,IO21*%
%TO.N,Net-(J2-Pad10)*%
X111150000Y-119380000D03*
%TO.P,U1,27,RXD0/IO3*%
%TO.N,unconnected-(U1-Pad27)*%
X113690000Y-119380000D03*
%TO.P,U1,28,TXD0/IO1*%
%TO.N,unconnected-(U1-Pad28)*%
X116230000Y-119380000D03*
%TO.P,U1,29,IO22*%
%TO.N,Net-(J2-Pad11)*%
X118770000Y-119380000D03*
%TO.P,U1,30,IO23*%
%TO.N,Net-(J2-Pad12)*%
X121310000Y-119380000D03*
%TD*%
D23*
%TO.P,U3,1*%
%TO.N,Net-(D2-Pad1)*%
X58763866Y-88239803D03*
D24*
%TO.P,U3,2*%
%TO.N,Net-(Q11-Pad3)*%
X61303866Y-88239803D03*
%TO.P,U3,3,NC*%
%TO.N,unconnected-(U3-Pad3)*%
X63843866Y-88239803D03*
%TO.P,U3,4*%
%TO.N,Net-(Q2-Pad3)*%
X63843866Y-80619803D03*
%TO.P,U3,5,NC*%
%TO.N,unconnected-(U3-Pad5)*%
X61303866Y-80619803D03*
%TO.P,U3,6*%
%TO.N,Net-(R14-Pad1)*%
X58763866Y-80619803D03*
%TD*%
D26*
%TO.P,R35,1*%
%TO.N,Net-(Q4-Pad3)*%
X92495000Y-52325000D03*
D27*
%TO.P,R35,2*%
%TO.N,Net-(C5-Pad2)*%
X89955000Y-52325000D03*
%TD*%
D33*
%TO.P,RV8,1*%
%TO.N,NEUT*%
X152068866Y-49200000D03*
%TO.P,RV8,2*%
%TO.N,Net-(C8-Pad2)*%
X147068866Y-48000000D03*
%TD*%
D48*
%TO.P,D12,1,K*%
%TO.N,Net-(D12-Pad1)*%
X87650000Y-96500000D03*
%TO.P,D12,2,A*%
%TO.N,+5V*%
X84350000Y-96500000D03*
%TD*%
D21*
%TO.P,J4,1,Pin_1*%
%TO.N,NEUT*%
X60728894Y-41665346D03*
D22*
%TO.P,J4,2,Pin_2*%
%TO.N,Net-(C3-Pad2)*%
X53228894Y-41665346D03*
%TD*%
D30*
%TO.P,C10,1*%
%TO.N,Net-(C10-Pad1)*%
X176300000Y-76300000D03*
%TO.P,C10,2*%
%TO.N,Net-(C10-Pad2)*%
X176300000Y-61300000D03*
%TD*%
%TO.P,C9,1*%
%TO.N,Net-(C9-Pad1)*%
X161100000Y-76400000D03*
%TO.P,C9,2*%
%TO.N,Net-(C9-Pad2)*%
X161100000Y-61400000D03*
%TD*%
D23*
%TO.P,U7,1*%
%TO.N,Net-(D6-Pad1)*%
X117852341Y-88251926D03*
D24*
%TO.P,U7,2*%
%TO.N,Net-(Q21-Pad3)*%
X120392341Y-88251926D03*
%TO.P,U7,3,NC*%
%TO.N,unconnected-(U7-Pad3)*%
X122932341Y-88251926D03*
%TO.P,U7,4*%
%TO.N,Net-(Q6-Pad3)*%
X122932341Y-80631926D03*
%TO.P,U7,5,NC*%
%TO.N,unconnected-(U7-Pad5)*%
X120392341Y-80631926D03*
%TO.P,U7,6*%
%TO.N,Net-(R17-Pad1)*%
X117852341Y-80631926D03*
%TD*%
D33*
%TO.P,RV11,1*%
%TO.N,NEUT*%
X196300000Y-49200000D03*
%TO.P,RV11,2*%
%TO.N,Net-(C11-Pad2)*%
X191300000Y-48000000D03*
%TD*%
D25*
%TO.P,R11,1*%
%TO.N,Net-(D10-Pad2)*%
X173300002Y-83300000D03*
%TO.P,R11,2*%
%TO.N,+5V*%
X175300002Y-83300000D03*
%TD*%
D26*
%TO.P,R16,1*%
%TO.N,Net-(R16-Pad1)*%
X91800000Y-74345000D03*
D27*
%TO.P,R16,2*%
%TO.N,Net-(C5-Pad1)*%
X91800000Y-71805000D03*
%TD*%
D34*
%TO.P,Q12,1,B*%
%TO.N,Net-(Q12-Pad1)*%
X67928202Y-88923835D03*
%TO.P,Q12,2,E*%
%TO.N,GNDREF*%
X69828202Y-88923835D03*
%TO.P,Q12,3,C*%
%TO.N,Net-(Q12-Pad3)*%
X68878202Y-87048835D03*
%TD*%
D28*
%TO.P,Q4,1,A1*%
%TO.N,Net-(C5-Pad2)*%
X85433866Y-57529606D03*
D29*
%TO.P,Q4,2,A2*%
%TO.N,LINE*%
X87973866Y-57529606D03*
%TO.P,Q4,3,G*%
%TO.N,Net-(Q4-Pad3)*%
X90513866Y-57529606D03*
%TD*%
D28*
%TO.P,Q22,1,A1*%
%TO.N,Net-(C11-Pad2)*%
X190208866Y-57529606D03*
D29*
%TO.P,Q22,2,A2*%
%TO.N,LINE*%
X192748866Y-57529606D03*
%TO.P,Q22,3,G*%
%TO.N,Net-(Q22-Pad3)*%
X195288866Y-57529606D03*
%TD*%
D30*
%TO.P,C8,1*%
%TO.N,Net-(C8-Pad1)*%
X145200000Y-76400000D03*
%TO.P,C8,2*%
%TO.N,Net-(C8-Pad2)*%
X145200000Y-61400000D03*
%TD*%
D26*
%TO.P,R18,1*%
%TO.N,Net-(R18-Pad1)*%
X136200000Y-74345000D03*
D27*
%TO.P,R18,2*%
%TO.N,Net-(C7-Pad1)*%
X136200000Y-71805000D03*
%TD*%
D26*
%TO.P,R14,1*%
%TO.N,Net-(R14-Pad1)*%
X62500000Y-74345000D03*
D27*
%TO.P,R14,2*%
%TO.N,Net-(C3-Pad1)*%
X62500000Y-71805000D03*
%TD*%
D17*
%TO.P,REF\u002A\u002A,1*%
%TO.N,N/C*%
X50513745Y-99401667D03*
%TD*%
D18*
%TO.P,D6,1,K*%
%TO.N,Net-(D6-Pad1)*%
X114900000Y-81000000D03*
D19*
%TO.P,D6,2,A*%
%TO.N,Net-(D6-Pad2)*%
X112360000Y-81000000D03*
%TD*%
D23*
%TO.P,U12,1*%
%TO.N,Net-(D11-Pad1)*%
X192738866Y-88239803D03*
D24*
%TO.P,U12,2*%
%TO.N,Net-(Q15-Pad3)*%
X195278866Y-88239803D03*
%TO.P,U12,3,NC*%
%TO.N,unconnected-(U12-Pad3)*%
X197818866Y-88239803D03*
%TO.P,U12,4*%
%TO.N,Net-(Q22-Pad3)*%
X197818866Y-80619803D03*
%TO.P,U12,5,NC*%
%TO.N,unconnected-(U12-Pad5)*%
X195278866Y-80619803D03*
%TO.P,U12,6*%
%TO.N,Net-(R54-Pad1)*%
X192738866Y-80619803D03*
%TD*%
D26*
%TO.P,R29,1*%
%TO.N,LINE*%
X151400000Y-61555000D03*
D27*
%TO.P,R29,2*%
%TO.N,Net-(C8-Pad1)*%
X151400000Y-64095000D03*
%TD*%
D26*
%TO.P,R13,1*%
%TO.N,Net-(R13-Pad1)*%
X45400000Y-74345000D03*
D27*
%TO.P,R13,2*%
%TO.N,Net-(C2-Pad1)*%
X45400000Y-71805000D03*
%TD*%
D26*
%TO.P,R32,1*%
%TO.N,Net-(Q1-Pad3)*%
X45880000Y-52325000D03*
D27*
%TO.P,R32,2*%
%TO.N,Net-(C2-Pad2)*%
X43340000Y-52325000D03*
%TD*%
D21*
%TO.P,J11,1,Pin_1*%
%TO.N,NEUT*%
X165728894Y-41665346D03*
D22*
%TO.P,J11,2,Pin_2*%
%TO.N,Net-(C9-Pad2)*%
X158228894Y-41665346D03*
%TD*%
D20*
%TO.P,R1,1*%
%TO.N,Net-(J1-Pad2)*%
X88630000Y-112109803D03*
%TO.P,R1,2*%
%TO.N,+3V3*%
X86630000Y-112109803D03*
%TD*%
%TO.P,R42,1*%
%TO.N,Net-(J2-Pad3)*%
X64500000Y-91062069D03*
%TO.P,R42,2*%
%TO.N,Net-(Q11-Pad1)*%
X62500000Y-91062069D03*
%TD*%
D34*
%TO.P,Q14,1,B*%
%TO.N,Net-(Q14-Pad1)*%
X172950000Y-88923835D03*
%TO.P,Q14,2,E*%
%TO.N,GNDREF*%
X174850000Y-88923835D03*
%TO.P,Q14,3,C*%
%TO.N,Net-(Q14-Pad3)*%
X173900000Y-87048835D03*
%TD*%
D20*
%TO.P,R43,1*%
%TO.N,Net-(J2-Pad4)*%
X79105000Y-91062069D03*
%TO.P,R43,2*%
%TO.N,Net-(Q12-Pad1)*%
X77105000Y-91062069D03*
%TD*%
D26*
%TO.P,R39,1*%
%TO.N,Net-(Q8-Pad3)*%
X154373866Y-52325000D03*
D27*
%TO.P,R39,2*%
%TO.N,Net-(C8-Pad2)*%
X151833866Y-52325000D03*
%TD*%
D49*
%TO.P,PS1,1,AC/L*%
%TO.N,LINE*%
X176323366Y-109152540D03*
D42*
%TO.P,PS1,2,AC/N*%
%TO.N,NEUT*%
X176323366Y-104152540D03*
%TO.P,PS1,3,-Vout*%
%TO.N,GNDREF*%
X146923366Y-114352540D03*
%TO.P,PS1,4,+Vout*%
%TO.N,+5V*%
X146923366Y-98952540D03*
%TD*%
D34*
%TO.P,Q11,1,B*%
%TO.N,Net-(Q11-Pad1)*%
X53323202Y-88923835D03*
%TO.P,Q11,2,E*%
%TO.N,GNDREF*%
X55223202Y-88923835D03*
%TO.P,Q11,3,C*%
%TO.N,Net-(Q11-Pad3)*%
X54273202Y-87048835D03*
%TD*%
%TO.P,Q17,1,B*%
%TO.N,Net-(Q17-Pad1)*%
X158098202Y-88923835D03*
%TO.P,Q17,2,E*%
%TO.N,GNDREF*%
X159998202Y-88923835D03*
%TO.P,Q17,3,C*%
%TO.N,Net-(Q17-Pad3)*%
X159048202Y-87048835D03*
%TD*%
D23*
%TO.P,U5,1*%
%TO.N,Net-(D4-Pad1)*%
X87963866Y-88239803D03*
D24*
%TO.P,U5,2*%
%TO.N,Net-(Q13-Pad3)*%
X90503866Y-88239803D03*
%TO.P,U5,3,NC*%
%TO.N,unconnected-(U5-Pad3)*%
X93043866Y-88239803D03*
%TO.P,U5,4*%
%TO.N,Net-(Q4-Pad3)*%
X93043866Y-80619803D03*
%TO.P,U5,5,NC*%
%TO.N,unconnected-(U5-Pad5)*%
X90503866Y-80619803D03*
%TO.P,U5,6*%
%TO.N,Net-(R16-Pad1)*%
X87963866Y-80619803D03*
%TD*%
D33*
%TO.P,RV3,1*%
%TO.N,NEUT*%
X76700000Y-49200000D03*
%TO.P,RV3,2*%
%TO.N,Net-(C4-Pad2)*%
X71700000Y-48000000D03*
%TD*%
D23*
%TO.P,U6,1*%
%TO.N,Net-(D5-Pad1)*%
X103213866Y-88249803D03*
D24*
%TO.P,U6,2*%
%TO.N,Net-(Q18-Pad3)*%
X105753866Y-88249803D03*
%TO.P,U6,3,NC*%
%TO.N,unconnected-(U6-Pad3)*%
X108293866Y-88249803D03*
%TO.P,U6,4*%
%TO.N,Net-(Q5-Pad3)*%
X108293866Y-80629803D03*
%TO.P,U6,5,NC*%
%TO.N,unconnected-(U6-Pad5)*%
X105753866Y-80629803D03*
%TO.P,U6,6*%
%TO.N,Net-(R12-Pad1)*%
X103213866Y-80629803D03*
%TD*%
D26*
%TO.P,R17,1*%
%TO.N,Net-(R17-Pad1)*%
X121600000Y-74345000D03*
D27*
%TO.P,R17,2*%
%TO.N,Net-(C6-Pad1)*%
X121600000Y-71805000D03*
%TD*%
D26*
%TO.P,R36,1*%
%TO.N,Net-(Q5-Pad3)*%
X107850000Y-52325000D03*
D27*
%TO.P,R36,2*%
%TO.N,Net-(C1-Pad2)*%
X105310000Y-52325000D03*
%TD*%
D25*
%TO.P,R51,1*%
%TO.N,Net-(J2-Pad9)*%
X138531229Y-91062069D03*
%TO.P,R51,2*%
%TO.N,Net-(Q20-Pad1)*%
X140531229Y-91062069D03*
%TD*%
D18*
%TO.P,D9,1,K*%
%TO.N,Net-(D9-Pad1)*%
X160600000Y-81000000D03*
D19*
%TO.P,D9,2,A*%
%TO.N,Net-(D9-Pad2)*%
X158060000Y-81000000D03*
%TD*%
D26*
%TO.P,R12,1*%
%TO.N,Net-(R12-Pad1)*%
X107000000Y-74345000D03*
D27*
%TO.P,R12,2*%
%TO.N,Net-(C1-Pad1)*%
X107000000Y-71805000D03*
%TD*%
D34*
%TO.P,Q21,1,B*%
%TO.N,Net-(Q21-Pad1)*%
X112378202Y-88923835D03*
%TO.P,Q21,2,E*%
%TO.N,GNDREF*%
X114278202Y-88923835D03*
%TO.P,Q21,3,C*%
%TO.N,Net-(Q21-Pad3)*%
X113328202Y-87048835D03*
%TD*%
D25*
%TO.P,R10,1*%
%TO.N,Net-(D9-Pad2)*%
X158300002Y-83300000D03*
%TO.P,R10,2*%
%TO.N,+5V*%
X160300002Y-83300000D03*
%TD*%
D20*
%TO.P,R3,1*%
%TO.N,+5V*%
X55800002Y-83300000D03*
%TO.P,R3,2*%
%TO.N,Net-(D2-Pad2)*%
X53800002Y-83300000D03*
%TD*%
D26*
%TO.P,R15,1*%
%TO.N,Net-(R15-Pad1)*%
X77100000Y-74345000D03*
D27*
%TO.P,R15,2*%
%TO.N,Net-(C4-Pad1)*%
X77100000Y-71805000D03*
%TD*%
D34*
%TO.P,Q16,1,B*%
%TO.N,Net-(Q16-Pad1)*%
X36813202Y-88923835D03*
%TO.P,Q16,2,E*%
%TO.N,GNDREF*%
X38713202Y-88923835D03*
%TO.P,Q16,3,C*%
%TO.N,Net-(Q16-Pad3)*%
X37763202Y-87048835D03*
%TD*%
D28*
%TO.P,Q6,1,A1*%
%TO.N,Net-(C6-Pad2)*%
X115278866Y-57529606D03*
D29*
%TO.P,Q6,2,A2*%
%TO.N,LINE*%
X117818866Y-57529606D03*
%TO.P,Q6,3,G*%
%TO.N,Net-(Q6-Pad3)*%
X120358866Y-57529606D03*
%TD*%
D26*
%TO.P,R23,1*%
%TO.N,LINE*%
X45400000Y-61555000D03*
D27*
%TO.P,R23,2*%
%TO.N,Net-(C2-Pad1)*%
X45400000Y-64095000D03*
%TD*%
D23*
%TO.P,U4,1*%
%TO.N,Net-(D3-Pad1)*%
X73358866Y-88239803D03*
D24*
%TO.P,U4,2*%
%TO.N,Net-(Q12-Pad3)*%
X75898866Y-88239803D03*
%TO.P,U4,3,NC*%
%TO.N,unconnected-(U4-Pad3)*%
X78438866Y-88239803D03*
%TO.P,U4,4*%
%TO.N,Net-(Q3-Pad3)*%
X78438866Y-80619803D03*
%TO.P,U4,5,NC*%
%TO.N,unconnected-(U4-Pad5)*%
X75898866Y-80619803D03*
%TO.P,U4,6*%
%TO.N,Net-(R15-Pad1)*%
X73358866Y-80619803D03*
%TD*%
D31*
%TO.P,JP4,1,A*%
%TO.N,Net-(C1-Pad2)*%
X98788866Y-52320000D03*
D32*
%TO.P,JP4,2,B*%
%TO.N,LINE*%
X101328866Y-52320000D03*
%TD*%
D26*
%TO.P,R20,1*%
%TO.N,Net-(R20-Pad1)*%
X167300000Y-74345000D03*
D27*
%TO.P,R20,2*%
%TO.N,Net-(C9-Pad1)*%
X167300000Y-71805000D03*
%TD*%
D33*
%TO.P,RV5,1*%
%TO.N,NEUT*%
X106700000Y-49200000D03*
%TO.P,RV5,2*%
%TO.N,Net-(C1-Pad2)*%
X101700000Y-48000000D03*
%TD*%
D50*
%TO.N,+5V*%
X93000000Y-84300000D03*
X83350000Y-95550000D03*
X122000000Y-84400000D03*
%TD*%
D51*
%TO.N,Net-(C6-Pad1)*%
X121600000Y-71805000D02*
X121600000Y-64095000D01*
%TO.N,Net-(C2-Pad2)*%
X36600000Y-56193894D02*
X36600000Y-52300000D01*
X39364073Y-58957967D02*
X36600000Y-56193894D01*
X39364073Y-61364655D02*
X39364073Y-58957967D01*
D52*
X40600000Y-44036452D02*
X38228894Y-41665346D01*
X43340000Y-52040000D02*
X40600000Y-49300000D01*
X40600000Y-49300000D02*
X40600000Y-44036452D01*
X43340000Y-52325000D02*
X43340000Y-52040000D01*
D51*
X36600000Y-52300000D02*
X36600000Y-43294240D01*
X36600000Y-43294240D02*
X38228894Y-41665346D01*
%TO.N,Net-(C1-Pad1)*%
X107000000Y-71805000D02*
X107000000Y-64095000D01*
%TO.N,Net-(C9-Pad1)*%
X167300000Y-71805000D02*
X167300000Y-64095000D01*
%TO.N,Net-(C10-Pad1)*%
X182500000Y-71805000D02*
X182500000Y-64400000D01*
%TO.N,Net-(C11-Pad1)*%
X196500000Y-71805000D02*
X196500000Y-64095000D01*
X190300000Y-72900000D02*
X190300000Y-76300000D01*
X191395000Y-71805000D02*
X190300000Y-72900000D01*
X196500000Y-71805000D02*
X191395000Y-71805000D01*
%TO.N,Net-(C9-Pad1)*%
X161000000Y-76300000D02*
X161100000Y-76400000D01*
X161000000Y-72600000D02*
X161000000Y-76300000D01*
X161795000Y-71805000D02*
X161000000Y-72600000D01*
X167300000Y-71805000D02*
X161795000Y-71805000D01*
%TO.N,Net-(C10-Pad1)*%
X177195000Y-71805000D02*
X176300000Y-72700000D01*
X176300000Y-72700000D02*
X176300000Y-76300000D01*
X182500000Y-71805000D02*
X177195000Y-71805000D01*
%TO.N,Net-(C7-Pad1)*%
X136200000Y-71805000D02*
X136200000Y-64095000D01*
X129900000Y-76300000D02*
X130000000Y-76400000D01*
X129900000Y-72300000D02*
X129900000Y-76300000D01*
X130395000Y-71805000D02*
X129900000Y-72300000D01*
X136200000Y-71805000D02*
X130395000Y-71805000D01*
%TO.N,Net-(C8-Pad1)*%
X151400000Y-71805000D02*
X151400000Y-64095000D01*
X145200000Y-72700000D02*
X145200000Y-76400000D01*
X146095000Y-71805000D02*
X145200000Y-72700000D01*
X151400000Y-71805000D02*
X146095000Y-71805000D01*
%TO.N,Net-(C6-Pad1)*%
X115300000Y-72500000D02*
X115300000Y-76400000D01*
X115995000Y-71805000D02*
X115300000Y-72500000D01*
X121600000Y-71805000D02*
X115995000Y-71805000D01*
%TO.N,Net-(C1-Pad1)*%
X100700000Y-72400000D02*
X100700000Y-76400000D01*
X101295000Y-71805000D02*
X100700000Y-72400000D01*
X107000000Y-71805000D02*
X101295000Y-71805000D01*
%TO.N,Net-(C5-Pad1)*%
X91800000Y-64195000D02*
X91700000Y-64095000D01*
X91800000Y-71805000D02*
X91800000Y-64195000D01*
X85500000Y-72700000D02*
X85500000Y-76200000D01*
X86395000Y-71805000D02*
X85500000Y-72700000D01*
X91800000Y-71805000D02*
X86395000Y-71805000D01*
X85500000Y-76200000D02*
X85600000Y-76300000D01*
%TO.N,Net-(C3-Pad1)*%
X62500000Y-64095000D02*
X62500000Y-71805000D01*
%TO.N,Net-(C2-Pad1)*%
X45400000Y-64095000D02*
X45400000Y-71805000D01*
X39364073Y-72535927D02*
X39364073Y-76364655D01*
X40095000Y-71805000D02*
X39364073Y-72535927D01*
X45400000Y-71805000D02*
X40095000Y-71805000D01*
%TO.N,Net-(C3-Pad1)*%
X56500000Y-72800000D02*
X56500000Y-76400000D01*
X57495000Y-71805000D02*
X56500000Y-72800000D01*
X62500000Y-71805000D02*
X57495000Y-71805000D01*
%TO.N,Net-(C4-Pad1)*%
X71000000Y-73000000D02*
X71000000Y-76400000D01*
X72195000Y-71805000D02*
X71000000Y-73000000D01*
X77100000Y-71805000D02*
X72195000Y-71805000D01*
X77100000Y-71805000D02*
X77100000Y-64095000D01*
D53*
%TO.N,Net-(J1-Pad2)*%
X90505197Y-112109803D02*
X90830000Y-111785000D01*
X88630000Y-112109803D02*
X90505197Y-112109803D01*
X87500000Y-109200000D02*
X88245000Y-109200000D01*
X88245000Y-109200000D02*
X90830000Y-111785000D01*
X90830000Y-111785000D02*
X90830000Y-119380000D01*
X44405000Y-109220000D02*
X70485000Y-109220000D01*
D54*
X70485000Y-110490000D02*
X70485000Y-109220000D01*
X68227175Y-112747825D02*
X65656956Y-112747825D01*
D53*
X70485000Y-109220000D02*
X87480000Y-109220000D01*
D54*
X68227175Y-112747825D02*
X70485000Y-110490000D01*
D53*
X87480000Y-109220000D02*
X87500000Y-109200000D01*
D55*
%TO.N,GNDREF*%
X189500000Y-86000000D02*
X189200000Y-85700000D01*
X35500000Y-85900000D02*
X35500000Y-92700000D01*
X99876165Y-88923835D02*
X100200000Y-88600000D01*
X114800000Y-88402037D02*
X114800000Y-85700000D01*
X84900000Y-88457037D02*
X84433202Y-88923835D01*
X88265000Y-118110000D02*
X88265000Y-119355000D01*
X55276165Y-88923835D02*
X55700000Y-88500000D01*
X70300000Y-86000000D02*
X70600000Y-85700000D01*
X48620000Y-96520000D02*
X72602500Y-96520000D01*
D56*
X88265000Y-103505000D02*
X88265000Y-101600000D01*
D55*
X57000000Y-85700000D02*
X39300000Y-85700000D01*
X69828202Y-88923835D02*
X69852037Y-88900000D01*
X88900000Y-115570000D02*
X88900000Y-117475000D01*
X189200000Y-85700000D02*
X160300000Y-85700000D01*
D53*
X144494803Y-107664803D02*
X138080197Y-107664803D01*
D55*
X160300000Y-85700000D02*
X160500000Y-85900000D01*
X35700000Y-85700000D02*
X35500000Y-85900000D01*
X188950000Y-88537500D02*
X189362500Y-88537500D01*
X84900000Y-85800000D02*
X84900000Y-88457037D01*
X39200000Y-88300000D02*
X39200000Y-85700000D01*
X99400000Y-107000000D02*
X92700000Y-107000000D01*
X37400000Y-94600000D02*
X46700000Y-94600000D01*
X39200000Y-85700000D02*
X35700000Y-85700000D01*
X175136335Y-88637500D02*
X175400000Y-88373835D01*
X114278202Y-88923835D02*
X114800000Y-88402037D01*
X88900000Y-105900000D02*
X88265000Y-105265000D01*
X72400000Y-85700000D02*
X57100000Y-85700000D01*
X38713202Y-88923835D02*
X39200000Y-88437037D01*
X88265000Y-105265000D02*
X88265000Y-103505000D01*
X114800000Y-85700000D02*
X71400000Y-85700000D01*
X128883202Y-88923835D02*
X129076165Y-88923835D01*
X88265000Y-119355000D02*
X88290000Y-119380000D01*
D53*
X146923366Y-110093366D02*
X144494803Y-107664803D01*
D55*
X144800000Y-85700000D02*
X113700000Y-85700000D01*
X144600000Y-85700000D02*
X144600000Y-88447037D01*
D53*
X146923366Y-114352540D02*
X146923366Y-110093366D01*
D55*
X129400000Y-88600000D02*
X129400000Y-86000000D01*
X69852037Y-88900000D02*
X70300000Y-88900000D01*
X35500000Y-92700000D02*
X37400000Y-94600000D01*
X88667500Y-115570000D02*
X88400000Y-115837500D01*
X99727138Y-88923835D02*
X99876165Y-88923835D01*
X55709175Y-88656845D02*
X55709175Y-85809175D01*
X84433202Y-85800000D02*
X84900000Y-85800000D01*
X101100000Y-111975000D02*
X101100000Y-108700000D01*
X129400000Y-86000000D02*
X129700000Y-85700000D01*
X175400000Y-88373835D02*
X175400000Y-85700000D01*
X70300000Y-88900000D02*
X70300000Y-86000000D01*
X160500000Y-85900000D02*
X160500000Y-88422037D01*
X46700000Y-94600000D02*
X48620000Y-96520000D01*
X189500000Y-88400000D02*
X189500000Y-86000000D01*
X129076165Y-88923835D02*
X129400000Y-88600000D01*
X39200000Y-88437037D02*
X39200000Y-88200000D01*
X160500000Y-88422037D02*
X159998202Y-88923835D01*
D53*
X138080197Y-107664803D02*
X137795000Y-107950000D01*
D55*
X100200000Y-88600000D02*
X100200000Y-85900000D01*
X189362500Y-88537500D02*
X189500000Y-88400000D01*
D56*
X88265000Y-101600000D02*
X87630000Y-100965000D01*
X80270000Y-100965000D02*
X80010000Y-101225000D01*
D55*
X92700000Y-107000000D02*
X91600000Y-105900000D01*
X144600000Y-88447037D02*
X144123202Y-88923835D01*
D56*
X87630000Y-100965000D02*
X80270000Y-100965000D01*
D55*
X163400000Y-85700000D02*
X144700000Y-85700000D01*
X174850000Y-88637500D02*
X175136335Y-88637500D01*
X55223202Y-88923835D02*
X55276165Y-88923835D01*
X88900000Y-117475000D02*
X88265000Y-118110000D01*
X88400000Y-115837500D02*
X88400000Y-119270000D01*
X88400000Y-119270000D02*
X88290000Y-119380000D01*
X91600000Y-105900000D02*
X88900000Y-105900000D01*
X101100000Y-108700000D02*
X99400000Y-107000000D01*
%TO.N,Net-(D1-Pad2)*%
X36160000Y-80900000D02*
X36160000Y-82759998D01*
X36160000Y-82759998D02*
X36700002Y-83300000D01*
%TO.N,Net-(R57-Pad1)*%
X78800000Y-104200000D02*
X75400000Y-104200000D01*
X94100000Y-116900000D02*
X94100000Y-111900000D01*
X75400000Y-104200000D02*
X74930000Y-103730000D01*
X74930000Y-103730000D02*
X74930000Y-101930000D01*
X89500000Y-107300000D02*
X80360000Y-107300000D01*
X79105000Y-106045000D02*
X79105000Y-104505000D01*
X79105000Y-104505000D02*
X78800000Y-104200000D01*
X102500000Y-116900000D02*
X94100000Y-116900000D01*
X74930000Y-101930000D02*
X74600000Y-101600000D01*
X74600000Y-101600000D02*
X72390000Y-101600000D01*
X103530000Y-119380000D02*
X103530000Y-117930000D01*
X103530000Y-117930000D02*
X102500000Y-116900000D01*
X80360000Y-107300000D02*
X79105000Y-106045000D01*
X94100000Y-111900000D02*
X89500000Y-107300000D01*
%TO.N,Net-(D4-Pad2)*%
X82800002Y-83300000D02*
X82800002Y-81140002D01*
X82800002Y-81140002D02*
X82560000Y-80900000D01*
%TO.N,+3V3*%
X72602500Y-104140000D02*
X49640000Y-104140000D01*
X72602500Y-104352500D02*
X72602500Y-104140000D01*
X85775000Y-115570000D02*
X85750000Y-115545000D01*
X43935000Y-113500000D02*
X44405000Y-113030000D01*
X41910000Y-102870000D02*
X41500000Y-103280000D01*
D56*
X43135000Y-114300000D02*
X84439803Y-114300000D01*
X85709803Y-113030000D02*
X86630000Y-112109803D01*
X85750000Y-115545000D02*
X85750000Y-113070197D01*
D55*
X86592500Y-115570000D02*
X85775000Y-115570000D01*
X41500000Y-103280000D02*
X41500000Y-111900000D01*
D56*
X85750000Y-113070197D02*
X85709803Y-113030000D01*
D55*
X49640000Y-104140000D02*
X48370000Y-102870000D01*
D56*
X84439803Y-114300000D02*
X85709803Y-113030000D01*
X44405000Y-113030000D02*
X43135000Y-114300000D01*
D55*
X41500000Y-111900000D02*
X43100000Y-113500000D01*
X77105000Y-106045000D02*
X74295000Y-106045000D01*
D56*
X85750000Y-119380000D02*
X85750000Y-115545000D01*
D55*
X74295000Y-106045000D02*
X72602500Y-104352500D01*
X48370000Y-102870000D02*
X41910000Y-102870000D01*
X43100000Y-113500000D02*
X43935000Y-113500000D01*
%TO.N,+5V*%
X189100000Y-84700000D02*
X189300002Y-84499998D01*
X84800002Y-84400002D02*
X85100000Y-84700000D01*
X175300002Y-83300000D02*
X175300002Y-84599998D01*
X100000002Y-83300000D02*
X100000002Y-84600002D01*
X114700002Y-84400002D02*
X115000000Y-84700000D01*
X84800002Y-83300000D02*
X84800002Y-84400002D01*
X160300002Y-84400002D02*
X160600000Y-84700000D01*
X55800002Y-83300000D02*
X55800002Y-84699998D01*
D53*
X146792460Y-98952540D02*
X142875000Y-102870000D01*
D55*
X124300000Y-84700000D02*
X124400000Y-84600000D01*
X70300000Y-84700000D02*
X85100000Y-84700000D01*
X144500000Y-84700000D02*
X160600000Y-84700000D01*
X160600000Y-84700000D02*
X175200000Y-84700000D01*
X55800002Y-84699998D02*
X55800000Y-84700000D01*
X129400002Y-83300000D02*
X129400002Y-84500002D01*
X70200002Y-83300000D02*
X70200002Y-84600002D01*
X100100000Y-84700000D02*
X115000000Y-84700000D01*
X39500000Y-84700000D02*
X55800000Y-84700000D01*
X144600002Y-83300000D02*
X144600002Y-84599998D01*
X129400002Y-84500002D02*
X129600000Y-84700000D01*
X85100000Y-84700000D02*
X100100000Y-84700000D01*
X55800000Y-84700000D02*
X70300000Y-84700000D01*
D56*
X83475000Y-95625000D02*
X80010000Y-95625000D01*
X84350000Y-96500000D02*
X83475000Y-95625000D01*
D55*
X70200002Y-84600002D02*
X70300000Y-84700000D01*
X120700000Y-84700000D02*
X129600000Y-84700000D01*
X38700002Y-83900002D02*
X39500000Y-84700000D01*
X124400000Y-84600000D02*
X124200000Y-84400000D01*
X189300002Y-84499998D02*
X189300002Y-83300000D01*
X129600000Y-84700000D02*
X144500000Y-84700000D01*
X175200000Y-84700000D02*
X189100000Y-84700000D01*
X115000000Y-84700000D02*
X120700000Y-84700000D01*
D56*
X146923366Y-98952540D02*
X146792460Y-98952540D01*
D53*
X142875000Y-102870000D02*
X137795000Y-102870000D01*
D55*
X38700002Y-83300000D02*
X38700002Y-83900002D01*
X114700002Y-83300000D02*
X114700002Y-84400002D01*
X160300002Y-83300000D02*
X160300002Y-84400002D01*
X120700000Y-84700000D02*
X124300000Y-84700000D01*
X144600002Y-84599998D02*
X144500000Y-84700000D01*
D56*
X93000000Y-84300000D02*
X94000000Y-84300000D01*
D55*
X100000002Y-84600002D02*
X100100000Y-84700000D01*
D56*
X124200000Y-84400000D02*
X122000000Y-84400000D01*
D55*
X175300002Y-84599998D02*
X175200000Y-84700000D01*
%TO.N,Net-(J2-Pad11)*%
X169104140Y-91800000D02*
X169842071Y-91062069D01*
X113665000Y-106680000D02*
X118770000Y-111785000D01*
X113665000Y-100965000D02*
X114824265Y-99805735D01*
X114824265Y-99805735D02*
X132154933Y-99805735D01*
X161500000Y-94200000D02*
X163900000Y-91800000D01*
X137753864Y-94200000D02*
X161500000Y-94200000D01*
X135609751Y-96350917D02*
X135609751Y-96344113D01*
X132154933Y-99805735D02*
X135609751Y-96350917D01*
X163900000Y-91800000D02*
X169104140Y-91800000D01*
X113665000Y-103505000D02*
X113665000Y-100965000D01*
X135609751Y-96344113D02*
X137753864Y-94200000D01*
X118770000Y-111785000D02*
X118770000Y-119380000D01*
X113665000Y-103505000D02*
X113665000Y-106680000D01*
%TO.N,Net-(J2-Pad10)*%
X107950000Y-114935000D02*
X110490000Y-114935000D01*
X106769287Y-106651564D02*
X105410000Y-108010851D01*
X113315197Y-98139803D02*
X130307773Y-98139803D01*
X111125000Y-103505000D02*
X111125000Y-100330000D01*
X105410000Y-112395000D02*
X107950000Y-114935000D01*
X136800000Y-92900000D02*
X150300000Y-92900000D01*
X105410000Y-108010851D02*
X105410000Y-112395000D01*
X111125000Y-104775000D02*
X109248436Y-106651564D01*
X111125000Y-103505000D02*
X111125000Y-104775000D01*
X131585179Y-98114821D02*
X136800000Y-92900000D01*
X150300000Y-92900000D02*
X152137931Y-91062069D01*
X110490000Y-114935000D02*
X111150000Y-115595000D01*
X111125000Y-100330000D02*
X113315197Y-98139803D01*
X152137931Y-91062069D02*
X154321633Y-91062069D01*
X109248436Y-106651564D02*
X106769287Y-106651564D01*
X130516569Y-98114821D02*
X131585179Y-98114821D01*
X111150000Y-115595000D02*
X111150000Y-119380000D01*
X130516569Y-98114820D02*
G75*
G02*
X130307773Y-98139802I-229469J1032820D01*
G01*
%TO.N,Net-(J2-Pad9)*%
X108610000Y-103480000D02*
X108585000Y-103505000D01*
X109220000Y-96520000D02*
X130980000Y-96520000D01*
X136437931Y-91062069D02*
X138531229Y-91062069D01*
X108610000Y-93980000D02*
X108610000Y-95910000D01*
X130980000Y-96520000D02*
X136437931Y-91062069D01*
X108610000Y-95910000D02*
X109220000Y-96520000D01*
X108610000Y-95910000D02*
X108610000Y-103480000D01*
%TO.N,Net-(J2-Pad7)*%
X103200000Y-94800000D02*
X103200000Y-102200000D01*
X106162069Y-91900000D02*
X107000000Y-91062069D01*
X103530000Y-94470000D02*
X103200000Y-94800000D01*
X104400000Y-91900000D02*
X106162069Y-91900000D01*
X103530000Y-93980000D02*
X103530000Y-94470000D01*
X103530000Y-92770000D02*
X104400000Y-91900000D01*
X103200000Y-102200000D02*
X103600000Y-102600000D01*
X103530000Y-93980000D02*
X103530000Y-92770000D01*
%TO.N,Net-(J2-Pad6)*%
X100990000Y-94610000D02*
X100700000Y-94900000D01*
X100700000Y-94900000D02*
X100700000Y-102200000D01*
X100990000Y-93980000D02*
X100990000Y-94610000D01*
X101400000Y-93570000D02*
X100990000Y-93980000D01*
X101400000Y-91700000D02*
X101400000Y-93570000D01*
X100700000Y-102200000D02*
X101100000Y-102600000D01*
D51*
%TO.N,LINE*%
X187564448Y-99728579D02*
X187564448Y-95128579D01*
X181480866Y-109529803D02*
X176700629Y-109529803D01*
X161640000Y-53340000D02*
X163244606Y-54944606D01*
D53*
X147044606Y-54944606D02*
X131944606Y-54944606D01*
X116144606Y-54944606D02*
X103044606Y-54944606D01*
D51*
X86038866Y-52300000D02*
X86038866Y-54828078D01*
X163538866Y-57529606D02*
X163538866Y-55238866D01*
D53*
X147544606Y-54944606D02*
X147044606Y-54944606D01*
D51*
X148268866Y-52300000D02*
X148268866Y-53720346D01*
D53*
X161144606Y-54944606D02*
X148555394Y-54944606D01*
D51*
X187358579Y-99728579D02*
X185420000Y-97790000D01*
D53*
X71744606Y-54944606D02*
X58855394Y-54944606D01*
D51*
X173355000Y-97790000D02*
X170180000Y-100965000D01*
X163538866Y-55238866D02*
X163244606Y-54944606D01*
X73368866Y-57529606D02*
X73368866Y-55431134D01*
X129853866Y-54446134D02*
X129355394Y-54944606D01*
X103213866Y-55113866D02*
X103044606Y-54944606D01*
D53*
X87444606Y-54944606D02*
X86155394Y-54944606D01*
X101455394Y-54944606D02*
X87444606Y-54944606D01*
D51*
X71433866Y-52300000D02*
X71433866Y-54633866D01*
D53*
X129355394Y-54944606D02*
X118255394Y-54944606D01*
D51*
X178778866Y-55168078D02*
X178555394Y-54944606D01*
X161640000Y-52300000D02*
X161640000Y-53340000D01*
X101328866Y-52320000D02*
X101328866Y-54818078D01*
X58763866Y-55036134D02*
X58855394Y-54944606D01*
X176240000Y-54060000D02*
X175355394Y-54944606D01*
X39140000Y-52300000D02*
X39140000Y-54784606D01*
X195165000Y-106900000D02*
X192000000Y-106900000D01*
D53*
X56844606Y-54944606D02*
X42055394Y-54944606D01*
D51*
X190740000Y-52300000D02*
X190740000Y-54060000D01*
X192000000Y-106900000D02*
X187871421Y-111028579D01*
X117818866Y-57529606D02*
X117818866Y-55381134D01*
D53*
X42055394Y-54944606D02*
X39300000Y-54944606D01*
X191744606Y-54944606D02*
X189855394Y-54944606D01*
D51*
X185420000Y-97790000D02*
X173355000Y-97790000D01*
D53*
X118255394Y-54944606D02*
X117844606Y-54944606D01*
X148555394Y-54944606D02*
X147544606Y-54944606D01*
X192100000Y-55300000D02*
X191744606Y-54944606D01*
X189855394Y-54944606D02*
X178555394Y-54944606D01*
D51*
X176240000Y-52629212D02*
X178555394Y-54944606D01*
X170180000Y-100965000D02*
X170180000Y-106045000D01*
X41618866Y-55381134D02*
X42055394Y-54944606D01*
X148268866Y-52300000D02*
X148268866Y-54658078D01*
D53*
X181480866Y-109544997D02*
X187564448Y-115628579D01*
D51*
X161640000Y-54449212D02*
X161144606Y-54944606D01*
X148268866Y-53720346D02*
X147044606Y-54944606D01*
X132423866Y-55423866D02*
X131944606Y-54944606D01*
X129853866Y-52853866D02*
X131944606Y-54944606D01*
X187564448Y-99728579D02*
X187358579Y-99728579D01*
X186065672Y-109529803D02*
X181480866Y-109529803D01*
X115883866Y-52300000D02*
X115883866Y-54683866D01*
X56925697Y-54863515D02*
X56844606Y-54944606D01*
X187564448Y-95128579D02*
X195736421Y-95128579D01*
X115883866Y-52300000D02*
X115883866Y-52983866D01*
X187871421Y-111028579D02*
X187564448Y-111028579D01*
X87973866Y-55473866D02*
X87444606Y-54944606D01*
X129853866Y-52300000D02*
X129853866Y-52853866D01*
D53*
X117844606Y-54944606D02*
X116144606Y-54944606D01*
D51*
X195800000Y-106265000D02*
X195165000Y-106900000D01*
X147663866Y-57529606D02*
X147663866Y-55063866D01*
X41618866Y-57529606D02*
X41618866Y-55381134D01*
X192100000Y-55300000D02*
X192748866Y-55948866D01*
X103213866Y-57529606D02*
X103213866Y-55113866D01*
X161640000Y-52300000D02*
X161640000Y-54449212D01*
D53*
X163244606Y-54944606D02*
X161144606Y-54944606D01*
D51*
X115883866Y-54683866D02*
X116144606Y-54944606D01*
X39140000Y-54784606D02*
X39300000Y-54944606D01*
X187564448Y-111028579D02*
X186065672Y-109529803D01*
X115883866Y-52983866D02*
X117844606Y-54944606D01*
X56925697Y-52300000D02*
X56925697Y-54863515D01*
X147663866Y-55063866D02*
X147544606Y-54944606D01*
X129853866Y-52300000D02*
X129853866Y-54446134D01*
X132423866Y-57529606D02*
X132423866Y-55423866D01*
D53*
X103044606Y-54944606D02*
X101455394Y-54944606D01*
D51*
X173287540Y-109152540D02*
X176323366Y-109152540D01*
D53*
X58855394Y-54944606D02*
X56844606Y-54944606D01*
D51*
X87973866Y-57529606D02*
X87973866Y-55473866D01*
D53*
X131944606Y-54944606D02*
X129355394Y-54944606D01*
D51*
X86038866Y-54828078D02*
X86155394Y-54944606D01*
X178778866Y-57529606D02*
X178778866Y-55168078D01*
X190740000Y-54060000D02*
X189855394Y-54944606D01*
D53*
X178555394Y-54944606D02*
X175355394Y-54944606D01*
D51*
X190740000Y-53940000D02*
X190740000Y-52300000D01*
X170180000Y-106045000D02*
X173287540Y-109152540D01*
D53*
X181480866Y-109529803D02*
X181480866Y-109544997D01*
D51*
X58763866Y-57529606D02*
X58763866Y-55036134D01*
X176240000Y-52300000D02*
X176240000Y-52629212D01*
D53*
X73855394Y-54944606D02*
X71744606Y-54944606D01*
D51*
X192748866Y-55948866D02*
X192748866Y-57529606D01*
X117818866Y-55381134D02*
X118255394Y-54944606D01*
X71433866Y-54633866D02*
X71744606Y-54944606D01*
D53*
X86155394Y-54944606D02*
X73855394Y-54944606D01*
D51*
X73368866Y-55431134D02*
X73855394Y-54944606D01*
X148268866Y-54658078D02*
X148555394Y-54944606D01*
X187564448Y-115628579D02*
X187564448Y-111028579D01*
X176700629Y-109529803D02*
X176323366Y-109152540D01*
X101328866Y-54818078D02*
X101455394Y-54944606D01*
D53*
X175355394Y-54944606D02*
X163244606Y-54944606D01*
D51*
X176240000Y-52300000D02*
X176240000Y-54060000D01*
X192100000Y-55300000D02*
X190740000Y-53940000D01*
D55*
%TO.N,Net-(J2-Pad2)*%
X66600000Y-94200000D02*
X74900000Y-94200000D01*
X49900000Y-93700000D02*
X66100000Y-93700000D01*
X76000000Y-98900000D02*
X89700000Y-98900000D01*
X74900000Y-94200000D02*
X75565000Y-94865000D01*
X90805000Y-100005000D02*
X90805000Y-103505000D01*
X75565000Y-98465000D02*
X76000000Y-98900000D01*
X89700000Y-98900000D02*
X90805000Y-100005000D01*
X75565000Y-94865000D02*
X75565000Y-98465000D01*
X47355000Y-91062069D02*
X47355000Y-91155000D01*
X66100000Y-93700000D02*
X66600000Y-94200000D01*
X47355000Y-91155000D02*
X49900000Y-93700000D01*
%TO.N,Net-(J2-Pad3)*%
X103600000Y-113000000D02*
X103600000Y-108000000D01*
X64500000Y-91062069D02*
X65262069Y-91062069D01*
X77400000Y-94400000D02*
X77400000Y-97300000D01*
X93345000Y-105145000D02*
X93345000Y-102200000D01*
X77400000Y-97300000D02*
X78200000Y-98100000D01*
X75800000Y-92800000D02*
X77400000Y-94400000D01*
X103600000Y-108000000D02*
X101300000Y-105700000D01*
X108610000Y-119380000D02*
X108610000Y-118010000D01*
X65262069Y-91062069D02*
X67000000Y-92800000D01*
X67000000Y-92800000D02*
X75800000Y-92800000D01*
X93900000Y-105700000D02*
X93345000Y-105145000D01*
X101300000Y-105700000D02*
X93900000Y-105700000D01*
X93345000Y-99545000D02*
X93345000Y-104400000D01*
X91900000Y-98100000D02*
X93345000Y-99545000D01*
X78200000Y-98100000D02*
X91900000Y-98100000D01*
X108610000Y-118010000D02*
X103600000Y-113000000D01*
%TO.N,Net-(Q12-Pad1)*%
X67928202Y-90728202D02*
X68700000Y-91500000D01*
X76667069Y-91500000D02*
X77105000Y-91062069D01*
X67928202Y-88923835D02*
X67928202Y-90728202D01*
X68700000Y-91500000D02*
X76667069Y-91500000D01*
%TO.N,Net-(Q13-Pad1)*%
X82533202Y-88923835D02*
X82533202Y-90466798D01*
X93762069Y-91100000D02*
X93800000Y-91062069D01*
X82533202Y-90466798D02*
X82500000Y-90500000D01*
X83100000Y-91100000D02*
X93762069Y-91100000D01*
X82500000Y-90500000D02*
X83100000Y-91100000D01*
%TO.N,Net-(D2-Pad2)*%
X53360000Y-82859998D02*
X53800002Y-83300000D01*
X53360000Y-80900000D02*
X53360000Y-82859998D01*
%TO.N,Net-(D3-Pad2)*%
X67935000Y-80900000D02*
X67935000Y-81565000D01*
X67935000Y-81565000D02*
X67500000Y-82000000D01*
X67500000Y-82599998D02*
X68200002Y-83300000D01*
X67500000Y-82000000D02*
X67500000Y-82599998D01*
%TO.N,Net-(Q17-Pad1)*%
X158098202Y-88923835D02*
X158098202Y-90501798D01*
X157537931Y-91062069D02*
X156321633Y-91062069D01*
X158098202Y-90501798D02*
X157537931Y-91062069D01*
%TO.N,Net-(Q18-Pad1)*%
X98900000Y-91700000D02*
X97827138Y-90627138D01*
X97827138Y-90627138D02*
X97827138Y-88923835D01*
X99400000Y-91700000D02*
X98900000Y-91700000D01*
%TO.N,Net-(Q19-Pad1)*%
X126537931Y-91062069D02*
X125144489Y-91062069D01*
X126983202Y-90583202D02*
X127000000Y-90600000D01*
X127000000Y-90600000D02*
X126537931Y-91062069D01*
X126983202Y-88923835D02*
X126983202Y-90583202D01*
%TO.N,Net-(Q20-Pad1)*%
X141437931Y-91062069D02*
X140531229Y-91062069D01*
X142223202Y-90276798D02*
X141437931Y-91062069D01*
X142223202Y-88923835D02*
X142223202Y-90276798D01*
%TO.N,Net-(J2-Pad12)*%
X132589265Y-101710735D02*
X138700000Y-95600000D01*
X163100000Y-95500000D02*
X165300000Y-93300000D01*
X164317417Y-94302045D02*
X164328623Y-94302045D01*
X138700000Y-95600000D02*
X139400000Y-95600000D01*
X116205000Y-103505000D02*
X116205000Y-104775000D01*
X121310000Y-109880000D02*
X121310000Y-119380000D01*
X180800000Y-93300000D02*
X183037931Y-91062069D01*
X164328623Y-94302045D02*
X165000000Y-93630668D01*
X116205000Y-102235000D02*
X116729265Y-101710735D01*
X116205000Y-103505000D02*
X116205000Y-102235000D01*
X183037931Y-91062069D02*
X183686858Y-91062069D01*
X165300000Y-93300000D02*
X180800000Y-93300000D01*
X116205000Y-104775000D02*
X121310000Y-109880000D01*
X139100000Y-95600000D02*
X163019462Y-95600000D01*
X116729265Y-101710735D02*
X132589265Y-101710735D01*
X163019462Y-95600000D02*
X164317417Y-94302045D01*
D51*
%TO.N,NEUT*%
X198465687Y-99418389D02*
X198468426Y-99418389D01*
X75660000Y-44355000D02*
X74903080Y-45111920D01*
X118789531Y-45111920D02*
X105436920Y-45111920D01*
X202000000Y-95886815D02*
X202000000Y-49400000D01*
X121700000Y-46770000D02*
X120041920Y-45111920D01*
X150660000Y-44920000D02*
X150468080Y-45111920D01*
X192400000Y-102800000D02*
X184600000Y-102800000D01*
X120660000Y-44493840D02*
X120041920Y-45111920D01*
D56*
X183600000Y-103800000D02*
X183700000Y-103700000D01*
X182680866Y-104529803D02*
X182870197Y-104529803D01*
D51*
X152068866Y-46712706D02*
X150468080Y-45111920D01*
X90660000Y-44590066D02*
X90138146Y-45111920D01*
D56*
X182870197Y-104529803D02*
X183600000Y-103800000D01*
D51*
X195542457Y-99657457D02*
X197891266Y-99657457D01*
X164559991Y-45111920D02*
X150468080Y-45111920D01*
X134288866Y-49200000D02*
X134288866Y-47288866D01*
X201500000Y-110600000D02*
X196545000Y-110600000D01*
X180660000Y-41910000D02*
X180660000Y-44770000D01*
X198410347Y-99473729D02*
X198465687Y-99418389D01*
X195660000Y-41910000D02*
X195660000Y-44530000D01*
X105436920Y-45111920D02*
X104460805Y-45111920D01*
X197451650Y-45111920D02*
X196241920Y-45111920D01*
X47488080Y-45111920D02*
X47638772Y-45111920D01*
X135283250Y-45111920D02*
X149489696Y-45111920D01*
X181001920Y-45111920D02*
X165811920Y-45111920D01*
X76700000Y-46908840D02*
X74903080Y-45111920D01*
D56*
X182000000Y-103300000D02*
X182680866Y-103980866D01*
D51*
X105660000Y-41910000D02*
X105660000Y-44888840D01*
X181300000Y-48800000D02*
X181300000Y-47400000D01*
D56*
X176347460Y-104152540D02*
X177200000Y-103300000D01*
D51*
X201700000Y-100300000D02*
X201700000Y-110400000D01*
X120660000Y-41910000D02*
X120660000Y-44493840D01*
X165811920Y-48311920D02*
X165811920Y-45111920D01*
X201800000Y-49156222D02*
X200900080Y-48256302D01*
X61700000Y-46460000D02*
X60351920Y-45111920D01*
X121700000Y-49200000D02*
X121700000Y-46770000D01*
X196300000Y-49200000D02*
X196300000Y-45170000D01*
X152068866Y-49200000D02*
X152068866Y-46712706D01*
X181300000Y-47400000D02*
X181001920Y-47101920D01*
X165811920Y-45111920D02*
X165018648Y-45111920D01*
X150468080Y-45111920D02*
X149608943Y-45111920D01*
X165660000Y-41910000D02*
X165660000Y-44470568D01*
X45200000Y-49200000D02*
X45200000Y-47400000D01*
X134288866Y-47288866D02*
X132111920Y-45111920D01*
D56*
X177200000Y-103300000D02*
X182000000Y-103300000D01*
D51*
X135660000Y-44735170D02*
X135283250Y-45111920D01*
X195542457Y-99657457D02*
X195542457Y-99657543D01*
X75660000Y-41910000D02*
X75660000Y-44355000D01*
X195660000Y-44530000D02*
X196241920Y-45111920D01*
X60660000Y-44803840D02*
X60351920Y-45111920D01*
X195900000Y-100015000D02*
X195542457Y-99657457D01*
D56*
X176323366Y-104152540D02*
X176347460Y-104152540D01*
D51*
X120041920Y-45111920D02*
X132111920Y-45111920D01*
X59295450Y-45111920D02*
X47638772Y-45111920D01*
X200764798Y-48086975D02*
X198028810Y-45350987D01*
X74903080Y-45111920D02*
X89616334Y-45111920D01*
X106700000Y-49200000D02*
X106700000Y-46375000D01*
X106700000Y-46375000D02*
X105436920Y-45111920D01*
X195800000Y-100145000D02*
X201545000Y-100145000D01*
X184600000Y-102800000D02*
X183600000Y-103800000D01*
X105660000Y-44888840D02*
X105436920Y-45111920D01*
X150660000Y-41910000D02*
X150660000Y-44920000D01*
X45200000Y-47400000D02*
X47488080Y-45111920D01*
X45660000Y-41910000D02*
X45660000Y-43133148D01*
X196545000Y-110600000D02*
X195800000Y-111345000D01*
X165660000Y-44470568D02*
X165018648Y-45111920D01*
X76700000Y-49200000D02*
X76700000Y-46908840D01*
X181700000Y-49200000D02*
X181300000Y-48800000D01*
X60351920Y-45111920D02*
X59435909Y-45111920D01*
X60660000Y-41910000D02*
X60660000Y-44803840D01*
X135660000Y-41910000D02*
X135660000Y-44735170D01*
X90660000Y-41910000D02*
X90660000Y-44590066D01*
X132111920Y-45111920D02*
X134701334Y-45111920D01*
X91700000Y-46673774D02*
X90138146Y-45111920D01*
X61700000Y-49200000D02*
X61700000Y-46460000D01*
X119349108Y-45111920D02*
X120041920Y-45111920D01*
X91700000Y-49200000D02*
X91700000Y-46673774D01*
X74510199Y-45111920D02*
X60351920Y-45111920D01*
X45660000Y-43133148D02*
X47638772Y-45111920D01*
X202000000Y-49400000D02*
X201800000Y-49200000D01*
X181001920Y-47101920D02*
X181001920Y-45111920D01*
D55*
X201545000Y-100145000D02*
X201700000Y-100300000D01*
D51*
X74728440Y-45111920D02*
X74903080Y-45111920D01*
X166700000Y-49200000D02*
X165811920Y-48311920D01*
D55*
X201700000Y-110400000D02*
X201500000Y-110600000D01*
D51*
X90138146Y-45111920D02*
X104440554Y-45111920D01*
X180660000Y-44770000D02*
X181001920Y-45111920D01*
D56*
X182680866Y-103980866D02*
X182680866Y-104529803D01*
D51*
X196241920Y-45111920D02*
X181001920Y-45111920D01*
X195542457Y-99657543D02*
X192400000Y-102800000D01*
X196300000Y-45170000D02*
X196241920Y-45111920D01*
X198468426Y-99418389D02*
X202000000Y-95886815D01*
X201800000Y-49200000D02*
X201800000Y-49156222D01*
X200764795Y-48086978D02*
G75*
G02*
X200900079Y-48256302I-718195J-712522D01*
G01*
X198410339Y-99473719D02*
G75*
G02*
X197891266Y-99657457I-522039J649719D01*
G01*
X197451650Y-45111942D02*
G75*
G02*
X198028809Y-45350988I50J-816158D01*
G01*
D55*
%TO.N,Net-(D5-Pad2)*%
X98000002Y-81265002D02*
X97735000Y-81000000D01*
X98000002Y-83300000D02*
X98000002Y-81265002D01*
%TO.N,Net-(D6-Pad2)*%
X112700002Y-81340002D02*
X112360000Y-81000000D01*
X112700002Y-83300000D02*
X112700002Y-81340002D01*
%TO.N,Net-(Q11-Pad3)*%
X54273202Y-90373202D02*
X54273202Y-87048835D01*
X54500000Y-90600000D02*
X54273202Y-90373202D01*
X61303866Y-89596134D02*
X60300000Y-90600000D01*
X60300000Y-90600000D02*
X54500000Y-90600000D01*
X61303866Y-88239803D02*
X61303866Y-89596134D01*
%TO.N,Net-(D7-Pad2)*%
X127160000Y-80900000D02*
X127160000Y-83059998D01*
X127160000Y-83059998D02*
X127400002Y-83300000D01*
%TO.N,Net-(D8-Pad2)*%
X142600002Y-81340002D02*
X142160000Y-80900000D01*
X142600002Y-83300000D02*
X142600002Y-81340002D01*
%TO.N,Net-(Q16-Pad1)*%
X45137931Y-91062069D02*
X43800000Y-92400000D01*
X45355000Y-91062069D02*
X45137931Y-91062069D01*
X43800000Y-92400000D02*
X37500000Y-92400000D01*
X37500000Y-92400000D02*
X36813202Y-91713202D01*
X36813202Y-91713202D02*
X36813202Y-88923835D01*
%TO.N,Net-(Q16-Pad3)*%
X44148866Y-89651134D02*
X44148866Y-88239803D01*
X37763202Y-87048835D02*
X37763202Y-90063202D01*
X37763202Y-90063202D02*
X38300000Y-90600000D01*
X38300000Y-90600000D02*
X43200000Y-90600000D01*
X43200000Y-90600000D02*
X44148866Y-89651134D01*
%TO.N,Net-(D9-Pad2)*%
X158300002Y-83300000D02*
X158300002Y-81240002D01*
X158300002Y-81240002D02*
X158060000Y-81000000D01*
%TO.N,Net-(Q20-Pad3)*%
X150400000Y-88413576D02*
X150226227Y-88239803D01*
X143173202Y-87048835D02*
X143173202Y-90273202D01*
X149600000Y-90700000D02*
X150400000Y-89900000D01*
X143600000Y-90700000D02*
X149600000Y-90700000D01*
X150400000Y-89900000D02*
X150400000Y-88413576D01*
X143173202Y-90273202D02*
X143600000Y-90700000D01*
%TO.N,Net-(Q19-Pad3)*%
X134700000Y-90700000D02*
X135245000Y-90155000D01*
X127933202Y-90233202D02*
X128400000Y-90700000D01*
X128400000Y-90700000D02*
X134700000Y-90700000D01*
X127933202Y-87048835D02*
X127933202Y-90233202D01*
X135245000Y-90155000D02*
X135245000Y-88239803D01*
D54*
%TO.N,Net-(Q22-Pad3)*%
X195600000Y-55500000D02*
X196700000Y-54400000D01*
X199200000Y-57700000D02*
X199200000Y-54375000D01*
X197900000Y-78500000D02*
X199200000Y-77200000D01*
X195288866Y-57529606D02*
X195600000Y-57218472D01*
X196700000Y-54400000D02*
X197600000Y-54400000D01*
X199029606Y-57529606D02*
X199200000Y-57700000D01*
X197900000Y-80538669D02*
X197900000Y-78500000D01*
X199200000Y-77200000D02*
X199200000Y-57700000D01*
X199200000Y-54375000D02*
X198412500Y-53587500D01*
X197600000Y-54400000D02*
X198412500Y-53587500D01*
X195600000Y-57218472D02*
X195600000Y-55500000D01*
X197818866Y-80619803D02*
X197900000Y-80538669D01*
X195288866Y-57529606D02*
X199029606Y-57529606D01*
X198412500Y-53587500D02*
X197150000Y-52325000D01*
D55*
%TO.N,Net-(D10-Pad2)*%
X173260000Y-83259998D02*
X173300002Y-83300000D01*
X173260000Y-80900000D02*
X173260000Y-83259998D01*
%TO.N,Net-(D11-Pad2)*%
X187300002Y-83300000D02*
X187300002Y-80940002D01*
X187300002Y-80940002D02*
X187260000Y-80900000D01*
D56*
%TO.N,Net-(D12-Pad1)*%
X87650000Y-96150000D02*
X87650000Y-96500000D01*
X85750000Y-93980000D02*
X85750000Y-94250000D01*
X85750000Y-94250000D02*
X87650000Y-96150000D01*
D55*
%TO.N,Net-(J2-Pad4)*%
X95910000Y-94490000D02*
X95400000Y-95000000D01*
X95500000Y-102700000D02*
X95400000Y-102800000D01*
X95400000Y-102300000D02*
X95500000Y-102400000D01*
X94800000Y-92500000D02*
X82200000Y-92500000D01*
X95400000Y-95000000D02*
X95400000Y-102300000D01*
X95500000Y-102400000D02*
X95500000Y-102700000D01*
X80762069Y-91062069D02*
X79105000Y-91062069D01*
X95910000Y-93980000D02*
X95910000Y-94490000D01*
X95910000Y-93610000D02*
X94800000Y-92500000D01*
X95910000Y-93980000D02*
X95910000Y-93610000D01*
X82200000Y-92500000D02*
X80762069Y-91062069D01*
%TO.N,Net-(J2-Pad5)*%
X96600000Y-91800000D02*
X96600000Y-91300000D01*
X98000000Y-94900000D02*
X98000000Y-102500000D01*
X96600000Y-91300000D02*
X96362069Y-91062069D01*
X96362069Y-91062069D02*
X95800000Y-91062069D01*
X98450000Y-93980000D02*
X98450000Y-94450000D01*
X98450000Y-94450000D02*
X98000000Y-94900000D01*
X98000000Y-102500000D02*
X98300000Y-102800000D01*
X98450000Y-93980000D02*
X98450000Y-93650000D01*
X98450000Y-93650000D02*
X96600000Y-91800000D01*
%TO.N,Net-(J2-Pad8)*%
X122606558Y-91600000D02*
X123144489Y-91062069D01*
X106070000Y-93980000D02*
X106070000Y-94530000D01*
X106070000Y-93980000D02*
X106070000Y-93730000D01*
X112700000Y-92500000D02*
X113600000Y-91600000D01*
X106070000Y-93730000D02*
X107300000Y-92500000D01*
X105800000Y-94800000D02*
X105800000Y-102200000D01*
X105800000Y-102200000D02*
X106300000Y-102700000D01*
X107300000Y-92500000D02*
X112700000Y-92500000D01*
X113600000Y-91600000D02*
X122606558Y-91600000D01*
X106070000Y-94530000D02*
X105800000Y-94800000D01*
%TO.N,Net-(JP12-Pad2)*%
X106070000Y-119380000D02*
X106070000Y-118370000D01*
X101700000Y-115700000D02*
X101100000Y-115100000D01*
X101100000Y-115100000D02*
X101100000Y-113425000D01*
X103400000Y-115700000D02*
X101700000Y-115700000D01*
X106070000Y-118370000D02*
X103400000Y-115700000D01*
%TO.N,Net-(Q11-Pad1)*%
X61300000Y-92200000D02*
X53900000Y-92200000D01*
X53323202Y-91623202D02*
X53323202Y-88923835D01*
X62500000Y-91062069D02*
X62437931Y-91062069D01*
X53900000Y-92200000D02*
X53323202Y-91623202D01*
X62437931Y-91062069D02*
X61300000Y-92200000D01*
%TO.N,Net-(Q12-Pad3)*%
X69400000Y-90400000D02*
X74900000Y-90400000D01*
X74900000Y-90400000D02*
X75898866Y-89401134D01*
X68878202Y-89878202D02*
X69400000Y-90400000D01*
X68878202Y-87048835D02*
X68878202Y-89878202D01*
X75898866Y-89401134D02*
X75898866Y-88239803D01*
%TO.N,Net-(Q13-Pad3)*%
X83483202Y-87048835D02*
X83483202Y-89983202D01*
X83483202Y-89983202D02*
X83700000Y-90200000D01*
X83700000Y-90200000D02*
X90100000Y-90200000D01*
X90503866Y-89796134D02*
X90503866Y-88239803D01*
X90100000Y-90200000D02*
X90503866Y-89796134D01*
%TO.N,Net-(Q14-Pad1)*%
X171842071Y-91062069D02*
X172637931Y-91062069D01*
X172637931Y-91062069D02*
X172950000Y-90750000D01*
X172950000Y-90750000D02*
X172950000Y-88637500D01*
%TO.N,Net-(Q14-Pad3)*%
X174900000Y-90900000D02*
X180300000Y-90900000D01*
X173900000Y-86762500D02*
X173900000Y-89900000D01*
X173900000Y-89900000D02*
X174900000Y-90900000D01*
X180300000Y-90900000D02*
X181308866Y-89891134D01*
X181308866Y-89891134D02*
X181308866Y-88239803D01*
%TO.N,Net-(Q15-Pad1)*%
X187050000Y-88537500D02*
X187050000Y-90550000D01*
X187061142Y-90531858D02*
X186530931Y-91062069D01*
X186530931Y-91062069D02*
X185686858Y-91062069D01*
%TO.N,Net-(Q15-Pad3)*%
X194200000Y-90800000D02*
X188500000Y-90800000D01*
X188500000Y-90800000D02*
X188000000Y-90300000D01*
X188000000Y-90300000D02*
X188000000Y-86662500D01*
X195278866Y-88239803D02*
X195278866Y-89721134D01*
X195278866Y-89721134D02*
X194200000Y-90800000D01*
%TO.N,Net-(Q17-Pad3)*%
X159300000Y-90600000D02*
X165400000Y-90600000D01*
X159048202Y-87048835D02*
X159048202Y-90348202D01*
X165400000Y-90600000D02*
X166068866Y-89931134D01*
X159048202Y-90348202D02*
X159300000Y-90600000D01*
X166068866Y-89931134D02*
X166068866Y-88239803D01*
%TO.N,Net-(Q18-Pad3)*%
X99300000Y-90400000D02*
X104900000Y-90400000D01*
X98777138Y-87048835D02*
X98777138Y-89877138D01*
X104900000Y-90400000D02*
X105753866Y-89546134D01*
X105753866Y-89546134D02*
X105753866Y-88249803D01*
X98777138Y-89877138D02*
X99300000Y-90400000D01*
%TO.N,Net-(Q21-Pad1)*%
X111337931Y-91062069D02*
X109000000Y-91062069D01*
X112378202Y-90021798D02*
X111337931Y-91062069D01*
X112378202Y-88923835D02*
X112378202Y-90021798D01*
%TO.N,Net-(Q21-Pad3)*%
X113328202Y-90128202D02*
X113600000Y-90400000D01*
X113328202Y-87048835D02*
X113328202Y-90128202D01*
X120000000Y-90400000D02*
X120400000Y-90000000D01*
X120400000Y-88259585D02*
X120392341Y-88251926D01*
X120400000Y-90000000D02*
X120400000Y-88259585D01*
X113600000Y-90400000D02*
X120000000Y-90400000D01*
%TD*%
M02*
