%FSLAX45Y45*%
G04 Gerber Fmt 4.5, Leading zero omitted, Abs format (unit mm)*
G04 Created by KiCad (PCBNEW (6.0.4)) date 2022-05-07 15:38:43*
%MOMM*%
%LPD*%
G01*
G04 APERTURE LIST*
%TA.AperFunction,Profile*%
%ADD10C,0.150000*%
%TD*%
%ADD11C,0.200000*%
G04 APERTURE END LIST*
D10*
X-17047113Y-288980D02*
X-17047070Y8262411D01*
X288387Y8257620D02*
X288387Y-288980D01*
X-17047070Y8262411D02*
X288387Y8257620D01*
X-15203323Y1997020D02*
G75*
G03*
X-15203323Y1997020I-141990J0D01*
G01*
X-2046123Y409520D02*
G75*
G03*
X-2046123Y409520I-141990J0D01*
G01*
X-15203323Y6951396D02*
G75*
G03*
X-15203323Y6951396I-141990J0D01*
G01*
X-6186323Y6951396D02*
G75*
G03*
X-6186323Y6951396I-141990J0D01*
G01*
X288387Y-288980D02*
X-17047113Y-288980D01*
X-9221623Y917520D02*
G75*
G03*
X-9221623Y917520I-141990J0D01*
G01*
X49377Y7613396D02*
G75*
G03*
X49377Y7613396I-141990J0D01*
G01*
D11*
X-16796994Y-606956D02*
X-16796994Y-406956D01*
X-16749375Y-406956D01*
X-16720804Y-416480D01*
X-16701756Y-435528D01*
X-16692232Y-454575D01*
X-16682709Y-492671D01*
X-16682709Y-521242D01*
X-16692232Y-559337D01*
X-16701756Y-578385D01*
X-16720804Y-597433D01*
X-16749375Y-606956D01*
X-16796994Y-606956D01*
X-16596994Y-606956D02*
X-16596994Y-473623D01*
X-16596994Y-511718D02*
X-16587471Y-492671D01*
X-16577947Y-483147D01*
X-16558899Y-473623D01*
X-16539851Y-473623D01*
X-16473185Y-606956D02*
X-16473185Y-473623D01*
X-16473185Y-406956D02*
X-16482709Y-416480D01*
X-16473185Y-426004D01*
X-16463661Y-416480D01*
X-16473185Y-406956D01*
X-16473185Y-426004D01*
X-16349375Y-606956D02*
X-16368423Y-597433D01*
X-16377947Y-578385D01*
X-16377947Y-406956D01*
X-16244613Y-606956D02*
X-16263661Y-597433D01*
X-16273185Y-578385D01*
X-16273185Y-406956D01*
X-16016042Y-606956D02*
X-16016042Y-406956D01*
X-15949375Y-549814D01*
X-15882709Y-406956D01*
X-15882709Y-606956D01*
X-15701756Y-606956D02*
X-15701756Y-502194D01*
X-15711280Y-483147D01*
X-15730328Y-473623D01*
X-15768423Y-473623D01*
X-15787471Y-483147D01*
X-15701756Y-597433D02*
X-15720804Y-606956D01*
X-15768423Y-606956D01*
X-15787471Y-597433D01*
X-15796994Y-578385D01*
X-15796994Y-559337D01*
X-15787471Y-540290D01*
X-15768423Y-530766D01*
X-15720804Y-530766D01*
X-15701756Y-521242D01*
X-15606518Y-473623D02*
X-15606518Y-673623D01*
X-15606518Y-483147D02*
X-15587471Y-473623D01*
X-15549375Y-473623D01*
X-15530328Y-483147D01*
X-15520804Y-492671D01*
X-15511280Y-511718D01*
X-15511280Y-568861D01*
X-15520804Y-587909D01*
X-15530328Y-597433D01*
X-15549375Y-606956D01*
X-15587471Y-606956D01*
X-15606518Y-597433D01*
X-15425566Y-587909D02*
X-15416042Y-597433D01*
X-15425566Y-606956D01*
X-15435090Y-597433D01*
X-15425566Y-587909D01*
X-15425566Y-606956D01*
X-15425566Y-483147D02*
X-15416042Y-492671D01*
X-15425566Y-502194D01*
X-15435090Y-492671D01*
X-15425566Y-483147D01*
X-15425566Y-502194D01*
M02*
