%TF.GenerationSoftware,KiCad,Pcbnew,(6.0.4)*%
%TF.CreationDate,2022-05-09T22:27:08+02:00*%
%TF.ProjectId,Central Heating Control PBA,43656e74-7261-46c2-9048-656174696e67,2.0*%
%TF.SameCoordinates,Original*%
%TF.FileFunction,AssemblyDrawing,Bot*%
%FSLAX46Y46*%
G04 Gerber Fmt 4.6, Leading zero omitted, Abs format (unit mm)*
G04 Created by KiCad (PCBNEW (6.0.4)) date 2022-05-09 22:27:08*
%MOMM*%
%LPD*%
G01*
G04 APERTURE LIST*
%ADD10C,0.100000*%
%ADD11C,0.150000*%
%ADD12C,0.300000*%
%ADD13C,0.400000*%
%TA.AperFunction,Profile*%
%ADD14C,0.150000*%
%TD*%
G04 APERTURE END LIST*
D10*
D11*
X177002200Y-166007200D02*
X177002200Y-198007200D01*
X285002200Y-198007200D01*
X285002200Y-166007200D01*
X177002200Y-166007200D01*
D10*
D11*
X10000000Y-10000000D02*
X10000000Y-200007200D01*
X287002200Y-200007200D01*
X287002200Y-10000000D01*
X10000000Y-10000000D01*
D10*
D11*
X12000000Y-12000000D02*
X12000000Y-198007200D01*
X285002200Y-198007200D01*
X285002200Y-12000000D01*
X12000000Y-12000000D01*
D10*
D11*
X60000000Y-12000000D02*
X60000000Y-10000000D01*
D10*
D11*
X110000000Y-12000000D02*
X110000000Y-10000000D01*
D10*
D11*
X160000000Y-12000000D02*
X160000000Y-10000000D01*
D10*
D11*
X210000000Y-12000000D02*
X210000000Y-10000000D01*
D10*
D11*
X260000000Y-12000000D02*
X260000000Y-10000000D01*
D10*
D11*
X36065476Y-11588095D02*
X35322619Y-11588095D01*
X35694047Y-11588095D02*
X35694047Y-10288095D01*
X35570238Y-10473809D01*
X35446428Y-10597619D01*
X35322619Y-10659523D01*
D10*
D11*
X85322619Y-10411904D02*
X85384523Y-10350000D01*
X85508333Y-10288095D01*
X85817857Y-10288095D01*
X85941666Y-10350000D01*
X86003571Y-10411904D01*
X86065476Y-10535714D01*
X86065476Y-10659523D01*
X86003571Y-10845238D01*
X85260714Y-11588095D01*
X86065476Y-11588095D01*
D10*
D11*
X135260714Y-10288095D02*
X136065476Y-10288095D01*
X135632142Y-10783333D01*
X135817857Y-10783333D01*
X135941666Y-10845238D01*
X136003571Y-10907142D01*
X136065476Y-11030952D01*
X136065476Y-11340476D01*
X136003571Y-11464285D01*
X135941666Y-11526190D01*
X135817857Y-11588095D01*
X135446428Y-11588095D01*
X135322619Y-11526190D01*
X135260714Y-11464285D01*
D10*
D11*
X185941666Y-10721428D02*
X185941666Y-11588095D01*
X185632142Y-10226190D02*
X185322619Y-11154761D01*
X186127380Y-11154761D01*
D10*
D11*
X236003571Y-10288095D02*
X235384523Y-10288095D01*
X235322619Y-10907142D01*
X235384523Y-10845238D01*
X235508333Y-10783333D01*
X235817857Y-10783333D01*
X235941666Y-10845238D01*
X236003571Y-10907142D01*
X236065476Y-11030952D01*
X236065476Y-11340476D01*
X236003571Y-11464285D01*
X235941666Y-11526190D01*
X235817857Y-11588095D01*
X235508333Y-11588095D01*
X235384523Y-11526190D01*
X235322619Y-11464285D01*
D10*
D11*
X285941666Y-10288095D02*
X285694047Y-10288095D01*
X285570238Y-10350000D01*
X285508333Y-10411904D01*
X285384523Y-10597619D01*
X285322619Y-10845238D01*
X285322619Y-11340476D01*
X285384523Y-11464285D01*
X285446428Y-11526190D01*
X285570238Y-11588095D01*
X285817857Y-11588095D01*
X285941666Y-11526190D01*
X286003571Y-11464285D01*
X286065476Y-11340476D01*
X286065476Y-11030952D01*
X286003571Y-10907142D01*
X285941666Y-10845238D01*
X285817857Y-10783333D01*
X285570238Y-10783333D01*
X285446428Y-10845238D01*
X285384523Y-10907142D01*
X285322619Y-11030952D01*
D10*
D11*
X60000000Y-198007200D02*
X60000000Y-200007200D01*
D10*
D11*
X110000000Y-198007200D02*
X110000000Y-200007200D01*
D10*
D11*
X160000000Y-198007200D02*
X160000000Y-200007200D01*
D10*
D11*
X210000000Y-198007200D02*
X210000000Y-200007200D01*
D10*
D11*
X260000000Y-198007200D02*
X260000000Y-200007200D01*
D10*
D11*
X36065476Y-199595295D02*
X35322619Y-199595295D01*
X35694047Y-199595295D02*
X35694047Y-198295295D01*
X35570238Y-198481009D01*
X35446428Y-198604819D01*
X35322619Y-198666723D01*
D10*
D11*
X85322619Y-198419104D02*
X85384523Y-198357200D01*
X85508333Y-198295295D01*
X85817857Y-198295295D01*
X85941666Y-198357200D01*
X86003571Y-198419104D01*
X86065476Y-198542914D01*
X86065476Y-198666723D01*
X86003571Y-198852438D01*
X85260714Y-199595295D01*
X86065476Y-199595295D01*
D10*
D11*
X135260714Y-198295295D02*
X136065476Y-198295295D01*
X135632142Y-198790533D01*
X135817857Y-198790533D01*
X135941666Y-198852438D01*
X136003571Y-198914342D01*
X136065476Y-199038152D01*
X136065476Y-199347676D01*
X136003571Y-199471485D01*
X135941666Y-199533390D01*
X135817857Y-199595295D01*
X135446428Y-199595295D01*
X135322619Y-199533390D01*
X135260714Y-199471485D01*
D10*
D11*
X185941666Y-198728628D02*
X185941666Y-199595295D01*
X185632142Y-198233390D02*
X185322619Y-199161961D01*
X186127380Y-199161961D01*
D10*
D11*
X236003571Y-198295295D02*
X235384523Y-198295295D01*
X235322619Y-198914342D01*
X235384523Y-198852438D01*
X235508333Y-198790533D01*
X235817857Y-198790533D01*
X235941666Y-198852438D01*
X236003571Y-198914342D01*
X236065476Y-199038152D01*
X236065476Y-199347676D01*
X236003571Y-199471485D01*
X235941666Y-199533390D01*
X235817857Y-199595295D01*
X235508333Y-199595295D01*
X235384523Y-199533390D01*
X235322619Y-199471485D01*
D10*
D11*
X285941666Y-198295295D02*
X285694047Y-198295295D01*
X285570238Y-198357200D01*
X285508333Y-198419104D01*
X285384523Y-198604819D01*
X285322619Y-198852438D01*
X285322619Y-199347676D01*
X285384523Y-199471485D01*
X285446428Y-199533390D01*
X285570238Y-199595295D01*
X285817857Y-199595295D01*
X285941666Y-199533390D01*
X286003571Y-199471485D01*
X286065476Y-199347676D01*
X286065476Y-199038152D01*
X286003571Y-198914342D01*
X285941666Y-198852438D01*
X285817857Y-198790533D01*
X285570238Y-198790533D01*
X285446428Y-198852438D01*
X285384523Y-198914342D01*
X285322619Y-199038152D01*
D10*
D11*
X10000000Y-60000000D02*
X12000000Y-60000000D01*
D10*
D11*
X10000000Y-110000000D02*
X12000000Y-110000000D01*
D10*
D11*
X10000000Y-160000000D02*
X12000000Y-160000000D01*
D10*
D11*
X10690476Y-35216666D02*
X11309523Y-35216666D01*
X10566666Y-35588095D02*
X11000000Y-34288095D01*
X11433333Y-35588095D01*
D10*
D11*
X11092857Y-84907142D02*
X11278571Y-84969047D01*
X11340476Y-85030952D01*
X11402380Y-85154761D01*
X11402380Y-85340476D01*
X11340476Y-85464285D01*
X11278571Y-85526190D01*
X11154761Y-85588095D01*
X10659523Y-85588095D01*
X10659523Y-84288095D01*
X11092857Y-84288095D01*
X11216666Y-84350000D01*
X11278571Y-84411904D01*
X11340476Y-84535714D01*
X11340476Y-84659523D01*
X11278571Y-84783333D01*
X11216666Y-84845238D01*
X11092857Y-84907142D01*
X10659523Y-84907142D01*
D10*
D11*
X11402380Y-135464285D02*
X11340476Y-135526190D01*
X11154761Y-135588095D01*
X11030952Y-135588095D01*
X10845238Y-135526190D01*
X10721428Y-135402380D01*
X10659523Y-135278571D01*
X10597619Y-135030952D01*
X10597619Y-134845238D01*
X10659523Y-134597619D01*
X10721428Y-134473809D01*
X10845238Y-134350000D01*
X11030952Y-134288095D01*
X11154761Y-134288095D01*
X11340476Y-134350000D01*
X11402380Y-134411904D01*
D10*
D11*
X10659523Y-185588095D02*
X10659523Y-184288095D01*
X10969047Y-184288095D01*
X11154761Y-184350000D01*
X11278571Y-184473809D01*
X11340476Y-184597619D01*
X11402380Y-184845238D01*
X11402380Y-185030952D01*
X11340476Y-185278571D01*
X11278571Y-185402380D01*
X11154761Y-185526190D01*
X10969047Y-185588095D01*
X10659523Y-185588095D01*
D10*
D11*
X287002200Y-60000000D02*
X285002200Y-60000000D01*
D10*
D11*
X287002200Y-110000000D02*
X285002200Y-110000000D01*
D10*
D11*
X287002200Y-160000000D02*
X285002200Y-160000000D01*
D10*
D11*
X285692676Y-35216666D02*
X286311723Y-35216666D01*
X285568866Y-35588095D02*
X286002200Y-34288095D01*
X286435533Y-35588095D01*
D10*
D11*
X286095057Y-84907142D02*
X286280771Y-84969047D01*
X286342676Y-85030952D01*
X286404580Y-85154761D01*
X286404580Y-85340476D01*
X286342676Y-85464285D01*
X286280771Y-85526190D01*
X286156961Y-85588095D01*
X285661723Y-85588095D01*
X285661723Y-84288095D01*
X286095057Y-84288095D01*
X286218866Y-84350000D01*
X286280771Y-84411904D01*
X286342676Y-84535714D01*
X286342676Y-84659523D01*
X286280771Y-84783333D01*
X286218866Y-84845238D01*
X286095057Y-84907142D01*
X285661723Y-84907142D01*
D10*
D11*
X286404580Y-135464285D02*
X286342676Y-135526190D01*
X286156961Y-135588095D01*
X286033152Y-135588095D01*
X285847438Y-135526190D01*
X285723628Y-135402380D01*
X285661723Y-135278571D01*
X285599819Y-135030952D01*
X285599819Y-134845238D01*
X285661723Y-134597619D01*
X285723628Y-134473809D01*
X285847438Y-134350000D01*
X286033152Y-134288095D01*
X286156961Y-134288095D01*
X286342676Y-134350000D01*
X286404580Y-134411904D01*
D10*
D11*
X285661723Y-185588095D02*
X285661723Y-184288095D01*
X285971247Y-184288095D01*
X286156961Y-184350000D01*
X286280771Y-184473809D01*
X286342676Y-184597619D01*
X286404580Y-184845238D01*
X286404580Y-185030952D01*
X286342676Y-185278571D01*
X286280771Y-185402380D01*
X286156961Y-185526190D01*
X285971247Y-185588095D01*
X285661723Y-185588095D01*
D10*
D11*
X200434342Y-193785771D02*
X200434342Y-192285771D01*
X200791485Y-192285771D01*
X201005771Y-192357200D01*
X201148628Y-192500057D01*
X201220057Y-192642914D01*
X201291485Y-192928628D01*
X201291485Y-193142914D01*
X201220057Y-193428628D01*
X201148628Y-193571485D01*
X201005771Y-193714342D01*
X200791485Y-193785771D01*
X200434342Y-193785771D01*
X202577200Y-193785771D02*
X202577200Y-193000057D01*
X202505771Y-192857200D01*
X202362914Y-192785771D01*
X202077200Y-192785771D01*
X201934342Y-192857200D01*
X202577200Y-193714342D02*
X202434342Y-193785771D01*
X202077200Y-193785771D01*
X201934342Y-193714342D01*
X201862914Y-193571485D01*
X201862914Y-193428628D01*
X201934342Y-193285771D01*
X202077200Y-193214342D01*
X202434342Y-193214342D01*
X202577200Y-193142914D01*
X203077200Y-192785771D02*
X203648628Y-192785771D01*
X203291485Y-192285771D02*
X203291485Y-193571485D01*
X203362914Y-193714342D01*
X203505771Y-193785771D01*
X203648628Y-193785771D01*
X204720057Y-193714342D02*
X204577200Y-193785771D01*
X204291485Y-193785771D01*
X204148628Y-193714342D01*
X204077200Y-193571485D01*
X204077200Y-193000057D01*
X204148628Y-192857200D01*
X204291485Y-192785771D01*
X204577200Y-192785771D01*
X204720057Y-192857200D01*
X204791485Y-193000057D01*
X204791485Y-193142914D01*
X204077200Y-193285771D01*
X205434342Y-193642914D02*
X205505771Y-193714342D01*
X205434342Y-193785771D01*
X205362914Y-193714342D01*
X205434342Y-193642914D01*
X205434342Y-193785771D01*
X205434342Y-192857200D02*
X205505771Y-192928628D01*
X205434342Y-193000057D01*
X205362914Y-192928628D01*
X205434342Y-192857200D01*
X205434342Y-193000057D01*
X207220057Y-192428628D02*
X207291485Y-192357200D01*
X207434342Y-192285771D01*
X207791485Y-192285771D01*
X207934342Y-192357200D01*
X208005771Y-192428628D01*
X208077200Y-192571485D01*
X208077200Y-192714342D01*
X208005771Y-192928628D01*
X207148628Y-193785771D01*
X208077200Y-193785771D01*
X209005771Y-192285771D02*
X209148628Y-192285771D01*
X209291485Y-192357200D01*
X209362914Y-192428628D01*
X209434342Y-192571485D01*
X209505771Y-192857200D01*
X209505771Y-193214342D01*
X209434342Y-193500057D01*
X209362914Y-193642914D01*
X209291485Y-193714342D01*
X209148628Y-193785771D01*
X209005771Y-193785771D01*
X208862914Y-193714342D01*
X208791485Y-193642914D01*
X208720057Y-193500057D01*
X208648628Y-193214342D01*
X208648628Y-192857200D01*
X208720057Y-192571485D01*
X208791485Y-192428628D01*
X208862914Y-192357200D01*
X209005771Y-192285771D01*
X210077200Y-192428628D02*
X210148628Y-192357200D01*
X210291485Y-192285771D01*
X210648628Y-192285771D01*
X210791485Y-192357200D01*
X210862914Y-192428628D01*
X210934342Y-192571485D01*
X210934342Y-192714342D01*
X210862914Y-192928628D01*
X210005771Y-193785771D01*
X210934342Y-193785771D01*
X211505771Y-192428628D02*
X211577200Y-192357200D01*
X211720057Y-192285771D01*
X212077200Y-192285771D01*
X212220057Y-192357200D01*
X212291485Y-192428628D01*
X212362914Y-192571485D01*
X212362914Y-192714342D01*
X212291485Y-192928628D01*
X211434342Y-193785771D01*
X212362914Y-193785771D01*
X213005771Y-193214342D02*
X214148628Y-193214342D01*
X215148628Y-192285771D02*
X215291485Y-192285771D01*
X215434342Y-192357200D01*
X215505771Y-192428628D01*
X215577200Y-192571485D01*
X215648628Y-192857200D01*
X215648628Y-193214342D01*
X215577200Y-193500057D01*
X215505771Y-193642914D01*
X215434342Y-193714342D01*
X215291485Y-193785771D01*
X215148628Y-193785771D01*
X215005771Y-193714342D01*
X214934342Y-193642914D01*
X214862914Y-193500057D01*
X214791485Y-193214342D01*
X214791485Y-192857200D01*
X214862914Y-192571485D01*
X214934342Y-192428628D01*
X215005771Y-192357200D01*
X215148628Y-192285771D01*
X217005771Y-192285771D02*
X216291485Y-192285771D01*
X216220057Y-193000057D01*
X216291485Y-192928628D01*
X216434342Y-192857200D01*
X216791485Y-192857200D01*
X216934342Y-192928628D01*
X217005771Y-193000057D01*
X217077200Y-193142914D01*
X217077200Y-193500057D01*
X217005771Y-193642914D01*
X216934342Y-193714342D01*
X216791485Y-193785771D01*
X216434342Y-193785771D01*
X216291485Y-193714342D01*
X216220057Y-193642914D01*
X217720057Y-193214342D02*
X218862914Y-193214342D01*
X219862914Y-192285771D02*
X220005771Y-192285771D01*
X220148628Y-192357200D01*
X220220057Y-192428628D01*
X220291485Y-192571485D01*
X220362914Y-192857200D01*
X220362914Y-193214342D01*
X220291485Y-193500057D01*
X220220057Y-193642914D01*
X220148628Y-193714342D01*
X220005771Y-193785771D01*
X219862914Y-193785771D01*
X219720057Y-193714342D01*
X219648628Y-193642914D01*
X219577200Y-193500057D01*
X219505771Y-193214342D01*
X219505771Y-192857200D01*
X219577200Y-192571485D01*
X219648628Y-192428628D01*
X219720057Y-192357200D01*
X219862914Y-192285771D01*
X220862914Y-192285771D02*
X221862914Y-192285771D01*
X221220057Y-193785771D01*
D10*
D11*
X177002200Y-194507200D02*
X285002200Y-194507200D01*
D10*
D11*
X178434342Y-196585771D02*
X178434342Y-195085771D01*
X179291485Y-196585771D02*
X178648628Y-195728628D01*
X179291485Y-195085771D02*
X178434342Y-195942914D01*
X179934342Y-196585771D02*
X179934342Y-195585771D01*
X179934342Y-195085771D02*
X179862914Y-195157200D01*
X179934342Y-195228628D01*
X180005771Y-195157200D01*
X179934342Y-195085771D01*
X179934342Y-195228628D01*
X181505771Y-196442914D02*
X181434342Y-196514342D01*
X181220057Y-196585771D01*
X181077200Y-196585771D01*
X180862914Y-196514342D01*
X180720057Y-196371485D01*
X180648628Y-196228628D01*
X180577200Y-195942914D01*
X180577200Y-195728628D01*
X180648628Y-195442914D01*
X180720057Y-195300057D01*
X180862914Y-195157200D01*
X181077200Y-195085771D01*
X181220057Y-195085771D01*
X181434342Y-195157200D01*
X181505771Y-195228628D01*
X182791485Y-196585771D02*
X182791485Y-195800057D01*
X182720057Y-195657200D01*
X182577200Y-195585771D01*
X182291485Y-195585771D01*
X182148628Y-195657200D01*
X182791485Y-196514342D02*
X182648628Y-196585771D01*
X182291485Y-196585771D01*
X182148628Y-196514342D01*
X182077200Y-196371485D01*
X182077200Y-196228628D01*
X182148628Y-196085771D01*
X182291485Y-196014342D01*
X182648628Y-196014342D01*
X182791485Y-195942914D01*
X184148628Y-196585771D02*
X184148628Y-195085771D01*
X184148628Y-196514342D02*
X184005771Y-196585771D01*
X183720057Y-196585771D01*
X183577200Y-196514342D01*
X183505771Y-196442914D01*
X183434342Y-196300057D01*
X183434342Y-195871485D01*
X183505771Y-195728628D01*
X183577200Y-195657200D01*
X183720057Y-195585771D01*
X184005771Y-195585771D01*
X184148628Y-195657200D01*
X186005771Y-195800057D02*
X186505771Y-195800057D01*
X186720057Y-196585771D02*
X186005771Y-196585771D01*
X186005771Y-195085771D01*
X186720057Y-195085771D01*
X187362914Y-196442914D02*
X187434342Y-196514342D01*
X187362914Y-196585771D01*
X187291485Y-196514342D01*
X187362914Y-196442914D01*
X187362914Y-196585771D01*
X188077200Y-196585771D02*
X188077200Y-195085771D01*
X188434342Y-195085771D01*
X188648628Y-195157200D01*
X188791485Y-195300057D01*
X188862914Y-195442914D01*
X188934342Y-195728628D01*
X188934342Y-195942914D01*
X188862914Y-196228628D01*
X188791485Y-196371485D01*
X188648628Y-196514342D01*
X188434342Y-196585771D01*
X188077200Y-196585771D01*
X189577200Y-196442914D02*
X189648628Y-196514342D01*
X189577200Y-196585771D01*
X189505771Y-196514342D01*
X189577200Y-196442914D01*
X189577200Y-196585771D01*
X190220057Y-196157200D02*
X190934342Y-196157200D01*
X190077200Y-196585771D02*
X190577200Y-195085771D01*
X191077200Y-196585771D01*
X191577200Y-196442914D02*
X191648628Y-196514342D01*
X191577200Y-196585771D01*
X191505771Y-196514342D01*
X191577200Y-196442914D01*
X191577200Y-196585771D01*
X194577200Y-196585771D02*
X194577200Y-195085771D01*
X194720057Y-196014342D02*
X195148628Y-196585771D01*
X195148628Y-195585771D02*
X194577200Y-196157200D01*
X195791485Y-196585771D02*
X195791485Y-195585771D01*
X195791485Y-195085771D02*
X195720057Y-195157200D01*
X195791485Y-195228628D01*
X195862914Y-195157200D01*
X195791485Y-195085771D01*
X195791485Y-195228628D01*
X197148628Y-196514342D02*
X197005771Y-196585771D01*
X196720057Y-196585771D01*
X196577200Y-196514342D01*
X196505771Y-196442914D01*
X196434342Y-196300057D01*
X196434342Y-195871485D01*
X196505771Y-195728628D01*
X196577200Y-195657200D01*
X196720057Y-195585771D01*
X197005771Y-195585771D01*
X197148628Y-195657200D01*
X198434342Y-196585771D02*
X198434342Y-195800057D01*
X198362914Y-195657200D01*
X198220057Y-195585771D01*
X197934342Y-195585771D01*
X197791485Y-195657200D01*
X198434342Y-196514342D02*
X198291485Y-196585771D01*
X197934342Y-196585771D01*
X197791485Y-196514342D01*
X197720057Y-196371485D01*
X197720057Y-196228628D01*
X197791485Y-196085771D01*
X197934342Y-196014342D01*
X198291485Y-196014342D01*
X198434342Y-195942914D01*
X199791485Y-196585771D02*
X199791485Y-195085771D01*
X199791485Y-196514342D02*
X199648628Y-196585771D01*
X199362914Y-196585771D01*
X199220057Y-196514342D01*
X199148628Y-196442914D01*
X199077200Y-196300057D01*
X199077200Y-195871485D01*
X199148628Y-195728628D01*
X199220057Y-195657200D01*
X199362914Y-195585771D01*
X199648628Y-195585771D01*
X199791485Y-195657200D01*
X202077200Y-197157200D02*
X202005771Y-197085771D01*
X201862914Y-196871485D01*
X201791485Y-196728628D01*
X201720057Y-196514342D01*
X201648628Y-196157200D01*
X201648628Y-195871485D01*
X201720057Y-195514342D01*
X201791485Y-195300057D01*
X201862914Y-195157200D01*
X202005771Y-194942914D01*
X202077200Y-194871485D01*
X203291485Y-195085771D02*
X203005771Y-195085771D01*
X202862914Y-195157200D01*
X202791485Y-195228628D01*
X202648628Y-195442914D01*
X202577200Y-195728628D01*
X202577200Y-196300057D01*
X202648628Y-196442914D01*
X202720057Y-196514342D01*
X202862914Y-196585771D01*
X203148628Y-196585771D01*
X203291485Y-196514342D01*
X203362914Y-196442914D01*
X203434342Y-196300057D01*
X203434342Y-195942914D01*
X203362914Y-195800057D01*
X203291485Y-195728628D01*
X203148628Y-195657200D01*
X202862914Y-195657200D01*
X202720057Y-195728628D01*
X202648628Y-195800057D01*
X202577200Y-195942914D01*
X204077200Y-196442914D02*
X204148628Y-196514342D01*
X204077200Y-196585771D01*
X204005771Y-196514342D01*
X204077200Y-196442914D01*
X204077200Y-196585771D01*
X205077200Y-195085771D02*
X205220057Y-195085771D01*
X205362914Y-195157200D01*
X205434342Y-195228628D01*
X205505771Y-195371485D01*
X205577200Y-195657200D01*
X205577200Y-196014342D01*
X205505771Y-196300057D01*
X205434342Y-196442914D01*
X205362914Y-196514342D01*
X205220057Y-196585771D01*
X205077200Y-196585771D01*
X204934342Y-196514342D01*
X204862914Y-196442914D01*
X204791485Y-196300057D01*
X204720057Y-196014342D01*
X204720057Y-195657200D01*
X204791485Y-195371485D01*
X204862914Y-195228628D01*
X204934342Y-195157200D01*
X205077200Y-195085771D01*
X206220057Y-196442914D02*
X206291485Y-196514342D01*
X206220057Y-196585771D01*
X206148628Y-196514342D01*
X206220057Y-196442914D01*
X206220057Y-196585771D01*
X207577200Y-195585771D02*
X207577200Y-196585771D01*
X207220057Y-195014342D02*
X206862914Y-196085771D01*
X207791485Y-196085771D01*
X208220057Y-197157200D02*
X208291485Y-197085771D01*
X208434342Y-196871485D01*
X208505771Y-196728628D01*
X208577200Y-196514342D01*
X208648628Y-196157200D01*
X208648628Y-195871485D01*
X208577200Y-195514342D01*
X208505771Y-195300057D01*
X208434342Y-195157200D01*
X208291485Y-194942914D01*
X208220057Y-194871485D01*
D10*
D11*
X177002200Y-191507200D02*
X285002200Y-191507200D01*
D10*
D12*
X264411485Y-193785771D02*
X263911485Y-193071485D01*
X263554342Y-193785771D02*
X263554342Y-192285771D01*
X264125771Y-192285771D01*
X264268628Y-192357200D01*
X264340057Y-192428628D01*
X264411485Y-192571485D01*
X264411485Y-192785771D01*
X264340057Y-192928628D01*
X264268628Y-193000057D01*
X264125771Y-193071485D01*
X263554342Y-193071485D01*
X265625771Y-193714342D02*
X265482914Y-193785771D01*
X265197200Y-193785771D01*
X265054342Y-193714342D01*
X264982914Y-193571485D01*
X264982914Y-193000057D01*
X265054342Y-192857200D01*
X265197200Y-192785771D01*
X265482914Y-192785771D01*
X265625771Y-192857200D01*
X265697200Y-193000057D01*
X265697200Y-193142914D01*
X264982914Y-193285771D01*
X266197200Y-192785771D02*
X266554342Y-193785771D01*
X266911485Y-192785771D01*
X267482914Y-193642914D02*
X267554342Y-193714342D01*
X267482914Y-193785771D01*
X267411485Y-193714342D01*
X267482914Y-193642914D01*
X267482914Y-193785771D01*
X267482914Y-192857200D02*
X267554342Y-192928628D01*
X267482914Y-193000057D01*
X267411485Y-192928628D01*
X267482914Y-192857200D01*
X267482914Y-193000057D01*
X269268628Y-192428628D02*
X269340057Y-192357200D01*
X269482914Y-192285771D01*
X269840057Y-192285771D01*
X269982914Y-192357200D01*
X270054342Y-192428628D01*
X270125771Y-192571485D01*
X270125771Y-192714342D01*
X270054342Y-192928628D01*
X269197200Y-193785771D01*
X270125771Y-193785771D01*
X270768628Y-193642914D02*
X270840057Y-193714342D01*
X270768628Y-193785771D01*
X270697200Y-193714342D01*
X270768628Y-193642914D01*
X270768628Y-193785771D01*
X271768628Y-192285771D02*
X271911485Y-192285771D01*
X272054342Y-192357200D01*
X272125771Y-192428628D01*
X272197200Y-192571485D01*
X272268628Y-192857200D01*
X272268628Y-193214342D01*
X272197200Y-193500057D01*
X272125771Y-193642914D01*
X272054342Y-193714342D01*
X271911485Y-193785771D01*
X271768628Y-193785771D01*
X271625771Y-193714342D01*
X271554342Y-193642914D01*
X271482914Y-193500057D01*
X271411485Y-193214342D01*
X271411485Y-192857200D01*
X271482914Y-192571485D01*
X271554342Y-192428628D01*
X271625771Y-192357200D01*
X271768628Y-192285771D01*
D10*
D11*
X178362914Y-193714342D02*
X178577200Y-193785771D01*
X178934342Y-193785771D01*
X179077200Y-193714342D01*
X179148628Y-193642914D01*
X179220057Y-193500057D01*
X179220057Y-193357200D01*
X179148628Y-193214342D01*
X179077200Y-193142914D01*
X178934342Y-193071485D01*
X178648628Y-193000057D01*
X178505771Y-192928628D01*
X178434342Y-192857200D01*
X178362914Y-192714342D01*
X178362914Y-192571485D01*
X178434342Y-192428628D01*
X178505771Y-192357200D01*
X178648628Y-192285771D01*
X179005771Y-192285771D01*
X179220057Y-192357200D01*
X179862914Y-193785771D02*
X179862914Y-192785771D01*
X179862914Y-192285771D02*
X179791485Y-192357200D01*
X179862914Y-192428628D01*
X179934342Y-192357200D01*
X179862914Y-192285771D01*
X179862914Y-192428628D01*
X180434342Y-192785771D02*
X181220057Y-192785771D01*
X180434342Y-193785771D01*
X181220057Y-193785771D01*
X182362914Y-193714342D02*
X182220057Y-193785771D01*
X181934342Y-193785771D01*
X181791485Y-193714342D01*
X181720057Y-193571485D01*
X181720057Y-193000057D01*
X181791485Y-192857200D01*
X181934342Y-192785771D01*
X182220057Y-192785771D01*
X182362914Y-192857200D01*
X182434342Y-193000057D01*
X182434342Y-193142914D01*
X181720057Y-193285771D01*
X183077200Y-193642914D02*
X183148628Y-193714342D01*
X183077200Y-193785771D01*
X183005771Y-193714342D01*
X183077200Y-193642914D01*
X183077200Y-193785771D01*
X183077200Y-192857200D02*
X183148628Y-192928628D01*
X183077200Y-193000057D01*
X183005771Y-192928628D01*
X183077200Y-192857200D01*
X183077200Y-193000057D01*
X184862914Y-193357200D02*
X185577200Y-193357200D01*
X184720057Y-193785771D02*
X185220057Y-192285771D01*
X185720057Y-193785771D01*
X186862914Y-192785771D02*
X186862914Y-193785771D01*
X186505771Y-192214342D02*
X186148628Y-193285771D01*
X187077200Y-193285771D01*
D10*
D11*
X263434342Y-196585771D02*
X263434342Y-195085771D01*
X264791485Y-196585771D02*
X264791485Y-195085771D01*
X264791485Y-196514342D02*
X264648628Y-196585771D01*
X264362914Y-196585771D01*
X264220057Y-196514342D01*
X264148628Y-196442914D01*
X264077200Y-196300057D01*
X264077200Y-195871485D01*
X264148628Y-195728628D01*
X264220057Y-195657200D01*
X264362914Y-195585771D01*
X264648628Y-195585771D01*
X264791485Y-195657200D01*
X265505771Y-196442914D02*
X265577200Y-196514342D01*
X265505771Y-196585771D01*
X265434342Y-196514342D01*
X265505771Y-196442914D01*
X265505771Y-196585771D01*
X265505771Y-195657200D02*
X265577200Y-195728628D01*
X265505771Y-195800057D01*
X265434342Y-195728628D01*
X265505771Y-195657200D01*
X265505771Y-195800057D01*
X268148628Y-196585771D02*
X267291485Y-196585771D01*
X267720057Y-196585771D02*
X267720057Y-195085771D01*
X267577200Y-195300057D01*
X267434342Y-195442914D01*
X267291485Y-195514342D01*
X269862914Y-195014342D02*
X268577200Y-196942914D01*
X271148628Y-196585771D02*
X270291485Y-196585771D01*
X270720057Y-196585771D02*
X270720057Y-195085771D01*
X270577200Y-195300057D01*
X270434342Y-195442914D01*
X270291485Y-195514342D01*
D10*
D11*
X177002200Y-187507200D02*
X285002200Y-187507200D01*
D10*
D13*
X178714580Y-188211961D02*
X179857438Y-188211961D01*
X179036009Y-190211961D02*
X179286009Y-188211961D01*
X180274104Y-190211961D02*
X180440771Y-188878628D01*
X180524104Y-188211961D02*
X180416961Y-188307200D01*
X180500295Y-188402438D01*
X180607438Y-188307200D01*
X180524104Y-188211961D01*
X180500295Y-188402438D01*
X181107438Y-188878628D02*
X181869342Y-188878628D01*
X181476485Y-188211961D02*
X181262200Y-189926247D01*
X181333628Y-190116723D01*
X181512200Y-190211961D01*
X181702676Y-190211961D01*
X182655057Y-190211961D02*
X182476485Y-190116723D01*
X182405057Y-189926247D01*
X182619342Y-188211961D01*
X184190771Y-190116723D02*
X183988390Y-190211961D01*
X183607438Y-190211961D01*
X183428866Y-190116723D01*
X183357438Y-189926247D01*
X183452676Y-189164342D01*
X183571723Y-188973866D01*
X183774104Y-188878628D01*
X184155057Y-188878628D01*
X184333628Y-188973866D01*
X184405057Y-189164342D01*
X184381247Y-189354819D01*
X183405057Y-189545295D01*
X185155057Y-190021485D02*
X185238390Y-190116723D01*
X185131247Y-190211961D01*
X185047914Y-190116723D01*
X185155057Y-190021485D01*
X185131247Y-190211961D01*
X185286009Y-188973866D02*
X185369342Y-189069104D01*
X185262200Y-189164342D01*
X185178866Y-189069104D01*
X185286009Y-188973866D01*
X185262200Y-189164342D01*
X187607438Y-190211961D02*
X187857438Y-188211961D01*
X188619342Y-188211961D01*
X188797914Y-188307200D01*
X188881247Y-188402438D01*
X188952676Y-188592914D01*
X188916961Y-188878628D01*
X188797914Y-189069104D01*
X188690771Y-189164342D01*
X188488390Y-189259580D01*
X187726485Y-189259580D01*
X189893152Y-190211961D02*
X189714580Y-190116723D01*
X189643152Y-189926247D01*
X189857438Y-188211961D01*
X190631247Y-188878628D02*
X190940771Y-190211961D01*
X191583628Y-188878628D02*
X190940771Y-190211961D01*
X190690771Y-190688152D01*
X190583628Y-190783390D01*
X190381247Y-190878628D01*
X192059819Y-188878628D02*
X192821723Y-188878628D01*
X192428866Y-188211961D02*
X192214580Y-189926247D01*
X192286009Y-190116723D01*
X192464580Y-190211961D01*
X192655057Y-190211961D01*
X194178866Y-190211961D02*
X194309819Y-189164342D01*
X194238390Y-188973866D01*
X194059819Y-188878628D01*
X193678866Y-188878628D01*
X193476485Y-188973866D01*
X194190771Y-190116723D02*
X193988390Y-190211961D01*
X193512200Y-190211961D01*
X193333628Y-190116723D01*
X193262200Y-189926247D01*
X193286009Y-189735771D01*
X193405057Y-189545295D01*
X193607438Y-189450057D01*
X194083628Y-189450057D01*
X194286009Y-189354819D01*
X196821723Y-188878628D02*
X196571723Y-190878628D01*
X196809819Y-188973866D02*
X197012200Y-188878628D01*
X197393152Y-188878628D01*
X197571723Y-188973866D01*
X197655057Y-189069104D01*
X197726485Y-189259580D01*
X197655057Y-189831009D01*
X197536009Y-190021485D01*
X197428866Y-190116723D01*
X197226485Y-190211961D01*
X196845533Y-190211961D01*
X196666961Y-190116723D01*
X198464580Y-190211961D02*
X198631247Y-188878628D01*
X198583628Y-189259580D02*
X198702676Y-189069104D01*
X198809819Y-188973866D01*
X199012200Y-188878628D01*
X199202676Y-188878628D01*
X199678866Y-188878628D02*
X200726485Y-188878628D01*
X199512200Y-190211961D01*
X200559819Y-190211961D01*
X202095533Y-190116723D02*
X201893152Y-190211961D01*
X201512200Y-190211961D01*
X201333628Y-190116723D01*
X201262200Y-189926247D01*
X201357438Y-189164342D01*
X201476485Y-188973866D01*
X201678866Y-188878628D01*
X202059819Y-188878628D01*
X202238390Y-188973866D01*
X202309819Y-189164342D01*
X202286009Y-189354819D01*
X201309819Y-189545295D01*
X203036009Y-190211961D02*
X203286009Y-188211961D01*
X203321723Y-189450057D02*
X203797914Y-190211961D01*
X203964580Y-188878628D02*
X203107438Y-189640533D01*
X205512200Y-190211961D02*
X205643152Y-189164342D01*
X205571723Y-188973866D01*
X205393152Y-188878628D01*
X205012200Y-188878628D01*
X204809819Y-188973866D01*
X205524104Y-190116723D02*
X205321723Y-190211961D01*
X204845533Y-190211961D01*
X204666961Y-190116723D01*
X204595533Y-189926247D01*
X204619342Y-189735771D01*
X204738390Y-189545295D01*
X204940771Y-189450057D01*
X205416961Y-189450057D01*
X205619342Y-189354819D01*
X206440771Y-188878628D02*
X207488390Y-188878628D01*
X206274104Y-190211961D01*
X207321723Y-190211961D01*
X208250295Y-188878628D02*
X208083628Y-190211961D01*
X208226485Y-189069104D02*
X208333628Y-188973866D01*
X208536009Y-188878628D01*
X208821723Y-188878628D01*
X209000295Y-188973866D01*
X209071723Y-189164342D01*
X208940771Y-190211961D01*
X209893152Y-190211961D02*
X210059819Y-188878628D01*
X210143152Y-188211961D02*
X210036009Y-188307200D01*
X210119342Y-188402438D01*
X210226485Y-188307200D01*
X210143152Y-188211961D01*
X210119342Y-188402438D01*
X210845533Y-190211961D02*
X211095533Y-188211961D01*
X211131247Y-189450057D02*
X211607438Y-190211961D01*
X211774104Y-188878628D02*
X210916961Y-189640533D01*
X212750295Y-190211961D02*
X212571723Y-190116723D01*
X212488390Y-190021485D01*
X212416961Y-189831009D01*
X212488390Y-189259580D01*
X212607438Y-189069104D01*
X212714580Y-188973866D01*
X212916961Y-188878628D01*
X213202676Y-188878628D01*
X213381247Y-188973866D01*
X213464580Y-189069104D01*
X213536009Y-189259580D01*
X213464580Y-189831009D01*
X213345533Y-190021485D01*
X213238390Y-190116723D01*
X213036009Y-190211961D01*
X212750295Y-190211961D01*
X214250295Y-188878628D02*
X214464580Y-190211961D01*
X214964580Y-189259580D01*
X215226485Y-190211961D01*
X215774104Y-188878628D01*
X218059819Y-188878628D02*
X217893152Y-190211961D01*
X218036009Y-189069104D02*
X218143152Y-188973866D01*
X218345533Y-188878628D01*
X218631247Y-188878628D01*
X218809819Y-188973866D01*
X218881247Y-189164342D01*
X218750295Y-190211961D01*
X220559819Y-190211961D02*
X220690771Y-189164342D01*
X220619342Y-188973866D01*
X220440771Y-188878628D01*
X220059819Y-188878628D01*
X219857438Y-188973866D01*
X220571723Y-190116723D02*
X220369342Y-190211961D01*
X219893152Y-190211961D01*
X219714580Y-190116723D01*
X219643152Y-189926247D01*
X219666961Y-189735771D01*
X219786009Y-189545295D01*
X219988390Y-189450057D01*
X220464580Y-189450057D01*
X220666961Y-189354819D01*
X222916961Y-188878628D02*
X223678866Y-188878628D01*
X223286009Y-188211961D02*
X223071723Y-189926247D01*
X223143152Y-190116723D01*
X223321723Y-190211961D01*
X223512200Y-190211961D01*
X224178866Y-190211961D02*
X224345533Y-188878628D01*
X224297914Y-189259580D02*
X224416961Y-189069104D01*
X224524104Y-188973866D01*
X224726485Y-188878628D01*
X224916961Y-188878628D01*
X225416961Y-190211961D02*
X225583628Y-188878628D01*
X225666961Y-188211961D02*
X225559819Y-188307200D01*
X225643152Y-188402438D01*
X225750295Y-188307200D01*
X225666961Y-188211961D01*
X225643152Y-188402438D01*
X227226485Y-190211961D02*
X227357438Y-189164342D01*
X227286009Y-188973866D01*
X227107438Y-188878628D01*
X226726485Y-188878628D01*
X226524104Y-188973866D01*
X227238390Y-190116723D02*
X227036009Y-190211961D01*
X226559819Y-190211961D01*
X226381247Y-190116723D01*
X226309819Y-189926247D01*
X226333628Y-189735771D01*
X226452676Y-189545295D01*
X226655057Y-189450057D01*
X227131247Y-189450057D01*
X227333628Y-189354819D01*
X228178866Y-190211961D02*
X228428866Y-188211961D01*
X228464580Y-189450057D02*
X228940771Y-190211961D01*
X229107438Y-188878628D02*
X228250295Y-189640533D01*
X230655057Y-190211961D02*
X230786009Y-189164342D01*
X230714580Y-188973866D01*
X230536009Y-188878628D01*
X230155057Y-188878628D01*
X229952676Y-188973866D01*
X230666961Y-190116723D02*
X230464580Y-190211961D01*
X229988390Y-190211961D01*
X229809819Y-190116723D01*
X229738390Y-189926247D01*
X229762200Y-189735771D01*
X229881247Y-189545295D01*
X230083628Y-189450057D01*
X230559819Y-189450057D01*
X230762200Y-189354819D01*
X232476485Y-190116723D02*
X232274104Y-190211961D01*
X231893152Y-190211961D01*
X231714580Y-190116723D01*
X231631247Y-190021485D01*
X231559819Y-189831009D01*
X231631247Y-189259580D01*
X231750295Y-189069104D01*
X231857438Y-188973866D01*
X232059819Y-188878628D01*
X232440771Y-188878628D01*
X232619342Y-188973866D01*
X233321723Y-190211961D02*
X233571723Y-188211961D01*
X234178866Y-190211961D02*
X234309819Y-189164342D01*
X234238390Y-188973866D01*
X234059819Y-188878628D01*
X233774104Y-188878628D01*
X233571723Y-188973866D01*
X233464580Y-189069104D01*
D10*
D11*
X178934342Y-185600057D02*
X178434342Y-185600057D01*
X178434342Y-186385771D02*
X178434342Y-184885771D01*
X179148628Y-184885771D01*
X179720057Y-186385771D02*
X179720057Y-185385771D01*
X179720057Y-184885771D02*
X179648628Y-184957200D01*
X179720057Y-185028628D01*
X179791485Y-184957200D01*
X179720057Y-184885771D01*
X179720057Y-185028628D01*
X180648628Y-186385771D02*
X180505771Y-186314342D01*
X180434342Y-186171485D01*
X180434342Y-184885771D01*
X181791485Y-186314342D02*
X181648628Y-186385771D01*
X181362914Y-186385771D01*
X181220057Y-186314342D01*
X181148628Y-186171485D01*
X181148628Y-185600057D01*
X181220057Y-185457200D01*
X181362914Y-185385771D01*
X181648628Y-185385771D01*
X181791485Y-185457200D01*
X181862914Y-185600057D01*
X181862914Y-185742914D01*
X181148628Y-185885771D01*
X182505771Y-186242914D02*
X182577200Y-186314342D01*
X182505771Y-186385771D01*
X182434342Y-186314342D01*
X182505771Y-186242914D01*
X182505771Y-186385771D01*
X182505771Y-185457200D02*
X182577200Y-185528628D01*
X182505771Y-185600057D01*
X182434342Y-185528628D01*
X182505771Y-185457200D01*
X182505771Y-185600057D01*
X185220057Y-186242914D02*
X185148628Y-186314342D01*
X184934342Y-186385771D01*
X184791485Y-186385771D01*
X184577200Y-186314342D01*
X184434342Y-186171485D01*
X184362914Y-186028628D01*
X184291485Y-185742914D01*
X184291485Y-185528628D01*
X184362914Y-185242914D01*
X184434342Y-185100057D01*
X184577200Y-184957200D01*
X184791485Y-184885771D01*
X184934342Y-184885771D01*
X185148628Y-184957200D01*
X185220057Y-185028628D01*
X186434342Y-186314342D02*
X186291485Y-186385771D01*
X186005771Y-186385771D01*
X185862914Y-186314342D01*
X185791485Y-186171485D01*
X185791485Y-185600057D01*
X185862914Y-185457200D01*
X186005771Y-185385771D01*
X186291485Y-185385771D01*
X186434342Y-185457200D01*
X186505771Y-185600057D01*
X186505771Y-185742914D01*
X185791485Y-185885771D01*
X187148628Y-185385771D02*
X187148628Y-186385771D01*
X187148628Y-185528628D02*
X187220057Y-185457200D01*
X187362914Y-185385771D01*
X187577200Y-185385771D01*
X187720057Y-185457200D01*
X187791485Y-185600057D01*
X187791485Y-186385771D01*
X188291485Y-185385771D02*
X188862914Y-185385771D01*
X188505771Y-184885771D02*
X188505771Y-186171485D01*
X188577200Y-186314342D01*
X188720057Y-186385771D01*
X188862914Y-186385771D01*
X189362914Y-186385771D02*
X189362914Y-185385771D01*
X189362914Y-185671485D02*
X189434342Y-185528628D01*
X189505771Y-185457200D01*
X189648628Y-185385771D01*
X189791485Y-185385771D01*
X190934342Y-186385771D02*
X190934342Y-185600057D01*
X190862914Y-185457200D01*
X190720057Y-185385771D01*
X190434342Y-185385771D01*
X190291485Y-185457200D01*
X190934342Y-186314342D02*
X190791485Y-186385771D01*
X190434342Y-186385771D01*
X190291485Y-186314342D01*
X190220057Y-186171485D01*
X190220057Y-186028628D01*
X190291485Y-185885771D01*
X190434342Y-185814342D01*
X190791485Y-185814342D01*
X190934342Y-185742914D01*
X191862914Y-186385771D02*
X191720057Y-186314342D01*
X191648628Y-186171485D01*
X191648628Y-184885771D01*
X193577200Y-186385771D02*
X193577200Y-184885771D01*
X193577200Y-185600057D02*
X194434342Y-185600057D01*
X194434342Y-186385771D02*
X194434342Y-184885771D01*
X195720057Y-186314342D02*
X195577200Y-186385771D01*
X195291485Y-186385771D01*
X195148628Y-186314342D01*
X195077200Y-186171485D01*
X195077200Y-185600057D01*
X195148628Y-185457200D01*
X195291485Y-185385771D01*
X195577200Y-185385771D01*
X195720057Y-185457200D01*
X195791485Y-185600057D01*
X195791485Y-185742914D01*
X195077200Y-185885771D01*
X197077200Y-186385771D02*
X197077200Y-185600057D01*
X197005771Y-185457200D01*
X196862914Y-185385771D01*
X196577200Y-185385771D01*
X196434342Y-185457200D01*
X197077200Y-186314342D02*
X196934342Y-186385771D01*
X196577200Y-186385771D01*
X196434342Y-186314342D01*
X196362914Y-186171485D01*
X196362914Y-186028628D01*
X196434342Y-185885771D01*
X196577200Y-185814342D01*
X196934342Y-185814342D01*
X197077200Y-185742914D01*
X197577200Y-185385771D02*
X198148628Y-185385771D01*
X197791485Y-184885771D02*
X197791485Y-186171485D01*
X197862914Y-186314342D01*
X198005771Y-186385771D01*
X198148628Y-186385771D01*
X198648628Y-186385771D02*
X198648628Y-185385771D01*
X198648628Y-184885771D02*
X198577200Y-184957200D01*
X198648628Y-185028628D01*
X198720057Y-184957200D01*
X198648628Y-184885771D01*
X198648628Y-185028628D01*
X199362914Y-185385771D02*
X199362914Y-186385771D01*
X199362914Y-185528628D02*
X199434342Y-185457200D01*
X199577200Y-185385771D01*
X199791485Y-185385771D01*
X199934342Y-185457200D01*
X200005771Y-185600057D01*
X200005771Y-186385771D01*
X201362914Y-185385771D02*
X201362914Y-186600057D01*
X201291485Y-186742914D01*
X201220057Y-186814342D01*
X201077200Y-186885771D01*
X200862914Y-186885771D01*
X200720057Y-186814342D01*
X201362914Y-186314342D02*
X201220057Y-186385771D01*
X200934342Y-186385771D01*
X200791485Y-186314342D01*
X200720057Y-186242914D01*
X200648628Y-186100057D01*
X200648628Y-185671485D01*
X200720057Y-185528628D01*
X200791485Y-185457200D01*
X200934342Y-185385771D01*
X201220057Y-185385771D01*
X201362914Y-185457200D01*
X204077200Y-186242914D02*
X204005771Y-186314342D01*
X203791485Y-186385771D01*
X203648628Y-186385771D01*
X203434342Y-186314342D01*
X203291485Y-186171485D01*
X203220057Y-186028628D01*
X203148628Y-185742914D01*
X203148628Y-185528628D01*
X203220057Y-185242914D01*
X203291485Y-185100057D01*
X203434342Y-184957200D01*
X203648628Y-184885771D01*
X203791485Y-184885771D01*
X204005771Y-184957200D01*
X204077200Y-185028628D01*
X204934342Y-186385771D02*
X204791485Y-186314342D01*
X204720057Y-186242914D01*
X204648628Y-186100057D01*
X204648628Y-185671485D01*
X204720057Y-185528628D01*
X204791485Y-185457200D01*
X204934342Y-185385771D01*
X205148628Y-185385771D01*
X205291485Y-185457200D01*
X205362914Y-185528628D01*
X205434342Y-185671485D01*
X205434342Y-186100057D01*
X205362914Y-186242914D01*
X205291485Y-186314342D01*
X205148628Y-186385771D01*
X204934342Y-186385771D01*
X206077200Y-185385771D02*
X206077200Y-186385771D01*
X206077200Y-185528628D02*
X206148628Y-185457200D01*
X206291485Y-185385771D01*
X206505771Y-185385771D01*
X206648628Y-185457200D01*
X206720057Y-185600057D01*
X206720057Y-186385771D01*
X207220057Y-185385771D02*
X207791485Y-185385771D01*
X207434342Y-184885771D02*
X207434342Y-186171485D01*
X207505771Y-186314342D01*
X207648628Y-186385771D01*
X207791485Y-186385771D01*
X208291485Y-186385771D02*
X208291485Y-185385771D01*
X208291485Y-185671485D02*
X208362914Y-185528628D01*
X208434342Y-185457200D01*
X208577200Y-185385771D01*
X208720057Y-185385771D01*
X209434342Y-186385771D02*
X209291485Y-186314342D01*
X209220057Y-186242914D01*
X209148628Y-186100057D01*
X209148628Y-185671485D01*
X209220057Y-185528628D01*
X209291485Y-185457200D01*
X209434342Y-185385771D01*
X209648628Y-185385771D01*
X209791485Y-185457200D01*
X209862914Y-185528628D01*
X209934342Y-185671485D01*
X209934342Y-186100057D01*
X209862914Y-186242914D01*
X209791485Y-186314342D01*
X209648628Y-186385771D01*
X209434342Y-186385771D01*
X210791485Y-186385771D02*
X210648628Y-186314342D01*
X210577200Y-186171485D01*
X210577200Y-184885771D01*
X212505771Y-186385771D02*
X212505771Y-184885771D01*
X213077200Y-184885771D01*
X213220057Y-184957200D01*
X213291485Y-185028628D01*
X213362914Y-185171485D01*
X213362914Y-185385771D01*
X213291485Y-185528628D01*
X213220057Y-185600057D01*
X213077200Y-185671485D01*
X212505771Y-185671485D01*
X214505771Y-185600057D02*
X214720057Y-185671485D01*
X214791485Y-185742914D01*
X214862914Y-185885771D01*
X214862914Y-186100057D01*
X214791485Y-186242914D01*
X214720057Y-186314342D01*
X214577200Y-186385771D01*
X214005771Y-186385771D01*
X214005771Y-184885771D01*
X214505771Y-184885771D01*
X214648628Y-184957200D01*
X214720057Y-185028628D01*
X214791485Y-185171485D01*
X214791485Y-185314342D01*
X214720057Y-185457200D01*
X214648628Y-185528628D01*
X214505771Y-185600057D01*
X214005771Y-185600057D01*
X215434342Y-185957200D02*
X216148628Y-185957200D01*
X215291485Y-186385771D02*
X215791485Y-184885771D01*
X216291485Y-186385771D01*
X216791485Y-186242914D02*
X216862914Y-186314342D01*
X216791485Y-186385771D01*
X216720057Y-186314342D01*
X216791485Y-186242914D01*
X216791485Y-186385771D01*
X217505771Y-186385771D02*
X217505771Y-184885771D01*
X217648628Y-185814342D02*
X218077200Y-186385771D01*
X218077200Y-185385771D02*
X217505771Y-185957200D01*
X218720057Y-186385771D02*
X218720057Y-185385771D01*
X218720057Y-184885771D02*
X218648628Y-184957200D01*
X218720057Y-185028628D01*
X218791485Y-184957200D01*
X218720057Y-184885771D01*
X218720057Y-185028628D01*
X220077200Y-186314342D02*
X219934342Y-186385771D01*
X219648628Y-186385771D01*
X219505771Y-186314342D01*
X219434342Y-186242914D01*
X219362914Y-186100057D01*
X219362914Y-185671485D01*
X219434342Y-185528628D01*
X219505771Y-185457200D01*
X219648628Y-185385771D01*
X219934342Y-185385771D01*
X220077200Y-185457200D01*
X221362914Y-186385771D02*
X221362914Y-185600057D01*
X221291485Y-185457200D01*
X221148628Y-185385771D01*
X220862914Y-185385771D01*
X220720057Y-185457200D01*
X221362914Y-186314342D02*
X221220057Y-186385771D01*
X220862914Y-186385771D01*
X220720057Y-186314342D01*
X220648628Y-186171485D01*
X220648628Y-186028628D01*
X220720057Y-185885771D01*
X220862914Y-185814342D01*
X221220057Y-185814342D01*
X221362914Y-185742914D01*
X222720057Y-186385771D02*
X222720057Y-184885771D01*
X222720057Y-186314342D02*
X222577200Y-186385771D01*
X222291485Y-186385771D01*
X222148628Y-186314342D01*
X222077200Y-186242914D01*
X222005771Y-186100057D01*
X222005771Y-185671485D01*
X222077200Y-185528628D01*
X222148628Y-185457200D01*
X222291485Y-185385771D01*
X222577200Y-185385771D01*
X222720057Y-185457200D01*
X223077200Y-186528628D02*
X224220057Y-186528628D01*
X224577200Y-185385771D02*
X224577200Y-186885771D01*
X224577200Y-185457200D02*
X224720057Y-185385771D01*
X225005771Y-185385771D01*
X225148628Y-185457200D01*
X225220057Y-185528628D01*
X225291485Y-185671485D01*
X225291485Y-186100057D01*
X225220057Y-186242914D01*
X225148628Y-186314342D01*
X225005771Y-186385771D01*
X224720057Y-186385771D01*
X224577200Y-186314342D01*
X226577200Y-186314342D02*
X226434342Y-186385771D01*
X226148628Y-186385771D01*
X226005771Y-186314342D01*
X225934342Y-186242914D01*
X225862914Y-186100057D01*
X225862914Y-185671485D01*
X225934342Y-185528628D01*
X226005771Y-185457200D01*
X226148628Y-185385771D01*
X226434342Y-185385771D01*
X226577200Y-185457200D01*
X227220057Y-186385771D02*
X227220057Y-184885771D01*
X227220057Y-185457200D02*
X227362914Y-185385771D01*
X227648628Y-185385771D01*
X227791485Y-185457200D01*
X227862914Y-185528628D01*
X227934342Y-185671485D01*
X227934342Y-186100057D01*
X227862914Y-186242914D01*
X227791485Y-186314342D01*
X227648628Y-186385771D01*
X227362914Y-186385771D01*
X227220057Y-186314342D01*
D10*
D11*
X177002200Y-181507200D02*
X285002200Y-181507200D01*
D10*
D11*
X178362914Y-183614342D02*
X178577200Y-183685771D01*
X178934342Y-183685771D01*
X179077200Y-183614342D01*
X179148628Y-183542914D01*
X179220057Y-183400057D01*
X179220057Y-183257200D01*
X179148628Y-183114342D01*
X179077200Y-183042914D01*
X178934342Y-182971485D01*
X178648628Y-182900057D01*
X178505771Y-182828628D01*
X178434342Y-182757200D01*
X178362914Y-182614342D01*
X178362914Y-182471485D01*
X178434342Y-182328628D01*
X178505771Y-182257200D01*
X178648628Y-182185771D01*
X179005771Y-182185771D01*
X179220057Y-182257200D01*
X179862914Y-183685771D02*
X179862914Y-182185771D01*
X180505771Y-183685771D02*
X180505771Y-182900057D01*
X180434342Y-182757200D01*
X180291485Y-182685771D01*
X180077200Y-182685771D01*
X179934342Y-182757200D01*
X179862914Y-182828628D01*
X181791485Y-183614342D02*
X181648628Y-183685771D01*
X181362914Y-183685771D01*
X181220057Y-183614342D01*
X181148628Y-183471485D01*
X181148628Y-182900057D01*
X181220057Y-182757200D01*
X181362914Y-182685771D01*
X181648628Y-182685771D01*
X181791485Y-182757200D01*
X181862914Y-182900057D01*
X181862914Y-183042914D01*
X181148628Y-183185771D01*
X183077200Y-183614342D02*
X182934342Y-183685771D01*
X182648628Y-183685771D01*
X182505771Y-183614342D01*
X182434342Y-183471485D01*
X182434342Y-182900057D01*
X182505771Y-182757200D01*
X182648628Y-182685771D01*
X182934342Y-182685771D01*
X183077200Y-182757200D01*
X183148628Y-182900057D01*
X183148628Y-183042914D01*
X182434342Y-183185771D01*
X183577200Y-182685771D02*
X184148628Y-182685771D01*
X183791485Y-182185771D02*
X183791485Y-183471485D01*
X183862914Y-183614342D01*
X184005771Y-183685771D01*
X184148628Y-183685771D01*
X184648628Y-183542914D02*
X184720057Y-183614342D01*
X184648628Y-183685771D01*
X184577200Y-183614342D01*
X184648628Y-183542914D01*
X184648628Y-183685771D01*
X184648628Y-182757200D02*
X184720057Y-182828628D01*
X184648628Y-182900057D01*
X184577200Y-182828628D01*
X184648628Y-182757200D01*
X184648628Y-182900057D01*
D10*
D12*
X178554342Y-180685771D02*
X178554342Y-179185771D01*
X179054342Y-180257200D01*
X179554342Y-179185771D01*
X179554342Y-180685771D01*
X180197200Y-180257200D02*
X180911485Y-180257200D01*
X180054342Y-180685771D02*
X180554342Y-179185771D01*
X181054342Y-180685771D01*
X182411485Y-180685771D02*
X181911485Y-179971485D01*
X181554342Y-180685771D02*
X181554342Y-179185771D01*
X182125771Y-179185771D01*
X182268628Y-179257200D01*
X182340057Y-179328628D01*
X182411485Y-179471485D01*
X182411485Y-179685771D01*
X182340057Y-179828628D01*
X182268628Y-179900057D01*
X182125771Y-179971485D01*
X181554342Y-179971485D01*
X183054342Y-180685771D02*
X183054342Y-179185771D01*
X183554342Y-180257200D01*
X184054342Y-179185771D01*
X184054342Y-180685771D01*
X184768628Y-180542914D02*
X184840057Y-180614342D01*
X184768628Y-180685771D01*
X184697200Y-180614342D01*
X184768628Y-180542914D01*
X184768628Y-180685771D01*
X185482914Y-179685771D02*
X185482914Y-181185771D01*
X185482914Y-179757200D02*
X185625771Y-179685771D01*
X185911485Y-179685771D01*
X186054342Y-179757200D01*
X186125771Y-179828628D01*
X186197200Y-179971485D01*
X186197200Y-180400057D01*
X186125771Y-180542914D01*
X186054342Y-180614342D01*
X185911485Y-180685771D01*
X185625771Y-180685771D01*
X185482914Y-180614342D01*
X187054342Y-180685771D02*
X186911485Y-180614342D01*
X186840057Y-180471485D01*
X186840057Y-179185771D01*
X188697200Y-180614342D02*
X188911485Y-180685771D01*
X189268628Y-180685771D01*
X189411485Y-180614342D01*
X189482914Y-180542914D01*
X189554342Y-180400057D01*
X189554342Y-180257200D01*
X189482914Y-180114342D01*
X189411485Y-180042914D01*
X189268628Y-179971485D01*
X188982914Y-179900057D01*
X188840057Y-179828628D01*
X188768628Y-179757200D01*
X188697200Y-179614342D01*
X188697200Y-179471485D01*
X188768628Y-179328628D01*
X188840057Y-179257200D01*
X188982914Y-179185771D01*
X189340057Y-179185771D01*
X189554342Y-179257200D01*
X190197200Y-179685771D02*
X190197200Y-181185771D01*
X190197200Y-179757200D02*
X190340057Y-179685771D01*
X190625771Y-179685771D01*
X190768628Y-179757200D01*
X190840057Y-179828628D01*
X190911485Y-179971485D01*
X190911485Y-180400057D01*
X190840057Y-180542914D01*
X190768628Y-180614342D01*
X190625771Y-180685771D01*
X190340057Y-180685771D01*
X190197200Y-180614342D01*
X191554342Y-180542914D02*
X191625771Y-180614342D01*
X191554342Y-180685771D01*
X191482914Y-180614342D01*
X191554342Y-180542914D01*
X191554342Y-180685771D01*
X193268628Y-179685771D02*
X194054342Y-179685771D01*
X193268628Y-180685771D01*
X194054342Y-180685771D01*
X195982914Y-180685771D02*
X195840057Y-180614342D01*
X195768628Y-180542914D01*
X195697200Y-180400057D01*
X195697200Y-179971485D01*
X195768628Y-179828628D01*
X195840057Y-179757200D01*
X195982914Y-179685771D01*
X196197200Y-179685771D01*
X196340057Y-179757200D01*
X196411485Y-179828628D01*
X196482914Y-179971485D01*
X196482914Y-180400057D01*
X196411485Y-180542914D01*
X196340057Y-180614342D01*
X196197200Y-180685771D01*
X195982914Y-180685771D01*
X197125771Y-180542914D02*
X197197200Y-180614342D01*
X197125771Y-180685771D01*
X197054342Y-180614342D01*
X197125771Y-180542914D01*
X197125771Y-180685771D01*
X198054342Y-180685771D02*
X197911485Y-180614342D01*
X197840057Y-180542914D01*
X197768628Y-180400057D01*
X197768628Y-179971485D01*
X197840057Y-179828628D01*
X197911485Y-179757200D01*
X198054342Y-179685771D01*
X198268628Y-179685771D01*
X198411485Y-179757200D01*
X198482914Y-179828628D01*
X198554342Y-179971485D01*
X198554342Y-180400057D01*
X198482914Y-180542914D01*
X198411485Y-180614342D01*
X198268628Y-180685771D01*
X198054342Y-180685771D01*
X199197200Y-180542914D02*
X199268628Y-180614342D01*
X199197200Y-180685771D01*
X199125771Y-180614342D01*
X199197200Y-180542914D01*
X199197200Y-180685771D01*
D10*
D11*
X179291485Y-177685771D02*
X178791485Y-176971485D01*
X178434342Y-177685771D02*
X178434342Y-176185771D01*
X179005771Y-176185771D01*
X179148628Y-176257200D01*
X179220057Y-176328628D01*
X179291485Y-176471485D01*
X179291485Y-176685771D01*
X179220057Y-176828628D01*
X179148628Y-176900057D01*
X179005771Y-176971485D01*
X178434342Y-176971485D01*
X180720057Y-176257200D02*
X180577200Y-176185771D01*
X180362914Y-176185771D01*
X180148628Y-176257200D01*
X180005771Y-176400057D01*
X179934342Y-176542914D01*
X179862914Y-176828628D01*
X179862914Y-177042914D01*
X179934342Y-177328628D01*
X180005771Y-177471485D01*
X180148628Y-177614342D01*
X180362914Y-177685771D01*
X180505771Y-177685771D01*
X180720057Y-177614342D01*
X180791485Y-177542914D01*
X180791485Y-177042914D01*
X180505771Y-177042914D01*
X181291485Y-176185771D02*
X181648628Y-177685771D01*
X181934342Y-176614342D01*
X182220057Y-177685771D01*
X182577200Y-176185771D01*
D10*
D11*
D10*
D11*
D10*
D11*
D10*
D11*
X197002200Y-191507200D02*
X197002200Y-194507200D01*
D10*
D11*
X261002200Y-191507200D02*
X261002200Y-198007200D01*
D14*
X33490866Y-122269803D02*
X33491300Y-36755890D01*
X206845866Y-36803803D02*
X206845866Y-122269803D01*
X33491300Y-36755890D02*
X206845866Y-36803803D01*
X51928769Y-99409803D02*
G75*
G03*
X51928769Y-99409803I-1419903J0D01*
G01*
X183500769Y-115284803D02*
G75*
G03*
X183500769Y-115284803I-1419903J0D01*
G01*
X51928769Y-49866043D02*
G75*
G03*
X51928769Y-49866043I-1419903J0D01*
G01*
X142098769Y-49866043D02*
G75*
G03*
X142098769Y-49866043I-1419903J0D01*
G01*
X206845866Y-122269803D02*
X33490866Y-122269803D01*
X111745769Y-110204803D02*
G75*
G03*
X111745769Y-110204803I-1419903J0D01*
G01*
X204455769Y-43246043D02*
G75*
G03*
X204455769Y-43246043I-1419903J0D01*
G01*
X183747532Y-115284803D02*
G75*
G03*
X183747532Y-115284803I-1666666J0D01*
G01*
X179580866Y-115284803D02*
X184580866Y-115284803D01*
X182080866Y-112784803D02*
X182080866Y-117784803D01*
X52175532Y-99409803D02*
G75*
G03*
X52175532Y-99409803I-1666666J0D01*
G01*
X48008866Y-99409803D02*
X53008866Y-99409803D01*
X50508866Y-96909803D02*
X50508866Y-101909803D01*
X204702532Y-43246043D02*
G75*
G03*
X204702532Y-43246043I-1666666J0D01*
G01*
X200535866Y-43246043D02*
X205535866Y-43246043D01*
X203035866Y-40746043D02*
X203035866Y-45746043D01*
X52175532Y-49866043D02*
G75*
G03*
X52175532Y-49866043I-1666666J0D01*
G01*
X48008866Y-49866043D02*
X53008866Y-49866043D01*
X50508866Y-47366043D02*
X50508866Y-52366043D01*
X111992532Y-110204803D02*
G75*
G03*
X111992532Y-110204803I-1666666J0D01*
G01*
X107825866Y-110204803D02*
X112825866Y-110204803D01*
X110325866Y-107704803D02*
X110325866Y-112704803D01*
X205501666Y-119380000D02*
G75*
G03*
X205501666Y-119380000I-1666666J0D01*
G01*
X201335000Y-119380000D02*
X206335000Y-119380000D01*
X203835000Y-116880000D02*
X203835000Y-121880000D01*
X142345532Y-49866043D02*
G75*
G03*
X142345532Y-49866043I-1666666J0D01*
G01*
X138178866Y-49866043D02*
X143178866Y-49866043D01*
X140678866Y-47366043D02*
X140678866Y-52366043D01*
D10*
%TO.C,U14*%
X71690000Y-103440000D02*
X71690000Y-104840000D01*
X73090000Y-104840000D01*
X73090000Y-103440000D01*
X71690000Y-103440000D01*
X73090000Y-101600000D02*
G75*
G03*
X73090000Y-101600000I-700000J0D01*
G01*
X73090000Y-99060000D02*
G75*
G03*
X73090000Y-99060000I-700000J0D01*
G01*
X73090000Y-96520000D02*
G75*
G03*
X73090000Y-96520000I-700000J0D01*
G01*
%TD*%
%TO.C,U13*%
X64956956Y-111002825D02*
X64956956Y-111952825D01*
X66356956Y-111952825D01*
X66356956Y-111002825D01*
X64956956Y-111002825D01*
X65881956Y-112272825D02*
X65431956Y-112272825D01*
X65881956Y-113222825D02*
X65431956Y-113222825D01*
X65431956Y-112272825D02*
G75*
G03*
X65431956Y-113222825I0J-475000D01*
G01*
X65881956Y-113222825D02*
G75*
G03*
X65881956Y-112272825I0J475000D01*
G01*
X65881956Y-113542825D02*
X65431956Y-113542825D01*
X65881956Y-114492825D02*
X65431956Y-114492825D01*
X65431956Y-113542825D02*
G75*
G03*
X65431956Y-114492825I0J-475000D01*
G01*
X65881956Y-114492825D02*
G75*
G03*
X65881956Y-113542825I0J475000D01*
G01*
%TD*%
%TO.C,J3_DC5V1*%
X136358606Y-111387762D02*
X136358606Y-113887762D01*
X138858606Y-113887762D01*
X138858606Y-111387762D01*
X136358606Y-111387762D01*
X138858606Y-107557762D02*
G75*
G03*
X138858606Y-107557762I-1250000J0D01*
G01*
X138858606Y-102477762D02*
G75*
G03*
X138858606Y-102477762I-1250000J0D01*
G01*
%TD*%
%TO.C,U1*%
X120598000Y-93268000D02*
X120598000Y-94692000D01*
X122022000Y-94692000D01*
X122022000Y-93268000D01*
X120598000Y-93268000D01*
X119482000Y-93980000D02*
G75*
G03*
X119482000Y-93980000I-712000J0D01*
G01*
X116942000Y-93980000D02*
G75*
G03*
X116942000Y-93980000I-712000J0D01*
G01*
X114402000Y-93980000D02*
G75*
G03*
X114402000Y-93980000I-712000J0D01*
G01*
X111862000Y-93980000D02*
G75*
G03*
X111862000Y-93980000I-712000J0D01*
G01*
X109322000Y-93980000D02*
G75*
G03*
X109322000Y-93980000I-712000J0D01*
G01*
X106782000Y-93980000D02*
G75*
G03*
X106782000Y-93980000I-712000J0D01*
G01*
X104242000Y-93980000D02*
G75*
G03*
X104242000Y-93980000I-712000J0D01*
G01*
X101702000Y-93980000D02*
G75*
G03*
X101702000Y-93980000I-712000J0D01*
G01*
X99162000Y-93980000D02*
G75*
G03*
X99162000Y-93980000I-712000J0D01*
G01*
X96622000Y-93980000D02*
G75*
G03*
X96622000Y-93980000I-712000J0D01*
G01*
X94082000Y-93980000D02*
G75*
G03*
X94082000Y-93980000I-712000J0D01*
G01*
X91542000Y-93980000D02*
G75*
G03*
X91542000Y-93980000I-712000J0D01*
G01*
X89002000Y-93980000D02*
G75*
G03*
X89002000Y-93980000I-712000J0D01*
G01*
X86462000Y-93980000D02*
G75*
G03*
X86462000Y-93980000I-712000J0D01*
G01*
X86462000Y-119380000D02*
G75*
G03*
X86462000Y-119380000I-712000J0D01*
G01*
X89002000Y-119380000D02*
G75*
G03*
X89002000Y-119380000I-712000J0D01*
G01*
X91542000Y-119380000D02*
G75*
G03*
X91542000Y-119380000I-712000J0D01*
G01*
X94082000Y-119380000D02*
G75*
G03*
X94082000Y-119380000I-712000J0D01*
G01*
X96622000Y-119380000D02*
G75*
G03*
X96622000Y-119380000I-712000J0D01*
G01*
X99162000Y-119380000D02*
G75*
G03*
X99162000Y-119380000I-712000J0D01*
G01*
X101702000Y-119380000D02*
G75*
G03*
X101702000Y-119380000I-712000J0D01*
G01*
X104242000Y-119380000D02*
G75*
G03*
X104242000Y-119380000I-712000J0D01*
G01*
X106782000Y-119380000D02*
G75*
G03*
X106782000Y-119380000I-712000J0D01*
G01*
X109322000Y-119380000D02*
G75*
G03*
X109322000Y-119380000I-712000J0D01*
G01*
X111862000Y-119380000D02*
G75*
G03*
X111862000Y-119380000I-712000J0D01*
G01*
X114402000Y-119380000D02*
G75*
G03*
X114402000Y-119380000I-712000J0D01*
G01*
X116942000Y-119380000D02*
G75*
G03*
X116942000Y-119380000I-712000J0D01*
G01*
X119482000Y-119380000D02*
G75*
G03*
X119482000Y-119380000I-712000J0D01*
G01*
X122022000Y-119380000D02*
G75*
G03*
X122022000Y-119380000I-712000J0D01*
G01*
%TD*%
%TO.C,J2*%
X87465000Y-102705000D02*
X87465000Y-104305000D01*
X89065000Y-104305000D01*
X89065000Y-102705000D01*
X87465000Y-102705000D01*
X90805000Y-104305000D02*
X90805000Y-104305000D01*
X90805000Y-102705000D02*
X90805000Y-102705000D01*
X90805000Y-104305000D02*
G75*
G03*
X90805000Y-102705000I0J800000D01*
G01*
X90805000Y-102705000D02*
G75*
G03*
X90805000Y-104305000I0J-800000D01*
G01*
X93345000Y-104305000D02*
X93345000Y-104305000D01*
X93345000Y-102705000D02*
X93345000Y-102705000D01*
X93345000Y-104305000D02*
G75*
G03*
X93345000Y-102705000I0J800000D01*
G01*
X93345000Y-102705000D02*
G75*
G03*
X93345000Y-104305000I0J-800000D01*
G01*
X95885000Y-104305000D02*
X95885000Y-104305000D01*
X95885000Y-102705000D02*
X95885000Y-102705000D01*
X95885000Y-104305000D02*
G75*
G03*
X95885000Y-102705000I0J800000D01*
G01*
X95885000Y-102705000D02*
G75*
G03*
X95885000Y-104305000I0J-800000D01*
G01*
X98425000Y-104305000D02*
X98425000Y-104305000D01*
X98425000Y-102705000D02*
X98425000Y-102705000D01*
X98425000Y-104305000D02*
G75*
G03*
X98425000Y-102705000I0J800000D01*
G01*
X98425000Y-102705000D02*
G75*
G03*
X98425000Y-104305000I0J-800000D01*
G01*
X100965000Y-104305000D02*
X100965000Y-104305000D01*
X100965000Y-102705000D02*
X100965000Y-102705000D01*
X100965000Y-104305000D02*
G75*
G03*
X100965000Y-102705000I0J800000D01*
G01*
X100965000Y-102705000D02*
G75*
G03*
X100965000Y-104305000I0J-800000D01*
G01*
X103505000Y-104305000D02*
X103505000Y-104305000D01*
X103505000Y-102705000D02*
X103505000Y-102705000D01*
X103505000Y-104305000D02*
G75*
G03*
X103505000Y-102705000I0J800000D01*
G01*
X103505000Y-102705000D02*
G75*
G03*
X103505000Y-104305000I0J-800000D01*
G01*
X106045000Y-104305000D02*
X106045000Y-104305000D01*
X106045000Y-102705000D02*
X106045000Y-102705000D01*
X106045000Y-104305000D02*
G75*
G03*
X106045000Y-102705000I0J800000D01*
G01*
X106045000Y-102705000D02*
G75*
G03*
X106045000Y-104305000I0J-800000D01*
G01*
X108585000Y-104305000D02*
X108585000Y-104305000D01*
X108585000Y-102705000D02*
X108585000Y-102705000D01*
X108585000Y-104305000D02*
G75*
G03*
X108585000Y-102705000I0J800000D01*
G01*
X108585000Y-102705000D02*
G75*
G03*
X108585000Y-104305000I0J-800000D01*
G01*
X111125000Y-104305000D02*
X111125000Y-104305000D01*
X111125000Y-102705000D02*
X111125000Y-102705000D01*
X111125000Y-104305000D02*
G75*
G03*
X111125000Y-102705000I0J800000D01*
G01*
X111125000Y-102705000D02*
G75*
G03*
X111125000Y-104305000I0J-800000D01*
G01*
X113665000Y-104305000D02*
X113665000Y-104305000D01*
X113665000Y-102705000D02*
X113665000Y-102705000D01*
X113665000Y-104305000D02*
G75*
G03*
X113665000Y-102705000I0J800000D01*
G01*
X113665000Y-102705000D02*
G75*
G03*
X113665000Y-104305000I0J-800000D01*
G01*
X116205000Y-104305000D02*
X116205000Y-104305000D01*
X116205000Y-102705000D02*
X116205000Y-102705000D01*
X116205000Y-104305000D02*
G75*
G03*
X116205000Y-102705000I0J800000D01*
G01*
X116205000Y-102705000D02*
G75*
G03*
X116205000Y-104305000I0J-800000D01*
G01*
%TD*%
%TO.C,J1*%
X43755000Y-104760000D02*
X43755000Y-106060000D01*
X45055000Y-106060000D01*
X45055000Y-104760000D01*
X43755000Y-104760000D01*
X45055000Y-109220000D02*
G75*
G03*
X45055000Y-109220000I-650000J0D01*
G01*
X45055000Y-113030000D02*
G75*
G03*
X45055000Y-113030000I-650000J0D01*
G01*
%TD*%
%TO.C,J6*%
X84428894Y-41665346D02*
G75*
G03*
X84428894Y-41665346I-1200000J0D01*
G01*
X89528894Y-40465346D02*
X89528894Y-42865346D01*
X91928894Y-42865346D01*
X91928894Y-40465346D01*
X89528894Y-40465346D01*
%TD*%
%TO.C,J13*%
X194528894Y-40465346D02*
X194528894Y-42865346D01*
X196928894Y-42865346D01*
X196928894Y-40465346D01*
X194528894Y-40465346D01*
X189428894Y-41665346D02*
G75*
G03*
X189428894Y-41665346I-1200000J0D01*
G01*
%TD*%
%TO.C,J12*%
X179528894Y-40465346D02*
X179528894Y-42865346D01*
X181928894Y-42865346D01*
X181928894Y-40465346D01*
X179528894Y-40465346D01*
X174428894Y-41665346D02*
G75*
G03*
X174428894Y-41665346I-1200000J0D01*
G01*
%TD*%
%TO.C,J5*%
X69428894Y-41665346D02*
G75*
G03*
X69428894Y-41665346I-1200000J0D01*
G01*
X74528894Y-40465346D02*
X74528894Y-42865346D01*
X76928894Y-42865346D01*
X76928894Y-40465346D01*
X74528894Y-40465346D01*
%TD*%
%TO.C,J7*%
X99428894Y-41665346D02*
G75*
G03*
X99428894Y-41665346I-1200000J0D01*
G01*
X104528894Y-40465346D02*
X104528894Y-42865346D01*
X106928894Y-42865346D01*
X106928894Y-40465346D01*
X104528894Y-40465346D01*
%TD*%
%TO.C,J5_AC_INPUT1*%
X194700000Y-115500000D02*
X194700000Y-117900000D01*
X197100000Y-117900000D01*
X197100000Y-115500000D01*
X194700000Y-115500000D01*
X197100000Y-109200000D02*
G75*
G03*
X197100000Y-109200000I-1200000J0D01*
G01*
%TD*%
%TO.C,J4_AC_OUTPUT1*%
X194700000Y-100500000D02*
X194700000Y-102900000D01*
X197100000Y-102900000D01*
X197100000Y-100500000D01*
X194700000Y-100500000D01*
X197100000Y-94200000D02*
G75*
G03*
X197100000Y-94200000I-1200000J0D01*
G01*
%TD*%
%TO.C,J8*%
X114428894Y-41665346D02*
G75*
G03*
X114428894Y-41665346I-1200000J0D01*
G01*
X119528894Y-40465346D02*
X119528894Y-42865346D01*
X121928894Y-42865346D01*
X121928894Y-40465346D01*
X119528894Y-40465346D01*
%TD*%
%TO.C,J9*%
X129428894Y-41665346D02*
G75*
G03*
X129428894Y-41665346I-1200000J0D01*
G01*
X134528894Y-40465346D02*
X134528894Y-42865346D01*
X136928894Y-42865346D01*
X136928894Y-40465346D01*
X134528894Y-40465346D01*
%TD*%
%TO.C,J10*%
X149528894Y-40465346D02*
X149528894Y-42865346D01*
X151928894Y-42865346D01*
X151928894Y-40465346D01*
X149528894Y-40465346D01*
X144428894Y-41665346D02*
G75*
G03*
X144428894Y-41665346I-1200000J0D01*
G01*
%TD*%
%TO.C,J3*%
X39428894Y-41665346D02*
G75*
G03*
X39428894Y-41665346I-1200000J0D01*
G01*
X44528894Y-40465346D02*
X44528894Y-42865346D01*
X46928894Y-42865346D01*
X46928894Y-40465346D01*
X44528894Y-40465346D01*
%TD*%
%TO.C,J4*%
X54428894Y-41665346D02*
G75*
G03*
X54428894Y-41665346I-1200000J0D01*
G01*
X59528894Y-40465346D02*
X59528894Y-42865346D01*
X61928894Y-42865346D01*
X61928894Y-40465346D01*
X59528894Y-40465346D01*
%TD*%
%TO.C,J11*%
X164528894Y-40465346D02*
X164528894Y-42865346D01*
X166928894Y-42865346D01*
X166928894Y-40465346D01*
X164528894Y-40465346D01*
X159428894Y-41665346D02*
G75*
G03*
X159428894Y-41665346I-1200000J0D01*
G01*
%TD*%
%TO.C,D3*%
X68588764Y-76596532D02*
X68588764Y-78296532D01*
X70288764Y-78296532D01*
X70288764Y-76596532D01*
X68588764Y-76596532D01*
X70288764Y-79986532D02*
G75*
G03*
X70288764Y-79986532I-850000J0D01*
G01*
%TD*%
%TO.C,U8*%
X131955000Y-87089803D02*
X131955000Y-89389803D01*
X133455000Y-89389803D01*
X133455000Y-87089803D01*
X131955000Y-87089803D01*
X135995000Y-88639803D02*
X135995000Y-87839803D01*
X134495000Y-88639803D02*
X134495000Y-87839803D01*
X135995000Y-87839803D02*
G75*
G03*
X134495000Y-87839803I-750000J0D01*
G01*
X134495000Y-88639803D02*
G75*
G03*
X135995000Y-88639803I750000J0D01*
G01*
X138535000Y-88639803D02*
X138535000Y-87839803D01*
X137035000Y-88639803D02*
X137035000Y-87839803D01*
X138535000Y-87839803D02*
G75*
G03*
X137035000Y-87839803I-750000J0D01*
G01*
X137035000Y-88639803D02*
G75*
G03*
X138535000Y-88639803I750000J0D01*
G01*
X138535000Y-81019803D02*
X138535000Y-80219803D01*
X137035000Y-81019803D02*
X137035000Y-80219803D01*
X138535000Y-80219803D02*
G75*
G03*
X137035000Y-80219803I-750000J0D01*
G01*
X137035000Y-81019803D02*
G75*
G03*
X138535000Y-81019803I750000J0D01*
G01*
X135995000Y-81019803D02*
X135995000Y-80219803D01*
X134495000Y-81019803D02*
X134495000Y-80219803D01*
X135995000Y-80219803D02*
G75*
G03*
X134495000Y-80219803I-750000J0D01*
G01*
X134495000Y-81019803D02*
G75*
G03*
X135995000Y-81019803I750000J0D01*
G01*
X133455000Y-81019803D02*
X133455000Y-80219803D01*
X131955000Y-81019803D02*
X131955000Y-80219803D01*
X133455000Y-80219803D02*
G75*
G03*
X131955000Y-80219803I-750000J0D01*
G01*
X131955000Y-81019803D02*
G75*
G03*
X133455000Y-81019803I750000J0D01*
G01*
%TD*%
%TO.C,R40*%
X169143866Y-52070000D02*
G75*
G03*
X169143866Y-52070000I-750000J0D01*
G01*
X166603866Y-52070000D02*
X166603866Y-52070000D01*
X165103866Y-52070000D02*
X165103866Y-52070000D01*
X166603866Y-52070000D02*
G75*
G03*
X165103866Y-52070000I-750000J0D01*
G01*
X165103866Y-52070000D02*
G75*
G03*
X166603866Y-52070000I750000J0D01*
G01*
%TD*%
%TO.C,R27*%
X115393866Y-66024803D02*
G75*
G03*
X115393866Y-66024803I-750000J0D01*
G01*
X114643866Y-64234803D02*
X114643866Y-64234803D01*
X114643866Y-62734803D02*
X114643866Y-62734803D01*
X114643866Y-64234803D02*
G75*
G03*
X114643866Y-62734803I0J750000D01*
G01*
X114643866Y-62734803D02*
G75*
G03*
X114643866Y-64234803I0J-750000D01*
G01*
%TD*%
%TO.C,D2*%
X54047965Y-76599803D02*
X54047965Y-78299803D01*
X55747965Y-78299803D01*
X55747965Y-76599803D01*
X54047965Y-76599803D01*
X55747965Y-79989803D02*
G75*
G03*
X55747965Y-79989803I-850000J0D01*
G01*
%TD*%
%TO.C,Q9*%
X160096366Y-56579606D02*
X160096366Y-58479606D01*
X161901366Y-58479606D01*
X161901366Y-56579606D01*
X160096366Y-56579606D01*
X162636366Y-57482106D02*
X162636366Y-57577106D01*
X164441366Y-57482106D02*
X164441366Y-57577106D01*
X162636366Y-57577106D02*
G75*
G03*
X164441366Y-57577106I902500J0D01*
G01*
X164441366Y-57482106D02*
G75*
G03*
X162636366Y-57482106I-902500J0D01*
G01*
X165176366Y-57482106D02*
X165176366Y-57577106D01*
X166981366Y-57482106D02*
X166981366Y-57577106D01*
X165176366Y-57577106D02*
G75*
G03*
X166981366Y-57577106I902500J0D01*
G01*
X166981366Y-57482106D02*
G75*
G03*
X165176366Y-57482106I-902500J0D01*
G01*
%TD*%
%TO.C,C3*%
X62463866Y-76715000D02*
G75*
G03*
X62463866Y-76715000I-1150000J0D01*
G01*
X62463866Y-61715000D02*
G75*
G03*
X62463866Y-61715000I-1150000J0D01*
G01*
%TD*%
%TO.C,R55*%
X190323866Y-66024803D02*
G75*
G03*
X190323866Y-66024803I-750000J0D01*
G01*
X189573866Y-64234803D02*
X189573866Y-64234803D01*
X189573866Y-62734803D02*
X189573866Y-62734803D01*
X189573866Y-64234803D02*
G75*
G03*
X189573866Y-62734803I0J750000D01*
G01*
X189573866Y-62734803D02*
G75*
G03*
X189573866Y-64234803I0J-750000D01*
G01*
%TD*%
%TO.C,JP1*%
X36393866Y-51520000D02*
X36393866Y-53120000D01*
X37993866Y-53120000D01*
X37993866Y-51520000D01*
X36393866Y-51520000D01*
X39733866Y-53120000D02*
X39733866Y-53120000D01*
X39733866Y-51520000D02*
X39733866Y-51520000D01*
X39733866Y-53120000D02*
G75*
G03*
X39733866Y-51520000I0J800000D01*
G01*
X39733866Y-51520000D02*
G75*
G03*
X39733866Y-53120000I0J-800000D01*
G01*
%TD*%
%TO.C,RV6*%
X121068866Y-49196043D02*
G75*
G03*
X121068866Y-49196043I-750000J0D01*
G01*
X116068866Y-47996043D02*
G75*
G03*
X116068866Y-47996043I-750000J0D01*
G01*
%TD*%
%TO.C,U2*%
X40858866Y-87089803D02*
X40858866Y-89389803D01*
X42358866Y-89389803D01*
X42358866Y-87089803D01*
X40858866Y-87089803D01*
X44898866Y-88639803D02*
X44898866Y-87839803D01*
X43398866Y-88639803D02*
X43398866Y-87839803D01*
X44898866Y-87839803D02*
G75*
G03*
X43398866Y-87839803I-750000J0D01*
G01*
X43398866Y-88639803D02*
G75*
G03*
X44898866Y-88639803I750000J0D01*
G01*
X47438866Y-88639803D02*
X47438866Y-87839803D01*
X45938866Y-88639803D02*
X45938866Y-87839803D01*
X47438866Y-87839803D02*
G75*
G03*
X45938866Y-87839803I-750000J0D01*
G01*
X45938866Y-88639803D02*
G75*
G03*
X47438866Y-88639803I750000J0D01*
G01*
X47438866Y-81019803D02*
X47438866Y-80219803D01*
X45938866Y-81019803D02*
X45938866Y-80219803D01*
X47438866Y-80219803D02*
G75*
G03*
X45938866Y-80219803I-750000J0D01*
G01*
X45938866Y-81019803D02*
G75*
G03*
X47438866Y-81019803I750000J0D01*
G01*
X44898866Y-81019803D02*
X44898866Y-80219803D01*
X43398866Y-81019803D02*
X43398866Y-80219803D01*
X44898866Y-80219803D02*
G75*
G03*
X43398866Y-80219803I-750000J0D01*
G01*
X43398866Y-81019803D02*
G75*
G03*
X44898866Y-81019803I750000J0D01*
G01*
X42358866Y-81019803D02*
X42358866Y-80219803D01*
X40858866Y-81019803D02*
X40858866Y-80219803D01*
X42358866Y-80219803D02*
G75*
G03*
X40858866Y-80219803I-750000J0D01*
G01*
X40858866Y-81019803D02*
G75*
G03*
X42358866Y-81019803I750000J0D01*
G01*
%TD*%
%TO.C,Q7*%
X128981366Y-56579606D02*
X128981366Y-58479606D01*
X130786366Y-58479606D01*
X130786366Y-56579606D01*
X128981366Y-56579606D01*
X131521366Y-57482106D02*
X131521366Y-57577106D01*
X133326366Y-57482106D02*
X133326366Y-57577106D01*
X131521366Y-57577106D02*
G75*
G03*
X133326366Y-57577106I902500J0D01*
G01*
X133326366Y-57482106D02*
G75*
G03*
X131521366Y-57482106I-902500J0D01*
G01*
X134061366Y-57482106D02*
X134061366Y-57577106D01*
X135866366Y-57482106D02*
X135866366Y-57577106D01*
X134061366Y-57577106D02*
G75*
G03*
X135866366Y-57577106I902500J0D01*
G01*
X135866366Y-57482106D02*
G75*
G03*
X134061366Y-57482106I-902500J0D01*
G01*
%TD*%
%TO.C,R30*%
X161113866Y-66024803D02*
G75*
G03*
X161113866Y-66024803I-750000J0D01*
G01*
X160363866Y-64234803D02*
X160363866Y-64234803D01*
X160363866Y-62734803D02*
X160363866Y-62734803D01*
X160363866Y-64234803D02*
G75*
G03*
X160363866Y-62734803I0J750000D01*
G01*
X160363866Y-62734803D02*
G75*
G03*
X160363866Y-64234803I0J-750000D01*
G01*
%TD*%
%TO.C,JP9*%
X82748866Y-51520000D02*
X82748866Y-53120000D01*
X84348866Y-53120000D01*
X84348866Y-51520000D01*
X82748866Y-51520000D01*
X86088866Y-53120000D02*
X86088866Y-53120000D01*
X86088866Y-51520000D02*
X86088866Y-51520000D01*
X86088866Y-53120000D02*
G75*
G03*
X86088866Y-51520000I0J800000D01*
G01*
X86088866Y-51520000D02*
G75*
G03*
X86088866Y-53120000I0J-800000D01*
G01*
%TD*%
%TO.C,Q2*%
X55321366Y-56579606D02*
X55321366Y-58479606D01*
X57126366Y-58479606D01*
X57126366Y-56579606D01*
X55321366Y-56579606D01*
X57861366Y-57482106D02*
X57861366Y-57577106D01*
X59666366Y-57482106D02*
X59666366Y-57577106D01*
X57861366Y-57577106D02*
G75*
G03*
X59666366Y-57577106I902500J0D01*
G01*
X59666366Y-57482106D02*
G75*
G03*
X57861366Y-57482106I-902500J0D01*
G01*
X60401366Y-57482106D02*
X60401366Y-57577106D01*
X62206366Y-57482106D02*
X62206366Y-57577106D01*
X60401366Y-57577106D02*
G75*
G03*
X62206366Y-57577106I902500J0D01*
G01*
X62206366Y-57482106D02*
G75*
G03*
X60401366Y-57482106I-902500J0D01*
G01*
%TD*%
%TO.C,R28*%
X129998866Y-66024803D02*
G75*
G03*
X129998866Y-66024803I-750000J0D01*
G01*
X129248866Y-64234803D02*
X129248866Y-64234803D01*
X129248866Y-62734803D02*
X129248866Y-62734803D01*
X129248866Y-64234803D02*
G75*
G03*
X129248866Y-62734803I0J750000D01*
G01*
X129248866Y-62734803D02*
G75*
G03*
X129248866Y-64234803I0J-750000D01*
G01*
%TD*%
%TO.C,D5*%
X98423780Y-76630256D02*
X98423780Y-78330256D01*
X100123780Y-78330256D01*
X100123780Y-76630256D01*
X98423780Y-76630256D01*
X100123780Y-80020256D02*
G75*
G03*
X100123780Y-80020256I-850000J0D01*
G01*
%TD*%
%TO.C,R38*%
X136758866Y-52070000D02*
G75*
G03*
X136758866Y-52070000I-750000J0D01*
G01*
X134218866Y-52070000D02*
X134218866Y-52070000D01*
X132718866Y-52070000D02*
X132718866Y-52070000D01*
X134218866Y-52070000D02*
G75*
G03*
X132718866Y-52070000I-750000J0D01*
G01*
X132718866Y-52070000D02*
G75*
G03*
X134218866Y-52070000I750000J0D01*
G01*
%TD*%
%TO.C,JP6*%
X126563866Y-51520000D02*
X126563866Y-53120000D01*
X128163866Y-53120000D01*
X128163866Y-51520000D01*
X126563866Y-51520000D01*
X129903866Y-53120000D02*
X129903866Y-53120000D01*
X129903866Y-51520000D02*
X129903866Y-51520000D01*
X129903866Y-53120000D02*
G75*
G03*
X129903866Y-51520000I0J800000D01*
G01*
X129903866Y-51520000D02*
G75*
G03*
X129903866Y-53120000I0J-800000D01*
G01*
%TD*%
%TO.C,R25*%
X70943866Y-66024803D02*
G75*
G03*
X70943866Y-66024803I-750000J0D01*
G01*
X70193866Y-64234803D02*
X70193866Y-64234803D01*
X70193866Y-62734803D02*
X70193866Y-62734803D01*
X70193866Y-64234803D02*
G75*
G03*
X70193866Y-62734803I0J750000D01*
G01*
X70193866Y-62734803D02*
G75*
G03*
X70193866Y-64234803I0J-750000D01*
G01*
%TD*%
%TO.C,C4*%
X77058866Y-76715000D02*
G75*
G03*
X77058866Y-76715000I-1150000J0D01*
G01*
X77058866Y-61715000D02*
G75*
G03*
X77058866Y-61715000I-1150000J0D01*
G01*
%TD*%
%TO.C,JP5*%
X112593866Y-51520000D02*
X112593866Y-53120000D01*
X114193866Y-53120000D01*
X114193866Y-51520000D01*
X112593866Y-51520000D01*
X115933866Y-53120000D02*
X115933866Y-53120000D01*
X115933866Y-51520000D02*
X115933866Y-51520000D01*
X115933866Y-53120000D02*
G75*
G03*
X115933866Y-51520000I0J800000D01*
G01*
X115933866Y-51520000D02*
G75*
G03*
X115933866Y-53120000I0J-800000D01*
G01*
%TD*%
%TO.C,D4*%
X83234475Y-76589169D02*
X83234475Y-78289169D01*
X84934475Y-78289169D01*
X84934475Y-76589169D01*
X83234475Y-76589169D01*
X84934475Y-79979169D02*
G75*
G03*
X84934475Y-79979169I-850000J0D01*
G01*
%TD*%
%TO.C,Q1*%
X38176366Y-56579606D02*
X38176366Y-58479606D01*
X39981366Y-58479606D01*
X39981366Y-56579606D01*
X38176366Y-56579606D01*
X40716366Y-57482106D02*
X40716366Y-57577106D01*
X42521366Y-57482106D02*
X42521366Y-57577106D01*
X40716366Y-57577106D02*
G75*
G03*
X42521366Y-57577106I902500J0D01*
G01*
X42521366Y-57482106D02*
G75*
G03*
X40716366Y-57482106I-902500J0D01*
G01*
X43256366Y-57482106D02*
X43256366Y-57577106D01*
X45061366Y-57482106D02*
X45061366Y-57577106D01*
X43256366Y-57577106D02*
G75*
G03*
X45061366Y-57577106I902500J0D01*
G01*
X45061366Y-57482106D02*
G75*
G03*
X43256366Y-57482106I-902500J0D01*
G01*
%TD*%
%TO.C,U11*%
X178018866Y-87089803D02*
X178018866Y-89389803D01*
X179518866Y-89389803D01*
X179518866Y-87089803D01*
X178018866Y-87089803D01*
X182058866Y-88639803D02*
X182058866Y-87839803D01*
X180558866Y-88639803D02*
X180558866Y-87839803D01*
X182058866Y-87839803D02*
G75*
G03*
X180558866Y-87839803I-750000J0D01*
G01*
X180558866Y-88639803D02*
G75*
G03*
X182058866Y-88639803I750000J0D01*
G01*
X184598866Y-88639803D02*
X184598866Y-87839803D01*
X183098866Y-88639803D02*
X183098866Y-87839803D01*
X184598866Y-87839803D02*
G75*
G03*
X183098866Y-87839803I-750000J0D01*
G01*
X183098866Y-88639803D02*
G75*
G03*
X184598866Y-88639803I750000J0D01*
G01*
X184598866Y-81019803D02*
X184598866Y-80219803D01*
X183098866Y-81019803D02*
X183098866Y-80219803D01*
X184598866Y-80219803D02*
G75*
G03*
X183098866Y-80219803I-750000J0D01*
G01*
X183098866Y-81019803D02*
G75*
G03*
X184598866Y-81019803I750000J0D01*
G01*
X182058866Y-81019803D02*
X182058866Y-80219803D01*
X180558866Y-81019803D02*
X180558866Y-80219803D01*
X182058866Y-80219803D02*
G75*
G03*
X180558866Y-80219803I-750000J0D01*
G01*
X180558866Y-81019803D02*
G75*
G03*
X182058866Y-81019803I750000J0D01*
G01*
X179518866Y-81019803D02*
X179518866Y-80219803D01*
X178018866Y-81019803D02*
X178018866Y-80219803D01*
X179518866Y-80219803D02*
G75*
G03*
X178018866Y-80219803I-750000J0D01*
G01*
X178018866Y-81019803D02*
G75*
G03*
X179518866Y-81019803I750000J0D01*
G01*
%TD*%
%TO.C,RV2*%
X62648866Y-49196043D02*
G75*
G03*
X62648866Y-49196043I-750000J0D01*
G01*
X57648866Y-47996043D02*
G75*
G03*
X57648866Y-47996043I-750000J0D01*
G01*
%TD*%
%TO.C,R26*%
X85548866Y-66024803D02*
G75*
G03*
X85548866Y-66024803I-750000J0D01*
G01*
X84798866Y-64234803D02*
X84798866Y-64234803D01*
X84798866Y-62734803D02*
X84798866Y-62734803D01*
X84798866Y-64234803D02*
G75*
G03*
X84798866Y-62734803I0J750000D01*
G01*
X84798866Y-62734803D02*
G75*
G03*
X84798866Y-64234803I0J-750000D01*
G01*
%TD*%
%TO.C,R31*%
X176353866Y-66024803D02*
G75*
G03*
X176353866Y-66024803I-750000J0D01*
G01*
X175603866Y-64234803D02*
X175603866Y-64234803D01*
X175603866Y-62734803D02*
X175603866Y-62734803D01*
X175603866Y-64234803D02*
G75*
G03*
X175603866Y-62734803I0J750000D01*
G01*
X175603866Y-62734803D02*
G75*
G03*
X175603866Y-64234803I0J-750000D01*
G01*
%TD*%
%TO.C,JP3*%
X68143866Y-51520000D02*
X68143866Y-53120000D01*
X69743866Y-53120000D01*
X69743866Y-51520000D01*
X68143866Y-51520000D01*
X71483866Y-53120000D02*
X71483866Y-53120000D01*
X71483866Y-51520000D02*
X71483866Y-51520000D01*
X71483866Y-53120000D02*
G75*
G03*
X71483866Y-51520000I0J800000D01*
G01*
X71483866Y-51520000D02*
G75*
G03*
X71483866Y-53120000I0J-800000D01*
G01*
%TD*%
%TO.C,C7*%
X136405000Y-76715000D02*
G75*
G03*
X136405000Y-76715000I-1150000J0D01*
G01*
X136405000Y-61715000D02*
G75*
G03*
X136405000Y-61715000I-1150000J0D01*
G01*
%TD*%
%TO.C,RV1*%
X44233866Y-49196043D02*
G75*
G03*
X44233866Y-49196043I-750000J0D01*
G01*
X39233866Y-47996043D02*
G75*
G03*
X39233866Y-47996043I-750000J0D01*
G01*
%TD*%
%TO.C,R34*%
X79608866Y-52070000D02*
G75*
G03*
X79608866Y-52070000I-750000J0D01*
G01*
X77068866Y-52070000D02*
X77068866Y-52070000D01*
X75568866Y-52070000D02*
X75568866Y-52070000D01*
X77068866Y-52070000D02*
G75*
G03*
X75568866Y-52070000I-750000J0D01*
G01*
X75568866Y-52070000D02*
G75*
G03*
X77068866Y-52070000I750000J0D01*
G01*
%TD*%
%TO.C,Q3*%
X69926366Y-56579606D02*
X69926366Y-58479606D01*
X71731366Y-58479606D01*
X71731366Y-56579606D01*
X69926366Y-56579606D01*
X72466366Y-57482106D02*
X72466366Y-57577106D01*
X74271366Y-57482106D02*
X74271366Y-57577106D01*
X72466366Y-57577106D02*
G75*
G03*
X74271366Y-57577106I902500J0D01*
G01*
X74271366Y-57482106D02*
G75*
G03*
X72466366Y-57482106I-902500J0D01*
G01*
X75006366Y-57482106D02*
X75006366Y-57577106D01*
X76811366Y-57482106D02*
X76811366Y-57577106D01*
X75006366Y-57577106D02*
G75*
G03*
X76811366Y-57577106I902500J0D01*
G01*
X76811366Y-57482106D02*
G75*
G03*
X75006366Y-57482106I-902500J0D01*
G01*
%TD*%
%TO.C,Q8*%
X144221366Y-56579606D02*
X144221366Y-58479606D01*
X146026366Y-58479606D01*
X146026366Y-56579606D01*
X144221366Y-56579606D01*
X146761366Y-57482106D02*
X146761366Y-57577106D01*
X148566366Y-57482106D02*
X148566366Y-57577106D01*
X146761366Y-57577106D02*
G75*
G03*
X148566366Y-57577106I902500J0D01*
G01*
X148566366Y-57482106D02*
G75*
G03*
X146761366Y-57482106I-902500J0D01*
G01*
X149301366Y-57482106D02*
X149301366Y-57577106D01*
X151106366Y-57482106D02*
X151106366Y-57577106D01*
X149301366Y-57577106D02*
G75*
G03*
X151106366Y-57577106I902500J0D01*
G01*
X151106366Y-57482106D02*
G75*
G03*
X149301366Y-57482106I-902500J0D01*
G01*
%TD*%
%TO.C,JP7*%
X144978866Y-51520000D02*
X144978866Y-53120000D01*
X146578866Y-53120000D01*
X146578866Y-51520000D01*
X144978866Y-51520000D01*
X148318866Y-53120000D02*
X148318866Y-53120000D01*
X148318866Y-51520000D02*
X148318866Y-51520000D01*
X148318866Y-53120000D02*
G75*
G03*
X148318866Y-51520000I0J800000D01*
G01*
X148318866Y-51520000D02*
G75*
G03*
X148318866Y-53120000I0J-800000D01*
G01*
%TD*%
%TO.C,R19*%
X145273355Y-72149803D02*
G75*
G03*
X145273355Y-72149803I-750000J0D01*
G01*
X144523355Y-70359803D02*
X144523355Y-70359803D01*
X144523355Y-68859803D02*
X144523355Y-68859803D01*
X144523355Y-70359803D02*
G75*
G03*
X144523355Y-68859803I0J750000D01*
G01*
X144523355Y-68859803D02*
G75*
G03*
X144523355Y-70359803I0J-750000D01*
G01*
%TD*%
%TO.C,JP11*%
X186888866Y-51520000D02*
X186888866Y-53120000D01*
X188488866Y-53120000D01*
X188488866Y-51520000D01*
X186888866Y-51520000D01*
X190228866Y-53120000D02*
X190228866Y-53120000D01*
X190228866Y-51520000D02*
X190228866Y-51520000D01*
X190228866Y-53120000D02*
G75*
G03*
X190228866Y-51520000I0J800000D01*
G01*
X190228866Y-51520000D02*
G75*
G03*
X190228866Y-53120000I0J-800000D01*
G01*
%TD*%
%TO.C,JP2*%
X55079563Y-51486798D02*
X55079563Y-53086798D01*
X56679563Y-53086798D01*
X56679563Y-51486798D01*
X55079563Y-51486798D01*
X58419563Y-53086798D02*
X58419563Y-53086798D01*
X58419563Y-51486798D02*
X58419563Y-51486798D01*
X58419563Y-53086798D02*
G75*
G03*
X58419563Y-51486798I0J800000D01*
G01*
X58419563Y-51486798D02*
G75*
G03*
X58419563Y-53086798I0J-800000D01*
G01*
%TD*%
%TO.C,R56*%
X198353866Y-52070000D02*
G75*
G03*
X198353866Y-52070000I-750000J0D01*
G01*
X195813866Y-52070000D02*
X195813866Y-52070000D01*
X194313866Y-52070000D02*
X194313866Y-52070000D01*
X195813866Y-52070000D02*
G75*
G03*
X194313866Y-52070000I-750000J0D01*
G01*
X194313866Y-52070000D02*
G75*
G03*
X195813866Y-52070000I750000J0D01*
G01*
%TD*%
%TO.C,RV12*%
X183430866Y-104529803D02*
G75*
G03*
X183430866Y-104529803I-750000J0D01*
G01*
X182230866Y-109529803D02*
G75*
G03*
X182230866Y-109529803I-750000J0D01*
G01*
%TD*%
%TO.C,C2*%
X45308866Y-76595000D02*
G75*
G03*
X45308866Y-76595000I-1150000J0D01*
G01*
X45308866Y-61595000D02*
G75*
G03*
X45308866Y-61595000I-1150000J0D01*
G01*
%TD*%
%TO.C,Q10*%
X175336366Y-56579606D02*
X175336366Y-58479606D01*
X177141366Y-58479606D01*
X177141366Y-56579606D01*
X175336366Y-56579606D01*
X177876366Y-57482106D02*
X177876366Y-57577106D01*
X179681366Y-57482106D02*
X179681366Y-57577106D01*
X177876366Y-57577106D02*
G75*
G03*
X179681366Y-57577106I902500J0D01*
G01*
X179681366Y-57482106D02*
G75*
G03*
X177876366Y-57482106I-902500J0D01*
G01*
X180416366Y-57482106D02*
X180416366Y-57577106D01*
X182221366Y-57482106D02*
X182221366Y-57577106D01*
X180416366Y-57577106D02*
G75*
G03*
X182221366Y-57577106I902500J0D01*
G01*
X182221366Y-57482106D02*
G75*
G03*
X180416366Y-57482106I-902500J0D01*
G01*
%TD*%
%TO.C,U10*%
X162778866Y-87089803D02*
X162778866Y-89389803D01*
X164278866Y-89389803D01*
X164278866Y-87089803D01*
X162778866Y-87089803D01*
X166818866Y-88639803D02*
X166818866Y-87839803D01*
X165318866Y-88639803D02*
X165318866Y-87839803D01*
X166818866Y-87839803D02*
G75*
G03*
X165318866Y-87839803I-750000J0D01*
G01*
X165318866Y-88639803D02*
G75*
G03*
X166818866Y-88639803I750000J0D01*
G01*
X169358866Y-88639803D02*
X169358866Y-87839803D01*
X167858866Y-88639803D02*
X167858866Y-87839803D01*
X169358866Y-87839803D02*
G75*
G03*
X167858866Y-87839803I-750000J0D01*
G01*
X167858866Y-88639803D02*
G75*
G03*
X169358866Y-88639803I750000J0D01*
G01*
X169358866Y-81019803D02*
X169358866Y-80219803D01*
X167858866Y-81019803D02*
X167858866Y-80219803D01*
X169358866Y-80219803D02*
G75*
G03*
X167858866Y-80219803I-750000J0D01*
G01*
X167858866Y-81019803D02*
G75*
G03*
X169358866Y-81019803I750000J0D01*
G01*
X166818866Y-81019803D02*
X166818866Y-80219803D01*
X165318866Y-81019803D02*
X165318866Y-80219803D01*
X166818866Y-80219803D02*
G75*
G03*
X165318866Y-80219803I-750000J0D01*
G01*
X165318866Y-81019803D02*
G75*
G03*
X166818866Y-81019803I750000J0D01*
G01*
X164278866Y-81019803D02*
X164278866Y-80219803D01*
X162778866Y-81019803D02*
X162778866Y-80219803D01*
X164278866Y-80219803D02*
G75*
G03*
X162778866Y-80219803I-750000J0D01*
G01*
X162778866Y-81019803D02*
G75*
G03*
X164278866Y-81019803I750000J0D01*
G01*
%TD*%
%TO.C,R54*%
X190323866Y-72149803D02*
G75*
G03*
X190323866Y-72149803I-750000J0D01*
G01*
X189573866Y-70359803D02*
X189573866Y-70359803D01*
X189573866Y-68859803D02*
X189573866Y-68859803D01*
X189573866Y-70359803D02*
G75*
G03*
X189573866Y-68859803I0J750000D01*
G01*
X189573866Y-68859803D02*
G75*
G03*
X189573866Y-70359803I0J-750000D01*
G01*
%TD*%
%TO.C,D8*%
X142835800Y-76626874D02*
X142835800Y-78326874D01*
X144535800Y-78326874D01*
X144535800Y-76626874D01*
X142835800Y-76626874D01*
X144535800Y-80016874D02*
G75*
G03*
X144535800Y-80016874I-850000J0D01*
G01*
%TD*%
%TO.C,F1*%
X188664448Y-111028579D02*
G75*
G03*
X188664448Y-111028579I-1100000J0D01*
G01*
X188664448Y-115628579D02*
G75*
G03*
X188664448Y-115628579I-1100000J0D01*
G01*
X188664448Y-95128579D02*
G75*
G03*
X188664448Y-95128579I-1100000J0D01*
G01*
X188664448Y-99728579D02*
G75*
G03*
X188664448Y-99728579I-1100000J0D01*
G01*
%TD*%
%TO.C,R24*%
X56348866Y-66024803D02*
G75*
G03*
X56348866Y-66024803I-750000J0D01*
G01*
X55598866Y-64234803D02*
X55598866Y-64234803D01*
X55598866Y-62734803D02*
X55598866Y-62734803D01*
X55598866Y-64234803D02*
G75*
G03*
X55598866Y-62734803I0J750000D01*
G01*
X55598866Y-62734803D02*
G75*
G03*
X55598866Y-64234803I0J-750000D01*
G01*
%TD*%
%TO.C,R21*%
X176353866Y-72149803D02*
G75*
G03*
X176353866Y-72149803I-750000J0D01*
G01*
X175603866Y-70359803D02*
X175603866Y-70359803D01*
X175603866Y-68859803D02*
X175603866Y-68859803D01*
X175603866Y-70359803D02*
G75*
G03*
X175603866Y-68859803I0J750000D01*
G01*
X175603866Y-68859803D02*
G75*
G03*
X175603866Y-70359803I0J-750000D01*
G01*
%TD*%
%TO.C,R37*%
X124058866Y-52070000D02*
G75*
G03*
X124058866Y-52070000I-750000J0D01*
G01*
X121518866Y-52070000D02*
X121518866Y-52070000D01*
X120018866Y-52070000D02*
X120018866Y-52070000D01*
X121518866Y-52070000D02*
G75*
G03*
X120018866Y-52070000I-750000J0D01*
G01*
X120018866Y-52070000D02*
G75*
G03*
X121518866Y-52070000I750000J0D01*
G01*
%TD*%
%TO.C,R41*%
X184383866Y-52070000D02*
G75*
G03*
X184383866Y-52070000I-750000J0D01*
G01*
X181843866Y-52070000D02*
X181843866Y-52070000D01*
X180343866Y-52070000D02*
X180343866Y-52070000D01*
X181843866Y-52070000D02*
G75*
G03*
X180343866Y-52070000I-750000J0D01*
G01*
X180343866Y-52070000D02*
G75*
G03*
X181843866Y-52070000I750000J0D01*
G01*
%TD*%
%TO.C,RV9*%
X166153866Y-49196043D02*
G75*
G03*
X166153866Y-49196043I-750000J0D01*
G01*
X161153866Y-47996043D02*
G75*
G03*
X161153866Y-47996043I-750000J0D01*
G01*
%TD*%
%TO.C,C11*%
X196438866Y-76595000D02*
G75*
G03*
X196438866Y-76595000I-1150000J0D01*
G01*
X196438866Y-61595000D02*
G75*
G03*
X196438866Y-61595000I-1150000J0D01*
G01*
%TD*%
%TO.C,R22*%
X100788866Y-66024803D02*
G75*
G03*
X100788866Y-66024803I-750000J0D01*
G01*
X100038866Y-64234803D02*
X100038866Y-64234803D01*
X100038866Y-62734803D02*
X100038866Y-62734803D01*
X100038866Y-64234803D02*
G75*
G03*
X100038866Y-62734803I0J750000D01*
G01*
X100038866Y-62734803D02*
G75*
G03*
X100038866Y-64234803I0J-750000D01*
G01*
%TD*%
%TO.C,D7*%
X127776278Y-76599803D02*
X127776278Y-78299803D01*
X129476278Y-78299803D01*
X129476278Y-76599803D01*
X127776278Y-76599803D01*
X129476278Y-79989803D02*
G75*
G03*
X129476278Y-79989803I-850000J0D01*
G01*
%TD*%
%TO.C,JP8*%
X157678866Y-51520000D02*
X157678866Y-53120000D01*
X159278866Y-53120000D01*
X159278866Y-51520000D01*
X157678866Y-51520000D01*
X161018866Y-53120000D02*
X161018866Y-53120000D01*
X161018866Y-51520000D02*
X161018866Y-51520000D01*
X161018866Y-53120000D02*
G75*
G03*
X161018866Y-51520000I0J800000D01*
G01*
X161018866Y-51520000D02*
G75*
G03*
X161018866Y-53120000I0J-800000D01*
G01*
%TD*%
%TO.C,RV7*%
X135038866Y-49196043D02*
G75*
G03*
X135038866Y-49196043I-750000J0D01*
G01*
X130038866Y-47996043D02*
G75*
G03*
X130038866Y-47996043I-750000J0D01*
G01*
%TD*%
%TO.C,R33*%
X65638866Y-52070000D02*
G75*
G03*
X65638866Y-52070000I-750000J0D01*
G01*
X63098866Y-52070000D02*
X63098866Y-52070000D01*
X61598866Y-52070000D02*
X61598866Y-52070000D01*
X63098866Y-52070000D02*
G75*
G03*
X61598866Y-52070000I-750000J0D01*
G01*
X61598866Y-52070000D02*
G75*
G03*
X63098866Y-52070000I750000J0D01*
G01*
%TD*%
%TO.C,C6*%
X121508866Y-76715000D02*
G75*
G03*
X121508866Y-76715000I-1150000J0D01*
G01*
X121508866Y-61715000D02*
G75*
G03*
X121508866Y-61715000I-1150000J0D01*
G01*
%TD*%
%TO.C,Q5*%
X99771366Y-56579606D02*
X99771366Y-58479606D01*
X101576366Y-58479606D01*
X101576366Y-56579606D01*
X99771366Y-56579606D01*
X102311366Y-57482106D02*
X102311366Y-57577106D01*
X104116366Y-57482106D02*
X104116366Y-57577106D01*
X102311366Y-57577106D02*
G75*
G03*
X104116366Y-57577106I902500J0D01*
G01*
X104116366Y-57482106D02*
G75*
G03*
X102311366Y-57482106I-902500J0D01*
G01*
X104851366Y-57482106D02*
X104851366Y-57577106D01*
X106656366Y-57482106D02*
X106656366Y-57577106D01*
X104851366Y-57577106D02*
G75*
G03*
X106656366Y-57577106I902500J0D01*
G01*
X106656366Y-57482106D02*
G75*
G03*
X104851366Y-57482106I-902500J0D01*
G01*
%TD*%
%TO.C,RV4*%
X91223866Y-49196043D02*
G75*
G03*
X91223866Y-49196043I-750000J0D01*
G01*
X86223866Y-47996043D02*
G75*
G03*
X86223866Y-47996043I-750000J0D01*
G01*
%TD*%
%TO.C,RV10*%
X181393866Y-49196043D02*
G75*
G03*
X181393866Y-49196043I-750000J0D01*
G01*
X176393866Y-47996043D02*
G75*
G03*
X176393866Y-47996043I-750000J0D01*
G01*
%TD*%
%TO.C,D1*%
X36776313Y-77215085D02*
X36776313Y-78915085D01*
X38476313Y-78915085D01*
X38476313Y-77215085D01*
X36776313Y-77215085D01*
X38476313Y-80605085D02*
G75*
G03*
X38476313Y-80605085I-850000J0D01*
G01*
%TD*%
%TO.C,U9*%
X146936227Y-87089803D02*
X146936227Y-89389803D01*
X148436227Y-89389803D01*
X148436227Y-87089803D01*
X146936227Y-87089803D01*
X150976227Y-88639803D02*
X150976227Y-87839803D01*
X149476227Y-88639803D02*
X149476227Y-87839803D01*
X150976227Y-87839803D02*
G75*
G03*
X149476227Y-87839803I-750000J0D01*
G01*
X149476227Y-88639803D02*
G75*
G03*
X150976227Y-88639803I750000J0D01*
G01*
X153516227Y-88639803D02*
X153516227Y-87839803D01*
X152016227Y-88639803D02*
X152016227Y-87839803D01*
X153516227Y-87839803D02*
G75*
G03*
X152016227Y-87839803I-750000J0D01*
G01*
X152016227Y-88639803D02*
G75*
G03*
X153516227Y-88639803I750000J0D01*
G01*
X153516227Y-81019803D02*
X153516227Y-80219803D01*
X152016227Y-81019803D02*
X152016227Y-80219803D01*
X153516227Y-80219803D02*
G75*
G03*
X152016227Y-80219803I-750000J0D01*
G01*
X152016227Y-81019803D02*
G75*
G03*
X153516227Y-81019803I750000J0D01*
G01*
X150976227Y-81019803D02*
X150976227Y-80219803D01*
X149476227Y-81019803D02*
X149476227Y-80219803D01*
X150976227Y-80219803D02*
G75*
G03*
X149476227Y-80219803I-750000J0D01*
G01*
X149476227Y-81019803D02*
G75*
G03*
X150976227Y-81019803I750000J0D01*
G01*
X148436227Y-81019803D02*
X148436227Y-80219803D01*
X146936227Y-81019803D02*
X146936227Y-80219803D01*
X148436227Y-80219803D02*
G75*
G03*
X146936227Y-80219803I-750000J0D01*
G01*
X146936227Y-81019803D02*
G75*
G03*
X148436227Y-81019803I750000J0D01*
G01*
%TD*%
%TO.C,JP10*%
X172283866Y-51520000D02*
X172283866Y-53120000D01*
X173883866Y-53120000D01*
X173883866Y-51520000D01*
X172283866Y-51520000D01*
X175623866Y-53120000D02*
X175623866Y-53120000D01*
X175623866Y-51520000D02*
X175623866Y-51520000D01*
X175623866Y-53120000D02*
G75*
G03*
X175623866Y-51520000I0J800000D01*
G01*
X175623866Y-51520000D02*
G75*
G03*
X175623866Y-53120000I0J-800000D01*
G01*
%TD*%
%TO.C,C1*%
X106903866Y-76715000D02*
G75*
G03*
X106903866Y-76715000I-1150000J0D01*
G01*
X106903866Y-61715000D02*
G75*
G03*
X106903866Y-61715000I-1150000J0D01*
G01*
%TD*%
%TO.C,D10*%
X174044010Y-76592476D02*
X174044010Y-78292476D01*
X175744010Y-78292476D01*
X175744010Y-76592476D01*
X174044010Y-76592476D01*
X175744010Y-79982476D02*
G75*
G03*
X175744010Y-79982476I-850000J0D01*
G01*
%TD*%
%TO.C,C5*%
X91663866Y-76715000D02*
G75*
G03*
X91663866Y-76715000I-1150000J0D01*
G01*
X91663866Y-61715000D02*
G75*
G03*
X91663866Y-61715000I-1150000J0D01*
G01*
%TD*%
%TO.C,D11*%
X188012933Y-76592476D02*
X188012933Y-78292476D01*
X189712933Y-78292476D01*
X189712933Y-76592476D01*
X188012933Y-76592476D01*
X189712933Y-79982476D02*
G75*
G03*
X189712933Y-79982476I-850000J0D01*
G01*
%TD*%
%TO.C,U3*%
X58013866Y-87089803D02*
X58013866Y-89389803D01*
X59513866Y-89389803D01*
X59513866Y-87089803D01*
X58013866Y-87089803D01*
X62053866Y-88639803D02*
X62053866Y-87839803D01*
X60553866Y-88639803D02*
X60553866Y-87839803D01*
X62053866Y-87839803D02*
G75*
G03*
X60553866Y-87839803I-750000J0D01*
G01*
X60553866Y-88639803D02*
G75*
G03*
X62053866Y-88639803I750000J0D01*
G01*
X64593866Y-88639803D02*
X64593866Y-87839803D01*
X63093866Y-88639803D02*
X63093866Y-87839803D01*
X64593866Y-87839803D02*
G75*
G03*
X63093866Y-87839803I-750000J0D01*
G01*
X63093866Y-88639803D02*
G75*
G03*
X64593866Y-88639803I750000J0D01*
G01*
X64593866Y-81019803D02*
X64593866Y-80219803D01*
X63093866Y-81019803D02*
X63093866Y-80219803D01*
X64593866Y-80219803D02*
G75*
G03*
X63093866Y-80219803I-750000J0D01*
G01*
X63093866Y-81019803D02*
G75*
G03*
X64593866Y-81019803I750000J0D01*
G01*
X62053866Y-81019803D02*
X62053866Y-80219803D01*
X60553866Y-81019803D02*
X60553866Y-80219803D01*
X62053866Y-80219803D02*
G75*
G03*
X60553866Y-80219803I-750000J0D01*
G01*
X60553866Y-81019803D02*
G75*
G03*
X62053866Y-81019803I750000J0D01*
G01*
X59513866Y-81019803D02*
X59513866Y-80219803D01*
X58013866Y-81019803D02*
X58013866Y-80219803D01*
X59513866Y-80219803D02*
G75*
G03*
X58013866Y-80219803I-750000J0D01*
G01*
X58013866Y-81019803D02*
G75*
G03*
X59513866Y-81019803I750000J0D01*
G01*
%TD*%
%TO.C,R35*%
X94213866Y-52070000D02*
G75*
G03*
X94213866Y-52070000I-750000J0D01*
G01*
X91673866Y-52070000D02*
X91673866Y-52070000D01*
X90173866Y-52070000D02*
X90173866Y-52070000D01*
X91673866Y-52070000D02*
G75*
G03*
X90173866Y-52070000I-750000J0D01*
G01*
X90173866Y-52070000D02*
G75*
G03*
X91673866Y-52070000I750000J0D01*
G01*
%TD*%
%TO.C,RV8*%
X152818866Y-49196043D02*
G75*
G03*
X152818866Y-49196043I-750000J0D01*
G01*
X147818866Y-47996043D02*
G75*
G03*
X147818866Y-47996043I-750000J0D01*
G01*
%TD*%
%TO.C,C10*%
X182468866Y-76715000D02*
G75*
G03*
X182468866Y-76715000I-1150000J0D01*
G01*
X182468866Y-61715000D02*
G75*
G03*
X182468866Y-61715000I-1150000J0D01*
G01*
%TD*%
%TO.C,C9*%
X167228866Y-76715000D02*
G75*
G03*
X167228866Y-76715000I-1150000J0D01*
G01*
X167228866Y-61715000D02*
G75*
G03*
X167228866Y-61715000I-1150000J0D01*
G01*
%TD*%
%TO.C,U7*%
X117102341Y-87101926D02*
X117102341Y-89401926D01*
X118602341Y-89401926D01*
X118602341Y-87101926D01*
X117102341Y-87101926D01*
X121142341Y-88651926D02*
X121142341Y-87851926D01*
X119642341Y-88651926D02*
X119642341Y-87851926D01*
X121142341Y-87851926D02*
G75*
G03*
X119642341Y-87851926I-750000J0D01*
G01*
X119642341Y-88651926D02*
G75*
G03*
X121142341Y-88651926I750000J0D01*
G01*
X123682341Y-88651926D02*
X123682341Y-87851926D01*
X122182341Y-88651926D02*
X122182341Y-87851926D01*
X123682341Y-87851926D02*
G75*
G03*
X122182341Y-87851926I-750000J0D01*
G01*
X122182341Y-88651926D02*
G75*
G03*
X123682341Y-88651926I750000J0D01*
G01*
X123682341Y-81031926D02*
X123682341Y-80231926D01*
X122182341Y-81031926D02*
X122182341Y-80231926D01*
X123682341Y-80231926D02*
G75*
G03*
X122182341Y-80231926I-750000J0D01*
G01*
X122182341Y-81031926D02*
G75*
G03*
X123682341Y-81031926I750000J0D01*
G01*
X121142341Y-81031926D02*
X121142341Y-80231926D01*
X119642341Y-81031926D02*
X119642341Y-80231926D01*
X121142341Y-80231926D02*
G75*
G03*
X119642341Y-80231926I-750000J0D01*
G01*
X119642341Y-81031926D02*
G75*
G03*
X121142341Y-81031926I750000J0D01*
G01*
X118602341Y-81031926D02*
X118602341Y-80231926D01*
X117102341Y-81031926D02*
X117102341Y-80231926D01*
X118602341Y-80231926D02*
G75*
G03*
X117102341Y-80231926I-750000J0D01*
G01*
X117102341Y-81031926D02*
G75*
G03*
X118602341Y-81031926I750000J0D01*
G01*
%TD*%
%TO.C,RV11*%
X195998866Y-49196043D02*
G75*
G03*
X195998866Y-49196043I-750000J0D01*
G01*
X190998866Y-47996043D02*
G75*
G03*
X190998866Y-47996043I-750000J0D01*
G01*
%TD*%
%TO.C,R16*%
X85493566Y-72129552D02*
G75*
G03*
X85493566Y-72129552I-750000J0D01*
G01*
X84743566Y-70339552D02*
X84743566Y-70339552D01*
X84743566Y-68839552D02*
X84743566Y-68839552D01*
X84743566Y-70339552D02*
G75*
G03*
X84743566Y-68839552I0J750000D01*
G01*
X84743566Y-68839552D02*
G75*
G03*
X84743566Y-70339552I0J-750000D01*
G01*
%TD*%
%TO.C,Q4*%
X84531366Y-56579606D02*
X84531366Y-58479606D01*
X86336366Y-58479606D01*
X86336366Y-56579606D01*
X84531366Y-56579606D01*
X87071366Y-57482106D02*
X87071366Y-57577106D01*
X88876366Y-57482106D02*
X88876366Y-57577106D01*
X87071366Y-57577106D02*
G75*
G03*
X88876366Y-57577106I902500J0D01*
G01*
X88876366Y-57482106D02*
G75*
G03*
X87071366Y-57482106I-902500J0D01*
G01*
X89611366Y-57482106D02*
X89611366Y-57577106D01*
X91416366Y-57482106D02*
X91416366Y-57577106D01*
X89611366Y-57577106D02*
G75*
G03*
X91416366Y-57577106I902500J0D01*
G01*
X91416366Y-57482106D02*
G75*
G03*
X89611366Y-57482106I-902500J0D01*
G01*
%TD*%
%TO.C,Q22*%
X189306366Y-56579606D02*
X189306366Y-58479606D01*
X191111366Y-58479606D01*
X191111366Y-56579606D01*
X189306366Y-56579606D01*
X191846366Y-57482106D02*
X191846366Y-57577106D01*
X193651366Y-57482106D02*
X193651366Y-57577106D01*
X191846366Y-57577106D02*
G75*
G03*
X193651366Y-57577106I902500J0D01*
G01*
X193651366Y-57482106D02*
G75*
G03*
X191846366Y-57482106I-902500J0D01*
G01*
X194386366Y-57482106D02*
X194386366Y-57577106D01*
X196191366Y-57482106D02*
X196191366Y-57577106D01*
X194386366Y-57577106D02*
G75*
G03*
X196191366Y-57577106I902500J0D01*
G01*
X196191366Y-57482106D02*
G75*
G03*
X194386366Y-57482106I-902500J0D01*
G01*
%TD*%
%TO.C,C8*%
X151353866Y-76715000D02*
G75*
G03*
X151353866Y-76715000I-1150000J0D01*
G01*
X151353866Y-61715000D02*
G75*
G03*
X151353866Y-61715000I-1150000J0D01*
G01*
%TD*%
%TO.C,R18*%
X129998866Y-72149803D02*
G75*
G03*
X129998866Y-72149803I-750000J0D01*
G01*
X129248866Y-70359803D02*
X129248866Y-70359803D01*
X129248866Y-68859803D02*
X129248866Y-68859803D01*
X129248866Y-70359803D02*
G75*
G03*
X129248866Y-68859803I0J750000D01*
G01*
X129248866Y-68859803D02*
G75*
G03*
X129248866Y-70359803I0J-750000D01*
G01*
%TD*%
%TO.C,R14*%
X56348866Y-72149803D02*
G75*
G03*
X56348866Y-72149803I-750000J0D01*
G01*
X55598866Y-70359803D02*
X55598866Y-70359803D01*
X55598866Y-68859803D02*
X55598866Y-68859803D01*
X55598866Y-70359803D02*
G75*
G03*
X55598866Y-68859803I0J750000D01*
G01*
X55598866Y-68859803D02*
G75*
G03*
X55598866Y-70359803I0J-750000D01*
G01*
%TD*%
%TO.C,D6*%
X112964929Y-76596780D02*
X112964929Y-78296780D01*
X114664929Y-78296780D01*
X114664929Y-76596780D01*
X112964929Y-76596780D01*
X114664929Y-79986780D02*
G75*
G03*
X114664929Y-79986780I-850000J0D01*
G01*
%TD*%
%TO.C,U12*%
X191988866Y-87089803D02*
X191988866Y-89389803D01*
X193488866Y-89389803D01*
X193488866Y-87089803D01*
X191988866Y-87089803D01*
X196028866Y-88639803D02*
X196028866Y-87839803D01*
X194528866Y-88639803D02*
X194528866Y-87839803D01*
X196028866Y-87839803D02*
G75*
G03*
X194528866Y-87839803I-750000J0D01*
G01*
X194528866Y-88639803D02*
G75*
G03*
X196028866Y-88639803I750000J0D01*
G01*
X198568866Y-88639803D02*
X198568866Y-87839803D01*
X197068866Y-88639803D02*
X197068866Y-87839803D01*
X198568866Y-87839803D02*
G75*
G03*
X197068866Y-87839803I-750000J0D01*
G01*
X197068866Y-88639803D02*
G75*
G03*
X198568866Y-88639803I750000J0D01*
G01*
X198568866Y-81019803D02*
X198568866Y-80219803D01*
X197068866Y-81019803D02*
X197068866Y-80219803D01*
X198568866Y-80219803D02*
G75*
G03*
X197068866Y-80219803I-750000J0D01*
G01*
X197068866Y-81019803D02*
G75*
G03*
X198568866Y-81019803I750000J0D01*
G01*
X196028866Y-81019803D02*
X196028866Y-80219803D01*
X194528866Y-81019803D02*
X194528866Y-80219803D01*
X196028866Y-80219803D02*
G75*
G03*
X194528866Y-80219803I-750000J0D01*
G01*
X194528866Y-81019803D02*
G75*
G03*
X196028866Y-81019803I750000J0D01*
G01*
X193488866Y-81019803D02*
X193488866Y-80219803D01*
X191988866Y-81019803D02*
X191988866Y-80219803D01*
X193488866Y-80219803D02*
G75*
G03*
X191988866Y-80219803I-750000J0D01*
G01*
X191988866Y-81019803D02*
G75*
G03*
X193488866Y-81019803I750000J0D01*
G01*
%TD*%
%TO.C,R29*%
X145238866Y-66024803D02*
G75*
G03*
X145238866Y-66024803I-750000J0D01*
G01*
X144488866Y-64234803D02*
X144488866Y-64234803D01*
X144488866Y-62734803D02*
X144488866Y-62734803D01*
X144488866Y-64234803D02*
G75*
G03*
X144488866Y-62734803I0J750000D01*
G01*
X144488866Y-62734803D02*
G75*
G03*
X144488866Y-64234803I0J-750000D01*
G01*
%TD*%
%TO.C,R13*%
X38558866Y-72149803D02*
G75*
G03*
X38558866Y-72149803I-750000J0D01*
G01*
X37808866Y-70359803D02*
X37808866Y-70359803D01*
X37808866Y-68859803D02*
X37808866Y-68859803D01*
X37808866Y-70359803D02*
G75*
G03*
X37808866Y-68859803I0J750000D01*
G01*
X37808866Y-68859803D02*
G75*
G03*
X37808866Y-70359803I0J-750000D01*
G01*
%TD*%
%TO.C,R32*%
X47223866Y-52070000D02*
G75*
G03*
X47223866Y-52070000I-750000J0D01*
G01*
X44683866Y-52070000D02*
X44683866Y-52070000D01*
X43183866Y-52070000D02*
X43183866Y-52070000D01*
X44683866Y-52070000D02*
G75*
G03*
X43183866Y-52070000I-750000J0D01*
G01*
X43183866Y-52070000D02*
G75*
G03*
X44683866Y-52070000I750000J0D01*
G01*
%TD*%
%TO.C,R39*%
X155173866Y-52070000D02*
G75*
G03*
X155173866Y-52070000I-750000J0D01*
G01*
X152633866Y-52070000D02*
X152633866Y-52070000D01*
X151133866Y-52070000D02*
X151133866Y-52070000D01*
X152633866Y-52070000D02*
G75*
G03*
X151133866Y-52070000I-750000J0D01*
G01*
X151133866Y-52070000D02*
G75*
G03*
X152633866Y-52070000I750000J0D01*
G01*
%TD*%
%TO.C,PS1*%
X175223366Y-108202540D02*
X175223366Y-110102540D01*
X177423366Y-110102540D01*
X177423366Y-108202540D01*
X175223366Y-108202540D01*
X177423366Y-104152540D02*
G75*
G03*
X177423366Y-104152540I-1100000J0D01*
G01*
X148023366Y-114352540D02*
G75*
G03*
X148023366Y-114352540I-1100000J0D01*
G01*
X148023366Y-98952540D02*
G75*
G03*
X148023366Y-98952540I-1100000J0D01*
G01*
%TD*%
%TO.C,U5*%
X87213866Y-87089803D02*
X87213866Y-89389803D01*
X88713866Y-89389803D01*
X88713866Y-87089803D01*
X87213866Y-87089803D01*
X91253866Y-88639803D02*
X91253866Y-87839803D01*
X89753866Y-88639803D02*
X89753866Y-87839803D01*
X91253866Y-87839803D02*
G75*
G03*
X89753866Y-87839803I-750000J0D01*
G01*
X89753866Y-88639803D02*
G75*
G03*
X91253866Y-88639803I750000J0D01*
G01*
X93793866Y-88639803D02*
X93793866Y-87839803D01*
X92293866Y-88639803D02*
X92293866Y-87839803D01*
X93793866Y-87839803D02*
G75*
G03*
X92293866Y-87839803I-750000J0D01*
G01*
X92293866Y-88639803D02*
G75*
G03*
X93793866Y-88639803I750000J0D01*
G01*
X93793866Y-81019803D02*
X93793866Y-80219803D01*
X92293866Y-81019803D02*
X92293866Y-80219803D01*
X93793866Y-80219803D02*
G75*
G03*
X92293866Y-80219803I-750000J0D01*
G01*
X92293866Y-81019803D02*
G75*
G03*
X93793866Y-81019803I750000J0D01*
G01*
X91253866Y-81019803D02*
X91253866Y-80219803D01*
X89753866Y-81019803D02*
X89753866Y-80219803D01*
X91253866Y-80219803D02*
G75*
G03*
X89753866Y-80219803I-750000J0D01*
G01*
X89753866Y-81019803D02*
G75*
G03*
X91253866Y-81019803I750000J0D01*
G01*
X88713866Y-81019803D02*
X88713866Y-80219803D01*
X87213866Y-81019803D02*
X87213866Y-80219803D01*
X88713866Y-80219803D02*
G75*
G03*
X87213866Y-80219803I-750000J0D01*
G01*
X87213866Y-81019803D02*
G75*
G03*
X88713866Y-81019803I750000J0D01*
G01*
%TD*%
%TO.C,RV3*%
X76618866Y-49196043D02*
G75*
G03*
X76618866Y-49196043I-750000J0D01*
G01*
X71618866Y-47996043D02*
G75*
G03*
X71618866Y-47996043I-750000J0D01*
G01*
%TD*%
%TO.C,U6*%
X102463866Y-87099803D02*
X102463866Y-89399803D01*
X103963866Y-89399803D01*
X103963866Y-87099803D01*
X102463866Y-87099803D01*
X106503866Y-88649803D02*
X106503866Y-87849803D01*
X105003866Y-88649803D02*
X105003866Y-87849803D01*
X106503866Y-87849803D02*
G75*
G03*
X105003866Y-87849803I-750000J0D01*
G01*
X105003866Y-88649803D02*
G75*
G03*
X106503866Y-88649803I750000J0D01*
G01*
X109043866Y-88649803D02*
X109043866Y-87849803D01*
X107543866Y-88649803D02*
X107543866Y-87849803D01*
X109043866Y-87849803D02*
G75*
G03*
X107543866Y-87849803I-750000J0D01*
G01*
X107543866Y-88649803D02*
G75*
G03*
X109043866Y-88649803I750000J0D01*
G01*
X109043866Y-81029803D02*
X109043866Y-80229803D01*
X107543866Y-81029803D02*
X107543866Y-80229803D01*
X109043866Y-80229803D02*
G75*
G03*
X107543866Y-80229803I-750000J0D01*
G01*
X107543866Y-81029803D02*
G75*
G03*
X109043866Y-81029803I750000J0D01*
G01*
X106503866Y-81029803D02*
X106503866Y-80229803D01*
X105003866Y-81029803D02*
X105003866Y-80229803D01*
X106503866Y-80229803D02*
G75*
G03*
X105003866Y-80229803I-750000J0D01*
G01*
X105003866Y-81029803D02*
G75*
G03*
X106503866Y-81029803I750000J0D01*
G01*
X103963866Y-81029803D02*
X103963866Y-80229803D01*
X102463866Y-81029803D02*
X102463866Y-80229803D01*
X103963866Y-80229803D02*
G75*
G03*
X102463866Y-80229803I-750000J0D01*
G01*
X102463866Y-81029803D02*
G75*
G03*
X103963866Y-81029803I750000J0D01*
G01*
%TD*%
%TO.C,R17*%
X115439469Y-72149803D02*
G75*
G03*
X115439469Y-72149803I-750000J0D01*
G01*
X114689469Y-70359803D02*
X114689469Y-70359803D01*
X114689469Y-68859803D02*
X114689469Y-68859803D01*
X114689469Y-70359803D02*
G75*
G03*
X114689469Y-68859803I0J750000D01*
G01*
X114689469Y-68859803D02*
G75*
G03*
X114689469Y-70359803I0J-750000D01*
G01*
%TD*%
%TO.C,R36*%
X109453866Y-52070000D02*
G75*
G03*
X109453866Y-52070000I-750000J0D01*
G01*
X106913866Y-52070000D02*
X106913866Y-52070000D01*
X105413866Y-52070000D02*
X105413866Y-52070000D01*
X106913866Y-52070000D02*
G75*
G03*
X105413866Y-52070000I-750000J0D01*
G01*
X105413866Y-52070000D02*
G75*
G03*
X106913866Y-52070000I750000J0D01*
G01*
%TD*%
%TO.C,D9*%
X158748582Y-76592476D02*
X158748582Y-78292476D01*
X160448582Y-78292476D01*
X160448582Y-76592476D01*
X158748582Y-76592476D01*
X160448582Y-79982476D02*
G75*
G03*
X160448582Y-79982476I-850000J0D01*
G01*
%TD*%
%TO.C,R12*%
X100802569Y-72166891D02*
G75*
G03*
X100802569Y-72166891I-750000J0D01*
G01*
X100052569Y-70376891D02*
X100052569Y-70376891D01*
X100052569Y-68876891D02*
X100052569Y-68876891D01*
X100052569Y-70376891D02*
G75*
G03*
X100052569Y-68876891I0J750000D01*
G01*
X100052569Y-68876891D02*
G75*
G03*
X100052569Y-70376891I0J-750000D01*
G01*
%TD*%
%TO.C,R15*%
X70943866Y-72149803D02*
G75*
G03*
X70943866Y-72149803I-750000J0D01*
G01*
X70193866Y-70359803D02*
X70193866Y-70359803D01*
X70193866Y-68859803D02*
X70193866Y-68859803D01*
X70193866Y-70359803D02*
G75*
G03*
X70193866Y-68859803I0J750000D01*
G01*
X70193866Y-68859803D02*
G75*
G03*
X70193866Y-70359803I0J-750000D01*
G01*
%TD*%
%TO.C,Q6*%
X114376366Y-56579606D02*
X114376366Y-58479606D01*
X116181366Y-58479606D01*
X116181366Y-56579606D01*
X114376366Y-56579606D01*
X116916366Y-57482106D02*
X116916366Y-57577106D01*
X118721366Y-57482106D02*
X118721366Y-57577106D01*
X116916366Y-57577106D02*
G75*
G03*
X118721366Y-57577106I902500J0D01*
G01*
X118721366Y-57482106D02*
G75*
G03*
X116916366Y-57482106I-902500J0D01*
G01*
X119456366Y-57482106D02*
X119456366Y-57577106D01*
X121261366Y-57482106D02*
X121261366Y-57577106D01*
X119456366Y-57577106D02*
G75*
G03*
X121261366Y-57577106I902500J0D01*
G01*
X121261366Y-57482106D02*
G75*
G03*
X119456366Y-57482106I-902500J0D01*
G01*
%TD*%
%TO.C,R23*%
X38558866Y-66024803D02*
G75*
G03*
X38558866Y-66024803I-750000J0D01*
G01*
X37808866Y-64234803D02*
X37808866Y-64234803D01*
X37808866Y-62734803D02*
X37808866Y-62734803D01*
X37808866Y-64234803D02*
G75*
G03*
X37808866Y-62734803I0J750000D01*
G01*
X37808866Y-62734803D02*
G75*
G03*
X37808866Y-64234803I0J-750000D01*
G01*
%TD*%
%TO.C,U4*%
X72608866Y-87089803D02*
X72608866Y-89389803D01*
X74108866Y-89389803D01*
X74108866Y-87089803D01*
X72608866Y-87089803D01*
X76648866Y-88639803D02*
X76648866Y-87839803D01*
X75148866Y-88639803D02*
X75148866Y-87839803D01*
X76648866Y-87839803D02*
G75*
G03*
X75148866Y-87839803I-750000J0D01*
G01*
X75148866Y-88639803D02*
G75*
G03*
X76648866Y-88639803I750000J0D01*
G01*
X79188866Y-88639803D02*
X79188866Y-87839803D01*
X77688866Y-88639803D02*
X77688866Y-87839803D01*
X79188866Y-87839803D02*
G75*
G03*
X77688866Y-87839803I-750000J0D01*
G01*
X77688866Y-88639803D02*
G75*
G03*
X79188866Y-88639803I750000J0D01*
G01*
X79188866Y-81019803D02*
X79188866Y-80219803D01*
X77688866Y-81019803D02*
X77688866Y-80219803D01*
X79188866Y-80219803D02*
G75*
G03*
X77688866Y-80219803I-750000J0D01*
G01*
X77688866Y-81019803D02*
G75*
G03*
X79188866Y-81019803I750000J0D01*
G01*
X76648866Y-81019803D02*
X76648866Y-80219803D01*
X75148866Y-81019803D02*
X75148866Y-80219803D01*
X76648866Y-80219803D02*
G75*
G03*
X75148866Y-80219803I-750000J0D01*
G01*
X75148866Y-81019803D02*
G75*
G03*
X76648866Y-81019803I750000J0D01*
G01*
X74108866Y-81019803D02*
X74108866Y-80219803D01*
X72608866Y-81019803D02*
X72608866Y-80219803D01*
X74108866Y-80219803D02*
G75*
G03*
X72608866Y-80219803I-750000J0D01*
G01*
X72608866Y-81019803D02*
G75*
G03*
X74108866Y-81019803I750000J0D01*
G01*
%TD*%
%TO.C,JP4*%
X97988866Y-51520000D02*
X97988866Y-53120000D01*
X99588866Y-53120000D01*
X99588866Y-51520000D01*
X97988866Y-51520000D01*
X101328866Y-53120000D02*
X101328866Y-53120000D01*
X101328866Y-51520000D02*
X101328866Y-51520000D01*
X101328866Y-53120000D02*
G75*
G03*
X101328866Y-51520000I0J800000D01*
G01*
X101328866Y-51520000D02*
G75*
G03*
X101328866Y-53120000I0J-800000D01*
G01*
%TD*%
%TO.C,R20*%
X161113866Y-72149803D02*
G75*
G03*
X161113866Y-72149803I-750000J0D01*
G01*
X160363866Y-70359803D02*
X160363866Y-70359803D01*
X160363866Y-68859803D02*
X160363866Y-68859803D01*
X160363866Y-70359803D02*
G75*
G03*
X160363866Y-68859803I0J750000D01*
G01*
X160363866Y-68859803D02*
G75*
G03*
X160363866Y-70359803I0J-750000D01*
G01*
%TD*%
%TO.C,RV5*%
X106463866Y-49196043D02*
G75*
G03*
X106463866Y-49196043I-750000J0D01*
G01*
X101463866Y-47996043D02*
G75*
G03*
X101463866Y-47996043I-750000J0D01*
G01*
%TD*%
M02*
