%FSLAX45Y45*%
G04 Gerber Fmt 4.5, Leading zero omitted, Abs format (unit mm)*
G04 Created by KiCad (PCBNEW (6.0.4)) date 2022-05-07 15:09:29*
%MOMM*%
%LPD*%
G01*
G04 APERTURE LIST*
%TA.AperFunction,Profile*%
%ADD10C,0.150000*%
%TD*%
%ADD11C,0.200000*%
%ADD12C,0.040000*%
%ADD13C,0.060000*%
%ADD14C,0.076200*%
%ADD15C,0.080000*%
%ADD16C,0.090000*%
%ADD17C,0.100000*%
%ADD18C,0.110000*%
%ADD19C,0.120000*%
%ADD20C,0.130000*%
%ADD21C,0.152000*%
G04 APERTURE END LIST*
D10*
X3349087Y-12226980D02*
X3349130Y-3675589D01*
X20684587Y-3680380D02*
X20684587Y-12226980D01*
X3349130Y-3675589D02*
X20684587Y-3680380D01*
X5192877Y-9940980D02*
G75*
G03*
X5192877Y-9940980I-141990J0D01*
G01*
X18350077Y-11528480D02*
G75*
G03*
X18350077Y-11528480I-141990J0D01*
G01*
X5192877Y-4986604D02*
G75*
G03*
X5192877Y-4986604I-141990J0D01*
G01*
X14209877Y-4986604D02*
G75*
G03*
X14209877Y-4986604I-141990J0D01*
G01*
X20684587Y-12226980D02*
X3349087Y-12226980D01*
X11174577Y-11020480D02*
G75*
G03*
X11174577Y-11020480I-141990J0D01*
G01*
X20445577Y-4324604D02*
G75*
G03*
X20445577Y-4324604I-141990J0D01*
G01*
D11*
D12*
X9569310Y-8252757D02*
X9609310Y-8292757D01*
X9609310Y-8252757D02*
X9569310Y-8292757D01*
X12553809Y-8252757D02*
X12593809Y-8292757D01*
X12593809Y-8252757D02*
X12553809Y-8292757D01*
D13*
X3878387Y-4799604D02*
G75*
G03*
X3878387Y-4799604I-30000J0D01*
G01*
X4378387Y-4919604D02*
G75*
G03*
X4378387Y-4919604I-30000J0D01*
G01*
X5719887Y-4799604D02*
G75*
G03*
X5719887Y-4799604I-30000J0D01*
G01*
X6219887Y-4919604D02*
G75*
G03*
X6219887Y-4919604I-30000J0D01*
G01*
X7116887Y-4799604D02*
G75*
G03*
X7116887Y-4799604I-30000J0D01*
G01*
X7616887Y-4919604D02*
G75*
G03*
X7616887Y-4919604I-30000J0D01*
G01*
X8577387Y-4799604D02*
G75*
G03*
X8577387Y-4799604I-30000J0D01*
G01*
X9077387Y-4919604D02*
G75*
G03*
X9077387Y-4919604I-30000J0D01*
G01*
X10101387Y-4799604D02*
G75*
G03*
X10101387Y-4799604I-30000J0D01*
G01*
X10601387Y-4919604D02*
G75*
G03*
X10601387Y-4919604I-30000J0D01*
G01*
X11561887Y-4799604D02*
G75*
G03*
X11561887Y-4799604I-30000J0D01*
G01*
X12061887Y-4919604D02*
G75*
G03*
X12061887Y-4919604I-30000J0D01*
G01*
X12958887Y-4799604D02*
G75*
G03*
X12958887Y-4799604I-30000J0D01*
G01*
X13458887Y-4919604D02*
G75*
G03*
X13458887Y-4919604I-30000J0D01*
G01*
X14736887Y-4799604D02*
G75*
G03*
X14736887Y-4799604I-30000J0D01*
G01*
X15236887Y-4919604D02*
G75*
G03*
X15236887Y-4919604I-30000J0D01*
G01*
X16070387Y-4799604D02*
G75*
G03*
X16070387Y-4799604I-30000J0D01*
G01*
X16570387Y-4919604D02*
G75*
G03*
X16570387Y-4919604I-30000J0D01*
G01*
X17594387Y-4799604D02*
G75*
G03*
X17594387Y-4799604I-30000J0D01*
G01*
X18094387Y-4919604D02*
G75*
G03*
X18094387Y-4919604I-30000J0D01*
G01*
X18178087Y-10952980D02*
G75*
G03*
X18178087Y-10952980I-30000J0D01*
G01*
X18298087Y-10452980D02*
G75*
G03*
X18298087Y-10452980I-30000J0D01*
G01*
X19054887Y-4799604D02*
G75*
G03*
X19054887Y-4799604I-30000J0D01*
G01*
X19554887Y-4919604D02*
G75*
G03*
X19554887Y-4919604I-30000J0D01*
G01*
D14*
X9241887Y-9394880D02*
X9241887Y-9471080D01*
X9203787Y-9432980D02*
X9279987Y-9432980D01*
X9241887Y-11934880D02*
X9241887Y-12011080D01*
X9203787Y-11972980D02*
X9279987Y-11972980D01*
X9495887Y-9394880D02*
X9495887Y-9471080D01*
X9457787Y-9432980D02*
X9533987Y-9432980D01*
X9495887Y-11934880D02*
X9495887Y-12011080D01*
X9457787Y-11972980D02*
X9533987Y-11972980D01*
X9749887Y-9394880D02*
X9749887Y-9471080D01*
X9711787Y-9432980D02*
X9787987Y-9432980D01*
X9749887Y-11934880D02*
X9749887Y-12011080D01*
X9711787Y-11972980D02*
X9787987Y-11972980D01*
X10003887Y-9394880D02*
X10003887Y-9471080D01*
X9965787Y-9432980D02*
X10041987Y-9432980D01*
X10003887Y-11934880D02*
X10003887Y-12011080D01*
X9965787Y-11972980D02*
X10041987Y-11972980D01*
X10257887Y-9394880D02*
X10257887Y-9471080D01*
X10219787Y-9432980D02*
X10295987Y-9432980D01*
X10257887Y-11934880D02*
X10257887Y-12011080D01*
X10219787Y-11972980D02*
X10295987Y-11972980D01*
X10511887Y-9394880D02*
X10511887Y-9471080D01*
X10473787Y-9432980D02*
X10549987Y-9432980D01*
X10511887Y-11934880D02*
X10511887Y-12011080D01*
X10473787Y-11972980D02*
X10549987Y-11972980D01*
X10765887Y-9394880D02*
X10765887Y-9471080D01*
X10727787Y-9432980D02*
X10803987Y-9432980D01*
X10765887Y-11934880D02*
X10765887Y-12011080D01*
X10727787Y-11972980D02*
X10803987Y-11972980D01*
X11019887Y-9394880D02*
X11019887Y-9471080D01*
X10981787Y-9432980D02*
X11057987Y-9432980D01*
X11019887Y-11934880D02*
X11019887Y-12011080D01*
X10981787Y-11972980D02*
X11057987Y-11972980D01*
X11273887Y-9394880D02*
X11273887Y-9471080D01*
X11235787Y-9432980D02*
X11311987Y-9432980D01*
X11273887Y-11934880D02*
X11273887Y-12011080D01*
X11235787Y-11972980D02*
X11311987Y-11972980D01*
X11527887Y-9394880D02*
X11527887Y-9471080D01*
X11489787Y-9432980D02*
X11565987Y-9432980D01*
X11527887Y-11934880D02*
X11527887Y-12011080D01*
X11489787Y-11972980D02*
X11565987Y-11972980D01*
X11781887Y-9394880D02*
X11781887Y-9471080D01*
X11743787Y-9432980D02*
X11819987Y-9432980D01*
X11781887Y-11934880D02*
X11781887Y-12011080D01*
X11743787Y-11972980D02*
X11819987Y-11972980D01*
X12035887Y-9394880D02*
X12035887Y-9471080D01*
X11997787Y-9432980D02*
X12073987Y-9432980D01*
X12035887Y-11934880D02*
X12035887Y-12011080D01*
X11997787Y-11972980D02*
X12073987Y-11972980D01*
X12289887Y-9394880D02*
X12289887Y-9471080D01*
X12251787Y-9432980D02*
X12327987Y-9432980D01*
X12289887Y-11934880D02*
X12289887Y-12011080D01*
X12251787Y-11972980D02*
X12327987Y-11972980D01*
X12543887Y-9394880D02*
X12543887Y-9471080D01*
X12505787Y-9432980D02*
X12581987Y-9432980D01*
X12543887Y-11934880D02*
X12543887Y-12011080D01*
X12505787Y-11972980D02*
X12581987Y-11972980D01*
X12797887Y-9394880D02*
X12797887Y-9471080D01*
X12759787Y-9432980D02*
X12835987Y-9432980D01*
X12797887Y-11934880D02*
X12797887Y-12011080D01*
X12759787Y-11972980D02*
X12835987Y-11972980D01*
D15*
X3809171Y-6376765D02*
X3809171Y-6320196D01*
X3752602Y-6320196D01*
X3752602Y-6376765D01*
X3809171Y-6376765D01*
X3809171Y-6630765D02*
X3809171Y-6574196D01*
X3752602Y-6574196D01*
X3752602Y-6630765D01*
X3809171Y-6630765D01*
X3809171Y-6989265D02*
X3809171Y-6932696D01*
X3752602Y-6932696D01*
X3752602Y-6989265D01*
X3809171Y-6989265D01*
X3809171Y-7243265D02*
X3809171Y-7186696D01*
X3752602Y-7186696D01*
X3752602Y-7243265D01*
X3809171Y-7243265D01*
X4189171Y-8090265D02*
X4189171Y-8033696D01*
X4132602Y-8033696D01*
X4132602Y-8090265D01*
X4189171Y-8090265D01*
X4189171Y-8852265D02*
X4189171Y-8795696D01*
X4132602Y-8795696D01*
X4132602Y-8852265D01*
X4189171Y-8852265D01*
X4421671Y-5235285D02*
X4421671Y-5178716D01*
X4365102Y-5178716D01*
X4365102Y-5235285D01*
X4421671Y-5235285D01*
X4443171Y-8090265D02*
X4443171Y-8033696D01*
X4386602Y-8033696D01*
X4386602Y-8090265D01*
X4443171Y-8090265D01*
X4443171Y-8852265D02*
X4443171Y-8795696D01*
X4386602Y-8795696D01*
X4386602Y-8852265D01*
X4443171Y-8852265D01*
X4675671Y-5235285D02*
X4675671Y-5178716D01*
X4619102Y-5178716D01*
X4619102Y-5235285D01*
X4675671Y-5235285D01*
X4697171Y-8090265D02*
X4697171Y-8033696D01*
X4640602Y-8033696D01*
X4640602Y-8090265D01*
X4697171Y-8090265D01*
X4697171Y-8852265D02*
X4697171Y-8795696D01*
X4640602Y-8795696D01*
X4640602Y-8852265D01*
X4697171Y-8852265D01*
X5588171Y-6376765D02*
X5588171Y-6320196D01*
X5531602Y-6320196D01*
X5531602Y-6376765D01*
X5588171Y-6376765D01*
X5588171Y-6630765D02*
X5588171Y-6574196D01*
X5531602Y-6574196D01*
X5531602Y-6630765D01*
X5588171Y-6630765D01*
X5588171Y-6989265D02*
X5588171Y-6932696D01*
X5531602Y-6932696D01*
X5531602Y-6989265D01*
X5588171Y-6989265D01*
X5588171Y-7243265D02*
X5588171Y-7186696D01*
X5531602Y-7186696D01*
X5531602Y-7243265D01*
X5588171Y-7243265D01*
X5904671Y-8090265D02*
X5904671Y-8033696D01*
X5848102Y-8033696D01*
X5848102Y-8090265D01*
X5904671Y-8090265D01*
X5904671Y-8852265D02*
X5904671Y-8795696D01*
X5848102Y-8795696D01*
X5848102Y-8852265D01*
X5904671Y-8852265D01*
X6158671Y-8090265D02*
X6158671Y-8033696D01*
X6102102Y-8033696D01*
X6102102Y-8090265D01*
X6158671Y-8090265D01*
X6158671Y-8852265D02*
X6158671Y-8795696D01*
X6102102Y-8795696D01*
X6102102Y-8852265D01*
X6158671Y-8852265D01*
X6263171Y-5235285D02*
X6263171Y-5178716D01*
X6206602Y-5178716D01*
X6206602Y-5235285D01*
X6263171Y-5235285D01*
X6412671Y-8090265D02*
X6412671Y-8033696D01*
X6356102Y-8033696D01*
X6356102Y-8090265D01*
X6412671Y-8090265D01*
X6412671Y-8852265D02*
X6412671Y-8795696D01*
X6356102Y-8795696D01*
X6356102Y-8852265D01*
X6412671Y-8852265D01*
X6517171Y-5235285D02*
X6517171Y-5178716D01*
X6460602Y-5178716D01*
X6460602Y-5235285D01*
X6517171Y-5235285D01*
X7047671Y-6376765D02*
X7047671Y-6320196D01*
X6991102Y-6320196D01*
X6991102Y-6376765D01*
X7047671Y-6376765D01*
X7047671Y-6630765D02*
X7047671Y-6574196D01*
X6991102Y-6574196D01*
X6991102Y-6630765D01*
X7047671Y-6630765D01*
X7047671Y-6989265D02*
X7047671Y-6932696D01*
X6991102Y-6932696D01*
X6991102Y-6989265D01*
X7047671Y-6989265D01*
X7047671Y-7243265D02*
X7047671Y-7186696D01*
X6991102Y-7186696D01*
X6991102Y-7243265D01*
X7047671Y-7243265D01*
X7364171Y-8090265D02*
X7364171Y-8033696D01*
X7307602Y-8033696D01*
X7307602Y-8090265D01*
X7364171Y-8090265D01*
X7364171Y-8852265D02*
X7364171Y-8795696D01*
X7307602Y-8795696D01*
X7307602Y-8852265D01*
X7364171Y-8852265D01*
X7618171Y-8090265D02*
X7618171Y-8033696D01*
X7561602Y-8033696D01*
X7561602Y-8090265D01*
X7618171Y-8090265D01*
X7618171Y-8852265D02*
X7618171Y-8795696D01*
X7561602Y-8795696D01*
X7561602Y-8852265D01*
X7618171Y-8852265D01*
X7660171Y-5235285D02*
X7660171Y-5178716D01*
X7603602Y-5178716D01*
X7603602Y-5235285D01*
X7660171Y-5235285D01*
X7872171Y-8090265D02*
X7872171Y-8033696D01*
X7815602Y-8033696D01*
X7815602Y-8090265D01*
X7872171Y-8090265D01*
X7872171Y-8852265D02*
X7872171Y-8795696D01*
X7815602Y-8795696D01*
X7815602Y-8852265D01*
X7872171Y-8852265D01*
X7914171Y-5235285D02*
X7914171Y-5178716D01*
X7857602Y-5178716D01*
X7857602Y-5235285D01*
X7914171Y-5235285D01*
X8502641Y-6987240D02*
X8502641Y-6930671D01*
X8446072Y-6930671D01*
X8446072Y-6987240D01*
X8502641Y-6987240D01*
X8502641Y-7241240D02*
X8502641Y-7184671D01*
X8446072Y-7184671D01*
X8446072Y-7241240D01*
X8502641Y-7241240D01*
X8508171Y-6376765D02*
X8508171Y-6320196D01*
X8451602Y-6320196D01*
X8451602Y-6376765D01*
X8508171Y-6376765D01*
X8508171Y-6630765D02*
X8508171Y-6574196D01*
X8451602Y-6574196D01*
X8451602Y-6630765D01*
X8508171Y-6630765D01*
X8824671Y-8090265D02*
X8824671Y-8033696D01*
X8768102Y-8033696D01*
X8768102Y-8090265D01*
X8824671Y-8090265D01*
X8824671Y-8852265D02*
X8824671Y-8795696D01*
X8768102Y-8795696D01*
X8768102Y-8852265D01*
X8824671Y-8852265D01*
X9078671Y-8090265D02*
X9078671Y-8033696D01*
X9022102Y-8033696D01*
X9022102Y-8090265D01*
X9078671Y-8090265D01*
X9078671Y-8852265D02*
X9078671Y-8795696D01*
X9022102Y-8795696D01*
X9022102Y-8852265D01*
X9078671Y-8852265D01*
X9120671Y-5235285D02*
X9120671Y-5178716D01*
X9064102Y-5178716D01*
X9064102Y-5235285D01*
X9120671Y-5235285D01*
X9332671Y-8090265D02*
X9332671Y-8033696D01*
X9276102Y-8033696D01*
X9276102Y-8090265D01*
X9332671Y-8090265D01*
X9332671Y-8852265D02*
X9332671Y-8795696D01*
X9276102Y-8795696D01*
X9276102Y-8852265D01*
X9332671Y-8852265D01*
X9374671Y-5235285D02*
X9374671Y-5178716D01*
X9318102Y-5178716D01*
X9318102Y-5235285D01*
X9374671Y-5235285D01*
X10032171Y-6376765D02*
X10032171Y-6320196D01*
X9975602Y-6320196D01*
X9975602Y-6376765D01*
X10032171Y-6376765D01*
X10032171Y-6630765D02*
X10032171Y-6574196D01*
X9975602Y-6574196D01*
X9975602Y-6630765D01*
X10032171Y-6630765D01*
X10033541Y-6990974D02*
X10033541Y-6934405D01*
X9976972Y-6934405D01*
X9976972Y-6990974D01*
X10033541Y-6990974D01*
X10033541Y-7244974D02*
X10033541Y-7188405D01*
X9976972Y-7188405D01*
X9976972Y-7244974D01*
X10033541Y-7244974D01*
X10349671Y-8091265D02*
X10349671Y-8034696D01*
X10293102Y-8034696D01*
X10293102Y-8091265D01*
X10349671Y-8091265D01*
X10349671Y-8853265D02*
X10349671Y-8796696D01*
X10293102Y-8796696D01*
X10293102Y-8853265D01*
X10349671Y-8853265D01*
X10603671Y-8091265D02*
X10603671Y-8034696D01*
X10547102Y-8034696D01*
X10547102Y-8091265D01*
X10603671Y-8091265D01*
X10603671Y-8853265D02*
X10603671Y-8796696D01*
X10547102Y-8796696D01*
X10547102Y-8853265D01*
X10603671Y-8853265D01*
X10644671Y-5235285D02*
X10644671Y-5178716D01*
X10588102Y-5178716D01*
X10588102Y-5235285D01*
X10644671Y-5235285D01*
X10857671Y-8091265D02*
X10857671Y-8034696D01*
X10801102Y-8034696D01*
X10801102Y-8091265D01*
X10857671Y-8091265D01*
X10857671Y-8853265D02*
X10857671Y-8796696D01*
X10801102Y-8796696D01*
X10801102Y-8853265D01*
X10857671Y-8853265D01*
X10898671Y-5235285D02*
X10898671Y-5178716D01*
X10842102Y-5178716D01*
X10842102Y-5235285D01*
X10898671Y-5235285D01*
X11492671Y-6376765D02*
X11492671Y-6320196D01*
X11436102Y-6320196D01*
X11436102Y-6376765D01*
X11492671Y-6376765D01*
X11492671Y-6630765D02*
X11492671Y-6574196D01*
X11436102Y-6574196D01*
X11436102Y-6630765D01*
X11492671Y-6630765D01*
X11497231Y-6989265D02*
X11497231Y-6932696D01*
X11440662Y-6932696D01*
X11440662Y-6989265D01*
X11497231Y-6989265D01*
X11497231Y-7243265D02*
X11497231Y-7186696D01*
X11440662Y-7186696D01*
X11440662Y-7243265D01*
X11497231Y-7243265D01*
X11813519Y-8091477D02*
X11813519Y-8034908D01*
X11756950Y-8034908D01*
X11756950Y-8091477D01*
X11813519Y-8091477D01*
X11813519Y-8853477D02*
X11813519Y-8796908D01*
X11756950Y-8796908D01*
X11756950Y-8853477D01*
X11813519Y-8853477D01*
X12067519Y-8091477D02*
X12067519Y-8034908D01*
X12010950Y-8034908D01*
X12010950Y-8091477D01*
X12067519Y-8091477D01*
X12067519Y-8853477D02*
X12067519Y-8796908D01*
X12010950Y-8796908D01*
X12010950Y-8853477D01*
X12067519Y-8853477D01*
X12105171Y-5235285D02*
X12105171Y-5178716D01*
X12048602Y-5178716D01*
X12048602Y-5235285D01*
X12105171Y-5235285D01*
X12321519Y-8091477D02*
X12321519Y-8034908D01*
X12264950Y-8034908D01*
X12264950Y-8091477D01*
X12321519Y-8091477D01*
X12321519Y-8853477D02*
X12321519Y-8796908D01*
X12264950Y-8796908D01*
X12264950Y-8853477D01*
X12321519Y-8853477D01*
X12359171Y-5235285D02*
X12359171Y-5178716D01*
X12302602Y-5178716D01*
X12302602Y-5235285D01*
X12359171Y-5235285D01*
X12953171Y-6376765D02*
X12953171Y-6320196D01*
X12896602Y-6320196D01*
X12896602Y-6376765D01*
X12953171Y-6376765D01*
X12953171Y-6630765D02*
X12953171Y-6574196D01*
X12896602Y-6574196D01*
X12896602Y-6630765D01*
X12953171Y-6630765D01*
X12953171Y-6989265D02*
X12953171Y-6932696D01*
X12896602Y-6932696D01*
X12896602Y-6989265D01*
X12953171Y-6989265D01*
X12953171Y-7243265D02*
X12953171Y-7186696D01*
X12896602Y-7186696D01*
X12896602Y-7243265D01*
X12953171Y-7243265D01*
X13298784Y-8090265D02*
X13298784Y-8033696D01*
X13242215Y-8033696D01*
X13242215Y-8090265D01*
X13298784Y-8090265D01*
X13298784Y-8852265D02*
X13298784Y-8795696D01*
X13242215Y-8795696D01*
X13242215Y-8852265D01*
X13298784Y-8852265D01*
X13375171Y-5235285D02*
X13375171Y-5178716D01*
X13318602Y-5178716D01*
X13318602Y-5235285D01*
X13375171Y-5235285D01*
X13552784Y-8090265D02*
X13552784Y-8033696D01*
X13496215Y-8033696D01*
X13496215Y-8090265D01*
X13552784Y-8090265D01*
X13552784Y-8852265D02*
X13552784Y-8795696D01*
X13496215Y-8795696D01*
X13496215Y-8852265D01*
X13552784Y-8852265D01*
X13629171Y-5235285D02*
X13629171Y-5178716D01*
X13572602Y-5178716D01*
X13572602Y-5235285D01*
X13629171Y-5235285D01*
X13806784Y-8090265D02*
X13806784Y-8033696D01*
X13750215Y-8033696D01*
X13750215Y-8090265D01*
X13806784Y-8090265D01*
X13806784Y-8852265D02*
X13806784Y-8795696D01*
X13750215Y-8795696D01*
X13750215Y-8852265D01*
X13806784Y-8852265D01*
X14477171Y-6376765D02*
X14477171Y-6320196D01*
X14420602Y-6320196D01*
X14420602Y-6376765D01*
X14477171Y-6376765D01*
X14477171Y-6630765D02*
X14477171Y-6574196D01*
X14420602Y-6574196D01*
X14420602Y-6630765D01*
X14477171Y-6630765D01*
X14480620Y-6989265D02*
X14480620Y-6932696D01*
X14424051Y-6932696D01*
X14424051Y-6989265D01*
X14480620Y-6989265D01*
X14480620Y-7243265D02*
X14480620Y-7186696D01*
X14424051Y-7186696D01*
X14424051Y-7243265D01*
X14480620Y-7243265D01*
X14796907Y-8090265D02*
X14796907Y-8033696D01*
X14740338Y-8033696D01*
X14740338Y-8090265D01*
X14796907Y-8090265D01*
X14796907Y-8852265D02*
X14796907Y-8795696D01*
X14740338Y-8795696D01*
X14740338Y-8852265D01*
X14796907Y-8852265D01*
X15050907Y-8090265D02*
X15050907Y-8033696D01*
X14994338Y-8033696D01*
X14994338Y-8090265D01*
X15050907Y-8090265D01*
X15050907Y-8852265D02*
X15050907Y-8795696D01*
X14994338Y-8795696D01*
X14994338Y-8852265D01*
X15050907Y-8852265D01*
X15216671Y-5235285D02*
X15216671Y-5178716D01*
X15160102Y-5178716D01*
X15160102Y-5235285D01*
X15216671Y-5235285D01*
X15304907Y-8090265D02*
X15304907Y-8033696D01*
X15248338Y-8033696D01*
X15248338Y-8090265D01*
X15304907Y-8090265D01*
X15304907Y-8852265D02*
X15304907Y-8795696D01*
X15248338Y-8795696D01*
X15248338Y-8852265D01*
X15304907Y-8852265D01*
X15470671Y-5235285D02*
X15470671Y-5178716D01*
X15414102Y-5178716D01*
X15414102Y-5235285D01*
X15470671Y-5235285D01*
X16064671Y-6376765D02*
X16064671Y-6320196D01*
X16008102Y-6320196D01*
X16008102Y-6376765D01*
X16064671Y-6376765D01*
X16064671Y-6630765D02*
X16064671Y-6574196D01*
X16008102Y-6574196D01*
X16008102Y-6630765D01*
X16064671Y-6630765D01*
X16064671Y-6989265D02*
X16064671Y-6932696D01*
X16008102Y-6932696D01*
X16008102Y-6989265D01*
X16064671Y-6989265D01*
X16064671Y-7243265D02*
X16064671Y-7186696D01*
X16008102Y-7186696D01*
X16008102Y-7243265D01*
X16064671Y-7243265D01*
X16381171Y-8090265D02*
X16381171Y-8033696D01*
X16324602Y-8033696D01*
X16324602Y-8090265D01*
X16381171Y-8090265D01*
X16381171Y-8852265D02*
X16381171Y-8795696D01*
X16324602Y-8795696D01*
X16324602Y-8852265D01*
X16381171Y-8852265D01*
X16613671Y-5235285D02*
X16613671Y-5178716D01*
X16557102Y-5178716D01*
X16557102Y-5235285D01*
X16613671Y-5235285D01*
X16635171Y-8090265D02*
X16635171Y-8033696D01*
X16578602Y-8033696D01*
X16578602Y-8090265D01*
X16635171Y-8090265D01*
X16635171Y-8852265D02*
X16635171Y-8795696D01*
X16578602Y-8795696D01*
X16578602Y-8852265D01*
X16635171Y-8852265D01*
X16867671Y-5235285D02*
X16867671Y-5178716D01*
X16811102Y-5178716D01*
X16811102Y-5235285D01*
X16867671Y-5235285D01*
X16889171Y-8090265D02*
X16889171Y-8033696D01*
X16832602Y-8033696D01*
X16832602Y-8090265D01*
X16889171Y-8090265D01*
X16889171Y-8852265D02*
X16889171Y-8795696D01*
X16832602Y-8795696D01*
X16832602Y-8852265D01*
X16889171Y-8852265D01*
X17588671Y-6376765D02*
X17588671Y-6320196D01*
X17532102Y-6320196D01*
X17532102Y-6376765D01*
X17588671Y-6376765D01*
X17588671Y-6630765D02*
X17588671Y-6574196D01*
X17532102Y-6574196D01*
X17532102Y-6630765D01*
X17588671Y-6630765D01*
X17588671Y-6989265D02*
X17588671Y-6932696D01*
X17532102Y-6932696D01*
X17532102Y-6989265D01*
X17588671Y-6989265D01*
X17588671Y-7243265D02*
X17588671Y-7186696D01*
X17532102Y-7186696D01*
X17532102Y-7243265D01*
X17588671Y-7243265D01*
X17905171Y-8090265D02*
X17905171Y-8033696D01*
X17848602Y-8033696D01*
X17848602Y-8090265D01*
X17905171Y-8090265D01*
X17905171Y-8852265D02*
X17905171Y-8795696D01*
X17848602Y-8795696D01*
X17848602Y-8852265D01*
X17905171Y-8852265D01*
X18137671Y-5235285D02*
X18137671Y-5178716D01*
X18081102Y-5178716D01*
X18081102Y-5235285D01*
X18137671Y-5235285D01*
X18159171Y-8090265D02*
X18159171Y-8033696D01*
X18102602Y-8033696D01*
X18102602Y-8090265D01*
X18159171Y-8090265D01*
X18159171Y-8852265D02*
X18159171Y-8795696D01*
X18102602Y-8795696D01*
X18102602Y-8852265D01*
X18159171Y-8852265D01*
X18391671Y-5235285D02*
X18391671Y-5178716D01*
X18335102Y-5178716D01*
X18335102Y-5235285D01*
X18391671Y-5235285D01*
X18413171Y-8090265D02*
X18413171Y-8033696D01*
X18356602Y-8033696D01*
X18356602Y-8090265D01*
X18413171Y-8090265D01*
X18413171Y-8852265D02*
X18413171Y-8795696D01*
X18356602Y-8795696D01*
X18356602Y-8852265D01*
X18413171Y-8852265D01*
X18985671Y-6376765D02*
X18985671Y-6320196D01*
X18929102Y-6320196D01*
X18929102Y-6376765D01*
X18985671Y-6376765D01*
X18985671Y-6630765D02*
X18985671Y-6574196D01*
X18929102Y-6574196D01*
X18929102Y-6630765D01*
X18985671Y-6630765D01*
X18985671Y-6989265D02*
X18985671Y-6932696D01*
X18929102Y-6932696D01*
X18929102Y-6989265D01*
X18985671Y-6989265D01*
X18985671Y-7243265D02*
X18985671Y-7186696D01*
X18929102Y-7186696D01*
X18929102Y-7243265D01*
X18985671Y-7243265D01*
X19302171Y-8090265D02*
X19302171Y-8033696D01*
X19245602Y-8033696D01*
X19245602Y-8090265D01*
X19302171Y-8090265D01*
X19302171Y-8852265D02*
X19302171Y-8795696D01*
X19245602Y-8795696D01*
X19245602Y-8852265D01*
X19302171Y-8852265D01*
X19534671Y-5235285D02*
X19534671Y-5178716D01*
X19478102Y-5178716D01*
X19478102Y-5235285D01*
X19534671Y-5235285D01*
X19556171Y-8090265D02*
X19556171Y-8033696D01*
X19499602Y-8033696D01*
X19499602Y-8090265D01*
X19556171Y-8090265D01*
X19556171Y-8852265D02*
X19556171Y-8795696D01*
X19499602Y-8795696D01*
X19499602Y-8852265D01*
X19556171Y-8852265D01*
X19788671Y-5235285D02*
X19788671Y-5178716D01*
X19732102Y-5178716D01*
X19732102Y-5235285D01*
X19788671Y-5235285D01*
X19810171Y-8090265D02*
X19810171Y-8033696D01*
X19753602Y-8033696D01*
X19753602Y-8090265D01*
X19810171Y-8090265D01*
X19810171Y-8852265D02*
X19810171Y-8795696D01*
X19753602Y-8795696D01*
X19753602Y-8852265D01*
X19810171Y-8852265D01*
D16*
X3762631Y-7851508D02*
X3807631Y-7806508D01*
X3762631Y-7761508D01*
X3717631Y-7806508D01*
X3762631Y-7851508D01*
X3762631Y-8105508D02*
X3807631Y-8060508D01*
X3762631Y-8015508D01*
X3717631Y-8060508D01*
X3762631Y-8105508D01*
X5489797Y-7789980D02*
X5534797Y-7744980D01*
X5489797Y-7699980D01*
X5444797Y-7744980D01*
X5489797Y-7789980D01*
X5489797Y-8043980D02*
X5534797Y-7998980D01*
X5489797Y-7953980D01*
X5444797Y-7998980D01*
X5489797Y-8043980D01*
X6943876Y-7789653D02*
X6988876Y-7744653D01*
X6943876Y-7699653D01*
X6898876Y-7744653D01*
X6943876Y-7789653D01*
X6943876Y-8043653D02*
X6988876Y-7998653D01*
X6943876Y-7953653D01*
X6898876Y-7998653D01*
X6943876Y-8043653D01*
X8408448Y-7788917D02*
X8453448Y-7743917D01*
X8408448Y-7698917D01*
X8363447Y-7743917D01*
X8408448Y-7788917D01*
X8408448Y-8042917D02*
X8453448Y-7997917D01*
X8408448Y-7952917D01*
X8363447Y-7997917D01*
X8408448Y-8042917D01*
X9927378Y-7793026D02*
X9972378Y-7748026D01*
X9927378Y-7703026D01*
X9882378Y-7748026D01*
X9927378Y-7793026D01*
X9927378Y-8047026D02*
X9972378Y-8002026D01*
X9927378Y-7957026D01*
X9882378Y-8002026D01*
X9927378Y-8047026D01*
X11381493Y-7789678D02*
X11426493Y-7744678D01*
X11381493Y-7699678D01*
X11336493Y-7744678D01*
X11381493Y-7789678D01*
X11381493Y-8043678D02*
X11426493Y-7998678D01*
X11381493Y-7953678D01*
X11336493Y-7998678D01*
X11381493Y-8043678D01*
X12862628Y-7789980D02*
X12907628Y-7744980D01*
X12862628Y-7699980D01*
X12817628Y-7744980D01*
X12862628Y-7789980D01*
X12862628Y-8043980D02*
X12907628Y-7998980D01*
X12862628Y-7953980D01*
X12817628Y-7998980D01*
X12862628Y-8043980D01*
X14368580Y-7792687D02*
X14413580Y-7747687D01*
X14368580Y-7702687D01*
X14323580Y-7747687D01*
X14368580Y-7792687D01*
X14368580Y-8046687D02*
X14413580Y-8001687D01*
X14368580Y-7956687D01*
X14323580Y-8001687D01*
X14368580Y-8046687D01*
X15959858Y-7789248D02*
X16004858Y-7744248D01*
X15959858Y-7699248D01*
X15914858Y-7744248D01*
X15959858Y-7789248D01*
X15959858Y-8043248D02*
X16004858Y-7998248D01*
X15959858Y-7953248D01*
X15914858Y-7998248D01*
X15959858Y-8043248D01*
X17489401Y-7789248D02*
X17534401Y-7744248D01*
X17489401Y-7699248D01*
X17444401Y-7744248D01*
X17489401Y-7789248D01*
X17489401Y-8043248D02*
X17534401Y-7998248D01*
X17489401Y-7953248D01*
X17444401Y-7998248D01*
X17489401Y-8043248D01*
X18886293Y-7789248D02*
X18931293Y-7744248D01*
X18886293Y-7699248D01*
X18841293Y-7744248D01*
X18886293Y-7789248D01*
X18886293Y-8043248D02*
X18931293Y-7998248D01*
X18886293Y-7953248D01*
X18841293Y-7998248D01*
X18886293Y-8043248D01*
D17*
X3669387Y-5182000D02*
X3769387Y-5282000D01*
X3769387Y-5182000D02*
X3669387Y-5282000D01*
X3769387Y-5232000D02*
G75*
G03*
X3769387Y-5232000I-50000J0D01*
G01*
X3923387Y-5182000D02*
X4023387Y-5282000D01*
X4023387Y-5182000D02*
X3923387Y-5282000D01*
X4023387Y-5232000D02*
G75*
G03*
X4023387Y-5232000I-50000J0D01*
G01*
X5537956Y-5178680D02*
X5637956Y-5278680D01*
X5637956Y-5178680D02*
X5537956Y-5278680D01*
X5637956Y-5228680D02*
G75*
G03*
X5637956Y-5228680I-50000J0D01*
G01*
X5791956Y-5178680D02*
X5891956Y-5278680D01*
X5891956Y-5178680D02*
X5791956Y-5278680D01*
X5891956Y-5228680D02*
G75*
G03*
X5891956Y-5228680I-50000J0D01*
G01*
X6844387Y-5182000D02*
X6944387Y-5282000D01*
X6944387Y-5182000D02*
X6844387Y-5282000D01*
X6944387Y-5232000D02*
G75*
G03*
X6944387Y-5232000I-50000J0D01*
G01*
X7098387Y-5182000D02*
X7198387Y-5282000D01*
X7198387Y-5182000D02*
X7098387Y-5282000D01*
X7198387Y-5232000D02*
G75*
G03*
X7198387Y-5232000I-50000J0D01*
G01*
X8304887Y-5182000D02*
X8404887Y-5282000D01*
X8404887Y-5182000D02*
X8304887Y-5282000D01*
X8404887Y-5232000D02*
G75*
G03*
X8404887Y-5232000I-50000J0D01*
G01*
X8558887Y-5182000D02*
X8658887Y-5282000D01*
X8658887Y-5182000D02*
X8558887Y-5282000D01*
X8658887Y-5232000D02*
G75*
G03*
X8658887Y-5232000I-50000J0D01*
G01*
X9445387Y-10144980D02*
X9545387Y-10244980D01*
X9545387Y-10144980D02*
X9445387Y-10244980D01*
X9545387Y-10194980D02*
G75*
G03*
X9545387Y-10194980I-50000J0D01*
G01*
X9699387Y-10144980D02*
X9799387Y-10244980D01*
X9799387Y-10144980D02*
X9699387Y-10244980D01*
X9799387Y-10194980D02*
G75*
G03*
X9799387Y-10194980I-50000J0D01*
G01*
X9828887Y-5182000D02*
X9928887Y-5282000D01*
X9928887Y-5182000D02*
X9828887Y-5282000D01*
X9928887Y-5232000D02*
G75*
G03*
X9928887Y-5232000I-50000J0D01*
G01*
X9953387Y-10144980D02*
X10053387Y-10244980D01*
X10053387Y-10144980D02*
X9953387Y-10244980D01*
X10053387Y-10194980D02*
G75*
G03*
X10053387Y-10194980I-50000J0D01*
G01*
X10082887Y-5182000D02*
X10182887Y-5282000D01*
X10182887Y-5182000D02*
X10082887Y-5282000D01*
X10182887Y-5232000D02*
G75*
G03*
X10182887Y-5232000I-50000J0D01*
G01*
X10207387Y-10144980D02*
X10307387Y-10244980D01*
X10307387Y-10144980D02*
X10207387Y-10244980D01*
X10307387Y-10194980D02*
G75*
G03*
X10307387Y-10194980I-50000J0D01*
G01*
X10461387Y-10144980D02*
X10561387Y-10244980D01*
X10561387Y-10144980D02*
X10461387Y-10244980D01*
X10561387Y-10194980D02*
G75*
G03*
X10561387Y-10194980I-50000J0D01*
G01*
X10715387Y-10144980D02*
X10815387Y-10244980D01*
X10815387Y-10144980D02*
X10715387Y-10244980D01*
X10815387Y-10194980D02*
G75*
G03*
X10815387Y-10194980I-50000J0D01*
G01*
X10969387Y-10144980D02*
X11069387Y-10244980D01*
X11069387Y-10144980D02*
X10969387Y-10244980D01*
X11069387Y-10194980D02*
G75*
G03*
X11069387Y-10194980I-50000J0D01*
G01*
X11223387Y-10144980D02*
X11323387Y-10244980D01*
X11323387Y-10144980D02*
X11223387Y-10244980D01*
X11323387Y-10194980D02*
G75*
G03*
X11323387Y-10194980I-50000J0D01*
G01*
X11289387Y-5182000D02*
X11389387Y-5282000D01*
X11389387Y-5182000D02*
X11289387Y-5282000D01*
X11389387Y-5232000D02*
G75*
G03*
X11389387Y-5232000I-50000J0D01*
G01*
X11477387Y-10144980D02*
X11577387Y-10244980D01*
X11577387Y-10144980D02*
X11477387Y-10244980D01*
X11577387Y-10194980D02*
G75*
G03*
X11577387Y-10194980I-50000J0D01*
G01*
X11543387Y-5182000D02*
X11643387Y-5282000D01*
X11643387Y-5182000D02*
X11543387Y-5282000D01*
X11643387Y-5232000D02*
G75*
G03*
X11643387Y-5232000I-50000J0D01*
G01*
X11731387Y-10144980D02*
X11831387Y-10244980D01*
X11831387Y-10144980D02*
X11731387Y-10244980D01*
X11831387Y-10194980D02*
G75*
G03*
X11831387Y-10194980I-50000J0D01*
G01*
X11985387Y-10144980D02*
X12085387Y-10244980D01*
X12085387Y-10144980D02*
X11985387Y-10244980D01*
X12085387Y-10194980D02*
G75*
G03*
X12085387Y-10194980I-50000J0D01*
G01*
X12239387Y-10144980D02*
X12339387Y-10244980D01*
X12339387Y-10144980D02*
X12239387Y-10244980D01*
X12339387Y-10194980D02*
G75*
G03*
X12339387Y-10194980I-50000J0D01*
G01*
X12686387Y-5182000D02*
X12786387Y-5282000D01*
X12786387Y-5182000D02*
X12686387Y-5282000D01*
X12786387Y-5232000D02*
G75*
G03*
X12786387Y-5232000I-50000J0D01*
G01*
X12940387Y-5182000D02*
X13040387Y-5282000D01*
X13040387Y-5182000D02*
X12940387Y-5282000D01*
X13040387Y-5232000D02*
G75*
G03*
X13040387Y-5232000I-50000J0D01*
G01*
X14527887Y-5182000D02*
X14627887Y-5282000D01*
X14627887Y-5182000D02*
X14527887Y-5282000D01*
X14627887Y-5232000D02*
G75*
G03*
X14627887Y-5232000I-50000J0D01*
G01*
X14642337Y-9845254D02*
X14742337Y-9945254D01*
X14742337Y-9845254D02*
X14642337Y-9945254D01*
X14742337Y-9895254D02*
G75*
G03*
X14742337Y-9895254I-50000J0D01*
G01*
X14642337Y-11385254D02*
X14742337Y-11485254D01*
X14742337Y-11385254D02*
X14642337Y-11485254D01*
X14742337Y-11435254D02*
G75*
G03*
X14742337Y-11435254I-50000J0D01*
G01*
X14781887Y-5182000D02*
X14881887Y-5282000D01*
X14881887Y-5182000D02*
X14781887Y-5282000D01*
X14881887Y-5232000D02*
G75*
G03*
X14881887Y-5232000I-50000J0D01*
G01*
X15797887Y-5182000D02*
X15897887Y-5282000D01*
X15897887Y-5182000D02*
X15797887Y-5282000D01*
X15897887Y-5232000D02*
G75*
G03*
X15897887Y-5232000I-50000J0D01*
G01*
X16051887Y-5182000D02*
X16151887Y-5282000D01*
X16151887Y-5182000D02*
X16051887Y-5282000D01*
X16151887Y-5232000D02*
G75*
G03*
X16151887Y-5232000I-50000J0D01*
G01*
X17258387Y-5182000D02*
X17358387Y-5282000D01*
X17358387Y-5182000D02*
X17258387Y-5282000D01*
X17358387Y-5232000D02*
G75*
G03*
X17358387Y-5232000I-50000J0D01*
G01*
X17512387Y-5182000D02*
X17612387Y-5282000D01*
X17612387Y-5182000D02*
X17512387Y-5282000D01*
X17612387Y-5232000D02*
G75*
G03*
X17612387Y-5232000I-50000J0D01*
G01*
X17582337Y-10365254D02*
X17682337Y-10465254D01*
X17682337Y-10365254D02*
X17582337Y-10465254D01*
X17682337Y-10415254D02*
G75*
G03*
X17682337Y-10415254I-50000J0D01*
G01*
X17582337Y-10865254D02*
X17682337Y-10965254D01*
X17682337Y-10865254D02*
X17582337Y-10965254D01*
X17682337Y-10915254D02*
G75*
G03*
X17682337Y-10915254I-50000J0D01*
G01*
X18718887Y-5182000D02*
X18818887Y-5282000D01*
X18818887Y-5182000D02*
X18718887Y-5282000D01*
X18818887Y-5232000D02*
G75*
G03*
X18818887Y-5232000I-50000J0D01*
G01*
X18972887Y-5182000D02*
X19072887Y-5282000D01*
X19072887Y-5182000D02*
X18972887Y-5282000D01*
X19072887Y-5232000D02*
G75*
G03*
X19072887Y-5232000I-50000J0D01*
G01*
D18*
X3852887Y-5697961D02*
X3962887Y-5807961D01*
X3962887Y-5697961D02*
X3852887Y-5807961D01*
X3907887Y-5697961D02*
X3907887Y-5807961D01*
X3852887Y-5752961D02*
X3962887Y-5752961D01*
X4106887Y-5697961D02*
X4216887Y-5807961D01*
X4216887Y-5697961D02*
X4106887Y-5807961D01*
X4161887Y-5697961D02*
X4161887Y-5807961D01*
X4106887Y-5752961D02*
X4216887Y-5752961D01*
X4360887Y-5697961D02*
X4470887Y-5807961D01*
X4470887Y-5697961D02*
X4360887Y-5807961D01*
X4415887Y-5697961D02*
X4415887Y-5807961D01*
X4360887Y-5752961D02*
X4470887Y-5752961D01*
X5567387Y-5697961D02*
X5677387Y-5807961D01*
X5677387Y-5697961D02*
X5567387Y-5807961D01*
X5622387Y-5697961D02*
X5622387Y-5807961D01*
X5567387Y-5752961D02*
X5677387Y-5752961D01*
X5821387Y-5697961D02*
X5931387Y-5807961D01*
X5931387Y-5697961D02*
X5821387Y-5807961D01*
X5876387Y-5697961D02*
X5876387Y-5807961D01*
X5821387Y-5752961D02*
X5931387Y-5752961D01*
X6075387Y-5697961D02*
X6185387Y-5807961D01*
X6185387Y-5697961D02*
X6075387Y-5807961D01*
X6130387Y-5697961D02*
X6130387Y-5807961D01*
X6075387Y-5752961D02*
X6185387Y-5752961D01*
X7027887Y-5697961D02*
X7137887Y-5807961D01*
X7137887Y-5697961D02*
X7027887Y-5807961D01*
X7082887Y-5697961D02*
X7082887Y-5807961D01*
X7027887Y-5752961D02*
X7137887Y-5752961D01*
X7281887Y-5697961D02*
X7391887Y-5807961D01*
X7391887Y-5697961D02*
X7281887Y-5807961D01*
X7336887Y-5697961D02*
X7336887Y-5807961D01*
X7281887Y-5752961D02*
X7391887Y-5752961D01*
X7535887Y-5697961D02*
X7645887Y-5807961D01*
X7645887Y-5697961D02*
X7535887Y-5807961D01*
X7590887Y-5697961D02*
X7590887Y-5807961D01*
X7535887Y-5752961D02*
X7645887Y-5752961D01*
X8488387Y-5697961D02*
X8598387Y-5807961D01*
X8598387Y-5697961D02*
X8488387Y-5807961D01*
X8543387Y-5697961D02*
X8543387Y-5807961D01*
X8488387Y-5752961D02*
X8598387Y-5752961D01*
X8742387Y-5697961D02*
X8852387Y-5807961D01*
X8852387Y-5697961D02*
X8742387Y-5807961D01*
X8797387Y-5697961D02*
X8797387Y-5807961D01*
X8742387Y-5752961D02*
X8852387Y-5752961D01*
X8996387Y-5697961D02*
X9106387Y-5807961D01*
X9106387Y-5697961D02*
X8996387Y-5807961D01*
X9051387Y-5697961D02*
X9051387Y-5807961D01*
X8996387Y-5752961D02*
X9106387Y-5752961D01*
X10012387Y-5697961D02*
X10122387Y-5807961D01*
X10122387Y-5697961D02*
X10012387Y-5807961D01*
X10067387Y-5697961D02*
X10067387Y-5807961D01*
X10012387Y-5752961D02*
X10122387Y-5752961D01*
X10266387Y-5697961D02*
X10376387Y-5807961D01*
X10376387Y-5697961D02*
X10266387Y-5807961D01*
X10321387Y-5697961D02*
X10321387Y-5807961D01*
X10266387Y-5752961D02*
X10376387Y-5752961D01*
X10520387Y-5697961D02*
X10630387Y-5807961D01*
X10630387Y-5697961D02*
X10520387Y-5807961D01*
X10575387Y-5697961D02*
X10575387Y-5807961D01*
X10520387Y-5752961D02*
X10630387Y-5752961D01*
X11472887Y-5697961D02*
X11582887Y-5807961D01*
X11582887Y-5697961D02*
X11472887Y-5807961D01*
X11527887Y-5697961D02*
X11527887Y-5807961D01*
X11472887Y-5752961D02*
X11582887Y-5752961D01*
X11726887Y-5697961D02*
X11836887Y-5807961D01*
X11836887Y-5697961D02*
X11726887Y-5807961D01*
X11781887Y-5697961D02*
X11781887Y-5807961D01*
X11726887Y-5752961D02*
X11836887Y-5752961D01*
X11980887Y-5697961D02*
X12090887Y-5807961D01*
X12090887Y-5697961D02*
X11980887Y-5807961D01*
X12035887Y-5697961D02*
X12035887Y-5807961D01*
X11980887Y-5752961D02*
X12090887Y-5752961D01*
X12933387Y-5697961D02*
X13043387Y-5807961D01*
X13043387Y-5697961D02*
X12933387Y-5807961D01*
X12988387Y-5697961D02*
X12988387Y-5807961D01*
X12933387Y-5752961D02*
X13043387Y-5752961D01*
X13187387Y-5697961D02*
X13297387Y-5807961D01*
X13297387Y-5697961D02*
X13187387Y-5807961D01*
X13242387Y-5697961D02*
X13242387Y-5807961D01*
X13187387Y-5752961D02*
X13297387Y-5752961D01*
X13441387Y-5697961D02*
X13551387Y-5807961D01*
X13551387Y-5697961D02*
X13441387Y-5807961D01*
X13496387Y-5697961D02*
X13496387Y-5807961D01*
X13441387Y-5752961D02*
X13551387Y-5752961D01*
X14457387Y-5697961D02*
X14567387Y-5807961D01*
X14567387Y-5697961D02*
X14457387Y-5807961D01*
X14512387Y-5697961D02*
X14512387Y-5807961D01*
X14457387Y-5752961D02*
X14567387Y-5752961D01*
X14711387Y-5697961D02*
X14821387Y-5807961D01*
X14821387Y-5697961D02*
X14711387Y-5807961D01*
X14766387Y-5697961D02*
X14766387Y-5807961D01*
X14711387Y-5752961D02*
X14821387Y-5752961D01*
X14965387Y-5697961D02*
X15075387Y-5807961D01*
X15075387Y-5697961D02*
X14965387Y-5807961D01*
X15020387Y-5697961D02*
X15020387Y-5807961D01*
X14965387Y-5752961D02*
X15075387Y-5752961D01*
X16044887Y-5697961D02*
X16154887Y-5807961D01*
X16154887Y-5697961D02*
X16044887Y-5807961D01*
X16099887Y-5697961D02*
X16099887Y-5807961D01*
X16044887Y-5752961D02*
X16154887Y-5752961D01*
X16298887Y-5697961D02*
X16408887Y-5807961D01*
X16408887Y-5697961D02*
X16298887Y-5807961D01*
X16353887Y-5697961D02*
X16353887Y-5807961D01*
X16298887Y-5752961D02*
X16408887Y-5752961D01*
X16552887Y-5697961D02*
X16662887Y-5807961D01*
X16662887Y-5697961D02*
X16552887Y-5807961D01*
X16607887Y-5697961D02*
X16607887Y-5807961D01*
X16552887Y-5752961D02*
X16662887Y-5752961D01*
X17568887Y-5697961D02*
X17678887Y-5807961D01*
X17678887Y-5697961D02*
X17568887Y-5807961D01*
X17623887Y-5697961D02*
X17623887Y-5807961D01*
X17568887Y-5752961D02*
X17678887Y-5752961D01*
X17822887Y-5697961D02*
X17932887Y-5807961D01*
X17932887Y-5697961D02*
X17822887Y-5807961D01*
X17877887Y-5697961D02*
X17877887Y-5807961D01*
X17822887Y-5752961D02*
X17932887Y-5752961D01*
X18076887Y-5697961D02*
X18186887Y-5807961D01*
X18186887Y-5697961D02*
X18076887Y-5807961D01*
X18131887Y-5697961D02*
X18131887Y-5807961D01*
X18076887Y-5752961D02*
X18186887Y-5752961D01*
X18965887Y-5697961D02*
X19075887Y-5807961D01*
X19075887Y-5697961D02*
X18965887Y-5807961D01*
X19020887Y-5697961D02*
X19020887Y-5807961D01*
X18965887Y-5752961D02*
X19075887Y-5752961D01*
X19219887Y-5697961D02*
X19329887Y-5807961D01*
X19329887Y-5697961D02*
X19219887Y-5807961D01*
X19274887Y-5697961D02*
X19274887Y-5807961D01*
X19219887Y-5752961D02*
X19329887Y-5752961D01*
X19473887Y-5697961D02*
X19583887Y-5807961D01*
X19583887Y-5697961D02*
X19473887Y-5807961D01*
X19528887Y-5697961D02*
X19528887Y-5807961D01*
X19473887Y-5752961D02*
X19583887Y-5752961D01*
D19*
X4355887Y-6099500D02*
X4475887Y-6219500D01*
X4475887Y-6099500D02*
X4355887Y-6219500D01*
X4458313Y-6201927D02*
X4458313Y-6117073D01*
X4373460Y-6117073D01*
X4373460Y-6201927D01*
X4458313Y-6201927D01*
X4355887Y-7599500D02*
X4475887Y-7719500D01*
X4475887Y-7599500D02*
X4355887Y-7719500D01*
X4458313Y-7701927D02*
X4458313Y-7617073D01*
X4373460Y-7617073D01*
X4373460Y-7701927D01*
X4458313Y-7701927D01*
X6071387Y-6111500D02*
X6191387Y-6231500D01*
X6191387Y-6111500D02*
X6071387Y-6231500D01*
X6173813Y-6213927D02*
X6173813Y-6129073D01*
X6088960Y-6129073D01*
X6088960Y-6213927D01*
X6173813Y-6213927D01*
X6071387Y-7611500D02*
X6191387Y-7731500D01*
X6191387Y-7611500D02*
X6071387Y-7731500D01*
X6173813Y-7713927D02*
X6173813Y-7629073D01*
X6088960Y-7629073D01*
X6088960Y-7713927D01*
X6173813Y-7713927D01*
X7530887Y-6111500D02*
X7650887Y-6231500D01*
X7650887Y-6111500D02*
X7530887Y-6231500D01*
X7633313Y-6213927D02*
X7633313Y-6129073D01*
X7548460Y-6129073D01*
X7548460Y-6213927D01*
X7633313Y-6213927D01*
X7530887Y-7611500D02*
X7650887Y-7731500D01*
X7650887Y-7611500D02*
X7530887Y-7731500D01*
X7633313Y-7713927D02*
X7633313Y-7629073D01*
X7548460Y-7629073D01*
X7548460Y-7713927D01*
X7633313Y-7713927D01*
X8991387Y-6111500D02*
X9111387Y-6231500D01*
X9111387Y-6111500D02*
X8991387Y-6231500D01*
X9093813Y-6213927D02*
X9093813Y-6129073D01*
X9008960Y-6129073D01*
X9008960Y-6213927D01*
X9093813Y-6213927D01*
X8991387Y-7611500D02*
X9111387Y-7731500D01*
X9111387Y-7611500D02*
X8991387Y-7731500D01*
X9093813Y-7713927D02*
X9093813Y-7629073D01*
X9008960Y-7629073D01*
X9008960Y-7713927D01*
X9093813Y-7713927D01*
X10515387Y-6111500D02*
X10635387Y-6231500D01*
X10635387Y-6111500D02*
X10515387Y-6231500D01*
X10617813Y-6213927D02*
X10617813Y-6129073D01*
X10532960Y-6129073D01*
X10532960Y-6213927D01*
X10617813Y-6213927D01*
X10515387Y-7611500D02*
X10635387Y-7731500D01*
X10635387Y-7611500D02*
X10515387Y-7731500D01*
X10617813Y-7713927D02*
X10617813Y-7629073D01*
X10532960Y-7629073D01*
X10532960Y-7713927D01*
X10617813Y-7713927D01*
X11975887Y-6111500D02*
X12095887Y-6231500D01*
X12095887Y-6111500D02*
X11975887Y-6231500D01*
X12078313Y-6213927D02*
X12078313Y-6129073D01*
X11993460Y-6129073D01*
X11993460Y-6213927D01*
X12078313Y-6213927D01*
X11975887Y-7611500D02*
X12095887Y-7731500D01*
X12095887Y-7611500D02*
X11975887Y-7731500D01*
X12078313Y-7713927D02*
X12078313Y-7629073D01*
X11993460Y-7629073D01*
X11993460Y-7713927D01*
X12078313Y-7713927D01*
X13465500Y-6111500D02*
X13585500Y-6231500D01*
X13585500Y-6111500D02*
X13465500Y-6231500D01*
X13567927Y-6213927D02*
X13567927Y-6129073D01*
X13483073Y-6129073D01*
X13483073Y-6213927D01*
X13567927Y-6213927D01*
X13465500Y-7611500D02*
X13585500Y-7731500D01*
X13585500Y-7611500D02*
X13465500Y-7731500D01*
X13567927Y-7713927D02*
X13567927Y-7629073D01*
X13483073Y-7629073D01*
X13483073Y-7713927D01*
X13567927Y-7713927D01*
X14960387Y-6111500D02*
X15080387Y-6231500D01*
X15080387Y-6111500D02*
X14960387Y-6231500D01*
X15062813Y-6213927D02*
X15062813Y-6129073D01*
X14977960Y-6129073D01*
X14977960Y-6213927D01*
X15062813Y-6213927D01*
X14960387Y-7611500D02*
X15080387Y-7731500D01*
X15080387Y-7611500D02*
X14960387Y-7731500D01*
X15062813Y-7713927D02*
X15062813Y-7629073D01*
X14977960Y-7629073D01*
X14977960Y-7713927D01*
X15062813Y-7713927D01*
X16547887Y-6111500D02*
X16667887Y-6231500D01*
X16667887Y-6111500D02*
X16547887Y-6231500D01*
X16650313Y-6213927D02*
X16650313Y-6129073D01*
X16565460Y-6129073D01*
X16565460Y-6213927D01*
X16650313Y-6213927D01*
X16547887Y-7611500D02*
X16667887Y-7731500D01*
X16667887Y-7611500D02*
X16547887Y-7731500D01*
X16650313Y-7713927D02*
X16650313Y-7629073D01*
X16565460Y-7629073D01*
X16565460Y-7713927D01*
X16650313Y-7713927D01*
X18071887Y-6111500D02*
X18191887Y-6231500D01*
X18191887Y-6111500D02*
X18071887Y-6231500D01*
X18174313Y-6213927D02*
X18174313Y-6129073D01*
X18089460Y-6129073D01*
X18089460Y-6213927D01*
X18174313Y-6213927D01*
X18071887Y-7611500D02*
X18191887Y-7731500D01*
X18191887Y-7611500D02*
X18071887Y-7731500D01*
X18174313Y-7713927D02*
X18174313Y-7629073D01*
X18089460Y-7629073D01*
X18089460Y-7713927D01*
X18174313Y-7713927D01*
X19468887Y-6099500D02*
X19588887Y-6219500D01*
X19588887Y-6099500D02*
X19468887Y-6219500D01*
X19571313Y-6201927D02*
X19571313Y-6117073D01*
X19486460Y-6117073D01*
X19486460Y-6201927D01*
X19571313Y-6201927D01*
X19468887Y-7599500D02*
X19588887Y-7719500D01*
X19588887Y-7599500D02*
X19468887Y-7719500D01*
X19571313Y-7701927D02*
X19571313Y-7617073D01*
X19486460Y-7617073D01*
X19486460Y-7701927D01*
X19571313Y-7701927D01*
D20*
X3881500Y-4096104D02*
X4011500Y-4226104D01*
X4011500Y-4096104D02*
X3881500Y-4226104D01*
X3946500Y-4226104D02*
X4011500Y-4161104D01*
X3946500Y-4096104D01*
X3881500Y-4161104D01*
X3946500Y-4226104D01*
X4381500Y-4096104D02*
X4511500Y-4226104D01*
X4511500Y-4096104D02*
X4381500Y-4226104D01*
X4446500Y-4226104D02*
X4511500Y-4161104D01*
X4446500Y-4096104D01*
X4381500Y-4161104D01*
X4446500Y-4226104D01*
X5381500Y-4096104D02*
X5511500Y-4226104D01*
X5511500Y-4096104D02*
X5381500Y-4226104D01*
X5446500Y-4226104D02*
X5511500Y-4161104D01*
X5446500Y-4096104D01*
X5381500Y-4161104D01*
X5446500Y-4226104D01*
X5881500Y-4096104D02*
X6011500Y-4226104D01*
X6011500Y-4096104D02*
X5881500Y-4226104D01*
X5946500Y-4226104D02*
X6011500Y-4161104D01*
X5946500Y-4096104D01*
X5881500Y-4161104D01*
X5946500Y-4226104D01*
X6881500Y-4096104D02*
X7011500Y-4226104D01*
X7011500Y-4096104D02*
X6881500Y-4226104D01*
X6946500Y-4226104D02*
X7011500Y-4161104D01*
X6946500Y-4096104D01*
X6881500Y-4161104D01*
X6946500Y-4226104D01*
X7381500Y-4096104D02*
X7511500Y-4226104D01*
X7511500Y-4096104D02*
X7381500Y-4226104D01*
X7446500Y-4226104D02*
X7511500Y-4161104D01*
X7446500Y-4096104D01*
X7381500Y-4161104D01*
X7446500Y-4226104D01*
X8381500Y-4096104D02*
X8511500Y-4226104D01*
X8511500Y-4096104D02*
X8381500Y-4226104D01*
X8446500Y-4226104D02*
X8511500Y-4161104D01*
X8446500Y-4096104D01*
X8381500Y-4161104D01*
X8446500Y-4226104D01*
X8881500Y-4096104D02*
X9011500Y-4226104D01*
X9011500Y-4096104D02*
X8881500Y-4226104D01*
X8946500Y-4226104D02*
X9011500Y-4161104D01*
X8946500Y-4096104D01*
X8881500Y-4161104D01*
X8946500Y-4226104D01*
X9881500Y-4096104D02*
X10011500Y-4226104D01*
X10011500Y-4096104D02*
X9881500Y-4226104D01*
X9946500Y-4226104D02*
X10011500Y-4161104D01*
X9946500Y-4096104D01*
X9881500Y-4161104D01*
X9946500Y-4226104D01*
X10381500Y-4096104D02*
X10511500Y-4226104D01*
X10511500Y-4096104D02*
X10381500Y-4226104D01*
X10446500Y-4226104D02*
X10511500Y-4161104D01*
X10446500Y-4096104D01*
X10381500Y-4161104D01*
X10446500Y-4226104D01*
X11381500Y-4096104D02*
X11511500Y-4226104D01*
X11511500Y-4096104D02*
X11381500Y-4226104D01*
X11446500Y-4226104D02*
X11511500Y-4161104D01*
X11446500Y-4096104D01*
X11381500Y-4161104D01*
X11446500Y-4226104D01*
X11881500Y-4096104D02*
X12011500Y-4226104D01*
X12011500Y-4096104D02*
X11881500Y-4226104D01*
X11946500Y-4226104D02*
X12011500Y-4161104D01*
X11946500Y-4096104D01*
X11881500Y-4161104D01*
X11946500Y-4226104D01*
X12881500Y-4096104D02*
X13011500Y-4226104D01*
X13011500Y-4096104D02*
X12881500Y-4226104D01*
X12946500Y-4226104D02*
X13011500Y-4161104D01*
X12946500Y-4096104D01*
X12881500Y-4161104D01*
X12946500Y-4226104D01*
X13381500Y-4096104D02*
X13511500Y-4226104D01*
X13511500Y-4096104D02*
X13381500Y-4226104D01*
X13446500Y-4226104D02*
X13511500Y-4161104D01*
X13446500Y-4096104D01*
X13381500Y-4161104D01*
X13446500Y-4226104D01*
X13841500Y-10201480D02*
X13971500Y-10331480D01*
X13971500Y-10201480D02*
X13841500Y-10331480D01*
X13906500Y-10331480D02*
X13971500Y-10266480D01*
X13906500Y-10201480D01*
X13841500Y-10266480D01*
X13906500Y-10331480D01*
X13841500Y-10701480D02*
X13971500Y-10831480D01*
X13971500Y-10701480D02*
X13841500Y-10831480D01*
X13906500Y-10831480D02*
X13971500Y-10766480D01*
X13906500Y-10701480D01*
X13841500Y-10766480D01*
X13906500Y-10831480D01*
X14381500Y-4096104D02*
X14511500Y-4226104D01*
X14511500Y-4096104D02*
X14381500Y-4226104D01*
X14446500Y-4226104D02*
X14511500Y-4161104D01*
X14446500Y-4096104D01*
X14381500Y-4161104D01*
X14446500Y-4226104D01*
X14881500Y-4096104D02*
X15011500Y-4226104D01*
X15011500Y-4096104D02*
X14881500Y-4226104D01*
X14946500Y-4226104D02*
X15011500Y-4161104D01*
X14946500Y-4096104D01*
X14881500Y-4161104D01*
X14946500Y-4226104D01*
X15881500Y-4096104D02*
X16011500Y-4226104D01*
X16011500Y-4096104D02*
X15881500Y-4226104D01*
X15946500Y-4226104D02*
X16011500Y-4161104D01*
X15946500Y-4096104D01*
X15881500Y-4161104D01*
X15946500Y-4226104D01*
X16381500Y-4096104D02*
X16511500Y-4226104D01*
X16511500Y-4096104D02*
X16381500Y-4226104D01*
X16446500Y-4226104D02*
X16511500Y-4161104D01*
X16446500Y-4096104D01*
X16381500Y-4161104D01*
X16446500Y-4226104D01*
X17381500Y-4096104D02*
X17511500Y-4226104D01*
X17511500Y-4096104D02*
X17381500Y-4226104D01*
X17446500Y-4226104D02*
X17511500Y-4161104D01*
X17446500Y-4096104D01*
X17381500Y-4161104D01*
X17446500Y-4226104D01*
X17881500Y-4096104D02*
X18011500Y-4226104D01*
X18011500Y-4096104D02*
X17881500Y-4226104D01*
X17946500Y-4226104D02*
X18011500Y-4161104D01*
X17946500Y-4096104D01*
X17881500Y-4161104D01*
X17946500Y-4226104D01*
X18691445Y-9447858D02*
X18821445Y-9577858D01*
X18821445Y-9447858D02*
X18691445Y-9577858D01*
X18756445Y-9577858D02*
X18821445Y-9512858D01*
X18756445Y-9447858D01*
X18691445Y-9512858D01*
X18756445Y-9577858D01*
X18691445Y-9907858D02*
X18821445Y-10037858D01*
X18821445Y-9907858D02*
X18691445Y-10037858D01*
X18756445Y-10037858D02*
X18821445Y-9972858D01*
X18756445Y-9907858D01*
X18691445Y-9972858D01*
X18756445Y-10037858D01*
X18691445Y-11037858D02*
X18821445Y-11167858D01*
X18821445Y-11037858D02*
X18691445Y-11167858D01*
X18756445Y-11167858D02*
X18821445Y-11102858D01*
X18756445Y-11037858D01*
X18691445Y-11102858D01*
X18756445Y-11167858D01*
X18691445Y-11497858D02*
X18821445Y-11627858D01*
X18821445Y-11497858D02*
X18691445Y-11627858D01*
X18756445Y-11627858D02*
X18821445Y-11562858D01*
X18756445Y-11497858D01*
X18691445Y-11562858D01*
X18756445Y-11627858D01*
X18881500Y-4096104D02*
X19011500Y-4226104D01*
X19011500Y-4096104D02*
X18881500Y-4226104D01*
X18946500Y-4226104D02*
X19011500Y-4161104D01*
X18946500Y-4096104D01*
X18881500Y-4161104D01*
X18946500Y-4226104D01*
X19381500Y-4096104D02*
X19511500Y-4226104D01*
X19511500Y-4096104D02*
X19381500Y-4226104D01*
X19446500Y-4226104D02*
X19511500Y-4161104D01*
X19446500Y-4096104D01*
X19381500Y-4161104D01*
X19446500Y-4226104D01*
X19474715Y-9400746D02*
X19604715Y-9530746D01*
X19604715Y-9400746D02*
X19474715Y-9530746D01*
X19539715Y-9530746D02*
X19604715Y-9465746D01*
X19539715Y-9400746D01*
X19474715Y-9465746D01*
X19539715Y-9530746D01*
X19474715Y-9900746D02*
X19604715Y-10030746D01*
X19604715Y-9900746D02*
X19474715Y-10030746D01*
X19539715Y-10030746D02*
X19604715Y-9965746D01*
X19539715Y-9900746D01*
X19474715Y-9965746D01*
X19539715Y-10030746D01*
D21*
X4318000Y-10020500D02*
X4318000Y-10172500D01*
X4242000Y-10096500D02*
X4394000Y-10096500D01*
X4394000Y-10096500D02*
G75*
G03*
X4394000Y-10096500I-76000J0D01*
G01*
X4318000Y-10528500D02*
X4318000Y-10680500D01*
X4242000Y-10604500D02*
X4394000Y-10604500D01*
X4394000Y-10604500D02*
G75*
G03*
X4394000Y-10604500I-76000J0D01*
G01*
X4318000Y-11036500D02*
X4318000Y-11188500D01*
X4242000Y-11112500D02*
X4394000Y-11112500D01*
X4394000Y-11112500D02*
G75*
G03*
X4394000Y-11112500I-76000J0D01*
G01*
X19592387Y-10971480D02*
X19592387Y-11123480D01*
X19516387Y-11047480D02*
X19668387Y-11047480D01*
X19668387Y-11047480D02*
G75*
G03*
X19668387Y-11047480I-76000J0D01*
G01*
X19592387Y-11479480D02*
X19592387Y-11631480D01*
X19516387Y-11555480D02*
X19668387Y-11555480D01*
X19668387Y-11555480D02*
G75*
G03*
X19668387Y-11555480I-76000J0D01*
G01*
D11*
X3599206Y-12544956D02*
X3599206Y-12344956D01*
X3646825Y-12344956D01*
X3675396Y-12354480D01*
X3694444Y-12373528D01*
X3703967Y-12392575D01*
X3713491Y-12430671D01*
X3713491Y-12459242D01*
X3703967Y-12497337D01*
X3694444Y-12516385D01*
X3675396Y-12535433D01*
X3646825Y-12544956D01*
X3599206Y-12544956D01*
X3799206Y-12544956D02*
X3799206Y-12411623D01*
X3799206Y-12449718D02*
X3808729Y-12430671D01*
X3818253Y-12421147D01*
X3837301Y-12411623D01*
X3856348Y-12411623D01*
X3923015Y-12544956D02*
X3923015Y-12411623D01*
X3923015Y-12344956D02*
X3913491Y-12354480D01*
X3923015Y-12364004D01*
X3932539Y-12354480D01*
X3923015Y-12344956D01*
X3923015Y-12364004D01*
X4046825Y-12544956D02*
X4027777Y-12535433D01*
X4018253Y-12516385D01*
X4018253Y-12344956D01*
X4151587Y-12544956D02*
X4132539Y-12535433D01*
X4123015Y-12516385D01*
X4123015Y-12344956D01*
X4380158Y-12544956D02*
X4380158Y-12344956D01*
X4446825Y-12487814D01*
X4513491Y-12344956D01*
X4513491Y-12544956D01*
X4694444Y-12544956D02*
X4694444Y-12440194D01*
X4684920Y-12421147D01*
X4665872Y-12411623D01*
X4627777Y-12411623D01*
X4608729Y-12421147D01*
X4694444Y-12535433D02*
X4675396Y-12544956D01*
X4627777Y-12544956D01*
X4608729Y-12535433D01*
X4599206Y-12516385D01*
X4599206Y-12497337D01*
X4608729Y-12478290D01*
X4627777Y-12468766D01*
X4675396Y-12468766D01*
X4694444Y-12459242D01*
X4789682Y-12411623D02*
X4789682Y-12611623D01*
X4789682Y-12421147D02*
X4808729Y-12411623D01*
X4846825Y-12411623D01*
X4865872Y-12421147D01*
X4875396Y-12430671D01*
X4884920Y-12449718D01*
X4884920Y-12506861D01*
X4875396Y-12525909D01*
X4865872Y-12535433D01*
X4846825Y-12544956D01*
X4808729Y-12544956D01*
X4789682Y-12535433D01*
X4970634Y-12525909D02*
X4980158Y-12535433D01*
X4970634Y-12544956D01*
X4961110Y-12535433D01*
X4970634Y-12525909D01*
X4970634Y-12544956D01*
X4970634Y-12421147D02*
X4980158Y-12430671D01*
X4970634Y-12440194D01*
X4961110Y-12430671D01*
X4970634Y-12421147D01*
X4970634Y-12440194D01*
D12*
X3301587Y-12854480D02*
X3341587Y-12894480D01*
X3341587Y-12854480D02*
X3301587Y-12894480D01*
D11*
X3637301Y-12764956D02*
X3656348Y-12764956D01*
X3675396Y-12774480D01*
X3684920Y-12784004D01*
X3694444Y-12803052D01*
X3703967Y-12841147D01*
X3703967Y-12888766D01*
X3694444Y-12926861D01*
X3684920Y-12945909D01*
X3675396Y-12955433D01*
X3656348Y-12964956D01*
X3637301Y-12964956D01*
X3618253Y-12955433D01*
X3608729Y-12945909D01*
X3599206Y-12926861D01*
X3589682Y-12888766D01*
X3589682Y-12841147D01*
X3599206Y-12803052D01*
X3608729Y-12784004D01*
X3618253Y-12774480D01*
X3637301Y-12764956D01*
X3789682Y-12945909D02*
X3799206Y-12955433D01*
X3789682Y-12964956D01*
X3780158Y-12955433D01*
X3789682Y-12945909D01*
X3789682Y-12964956D01*
X3970634Y-12831623D02*
X3970634Y-12964956D01*
X3923015Y-12755433D02*
X3875396Y-12898290D01*
X3999206Y-12898290D01*
X4113491Y-12764956D02*
X4132539Y-12764956D01*
X4151587Y-12774480D01*
X4161110Y-12784004D01*
X4170634Y-12803052D01*
X4180158Y-12841147D01*
X4180158Y-12888766D01*
X4170634Y-12926861D01*
X4161110Y-12945909D01*
X4151587Y-12955433D01*
X4132539Y-12964956D01*
X4113491Y-12964956D01*
X4094444Y-12955433D01*
X4084920Y-12945909D01*
X4075396Y-12926861D01*
X4065872Y-12888766D01*
X4065872Y-12841147D01*
X4075396Y-12803052D01*
X4084920Y-12784004D01*
X4094444Y-12774480D01*
X4113491Y-12764956D01*
X4303968Y-12764956D02*
X4323015Y-12764956D01*
X4342063Y-12774480D01*
X4351587Y-12784004D01*
X4361110Y-12803052D01*
X4370634Y-12841147D01*
X4370634Y-12888766D01*
X4361110Y-12926861D01*
X4351587Y-12945909D01*
X4342063Y-12955433D01*
X4323015Y-12964956D01*
X4303968Y-12964956D01*
X4284920Y-12955433D01*
X4275396Y-12945909D01*
X4265872Y-12926861D01*
X4256349Y-12888766D01*
X4256349Y-12841147D01*
X4265872Y-12803052D01*
X4275396Y-12784004D01*
X4284920Y-12774480D01*
X4303968Y-12764956D01*
X4456349Y-12964956D02*
X4456349Y-12831623D01*
X4456349Y-12850671D02*
X4465872Y-12841147D01*
X4484920Y-12831623D01*
X4513491Y-12831623D01*
X4532539Y-12841147D01*
X4542063Y-12860194D01*
X4542063Y-12964956D01*
X4542063Y-12860194D02*
X4551587Y-12841147D01*
X4570634Y-12831623D01*
X4599206Y-12831623D01*
X4618253Y-12841147D01*
X4627777Y-12860194D01*
X4627777Y-12964956D01*
X4723015Y-12964956D02*
X4723015Y-12831623D01*
X4723015Y-12850671D02*
X4732539Y-12841147D01*
X4751587Y-12831623D01*
X4780158Y-12831623D01*
X4799206Y-12841147D01*
X4808729Y-12860194D01*
X4808729Y-12964956D01*
X4808729Y-12860194D02*
X4818253Y-12841147D01*
X4837301Y-12831623D01*
X4865872Y-12831623D01*
X4884920Y-12841147D01*
X4894444Y-12860194D01*
X4894444Y-12964956D01*
X5284920Y-12755433D02*
X5113491Y-13012575D01*
X5542063Y-12764956D02*
X5561110Y-12764956D01*
X5580158Y-12774480D01*
X5589682Y-12784004D01*
X5599206Y-12803052D01*
X5608729Y-12841147D01*
X5608729Y-12888766D01*
X5599206Y-12926861D01*
X5589682Y-12945909D01*
X5580158Y-12955433D01*
X5561110Y-12964956D01*
X5542063Y-12964956D01*
X5523015Y-12955433D01*
X5513491Y-12945909D01*
X5503968Y-12926861D01*
X5494444Y-12888766D01*
X5494444Y-12841147D01*
X5503968Y-12803052D01*
X5513491Y-12784004D01*
X5523015Y-12774480D01*
X5542063Y-12764956D01*
X5694444Y-12945909D02*
X5703967Y-12955433D01*
X5694444Y-12964956D01*
X5684920Y-12955433D01*
X5694444Y-12945909D01*
X5694444Y-12964956D01*
X5827777Y-12764956D02*
X5846825Y-12764956D01*
X5865872Y-12774480D01*
X5875396Y-12784004D01*
X5884920Y-12803052D01*
X5894444Y-12841147D01*
X5894444Y-12888766D01*
X5884920Y-12926861D01*
X5875396Y-12945909D01*
X5865872Y-12955433D01*
X5846825Y-12964956D01*
X5827777Y-12964956D01*
X5808729Y-12955433D01*
X5799206Y-12945909D01*
X5789682Y-12926861D01*
X5780158Y-12888766D01*
X5780158Y-12841147D01*
X5789682Y-12803052D01*
X5799206Y-12784004D01*
X5808729Y-12774480D01*
X5827777Y-12764956D01*
X6084920Y-12964956D02*
X5970634Y-12964956D01*
X6027777Y-12964956D02*
X6027777Y-12764956D01*
X6008729Y-12793528D01*
X5989682Y-12812575D01*
X5970634Y-12822099D01*
X6265872Y-12764956D02*
X6170634Y-12764956D01*
X6161110Y-12860194D01*
X6170634Y-12850671D01*
X6189682Y-12841147D01*
X6237301Y-12841147D01*
X6256348Y-12850671D01*
X6265872Y-12860194D01*
X6275396Y-12879242D01*
X6275396Y-12926861D01*
X6265872Y-12945909D01*
X6256348Y-12955433D01*
X6237301Y-12964956D01*
X6189682Y-12964956D01*
X6170634Y-12955433D01*
X6161110Y-12945909D01*
X6342063Y-12764956D02*
X6475396Y-12764956D01*
X6389682Y-12964956D01*
X6542063Y-12764956D02*
X6542063Y-12803052D01*
X6618253Y-12764956D02*
X6618253Y-12803052D01*
X6913491Y-13041147D02*
X6903967Y-13031623D01*
X6884920Y-13003052D01*
X6875396Y-12984004D01*
X6865872Y-12955433D01*
X6856348Y-12907814D01*
X6856348Y-12869718D01*
X6865872Y-12822099D01*
X6875396Y-12793528D01*
X6884920Y-12774480D01*
X6903967Y-12745909D01*
X6913491Y-12736385D01*
X6980158Y-12784004D02*
X6989682Y-12774480D01*
X7008729Y-12764956D01*
X7056348Y-12764956D01*
X7075396Y-12774480D01*
X7084920Y-12784004D01*
X7094444Y-12803052D01*
X7094444Y-12822099D01*
X7084920Y-12850671D01*
X6970634Y-12964956D01*
X7094444Y-12964956D01*
X7332539Y-12964956D02*
X7332539Y-12764956D01*
X7418253Y-12964956D02*
X7418253Y-12860194D01*
X7408729Y-12841147D01*
X7389682Y-12831623D01*
X7361110Y-12831623D01*
X7342063Y-12841147D01*
X7332539Y-12850671D01*
X7542063Y-12964956D02*
X7523015Y-12955433D01*
X7513491Y-12945909D01*
X7503967Y-12926861D01*
X7503967Y-12869718D01*
X7513491Y-12850671D01*
X7523015Y-12841147D01*
X7542063Y-12831623D01*
X7570634Y-12831623D01*
X7589682Y-12841147D01*
X7599206Y-12850671D01*
X7608729Y-12869718D01*
X7608729Y-12926861D01*
X7599206Y-12945909D01*
X7589682Y-12955433D01*
X7570634Y-12964956D01*
X7542063Y-12964956D01*
X7723015Y-12964956D02*
X7703967Y-12955433D01*
X7694444Y-12936385D01*
X7694444Y-12764956D01*
X7875396Y-12955433D02*
X7856348Y-12964956D01*
X7818253Y-12964956D01*
X7799206Y-12955433D01*
X7789682Y-12936385D01*
X7789682Y-12860194D01*
X7799206Y-12841147D01*
X7818253Y-12831623D01*
X7856348Y-12831623D01*
X7875396Y-12841147D01*
X7884920Y-12860194D01*
X7884920Y-12879242D01*
X7789682Y-12898290D01*
X7961110Y-12955433D02*
X7980158Y-12964956D01*
X8018253Y-12964956D01*
X8037301Y-12955433D01*
X8046825Y-12936385D01*
X8046825Y-12926861D01*
X8037301Y-12907814D01*
X8018253Y-12898290D01*
X7989682Y-12898290D01*
X7970634Y-12888766D01*
X7961110Y-12869718D01*
X7961110Y-12860194D01*
X7970634Y-12841147D01*
X7989682Y-12831623D01*
X8018253Y-12831623D01*
X8037301Y-12841147D01*
X8113491Y-13041147D02*
X8123015Y-13031623D01*
X8142063Y-13003052D01*
X8151586Y-12984004D01*
X8161110Y-12955433D01*
X8170634Y-12907814D01*
X8170634Y-12869718D01*
X8161110Y-12822099D01*
X8151586Y-12793528D01*
X8142063Y-12774480D01*
X8123015Y-12745909D01*
X8113491Y-12736385D01*
D13*
X3341587Y-13138480D02*
G75*
G03*
X3341587Y-13138480I-30000J0D01*
G01*
D11*
X3637301Y-13028956D02*
X3656348Y-13028956D01*
X3675396Y-13038480D01*
X3684920Y-13048004D01*
X3694444Y-13067052D01*
X3703967Y-13105147D01*
X3703967Y-13152766D01*
X3694444Y-13190861D01*
X3684920Y-13209909D01*
X3675396Y-13219433D01*
X3656348Y-13228956D01*
X3637301Y-13228956D01*
X3618253Y-13219433D01*
X3608729Y-13209909D01*
X3599206Y-13190861D01*
X3589682Y-13152766D01*
X3589682Y-13105147D01*
X3599206Y-13067052D01*
X3608729Y-13048004D01*
X3618253Y-13038480D01*
X3637301Y-13028956D01*
X3789682Y-13209909D02*
X3799206Y-13219433D01*
X3789682Y-13228956D01*
X3780158Y-13219433D01*
X3789682Y-13209909D01*
X3789682Y-13228956D01*
X3970634Y-13028956D02*
X3932539Y-13028956D01*
X3913491Y-13038480D01*
X3903967Y-13048004D01*
X3884920Y-13076575D01*
X3875396Y-13114671D01*
X3875396Y-13190861D01*
X3884920Y-13209909D01*
X3894444Y-13219433D01*
X3913491Y-13228956D01*
X3951587Y-13228956D01*
X3970634Y-13219433D01*
X3980158Y-13209909D01*
X3989682Y-13190861D01*
X3989682Y-13143242D01*
X3980158Y-13124194D01*
X3970634Y-13114671D01*
X3951587Y-13105147D01*
X3913491Y-13105147D01*
X3894444Y-13114671D01*
X3884920Y-13124194D01*
X3875396Y-13143242D01*
X4113491Y-13028956D02*
X4132539Y-13028956D01*
X4151587Y-13038480D01*
X4161110Y-13048004D01*
X4170634Y-13067052D01*
X4180158Y-13105147D01*
X4180158Y-13152766D01*
X4170634Y-13190861D01*
X4161110Y-13209909D01*
X4151587Y-13219433D01*
X4132539Y-13228956D01*
X4113491Y-13228956D01*
X4094444Y-13219433D01*
X4084920Y-13209909D01*
X4075396Y-13190861D01*
X4065872Y-13152766D01*
X4065872Y-13105147D01*
X4075396Y-13067052D01*
X4084920Y-13048004D01*
X4094444Y-13038480D01*
X4113491Y-13028956D01*
X4303968Y-13028956D02*
X4323015Y-13028956D01*
X4342063Y-13038480D01*
X4351587Y-13048004D01*
X4361110Y-13067052D01*
X4370634Y-13105147D01*
X4370634Y-13152766D01*
X4361110Y-13190861D01*
X4351587Y-13209909D01*
X4342063Y-13219433D01*
X4323015Y-13228956D01*
X4303968Y-13228956D01*
X4284920Y-13219433D01*
X4275396Y-13209909D01*
X4265872Y-13190861D01*
X4256349Y-13152766D01*
X4256349Y-13105147D01*
X4265872Y-13067052D01*
X4275396Y-13048004D01*
X4284920Y-13038480D01*
X4303968Y-13028956D01*
X4456349Y-13228956D02*
X4456349Y-13095623D01*
X4456349Y-13114671D02*
X4465872Y-13105147D01*
X4484920Y-13095623D01*
X4513491Y-13095623D01*
X4532539Y-13105147D01*
X4542063Y-13124194D01*
X4542063Y-13228956D01*
X4542063Y-13124194D02*
X4551587Y-13105147D01*
X4570634Y-13095623D01*
X4599206Y-13095623D01*
X4618253Y-13105147D01*
X4627777Y-13124194D01*
X4627777Y-13228956D01*
X4723015Y-13228956D02*
X4723015Y-13095623D01*
X4723015Y-13114671D02*
X4732539Y-13105147D01*
X4751587Y-13095623D01*
X4780158Y-13095623D01*
X4799206Y-13105147D01*
X4808729Y-13124194D01*
X4808729Y-13228956D01*
X4808729Y-13124194D02*
X4818253Y-13105147D01*
X4837301Y-13095623D01*
X4865872Y-13095623D01*
X4884920Y-13105147D01*
X4894444Y-13124194D01*
X4894444Y-13228956D01*
X5284920Y-13019433D02*
X5113491Y-13276575D01*
X5542063Y-13028956D02*
X5561110Y-13028956D01*
X5580158Y-13038480D01*
X5589682Y-13048004D01*
X5599206Y-13067052D01*
X5608729Y-13105147D01*
X5608729Y-13152766D01*
X5599206Y-13190861D01*
X5589682Y-13209909D01*
X5580158Y-13219433D01*
X5561110Y-13228956D01*
X5542063Y-13228956D01*
X5523015Y-13219433D01*
X5513491Y-13209909D01*
X5503968Y-13190861D01*
X5494444Y-13152766D01*
X5494444Y-13105147D01*
X5503968Y-13067052D01*
X5513491Y-13048004D01*
X5523015Y-13038480D01*
X5542063Y-13028956D01*
X5694444Y-13209909D02*
X5703967Y-13219433D01*
X5694444Y-13228956D01*
X5684920Y-13219433D01*
X5694444Y-13209909D01*
X5694444Y-13228956D01*
X5827777Y-13028956D02*
X5846825Y-13028956D01*
X5865872Y-13038480D01*
X5875396Y-13048004D01*
X5884920Y-13067052D01*
X5894444Y-13105147D01*
X5894444Y-13152766D01*
X5884920Y-13190861D01*
X5875396Y-13209909D01*
X5865872Y-13219433D01*
X5846825Y-13228956D01*
X5827777Y-13228956D01*
X5808729Y-13219433D01*
X5799206Y-13209909D01*
X5789682Y-13190861D01*
X5780158Y-13152766D01*
X5780158Y-13105147D01*
X5789682Y-13067052D01*
X5799206Y-13048004D01*
X5808729Y-13038480D01*
X5827777Y-13028956D01*
X5970634Y-13048004D02*
X5980158Y-13038480D01*
X5999206Y-13028956D01*
X6046825Y-13028956D01*
X6065872Y-13038480D01*
X6075396Y-13048004D01*
X6084920Y-13067052D01*
X6084920Y-13086099D01*
X6075396Y-13114671D01*
X5961110Y-13228956D01*
X6084920Y-13228956D01*
X6151586Y-13028956D02*
X6275396Y-13028956D01*
X6208729Y-13105147D01*
X6237301Y-13105147D01*
X6256348Y-13114671D01*
X6265872Y-13124194D01*
X6275396Y-13143242D01*
X6275396Y-13190861D01*
X6265872Y-13209909D01*
X6256348Y-13219433D01*
X6237301Y-13228956D01*
X6180158Y-13228956D01*
X6161110Y-13219433D01*
X6151586Y-13209909D01*
X6446825Y-13028956D02*
X6408729Y-13028956D01*
X6389682Y-13038480D01*
X6380158Y-13048004D01*
X6361110Y-13076575D01*
X6351586Y-13114671D01*
X6351586Y-13190861D01*
X6361110Y-13209909D01*
X6370634Y-13219433D01*
X6389682Y-13228956D01*
X6427777Y-13228956D01*
X6446825Y-13219433D01*
X6456348Y-13209909D01*
X6465872Y-13190861D01*
X6465872Y-13143242D01*
X6456348Y-13124194D01*
X6446825Y-13114671D01*
X6427777Y-13105147D01*
X6389682Y-13105147D01*
X6370634Y-13114671D01*
X6361110Y-13124194D01*
X6351586Y-13143242D01*
X6542063Y-13028956D02*
X6542063Y-13067052D01*
X6618253Y-13028956D02*
X6618253Y-13067052D01*
X6913491Y-13305147D02*
X6903967Y-13295623D01*
X6884920Y-13267052D01*
X6875396Y-13248004D01*
X6865872Y-13219433D01*
X6856348Y-13171814D01*
X6856348Y-13133718D01*
X6865872Y-13086099D01*
X6875396Y-13057528D01*
X6884920Y-13038480D01*
X6903967Y-13009909D01*
X6913491Y-13000385D01*
X6980158Y-13048004D02*
X6989682Y-13038480D01*
X7008729Y-13028956D01*
X7056348Y-13028956D01*
X7075396Y-13038480D01*
X7084920Y-13048004D01*
X7094444Y-13067052D01*
X7094444Y-13086099D01*
X7084920Y-13114671D01*
X6970634Y-13228956D01*
X7094444Y-13228956D01*
X7265872Y-13095623D02*
X7265872Y-13228956D01*
X7218253Y-13019433D02*
X7170634Y-13162290D01*
X7294444Y-13162290D01*
X7523015Y-13228956D02*
X7523015Y-13028956D01*
X7608729Y-13228956D02*
X7608729Y-13124194D01*
X7599206Y-13105147D01*
X7580158Y-13095623D01*
X7551586Y-13095623D01*
X7532539Y-13105147D01*
X7523015Y-13114671D01*
X7732539Y-13228956D02*
X7713491Y-13219433D01*
X7703967Y-13209909D01*
X7694444Y-13190861D01*
X7694444Y-13133718D01*
X7703967Y-13114671D01*
X7713491Y-13105147D01*
X7732539Y-13095623D01*
X7761110Y-13095623D01*
X7780158Y-13105147D01*
X7789682Y-13114671D01*
X7799206Y-13133718D01*
X7799206Y-13190861D01*
X7789682Y-13209909D01*
X7780158Y-13219433D01*
X7761110Y-13228956D01*
X7732539Y-13228956D01*
X7913491Y-13228956D02*
X7894444Y-13219433D01*
X7884920Y-13200385D01*
X7884920Y-13028956D01*
X8065872Y-13219433D02*
X8046825Y-13228956D01*
X8008729Y-13228956D01*
X7989682Y-13219433D01*
X7980158Y-13200385D01*
X7980158Y-13124194D01*
X7989682Y-13105147D01*
X8008729Y-13095623D01*
X8046825Y-13095623D01*
X8065872Y-13105147D01*
X8075396Y-13124194D01*
X8075396Y-13143242D01*
X7980158Y-13162290D01*
X8151586Y-13219433D02*
X8170634Y-13228956D01*
X8208729Y-13228956D01*
X8227777Y-13219433D01*
X8237301Y-13200385D01*
X8237301Y-13190861D01*
X8227777Y-13171814D01*
X8208729Y-13162290D01*
X8180158Y-13162290D01*
X8161110Y-13152766D01*
X8151586Y-13133718D01*
X8151586Y-13124194D01*
X8161110Y-13105147D01*
X8180158Y-13095623D01*
X8208729Y-13095623D01*
X8227777Y-13105147D01*
X8303967Y-13305147D02*
X8313491Y-13295623D01*
X8332539Y-13267052D01*
X8342063Y-13248004D01*
X8351586Y-13219433D01*
X8361110Y-13171814D01*
X8361110Y-13133718D01*
X8351586Y-13086099D01*
X8342063Y-13057528D01*
X8332539Y-13038480D01*
X8313491Y-13009909D01*
X8303967Y-13000385D01*
D14*
X3303487Y-13364380D02*
X3303487Y-13440580D01*
X3265387Y-13402480D02*
X3341587Y-13402480D01*
D11*
X3637301Y-13292956D02*
X3656348Y-13292956D01*
X3675396Y-13302480D01*
X3684920Y-13312004D01*
X3694444Y-13331052D01*
X3703967Y-13369147D01*
X3703967Y-13416766D01*
X3694444Y-13454861D01*
X3684920Y-13473909D01*
X3675396Y-13483433D01*
X3656348Y-13492956D01*
X3637301Y-13492956D01*
X3618253Y-13483433D01*
X3608729Y-13473909D01*
X3599206Y-13454861D01*
X3589682Y-13416766D01*
X3589682Y-13369147D01*
X3599206Y-13331052D01*
X3608729Y-13312004D01*
X3618253Y-13302480D01*
X3637301Y-13292956D01*
X3789682Y-13473909D02*
X3799206Y-13483433D01*
X3789682Y-13492956D01*
X3780158Y-13483433D01*
X3789682Y-13473909D01*
X3789682Y-13492956D01*
X3865872Y-13292956D02*
X3999206Y-13292956D01*
X3913491Y-13492956D01*
X4161110Y-13292956D02*
X4123015Y-13292956D01*
X4103967Y-13302480D01*
X4094444Y-13312004D01*
X4075396Y-13340575D01*
X4065872Y-13378671D01*
X4065872Y-13454861D01*
X4075396Y-13473909D01*
X4084920Y-13483433D01*
X4103967Y-13492956D01*
X4142063Y-13492956D01*
X4161110Y-13483433D01*
X4170634Y-13473909D01*
X4180158Y-13454861D01*
X4180158Y-13407242D01*
X4170634Y-13388194D01*
X4161110Y-13378671D01*
X4142063Y-13369147D01*
X4103967Y-13369147D01*
X4084920Y-13378671D01*
X4075396Y-13388194D01*
X4065872Y-13407242D01*
X4256349Y-13312004D02*
X4265872Y-13302480D01*
X4284920Y-13292956D01*
X4332539Y-13292956D01*
X4351587Y-13302480D01*
X4361110Y-13312004D01*
X4370634Y-13331052D01*
X4370634Y-13350099D01*
X4361110Y-13378671D01*
X4246825Y-13492956D01*
X4370634Y-13492956D01*
X4456349Y-13492956D02*
X4456349Y-13359623D01*
X4456349Y-13378671D02*
X4465872Y-13369147D01*
X4484920Y-13359623D01*
X4513491Y-13359623D01*
X4532539Y-13369147D01*
X4542063Y-13388194D01*
X4542063Y-13492956D01*
X4542063Y-13388194D02*
X4551587Y-13369147D01*
X4570634Y-13359623D01*
X4599206Y-13359623D01*
X4618253Y-13369147D01*
X4627777Y-13388194D01*
X4627777Y-13492956D01*
X4723015Y-13492956D02*
X4723015Y-13359623D01*
X4723015Y-13378671D02*
X4732539Y-13369147D01*
X4751587Y-13359623D01*
X4780158Y-13359623D01*
X4799206Y-13369147D01*
X4808729Y-13388194D01*
X4808729Y-13492956D01*
X4808729Y-13388194D02*
X4818253Y-13369147D01*
X4837301Y-13359623D01*
X4865872Y-13359623D01*
X4884920Y-13369147D01*
X4894444Y-13388194D01*
X4894444Y-13492956D01*
X5284920Y-13283433D02*
X5113491Y-13540575D01*
X5542063Y-13292956D02*
X5561110Y-13292956D01*
X5580158Y-13302480D01*
X5589682Y-13312004D01*
X5599206Y-13331052D01*
X5608729Y-13369147D01*
X5608729Y-13416766D01*
X5599206Y-13454861D01*
X5589682Y-13473909D01*
X5580158Y-13483433D01*
X5561110Y-13492956D01*
X5542063Y-13492956D01*
X5523015Y-13483433D01*
X5513491Y-13473909D01*
X5503968Y-13454861D01*
X5494444Y-13416766D01*
X5494444Y-13369147D01*
X5503968Y-13331052D01*
X5513491Y-13312004D01*
X5523015Y-13302480D01*
X5542063Y-13292956D01*
X5694444Y-13473909D02*
X5703967Y-13483433D01*
X5694444Y-13492956D01*
X5684920Y-13483433D01*
X5694444Y-13473909D01*
X5694444Y-13492956D01*
X5827777Y-13292956D02*
X5846825Y-13292956D01*
X5865872Y-13302480D01*
X5875396Y-13312004D01*
X5884920Y-13331052D01*
X5894444Y-13369147D01*
X5894444Y-13416766D01*
X5884920Y-13454861D01*
X5875396Y-13473909D01*
X5865872Y-13483433D01*
X5846825Y-13492956D01*
X5827777Y-13492956D01*
X5808729Y-13483433D01*
X5799206Y-13473909D01*
X5789682Y-13454861D01*
X5780158Y-13416766D01*
X5780158Y-13369147D01*
X5789682Y-13331052D01*
X5799206Y-13312004D01*
X5808729Y-13302480D01*
X5827777Y-13292956D01*
X5961110Y-13292956D02*
X6084920Y-13292956D01*
X6018253Y-13369147D01*
X6046825Y-13369147D01*
X6065872Y-13378671D01*
X6075396Y-13388194D01*
X6084920Y-13407242D01*
X6084920Y-13454861D01*
X6075396Y-13473909D01*
X6065872Y-13483433D01*
X6046825Y-13492956D01*
X5989682Y-13492956D01*
X5970634Y-13483433D01*
X5961110Y-13473909D01*
X6208729Y-13292956D02*
X6227777Y-13292956D01*
X6246825Y-13302480D01*
X6256348Y-13312004D01*
X6265872Y-13331052D01*
X6275396Y-13369147D01*
X6275396Y-13416766D01*
X6265872Y-13454861D01*
X6256348Y-13473909D01*
X6246825Y-13483433D01*
X6227777Y-13492956D01*
X6208729Y-13492956D01*
X6189682Y-13483433D01*
X6180158Y-13473909D01*
X6170634Y-13454861D01*
X6161110Y-13416766D01*
X6161110Y-13369147D01*
X6170634Y-13331052D01*
X6180158Y-13312004D01*
X6189682Y-13302480D01*
X6208729Y-13292956D01*
X6399206Y-13292956D02*
X6418253Y-13292956D01*
X6437301Y-13302480D01*
X6446825Y-13312004D01*
X6456348Y-13331052D01*
X6465872Y-13369147D01*
X6465872Y-13416766D01*
X6456348Y-13454861D01*
X6446825Y-13473909D01*
X6437301Y-13483433D01*
X6418253Y-13492956D01*
X6399206Y-13492956D01*
X6380158Y-13483433D01*
X6370634Y-13473909D01*
X6361110Y-13454861D01*
X6351586Y-13416766D01*
X6351586Y-13369147D01*
X6361110Y-13331052D01*
X6370634Y-13312004D01*
X6380158Y-13302480D01*
X6399206Y-13292956D01*
X6542063Y-13292956D02*
X6542063Y-13331052D01*
X6618253Y-13292956D02*
X6618253Y-13331052D01*
X6913491Y-13569147D02*
X6903967Y-13559623D01*
X6884920Y-13531052D01*
X6875396Y-13512004D01*
X6865872Y-13483433D01*
X6856348Y-13435814D01*
X6856348Y-13397718D01*
X6865872Y-13350099D01*
X6875396Y-13321528D01*
X6884920Y-13302480D01*
X6903967Y-13273909D01*
X6913491Y-13264385D01*
X6970634Y-13292956D02*
X7094444Y-13292956D01*
X7027777Y-13369147D01*
X7056348Y-13369147D01*
X7075396Y-13378671D01*
X7084920Y-13388194D01*
X7094444Y-13407242D01*
X7094444Y-13454861D01*
X7084920Y-13473909D01*
X7075396Y-13483433D01*
X7056348Y-13492956D01*
X6999206Y-13492956D01*
X6980158Y-13483433D01*
X6970634Y-13473909D01*
X7218253Y-13292956D02*
X7237301Y-13292956D01*
X7256348Y-13302480D01*
X7265872Y-13312004D01*
X7275396Y-13331052D01*
X7284920Y-13369147D01*
X7284920Y-13416766D01*
X7275396Y-13454861D01*
X7265872Y-13473909D01*
X7256348Y-13483433D01*
X7237301Y-13492956D01*
X7218253Y-13492956D01*
X7199206Y-13483433D01*
X7189682Y-13473909D01*
X7180158Y-13454861D01*
X7170634Y-13416766D01*
X7170634Y-13369147D01*
X7180158Y-13331052D01*
X7189682Y-13312004D01*
X7199206Y-13302480D01*
X7218253Y-13292956D01*
X7523015Y-13492956D02*
X7523015Y-13292956D01*
X7608729Y-13492956D02*
X7608729Y-13388194D01*
X7599206Y-13369147D01*
X7580158Y-13359623D01*
X7551586Y-13359623D01*
X7532539Y-13369147D01*
X7523015Y-13378671D01*
X7732539Y-13492956D02*
X7713491Y-13483433D01*
X7703967Y-13473909D01*
X7694444Y-13454861D01*
X7694444Y-13397718D01*
X7703967Y-13378671D01*
X7713491Y-13369147D01*
X7732539Y-13359623D01*
X7761110Y-13359623D01*
X7780158Y-13369147D01*
X7789682Y-13378671D01*
X7799206Y-13397718D01*
X7799206Y-13454861D01*
X7789682Y-13473909D01*
X7780158Y-13483433D01*
X7761110Y-13492956D01*
X7732539Y-13492956D01*
X7913491Y-13492956D02*
X7894444Y-13483433D01*
X7884920Y-13464385D01*
X7884920Y-13292956D01*
X8065872Y-13483433D02*
X8046825Y-13492956D01*
X8008729Y-13492956D01*
X7989682Y-13483433D01*
X7980158Y-13464385D01*
X7980158Y-13388194D01*
X7989682Y-13369147D01*
X8008729Y-13359623D01*
X8046825Y-13359623D01*
X8065872Y-13369147D01*
X8075396Y-13388194D01*
X8075396Y-13407242D01*
X7980158Y-13426290D01*
X8151586Y-13483433D02*
X8170634Y-13492956D01*
X8208729Y-13492956D01*
X8227777Y-13483433D01*
X8237301Y-13464385D01*
X8237301Y-13454861D01*
X8227777Y-13435814D01*
X8208729Y-13426290D01*
X8180158Y-13426290D01*
X8161110Y-13416766D01*
X8151586Y-13397718D01*
X8151586Y-13388194D01*
X8161110Y-13369147D01*
X8180158Y-13359623D01*
X8208729Y-13359623D01*
X8227777Y-13369147D01*
X8303967Y-13569147D02*
X8313491Y-13559623D01*
X8332539Y-13531052D01*
X8342063Y-13512004D01*
X8351586Y-13483433D01*
X8361110Y-13435814D01*
X8361110Y-13397718D01*
X8351586Y-13350099D01*
X8342063Y-13321528D01*
X8332539Y-13302480D01*
X8313491Y-13273909D01*
X8303967Y-13264385D01*
D15*
X3329871Y-13694765D02*
X3329871Y-13638196D01*
X3273302Y-13638196D01*
X3273302Y-13694765D01*
X3329871Y-13694765D01*
D11*
X3637301Y-13556956D02*
X3656348Y-13556956D01*
X3675396Y-13566480D01*
X3684920Y-13576004D01*
X3694444Y-13595052D01*
X3703967Y-13633147D01*
X3703967Y-13680766D01*
X3694444Y-13718861D01*
X3684920Y-13737909D01*
X3675396Y-13747433D01*
X3656348Y-13756956D01*
X3637301Y-13756956D01*
X3618253Y-13747433D01*
X3608729Y-13737909D01*
X3599206Y-13718861D01*
X3589682Y-13680766D01*
X3589682Y-13633147D01*
X3599206Y-13595052D01*
X3608729Y-13576004D01*
X3618253Y-13566480D01*
X3637301Y-13556956D01*
X3789682Y-13737909D02*
X3799206Y-13747433D01*
X3789682Y-13756956D01*
X3780158Y-13747433D01*
X3789682Y-13737909D01*
X3789682Y-13756956D01*
X3913491Y-13642671D02*
X3894444Y-13633147D01*
X3884920Y-13623623D01*
X3875396Y-13604575D01*
X3875396Y-13595052D01*
X3884920Y-13576004D01*
X3894444Y-13566480D01*
X3913491Y-13556956D01*
X3951587Y-13556956D01*
X3970634Y-13566480D01*
X3980158Y-13576004D01*
X3989682Y-13595052D01*
X3989682Y-13604575D01*
X3980158Y-13623623D01*
X3970634Y-13633147D01*
X3951587Y-13642671D01*
X3913491Y-13642671D01*
X3894444Y-13652194D01*
X3884920Y-13661718D01*
X3875396Y-13680766D01*
X3875396Y-13718861D01*
X3884920Y-13737909D01*
X3894444Y-13747433D01*
X3913491Y-13756956D01*
X3951587Y-13756956D01*
X3970634Y-13747433D01*
X3980158Y-13737909D01*
X3989682Y-13718861D01*
X3989682Y-13680766D01*
X3980158Y-13661718D01*
X3970634Y-13652194D01*
X3951587Y-13642671D01*
X4113491Y-13556956D02*
X4132539Y-13556956D01*
X4151587Y-13566480D01*
X4161110Y-13576004D01*
X4170634Y-13595052D01*
X4180158Y-13633147D01*
X4180158Y-13680766D01*
X4170634Y-13718861D01*
X4161110Y-13737909D01*
X4151587Y-13747433D01*
X4132539Y-13756956D01*
X4113491Y-13756956D01*
X4094444Y-13747433D01*
X4084920Y-13737909D01*
X4075396Y-13718861D01*
X4065872Y-13680766D01*
X4065872Y-13633147D01*
X4075396Y-13595052D01*
X4084920Y-13576004D01*
X4094444Y-13566480D01*
X4113491Y-13556956D01*
X4303968Y-13556956D02*
X4323015Y-13556956D01*
X4342063Y-13566480D01*
X4351587Y-13576004D01*
X4361110Y-13595052D01*
X4370634Y-13633147D01*
X4370634Y-13680766D01*
X4361110Y-13718861D01*
X4351587Y-13737909D01*
X4342063Y-13747433D01*
X4323015Y-13756956D01*
X4303968Y-13756956D01*
X4284920Y-13747433D01*
X4275396Y-13737909D01*
X4265872Y-13718861D01*
X4256349Y-13680766D01*
X4256349Y-13633147D01*
X4265872Y-13595052D01*
X4275396Y-13576004D01*
X4284920Y-13566480D01*
X4303968Y-13556956D01*
X4456349Y-13756956D02*
X4456349Y-13623623D01*
X4456349Y-13642671D02*
X4465872Y-13633147D01*
X4484920Y-13623623D01*
X4513491Y-13623623D01*
X4532539Y-13633147D01*
X4542063Y-13652194D01*
X4542063Y-13756956D01*
X4542063Y-13652194D02*
X4551587Y-13633147D01*
X4570634Y-13623623D01*
X4599206Y-13623623D01*
X4618253Y-13633147D01*
X4627777Y-13652194D01*
X4627777Y-13756956D01*
X4723015Y-13756956D02*
X4723015Y-13623623D01*
X4723015Y-13642671D02*
X4732539Y-13633147D01*
X4751587Y-13623623D01*
X4780158Y-13623623D01*
X4799206Y-13633147D01*
X4808729Y-13652194D01*
X4808729Y-13756956D01*
X4808729Y-13652194D02*
X4818253Y-13633147D01*
X4837301Y-13623623D01*
X4865872Y-13623623D01*
X4884920Y-13633147D01*
X4894444Y-13652194D01*
X4894444Y-13756956D01*
X5284920Y-13547433D02*
X5113491Y-13804575D01*
X5542063Y-13556956D02*
X5561110Y-13556956D01*
X5580158Y-13566480D01*
X5589682Y-13576004D01*
X5599206Y-13595052D01*
X5608729Y-13633147D01*
X5608729Y-13680766D01*
X5599206Y-13718861D01*
X5589682Y-13737909D01*
X5580158Y-13747433D01*
X5561110Y-13756956D01*
X5542063Y-13756956D01*
X5523015Y-13747433D01*
X5513491Y-13737909D01*
X5503968Y-13718861D01*
X5494444Y-13680766D01*
X5494444Y-13633147D01*
X5503968Y-13595052D01*
X5513491Y-13576004D01*
X5523015Y-13566480D01*
X5542063Y-13556956D01*
X5694444Y-13737909D02*
X5703967Y-13747433D01*
X5694444Y-13756956D01*
X5684920Y-13747433D01*
X5694444Y-13737909D01*
X5694444Y-13756956D01*
X5827777Y-13556956D02*
X5846825Y-13556956D01*
X5865872Y-13566480D01*
X5875396Y-13576004D01*
X5884920Y-13595052D01*
X5894444Y-13633147D01*
X5894444Y-13680766D01*
X5884920Y-13718861D01*
X5875396Y-13737909D01*
X5865872Y-13747433D01*
X5846825Y-13756956D01*
X5827777Y-13756956D01*
X5808729Y-13747433D01*
X5799206Y-13737909D01*
X5789682Y-13718861D01*
X5780158Y-13680766D01*
X5780158Y-13633147D01*
X5789682Y-13595052D01*
X5799206Y-13576004D01*
X5808729Y-13566480D01*
X5827777Y-13556956D01*
X5961110Y-13556956D02*
X6084920Y-13556956D01*
X6018253Y-13633147D01*
X6046825Y-13633147D01*
X6065872Y-13642671D01*
X6075396Y-13652194D01*
X6084920Y-13671242D01*
X6084920Y-13718861D01*
X6075396Y-13737909D01*
X6065872Y-13747433D01*
X6046825Y-13756956D01*
X5989682Y-13756956D01*
X5970634Y-13747433D01*
X5961110Y-13737909D01*
X6275396Y-13756956D02*
X6161110Y-13756956D01*
X6218253Y-13756956D02*
X6218253Y-13556956D01*
X6199206Y-13585528D01*
X6180158Y-13604575D01*
X6161110Y-13614099D01*
X6456348Y-13556956D02*
X6361110Y-13556956D01*
X6351586Y-13652194D01*
X6361110Y-13642671D01*
X6380158Y-13633147D01*
X6427777Y-13633147D01*
X6446825Y-13642671D01*
X6456348Y-13652194D01*
X6465872Y-13671242D01*
X6465872Y-13718861D01*
X6456348Y-13737909D01*
X6446825Y-13747433D01*
X6427777Y-13756956D01*
X6380158Y-13756956D01*
X6361110Y-13747433D01*
X6351586Y-13737909D01*
X6542063Y-13556956D02*
X6542063Y-13595052D01*
X6618253Y-13556956D02*
X6618253Y-13595052D01*
X6913491Y-13833147D02*
X6903967Y-13823623D01*
X6884920Y-13795052D01*
X6875396Y-13776004D01*
X6865872Y-13747433D01*
X6856348Y-13699814D01*
X6856348Y-13661718D01*
X6865872Y-13614099D01*
X6875396Y-13585528D01*
X6884920Y-13566480D01*
X6903967Y-13537909D01*
X6913491Y-13528385D01*
X7094444Y-13756956D02*
X6980158Y-13756956D01*
X7037301Y-13756956D02*
X7037301Y-13556956D01*
X7018253Y-13585528D01*
X6999206Y-13604575D01*
X6980158Y-13614099D01*
X7161110Y-13556956D02*
X7284920Y-13556956D01*
X7218253Y-13633147D01*
X7246825Y-13633147D01*
X7265872Y-13642671D01*
X7275396Y-13652194D01*
X7284920Y-13671242D01*
X7284920Y-13718861D01*
X7275396Y-13737909D01*
X7265872Y-13747433D01*
X7246825Y-13756956D01*
X7189682Y-13756956D01*
X7170634Y-13747433D01*
X7161110Y-13737909D01*
X7361110Y-13576004D02*
X7370634Y-13566480D01*
X7389682Y-13556956D01*
X7437301Y-13556956D01*
X7456348Y-13566480D01*
X7465872Y-13576004D01*
X7475396Y-13595052D01*
X7475396Y-13614099D01*
X7465872Y-13642671D01*
X7351586Y-13756956D01*
X7475396Y-13756956D01*
X7713491Y-13756956D02*
X7713491Y-13556956D01*
X7799206Y-13756956D02*
X7799206Y-13652194D01*
X7789682Y-13633147D01*
X7770634Y-13623623D01*
X7742063Y-13623623D01*
X7723015Y-13633147D01*
X7713491Y-13642671D01*
X7923015Y-13756956D02*
X7903967Y-13747433D01*
X7894444Y-13737909D01*
X7884920Y-13718861D01*
X7884920Y-13661718D01*
X7894444Y-13642671D01*
X7903967Y-13633147D01*
X7923015Y-13623623D01*
X7951586Y-13623623D01*
X7970634Y-13633147D01*
X7980158Y-13642671D01*
X7989682Y-13661718D01*
X7989682Y-13718861D01*
X7980158Y-13737909D01*
X7970634Y-13747433D01*
X7951586Y-13756956D01*
X7923015Y-13756956D01*
X8103967Y-13756956D02*
X8084920Y-13747433D01*
X8075396Y-13728385D01*
X8075396Y-13556956D01*
X8256348Y-13747433D02*
X8237301Y-13756956D01*
X8199206Y-13756956D01*
X8180158Y-13747433D01*
X8170634Y-13728385D01*
X8170634Y-13652194D01*
X8180158Y-13633147D01*
X8199206Y-13623623D01*
X8237301Y-13623623D01*
X8256348Y-13633147D01*
X8265872Y-13652194D01*
X8265872Y-13671242D01*
X8170634Y-13690290D01*
X8342063Y-13747433D02*
X8361110Y-13756956D01*
X8399206Y-13756956D01*
X8418253Y-13747433D01*
X8427777Y-13728385D01*
X8427777Y-13718861D01*
X8418253Y-13699814D01*
X8399206Y-13690290D01*
X8370634Y-13690290D01*
X8351586Y-13680766D01*
X8342063Y-13661718D01*
X8342063Y-13652194D01*
X8351586Y-13633147D01*
X8370634Y-13623623D01*
X8399206Y-13623623D01*
X8418253Y-13633147D01*
X8494444Y-13833147D02*
X8503968Y-13823623D01*
X8523015Y-13795052D01*
X8532539Y-13776004D01*
X8542063Y-13747433D01*
X8551587Y-13699814D01*
X8551587Y-13661718D01*
X8542063Y-13614099D01*
X8532539Y-13585528D01*
X8523015Y-13566480D01*
X8503968Y-13537909D01*
X8494444Y-13528385D01*
D16*
X3296587Y-13975480D02*
X3341587Y-13930480D01*
X3296587Y-13885480D01*
X3251587Y-13930480D01*
X3296587Y-13975480D01*
D11*
X3637301Y-13820956D02*
X3656348Y-13820956D01*
X3675396Y-13830480D01*
X3684920Y-13840004D01*
X3694444Y-13859052D01*
X3703967Y-13897147D01*
X3703967Y-13944766D01*
X3694444Y-13982861D01*
X3684920Y-14001909D01*
X3675396Y-14011433D01*
X3656348Y-14020956D01*
X3637301Y-14020956D01*
X3618253Y-14011433D01*
X3608729Y-14001909D01*
X3599206Y-13982861D01*
X3589682Y-13944766D01*
X3589682Y-13897147D01*
X3599206Y-13859052D01*
X3608729Y-13840004D01*
X3618253Y-13830480D01*
X3637301Y-13820956D01*
X3789682Y-14001909D02*
X3799206Y-14011433D01*
X3789682Y-14020956D01*
X3780158Y-14011433D01*
X3789682Y-14001909D01*
X3789682Y-14020956D01*
X3894444Y-14020956D02*
X3932539Y-14020956D01*
X3951587Y-14011433D01*
X3961110Y-14001909D01*
X3980158Y-13973337D01*
X3989682Y-13935242D01*
X3989682Y-13859052D01*
X3980158Y-13840004D01*
X3970634Y-13830480D01*
X3951587Y-13820956D01*
X3913491Y-13820956D01*
X3894444Y-13830480D01*
X3884920Y-13840004D01*
X3875396Y-13859052D01*
X3875396Y-13906671D01*
X3884920Y-13925718D01*
X3894444Y-13935242D01*
X3913491Y-13944766D01*
X3951587Y-13944766D01*
X3970634Y-13935242D01*
X3980158Y-13925718D01*
X3989682Y-13906671D01*
X4113491Y-13820956D02*
X4132539Y-13820956D01*
X4151587Y-13830480D01*
X4161110Y-13840004D01*
X4170634Y-13859052D01*
X4180158Y-13897147D01*
X4180158Y-13944766D01*
X4170634Y-13982861D01*
X4161110Y-14001909D01*
X4151587Y-14011433D01*
X4132539Y-14020956D01*
X4113491Y-14020956D01*
X4094444Y-14011433D01*
X4084920Y-14001909D01*
X4075396Y-13982861D01*
X4065872Y-13944766D01*
X4065872Y-13897147D01*
X4075396Y-13859052D01*
X4084920Y-13840004D01*
X4094444Y-13830480D01*
X4113491Y-13820956D01*
X4303968Y-13820956D02*
X4323015Y-13820956D01*
X4342063Y-13830480D01*
X4351587Y-13840004D01*
X4361110Y-13859052D01*
X4370634Y-13897147D01*
X4370634Y-13944766D01*
X4361110Y-13982861D01*
X4351587Y-14001909D01*
X4342063Y-14011433D01*
X4323015Y-14020956D01*
X4303968Y-14020956D01*
X4284920Y-14011433D01*
X4275396Y-14001909D01*
X4265872Y-13982861D01*
X4256349Y-13944766D01*
X4256349Y-13897147D01*
X4265872Y-13859052D01*
X4275396Y-13840004D01*
X4284920Y-13830480D01*
X4303968Y-13820956D01*
X4456349Y-14020956D02*
X4456349Y-13887623D01*
X4456349Y-13906671D02*
X4465872Y-13897147D01*
X4484920Y-13887623D01*
X4513491Y-13887623D01*
X4532539Y-13897147D01*
X4542063Y-13916194D01*
X4542063Y-14020956D01*
X4542063Y-13916194D02*
X4551587Y-13897147D01*
X4570634Y-13887623D01*
X4599206Y-13887623D01*
X4618253Y-13897147D01*
X4627777Y-13916194D01*
X4627777Y-14020956D01*
X4723015Y-14020956D02*
X4723015Y-13887623D01*
X4723015Y-13906671D02*
X4732539Y-13897147D01*
X4751587Y-13887623D01*
X4780158Y-13887623D01*
X4799206Y-13897147D01*
X4808729Y-13916194D01*
X4808729Y-14020956D01*
X4808729Y-13916194D02*
X4818253Y-13897147D01*
X4837301Y-13887623D01*
X4865872Y-13887623D01*
X4884920Y-13897147D01*
X4894444Y-13916194D01*
X4894444Y-14020956D01*
X5284920Y-13811433D02*
X5113491Y-14068575D01*
X5542063Y-13820956D02*
X5561110Y-13820956D01*
X5580158Y-13830480D01*
X5589682Y-13840004D01*
X5599206Y-13859052D01*
X5608729Y-13897147D01*
X5608729Y-13944766D01*
X5599206Y-13982861D01*
X5589682Y-14001909D01*
X5580158Y-14011433D01*
X5561110Y-14020956D01*
X5542063Y-14020956D01*
X5523015Y-14011433D01*
X5513491Y-14001909D01*
X5503968Y-13982861D01*
X5494444Y-13944766D01*
X5494444Y-13897147D01*
X5503968Y-13859052D01*
X5513491Y-13840004D01*
X5523015Y-13830480D01*
X5542063Y-13820956D01*
X5694444Y-14001909D02*
X5703967Y-14011433D01*
X5694444Y-14020956D01*
X5684920Y-14011433D01*
X5694444Y-14001909D01*
X5694444Y-14020956D01*
X5827777Y-13820956D02*
X5846825Y-13820956D01*
X5865872Y-13830480D01*
X5875396Y-13840004D01*
X5884920Y-13859052D01*
X5894444Y-13897147D01*
X5894444Y-13944766D01*
X5884920Y-13982861D01*
X5875396Y-14001909D01*
X5865872Y-14011433D01*
X5846825Y-14020956D01*
X5827777Y-14020956D01*
X5808729Y-14011433D01*
X5799206Y-14001909D01*
X5789682Y-13982861D01*
X5780158Y-13944766D01*
X5780158Y-13897147D01*
X5789682Y-13859052D01*
X5799206Y-13840004D01*
X5808729Y-13830480D01*
X5827777Y-13820956D01*
X5961110Y-13820956D02*
X6084920Y-13820956D01*
X6018253Y-13897147D01*
X6046825Y-13897147D01*
X6065872Y-13906671D01*
X6075396Y-13916194D01*
X6084920Y-13935242D01*
X6084920Y-13982861D01*
X6075396Y-14001909D01*
X6065872Y-14011433D01*
X6046825Y-14020956D01*
X5989682Y-14020956D01*
X5970634Y-14011433D01*
X5961110Y-14001909D01*
X6265872Y-13820956D02*
X6170634Y-13820956D01*
X6161110Y-13916194D01*
X6170634Y-13906671D01*
X6189682Y-13897147D01*
X6237301Y-13897147D01*
X6256348Y-13906671D01*
X6265872Y-13916194D01*
X6275396Y-13935242D01*
X6275396Y-13982861D01*
X6265872Y-14001909D01*
X6256348Y-14011433D01*
X6237301Y-14020956D01*
X6189682Y-14020956D01*
X6170634Y-14011433D01*
X6161110Y-14001909D01*
X6446825Y-13887623D02*
X6446825Y-14020956D01*
X6399206Y-13811433D02*
X6351586Y-13954290D01*
X6475396Y-13954290D01*
X6542063Y-13820956D02*
X6542063Y-13859052D01*
X6618253Y-13820956D02*
X6618253Y-13859052D01*
X6913491Y-14097147D02*
X6903967Y-14087623D01*
X6884920Y-14059052D01*
X6875396Y-14040004D01*
X6865872Y-14011433D01*
X6856348Y-13963814D01*
X6856348Y-13925718D01*
X6865872Y-13878099D01*
X6875396Y-13849528D01*
X6884920Y-13830480D01*
X6903967Y-13801909D01*
X6913491Y-13792385D01*
X6980158Y-13840004D02*
X6989682Y-13830480D01*
X7008729Y-13820956D01*
X7056348Y-13820956D01*
X7075396Y-13830480D01*
X7084920Y-13840004D01*
X7094444Y-13859052D01*
X7094444Y-13878099D01*
X7084920Y-13906671D01*
X6970634Y-14020956D01*
X7094444Y-14020956D01*
X7170634Y-13840004D02*
X7180158Y-13830480D01*
X7199206Y-13820956D01*
X7246825Y-13820956D01*
X7265872Y-13830480D01*
X7275396Y-13840004D01*
X7284920Y-13859052D01*
X7284920Y-13878099D01*
X7275396Y-13906671D01*
X7161110Y-14020956D01*
X7284920Y-14020956D01*
X7523015Y-14020956D02*
X7523015Y-13820956D01*
X7608729Y-14020956D02*
X7608729Y-13916194D01*
X7599206Y-13897147D01*
X7580158Y-13887623D01*
X7551586Y-13887623D01*
X7532539Y-13897147D01*
X7523015Y-13906671D01*
X7732539Y-14020956D02*
X7713491Y-14011433D01*
X7703967Y-14001909D01*
X7694444Y-13982861D01*
X7694444Y-13925718D01*
X7703967Y-13906671D01*
X7713491Y-13897147D01*
X7732539Y-13887623D01*
X7761110Y-13887623D01*
X7780158Y-13897147D01*
X7789682Y-13906671D01*
X7799206Y-13925718D01*
X7799206Y-13982861D01*
X7789682Y-14001909D01*
X7780158Y-14011433D01*
X7761110Y-14020956D01*
X7732539Y-14020956D01*
X7913491Y-14020956D02*
X7894444Y-14011433D01*
X7884920Y-13992385D01*
X7884920Y-13820956D01*
X8065872Y-14011433D02*
X8046825Y-14020956D01*
X8008729Y-14020956D01*
X7989682Y-14011433D01*
X7980158Y-13992385D01*
X7980158Y-13916194D01*
X7989682Y-13897147D01*
X8008729Y-13887623D01*
X8046825Y-13887623D01*
X8065872Y-13897147D01*
X8075396Y-13916194D01*
X8075396Y-13935242D01*
X7980158Y-13954290D01*
X8151586Y-14011433D02*
X8170634Y-14020956D01*
X8208729Y-14020956D01*
X8227777Y-14011433D01*
X8237301Y-13992385D01*
X8237301Y-13982861D01*
X8227777Y-13963814D01*
X8208729Y-13954290D01*
X8180158Y-13954290D01*
X8161110Y-13944766D01*
X8151586Y-13925718D01*
X8151586Y-13916194D01*
X8161110Y-13897147D01*
X8180158Y-13887623D01*
X8208729Y-13887623D01*
X8227777Y-13897147D01*
X8303967Y-14097147D02*
X8313491Y-14087623D01*
X8332539Y-14059052D01*
X8342063Y-14040004D01*
X8351586Y-14011433D01*
X8361110Y-13963814D01*
X8361110Y-13925718D01*
X8351586Y-13878099D01*
X8342063Y-13849528D01*
X8332539Y-13830480D01*
X8313491Y-13801909D01*
X8303967Y-13792385D01*
D17*
X3241587Y-14144480D02*
X3341587Y-14244480D01*
X3341587Y-14144480D02*
X3241587Y-14244480D01*
X3341587Y-14194480D02*
G75*
G03*
X3341587Y-14194480I-50000J0D01*
G01*
D11*
X3703967Y-14284956D02*
X3589682Y-14284956D01*
X3646825Y-14284956D02*
X3646825Y-14084956D01*
X3627777Y-14113528D01*
X3608729Y-14132575D01*
X3589682Y-14142099D01*
X3789682Y-14265909D02*
X3799206Y-14275433D01*
X3789682Y-14284956D01*
X3780158Y-14275433D01*
X3789682Y-14265909D01*
X3789682Y-14284956D01*
X3923015Y-14084956D02*
X3942063Y-14084956D01*
X3961110Y-14094480D01*
X3970634Y-14104004D01*
X3980158Y-14123052D01*
X3989682Y-14161147D01*
X3989682Y-14208766D01*
X3980158Y-14246861D01*
X3970634Y-14265909D01*
X3961110Y-14275433D01*
X3942063Y-14284956D01*
X3923015Y-14284956D01*
X3903967Y-14275433D01*
X3894444Y-14265909D01*
X3884920Y-14246861D01*
X3875396Y-14208766D01*
X3875396Y-14161147D01*
X3884920Y-14123052D01*
X3894444Y-14104004D01*
X3903967Y-14094480D01*
X3923015Y-14084956D01*
X4113491Y-14084956D02*
X4132539Y-14084956D01*
X4151587Y-14094480D01*
X4161110Y-14104004D01*
X4170634Y-14123052D01*
X4180158Y-14161147D01*
X4180158Y-14208766D01*
X4170634Y-14246861D01*
X4161110Y-14265909D01*
X4151587Y-14275433D01*
X4132539Y-14284956D01*
X4113491Y-14284956D01*
X4094444Y-14275433D01*
X4084920Y-14265909D01*
X4075396Y-14246861D01*
X4065872Y-14208766D01*
X4065872Y-14161147D01*
X4075396Y-14123052D01*
X4084920Y-14104004D01*
X4094444Y-14094480D01*
X4113491Y-14084956D01*
X4303968Y-14084956D02*
X4323015Y-14084956D01*
X4342063Y-14094480D01*
X4351587Y-14104004D01*
X4361110Y-14123052D01*
X4370634Y-14161147D01*
X4370634Y-14208766D01*
X4361110Y-14246861D01*
X4351587Y-14265909D01*
X4342063Y-14275433D01*
X4323015Y-14284956D01*
X4303968Y-14284956D01*
X4284920Y-14275433D01*
X4275396Y-14265909D01*
X4265872Y-14246861D01*
X4256349Y-14208766D01*
X4256349Y-14161147D01*
X4265872Y-14123052D01*
X4275396Y-14104004D01*
X4284920Y-14094480D01*
X4303968Y-14084956D01*
X4456349Y-14284956D02*
X4456349Y-14151623D01*
X4456349Y-14170671D02*
X4465872Y-14161147D01*
X4484920Y-14151623D01*
X4513491Y-14151623D01*
X4532539Y-14161147D01*
X4542063Y-14180194D01*
X4542063Y-14284956D01*
X4542063Y-14180194D02*
X4551587Y-14161147D01*
X4570634Y-14151623D01*
X4599206Y-14151623D01*
X4618253Y-14161147D01*
X4627777Y-14180194D01*
X4627777Y-14284956D01*
X4723015Y-14284956D02*
X4723015Y-14151623D01*
X4723015Y-14170671D02*
X4732539Y-14161147D01*
X4751587Y-14151623D01*
X4780158Y-14151623D01*
X4799206Y-14161147D01*
X4808729Y-14180194D01*
X4808729Y-14284956D01*
X4808729Y-14180194D02*
X4818253Y-14161147D01*
X4837301Y-14151623D01*
X4865872Y-14151623D01*
X4884920Y-14161147D01*
X4894444Y-14180194D01*
X4894444Y-14284956D01*
X5284920Y-14075433D02*
X5113491Y-14332575D01*
X5542063Y-14084956D02*
X5561110Y-14084956D01*
X5580158Y-14094480D01*
X5589682Y-14104004D01*
X5599206Y-14123052D01*
X5608729Y-14161147D01*
X5608729Y-14208766D01*
X5599206Y-14246861D01*
X5589682Y-14265909D01*
X5580158Y-14275433D01*
X5561110Y-14284956D01*
X5542063Y-14284956D01*
X5523015Y-14275433D01*
X5513491Y-14265909D01*
X5503968Y-14246861D01*
X5494444Y-14208766D01*
X5494444Y-14161147D01*
X5503968Y-14123052D01*
X5513491Y-14104004D01*
X5523015Y-14094480D01*
X5542063Y-14084956D01*
X5694444Y-14265909D02*
X5703967Y-14275433D01*
X5694444Y-14284956D01*
X5684920Y-14275433D01*
X5694444Y-14265909D01*
X5694444Y-14284956D01*
X5827777Y-14084956D02*
X5846825Y-14084956D01*
X5865872Y-14094480D01*
X5875396Y-14104004D01*
X5884920Y-14123052D01*
X5894444Y-14161147D01*
X5894444Y-14208766D01*
X5884920Y-14246861D01*
X5875396Y-14265909D01*
X5865872Y-14275433D01*
X5846825Y-14284956D01*
X5827777Y-14284956D01*
X5808729Y-14275433D01*
X5799206Y-14265909D01*
X5789682Y-14246861D01*
X5780158Y-14208766D01*
X5780158Y-14161147D01*
X5789682Y-14123052D01*
X5799206Y-14104004D01*
X5808729Y-14094480D01*
X5827777Y-14084956D01*
X5961110Y-14084956D02*
X6084920Y-14084956D01*
X6018253Y-14161147D01*
X6046825Y-14161147D01*
X6065872Y-14170671D01*
X6075396Y-14180194D01*
X6084920Y-14199242D01*
X6084920Y-14246861D01*
X6075396Y-14265909D01*
X6065872Y-14275433D01*
X6046825Y-14284956D01*
X5989682Y-14284956D01*
X5970634Y-14275433D01*
X5961110Y-14265909D01*
X6180158Y-14284956D02*
X6218253Y-14284956D01*
X6237301Y-14275433D01*
X6246825Y-14265909D01*
X6265872Y-14237337D01*
X6275396Y-14199242D01*
X6275396Y-14123052D01*
X6265872Y-14104004D01*
X6256348Y-14094480D01*
X6237301Y-14084956D01*
X6199206Y-14084956D01*
X6180158Y-14094480D01*
X6170634Y-14104004D01*
X6161110Y-14123052D01*
X6161110Y-14170671D01*
X6170634Y-14189718D01*
X6180158Y-14199242D01*
X6199206Y-14208766D01*
X6237301Y-14208766D01*
X6256348Y-14199242D01*
X6265872Y-14189718D01*
X6275396Y-14170671D01*
X6446825Y-14151623D02*
X6446825Y-14284956D01*
X6399206Y-14075433D02*
X6351586Y-14218290D01*
X6475396Y-14218290D01*
X6542063Y-14084956D02*
X6542063Y-14123052D01*
X6618253Y-14084956D02*
X6618253Y-14123052D01*
X6913491Y-14361147D02*
X6903967Y-14351623D01*
X6884920Y-14323052D01*
X6875396Y-14304004D01*
X6865872Y-14275433D01*
X6856348Y-14227814D01*
X6856348Y-14189718D01*
X6865872Y-14142099D01*
X6875396Y-14113528D01*
X6884920Y-14094480D01*
X6903967Y-14065909D01*
X6913491Y-14056385D01*
X6970634Y-14084956D02*
X7094444Y-14084956D01*
X7027777Y-14161147D01*
X7056348Y-14161147D01*
X7075396Y-14170671D01*
X7084920Y-14180194D01*
X7094444Y-14199242D01*
X7094444Y-14246861D01*
X7084920Y-14265909D01*
X7075396Y-14275433D01*
X7056348Y-14284956D01*
X6999206Y-14284956D01*
X6980158Y-14275433D01*
X6970634Y-14265909D01*
X7208729Y-14170671D02*
X7189682Y-14161147D01*
X7180158Y-14151623D01*
X7170634Y-14132575D01*
X7170634Y-14123052D01*
X7180158Y-14104004D01*
X7189682Y-14094480D01*
X7208729Y-14084956D01*
X7246825Y-14084956D01*
X7265872Y-14094480D01*
X7275396Y-14104004D01*
X7284920Y-14123052D01*
X7284920Y-14132575D01*
X7275396Y-14151623D01*
X7265872Y-14161147D01*
X7246825Y-14170671D01*
X7208729Y-14170671D01*
X7189682Y-14180194D01*
X7180158Y-14189718D01*
X7170634Y-14208766D01*
X7170634Y-14246861D01*
X7180158Y-14265909D01*
X7189682Y-14275433D01*
X7208729Y-14284956D01*
X7246825Y-14284956D01*
X7265872Y-14275433D01*
X7275396Y-14265909D01*
X7284920Y-14246861D01*
X7284920Y-14208766D01*
X7275396Y-14189718D01*
X7265872Y-14180194D01*
X7246825Y-14170671D01*
X7523015Y-14284956D02*
X7523015Y-14084956D01*
X7608729Y-14284956D02*
X7608729Y-14180194D01*
X7599206Y-14161147D01*
X7580158Y-14151623D01*
X7551586Y-14151623D01*
X7532539Y-14161147D01*
X7523015Y-14170671D01*
X7732539Y-14284956D02*
X7713491Y-14275433D01*
X7703967Y-14265909D01*
X7694444Y-14246861D01*
X7694444Y-14189718D01*
X7703967Y-14170671D01*
X7713491Y-14161147D01*
X7732539Y-14151623D01*
X7761110Y-14151623D01*
X7780158Y-14161147D01*
X7789682Y-14170671D01*
X7799206Y-14189718D01*
X7799206Y-14246861D01*
X7789682Y-14265909D01*
X7780158Y-14275433D01*
X7761110Y-14284956D01*
X7732539Y-14284956D01*
X7913491Y-14284956D02*
X7894444Y-14275433D01*
X7884920Y-14256385D01*
X7884920Y-14084956D01*
X8065872Y-14275433D02*
X8046825Y-14284956D01*
X8008729Y-14284956D01*
X7989682Y-14275433D01*
X7980158Y-14256385D01*
X7980158Y-14180194D01*
X7989682Y-14161147D01*
X8008729Y-14151623D01*
X8046825Y-14151623D01*
X8065872Y-14161147D01*
X8075396Y-14180194D01*
X8075396Y-14199242D01*
X7980158Y-14218290D01*
X8151586Y-14275433D02*
X8170634Y-14284956D01*
X8208729Y-14284956D01*
X8227777Y-14275433D01*
X8237301Y-14256385D01*
X8237301Y-14246861D01*
X8227777Y-14227814D01*
X8208729Y-14218290D01*
X8180158Y-14218290D01*
X8161110Y-14208766D01*
X8151586Y-14189718D01*
X8151586Y-14180194D01*
X8161110Y-14161147D01*
X8180158Y-14151623D01*
X8208729Y-14151623D01*
X8227777Y-14161147D01*
X8303967Y-14361147D02*
X8313491Y-14351623D01*
X8332539Y-14323052D01*
X8342063Y-14304004D01*
X8351586Y-14275433D01*
X8361110Y-14227814D01*
X8361110Y-14189718D01*
X8351586Y-14142099D01*
X8342063Y-14113528D01*
X8332539Y-14094480D01*
X8313491Y-14065909D01*
X8303967Y-14056385D01*
D18*
X3231587Y-14403480D02*
X3341587Y-14513480D01*
X3341587Y-14403480D02*
X3231587Y-14513480D01*
X3286587Y-14403480D02*
X3286587Y-14513480D01*
X3231587Y-14458480D02*
X3341587Y-14458480D01*
D11*
X3703967Y-14548956D02*
X3589682Y-14548956D01*
X3646825Y-14548956D02*
X3646825Y-14348956D01*
X3627777Y-14377528D01*
X3608729Y-14396575D01*
X3589682Y-14406099D01*
X3789682Y-14529909D02*
X3799206Y-14539433D01*
X3789682Y-14548956D01*
X3780158Y-14539433D01*
X3789682Y-14529909D01*
X3789682Y-14548956D01*
X3989682Y-14548956D02*
X3875396Y-14548956D01*
X3932539Y-14548956D02*
X3932539Y-14348956D01*
X3913491Y-14377528D01*
X3894444Y-14396575D01*
X3875396Y-14406099D01*
X4113491Y-14348956D02*
X4132539Y-14348956D01*
X4151587Y-14358480D01*
X4161110Y-14368004D01*
X4170634Y-14387052D01*
X4180158Y-14425147D01*
X4180158Y-14472766D01*
X4170634Y-14510861D01*
X4161110Y-14529909D01*
X4151587Y-14539433D01*
X4132539Y-14548956D01*
X4113491Y-14548956D01*
X4094444Y-14539433D01*
X4084920Y-14529909D01*
X4075396Y-14510861D01*
X4065872Y-14472766D01*
X4065872Y-14425147D01*
X4075396Y-14387052D01*
X4084920Y-14368004D01*
X4094444Y-14358480D01*
X4113491Y-14348956D01*
X4303968Y-14348956D02*
X4323015Y-14348956D01*
X4342063Y-14358480D01*
X4351587Y-14368004D01*
X4361110Y-14387052D01*
X4370634Y-14425147D01*
X4370634Y-14472766D01*
X4361110Y-14510861D01*
X4351587Y-14529909D01*
X4342063Y-14539433D01*
X4323015Y-14548956D01*
X4303968Y-14548956D01*
X4284920Y-14539433D01*
X4275396Y-14529909D01*
X4265872Y-14510861D01*
X4256349Y-14472766D01*
X4256349Y-14425147D01*
X4265872Y-14387052D01*
X4275396Y-14368004D01*
X4284920Y-14358480D01*
X4303968Y-14348956D01*
X4456349Y-14548956D02*
X4456349Y-14415623D01*
X4456349Y-14434671D02*
X4465872Y-14425147D01*
X4484920Y-14415623D01*
X4513491Y-14415623D01*
X4532539Y-14425147D01*
X4542063Y-14444194D01*
X4542063Y-14548956D01*
X4542063Y-14444194D02*
X4551587Y-14425147D01*
X4570634Y-14415623D01*
X4599206Y-14415623D01*
X4618253Y-14425147D01*
X4627777Y-14444194D01*
X4627777Y-14548956D01*
X4723015Y-14548956D02*
X4723015Y-14415623D01*
X4723015Y-14434671D02*
X4732539Y-14425147D01*
X4751587Y-14415623D01*
X4780158Y-14415623D01*
X4799206Y-14425147D01*
X4808729Y-14444194D01*
X4808729Y-14548956D01*
X4808729Y-14444194D02*
X4818253Y-14425147D01*
X4837301Y-14415623D01*
X4865872Y-14415623D01*
X4884920Y-14425147D01*
X4894444Y-14444194D01*
X4894444Y-14548956D01*
X5284920Y-14339433D02*
X5113491Y-14596575D01*
X5542063Y-14348956D02*
X5561110Y-14348956D01*
X5580158Y-14358480D01*
X5589682Y-14368004D01*
X5599206Y-14387052D01*
X5608729Y-14425147D01*
X5608729Y-14472766D01*
X5599206Y-14510861D01*
X5589682Y-14529909D01*
X5580158Y-14539433D01*
X5561110Y-14548956D01*
X5542063Y-14548956D01*
X5523015Y-14539433D01*
X5513491Y-14529909D01*
X5503968Y-14510861D01*
X5494444Y-14472766D01*
X5494444Y-14425147D01*
X5503968Y-14387052D01*
X5513491Y-14368004D01*
X5523015Y-14358480D01*
X5542063Y-14348956D01*
X5694444Y-14529909D02*
X5703967Y-14539433D01*
X5694444Y-14548956D01*
X5684920Y-14539433D01*
X5694444Y-14529909D01*
X5694444Y-14548956D01*
X5827777Y-14348956D02*
X5846825Y-14348956D01*
X5865872Y-14358480D01*
X5875396Y-14368004D01*
X5884920Y-14387052D01*
X5894444Y-14425147D01*
X5894444Y-14472766D01*
X5884920Y-14510861D01*
X5875396Y-14529909D01*
X5865872Y-14539433D01*
X5846825Y-14548956D01*
X5827777Y-14548956D01*
X5808729Y-14539433D01*
X5799206Y-14529909D01*
X5789682Y-14510861D01*
X5780158Y-14472766D01*
X5780158Y-14425147D01*
X5789682Y-14387052D01*
X5799206Y-14368004D01*
X5808729Y-14358480D01*
X5827777Y-14348956D01*
X6065872Y-14415623D02*
X6065872Y-14548956D01*
X6018253Y-14339433D02*
X5970634Y-14482290D01*
X6094444Y-14482290D01*
X6151586Y-14348956D02*
X6275396Y-14348956D01*
X6208729Y-14425147D01*
X6237301Y-14425147D01*
X6256348Y-14434671D01*
X6265872Y-14444194D01*
X6275396Y-14463242D01*
X6275396Y-14510861D01*
X6265872Y-14529909D01*
X6256348Y-14539433D01*
X6237301Y-14548956D01*
X6180158Y-14548956D01*
X6161110Y-14539433D01*
X6151586Y-14529909D01*
X6342063Y-14348956D02*
X6465872Y-14348956D01*
X6399206Y-14425147D01*
X6427777Y-14425147D01*
X6446825Y-14434671D01*
X6456348Y-14444194D01*
X6465872Y-14463242D01*
X6465872Y-14510861D01*
X6456348Y-14529909D01*
X6446825Y-14539433D01*
X6427777Y-14548956D01*
X6370634Y-14548956D01*
X6351586Y-14539433D01*
X6342063Y-14529909D01*
X6542063Y-14348956D02*
X6542063Y-14387052D01*
X6618253Y-14348956D02*
X6618253Y-14387052D01*
X6913491Y-14625147D02*
X6903967Y-14615623D01*
X6884920Y-14587052D01*
X6875396Y-14568004D01*
X6865872Y-14539433D01*
X6856348Y-14491814D01*
X6856348Y-14453718D01*
X6865872Y-14406099D01*
X6875396Y-14377528D01*
X6884920Y-14358480D01*
X6903967Y-14329909D01*
X6913491Y-14320385D01*
X6970634Y-14348956D02*
X7094444Y-14348956D01*
X7027777Y-14425147D01*
X7056348Y-14425147D01*
X7075396Y-14434671D01*
X7084920Y-14444194D01*
X7094444Y-14463242D01*
X7094444Y-14510861D01*
X7084920Y-14529909D01*
X7075396Y-14539433D01*
X7056348Y-14548956D01*
X6999206Y-14548956D01*
X6980158Y-14539433D01*
X6970634Y-14529909D01*
X7161110Y-14348956D02*
X7284920Y-14348956D01*
X7218253Y-14425147D01*
X7246825Y-14425147D01*
X7265872Y-14434671D01*
X7275396Y-14444194D01*
X7284920Y-14463242D01*
X7284920Y-14510861D01*
X7275396Y-14529909D01*
X7265872Y-14539433D01*
X7246825Y-14548956D01*
X7189682Y-14548956D01*
X7170634Y-14539433D01*
X7161110Y-14529909D01*
X7523015Y-14548956D02*
X7523015Y-14348956D01*
X7608729Y-14548956D02*
X7608729Y-14444194D01*
X7599206Y-14425147D01*
X7580158Y-14415623D01*
X7551586Y-14415623D01*
X7532539Y-14425147D01*
X7523015Y-14434671D01*
X7732539Y-14548956D02*
X7713491Y-14539433D01*
X7703967Y-14529909D01*
X7694444Y-14510861D01*
X7694444Y-14453718D01*
X7703967Y-14434671D01*
X7713491Y-14425147D01*
X7732539Y-14415623D01*
X7761110Y-14415623D01*
X7780158Y-14425147D01*
X7789682Y-14434671D01*
X7799206Y-14453718D01*
X7799206Y-14510861D01*
X7789682Y-14529909D01*
X7780158Y-14539433D01*
X7761110Y-14548956D01*
X7732539Y-14548956D01*
X7913491Y-14548956D02*
X7894444Y-14539433D01*
X7884920Y-14520385D01*
X7884920Y-14348956D01*
X8065872Y-14539433D02*
X8046825Y-14548956D01*
X8008729Y-14548956D01*
X7989682Y-14539433D01*
X7980158Y-14520385D01*
X7980158Y-14444194D01*
X7989682Y-14425147D01*
X8008729Y-14415623D01*
X8046825Y-14415623D01*
X8065872Y-14425147D01*
X8075396Y-14444194D01*
X8075396Y-14463242D01*
X7980158Y-14482290D01*
X8151586Y-14539433D02*
X8170634Y-14548956D01*
X8208729Y-14548956D01*
X8227777Y-14539433D01*
X8237301Y-14520385D01*
X8237301Y-14510861D01*
X8227777Y-14491814D01*
X8208729Y-14482290D01*
X8180158Y-14482290D01*
X8161110Y-14472766D01*
X8151586Y-14453718D01*
X8151586Y-14444194D01*
X8161110Y-14425147D01*
X8180158Y-14415623D01*
X8208729Y-14415623D01*
X8227777Y-14425147D01*
X8303967Y-14625147D02*
X8313491Y-14615623D01*
X8332539Y-14587052D01*
X8342063Y-14568004D01*
X8351586Y-14539433D01*
X8361110Y-14491814D01*
X8361110Y-14453718D01*
X8351586Y-14406099D01*
X8342063Y-14377528D01*
X8332539Y-14358480D01*
X8313491Y-14329909D01*
X8303967Y-14320385D01*
D19*
X3221587Y-14662480D02*
X3341587Y-14782480D01*
X3341587Y-14662480D02*
X3221587Y-14782480D01*
X3324013Y-14764907D02*
X3324013Y-14680053D01*
X3239160Y-14680053D01*
X3239160Y-14764907D01*
X3324013Y-14764907D01*
D11*
X3703967Y-14812956D02*
X3589682Y-14812956D01*
X3646825Y-14812956D02*
X3646825Y-14612956D01*
X3627777Y-14641528D01*
X3608729Y-14660575D01*
X3589682Y-14670099D01*
X3789682Y-14793909D02*
X3799206Y-14803433D01*
X3789682Y-14812956D01*
X3780158Y-14803433D01*
X3789682Y-14793909D01*
X3789682Y-14812956D01*
X3875396Y-14632004D02*
X3884920Y-14622480D01*
X3903967Y-14612956D01*
X3951587Y-14612956D01*
X3970634Y-14622480D01*
X3980158Y-14632004D01*
X3989682Y-14651052D01*
X3989682Y-14670099D01*
X3980158Y-14698671D01*
X3865872Y-14812956D01*
X3989682Y-14812956D01*
X4113491Y-14612956D02*
X4132539Y-14612956D01*
X4151587Y-14622480D01*
X4161110Y-14632004D01*
X4170634Y-14651052D01*
X4180158Y-14689147D01*
X4180158Y-14736766D01*
X4170634Y-14774861D01*
X4161110Y-14793909D01*
X4151587Y-14803433D01*
X4132539Y-14812956D01*
X4113491Y-14812956D01*
X4094444Y-14803433D01*
X4084920Y-14793909D01*
X4075396Y-14774861D01*
X4065872Y-14736766D01*
X4065872Y-14689147D01*
X4075396Y-14651052D01*
X4084920Y-14632004D01*
X4094444Y-14622480D01*
X4113491Y-14612956D01*
X4303968Y-14612956D02*
X4323015Y-14612956D01*
X4342063Y-14622480D01*
X4351587Y-14632004D01*
X4361110Y-14651052D01*
X4370634Y-14689147D01*
X4370634Y-14736766D01*
X4361110Y-14774861D01*
X4351587Y-14793909D01*
X4342063Y-14803433D01*
X4323015Y-14812956D01*
X4303968Y-14812956D01*
X4284920Y-14803433D01*
X4275396Y-14793909D01*
X4265872Y-14774861D01*
X4256349Y-14736766D01*
X4256349Y-14689147D01*
X4265872Y-14651052D01*
X4275396Y-14632004D01*
X4284920Y-14622480D01*
X4303968Y-14612956D01*
X4456349Y-14812956D02*
X4456349Y-14679623D01*
X4456349Y-14698671D02*
X4465872Y-14689147D01*
X4484920Y-14679623D01*
X4513491Y-14679623D01*
X4532539Y-14689147D01*
X4542063Y-14708194D01*
X4542063Y-14812956D01*
X4542063Y-14708194D02*
X4551587Y-14689147D01*
X4570634Y-14679623D01*
X4599206Y-14679623D01*
X4618253Y-14689147D01*
X4627777Y-14708194D01*
X4627777Y-14812956D01*
X4723015Y-14812956D02*
X4723015Y-14679623D01*
X4723015Y-14698671D02*
X4732539Y-14689147D01*
X4751587Y-14679623D01*
X4780158Y-14679623D01*
X4799206Y-14689147D01*
X4808729Y-14708194D01*
X4808729Y-14812956D01*
X4808729Y-14708194D02*
X4818253Y-14689147D01*
X4837301Y-14679623D01*
X4865872Y-14679623D01*
X4884920Y-14689147D01*
X4894444Y-14708194D01*
X4894444Y-14812956D01*
X5284920Y-14603433D02*
X5113491Y-14860575D01*
X5542063Y-14612956D02*
X5561110Y-14612956D01*
X5580158Y-14622480D01*
X5589682Y-14632004D01*
X5599206Y-14651052D01*
X5608729Y-14689147D01*
X5608729Y-14736766D01*
X5599206Y-14774861D01*
X5589682Y-14793909D01*
X5580158Y-14803433D01*
X5561110Y-14812956D01*
X5542063Y-14812956D01*
X5523015Y-14803433D01*
X5513491Y-14793909D01*
X5503968Y-14774861D01*
X5494444Y-14736766D01*
X5494444Y-14689147D01*
X5503968Y-14651052D01*
X5513491Y-14632004D01*
X5523015Y-14622480D01*
X5542063Y-14612956D01*
X5694444Y-14793909D02*
X5703967Y-14803433D01*
X5694444Y-14812956D01*
X5684920Y-14803433D01*
X5694444Y-14793909D01*
X5694444Y-14812956D01*
X5827777Y-14612956D02*
X5846825Y-14612956D01*
X5865872Y-14622480D01*
X5875396Y-14632004D01*
X5884920Y-14651052D01*
X5894444Y-14689147D01*
X5894444Y-14736766D01*
X5884920Y-14774861D01*
X5875396Y-14793909D01*
X5865872Y-14803433D01*
X5846825Y-14812956D01*
X5827777Y-14812956D01*
X5808729Y-14803433D01*
X5799206Y-14793909D01*
X5789682Y-14774861D01*
X5780158Y-14736766D01*
X5780158Y-14689147D01*
X5789682Y-14651052D01*
X5799206Y-14632004D01*
X5808729Y-14622480D01*
X5827777Y-14612956D01*
X6065872Y-14679623D02*
X6065872Y-14812956D01*
X6018253Y-14603433D02*
X5970634Y-14746290D01*
X6094444Y-14746290D01*
X6151586Y-14612956D02*
X6284920Y-14612956D01*
X6199206Y-14812956D01*
X6351586Y-14632004D02*
X6361110Y-14622480D01*
X6380158Y-14612956D01*
X6427777Y-14612956D01*
X6446825Y-14622480D01*
X6456348Y-14632004D01*
X6465872Y-14651052D01*
X6465872Y-14670099D01*
X6456348Y-14698671D01*
X6342063Y-14812956D01*
X6465872Y-14812956D01*
X6542063Y-14612956D02*
X6542063Y-14651052D01*
X6618253Y-14612956D02*
X6618253Y-14651052D01*
X6913491Y-14889147D02*
X6903967Y-14879623D01*
X6884920Y-14851052D01*
X6875396Y-14832004D01*
X6865872Y-14803433D01*
X6856348Y-14755814D01*
X6856348Y-14717718D01*
X6865872Y-14670099D01*
X6875396Y-14641528D01*
X6884920Y-14622480D01*
X6903967Y-14593909D01*
X6913491Y-14584385D01*
X6980158Y-14632004D02*
X6989682Y-14622480D01*
X7008729Y-14612956D01*
X7056348Y-14612956D01*
X7075396Y-14622480D01*
X7084920Y-14632004D01*
X7094444Y-14651052D01*
X7094444Y-14670099D01*
X7084920Y-14698671D01*
X6970634Y-14812956D01*
X7094444Y-14812956D01*
X7170634Y-14632004D02*
X7180158Y-14622480D01*
X7199206Y-14612956D01*
X7246825Y-14612956D01*
X7265872Y-14622480D01*
X7275396Y-14632004D01*
X7284920Y-14651052D01*
X7284920Y-14670099D01*
X7275396Y-14698671D01*
X7161110Y-14812956D01*
X7284920Y-14812956D01*
X7523015Y-14812956D02*
X7523015Y-14612956D01*
X7608729Y-14812956D02*
X7608729Y-14708194D01*
X7599206Y-14689147D01*
X7580158Y-14679623D01*
X7551586Y-14679623D01*
X7532539Y-14689147D01*
X7523015Y-14698671D01*
X7732539Y-14812956D02*
X7713491Y-14803433D01*
X7703967Y-14793909D01*
X7694444Y-14774861D01*
X7694444Y-14717718D01*
X7703967Y-14698671D01*
X7713491Y-14689147D01*
X7732539Y-14679623D01*
X7761110Y-14679623D01*
X7780158Y-14689147D01*
X7789682Y-14698671D01*
X7799206Y-14717718D01*
X7799206Y-14774861D01*
X7789682Y-14793909D01*
X7780158Y-14803433D01*
X7761110Y-14812956D01*
X7732539Y-14812956D01*
X7913491Y-14812956D02*
X7894444Y-14803433D01*
X7884920Y-14784385D01*
X7884920Y-14612956D01*
X8065872Y-14803433D02*
X8046825Y-14812956D01*
X8008729Y-14812956D01*
X7989682Y-14803433D01*
X7980158Y-14784385D01*
X7980158Y-14708194D01*
X7989682Y-14689147D01*
X8008729Y-14679623D01*
X8046825Y-14679623D01*
X8065872Y-14689147D01*
X8075396Y-14708194D01*
X8075396Y-14727242D01*
X7980158Y-14746290D01*
X8151586Y-14803433D02*
X8170634Y-14812956D01*
X8208729Y-14812956D01*
X8227777Y-14803433D01*
X8237301Y-14784385D01*
X8237301Y-14774861D01*
X8227777Y-14755814D01*
X8208729Y-14746290D01*
X8180158Y-14746290D01*
X8161110Y-14736766D01*
X8151586Y-14717718D01*
X8151586Y-14708194D01*
X8161110Y-14689147D01*
X8180158Y-14679623D01*
X8208729Y-14679623D01*
X8227777Y-14689147D01*
X8303967Y-14889147D02*
X8313491Y-14879623D01*
X8332539Y-14851052D01*
X8342063Y-14832004D01*
X8351586Y-14803433D01*
X8361110Y-14755814D01*
X8361110Y-14717718D01*
X8351586Y-14670099D01*
X8342063Y-14641528D01*
X8332539Y-14622480D01*
X8313491Y-14593909D01*
X8303967Y-14584385D01*
D20*
X3211587Y-14921480D02*
X3341587Y-15051480D01*
X3341587Y-14921480D02*
X3211587Y-15051480D01*
X3276587Y-15051480D02*
X3341587Y-14986480D01*
X3276587Y-14921480D01*
X3211587Y-14986480D01*
X3276587Y-15051480D01*
D11*
X3703967Y-15076956D02*
X3589682Y-15076956D01*
X3646825Y-15076956D02*
X3646825Y-14876956D01*
X3627777Y-14905528D01*
X3608729Y-14924575D01*
X3589682Y-14934099D01*
X3789682Y-15057909D02*
X3799206Y-15067433D01*
X3789682Y-15076956D01*
X3780158Y-15067433D01*
X3789682Y-15057909D01*
X3789682Y-15076956D01*
X3865872Y-14876956D02*
X3989682Y-14876956D01*
X3923015Y-14953147D01*
X3951587Y-14953147D01*
X3970634Y-14962671D01*
X3980158Y-14972194D01*
X3989682Y-14991242D01*
X3989682Y-15038861D01*
X3980158Y-15057909D01*
X3970634Y-15067433D01*
X3951587Y-15076956D01*
X3894444Y-15076956D01*
X3875396Y-15067433D01*
X3865872Y-15057909D01*
X4113491Y-14876956D02*
X4132539Y-14876956D01*
X4151587Y-14886480D01*
X4161110Y-14896004D01*
X4170634Y-14915052D01*
X4180158Y-14953147D01*
X4180158Y-15000766D01*
X4170634Y-15038861D01*
X4161110Y-15057909D01*
X4151587Y-15067433D01*
X4132539Y-15076956D01*
X4113491Y-15076956D01*
X4094444Y-15067433D01*
X4084920Y-15057909D01*
X4075396Y-15038861D01*
X4065872Y-15000766D01*
X4065872Y-14953147D01*
X4075396Y-14915052D01*
X4084920Y-14896004D01*
X4094444Y-14886480D01*
X4113491Y-14876956D01*
X4303968Y-14876956D02*
X4323015Y-14876956D01*
X4342063Y-14886480D01*
X4351587Y-14896004D01*
X4361110Y-14915052D01*
X4370634Y-14953147D01*
X4370634Y-15000766D01*
X4361110Y-15038861D01*
X4351587Y-15057909D01*
X4342063Y-15067433D01*
X4323015Y-15076956D01*
X4303968Y-15076956D01*
X4284920Y-15067433D01*
X4275396Y-15057909D01*
X4265872Y-15038861D01*
X4256349Y-15000766D01*
X4256349Y-14953147D01*
X4265872Y-14915052D01*
X4275396Y-14896004D01*
X4284920Y-14886480D01*
X4303968Y-14876956D01*
X4456349Y-15076956D02*
X4456349Y-14943623D01*
X4456349Y-14962671D02*
X4465872Y-14953147D01*
X4484920Y-14943623D01*
X4513491Y-14943623D01*
X4532539Y-14953147D01*
X4542063Y-14972194D01*
X4542063Y-15076956D01*
X4542063Y-14972194D02*
X4551587Y-14953147D01*
X4570634Y-14943623D01*
X4599206Y-14943623D01*
X4618253Y-14953147D01*
X4627777Y-14972194D01*
X4627777Y-15076956D01*
X4723015Y-15076956D02*
X4723015Y-14943623D01*
X4723015Y-14962671D02*
X4732539Y-14953147D01*
X4751587Y-14943623D01*
X4780158Y-14943623D01*
X4799206Y-14953147D01*
X4808729Y-14972194D01*
X4808729Y-15076956D01*
X4808729Y-14972194D02*
X4818253Y-14953147D01*
X4837301Y-14943623D01*
X4865872Y-14943623D01*
X4884920Y-14953147D01*
X4894444Y-14972194D01*
X4894444Y-15076956D01*
X5284920Y-14867433D02*
X5113491Y-15124575D01*
X5542063Y-14876956D02*
X5561110Y-14876956D01*
X5580158Y-14886480D01*
X5589682Y-14896004D01*
X5599206Y-14915052D01*
X5608729Y-14953147D01*
X5608729Y-15000766D01*
X5599206Y-15038861D01*
X5589682Y-15057909D01*
X5580158Y-15067433D01*
X5561110Y-15076956D01*
X5542063Y-15076956D01*
X5523015Y-15067433D01*
X5513491Y-15057909D01*
X5503968Y-15038861D01*
X5494444Y-15000766D01*
X5494444Y-14953147D01*
X5503968Y-14915052D01*
X5513491Y-14896004D01*
X5523015Y-14886480D01*
X5542063Y-14876956D01*
X5694444Y-15057909D02*
X5703967Y-15067433D01*
X5694444Y-15076956D01*
X5684920Y-15067433D01*
X5694444Y-15057909D01*
X5694444Y-15076956D01*
X5827777Y-14876956D02*
X5846825Y-14876956D01*
X5865872Y-14886480D01*
X5875396Y-14896004D01*
X5884920Y-14915052D01*
X5894444Y-14953147D01*
X5894444Y-15000766D01*
X5884920Y-15038861D01*
X5875396Y-15057909D01*
X5865872Y-15067433D01*
X5846825Y-15076956D01*
X5827777Y-15076956D01*
X5808729Y-15067433D01*
X5799206Y-15057909D01*
X5789682Y-15038861D01*
X5780158Y-15000766D01*
X5780158Y-14953147D01*
X5789682Y-14915052D01*
X5799206Y-14896004D01*
X5808729Y-14886480D01*
X5827777Y-14876956D01*
X6075396Y-14876956D02*
X5980158Y-14876956D01*
X5970634Y-14972194D01*
X5980158Y-14962671D01*
X5999206Y-14953147D01*
X6046825Y-14953147D01*
X6065872Y-14962671D01*
X6075396Y-14972194D01*
X6084920Y-14991242D01*
X6084920Y-15038861D01*
X6075396Y-15057909D01*
X6065872Y-15067433D01*
X6046825Y-15076956D01*
X5999206Y-15076956D01*
X5980158Y-15067433D01*
X5970634Y-15057909D01*
X6275396Y-15076956D02*
X6161110Y-15076956D01*
X6218253Y-15076956D02*
X6218253Y-14876956D01*
X6199206Y-14905528D01*
X6180158Y-14924575D01*
X6161110Y-14934099D01*
X6351586Y-14896004D02*
X6361110Y-14886480D01*
X6380158Y-14876956D01*
X6427777Y-14876956D01*
X6446825Y-14886480D01*
X6456348Y-14896004D01*
X6465872Y-14915052D01*
X6465872Y-14934099D01*
X6456348Y-14962671D01*
X6342063Y-15076956D01*
X6465872Y-15076956D01*
X6542063Y-14876956D02*
X6542063Y-14915052D01*
X6618253Y-14876956D02*
X6618253Y-14915052D01*
X6913491Y-15153147D02*
X6903967Y-15143623D01*
X6884920Y-15115052D01*
X6875396Y-15096004D01*
X6865872Y-15067433D01*
X6856348Y-15019814D01*
X6856348Y-14981718D01*
X6865872Y-14934099D01*
X6875396Y-14905528D01*
X6884920Y-14886480D01*
X6903967Y-14857909D01*
X6913491Y-14848385D01*
X6970634Y-14876956D02*
X7094444Y-14876956D01*
X7027777Y-14953147D01*
X7056348Y-14953147D01*
X7075396Y-14962671D01*
X7084920Y-14972194D01*
X7094444Y-14991242D01*
X7094444Y-15038861D01*
X7084920Y-15057909D01*
X7075396Y-15067433D01*
X7056348Y-15076956D01*
X6999206Y-15076956D01*
X6980158Y-15067433D01*
X6970634Y-15057909D01*
X7218253Y-14876956D02*
X7237301Y-14876956D01*
X7256348Y-14886480D01*
X7265872Y-14896004D01*
X7275396Y-14915052D01*
X7284920Y-14953147D01*
X7284920Y-15000766D01*
X7275396Y-15038861D01*
X7265872Y-15057909D01*
X7256348Y-15067433D01*
X7237301Y-15076956D01*
X7218253Y-15076956D01*
X7199206Y-15067433D01*
X7189682Y-15057909D01*
X7180158Y-15038861D01*
X7170634Y-15000766D01*
X7170634Y-14953147D01*
X7180158Y-14915052D01*
X7189682Y-14896004D01*
X7199206Y-14886480D01*
X7218253Y-14876956D01*
X7523015Y-15076956D02*
X7523015Y-14876956D01*
X7608729Y-15076956D02*
X7608729Y-14972194D01*
X7599206Y-14953147D01*
X7580158Y-14943623D01*
X7551586Y-14943623D01*
X7532539Y-14953147D01*
X7523015Y-14962671D01*
X7732539Y-15076956D02*
X7713491Y-15067433D01*
X7703967Y-15057909D01*
X7694444Y-15038861D01*
X7694444Y-14981718D01*
X7703967Y-14962671D01*
X7713491Y-14953147D01*
X7732539Y-14943623D01*
X7761110Y-14943623D01*
X7780158Y-14953147D01*
X7789682Y-14962671D01*
X7799206Y-14981718D01*
X7799206Y-15038861D01*
X7789682Y-15057909D01*
X7780158Y-15067433D01*
X7761110Y-15076956D01*
X7732539Y-15076956D01*
X7913491Y-15076956D02*
X7894444Y-15067433D01*
X7884920Y-15048385D01*
X7884920Y-14876956D01*
X8065872Y-15067433D02*
X8046825Y-15076956D01*
X8008729Y-15076956D01*
X7989682Y-15067433D01*
X7980158Y-15048385D01*
X7980158Y-14972194D01*
X7989682Y-14953147D01*
X8008729Y-14943623D01*
X8046825Y-14943623D01*
X8065872Y-14953147D01*
X8075396Y-14972194D01*
X8075396Y-14991242D01*
X7980158Y-15010290D01*
X8151586Y-15067433D02*
X8170634Y-15076956D01*
X8208729Y-15076956D01*
X8227777Y-15067433D01*
X8237301Y-15048385D01*
X8237301Y-15038861D01*
X8227777Y-15019814D01*
X8208729Y-15010290D01*
X8180158Y-15010290D01*
X8161110Y-15000766D01*
X8151586Y-14981718D01*
X8151586Y-14972194D01*
X8161110Y-14953147D01*
X8180158Y-14943623D01*
X8208729Y-14943623D01*
X8227777Y-14953147D01*
X8303967Y-15153147D02*
X8313491Y-15143623D01*
X8332539Y-15115052D01*
X8342063Y-15096004D01*
X8351586Y-15067433D01*
X8361110Y-15019814D01*
X8361110Y-14981718D01*
X8351586Y-14934099D01*
X8342063Y-14905528D01*
X8332539Y-14886480D01*
X8313491Y-14857909D01*
X8303967Y-14848385D01*
D21*
X3265587Y-15174480D02*
X3265587Y-15326480D01*
X3189587Y-15250480D02*
X3341587Y-15250480D01*
X3341587Y-15250480D02*
G75*
G03*
X3341587Y-15250480I-76000J0D01*
G01*
D11*
X3703967Y-15340956D02*
X3589682Y-15340956D01*
X3646825Y-15340956D02*
X3646825Y-15140956D01*
X3627777Y-15169528D01*
X3608729Y-15188575D01*
X3589682Y-15198099D01*
X3789682Y-15321909D02*
X3799206Y-15331433D01*
X3789682Y-15340956D01*
X3780158Y-15331433D01*
X3789682Y-15321909D01*
X3789682Y-15340956D01*
X3980158Y-15140956D02*
X3884920Y-15140956D01*
X3875396Y-15236194D01*
X3884920Y-15226671D01*
X3903967Y-15217147D01*
X3951587Y-15217147D01*
X3970634Y-15226671D01*
X3980158Y-15236194D01*
X3989682Y-15255242D01*
X3989682Y-15302861D01*
X3980158Y-15321909D01*
X3970634Y-15331433D01*
X3951587Y-15340956D01*
X3903967Y-15340956D01*
X3884920Y-15331433D01*
X3875396Y-15321909D01*
X4065872Y-15160004D02*
X4075396Y-15150480D01*
X4094444Y-15140956D01*
X4142063Y-15140956D01*
X4161110Y-15150480D01*
X4170634Y-15160004D01*
X4180158Y-15179052D01*
X4180158Y-15198099D01*
X4170634Y-15226671D01*
X4056348Y-15340956D01*
X4180158Y-15340956D01*
X4303968Y-15140956D02*
X4323015Y-15140956D01*
X4342063Y-15150480D01*
X4351587Y-15160004D01*
X4361110Y-15179052D01*
X4370634Y-15217147D01*
X4370634Y-15264766D01*
X4361110Y-15302861D01*
X4351587Y-15321909D01*
X4342063Y-15331433D01*
X4323015Y-15340956D01*
X4303968Y-15340956D01*
X4284920Y-15331433D01*
X4275396Y-15321909D01*
X4265872Y-15302861D01*
X4256349Y-15264766D01*
X4256349Y-15217147D01*
X4265872Y-15179052D01*
X4275396Y-15160004D01*
X4284920Y-15150480D01*
X4303968Y-15140956D01*
X4456349Y-15340956D02*
X4456349Y-15207623D01*
X4456349Y-15226671D02*
X4465872Y-15217147D01*
X4484920Y-15207623D01*
X4513491Y-15207623D01*
X4532539Y-15217147D01*
X4542063Y-15236194D01*
X4542063Y-15340956D01*
X4542063Y-15236194D02*
X4551587Y-15217147D01*
X4570634Y-15207623D01*
X4599206Y-15207623D01*
X4618253Y-15217147D01*
X4627777Y-15236194D01*
X4627777Y-15340956D01*
X4723015Y-15340956D02*
X4723015Y-15207623D01*
X4723015Y-15226671D02*
X4732539Y-15217147D01*
X4751587Y-15207623D01*
X4780158Y-15207623D01*
X4799206Y-15217147D01*
X4808729Y-15236194D01*
X4808729Y-15340956D01*
X4808729Y-15236194D02*
X4818253Y-15217147D01*
X4837301Y-15207623D01*
X4865872Y-15207623D01*
X4884920Y-15217147D01*
X4894444Y-15236194D01*
X4894444Y-15340956D01*
X5284920Y-15131433D02*
X5113491Y-15388575D01*
X5542063Y-15140956D02*
X5561110Y-15140956D01*
X5580158Y-15150480D01*
X5589682Y-15160004D01*
X5599206Y-15179052D01*
X5608729Y-15217147D01*
X5608729Y-15264766D01*
X5599206Y-15302861D01*
X5589682Y-15321909D01*
X5580158Y-15331433D01*
X5561110Y-15340956D01*
X5542063Y-15340956D01*
X5523015Y-15331433D01*
X5513491Y-15321909D01*
X5503968Y-15302861D01*
X5494444Y-15264766D01*
X5494444Y-15217147D01*
X5503968Y-15179052D01*
X5513491Y-15160004D01*
X5523015Y-15150480D01*
X5542063Y-15140956D01*
X5694444Y-15321909D02*
X5703967Y-15331433D01*
X5694444Y-15340956D01*
X5684920Y-15331433D01*
X5694444Y-15321909D01*
X5694444Y-15340956D01*
X5827777Y-15140956D02*
X5846825Y-15140956D01*
X5865872Y-15150480D01*
X5875396Y-15160004D01*
X5884920Y-15179052D01*
X5894444Y-15217147D01*
X5894444Y-15264766D01*
X5884920Y-15302861D01*
X5875396Y-15321909D01*
X5865872Y-15331433D01*
X5846825Y-15340956D01*
X5827777Y-15340956D01*
X5808729Y-15331433D01*
X5799206Y-15321909D01*
X5789682Y-15302861D01*
X5780158Y-15264766D01*
X5780158Y-15217147D01*
X5789682Y-15179052D01*
X5799206Y-15160004D01*
X5808729Y-15150480D01*
X5827777Y-15140956D01*
X6075396Y-15140956D02*
X5980158Y-15140956D01*
X5970634Y-15236194D01*
X5980158Y-15226671D01*
X5999206Y-15217147D01*
X6046825Y-15217147D01*
X6065872Y-15226671D01*
X6075396Y-15236194D01*
X6084920Y-15255242D01*
X6084920Y-15302861D01*
X6075396Y-15321909D01*
X6065872Y-15331433D01*
X6046825Y-15340956D01*
X5999206Y-15340956D01*
X5980158Y-15331433D01*
X5970634Y-15321909D01*
X6180158Y-15340956D02*
X6218253Y-15340956D01*
X6237301Y-15331433D01*
X6246825Y-15321909D01*
X6265872Y-15293337D01*
X6275396Y-15255242D01*
X6275396Y-15179052D01*
X6265872Y-15160004D01*
X6256348Y-15150480D01*
X6237301Y-15140956D01*
X6199206Y-15140956D01*
X6180158Y-15150480D01*
X6170634Y-15160004D01*
X6161110Y-15179052D01*
X6161110Y-15226671D01*
X6170634Y-15245718D01*
X6180158Y-15255242D01*
X6199206Y-15264766D01*
X6237301Y-15264766D01*
X6256348Y-15255242D01*
X6265872Y-15245718D01*
X6275396Y-15226671D01*
X6389682Y-15226671D02*
X6370634Y-15217147D01*
X6361110Y-15207623D01*
X6351586Y-15188575D01*
X6351586Y-15179052D01*
X6361110Y-15160004D01*
X6370634Y-15150480D01*
X6389682Y-15140956D01*
X6427777Y-15140956D01*
X6446825Y-15150480D01*
X6456348Y-15160004D01*
X6465872Y-15179052D01*
X6465872Y-15188575D01*
X6456348Y-15207623D01*
X6446825Y-15217147D01*
X6427777Y-15226671D01*
X6389682Y-15226671D01*
X6370634Y-15236194D01*
X6361110Y-15245718D01*
X6351586Y-15264766D01*
X6351586Y-15302861D01*
X6361110Y-15321909D01*
X6370634Y-15331433D01*
X6389682Y-15340956D01*
X6427777Y-15340956D01*
X6446825Y-15331433D01*
X6456348Y-15321909D01*
X6465872Y-15302861D01*
X6465872Y-15264766D01*
X6456348Y-15245718D01*
X6446825Y-15236194D01*
X6427777Y-15226671D01*
X6542063Y-15140956D02*
X6542063Y-15179052D01*
X6618253Y-15140956D02*
X6618253Y-15179052D01*
X6913491Y-15417147D02*
X6903967Y-15407623D01*
X6884920Y-15379052D01*
X6875396Y-15360004D01*
X6865872Y-15331433D01*
X6856348Y-15283814D01*
X6856348Y-15245718D01*
X6865872Y-15198099D01*
X6875396Y-15169528D01*
X6884920Y-15150480D01*
X6903967Y-15121909D01*
X6913491Y-15112385D01*
X7084920Y-15140956D02*
X6989682Y-15140956D01*
X6980158Y-15236194D01*
X6989682Y-15226671D01*
X7008729Y-15217147D01*
X7056348Y-15217147D01*
X7075396Y-15226671D01*
X7084920Y-15236194D01*
X7094444Y-15255242D01*
X7094444Y-15302861D01*
X7084920Y-15321909D01*
X7075396Y-15331433D01*
X7056348Y-15340956D01*
X7008729Y-15340956D01*
X6989682Y-15331433D01*
X6980158Y-15321909D01*
X7332539Y-15340956D02*
X7332539Y-15140956D01*
X7418253Y-15340956D02*
X7418253Y-15236194D01*
X7408729Y-15217147D01*
X7389682Y-15207623D01*
X7361110Y-15207623D01*
X7342063Y-15217147D01*
X7332539Y-15226671D01*
X7542063Y-15340956D02*
X7523015Y-15331433D01*
X7513491Y-15321909D01*
X7503967Y-15302861D01*
X7503967Y-15245718D01*
X7513491Y-15226671D01*
X7523015Y-15217147D01*
X7542063Y-15207623D01*
X7570634Y-15207623D01*
X7589682Y-15217147D01*
X7599206Y-15226671D01*
X7608729Y-15245718D01*
X7608729Y-15302861D01*
X7599206Y-15321909D01*
X7589682Y-15331433D01*
X7570634Y-15340956D01*
X7542063Y-15340956D01*
X7723015Y-15340956D02*
X7703967Y-15331433D01*
X7694444Y-15312385D01*
X7694444Y-15140956D01*
X7875396Y-15331433D02*
X7856348Y-15340956D01*
X7818253Y-15340956D01*
X7799206Y-15331433D01*
X7789682Y-15312385D01*
X7789682Y-15236194D01*
X7799206Y-15217147D01*
X7818253Y-15207623D01*
X7856348Y-15207623D01*
X7875396Y-15217147D01*
X7884920Y-15236194D01*
X7884920Y-15255242D01*
X7789682Y-15274290D01*
X7961110Y-15331433D02*
X7980158Y-15340956D01*
X8018253Y-15340956D01*
X8037301Y-15331433D01*
X8046825Y-15312385D01*
X8046825Y-15302861D01*
X8037301Y-15283814D01*
X8018253Y-15274290D01*
X7989682Y-15274290D01*
X7970634Y-15264766D01*
X7961110Y-15245718D01*
X7961110Y-15236194D01*
X7970634Y-15217147D01*
X7989682Y-15207623D01*
X8018253Y-15207623D01*
X8037301Y-15217147D01*
X8113491Y-15417147D02*
X8123015Y-15407623D01*
X8142063Y-15379052D01*
X8151586Y-15360004D01*
X8161110Y-15331433D01*
X8170634Y-15283814D01*
X8170634Y-15245718D01*
X8161110Y-15198099D01*
X8151586Y-15169528D01*
X8142063Y-15150480D01*
X8123015Y-15121909D01*
X8113491Y-15112385D01*
M02*
