%TF.GenerationSoftware,KiCad,Pcbnew,(6.0.4)*%
%TF.CreationDate,2022-05-07T15:09:04+02:00*%
%TF.ProjectId,Central Heating Control PBA,43656e74-7261-46c2-9048-656174696e67,2.0*%
%TF.SameCoordinates,Original*%
%TF.FileFunction,Other,User*%
%FSLAX46Y46*%
G04 Gerber Fmt 4.6, Leading zero omitted, Abs format (unit mm)*
G04 Created by KiCad (PCBNEW (6.0.4)) date 2022-05-07 15:09:04*
%MOMM*%
%LPD*%
G01*
G04 APERTURE LIST*
%ADD10C,0.100000*%
%ADD11C,0.150000*%
%ADD12C,0.300000*%
%ADD13C,0.400000*%
%TA.AperFunction,Profile*%
%ADD14C,0.150000*%
%TD*%
%ADD15C,0.050000*%
G04 APERTURE END LIST*
D10*
D11*
X177002200Y-166007200D02*
X177002200Y-198007200D01*
X285002200Y-198007200D01*
X285002200Y-166007200D01*
X177002200Y-166007200D01*
D10*
D11*
X10000000Y-10000000D02*
X10000000Y-200007200D01*
X287002200Y-200007200D01*
X287002200Y-10000000D01*
X10000000Y-10000000D01*
D10*
D11*
X12000000Y-12000000D02*
X12000000Y-198007200D01*
X285002200Y-198007200D01*
X285002200Y-12000000D01*
X12000000Y-12000000D01*
D10*
D11*
X60000000Y-12000000D02*
X60000000Y-10000000D01*
D10*
D11*
X110000000Y-12000000D02*
X110000000Y-10000000D01*
D10*
D11*
X160000000Y-12000000D02*
X160000000Y-10000000D01*
D10*
D11*
X210000000Y-12000000D02*
X210000000Y-10000000D01*
D10*
D11*
X260000000Y-12000000D02*
X260000000Y-10000000D01*
D10*
D11*
X36065476Y-11588095D02*
X35322619Y-11588095D01*
X35694047Y-11588095D02*
X35694047Y-10288095D01*
X35570238Y-10473809D01*
X35446428Y-10597619D01*
X35322619Y-10659523D01*
D10*
D11*
X85322619Y-10411904D02*
X85384523Y-10350000D01*
X85508333Y-10288095D01*
X85817857Y-10288095D01*
X85941666Y-10350000D01*
X86003571Y-10411904D01*
X86065476Y-10535714D01*
X86065476Y-10659523D01*
X86003571Y-10845238D01*
X85260714Y-11588095D01*
X86065476Y-11588095D01*
D10*
D11*
X135260714Y-10288095D02*
X136065476Y-10288095D01*
X135632142Y-10783333D01*
X135817857Y-10783333D01*
X135941666Y-10845238D01*
X136003571Y-10907142D01*
X136065476Y-11030952D01*
X136065476Y-11340476D01*
X136003571Y-11464285D01*
X135941666Y-11526190D01*
X135817857Y-11588095D01*
X135446428Y-11588095D01*
X135322619Y-11526190D01*
X135260714Y-11464285D01*
D10*
D11*
X185941666Y-10721428D02*
X185941666Y-11588095D01*
X185632142Y-10226190D02*
X185322619Y-11154761D01*
X186127380Y-11154761D01*
D10*
D11*
X236003571Y-10288095D02*
X235384523Y-10288095D01*
X235322619Y-10907142D01*
X235384523Y-10845238D01*
X235508333Y-10783333D01*
X235817857Y-10783333D01*
X235941666Y-10845238D01*
X236003571Y-10907142D01*
X236065476Y-11030952D01*
X236065476Y-11340476D01*
X236003571Y-11464285D01*
X235941666Y-11526190D01*
X235817857Y-11588095D01*
X235508333Y-11588095D01*
X235384523Y-11526190D01*
X235322619Y-11464285D01*
D10*
D11*
X285941666Y-10288095D02*
X285694047Y-10288095D01*
X285570238Y-10350000D01*
X285508333Y-10411904D01*
X285384523Y-10597619D01*
X285322619Y-10845238D01*
X285322619Y-11340476D01*
X285384523Y-11464285D01*
X285446428Y-11526190D01*
X285570238Y-11588095D01*
X285817857Y-11588095D01*
X285941666Y-11526190D01*
X286003571Y-11464285D01*
X286065476Y-11340476D01*
X286065476Y-11030952D01*
X286003571Y-10907142D01*
X285941666Y-10845238D01*
X285817857Y-10783333D01*
X285570238Y-10783333D01*
X285446428Y-10845238D01*
X285384523Y-10907142D01*
X285322619Y-11030952D01*
D10*
D11*
X60000000Y-198007200D02*
X60000000Y-200007200D01*
D10*
D11*
X110000000Y-198007200D02*
X110000000Y-200007200D01*
D10*
D11*
X160000000Y-198007200D02*
X160000000Y-200007200D01*
D10*
D11*
X210000000Y-198007200D02*
X210000000Y-200007200D01*
D10*
D11*
X260000000Y-198007200D02*
X260000000Y-200007200D01*
D10*
D11*
X36065476Y-199595295D02*
X35322619Y-199595295D01*
X35694047Y-199595295D02*
X35694047Y-198295295D01*
X35570238Y-198481009D01*
X35446428Y-198604819D01*
X35322619Y-198666723D01*
D10*
D11*
X85322619Y-198419104D02*
X85384523Y-198357200D01*
X85508333Y-198295295D01*
X85817857Y-198295295D01*
X85941666Y-198357200D01*
X86003571Y-198419104D01*
X86065476Y-198542914D01*
X86065476Y-198666723D01*
X86003571Y-198852438D01*
X85260714Y-199595295D01*
X86065476Y-199595295D01*
D10*
D11*
X135260714Y-198295295D02*
X136065476Y-198295295D01*
X135632142Y-198790533D01*
X135817857Y-198790533D01*
X135941666Y-198852438D01*
X136003571Y-198914342D01*
X136065476Y-199038152D01*
X136065476Y-199347676D01*
X136003571Y-199471485D01*
X135941666Y-199533390D01*
X135817857Y-199595295D01*
X135446428Y-199595295D01*
X135322619Y-199533390D01*
X135260714Y-199471485D01*
D10*
D11*
X185941666Y-198728628D02*
X185941666Y-199595295D01*
X185632142Y-198233390D02*
X185322619Y-199161961D01*
X186127380Y-199161961D01*
D10*
D11*
X236003571Y-198295295D02*
X235384523Y-198295295D01*
X235322619Y-198914342D01*
X235384523Y-198852438D01*
X235508333Y-198790533D01*
X235817857Y-198790533D01*
X235941666Y-198852438D01*
X236003571Y-198914342D01*
X236065476Y-199038152D01*
X236065476Y-199347676D01*
X236003571Y-199471485D01*
X235941666Y-199533390D01*
X235817857Y-199595295D01*
X235508333Y-199595295D01*
X235384523Y-199533390D01*
X235322619Y-199471485D01*
D10*
D11*
X285941666Y-198295295D02*
X285694047Y-198295295D01*
X285570238Y-198357200D01*
X285508333Y-198419104D01*
X285384523Y-198604819D01*
X285322619Y-198852438D01*
X285322619Y-199347676D01*
X285384523Y-199471485D01*
X285446428Y-199533390D01*
X285570238Y-199595295D01*
X285817857Y-199595295D01*
X285941666Y-199533390D01*
X286003571Y-199471485D01*
X286065476Y-199347676D01*
X286065476Y-199038152D01*
X286003571Y-198914342D01*
X285941666Y-198852438D01*
X285817857Y-198790533D01*
X285570238Y-198790533D01*
X285446428Y-198852438D01*
X285384523Y-198914342D01*
X285322619Y-199038152D01*
D10*
D11*
X10000000Y-60000000D02*
X12000000Y-60000000D01*
D10*
D11*
X10000000Y-110000000D02*
X12000000Y-110000000D01*
D10*
D11*
X10000000Y-160000000D02*
X12000000Y-160000000D01*
D10*
D11*
X10690476Y-35216666D02*
X11309523Y-35216666D01*
X10566666Y-35588095D02*
X11000000Y-34288095D01*
X11433333Y-35588095D01*
D10*
D11*
X11092857Y-84907142D02*
X11278571Y-84969047D01*
X11340476Y-85030952D01*
X11402380Y-85154761D01*
X11402380Y-85340476D01*
X11340476Y-85464285D01*
X11278571Y-85526190D01*
X11154761Y-85588095D01*
X10659523Y-85588095D01*
X10659523Y-84288095D01*
X11092857Y-84288095D01*
X11216666Y-84350000D01*
X11278571Y-84411904D01*
X11340476Y-84535714D01*
X11340476Y-84659523D01*
X11278571Y-84783333D01*
X11216666Y-84845238D01*
X11092857Y-84907142D01*
X10659523Y-84907142D01*
D10*
D11*
X11402380Y-135464285D02*
X11340476Y-135526190D01*
X11154761Y-135588095D01*
X11030952Y-135588095D01*
X10845238Y-135526190D01*
X10721428Y-135402380D01*
X10659523Y-135278571D01*
X10597619Y-135030952D01*
X10597619Y-134845238D01*
X10659523Y-134597619D01*
X10721428Y-134473809D01*
X10845238Y-134350000D01*
X11030952Y-134288095D01*
X11154761Y-134288095D01*
X11340476Y-134350000D01*
X11402380Y-134411904D01*
D10*
D11*
X10659523Y-185588095D02*
X10659523Y-184288095D01*
X10969047Y-184288095D01*
X11154761Y-184350000D01*
X11278571Y-184473809D01*
X11340476Y-184597619D01*
X11402380Y-184845238D01*
X11402380Y-185030952D01*
X11340476Y-185278571D01*
X11278571Y-185402380D01*
X11154761Y-185526190D01*
X10969047Y-185588095D01*
X10659523Y-185588095D01*
D10*
D11*
X287002200Y-60000000D02*
X285002200Y-60000000D01*
D10*
D11*
X287002200Y-110000000D02*
X285002200Y-110000000D01*
D10*
D11*
X287002200Y-160000000D02*
X285002200Y-160000000D01*
D10*
D11*
X285692676Y-35216666D02*
X286311723Y-35216666D01*
X285568866Y-35588095D02*
X286002200Y-34288095D01*
X286435533Y-35588095D01*
D10*
D11*
X286095057Y-84907142D02*
X286280771Y-84969047D01*
X286342676Y-85030952D01*
X286404580Y-85154761D01*
X286404580Y-85340476D01*
X286342676Y-85464285D01*
X286280771Y-85526190D01*
X286156961Y-85588095D01*
X285661723Y-85588095D01*
X285661723Y-84288095D01*
X286095057Y-84288095D01*
X286218866Y-84350000D01*
X286280771Y-84411904D01*
X286342676Y-84535714D01*
X286342676Y-84659523D01*
X286280771Y-84783333D01*
X286218866Y-84845238D01*
X286095057Y-84907142D01*
X285661723Y-84907142D01*
D10*
D11*
X286404580Y-135464285D02*
X286342676Y-135526190D01*
X286156961Y-135588095D01*
X286033152Y-135588095D01*
X285847438Y-135526190D01*
X285723628Y-135402380D01*
X285661723Y-135278571D01*
X285599819Y-135030952D01*
X285599819Y-134845238D01*
X285661723Y-134597619D01*
X285723628Y-134473809D01*
X285847438Y-134350000D01*
X286033152Y-134288095D01*
X286156961Y-134288095D01*
X286342676Y-134350000D01*
X286404580Y-134411904D01*
D10*
D11*
X285661723Y-185588095D02*
X285661723Y-184288095D01*
X285971247Y-184288095D01*
X286156961Y-184350000D01*
X286280771Y-184473809D01*
X286342676Y-184597619D01*
X286404580Y-184845238D01*
X286404580Y-185030952D01*
X286342676Y-185278571D01*
X286280771Y-185402380D01*
X286156961Y-185526190D01*
X285971247Y-185588095D01*
X285661723Y-185588095D01*
D10*
D11*
X200434342Y-193785771D02*
X200434342Y-192285771D01*
X200791485Y-192285771D01*
X201005771Y-192357200D01*
X201148628Y-192500057D01*
X201220057Y-192642914D01*
X201291485Y-192928628D01*
X201291485Y-193142914D01*
X201220057Y-193428628D01*
X201148628Y-193571485D01*
X201005771Y-193714342D01*
X200791485Y-193785771D01*
X200434342Y-193785771D01*
X202577200Y-193785771D02*
X202577200Y-193000057D01*
X202505771Y-192857200D01*
X202362914Y-192785771D01*
X202077200Y-192785771D01*
X201934342Y-192857200D01*
X202577200Y-193714342D02*
X202434342Y-193785771D01*
X202077200Y-193785771D01*
X201934342Y-193714342D01*
X201862914Y-193571485D01*
X201862914Y-193428628D01*
X201934342Y-193285771D01*
X202077200Y-193214342D01*
X202434342Y-193214342D01*
X202577200Y-193142914D01*
X203077200Y-192785771D02*
X203648628Y-192785771D01*
X203291485Y-192285771D02*
X203291485Y-193571485D01*
X203362914Y-193714342D01*
X203505771Y-193785771D01*
X203648628Y-193785771D01*
X204720057Y-193714342D02*
X204577200Y-193785771D01*
X204291485Y-193785771D01*
X204148628Y-193714342D01*
X204077200Y-193571485D01*
X204077200Y-193000057D01*
X204148628Y-192857200D01*
X204291485Y-192785771D01*
X204577200Y-192785771D01*
X204720057Y-192857200D01*
X204791485Y-193000057D01*
X204791485Y-193142914D01*
X204077200Y-193285771D01*
X205434342Y-193642914D02*
X205505771Y-193714342D01*
X205434342Y-193785771D01*
X205362914Y-193714342D01*
X205434342Y-193642914D01*
X205434342Y-193785771D01*
X205434342Y-192857200D02*
X205505771Y-192928628D01*
X205434342Y-193000057D01*
X205362914Y-192928628D01*
X205434342Y-192857200D01*
X205434342Y-193000057D01*
X207220057Y-192428628D02*
X207291485Y-192357200D01*
X207434342Y-192285771D01*
X207791485Y-192285771D01*
X207934342Y-192357200D01*
X208005771Y-192428628D01*
X208077200Y-192571485D01*
X208077200Y-192714342D01*
X208005771Y-192928628D01*
X207148628Y-193785771D01*
X208077200Y-193785771D01*
X209005771Y-192285771D02*
X209148628Y-192285771D01*
X209291485Y-192357200D01*
X209362914Y-192428628D01*
X209434342Y-192571485D01*
X209505771Y-192857200D01*
X209505771Y-193214342D01*
X209434342Y-193500057D01*
X209362914Y-193642914D01*
X209291485Y-193714342D01*
X209148628Y-193785771D01*
X209005771Y-193785771D01*
X208862914Y-193714342D01*
X208791485Y-193642914D01*
X208720057Y-193500057D01*
X208648628Y-193214342D01*
X208648628Y-192857200D01*
X208720057Y-192571485D01*
X208791485Y-192428628D01*
X208862914Y-192357200D01*
X209005771Y-192285771D01*
X210077200Y-192428628D02*
X210148628Y-192357200D01*
X210291485Y-192285771D01*
X210648628Y-192285771D01*
X210791485Y-192357200D01*
X210862914Y-192428628D01*
X210934342Y-192571485D01*
X210934342Y-192714342D01*
X210862914Y-192928628D01*
X210005771Y-193785771D01*
X210934342Y-193785771D01*
X211505771Y-192428628D02*
X211577200Y-192357200D01*
X211720057Y-192285771D01*
X212077200Y-192285771D01*
X212220057Y-192357200D01*
X212291485Y-192428628D01*
X212362914Y-192571485D01*
X212362914Y-192714342D01*
X212291485Y-192928628D01*
X211434342Y-193785771D01*
X212362914Y-193785771D01*
X213005771Y-193214342D02*
X214148628Y-193214342D01*
X215148628Y-192285771D02*
X215291485Y-192285771D01*
X215434342Y-192357200D01*
X215505771Y-192428628D01*
X215577200Y-192571485D01*
X215648628Y-192857200D01*
X215648628Y-193214342D01*
X215577200Y-193500057D01*
X215505771Y-193642914D01*
X215434342Y-193714342D01*
X215291485Y-193785771D01*
X215148628Y-193785771D01*
X215005771Y-193714342D01*
X214934342Y-193642914D01*
X214862914Y-193500057D01*
X214791485Y-193214342D01*
X214791485Y-192857200D01*
X214862914Y-192571485D01*
X214934342Y-192428628D01*
X215005771Y-192357200D01*
X215148628Y-192285771D01*
X217005771Y-192285771D02*
X216291485Y-192285771D01*
X216220057Y-193000057D01*
X216291485Y-192928628D01*
X216434342Y-192857200D01*
X216791485Y-192857200D01*
X216934342Y-192928628D01*
X217005771Y-193000057D01*
X217077200Y-193142914D01*
X217077200Y-193500057D01*
X217005771Y-193642914D01*
X216934342Y-193714342D01*
X216791485Y-193785771D01*
X216434342Y-193785771D01*
X216291485Y-193714342D01*
X216220057Y-193642914D01*
X217720057Y-193214342D02*
X218862914Y-193214342D01*
X219862914Y-192285771D02*
X220005771Y-192285771D01*
X220148628Y-192357200D01*
X220220057Y-192428628D01*
X220291485Y-192571485D01*
X220362914Y-192857200D01*
X220362914Y-193214342D01*
X220291485Y-193500057D01*
X220220057Y-193642914D01*
X220148628Y-193714342D01*
X220005771Y-193785771D01*
X219862914Y-193785771D01*
X219720057Y-193714342D01*
X219648628Y-193642914D01*
X219577200Y-193500057D01*
X219505771Y-193214342D01*
X219505771Y-192857200D01*
X219577200Y-192571485D01*
X219648628Y-192428628D01*
X219720057Y-192357200D01*
X219862914Y-192285771D01*
X220862914Y-192285771D02*
X221862914Y-192285771D01*
X221220057Y-193785771D01*
D10*
D11*
X177002200Y-194507200D02*
X285002200Y-194507200D01*
D10*
D11*
X178434342Y-196585771D02*
X178434342Y-195085771D01*
X179291485Y-196585771D02*
X178648628Y-195728628D01*
X179291485Y-195085771D02*
X178434342Y-195942914D01*
X179934342Y-196585771D02*
X179934342Y-195585771D01*
X179934342Y-195085771D02*
X179862914Y-195157200D01*
X179934342Y-195228628D01*
X180005771Y-195157200D01*
X179934342Y-195085771D01*
X179934342Y-195228628D01*
X181505771Y-196442914D02*
X181434342Y-196514342D01*
X181220057Y-196585771D01*
X181077200Y-196585771D01*
X180862914Y-196514342D01*
X180720057Y-196371485D01*
X180648628Y-196228628D01*
X180577200Y-195942914D01*
X180577200Y-195728628D01*
X180648628Y-195442914D01*
X180720057Y-195300057D01*
X180862914Y-195157200D01*
X181077200Y-195085771D01*
X181220057Y-195085771D01*
X181434342Y-195157200D01*
X181505771Y-195228628D01*
X182791485Y-196585771D02*
X182791485Y-195800057D01*
X182720057Y-195657200D01*
X182577200Y-195585771D01*
X182291485Y-195585771D01*
X182148628Y-195657200D01*
X182791485Y-196514342D02*
X182648628Y-196585771D01*
X182291485Y-196585771D01*
X182148628Y-196514342D01*
X182077200Y-196371485D01*
X182077200Y-196228628D01*
X182148628Y-196085771D01*
X182291485Y-196014342D01*
X182648628Y-196014342D01*
X182791485Y-195942914D01*
X184148628Y-196585771D02*
X184148628Y-195085771D01*
X184148628Y-196514342D02*
X184005771Y-196585771D01*
X183720057Y-196585771D01*
X183577200Y-196514342D01*
X183505771Y-196442914D01*
X183434342Y-196300057D01*
X183434342Y-195871485D01*
X183505771Y-195728628D01*
X183577200Y-195657200D01*
X183720057Y-195585771D01*
X184005771Y-195585771D01*
X184148628Y-195657200D01*
X186005771Y-195800057D02*
X186505771Y-195800057D01*
X186720057Y-196585771D02*
X186005771Y-196585771D01*
X186005771Y-195085771D01*
X186720057Y-195085771D01*
X187362914Y-196442914D02*
X187434342Y-196514342D01*
X187362914Y-196585771D01*
X187291485Y-196514342D01*
X187362914Y-196442914D01*
X187362914Y-196585771D01*
X188077200Y-196585771D02*
X188077200Y-195085771D01*
X188434342Y-195085771D01*
X188648628Y-195157200D01*
X188791485Y-195300057D01*
X188862914Y-195442914D01*
X188934342Y-195728628D01*
X188934342Y-195942914D01*
X188862914Y-196228628D01*
X188791485Y-196371485D01*
X188648628Y-196514342D01*
X188434342Y-196585771D01*
X188077200Y-196585771D01*
X189577200Y-196442914D02*
X189648628Y-196514342D01*
X189577200Y-196585771D01*
X189505771Y-196514342D01*
X189577200Y-196442914D01*
X189577200Y-196585771D01*
X190220057Y-196157200D02*
X190934342Y-196157200D01*
X190077200Y-196585771D02*
X190577200Y-195085771D01*
X191077200Y-196585771D01*
X191577200Y-196442914D02*
X191648628Y-196514342D01*
X191577200Y-196585771D01*
X191505771Y-196514342D01*
X191577200Y-196442914D01*
X191577200Y-196585771D01*
X194577200Y-196585771D02*
X194577200Y-195085771D01*
X194720057Y-196014342D02*
X195148628Y-196585771D01*
X195148628Y-195585771D02*
X194577200Y-196157200D01*
X195791485Y-196585771D02*
X195791485Y-195585771D01*
X195791485Y-195085771D02*
X195720057Y-195157200D01*
X195791485Y-195228628D01*
X195862914Y-195157200D01*
X195791485Y-195085771D01*
X195791485Y-195228628D01*
X197148628Y-196514342D02*
X197005771Y-196585771D01*
X196720057Y-196585771D01*
X196577200Y-196514342D01*
X196505771Y-196442914D01*
X196434342Y-196300057D01*
X196434342Y-195871485D01*
X196505771Y-195728628D01*
X196577200Y-195657200D01*
X196720057Y-195585771D01*
X197005771Y-195585771D01*
X197148628Y-195657200D01*
X198434342Y-196585771D02*
X198434342Y-195800057D01*
X198362914Y-195657200D01*
X198220057Y-195585771D01*
X197934342Y-195585771D01*
X197791485Y-195657200D01*
X198434342Y-196514342D02*
X198291485Y-196585771D01*
X197934342Y-196585771D01*
X197791485Y-196514342D01*
X197720057Y-196371485D01*
X197720057Y-196228628D01*
X197791485Y-196085771D01*
X197934342Y-196014342D01*
X198291485Y-196014342D01*
X198434342Y-195942914D01*
X199791485Y-196585771D02*
X199791485Y-195085771D01*
X199791485Y-196514342D02*
X199648628Y-196585771D01*
X199362914Y-196585771D01*
X199220057Y-196514342D01*
X199148628Y-196442914D01*
X199077200Y-196300057D01*
X199077200Y-195871485D01*
X199148628Y-195728628D01*
X199220057Y-195657200D01*
X199362914Y-195585771D01*
X199648628Y-195585771D01*
X199791485Y-195657200D01*
X202077200Y-197157200D02*
X202005771Y-197085771D01*
X201862914Y-196871485D01*
X201791485Y-196728628D01*
X201720057Y-196514342D01*
X201648628Y-196157200D01*
X201648628Y-195871485D01*
X201720057Y-195514342D01*
X201791485Y-195300057D01*
X201862914Y-195157200D01*
X202005771Y-194942914D01*
X202077200Y-194871485D01*
X203291485Y-195085771D02*
X203005771Y-195085771D01*
X202862914Y-195157200D01*
X202791485Y-195228628D01*
X202648628Y-195442914D01*
X202577200Y-195728628D01*
X202577200Y-196300057D01*
X202648628Y-196442914D01*
X202720057Y-196514342D01*
X202862914Y-196585771D01*
X203148628Y-196585771D01*
X203291485Y-196514342D01*
X203362914Y-196442914D01*
X203434342Y-196300057D01*
X203434342Y-195942914D01*
X203362914Y-195800057D01*
X203291485Y-195728628D01*
X203148628Y-195657200D01*
X202862914Y-195657200D01*
X202720057Y-195728628D01*
X202648628Y-195800057D01*
X202577200Y-195942914D01*
X204077200Y-196442914D02*
X204148628Y-196514342D01*
X204077200Y-196585771D01*
X204005771Y-196514342D01*
X204077200Y-196442914D01*
X204077200Y-196585771D01*
X205077200Y-195085771D02*
X205220057Y-195085771D01*
X205362914Y-195157200D01*
X205434342Y-195228628D01*
X205505771Y-195371485D01*
X205577200Y-195657200D01*
X205577200Y-196014342D01*
X205505771Y-196300057D01*
X205434342Y-196442914D01*
X205362914Y-196514342D01*
X205220057Y-196585771D01*
X205077200Y-196585771D01*
X204934342Y-196514342D01*
X204862914Y-196442914D01*
X204791485Y-196300057D01*
X204720057Y-196014342D01*
X204720057Y-195657200D01*
X204791485Y-195371485D01*
X204862914Y-195228628D01*
X204934342Y-195157200D01*
X205077200Y-195085771D01*
X206220057Y-196442914D02*
X206291485Y-196514342D01*
X206220057Y-196585771D01*
X206148628Y-196514342D01*
X206220057Y-196442914D01*
X206220057Y-196585771D01*
X207577200Y-195585771D02*
X207577200Y-196585771D01*
X207220057Y-195014342D02*
X206862914Y-196085771D01*
X207791485Y-196085771D01*
X208220057Y-197157200D02*
X208291485Y-197085771D01*
X208434342Y-196871485D01*
X208505771Y-196728628D01*
X208577200Y-196514342D01*
X208648628Y-196157200D01*
X208648628Y-195871485D01*
X208577200Y-195514342D01*
X208505771Y-195300057D01*
X208434342Y-195157200D01*
X208291485Y-194942914D01*
X208220057Y-194871485D01*
D10*
D11*
X177002200Y-191507200D02*
X285002200Y-191507200D01*
D10*
D12*
X264411485Y-193785771D02*
X263911485Y-193071485D01*
X263554342Y-193785771D02*
X263554342Y-192285771D01*
X264125771Y-192285771D01*
X264268628Y-192357200D01*
X264340057Y-192428628D01*
X264411485Y-192571485D01*
X264411485Y-192785771D01*
X264340057Y-192928628D01*
X264268628Y-193000057D01*
X264125771Y-193071485D01*
X263554342Y-193071485D01*
X265625771Y-193714342D02*
X265482914Y-193785771D01*
X265197200Y-193785771D01*
X265054342Y-193714342D01*
X264982914Y-193571485D01*
X264982914Y-193000057D01*
X265054342Y-192857200D01*
X265197200Y-192785771D01*
X265482914Y-192785771D01*
X265625771Y-192857200D01*
X265697200Y-193000057D01*
X265697200Y-193142914D01*
X264982914Y-193285771D01*
X266197200Y-192785771D02*
X266554342Y-193785771D01*
X266911485Y-192785771D01*
X267482914Y-193642914D02*
X267554342Y-193714342D01*
X267482914Y-193785771D01*
X267411485Y-193714342D01*
X267482914Y-193642914D01*
X267482914Y-193785771D01*
X267482914Y-192857200D02*
X267554342Y-192928628D01*
X267482914Y-193000057D01*
X267411485Y-192928628D01*
X267482914Y-192857200D01*
X267482914Y-193000057D01*
X269268628Y-192428628D02*
X269340057Y-192357200D01*
X269482914Y-192285771D01*
X269840057Y-192285771D01*
X269982914Y-192357200D01*
X270054342Y-192428628D01*
X270125771Y-192571485D01*
X270125771Y-192714342D01*
X270054342Y-192928628D01*
X269197200Y-193785771D01*
X270125771Y-193785771D01*
X270768628Y-193642914D02*
X270840057Y-193714342D01*
X270768628Y-193785771D01*
X270697200Y-193714342D01*
X270768628Y-193642914D01*
X270768628Y-193785771D01*
X271768628Y-192285771D02*
X271911485Y-192285771D01*
X272054342Y-192357200D01*
X272125771Y-192428628D01*
X272197200Y-192571485D01*
X272268628Y-192857200D01*
X272268628Y-193214342D01*
X272197200Y-193500057D01*
X272125771Y-193642914D01*
X272054342Y-193714342D01*
X271911485Y-193785771D01*
X271768628Y-193785771D01*
X271625771Y-193714342D01*
X271554342Y-193642914D01*
X271482914Y-193500057D01*
X271411485Y-193214342D01*
X271411485Y-192857200D01*
X271482914Y-192571485D01*
X271554342Y-192428628D01*
X271625771Y-192357200D01*
X271768628Y-192285771D01*
D10*
D11*
X178362914Y-193714342D02*
X178577200Y-193785771D01*
X178934342Y-193785771D01*
X179077200Y-193714342D01*
X179148628Y-193642914D01*
X179220057Y-193500057D01*
X179220057Y-193357200D01*
X179148628Y-193214342D01*
X179077200Y-193142914D01*
X178934342Y-193071485D01*
X178648628Y-193000057D01*
X178505771Y-192928628D01*
X178434342Y-192857200D01*
X178362914Y-192714342D01*
X178362914Y-192571485D01*
X178434342Y-192428628D01*
X178505771Y-192357200D01*
X178648628Y-192285771D01*
X179005771Y-192285771D01*
X179220057Y-192357200D01*
X179862914Y-193785771D02*
X179862914Y-192785771D01*
X179862914Y-192285771D02*
X179791485Y-192357200D01*
X179862914Y-192428628D01*
X179934342Y-192357200D01*
X179862914Y-192285771D01*
X179862914Y-192428628D01*
X180434342Y-192785771D02*
X181220057Y-192785771D01*
X180434342Y-193785771D01*
X181220057Y-193785771D01*
X182362914Y-193714342D02*
X182220057Y-193785771D01*
X181934342Y-193785771D01*
X181791485Y-193714342D01*
X181720057Y-193571485D01*
X181720057Y-193000057D01*
X181791485Y-192857200D01*
X181934342Y-192785771D01*
X182220057Y-192785771D01*
X182362914Y-192857200D01*
X182434342Y-193000057D01*
X182434342Y-193142914D01*
X181720057Y-193285771D01*
X183077200Y-193642914D02*
X183148628Y-193714342D01*
X183077200Y-193785771D01*
X183005771Y-193714342D01*
X183077200Y-193642914D01*
X183077200Y-193785771D01*
X183077200Y-192857200D02*
X183148628Y-192928628D01*
X183077200Y-193000057D01*
X183005771Y-192928628D01*
X183077200Y-192857200D01*
X183077200Y-193000057D01*
X184862914Y-193357200D02*
X185577200Y-193357200D01*
X184720057Y-193785771D02*
X185220057Y-192285771D01*
X185720057Y-193785771D01*
X186862914Y-192785771D02*
X186862914Y-193785771D01*
X186505771Y-192214342D02*
X186148628Y-193285771D01*
X187077200Y-193285771D01*
D10*
D11*
X263434342Y-196585771D02*
X263434342Y-195085771D01*
X264791485Y-196585771D02*
X264791485Y-195085771D01*
X264791485Y-196514342D02*
X264648628Y-196585771D01*
X264362914Y-196585771D01*
X264220057Y-196514342D01*
X264148628Y-196442914D01*
X264077200Y-196300057D01*
X264077200Y-195871485D01*
X264148628Y-195728628D01*
X264220057Y-195657200D01*
X264362914Y-195585771D01*
X264648628Y-195585771D01*
X264791485Y-195657200D01*
X265505771Y-196442914D02*
X265577200Y-196514342D01*
X265505771Y-196585771D01*
X265434342Y-196514342D01*
X265505771Y-196442914D01*
X265505771Y-196585771D01*
X265505771Y-195657200D02*
X265577200Y-195728628D01*
X265505771Y-195800057D01*
X265434342Y-195728628D01*
X265505771Y-195657200D01*
X265505771Y-195800057D01*
X268148628Y-196585771D02*
X267291485Y-196585771D01*
X267720057Y-196585771D02*
X267720057Y-195085771D01*
X267577200Y-195300057D01*
X267434342Y-195442914D01*
X267291485Y-195514342D01*
X269862914Y-195014342D02*
X268577200Y-196942914D01*
X271148628Y-196585771D02*
X270291485Y-196585771D01*
X270720057Y-196585771D02*
X270720057Y-195085771D01*
X270577200Y-195300057D01*
X270434342Y-195442914D01*
X270291485Y-195514342D01*
D10*
D11*
X177002200Y-187507200D02*
X285002200Y-187507200D01*
D10*
D13*
X178714580Y-188211961D02*
X179857438Y-188211961D01*
X179036009Y-190211961D02*
X179286009Y-188211961D01*
X180274104Y-190211961D02*
X180440771Y-188878628D01*
X180524104Y-188211961D02*
X180416961Y-188307200D01*
X180500295Y-188402438D01*
X180607438Y-188307200D01*
X180524104Y-188211961D01*
X180500295Y-188402438D01*
X181107438Y-188878628D02*
X181869342Y-188878628D01*
X181476485Y-188211961D02*
X181262200Y-189926247D01*
X181333628Y-190116723D01*
X181512200Y-190211961D01*
X181702676Y-190211961D01*
X182655057Y-190211961D02*
X182476485Y-190116723D01*
X182405057Y-189926247D01*
X182619342Y-188211961D01*
X184190771Y-190116723D02*
X183988390Y-190211961D01*
X183607438Y-190211961D01*
X183428866Y-190116723D01*
X183357438Y-189926247D01*
X183452676Y-189164342D01*
X183571723Y-188973866D01*
X183774104Y-188878628D01*
X184155057Y-188878628D01*
X184333628Y-188973866D01*
X184405057Y-189164342D01*
X184381247Y-189354819D01*
X183405057Y-189545295D01*
X185155057Y-190021485D02*
X185238390Y-190116723D01*
X185131247Y-190211961D01*
X185047914Y-190116723D01*
X185155057Y-190021485D01*
X185131247Y-190211961D01*
X185286009Y-188973866D02*
X185369342Y-189069104D01*
X185262200Y-189164342D01*
X185178866Y-189069104D01*
X185286009Y-188973866D01*
X185262200Y-189164342D01*
X187607438Y-190211961D02*
X187857438Y-188211961D01*
X188619342Y-188211961D01*
X188797914Y-188307200D01*
X188881247Y-188402438D01*
X188952676Y-188592914D01*
X188916961Y-188878628D01*
X188797914Y-189069104D01*
X188690771Y-189164342D01*
X188488390Y-189259580D01*
X187726485Y-189259580D01*
X189893152Y-190211961D02*
X189714580Y-190116723D01*
X189643152Y-189926247D01*
X189857438Y-188211961D01*
X190631247Y-188878628D02*
X190940771Y-190211961D01*
X191583628Y-188878628D02*
X190940771Y-190211961D01*
X190690771Y-190688152D01*
X190583628Y-190783390D01*
X190381247Y-190878628D01*
X192059819Y-188878628D02*
X192821723Y-188878628D01*
X192428866Y-188211961D02*
X192214580Y-189926247D01*
X192286009Y-190116723D01*
X192464580Y-190211961D01*
X192655057Y-190211961D01*
X194178866Y-190211961D02*
X194309819Y-189164342D01*
X194238390Y-188973866D01*
X194059819Y-188878628D01*
X193678866Y-188878628D01*
X193476485Y-188973866D01*
X194190771Y-190116723D02*
X193988390Y-190211961D01*
X193512200Y-190211961D01*
X193333628Y-190116723D01*
X193262200Y-189926247D01*
X193286009Y-189735771D01*
X193405057Y-189545295D01*
X193607438Y-189450057D01*
X194083628Y-189450057D01*
X194286009Y-189354819D01*
X196821723Y-188878628D02*
X196571723Y-190878628D01*
X196809819Y-188973866D02*
X197012200Y-188878628D01*
X197393152Y-188878628D01*
X197571723Y-188973866D01*
X197655057Y-189069104D01*
X197726485Y-189259580D01*
X197655057Y-189831009D01*
X197536009Y-190021485D01*
X197428866Y-190116723D01*
X197226485Y-190211961D01*
X196845533Y-190211961D01*
X196666961Y-190116723D01*
X198464580Y-190211961D02*
X198631247Y-188878628D01*
X198583628Y-189259580D02*
X198702676Y-189069104D01*
X198809819Y-188973866D01*
X199012200Y-188878628D01*
X199202676Y-188878628D01*
X199678866Y-188878628D02*
X200726485Y-188878628D01*
X199512200Y-190211961D01*
X200559819Y-190211961D01*
X202095533Y-190116723D02*
X201893152Y-190211961D01*
X201512200Y-190211961D01*
X201333628Y-190116723D01*
X201262200Y-189926247D01*
X201357438Y-189164342D01*
X201476485Y-188973866D01*
X201678866Y-188878628D01*
X202059819Y-188878628D01*
X202238390Y-188973866D01*
X202309819Y-189164342D01*
X202286009Y-189354819D01*
X201309819Y-189545295D01*
X203036009Y-190211961D02*
X203286009Y-188211961D01*
X203321723Y-189450057D02*
X203797914Y-190211961D01*
X203964580Y-188878628D02*
X203107438Y-189640533D01*
X205512200Y-190211961D02*
X205643152Y-189164342D01*
X205571723Y-188973866D01*
X205393152Y-188878628D01*
X205012200Y-188878628D01*
X204809819Y-188973866D01*
X205524104Y-190116723D02*
X205321723Y-190211961D01*
X204845533Y-190211961D01*
X204666961Y-190116723D01*
X204595533Y-189926247D01*
X204619342Y-189735771D01*
X204738390Y-189545295D01*
X204940771Y-189450057D01*
X205416961Y-189450057D01*
X205619342Y-189354819D01*
X206440771Y-188878628D02*
X207488390Y-188878628D01*
X206274104Y-190211961D01*
X207321723Y-190211961D01*
X208250295Y-188878628D02*
X208083628Y-190211961D01*
X208226485Y-189069104D02*
X208333628Y-188973866D01*
X208536009Y-188878628D01*
X208821723Y-188878628D01*
X209000295Y-188973866D01*
X209071723Y-189164342D01*
X208940771Y-190211961D01*
X209893152Y-190211961D02*
X210059819Y-188878628D01*
X210143152Y-188211961D02*
X210036009Y-188307200D01*
X210119342Y-188402438D01*
X210226485Y-188307200D01*
X210143152Y-188211961D01*
X210119342Y-188402438D01*
X210845533Y-190211961D02*
X211095533Y-188211961D01*
X211131247Y-189450057D02*
X211607438Y-190211961D01*
X211774104Y-188878628D02*
X210916961Y-189640533D01*
X212750295Y-190211961D02*
X212571723Y-190116723D01*
X212488390Y-190021485D01*
X212416961Y-189831009D01*
X212488390Y-189259580D01*
X212607438Y-189069104D01*
X212714580Y-188973866D01*
X212916961Y-188878628D01*
X213202676Y-188878628D01*
X213381247Y-188973866D01*
X213464580Y-189069104D01*
X213536009Y-189259580D01*
X213464580Y-189831009D01*
X213345533Y-190021485D01*
X213238390Y-190116723D01*
X213036009Y-190211961D01*
X212750295Y-190211961D01*
X214250295Y-188878628D02*
X214464580Y-190211961D01*
X214964580Y-189259580D01*
X215226485Y-190211961D01*
X215774104Y-188878628D01*
X218059819Y-188878628D02*
X217893152Y-190211961D01*
X218036009Y-189069104D02*
X218143152Y-188973866D01*
X218345533Y-188878628D01*
X218631247Y-188878628D01*
X218809819Y-188973866D01*
X218881247Y-189164342D01*
X218750295Y-190211961D01*
X220559819Y-190211961D02*
X220690771Y-189164342D01*
X220619342Y-188973866D01*
X220440771Y-188878628D01*
X220059819Y-188878628D01*
X219857438Y-188973866D01*
X220571723Y-190116723D02*
X220369342Y-190211961D01*
X219893152Y-190211961D01*
X219714580Y-190116723D01*
X219643152Y-189926247D01*
X219666961Y-189735771D01*
X219786009Y-189545295D01*
X219988390Y-189450057D01*
X220464580Y-189450057D01*
X220666961Y-189354819D01*
X222916961Y-188878628D02*
X223678866Y-188878628D01*
X223286009Y-188211961D02*
X223071723Y-189926247D01*
X223143152Y-190116723D01*
X223321723Y-190211961D01*
X223512200Y-190211961D01*
X224178866Y-190211961D02*
X224345533Y-188878628D01*
X224297914Y-189259580D02*
X224416961Y-189069104D01*
X224524104Y-188973866D01*
X224726485Y-188878628D01*
X224916961Y-188878628D01*
X225416961Y-190211961D02*
X225583628Y-188878628D01*
X225666961Y-188211961D02*
X225559819Y-188307200D01*
X225643152Y-188402438D01*
X225750295Y-188307200D01*
X225666961Y-188211961D01*
X225643152Y-188402438D01*
X227226485Y-190211961D02*
X227357438Y-189164342D01*
X227286009Y-188973866D01*
X227107438Y-188878628D01*
X226726485Y-188878628D01*
X226524104Y-188973866D01*
X227238390Y-190116723D02*
X227036009Y-190211961D01*
X226559819Y-190211961D01*
X226381247Y-190116723D01*
X226309819Y-189926247D01*
X226333628Y-189735771D01*
X226452676Y-189545295D01*
X226655057Y-189450057D01*
X227131247Y-189450057D01*
X227333628Y-189354819D01*
X228178866Y-190211961D02*
X228428866Y-188211961D01*
X228464580Y-189450057D02*
X228940771Y-190211961D01*
X229107438Y-188878628D02*
X228250295Y-189640533D01*
X230655057Y-190211961D02*
X230786009Y-189164342D01*
X230714580Y-188973866D01*
X230536009Y-188878628D01*
X230155057Y-188878628D01*
X229952676Y-188973866D01*
X230666961Y-190116723D02*
X230464580Y-190211961D01*
X229988390Y-190211961D01*
X229809819Y-190116723D01*
X229738390Y-189926247D01*
X229762200Y-189735771D01*
X229881247Y-189545295D01*
X230083628Y-189450057D01*
X230559819Y-189450057D01*
X230762200Y-189354819D01*
X232476485Y-190116723D02*
X232274104Y-190211961D01*
X231893152Y-190211961D01*
X231714580Y-190116723D01*
X231631247Y-190021485D01*
X231559819Y-189831009D01*
X231631247Y-189259580D01*
X231750295Y-189069104D01*
X231857438Y-188973866D01*
X232059819Y-188878628D01*
X232440771Y-188878628D01*
X232619342Y-188973866D01*
X233321723Y-190211961D02*
X233571723Y-188211961D01*
X234178866Y-190211961D02*
X234309819Y-189164342D01*
X234238390Y-188973866D01*
X234059819Y-188878628D01*
X233774104Y-188878628D01*
X233571723Y-188973866D01*
X233464580Y-189069104D01*
D10*
D11*
X178934342Y-185600057D02*
X178434342Y-185600057D01*
X178434342Y-186385771D02*
X178434342Y-184885771D01*
X179148628Y-184885771D01*
X179720057Y-186385771D02*
X179720057Y-185385771D01*
X179720057Y-184885771D02*
X179648628Y-184957200D01*
X179720057Y-185028628D01*
X179791485Y-184957200D01*
X179720057Y-184885771D01*
X179720057Y-185028628D01*
X180648628Y-186385771D02*
X180505771Y-186314342D01*
X180434342Y-186171485D01*
X180434342Y-184885771D01*
X181791485Y-186314342D02*
X181648628Y-186385771D01*
X181362914Y-186385771D01*
X181220057Y-186314342D01*
X181148628Y-186171485D01*
X181148628Y-185600057D01*
X181220057Y-185457200D01*
X181362914Y-185385771D01*
X181648628Y-185385771D01*
X181791485Y-185457200D01*
X181862914Y-185600057D01*
X181862914Y-185742914D01*
X181148628Y-185885771D01*
X182505771Y-186242914D02*
X182577200Y-186314342D01*
X182505771Y-186385771D01*
X182434342Y-186314342D01*
X182505771Y-186242914D01*
X182505771Y-186385771D01*
X182505771Y-185457200D02*
X182577200Y-185528628D01*
X182505771Y-185600057D01*
X182434342Y-185528628D01*
X182505771Y-185457200D01*
X182505771Y-185600057D01*
X185220057Y-186242914D02*
X185148628Y-186314342D01*
X184934342Y-186385771D01*
X184791485Y-186385771D01*
X184577200Y-186314342D01*
X184434342Y-186171485D01*
X184362914Y-186028628D01*
X184291485Y-185742914D01*
X184291485Y-185528628D01*
X184362914Y-185242914D01*
X184434342Y-185100057D01*
X184577200Y-184957200D01*
X184791485Y-184885771D01*
X184934342Y-184885771D01*
X185148628Y-184957200D01*
X185220057Y-185028628D01*
X186434342Y-186314342D02*
X186291485Y-186385771D01*
X186005771Y-186385771D01*
X185862914Y-186314342D01*
X185791485Y-186171485D01*
X185791485Y-185600057D01*
X185862914Y-185457200D01*
X186005771Y-185385771D01*
X186291485Y-185385771D01*
X186434342Y-185457200D01*
X186505771Y-185600057D01*
X186505771Y-185742914D01*
X185791485Y-185885771D01*
X187148628Y-185385771D02*
X187148628Y-186385771D01*
X187148628Y-185528628D02*
X187220057Y-185457200D01*
X187362914Y-185385771D01*
X187577200Y-185385771D01*
X187720057Y-185457200D01*
X187791485Y-185600057D01*
X187791485Y-186385771D01*
X188291485Y-185385771D02*
X188862914Y-185385771D01*
X188505771Y-184885771D02*
X188505771Y-186171485D01*
X188577200Y-186314342D01*
X188720057Y-186385771D01*
X188862914Y-186385771D01*
X189362914Y-186385771D02*
X189362914Y-185385771D01*
X189362914Y-185671485D02*
X189434342Y-185528628D01*
X189505771Y-185457200D01*
X189648628Y-185385771D01*
X189791485Y-185385771D01*
X190934342Y-186385771D02*
X190934342Y-185600057D01*
X190862914Y-185457200D01*
X190720057Y-185385771D01*
X190434342Y-185385771D01*
X190291485Y-185457200D01*
X190934342Y-186314342D02*
X190791485Y-186385771D01*
X190434342Y-186385771D01*
X190291485Y-186314342D01*
X190220057Y-186171485D01*
X190220057Y-186028628D01*
X190291485Y-185885771D01*
X190434342Y-185814342D01*
X190791485Y-185814342D01*
X190934342Y-185742914D01*
X191862914Y-186385771D02*
X191720057Y-186314342D01*
X191648628Y-186171485D01*
X191648628Y-184885771D01*
X193577200Y-186385771D02*
X193577200Y-184885771D01*
X193577200Y-185600057D02*
X194434342Y-185600057D01*
X194434342Y-186385771D02*
X194434342Y-184885771D01*
X195720057Y-186314342D02*
X195577200Y-186385771D01*
X195291485Y-186385771D01*
X195148628Y-186314342D01*
X195077200Y-186171485D01*
X195077200Y-185600057D01*
X195148628Y-185457200D01*
X195291485Y-185385771D01*
X195577200Y-185385771D01*
X195720057Y-185457200D01*
X195791485Y-185600057D01*
X195791485Y-185742914D01*
X195077200Y-185885771D01*
X197077200Y-186385771D02*
X197077200Y-185600057D01*
X197005771Y-185457200D01*
X196862914Y-185385771D01*
X196577200Y-185385771D01*
X196434342Y-185457200D01*
X197077200Y-186314342D02*
X196934342Y-186385771D01*
X196577200Y-186385771D01*
X196434342Y-186314342D01*
X196362914Y-186171485D01*
X196362914Y-186028628D01*
X196434342Y-185885771D01*
X196577200Y-185814342D01*
X196934342Y-185814342D01*
X197077200Y-185742914D01*
X197577200Y-185385771D02*
X198148628Y-185385771D01*
X197791485Y-184885771D02*
X197791485Y-186171485D01*
X197862914Y-186314342D01*
X198005771Y-186385771D01*
X198148628Y-186385771D01*
X198648628Y-186385771D02*
X198648628Y-185385771D01*
X198648628Y-184885771D02*
X198577200Y-184957200D01*
X198648628Y-185028628D01*
X198720057Y-184957200D01*
X198648628Y-184885771D01*
X198648628Y-185028628D01*
X199362914Y-185385771D02*
X199362914Y-186385771D01*
X199362914Y-185528628D02*
X199434342Y-185457200D01*
X199577200Y-185385771D01*
X199791485Y-185385771D01*
X199934342Y-185457200D01*
X200005771Y-185600057D01*
X200005771Y-186385771D01*
X201362914Y-185385771D02*
X201362914Y-186600057D01*
X201291485Y-186742914D01*
X201220057Y-186814342D01*
X201077200Y-186885771D01*
X200862914Y-186885771D01*
X200720057Y-186814342D01*
X201362914Y-186314342D02*
X201220057Y-186385771D01*
X200934342Y-186385771D01*
X200791485Y-186314342D01*
X200720057Y-186242914D01*
X200648628Y-186100057D01*
X200648628Y-185671485D01*
X200720057Y-185528628D01*
X200791485Y-185457200D01*
X200934342Y-185385771D01*
X201220057Y-185385771D01*
X201362914Y-185457200D01*
X204077200Y-186242914D02*
X204005771Y-186314342D01*
X203791485Y-186385771D01*
X203648628Y-186385771D01*
X203434342Y-186314342D01*
X203291485Y-186171485D01*
X203220057Y-186028628D01*
X203148628Y-185742914D01*
X203148628Y-185528628D01*
X203220057Y-185242914D01*
X203291485Y-185100057D01*
X203434342Y-184957200D01*
X203648628Y-184885771D01*
X203791485Y-184885771D01*
X204005771Y-184957200D01*
X204077200Y-185028628D01*
X204934342Y-186385771D02*
X204791485Y-186314342D01*
X204720057Y-186242914D01*
X204648628Y-186100057D01*
X204648628Y-185671485D01*
X204720057Y-185528628D01*
X204791485Y-185457200D01*
X204934342Y-185385771D01*
X205148628Y-185385771D01*
X205291485Y-185457200D01*
X205362914Y-185528628D01*
X205434342Y-185671485D01*
X205434342Y-186100057D01*
X205362914Y-186242914D01*
X205291485Y-186314342D01*
X205148628Y-186385771D01*
X204934342Y-186385771D01*
X206077200Y-185385771D02*
X206077200Y-186385771D01*
X206077200Y-185528628D02*
X206148628Y-185457200D01*
X206291485Y-185385771D01*
X206505771Y-185385771D01*
X206648628Y-185457200D01*
X206720057Y-185600057D01*
X206720057Y-186385771D01*
X207220057Y-185385771D02*
X207791485Y-185385771D01*
X207434342Y-184885771D02*
X207434342Y-186171485D01*
X207505771Y-186314342D01*
X207648628Y-186385771D01*
X207791485Y-186385771D01*
X208291485Y-186385771D02*
X208291485Y-185385771D01*
X208291485Y-185671485D02*
X208362914Y-185528628D01*
X208434342Y-185457200D01*
X208577200Y-185385771D01*
X208720057Y-185385771D01*
X209434342Y-186385771D02*
X209291485Y-186314342D01*
X209220057Y-186242914D01*
X209148628Y-186100057D01*
X209148628Y-185671485D01*
X209220057Y-185528628D01*
X209291485Y-185457200D01*
X209434342Y-185385771D01*
X209648628Y-185385771D01*
X209791485Y-185457200D01*
X209862914Y-185528628D01*
X209934342Y-185671485D01*
X209934342Y-186100057D01*
X209862914Y-186242914D01*
X209791485Y-186314342D01*
X209648628Y-186385771D01*
X209434342Y-186385771D01*
X210791485Y-186385771D02*
X210648628Y-186314342D01*
X210577200Y-186171485D01*
X210577200Y-184885771D01*
X212505771Y-186385771D02*
X212505771Y-184885771D01*
X213077200Y-184885771D01*
X213220057Y-184957200D01*
X213291485Y-185028628D01*
X213362914Y-185171485D01*
X213362914Y-185385771D01*
X213291485Y-185528628D01*
X213220057Y-185600057D01*
X213077200Y-185671485D01*
X212505771Y-185671485D01*
X214505771Y-185600057D02*
X214720057Y-185671485D01*
X214791485Y-185742914D01*
X214862914Y-185885771D01*
X214862914Y-186100057D01*
X214791485Y-186242914D01*
X214720057Y-186314342D01*
X214577200Y-186385771D01*
X214005771Y-186385771D01*
X214005771Y-184885771D01*
X214505771Y-184885771D01*
X214648628Y-184957200D01*
X214720057Y-185028628D01*
X214791485Y-185171485D01*
X214791485Y-185314342D01*
X214720057Y-185457200D01*
X214648628Y-185528628D01*
X214505771Y-185600057D01*
X214005771Y-185600057D01*
X215434342Y-185957200D02*
X216148628Y-185957200D01*
X215291485Y-186385771D02*
X215791485Y-184885771D01*
X216291485Y-186385771D01*
X216791485Y-186242914D02*
X216862914Y-186314342D01*
X216791485Y-186385771D01*
X216720057Y-186314342D01*
X216791485Y-186242914D01*
X216791485Y-186385771D01*
X217505771Y-186385771D02*
X217505771Y-184885771D01*
X217648628Y-185814342D02*
X218077200Y-186385771D01*
X218077200Y-185385771D02*
X217505771Y-185957200D01*
X218720057Y-186385771D02*
X218720057Y-185385771D01*
X218720057Y-184885771D02*
X218648628Y-184957200D01*
X218720057Y-185028628D01*
X218791485Y-184957200D01*
X218720057Y-184885771D01*
X218720057Y-185028628D01*
X220077200Y-186314342D02*
X219934342Y-186385771D01*
X219648628Y-186385771D01*
X219505771Y-186314342D01*
X219434342Y-186242914D01*
X219362914Y-186100057D01*
X219362914Y-185671485D01*
X219434342Y-185528628D01*
X219505771Y-185457200D01*
X219648628Y-185385771D01*
X219934342Y-185385771D01*
X220077200Y-185457200D01*
X221362914Y-186385771D02*
X221362914Y-185600057D01*
X221291485Y-185457200D01*
X221148628Y-185385771D01*
X220862914Y-185385771D01*
X220720057Y-185457200D01*
X221362914Y-186314342D02*
X221220057Y-186385771D01*
X220862914Y-186385771D01*
X220720057Y-186314342D01*
X220648628Y-186171485D01*
X220648628Y-186028628D01*
X220720057Y-185885771D01*
X220862914Y-185814342D01*
X221220057Y-185814342D01*
X221362914Y-185742914D01*
X222720057Y-186385771D02*
X222720057Y-184885771D01*
X222720057Y-186314342D02*
X222577200Y-186385771D01*
X222291485Y-186385771D01*
X222148628Y-186314342D01*
X222077200Y-186242914D01*
X222005771Y-186100057D01*
X222005771Y-185671485D01*
X222077200Y-185528628D01*
X222148628Y-185457200D01*
X222291485Y-185385771D01*
X222577200Y-185385771D01*
X222720057Y-185457200D01*
X223077200Y-186528628D02*
X224220057Y-186528628D01*
X224577200Y-185385771D02*
X224577200Y-186885771D01*
X224577200Y-185457200D02*
X224720057Y-185385771D01*
X225005771Y-185385771D01*
X225148628Y-185457200D01*
X225220057Y-185528628D01*
X225291485Y-185671485D01*
X225291485Y-186100057D01*
X225220057Y-186242914D01*
X225148628Y-186314342D01*
X225005771Y-186385771D01*
X224720057Y-186385771D01*
X224577200Y-186314342D01*
X226577200Y-186314342D02*
X226434342Y-186385771D01*
X226148628Y-186385771D01*
X226005771Y-186314342D01*
X225934342Y-186242914D01*
X225862914Y-186100057D01*
X225862914Y-185671485D01*
X225934342Y-185528628D01*
X226005771Y-185457200D01*
X226148628Y-185385771D01*
X226434342Y-185385771D01*
X226577200Y-185457200D01*
X227220057Y-186385771D02*
X227220057Y-184885771D01*
X227220057Y-185457200D02*
X227362914Y-185385771D01*
X227648628Y-185385771D01*
X227791485Y-185457200D01*
X227862914Y-185528628D01*
X227934342Y-185671485D01*
X227934342Y-186100057D01*
X227862914Y-186242914D01*
X227791485Y-186314342D01*
X227648628Y-186385771D01*
X227362914Y-186385771D01*
X227220057Y-186314342D01*
D10*
D11*
X177002200Y-181507200D02*
X285002200Y-181507200D01*
D10*
D11*
X178362914Y-183614342D02*
X178577200Y-183685771D01*
X178934342Y-183685771D01*
X179077200Y-183614342D01*
X179148628Y-183542914D01*
X179220057Y-183400057D01*
X179220057Y-183257200D01*
X179148628Y-183114342D01*
X179077200Y-183042914D01*
X178934342Y-182971485D01*
X178648628Y-182900057D01*
X178505771Y-182828628D01*
X178434342Y-182757200D01*
X178362914Y-182614342D01*
X178362914Y-182471485D01*
X178434342Y-182328628D01*
X178505771Y-182257200D01*
X178648628Y-182185771D01*
X179005771Y-182185771D01*
X179220057Y-182257200D01*
X179862914Y-183685771D02*
X179862914Y-182185771D01*
X180505771Y-183685771D02*
X180505771Y-182900057D01*
X180434342Y-182757200D01*
X180291485Y-182685771D01*
X180077200Y-182685771D01*
X179934342Y-182757200D01*
X179862914Y-182828628D01*
X181791485Y-183614342D02*
X181648628Y-183685771D01*
X181362914Y-183685771D01*
X181220057Y-183614342D01*
X181148628Y-183471485D01*
X181148628Y-182900057D01*
X181220057Y-182757200D01*
X181362914Y-182685771D01*
X181648628Y-182685771D01*
X181791485Y-182757200D01*
X181862914Y-182900057D01*
X181862914Y-183042914D01*
X181148628Y-183185771D01*
X183077200Y-183614342D02*
X182934342Y-183685771D01*
X182648628Y-183685771D01*
X182505771Y-183614342D01*
X182434342Y-183471485D01*
X182434342Y-182900057D01*
X182505771Y-182757200D01*
X182648628Y-182685771D01*
X182934342Y-182685771D01*
X183077200Y-182757200D01*
X183148628Y-182900057D01*
X183148628Y-183042914D01*
X182434342Y-183185771D01*
X183577200Y-182685771D02*
X184148628Y-182685771D01*
X183791485Y-182185771D02*
X183791485Y-183471485D01*
X183862914Y-183614342D01*
X184005771Y-183685771D01*
X184148628Y-183685771D01*
X184648628Y-183542914D02*
X184720057Y-183614342D01*
X184648628Y-183685771D01*
X184577200Y-183614342D01*
X184648628Y-183542914D01*
X184648628Y-183685771D01*
X184648628Y-182757200D02*
X184720057Y-182828628D01*
X184648628Y-182900057D01*
X184577200Y-182828628D01*
X184648628Y-182757200D01*
X184648628Y-182900057D01*
D10*
D12*
X178554342Y-180685771D02*
X178554342Y-179185771D01*
X179054342Y-180257200D01*
X179554342Y-179185771D01*
X179554342Y-180685771D01*
X180197200Y-180257200D02*
X180911485Y-180257200D01*
X180054342Y-180685771D02*
X180554342Y-179185771D01*
X181054342Y-180685771D01*
X182411485Y-180685771D02*
X181911485Y-179971485D01*
X181554342Y-180685771D02*
X181554342Y-179185771D01*
X182125771Y-179185771D01*
X182268628Y-179257200D01*
X182340057Y-179328628D01*
X182411485Y-179471485D01*
X182411485Y-179685771D01*
X182340057Y-179828628D01*
X182268628Y-179900057D01*
X182125771Y-179971485D01*
X181554342Y-179971485D01*
X183054342Y-180685771D02*
X183054342Y-179185771D01*
X183554342Y-180257200D01*
X184054342Y-179185771D01*
X184054342Y-180685771D01*
X184768628Y-180542914D02*
X184840057Y-180614342D01*
X184768628Y-180685771D01*
X184697200Y-180614342D01*
X184768628Y-180542914D01*
X184768628Y-180685771D01*
X185482914Y-179685771D02*
X185482914Y-181185771D01*
X185482914Y-179757200D02*
X185625771Y-179685771D01*
X185911485Y-179685771D01*
X186054342Y-179757200D01*
X186125771Y-179828628D01*
X186197200Y-179971485D01*
X186197200Y-180400057D01*
X186125771Y-180542914D01*
X186054342Y-180614342D01*
X185911485Y-180685771D01*
X185625771Y-180685771D01*
X185482914Y-180614342D01*
X187054342Y-180685771D02*
X186911485Y-180614342D01*
X186840057Y-180471485D01*
X186840057Y-179185771D01*
X188697200Y-180614342D02*
X188911485Y-180685771D01*
X189268628Y-180685771D01*
X189411485Y-180614342D01*
X189482914Y-180542914D01*
X189554342Y-180400057D01*
X189554342Y-180257200D01*
X189482914Y-180114342D01*
X189411485Y-180042914D01*
X189268628Y-179971485D01*
X188982914Y-179900057D01*
X188840057Y-179828628D01*
X188768628Y-179757200D01*
X188697200Y-179614342D01*
X188697200Y-179471485D01*
X188768628Y-179328628D01*
X188840057Y-179257200D01*
X188982914Y-179185771D01*
X189340057Y-179185771D01*
X189554342Y-179257200D01*
X190197200Y-179685771D02*
X190197200Y-181185771D01*
X190197200Y-179757200D02*
X190340057Y-179685771D01*
X190625771Y-179685771D01*
X190768628Y-179757200D01*
X190840057Y-179828628D01*
X190911485Y-179971485D01*
X190911485Y-180400057D01*
X190840057Y-180542914D01*
X190768628Y-180614342D01*
X190625771Y-180685771D01*
X190340057Y-180685771D01*
X190197200Y-180614342D01*
X191554342Y-180542914D02*
X191625771Y-180614342D01*
X191554342Y-180685771D01*
X191482914Y-180614342D01*
X191554342Y-180542914D01*
X191554342Y-180685771D01*
X193268628Y-179685771D02*
X194054342Y-179685771D01*
X193268628Y-180685771D01*
X194054342Y-180685771D01*
X195982914Y-180685771D02*
X195840057Y-180614342D01*
X195768628Y-180542914D01*
X195697200Y-180400057D01*
X195697200Y-179971485D01*
X195768628Y-179828628D01*
X195840057Y-179757200D01*
X195982914Y-179685771D01*
X196197200Y-179685771D01*
X196340057Y-179757200D01*
X196411485Y-179828628D01*
X196482914Y-179971485D01*
X196482914Y-180400057D01*
X196411485Y-180542914D01*
X196340057Y-180614342D01*
X196197200Y-180685771D01*
X195982914Y-180685771D01*
X197125771Y-180542914D02*
X197197200Y-180614342D01*
X197125771Y-180685771D01*
X197054342Y-180614342D01*
X197125771Y-180542914D01*
X197125771Y-180685771D01*
X198054342Y-180685771D02*
X197911485Y-180614342D01*
X197840057Y-180542914D01*
X197768628Y-180400057D01*
X197768628Y-179971485D01*
X197840057Y-179828628D01*
X197911485Y-179757200D01*
X198054342Y-179685771D01*
X198268628Y-179685771D01*
X198411485Y-179757200D01*
X198482914Y-179828628D01*
X198554342Y-179971485D01*
X198554342Y-180400057D01*
X198482914Y-180542914D01*
X198411485Y-180614342D01*
X198268628Y-180685771D01*
X198054342Y-180685771D01*
X199197200Y-180542914D02*
X199268628Y-180614342D01*
X199197200Y-180685771D01*
X199125771Y-180614342D01*
X199197200Y-180542914D01*
X199197200Y-180685771D01*
D10*
D11*
X179291485Y-177685771D02*
X178791485Y-176971485D01*
X178434342Y-177685771D02*
X178434342Y-176185771D01*
X179005771Y-176185771D01*
X179148628Y-176257200D01*
X179220057Y-176328628D01*
X179291485Y-176471485D01*
X179291485Y-176685771D01*
X179220057Y-176828628D01*
X179148628Y-176900057D01*
X179005771Y-176971485D01*
X178434342Y-176971485D01*
X180720057Y-176257200D02*
X180577200Y-176185771D01*
X180362914Y-176185771D01*
X180148628Y-176257200D01*
X180005771Y-176400057D01*
X179934342Y-176542914D01*
X179862914Y-176828628D01*
X179862914Y-177042914D01*
X179934342Y-177328628D01*
X180005771Y-177471485D01*
X180148628Y-177614342D01*
X180362914Y-177685771D01*
X180505771Y-177685771D01*
X180720057Y-177614342D01*
X180791485Y-177542914D01*
X180791485Y-177042914D01*
X180505771Y-177042914D01*
X181291485Y-176185771D02*
X181648628Y-177685771D01*
X181934342Y-176614342D01*
X182220057Y-177685771D01*
X182577200Y-176185771D01*
D10*
D11*
D10*
D11*
D10*
D11*
D10*
D11*
X197002200Y-191507200D02*
X197002200Y-194507200D01*
D10*
D11*
X261002200Y-191507200D02*
X261002200Y-198007200D01*
D14*
X33490866Y-122269803D02*
X33491300Y-36755890D01*
X206845866Y-36803803D02*
X206845866Y-122269803D01*
X33491300Y-36755890D02*
X206845866Y-36803803D01*
X51928769Y-99409803D02*
G75*
G03*
X51928769Y-99409803I-1419903J0D01*
G01*
X183500769Y-115284803D02*
G75*
G03*
X183500769Y-115284803I-1419903J0D01*
G01*
X51928769Y-49866043D02*
G75*
G03*
X51928769Y-49866043I-1419903J0D01*
G01*
X142098769Y-49866043D02*
G75*
G03*
X142098769Y-49866043I-1419903J0D01*
G01*
X206845866Y-122269803D02*
X33490866Y-122269803D01*
X111745769Y-110204803D02*
G75*
G03*
X111745769Y-110204803I-1419903J0D01*
G01*
X204455769Y-43246043D02*
G75*
G03*
X204455769Y-43246043I-1419903J0D01*
G01*
X183747532Y-115284803D02*
G75*
G03*
X183747532Y-115284803I-1666666J0D01*
G01*
X179580866Y-115284803D02*
X184580866Y-115284803D01*
X182080866Y-112784803D02*
X182080866Y-117784803D01*
X52175532Y-99409803D02*
G75*
G03*
X52175532Y-99409803I-1666666J0D01*
G01*
X48008866Y-99409803D02*
X53008866Y-99409803D01*
X50508866Y-96909803D02*
X50508866Y-101909803D01*
X204702532Y-43246043D02*
G75*
G03*
X204702532Y-43246043I-1666666J0D01*
G01*
X200535866Y-43246043D02*
X205535866Y-43246043D01*
X203035866Y-40746043D02*
X203035866Y-45746043D01*
X52175532Y-49866043D02*
G75*
G03*
X52175532Y-49866043I-1666666J0D01*
G01*
X48008866Y-49866043D02*
X53008866Y-49866043D01*
X50508866Y-47366043D02*
X50508866Y-52366043D01*
X111992532Y-110204803D02*
G75*
G03*
X111992532Y-110204803I-1666666J0D01*
G01*
X107825866Y-110204803D02*
X112825866Y-110204803D01*
X110325866Y-107704803D02*
X110325866Y-112704803D01*
X205501666Y-119380000D02*
G75*
G03*
X205501666Y-119380000I-1666666J0D01*
G01*
X201335000Y-119380000D02*
X206335000Y-119380000D01*
X203835000Y-116880000D02*
X203835000Y-121880000D01*
X142345532Y-49866043D02*
G75*
G03*
X142345532Y-49866043I-1666666J0D01*
G01*
X138178866Y-49866043D02*
X143178866Y-49866043D01*
X140678866Y-47366043D02*
X140678866Y-52366043D01*
D15*
%TO.C,D3*%
X71688764Y-81146532D02*
X71688764Y-76296532D01*
X67188764Y-81146532D02*
X71688764Y-81146532D01*
X67188764Y-76296532D02*
X67188764Y-81146532D01*
X71688764Y-76296532D02*
X67188764Y-76296532D01*
%TO.C,R5*%
X82313866Y-85389803D02*
X82313866Y-83489803D01*
X82313866Y-83489803D02*
X86013866Y-83489803D01*
X86013866Y-83489803D02*
X86013866Y-85389803D01*
X86013866Y-85389803D02*
X82313866Y-85389803D01*
%TO.C,J13*%
X197465000Y-37111043D02*
X186465000Y-37111043D01*
X186465000Y-46111043D02*
X197465000Y-46111043D01*
X186465000Y-37111043D02*
X186465000Y-46111043D01*
X197465000Y-46111043D02*
X197465000Y-37111043D01*
%TO.C,U8*%
X139405000Y-89789803D02*
X139405000Y-79089803D01*
X139405000Y-79089803D02*
X131105000Y-79089803D01*
X131105000Y-79089803D02*
X131105000Y-89789803D01*
X131105000Y-89789803D02*
X139405000Y-89789803D01*
%TO.C,R50*%
X126783856Y-90070626D02*
X126783856Y-91970626D01*
X123083856Y-91970626D02*
X123083856Y-90070626D01*
X123083856Y-90070626D02*
X126783856Y-90070626D01*
X126783856Y-91970626D02*
X123083856Y-91970626D01*
%TO.C,R40*%
X169893866Y-50570000D02*
X164803866Y-50570000D01*
X164803866Y-53570000D02*
X169893866Y-53570000D01*
X169893866Y-53570000D02*
X169893866Y-50570000D01*
X164803866Y-50570000D02*
X164803866Y-53570000D01*
%TO.C,R27*%
X116143866Y-62434803D02*
X113143866Y-62434803D01*
X113143866Y-62434803D02*
X113143866Y-67524803D01*
X116143866Y-67524803D02*
X116143866Y-62434803D01*
X113143866Y-67524803D02*
X116143866Y-67524803D01*
%TO.C,D2*%
X52647965Y-81149803D02*
X57147965Y-81149803D01*
X57147965Y-76299803D02*
X52647965Y-76299803D01*
X57147965Y-81149803D02*
X57147965Y-76299803D01*
X52647965Y-76299803D02*
X52647965Y-81149803D01*
%TO.C,Q9*%
X158288866Y-59039606D02*
X168788866Y-59039606D01*
X168788866Y-59039606D02*
X168788866Y-54129606D01*
X168788866Y-54129606D02*
X158288866Y-54129606D01*
X158288866Y-54129606D02*
X158288866Y-59039606D01*
%TO.C,C3*%
X57563866Y-78965000D02*
X65063866Y-78965000D01*
X65063866Y-59465000D02*
X57563866Y-59465000D01*
X65063866Y-78965000D02*
X65063866Y-59465000D01*
X57563866Y-59465000D02*
X57563866Y-78965000D01*
%TO.C,R55*%
X191073866Y-62434803D02*
X188073866Y-62434803D01*
X188073866Y-67524803D02*
X191073866Y-67524803D01*
X188073866Y-62434803D02*
X188073866Y-67524803D01*
X191073866Y-67524803D02*
X191073866Y-62434803D01*
%TO.C,JP1*%
X41493866Y-50570000D02*
X41493866Y-54120000D01*
X35393866Y-54120000D02*
X35393866Y-50570000D01*
X41493866Y-54120000D02*
X35393866Y-54120000D01*
X35393866Y-50570000D02*
X41493866Y-50570000D01*
%TO.C,RV6*%
X122568866Y-46696043D02*
X113068866Y-46696043D01*
X113068866Y-50496043D02*
X113068866Y-46696043D01*
X122568866Y-50496043D02*
X122568866Y-46696043D01*
X122568866Y-50496043D02*
X113068866Y-50496043D01*
%TO.C,R2*%
X39927789Y-83606089D02*
X39927789Y-85506089D01*
X39927789Y-85506089D02*
X36227789Y-85506089D01*
X36227789Y-83606089D02*
X39927789Y-83606089D01*
X36227789Y-85506089D02*
X36227789Y-83606089D01*
%TO.C,U2*%
X48308866Y-79089803D02*
X40008866Y-79089803D01*
X48308866Y-89789803D02*
X48308866Y-79089803D01*
X40008866Y-79089803D02*
X40008866Y-89789803D01*
X40008866Y-89789803D02*
X48308866Y-89789803D01*
%TO.C,Q7*%
X127173866Y-59039606D02*
X137673866Y-59039606D01*
X137673866Y-59039606D02*
X137673866Y-54129606D01*
X137673866Y-54129606D02*
X127173866Y-54129606D01*
X127173866Y-54129606D02*
X127173866Y-59039606D01*
%TO.C,R30*%
X158863866Y-67524803D02*
X161863866Y-67524803D01*
X161863866Y-62434803D02*
X158863866Y-62434803D01*
X161863866Y-67524803D02*
X161863866Y-62434803D01*
X158863866Y-62434803D02*
X158863866Y-67524803D01*
%TO.C,Q19*%
X129633202Y-89906335D02*
X129633202Y-86066335D01*
X126233202Y-89906335D02*
X129633202Y-89906335D01*
X126233202Y-86066335D02*
X126233202Y-89906335D01*
X129633202Y-86066335D02*
X126233202Y-86066335D01*
%TO.C,JP9*%
X81748866Y-54120000D02*
X81748866Y-50570000D01*
X87848866Y-50570000D02*
X87848866Y-54120000D01*
X87848866Y-54120000D02*
X81748866Y-54120000D01*
X81748866Y-50570000D02*
X87848866Y-50570000D01*
%TO.C,J12*%
X171465000Y-46111043D02*
X182465000Y-46111043D01*
X182465000Y-37111043D02*
X171465000Y-37111043D01*
X171465000Y-37111043D02*
X171465000Y-46111043D01*
X182465000Y-46111043D02*
X182465000Y-37111043D01*
%TO.C,J3_DC5V1*%
X143565000Y-110664803D02*
X143565000Y-99664803D01*
X134565000Y-99664803D02*
X134565000Y-110664803D01*
X134565000Y-110664803D02*
X143565000Y-110664803D01*
X143565000Y-99664803D02*
X134565000Y-99664803D01*
%TO.C,Q2*%
X53513866Y-59039606D02*
X64013866Y-59039606D01*
X53513866Y-54129606D02*
X53513866Y-59039606D01*
X64013866Y-54129606D02*
X53513866Y-54129606D01*
X64013866Y-59039606D02*
X64013866Y-54129606D01*
%TO.C,J5*%
X77465000Y-46111043D02*
X77465000Y-37111043D01*
X66465000Y-37111043D02*
X66465000Y-46111043D01*
X77465000Y-37111043D02*
X66465000Y-37111043D01*
X66465000Y-46111043D02*
X77465000Y-46111043D01*
%TO.C,R28*%
X127748866Y-67524803D02*
X130748866Y-67524803D01*
X130748866Y-62434803D02*
X127748866Y-62434803D01*
X130748866Y-67524803D02*
X130748866Y-62434803D01*
X127748866Y-62434803D02*
X127748866Y-67524803D01*
%TO.C,R48*%
X157253776Y-91849676D02*
X153553776Y-91849676D01*
X157253776Y-89949676D02*
X157253776Y-91849676D01*
X153553776Y-89949676D02*
X157253776Y-89949676D01*
X153553776Y-91849676D02*
X153553776Y-89949676D01*
%TO.C,D5*%
X101523780Y-76330256D02*
X97023780Y-76330256D01*
X97023780Y-76330256D02*
X97023780Y-81180256D01*
X101523780Y-81180256D02*
X101523780Y-76330256D01*
X97023780Y-81180256D02*
X101523780Y-81180256D01*
%TO.C,R44*%
X84510000Y-90166212D02*
X88210000Y-90166212D01*
X88210000Y-92066212D02*
X84510000Y-92066212D01*
X88210000Y-90166212D02*
X88210000Y-92066212D01*
X84510000Y-92066212D02*
X84510000Y-90166212D01*
%TO.C,R38*%
X132418866Y-50570000D02*
X132418866Y-53570000D01*
X137508866Y-53570000D02*
X137508866Y-50570000D01*
X132418866Y-53570000D02*
X137508866Y-53570000D01*
X137508866Y-50570000D02*
X132418866Y-50570000D01*
%TO.C,JP6*%
X125563866Y-50570000D02*
X131663866Y-50570000D01*
X131663866Y-50570000D02*
X131663866Y-54120000D01*
X131663866Y-54120000D02*
X125563866Y-54120000D01*
X125563866Y-54120000D02*
X125563866Y-50570000D01*
%TO.C,J6*%
X81465000Y-37111043D02*
X81465000Y-46111043D01*
X81465000Y-46111043D02*
X92465000Y-46111043D01*
X92465000Y-46111043D02*
X92465000Y-37111043D01*
X92465000Y-37111043D02*
X81465000Y-37111043D01*
%TO.C,J7*%
X107465000Y-46111043D02*
X107465000Y-37111043D01*
X96465000Y-37111043D02*
X96465000Y-46111043D01*
X96465000Y-46111043D02*
X107465000Y-46111043D01*
X107465000Y-37111043D02*
X96465000Y-37111043D01*
%TO.C,J5_AC_INPUT1*%
X199923866Y-107764803D02*
X191923866Y-107764803D01*
X191923866Y-118264803D02*
X199923866Y-118264803D01*
X199923866Y-107764803D02*
X199923866Y-118264803D01*
X191923866Y-118264803D02*
X191923866Y-107764803D01*
%TO.C,R25*%
X71693866Y-62434803D02*
X68693866Y-62434803D01*
X68693866Y-62434803D02*
X68693866Y-67524803D01*
X71693866Y-67524803D02*
X71693866Y-62434803D01*
X68693866Y-67524803D02*
X71693866Y-67524803D01*
%TO.C,C4*%
X79658866Y-78965000D02*
X79658866Y-59465000D01*
X72158866Y-78965000D02*
X79658866Y-78965000D01*
X72158866Y-59465000D02*
X72158866Y-78965000D01*
X79658866Y-59465000D02*
X72158866Y-59465000D01*
%TO.C,JP5*%
X117693866Y-50570000D02*
X117693866Y-54120000D01*
X117693866Y-54120000D02*
X111593866Y-54120000D01*
X111593866Y-54120000D02*
X111593866Y-50570000D01*
X111593866Y-50570000D02*
X117693866Y-50570000D01*
%TO.C,D4*%
X81834475Y-76289169D02*
X81834475Y-81139169D01*
X86334475Y-76289169D02*
X81834475Y-76289169D01*
X86334475Y-81139169D02*
X86334475Y-76289169D01*
X81834475Y-81139169D02*
X86334475Y-81139169D01*
%TO.C,R47*%
X43595866Y-92104803D02*
X39895866Y-92104803D01*
X39895866Y-92104803D02*
X39895866Y-90204803D01*
X43595866Y-90204803D02*
X43595866Y-92104803D01*
X39895866Y-90204803D02*
X43595866Y-90204803D01*
%TO.C,Q1*%
X36368866Y-54129606D02*
X36368866Y-59039606D01*
X46868866Y-59039606D02*
X46868866Y-54129606D01*
X36368866Y-59039606D02*
X46868866Y-59039606D01*
X46868866Y-54129606D02*
X36368866Y-54129606D01*
%TO.C,J4_AC_OUTPUT1*%
X199897152Y-102657457D02*
X199897152Y-91657457D01*
X190897152Y-91657457D02*
X190897152Y-102657457D01*
X190897152Y-102657457D02*
X199897152Y-102657457D01*
X199897152Y-91657457D02*
X190897152Y-91657457D01*
%TO.C,U11*%
X185468866Y-89789803D02*
X185468866Y-79089803D01*
X177168866Y-89789803D02*
X185468866Y-89789803D01*
X185468866Y-79089803D02*
X177168866Y-79089803D01*
X177168866Y-79089803D02*
X177168866Y-89789803D01*
%TO.C,RV2*%
X64148866Y-50496043D02*
X64148866Y-46696043D01*
X64148866Y-46696043D02*
X54648866Y-46696043D01*
X54648866Y-50496043D02*
X54648866Y-46696043D01*
X64148866Y-50496043D02*
X54648866Y-50496043D01*
%TO.C,R26*%
X83298866Y-62434803D02*
X83298866Y-67524803D01*
X86298866Y-62434803D02*
X83298866Y-62434803D01*
X86298866Y-67524803D02*
X86298866Y-62434803D01*
X83298866Y-67524803D02*
X86298866Y-67524803D01*
%TO.C,R31*%
X174103866Y-62434803D02*
X174103866Y-67524803D01*
X174103866Y-67524803D02*
X177103866Y-67524803D01*
X177103866Y-67524803D02*
X177103866Y-62434803D01*
X177103866Y-62434803D02*
X174103866Y-62434803D01*
%TO.C,Q18*%
X100477138Y-89906335D02*
X100477138Y-86066335D01*
X100477138Y-86066335D02*
X97077138Y-86066335D01*
X97077138Y-86066335D02*
X97077138Y-89906335D01*
X97077138Y-89906335D02*
X100477138Y-89906335D01*
%TO.C,JP3*%
X73243866Y-54120000D02*
X67143866Y-54120000D01*
X67143866Y-54120000D02*
X67143866Y-50570000D01*
X67143866Y-50570000D02*
X73243866Y-50570000D01*
X73243866Y-50570000D02*
X73243866Y-54120000D01*
%TO.C,C7*%
X139005000Y-78965000D02*
X139005000Y-59465000D01*
X131505000Y-78965000D02*
X139005000Y-78965000D01*
X139005000Y-59465000D02*
X131505000Y-59465000D01*
X131505000Y-59465000D02*
X131505000Y-78965000D01*
%TO.C,RV1*%
X36233866Y-50496043D02*
X36233866Y-46696043D01*
X45733866Y-50496043D02*
X45733866Y-46696043D01*
X45733866Y-46696043D02*
X36233866Y-46696043D01*
X45733866Y-50496043D02*
X36233866Y-50496043D01*
%TO.C,R34*%
X80358866Y-53570000D02*
X80358866Y-50570000D01*
X75268866Y-50570000D02*
X75268866Y-53570000D01*
X80358866Y-50570000D02*
X75268866Y-50570000D01*
X75268866Y-53570000D02*
X80358866Y-53570000D01*
%TO.C,R9*%
X146068866Y-83489803D02*
X146068866Y-85389803D01*
X146068866Y-85389803D02*
X142368866Y-85389803D01*
X142368866Y-85389803D02*
X142368866Y-83489803D01*
X142368866Y-83489803D02*
X146068866Y-83489803D01*
%TO.C,Q3*%
X68118866Y-54129606D02*
X68118866Y-59039606D01*
X78618866Y-54129606D02*
X68118866Y-54129606D01*
X78618866Y-59039606D02*
X78618866Y-54129606D01*
X68118866Y-59039606D02*
X78618866Y-59039606D01*
%TO.C,Q8*%
X142413866Y-54129606D02*
X142413866Y-59039606D01*
X142413866Y-59039606D02*
X152913866Y-59039606D01*
X152913866Y-59039606D02*
X152913866Y-54129606D01*
X152913866Y-54129606D02*
X142413866Y-54129606D01*
%TO.C,R7*%
X112158866Y-83489803D02*
X115858866Y-83489803D01*
X115858866Y-85389803D02*
X112158866Y-85389803D01*
X112158866Y-85389803D02*
X112158866Y-83489803D01*
X115858866Y-83489803D02*
X115858866Y-85389803D01*
%TO.C,JP7*%
X143978866Y-50570000D02*
X150078866Y-50570000D01*
X143978866Y-54120000D02*
X143978866Y-50570000D01*
X150078866Y-50570000D02*
X150078866Y-54120000D01*
X150078866Y-54120000D02*
X143978866Y-54120000D01*
%TO.C,R19*%
X143023355Y-68559803D02*
X143023355Y-73649803D01*
X146023355Y-68559803D02*
X143023355Y-68559803D01*
X143023355Y-73649803D02*
X146023355Y-73649803D01*
X146023355Y-73649803D02*
X146023355Y-68559803D01*
%TO.C,J8*%
X111465000Y-46111043D02*
X122465000Y-46111043D01*
X111465000Y-37111043D02*
X111465000Y-46111043D01*
X122465000Y-37111043D02*
X111465000Y-37111043D01*
X122465000Y-46111043D02*
X122465000Y-37111043D01*
%TO.C,JP11*%
X185888866Y-54120000D02*
X185888866Y-50570000D01*
X191988866Y-54120000D02*
X185888866Y-54120000D01*
X191988866Y-50570000D02*
X191988866Y-54120000D01*
X185888866Y-50570000D02*
X191988866Y-50570000D01*
%TO.C,JP2*%
X54079563Y-50536798D02*
X60179563Y-50536798D01*
X60179563Y-54086798D02*
X54079563Y-54086798D01*
X60179563Y-50536798D02*
X60179563Y-54086798D01*
X54079563Y-54086798D02*
X54079563Y-50536798D01*
%TO.C,J9*%
X126465000Y-37111043D02*
X126465000Y-46111043D01*
X137465000Y-46111043D02*
X137465000Y-37111043D01*
X137465000Y-37111043D02*
X126465000Y-37111043D01*
X126465000Y-46111043D02*
X137465000Y-46111043D01*
%TO.C,R4*%
X68000000Y-85295052D02*
X68000000Y-83395052D01*
X71700000Y-83395052D02*
X71700000Y-85295052D01*
X68000000Y-83395052D02*
X71700000Y-83395052D01*
X71700000Y-85295052D02*
X68000000Y-85295052D01*
%TO.C,R56*%
X194013866Y-53570000D02*
X199103866Y-53570000D01*
X199103866Y-50570000D02*
X194013866Y-50570000D01*
X199103866Y-53570000D02*
X199103866Y-50570000D01*
X194013866Y-50570000D02*
X194013866Y-53570000D01*
%TO.C,RV12*%
X183980866Y-111779803D02*
X180180866Y-111779803D01*
X183980866Y-102279803D02*
X183980866Y-111779803D01*
X183980866Y-102279803D02*
X180180866Y-102279803D01*
X180180866Y-102279803D02*
X180180866Y-111779803D01*
%TO.C,C2*%
X47908866Y-78845000D02*
X47908866Y-59345000D01*
X40408866Y-59345000D02*
X40408866Y-78845000D01*
X47908866Y-59345000D02*
X40408866Y-59345000D01*
X40408866Y-78845000D02*
X47908866Y-78845000D01*
%TO.C,Q10*%
X173528866Y-54129606D02*
X173528866Y-59039606D01*
X184028866Y-59039606D02*
X184028866Y-54129606D01*
X173528866Y-59039606D02*
X184028866Y-59039606D01*
X184028866Y-54129606D02*
X173528866Y-54129606D01*
%TO.C,R45*%
X168992071Y-91930965D02*
X168992071Y-90030965D01*
X172692071Y-90030965D02*
X172692071Y-91930965D01*
X168992071Y-90030965D02*
X172692071Y-90030965D01*
X172692071Y-91930965D02*
X168992071Y-91930965D01*
%TO.C,U10*%
X161928866Y-89789803D02*
X170228866Y-89789803D01*
X170228866Y-89789803D02*
X170228866Y-79089803D01*
X170228866Y-79089803D02*
X161928866Y-79089803D01*
X161928866Y-79089803D02*
X161928866Y-89789803D01*
%TO.C,R54*%
X188073866Y-68559803D02*
X188073866Y-73649803D01*
X188073866Y-73649803D02*
X191073866Y-73649803D01*
X191073866Y-73649803D02*
X191073866Y-68559803D01*
X191073866Y-68559803D02*
X188073866Y-68559803D01*
%TO.C,R52*%
X107977928Y-91916483D02*
X107977928Y-90016483D01*
X111677928Y-90016483D02*
X111677928Y-91916483D01*
X107977928Y-90016483D02*
X111677928Y-90016483D01*
X111677928Y-91916483D02*
X107977928Y-91916483D01*
%TO.C,D8*%
X145935800Y-76326874D02*
X141435800Y-76326874D01*
X141435800Y-76326874D02*
X141435800Y-81176874D01*
X141435800Y-81176874D02*
X145935800Y-81176874D01*
X145935800Y-81176874D02*
X145935800Y-76326874D01*
%TO.C,F1*%
X184364448Y-117528579D02*
X184364448Y-93228579D01*
X184364448Y-93228579D02*
X190764448Y-93228579D01*
X190764448Y-93228579D02*
X190764448Y-117528579D01*
X190764448Y-117528579D02*
X184364448Y-117528579D01*
%TO.C,R24*%
X54098866Y-67524803D02*
X57098866Y-67524803D01*
X57098866Y-62434803D02*
X54098866Y-62434803D01*
X54098866Y-62434803D02*
X54098866Y-67524803D01*
X57098866Y-67524803D02*
X57098866Y-62434803D01*
%TO.C,R21*%
X174103866Y-68559803D02*
X174103866Y-73649803D01*
X174103866Y-73649803D02*
X177103866Y-73649803D01*
X177103866Y-73649803D02*
X177103866Y-68559803D01*
X177103866Y-68559803D02*
X174103866Y-68559803D01*
%TO.C,R37*%
X119718866Y-53570000D02*
X124808866Y-53570000D01*
X124808866Y-50570000D02*
X119718866Y-50570000D01*
X124808866Y-53570000D02*
X124808866Y-50570000D01*
X119718866Y-50570000D02*
X119718866Y-53570000D01*
%TO.C,R41*%
X185133866Y-53570000D02*
X185133866Y-50570000D01*
X180043866Y-50570000D02*
X180043866Y-53570000D01*
X180043866Y-53570000D02*
X185133866Y-53570000D01*
X185133866Y-50570000D02*
X180043866Y-50570000D01*
%TO.C,J1*%
X47180000Y-98245000D02*
X47180000Y-113845000D01*
X39180000Y-113845000D02*
X47180000Y-113845000D01*
X39180000Y-113845000D02*
X39180000Y-98245000D01*
X47180000Y-98245000D02*
X39180000Y-98245000D01*
%TO.C,RV9*%
X167653866Y-50496043D02*
X158153866Y-50496043D01*
X167653866Y-50496043D02*
X167653866Y-46696043D01*
X158153866Y-50496043D02*
X158153866Y-46696043D01*
X167653866Y-46696043D02*
X158153866Y-46696043D01*
%TO.C,C11*%
X199038866Y-59345000D02*
X191538866Y-59345000D01*
X191538866Y-59345000D02*
X191538866Y-78845000D01*
X191538866Y-78845000D02*
X199038866Y-78845000D01*
X199038866Y-78845000D02*
X199038866Y-59345000D01*
%TO.C,R22*%
X98538866Y-67524803D02*
X101538866Y-67524803D01*
X101538866Y-67524803D02*
X101538866Y-62434803D01*
X101538866Y-62434803D02*
X98538866Y-62434803D01*
X98538866Y-62434803D02*
X98538866Y-67524803D01*
%TO.C,D7*%
X130876278Y-76299803D02*
X126376278Y-76299803D01*
X130876278Y-81149803D02*
X130876278Y-76299803D01*
X126376278Y-76299803D02*
X126376278Y-81149803D01*
X126376278Y-81149803D02*
X130876278Y-81149803D01*
%TO.C,J2*%
X93153866Y-100149803D02*
X93153866Y-103749803D01*
X124703866Y-100149803D02*
X93153866Y-100149803D01*
X93153866Y-103749803D02*
X124703866Y-103749803D01*
X124703866Y-103749803D02*
X124703866Y-100149803D01*
%TO.C,JP8*%
X162778866Y-50570000D02*
X162778866Y-54120000D01*
X156678866Y-50570000D02*
X162778866Y-50570000D01*
X162778866Y-54120000D02*
X156678866Y-54120000D01*
X156678866Y-54120000D02*
X156678866Y-50570000D01*
%TO.C,R46*%
X186536858Y-89882071D02*
X186536858Y-91782071D01*
X182836858Y-91782071D02*
X182836858Y-89882071D01*
X182836858Y-89882071D02*
X186536858Y-89882071D01*
X186536858Y-91782071D02*
X182836858Y-91782071D01*
%TO.C,R8*%
X126763866Y-83489803D02*
X130463866Y-83489803D01*
X130463866Y-85389803D02*
X126763866Y-85389803D01*
X130463866Y-83489803D02*
X130463866Y-85389803D01*
X126763866Y-85389803D02*
X126763866Y-83489803D01*
%TO.C,RV7*%
X127038866Y-50496043D02*
X127038866Y-46696043D01*
X136538866Y-50496043D02*
X136538866Y-46696043D01*
X136538866Y-50496043D02*
X127038866Y-50496043D01*
X136538866Y-46696043D02*
X127038866Y-46696043D01*
%TO.C,J10*%
X152465000Y-37111043D02*
X141465000Y-37111043D01*
X141465000Y-37111043D02*
X141465000Y-46111043D01*
X152465000Y-46111043D02*
X152465000Y-37111043D01*
X141465000Y-46111043D02*
X152465000Y-46111043D01*
%TO.C,Q15*%
X189958202Y-89906335D02*
X189958202Y-86066335D01*
X186558202Y-89906335D02*
X189958202Y-89906335D01*
X186558202Y-86066335D02*
X186558202Y-89906335D01*
X189958202Y-86066335D02*
X186558202Y-86066335D01*
%TO.C,R33*%
X66388866Y-53570000D02*
X66388866Y-50570000D01*
X66388866Y-50570000D02*
X61298866Y-50570000D01*
X61298866Y-50570000D02*
X61298866Y-53570000D01*
X61298866Y-53570000D02*
X66388866Y-53570000D01*
%TO.C,C6*%
X124108866Y-78965000D02*
X124108866Y-59465000D01*
X116608866Y-78965000D02*
X124108866Y-78965000D01*
X124108866Y-59465000D02*
X116608866Y-59465000D01*
X116608866Y-59465000D02*
X116608866Y-78965000D01*
%TO.C,J3*%
X47465000Y-37111043D02*
X36465000Y-37111043D01*
X36465000Y-46111043D02*
X47465000Y-46111043D01*
X36465000Y-37111043D02*
X36465000Y-46111043D01*
X47465000Y-46111043D02*
X47465000Y-37111043D01*
%TO.C,Q5*%
X97963866Y-59039606D02*
X108463866Y-59039606D01*
X108463866Y-59039606D02*
X108463866Y-54129606D01*
X97963866Y-54129606D02*
X97963866Y-59039606D01*
X108463866Y-54129606D02*
X97963866Y-54129606D01*
%TO.C,RV4*%
X92723866Y-50496043D02*
X92723866Y-46696043D01*
X92723866Y-46696043D02*
X83223866Y-46696043D01*
X92723866Y-50496043D02*
X83223866Y-50496043D01*
X83223866Y-50496043D02*
X83223866Y-46696043D01*
%TO.C,R49*%
X106460866Y-92104803D02*
X102760866Y-92104803D01*
X102760866Y-90204803D02*
X106460866Y-90204803D01*
X106460866Y-90204803D02*
X106460866Y-92104803D01*
X102760866Y-92104803D02*
X102760866Y-90204803D01*
%TO.C,RV10*%
X182893866Y-46696043D02*
X173393866Y-46696043D01*
X182893866Y-50496043D02*
X173393866Y-50496043D01*
X182893866Y-50496043D02*
X182893866Y-46696043D01*
X173393866Y-50496043D02*
X173393866Y-46696043D01*
%TO.C,Q20*%
X141473202Y-86066335D02*
X141473202Y-89906335D01*
X144873202Y-86066335D02*
X141473202Y-86066335D01*
X144873202Y-89906335D02*
X144873202Y-86066335D01*
X141473202Y-89906335D02*
X144873202Y-89906335D01*
%TO.C,R53*%
X187364863Y-85379574D02*
X187364863Y-83479574D01*
X191064863Y-83479574D02*
X191064863Y-85379574D01*
X191064863Y-85379574D02*
X187364863Y-85379574D01*
X187364863Y-83479574D02*
X191064863Y-83479574D01*
%TO.C,Q13*%
X85183202Y-89906335D02*
X85183202Y-86066335D01*
X81783202Y-86066335D02*
X81783202Y-89906335D01*
X85183202Y-86066335D02*
X81783202Y-86066335D01*
X81783202Y-89906335D02*
X85183202Y-89906335D01*
%TO.C,D1*%
X39876313Y-81765085D02*
X39876313Y-76915085D01*
X39876313Y-76915085D02*
X35376313Y-76915085D01*
X35376313Y-76915085D02*
X35376313Y-81765085D01*
X35376313Y-81765085D02*
X39876313Y-81765085D01*
%TO.C,U9*%
X154386227Y-79089803D02*
X146086227Y-79089803D01*
X146086227Y-79089803D02*
X146086227Y-89789803D01*
X146086227Y-89789803D02*
X154386227Y-89789803D01*
X154386227Y-89789803D02*
X154386227Y-79089803D01*
%TO.C,JP10*%
X171283866Y-50570000D02*
X177383866Y-50570000D01*
X177383866Y-50570000D02*
X177383866Y-54120000D01*
X177383866Y-54120000D02*
X171283866Y-54120000D01*
X171283866Y-54120000D02*
X171283866Y-50570000D01*
%TO.C,C1*%
X102003866Y-78965000D02*
X109503866Y-78965000D01*
X109503866Y-59465000D02*
X102003866Y-59465000D01*
X102003866Y-59465000D02*
X102003866Y-78965000D01*
X109503866Y-78965000D02*
X109503866Y-59465000D01*
%TO.C,D10*%
X172644010Y-76292476D02*
X172644010Y-81142476D01*
X177144010Y-76292476D02*
X172644010Y-76292476D01*
X177144010Y-81142476D02*
X177144010Y-76292476D01*
X172644010Y-81142476D02*
X177144010Y-81142476D01*
%TO.C,C5*%
X86763866Y-59465000D02*
X86763866Y-78965000D01*
X94263866Y-78965000D02*
X94263866Y-59465000D01*
X94263866Y-59465000D02*
X86763866Y-59465000D01*
X86763866Y-78965000D02*
X94263866Y-78965000D01*
%TO.C,R6*%
X97553866Y-83489803D02*
X101253866Y-83489803D01*
X101253866Y-85389803D02*
X97553866Y-85389803D01*
X97553866Y-85389803D02*
X97553866Y-83489803D01*
X101253866Y-83489803D02*
X101253866Y-85389803D01*
%TO.C,D11*%
X186612933Y-81142476D02*
X191112933Y-81142476D01*
X186612933Y-76292476D02*
X186612933Y-81142476D01*
X191112933Y-76292476D02*
X186612933Y-76292476D01*
X191112933Y-81142476D02*
X191112933Y-76292476D01*
%TO.C,U3*%
X65463866Y-79089803D02*
X57163866Y-79089803D01*
X57163866Y-89789803D02*
X65463866Y-89789803D01*
X65463866Y-89789803D02*
X65463866Y-79089803D01*
X57163866Y-79089803D02*
X57163866Y-89789803D01*
%TO.C,R35*%
X94963866Y-53570000D02*
X94963866Y-50570000D01*
X89873866Y-50570000D02*
X89873866Y-53570000D01*
X94963866Y-50570000D02*
X89873866Y-50570000D01*
X89873866Y-53570000D02*
X94963866Y-53570000D01*
%TO.C,RV8*%
X154318866Y-50496043D02*
X154318866Y-46696043D01*
X154318866Y-50496043D02*
X144818866Y-50496043D01*
X144818866Y-50496043D02*
X144818866Y-46696043D01*
X154318866Y-46696043D02*
X144818866Y-46696043D01*
%TO.C,J4*%
X62465000Y-46111043D02*
X62465000Y-37111043D01*
X62465000Y-37111043D02*
X51465000Y-37111043D01*
X51465000Y-37111043D02*
X51465000Y-46111043D01*
X51465000Y-46111043D02*
X62465000Y-46111043D01*
%TO.C,C10*%
X185068866Y-78965000D02*
X185068866Y-59465000D01*
X177568866Y-59465000D02*
X177568866Y-78965000D01*
X185068866Y-59465000D02*
X177568866Y-59465000D01*
X177568866Y-78965000D02*
X185068866Y-78965000D01*
%TO.C,C9*%
X162328866Y-59465000D02*
X162328866Y-78965000D01*
X162328866Y-78965000D02*
X169828866Y-78965000D01*
X169828866Y-78965000D02*
X169828866Y-59465000D01*
X169828866Y-59465000D02*
X162328866Y-59465000D01*
%TO.C,U7*%
X116252341Y-79101926D02*
X116252341Y-89801926D01*
X116252341Y-89801926D02*
X124552341Y-89801926D01*
X124552341Y-89801926D02*
X124552341Y-79101926D01*
X124552341Y-79101926D02*
X116252341Y-79101926D01*
%TO.C,RV11*%
X187998866Y-50496043D02*
X187998866Y-46696043D01*
X197498866Y-50496043D02*
X197498866Y-46696043D01*
X197498866Y-50496043D02*
X187998866Y-50496043D01*
X197498866Y-46696043D02*
X187998866Y-46696043D01*
%TO.C,R11*%
X176818866Y-83489803D02*
X176818866Y-85389803D01*
X176818866Y-85389803D02*
X173118866Y-85389803D01*
X173118866Y-85389803D02*
X173118866Y-83489803D01*
X173118866Y-83489803D02*
X176818866Y-83489803D01*
%TO.C,R16*%
X86243566Y-68539552D02*
X83243566Y-68539552D01*
X86243566Y-73629552D02*
X86243566Y-68539552D01*
X83243566Y-73629552D02*
X86243566Y-73629552D01*
X83243566Y-68539552D02*
X83243566Y-73629552D01*
%TO.C,Q12*%
X67178202Y-86066335D02*
X67178202Y-89906335D01*
X70578202Y-89906335D02*
X70578202Y-86066335D01*
X70578202Y-86066335D02*
X67178202Y-86066335D01*
X67178202Y-89906335D02*
X70578202Y-89906335D01*
%TO.C,Q4*%
X82723866Y-54129606D02*
X82723866Y-59039606D01*
X93223866Y-54129606D02*
X82723866Y-54129606D01*
X82723866Y-59039606D02*
X93223866Y-59039606D01*
X93223866Y-59039606D02*
X93223866Y-54129606D01*
%TO.C,Q22*%
X187498866Y-54129606D02*
X187498866Y-59039606D01*
X197998866Y-54129606D02*
X187498866Y-54129606D01*
X197998866Y-59039606D02*
X197998866Y-54129606D01*
X187498866Y-59039606D02*
X197998866Y-59039606D01*
%TO.C,C8*%
X153953866Y-78965000D02*
X153953866Y-59465000D01*
X153953866Y-59465000D02*
X146453866Y-59465000D01*
X146453866Y-78965000D02*
X153953866Y-78965000D01*
X146453866Y-59465000D02*
X146453866Y-78965000D01*
%TO.C,R18*%
X127748866Y-73649803D02*
X130748866Y-73649803D01*
X130748866Y-68559803D02*
X127748866Y-68559803D01*
X127748866Y-68559803D02*
X127748866Y-73649803D01*
X130748866Y-73649803D02*
X130748866Y-68559803D01*
%TO.C,R14*%
X57098866Y-68559803D02*
X54098866Y-68559803D01*
X54098866Y-73649803D02*
X57098866Y-73649803D01*
X57098866Y-73649803D02*
X57098866Y-68559803D01*
X54098866Y-68559803D02*
X54098866Y-73649803D01*
%TO.C,D6*%
X111564929Y-76296780D02*
X111564929Y-81146780D01*
X111564929Y-81146780D02*
X116064929Y-81146780D01*
X116064929Y-76296780D02*
X111564929Y-76296780D01*
X116064929Y-81146780D02*
X116064929Y-76296780D01*
%TO.C,U12*%
X199438866Y-89789803D02*
X199438866Y-79089803D01*
X191138866Y-79089803D02*
X191138866Y-89789803D01*
X199438866Y-79089803D02*
X191138866Y-79089803D01*
X191138866Y-89789803D02*
X199438866Y-89789803D01*
%TO.C,R29*%
X145988866Y-67524803D02*
X145988866Y-62434803D01*
X142988866Y-67524803D02*
X145988866Y-67524803D01*
X145988866Y-62434803D02*
X142988866Y-62434803D01*
X142988866Y-62434803D02*
X142988866Y-67524803D01*
%TO.C,R13*%
X39308866Y-68559803D02*
X36308866Y-68559803D01*
X39308866Y-73649803D02*
X39308866Y-68559803D01*
X36308866Y-73649803D02*
X39308866Y-73649803D01*
X36308866Y-68559803D02*
X36308866Y-73649803D01*
%TO.C,R32*%
X47973866Y-50570000D02*
X42883866Y-50570000D01*
X42883866Y-50570000D02*
X42883866Y-53570000D01*
X47973866Y-53570000D02*
X47973866Y-50570000D01*
X42883866Y-53570000D02*
X47973866Y-53570000D01*
%TO.C,J11*%
X156465000Y-46111043D02*
X167465000Y-46111043D01*
X167465000Y-37111043D02*
X156465000Y-37111043D01*
X156465000Y-37111043D02*
X156465000Y-46111043D01*
X167465000Y-46111043D02*
X167465000Y-37111043D01*
%TO.C,R1*%
X93235866Y-111159803D02*
X96935866Y-111159803D01*
X96935866Y-113059803D02*
X93235866Y-113059803D01*
X96935866Y-111159803D02*
X96935866Y-113059803D01*
X93235866Y-113059803D02*
X93235866Y-111159803D01*
%TO.C,R42*%
X56215337Y-92012069D02*
X56215337Y-90112069D01*
X56215337Y-90112069D02*
X59915337Y-90112069D01*
X59915337Y-92012069D02*
X56215337Y-92012069D01*
X59915337Y-90112069D02*
X59915337Y-92012069D01*
%TO.C,Q14*%
X172588202Y-89906335D02*
X175988202Y-89906335D01*
X172588202Y-86066335D02*
X172588202Y-89906335D01*
X175988202Y-89906335D02*
X175988202Y-86066335D01*
X175988202Y-86066335D02*
X172588202Y-86066335D01*
%TO.C,R43*%
X74533976Y-92093283D02*
X70833976Y-92093283D01*
X70833976Y-92093283D02*
X70833976Y-90193283D01*
X70833976Y-90193283D02*
X74533976Y-90193283D01*
X74533976Y-90193283D02*
X74533976Y-92093283D01*
%TO.C,R39*%
X150833866Y-53570000D02*
X155923866Y-53570000D01*
X155923866Y-50570000D02*
X150833866Y-50570000D01*
X155923866Y-53570000D02*
X155923866Y-50570000D01*
X150833866Y-50570000D02*
X150833866Y-53570000D01*
%TO.C,PS1*%
X178873366Y-116902540D02*
X178873366Y-96402540D01*
X178873366Y-96402540D02*
X144373366Y-96402540D01*
X144373366Y-96402540D02*
X144373366Y-116902540D01*
X144373366Y-116902540D02*
X178873366Y-116902540D01*
%TO.C,Q11*%
X52573202Y-89906335D02*
X55973202Y-89906335D01*
X55973202Y-89906335D02*
X55973202Y-86066335D01*
X52573202Y-86066335D02*
X52573202Y-89906335D01*
X55973202Y-86066335D02*
X52573202Y-86066335D01*
%TO.C,Q17*%
X157348202Y-89906335D02*
X160748202Y-89906335D01*
X160748202Y-89906335D02*
X160748202Y-86066335D01*
X157348202Y-86066335D02*
X157348202Y-89906335D01*
X160748202Y-86066335D02*
X157348202Y-86066335D01*
%TO.C,U5*%
X86363866Y-89789803D02*
X94663866Y-89789803D01*
X94663866Y-79089803D02*
X86363866Y-79089803D01*
X86363866Y-79089803D02*
X86363866Y-89789803D01*
X94663866Y-89789803D02*
X94663866Y-79089803D01*
%TO.C,RV3*%
X78118866Y-50496043D02*
X68618866Y-50496043D01*
X78118866Y-46696043D02*
X68618866Y-46696043D01*
X78118866Y-50496043D02*
X78118866Y-46696043D01*
X68618866Y-50496043D02*
X68618866Y-46696043D01*
%TO.C,U6*%
X109913866Y-89799803D02*
X109913866Y-79099803D01*
X109913866Y-79099803D02*
X101613866Y-79099803D01*
X101613866Y-89799803D02*
X109913866Y-89799803D01*
X101613866Y-79099803D02*
X101613866Y-89799803D01*
%TO.C,R17*%
X113189469Y-73649803D02*
X116189469Y-73649803D01*
X116189469Y-68559803D02*
X113189469Y-68559803D01*
X116189469Y-73649803D02*
X116189469Y-68559803D01*
X113189469Y-68559803D02*
X113189469Y-73649803D01*
%TO.C,R36*%
X110203866Y-53570000D02*
X110203866Y-50570000D01*
X105113866Y-50570000D02*
X105113866Y-53570000D01*
X110203866Y-50570000D02*
X105113866Y-50570000D01*
X105113866Y-53570000D02*
X110203866Y-53570000D01*
%TO.C,R51*%
X137689845Y-91795533D02*
X137689845Y-89895533D01*
X141389845Y-89895533D02*
X141389845Y-91795533D01*
X137689845Y-89895533D02*
X141389845Y-89895533D01*
X141389845Y-91795533D02*
X137689845Y-91795533D01*
%TO.C,D9*%
X157348582Y-76292476D02*
X157348582Y-81142476D01*
X157348582Y-81142476D02*
X161848582Y-81142476D01*
X161848582Y-76292476D02*
X157348582Y-76292476D01*
X161848582Y-81142476D02*
X161848582Y-76292476D01*
%TO.C,R12*%
X98552569Y-73666891D02*
X101552569Y-73666891D01*
X101552569Y-68576891D02*
X98552569Y-68576891D01*
X101552569Y-73666891D02*
X101552569Y-68576891D01*
X98552569Y-68576891D02*
X98552569Y-73666891D01*
%TO.C,Q21*%
X111628202Y-86066335D02*
X111628202Y-89906335D01*
X115028202Y-86066335D02*
X111628202Y-86066335D01*
X111628202Y-89906335D02*
X115028202Y-89906335D01*
X115028202Y-89906335D02*
X115028202Y-86066335D01*
%TO.C,R10*%
X157878866Y-83489803D02*
X161578866Y-83489803D01*
X157878866Y-85389803D02*
X157878866Y-83489803D01*
X161578866Y-85389803D02*
X157878866Y-85389803D01*
X161578866Y-83489803D02*
X161578866Y-85389803D01*
%TO.C,R3*%
X53113866Y-85389803D02*
X53113866Y-83489803D01*
X53113866Y-83489803D02*
X56813866Y-83489803D01*
X56813866Y-85389803D02*
X53113866Y-85389803D01*
X56813866Y-83489803D02*
X56813866Y-85389803D01*
%TO.C,R15*%
X68693866Y-68559803D02*
X68693866Y-73649803D01*
X71693866Y-68559803D02*
X68693866Y-68559803D01*
X68693866Y-73649803D02*
X71693866Y-73649803D01*
X71693866Y-73649803D02*
X71693866Y-68559803D01*
%TO.C,Q16*%
X39463202Y-86066335D02*
X36063202Y-86066335D01*
X36063202Y-89906335D02*
X39463202Y-89906335D01*
X39463202Y-89906335D02*
X39463202Y-86066335D01*
X36063202Y-86066335D02*
X36063202Y-89906335D01*
%TO.C,Q6*%
X112568866Y-54129606D02*
X112568866Y-59039606D01*
X123068866Y-54129606D02*
X112568866Y-54129606D01*
X123068866Y-59039606D02*
X123068866Y-54129606D01*
X112568866Y-59039606D02*
X123068866Y-59039606D01*
%TO.C,R23*%
X36308866Y-62434803D02*
X36308866Y-67524803D01*
X36308866Y-67524803D02*
X39308866Y-67524803D01*
X39308866Y-67524803D02*
X39308866Y-62434803D01*
X39308866Y-62434803D02*
X36308866Y-62434803D01*
%TO.C,U4*%
X80058866Y-89789803D02*
X80058866Y-79089803D01*
X71758866Y-79089803D02*
X71758866Y-89789803D01*
X80058866Y-79089803D02*
X71758866Y-79089803D01*
X71758866Y-89789803D02*
X80058866Y-89789803D01*
%TO.C,JP4*%
X103088866Y-54120000D02*
X96988866Y-54120000D01*
X96988866Y-54120000D02*
X96988866Y-50570000D01*
X96988866Y-50570000D02*
X103088866Y-50570000D01*
X103088866Y-50570000D02*
X103088866Y-54120000D01*
%TO.C,R20*%
X158863866Y-73649803D02*
X161863866Y-73649803D01*
X158863866Y-68559803D02*
X158863866Y-73649803D01*
X161863866Y-73649803D02*
X161863866Y-68559803D01*
X161863866Y-68559803D02*
X158863866Y-68559803D01*
%TO.C,RV5*%
X107963866Y-50496043D02*
X107963866Y-46696043D01*
X107963866Y-46696043D02*
X98463866Y-46696043D01*
X98463866Y-50496043D02*
X98463866Y-46696043D01*
X107963866Y-50496043D02*
X98463866Y-50496043D01*
%TD*%
M02*
