%TF.GenerationSoftware,KiCad,Pcbnew,(6.0.4)*%
%TF.CreationDate,2022-05-07T15:09:03+02:00*%
%TF.ProjectId,Central Heating Control PBA,43656e74-7261-46c2-9048-656174696e67,2.0*%
%TF.SameCoordinates,Original*%
%TF.FileFunction,Copper,L2,Bot*%
%TF.FilePolarity,Positive*%
%FSLAX46Y46*%
G04 Gerber Fmt 4.6, Leading zero omitted, Abs format (unit mm)*
G04 Created by KiCad (PCBNEW (6.0.4)) date 2022-05-07 15:09:03*
%MOMM*%
%LPD*%
G01*
G04 APERTURE LIST*
%ADD10C,0.100000*%
%ADD11C,0.150000*%
%ADD12C,0.300000*%
%ADD13C,0.400000*%
%TA.AperFunction,Profile*%
%ADD14C,0.150000*%
%TD*%
%TA.AperFunction,NonConductor*%
%ADD15C,0.300000*%
%TD*%
%TA.AperFunction,ComponentPad*%
%ADD16R,1.800000X1.800000*%
%TD*%
%TA.AperFunction,ComponentPad*%
%ADD17C,1.800000*%
%TD*%
%TA.AperFunction,ComponentPad*%
%ADD18R,2.500000X2.500000*%
%TD*%
%TA.AperFunction,ComponentPad*%
%ADD19C,2.500000*%
%TD*%
%TA.AperFunction,ComponentPad*%
%ADD20R,1.600000X2.400000*%
%TD*%
%TA.AperFunction,ComponentPad*%
%ADD21O,1.600000X2.400000*%
%TD*%
%TA.AperFunction,ComponentPad*%
%ADD22C,1.600000*%
%TD*%
%TA.AperFunction,ComponentPad*%
%ADD23O,1.600000X1.600000*%
%TD*%
%TA.AperFunction,ComponentPad*%
%ADD24R,1.905000X2.000000*%
%TD*%
%TA.AperFunction,ComponentPad*%
%ADD25O,1.905000X2.000000*%
%TD*%
%TA.AperFunction,ComponentPad*%
%ADD26C,2.400000*%
%TD*%
%TA.AperFunction,ComponentPad*%
%ADD27R,1.700000X1.700000*%
%TD*%
%TA.AperFunction,ComponentPad*%
%ADD28O,1.700000X1.700000*%
%TD*%
%TA.AperFunction,ComponentPad*%
%ADD29R,3.000000X3.000000*%
%TD*%
%TA.AperFunction,ComponentPad*%
%ADD30C,3.000000*%
%TD*%
%TA.AperFunction,ComponentPad*%
%ADD31C,2.300000*%
%TD*%
%TA.AperFunction,ComponentPad*%
%ADD32R,1.524000X1.524000*%
%TD*%
%TA.AperFunction,ComponentPad*%
%ADD33C,1.524000*%
%TD*%
%TA.AperFunction,ComponentPad*%
%ADD34R,2.300000X2.000000*%
%TD*%
%TA.AperFunction,ViaPad*%
%ADD35C,0.600000*%
%TD*%
%TA.AperFunction,Conductor*%
%ADD36C,1.600000*%
%TD*%
%TA.AperFunction,Conductor*%
%ADD37C,0.800000*%
%TD*%
%TA.AperFunction,Conductor*%
%ADD38C,1.200000*%
%TD*%
%TA.AperFunction,Conductor*%
%ADD39C,1.500000*%
%TD*%
%TA.AperFunction,Conductor*%
%ADD40C,0.500000*%
%TD*%
%TA.AperFunction,Conductor*%
%ADD41C,2.000000*%
%TD*%
G04 APERTURE END LIST*
D10*
D11*
X177002200Y-166007200D02*
X177002200Y-198007200D01*
X285002200Y-198007200D01*
X285002200Y-166007200D01*
X177002200Y-166007200D01*
D10*
D11*
X10000000Y-10000000D02*
X10000000Y-200007200D01*
X287002200Y-200007200D01*
X287002200Y-10000000D01*
X10000000Y-10000000D01*
D10*
D11*
X12000000Y-12000000D02*
X12000000Y-198007200D01*
X285002200Y-198007200D01*
X285002200Y-12000000D01*
X12000000Y-12000000D01*
D10*
D11*
X60000000Y-12000000D02*
X60000000Y-10000000D01*
D10*
D11*
X110000000Y-12000000D02*
X110000000Y-10000000D01*
D10*
D11*
X160000000Y-12000000D02*
X160000000Y-10000000D01*
D10*
D11*
X210000000Y-12000000D02*
X210000000Y-10000000D01*
D10*
D11*
X260000000Y-12000000D02*
X260000000Y-10000000D01*
D10*
D11*
X36065476Y-11588095D02*
X35322619Y-11588095D01*
X35694047Y-11588095D02*
X35694047Y-10288095D01*
X35570238Y-10473809D01*
X35446428Y-10597619D01*
X35322619Y-10659523D01*
D10*
D11*
X85322619Y-10411904D02*
X85384523Y-10350000D01*
X85508333Y-10288095D01*
X85817857Y-10288095D01*
X85941666Y-10350000D01*
X86003571Y-10411904D01*
X86065476Y-10535714D01*
X86065476Y-10659523D01*
X86003571Y-10845238D01*
X85260714Y-11588095D01*
X86065476Y-11588095D01*
D10*
D11*
X135260714Y-10288095D02*
X136065476Y-10288095D01*
X135632142Y-10783333D01*
X135817857Y-10783333D01*
X135941666Y-10845238D01*
X136003571Y-10907142D01*
X136065476Y-11030952D01*
X136065476Y-11340476D01*
X136003571Y-11464285D01*
X135941666Y-11526190D01*
X135817857Y-11588095D01*
X135446428Y-11588095D01*
X135322619Y-11526190D01*
X135260714Y-11464285D01*
D10*
D11*
X185941666Y-10721428D02*
X185941666Y-11588095D01*
X185632142Y-10226190D02*
X185322619Y-11154761D01*
X186127380Y-11154761D01*
D10*
D11*
X236003571Y-10288095D02*
X235384523Y-10288095D01*
X235322619Y-10907142D01*
X235384523Y-10845238D01*
X235508333Y-10783333D01*
X235817857Y-10783333D01*
X235941666Y-10845238D01*
X236003571Y-10907142D01*
X236065476Y-11030952D01*
X236065476Y-11340476D01*
X236003571Y-11464285D01*
X235941666Y-11526190D01*
X235817857Y-11588095D01*
X235508333Y-11588095D01*
X235384523Y-11526190D01*
X235322619Y-11464285D01*
D10*
D11*
X285941666Y-10288095D02*
X285694047Y-10288095D01*
X285570238Y-10350000D01*
X285508333Y-10411904D01*
X285384523Y-10597619D01*
X285322619Y-10845238D01*
X285322619Y-11340476D01*
X285384523Y-11464285D01*
X285446428Y-11526190D01*
X285570238Y-11588095D01*
X285817857Y-11588095D01*
X285941666Y-11526190D01*
X286003571Y-11464285D01*
X286065476Y-11340476D01*
X286065476Y-11030952D01*
X286003571Y-10907142D01*
X285941666Y-10845238D01*
X285817857Y-10783333D01*
X285570238Y-10783333D01*
X285446428Y-10845238D01*
X285384523Y-10907142D01*
X285322619Y-11030952D01*
D10*
D11*
X60000000Y-198007200D02*
X60000000Y-200007200D01*
D10*
D11*
X110000000Y-198007200D02*
X110000000Y-200007200D01*
D10*
D11*
X160000000Y-198007200D02*
X160000000Y-200007200D01*
D10*
D11*
X210000000Y-198007200D02*
X210000000Y-200007200D01*
D10*
D11*
X260000000Y-198007200D02*
X260000000Y-200007200D01*
D10*
D11*
X36065476Y-199595295D02*
X35322619Y-199595295D01*
X35694047Y-199595295D02*
X35694047Y-198295295D01*
X35570238Y-198481009D01*
X35446428Y-198604819D01*
X35322619Y-198666723D01*
D10*
D11*
X85322619Y-198419104D02*
X85384523Y-198357200D01*
X85508333Y-198295295D01*
X85817857Y-198295295D01*
X85941666Y-198357200D01*
X86003571Y-198419104D01*
X86065476Y-198542914D01*
X86065476Y-198666723D01*
X86003571Y-198852438D01*
X85260714Y-199595295D01*
X86065476Y-199595295D01*
D10*
D11*
X135260714Y-198295295D02*
X136065476Y-198295295D01*
X135632142Y-198790533D01*
X135817857Y-198790533D01*
X135941666Y-198852438D01*
X136003571Y-198914342D01*
X136065476Y-199038152D01*
X136065476Y-199347676D01*
X136003571Y-199471485D01*
X135941666Y-199533390D01*
X135817857Y-199595295D01*
X135446428Y-199595295D01*
X135322619Y-199533390D01*
X135260714Y-199471485D01*
D10*
D11*
X185941666Y-198728628D02*
X185941666Y-199595295D01*
X185632142Y-198233390D02*
X185322619Y-199161961D01*
X186127380Y-199161961D01*
D10*
D11*
X236003571Y-198295295D02*
X235384523Y-198295295D01*
X235322619Y-198914342D01*
X235384523Y-198852438D01*
X235508333Y-198790533D01*
X235817857Y-198790533D01*
X235941666Y-198852438D01*
X236003571Y-198914342D01*
X236065476Y-199038152D01*
X236065476Y-199347676D01*
X236003571Y-199471485D01*
X235941666Y-199533390D01*
X235817857Y-199595295D01*
X235508333Y-199595295D01*
X235384523Y-199533390D01*
X235322619Y-199471485D01*
D10*
D11*
X285941666Y-198295295D02*
X285694047Y-198295295D01*
X285570238Y-198357200D01*
X285508333Y-198419104D01*
X285384523Y-198604819D01*
X285322619Y-198852438D01*
X285322619Y-199347676D01*
X285384523Y-199471485D01*
X285446428Y-199533390D01*
X285570238Y-199595295D01*
X285817857Y-199595295D01*
X285941666Y-199533390D01*
X286003571Y-199471485D01*
X286065476Y-199347676D01*
X286065476Y-199038152D01*
X286003571Y-198914342D01*
X285941666Y-198852438D01*
X285817857Y-198790533D01*
X285570238Y-198790533D01*
X285446428Y-198852438D01*
X285384523Y-198914342D01*
X285322619Y-199038152D01*
D10*
D11*
X10000000Y-60000000D02*
X12000000Y-60000000D01*
D10*
D11*
X10000000Y-110000000D02*
X12000000Y-110000000D01*
D10*
D11*
X10000000Y-160000000D02*
X12000000Y-160000000D01*
D10*
D11*
X10690476Y-35216666D02*
X11309523Y-35216666D01*
X10566666Y-35588095D02*
X11000000Y-34288095D01*
X11433333Y-35588095D01*
D10*
D11*
X11092857Y-84907142D02*
X11278571Y-84969047D01*
X11340476Y-85030952D01*
X11402380Y-85154761D01*
X11402380Y-85340476D01*
X11340476Y-85464285D01*
X11278571Y-85526190D01*
X11154761Y-85588095D01*
X10659523Y-85588095D01*
X10659523Y-84288095D01*
X11092857Y-84288095D01*
X11216666Y-84350000D01*
X11278571Y-84411904D01*
X11340476Y-84535714D01*
X11340476Y-84659523D01*
X11278571Y-84783333D01*
X11216666Y-84845238D01*
X11092857Y-84907142D01*
X10659523Y-84907142D01*
D10*
D11*
X11402380Y-135464285D02*
X11340476Y-135526190D01*
X11154761Y-135588095D01*
X11030952Y-135588095D01*
X10845238Y-135526190D01*
X10721428Y-135402380D01*
X10659523Y-135278571D01*
X10597619Y-135030952D01*
X10597619Y-134845238D01*
X10659523Y-134597619D01*
X10721428Y-134473809D01*
X10845238Y-134350000D01*
X11030952Y-134288095D01*
X11154761Y-134288095D01*
X11340476Y-134350000D01*
X11402380Y-134411904D01*
D10*
D11*
X10659523Y-185588095D02*
X10659523Y-184288095D01*
X10969047Y-184288095D01*
X11154761Y-184350000D01*
X11278571Y-184473809D01*
X11340476Y-184597619D01*
X11402380Y-184845238D01*
X11402380Y-185030952D01*
X11340476Y-185278571D01*
X11278571Y-185402380D01*
X11154761Y-185526190D01*
X10969047Y-185588095D01*
X10659523Y-185588095D01*
D10*
D11*
X287002200Y-60000000D02*
X285002200Y-60000000D01*
D10*
D11*
X287002200Y-110000000D02*
X285002200Y-110000000D01*
D10*
D11*
X287002200Y-160000000D02*
X285002200Y-160000000D01*
D10*
D11*
X285692676Y-35216666D02*
X286311723Y-35216666D01*
X285568866Y-35588095D02*
X286002200Y-34288095D01*
X286435533Y-35588095D01*
D10*
D11*
X286095057Y-84907142D02*
X286280771Y-84969047D01*
X286342676Y-85030952D01*
X286404580Y-85154761D01*
X286404580Y-85340476D01*
X286342676Y-85464285D01*
X286280771Y-85526190D01*
X286156961Y-85588095D01*
X285661723Y-85588095D01*
X285661723Y-84288095D01*
X286095057Y-84288095D01*
X286218866Y-84350000D01*
X286280771Y-84411904D01*
X286342676Y-84535714D01*
X286342676Y-84659523D01*
X286280771Y-84783333D01*
X286218866Y-84845238D01*
X286095057Y-84907142D01*
X285661723Y-84907142D01*
D10*
D11*
X286404580Y-135464285D02*
X286342676Y-135526190D01*
X286156961Y-135588095D01*
X286033152Y-135588095D01*
X285847438Y-135526190D01*
X285723628Y-135402380D01*
X285661723Y-135278571D01*
X285599819Y-135030952D01*
X285599819Y-134845238D01*
X285661723Y-134597619D01*
X285723628Y-134473809D01*
X285847438Y-134350000D01*
X286033152Y-134288095D01*
X286156961Y-134288095D01*
X286342676Y-134350000D01*
X286404580Y-134411904D01*
D10*
D11*
X285661723Y-185588095D02*
X285661723Y-184288095D01*
X285971247Y-184288095D01*
X286156961Y-184350000D01*
X286280771Y-184473809D01*
X286342676Y-184597619D01*
X286404580Y-184845238D01*
X286404580Y-185030952D01*
X286342676Y-185278571D01*
X286280771Y-185402380D01*
X286156961Y-185526190D01*
X285971247Y-185588095D01*
X285661723Y-185588095D01*
D10*
D11*
X200434342Y-193785771D02*
X200434342Y-192285771D01*
X200791485Y-192285771D01*
X201005771Y-192357200D01*
X201148628Y-192500057D01*
X201220057Y-192642914D01*
X201291485Y-192928628D01*
X201291485Y-193142914D01*
X201220057Y-193428628D01*
X201148628Y-193571485D01*
X201005771Y-193714342D01*
X200791485Y-193785771D01*
X200434342Y-193785771D01*
X202577200Y-193785771D02*
X202577200Y-193000057D01*
X202505771Y-192857200D01*
X202362914Y-192785771D01*
X202077200Y-192785771D01*
X201934342Y-192857200D01*
X202577200Y-193714342D02*
X202434342Y-193785771D01*
X202077200Y-193785771D01*
X201934342Y-193714342D01*
X201862914Y-193571485D01*
X201862914Y-193428628D01*
X201934342Y-193285771D01*
X202077200Y-193214342D01*
X202434342Y-193214342D01*
X202577200Y-193142914D01*
X203077200Y-192785771D02*
X203648628Y-192785771D01*
X203291485Y-192285771D02*
X203291485Y-193571485D01*
X203362914Y-193714342D01*
X203505771Y-193785771D01*
X203648628Y-193785771D01*
X204720057Y-193714342D02*
X204577200Y-193785771D01*
X204291485Y-193785771D01*
X204148628Y-193714342D01*
X204077200Y-193571485D01*
X204077200Y-193000057D01*
X204148628Y-192857200D01*
X204291485Y-192785771D01*
X204577200Y-192785771D01*
X204720057Y-192857200D01*
X204791485Y-193000057D01*
X204791485Y-193142914D01*
X204077200Y-193285771D01*
X205434342Y-193642914D02*
X205505771Y-193714342D01*
X205434342Y-193785771D01*
X205362914Y-193714342D01*
X205434342Y-193642914D01*
X205434342Y-193785771D01*
X205434342Y-192857200D02*
X205505771Y-192928628D01*
X205434342Y-193000057D01*
X205362914Y-192928628D01*
X205434342Y-192857200D01*
X205434342Y-193000057D01*
X207220057Y-192428628D02*
X207291485Y-192357200D01*
X207434342Y-192285771D01*
X207791485Y-192285771D01*
X207934342Y-192357200D01*
X208005771Y-192428628D01*
X208077200Y-192571485D01*
X208077200Y-192714342D01*
X208005771Y-192928628D01*
X207148628Y-193785771D01*
X208077200Y-193785771D01*
X209005771Y-192285771D02*
X209148628Y-192285771D01*
X209291485Y-192357200D01*
X209362914Y-192428628D01*
X209434342Y-192571485D01*
X209505771Y-192857200D01*
X209505771Y-193214342D01*
X209434342Y-193500057D01*
X209362914Y-193642914D01*
X209291485Y-193714342D01*
X209148628Y-193785771D01*
X209005771Y-193785771D01*
X208862914Y-193714342D01*
X208791485Y-193642914D01*
X208720057Y-193500057D01*
X208648628Y-193214342D01*
X208648628Y-192857200D01*
X208720057Y-192571485D01*
X208791485Y-192428628D01*
X208862914Y-192357200D01*
X209005771Y-192285771D01*
X210077200Y-192428628D02*
X210148628Y-192357200D01*
X210291485Y-192285771D01*
X210648628Y-192285771D01*
X210791485Y-192357200D01*
X210862914Y-192428628D01*
X210934342Y-192571485D01*
X210934342Y-192714342D01*
X210862914Y-192928628D01*
X210005771Y-193785771D01*
X210934342Y-193785771D01*
X211505771Y-192428628D02*
X211577200Y-192357200D01*
X211720057Y-192285771D01*
X212077200Y-192285771D01*
X212220057Y-192357200D01*
X212291485Y-192428628D01*
X212362914Y-192571485D01*
X212362914Y-192714342D01*
X212291485Y-192928628D01*
X211434342Y-193785771D01*
X212362914Y-193785771D01*
X213005771Y-193214342D02*
X214148628Y-193214342D01*
X215148628Y-192285771D02*
X215291485Y-192285771D01*
X215434342Y-192357200D01*
X215505771Y-192428628D01*
X215577200Y-192571485D01*
X215648628Y-192857200D01*
X215648628Y-193214342D01*
X215577200Y-193500057D01*
X215505771Y-193642914D01*
X215434342Y-193714342D01*
X215291485Y-193785771D01*
X215148628Y-193785771D01*
X215005771Y-193714342D01*
X214934342Y-193642914D01*
X214862914Y-193500057D01*
X214791485Y-193214342D01*
X214791485Y-192857200D01*
X214862914Y-192571485D01*
X214934342Y-192428628D01*
X215005771Y-192357200D01*
X215148628Y-192285771D01*
X217005771Y-192285771D02*
X216291485Y-192285771D01*
X216220057Y-193000057D01*
X216291485Y-192928628D01*
X216434342Y-192857200D01*
X216791485Y-192857200D01*
X216934342Y-192928628D01*
X217005771Y-193000057D01*
X217077200Y-193142914D01*
X217077200Y-193500057D01*
X217005771Y-193642914D01*
X216934342Y-193714342D01*
X216791485Y-193785771D01*
X216434342Y-193785771D01*
X216291485Y-193714342D01*
X216220057Y-193642914D01*
X217720057Y-193214342D02*
X218862914Y-193214342D01*
X219862914Y-192285771D02*
X220005771Y-192285771D01*
X220148628Y-192357200D01*
X220220057Y-192428628D01*
X220291485Y-192571485D01*
X220362914Y-192857200D01*
X220362914Y-193214342D01*
X220291485Y-193500057D01*
X220220057Y-193642914D01*
X220148628Y-193714342D01*
X220005771Y-193785771D01*
X219862914Y-193785771D01*
X219720057Y-193714342D01*
X219648628Y-193642914D01*
X219577200Y-193500057D01*
X219505771Y-193214342D01*
X219505771Y-192857200D01*
X219577200Y-192571485D01*
X219648628Y-192428628D01*
X219720057Y-192357200D01*
X219862914Y-192285771D01*
X220862914Y-192285771D02*
X221862914Y-192285771D01*
X221220057Y-193785771D01*
D10*
D11*
X177002200Y-194507200D02*
X285002200Y-194507200D01*
D10*
D11*
X178434342Y-196585771D02*
X178434342Y-195085771D01*
X179291485Y-196585771D02*
X178648628Y-195728628D01*
X179291485Y-195085771D02*
X178434342Y-195942914D01*
X179934342Y-196585771D02*
X179934342Y-195585771D01*
X179934342Y-195085771D02*
X179862914Y-195157200D01*
X179934342Y-195228628D01*
X180005771Y-195157200D01*
X179934342Y-195085771D01*
X179934342Y-195228628D01*
X181505771Y-196442914D02*
X181434342Y-196514342D01*
X181220057Y-196585771D01*
X181077200Y-196585771D01*
X180862914Y-196514342D01*
X180720057Y-196371485D01*
X180648628Y-196228628D01*
X180577200Y-195942914D01*
X180577200Y-195728628D01*
X180648628Y-195442914D01*
X180720057Y-195300057D01*
X180862914Y-195157200D01*
X181077200Y-195085771D01*
X181220057Y-195085771D01*
X181434342Y-195157200D01*
X181505771Y-195228628D01*
X182791485Y-196585771D02*
X182791485Y-195800057D01*
X182720057Y-195657200D01*
X182577200Y-195585771D01*
X182291485Y-195585771D01*
X182148628Y-195657200D01*
X182791485Y-196514342D02*
X182648628Y-196585771D01*
X182291485Y-196585771D01*
X182148628Y-196514342D01*
X182077200Y-196371485D01*
X182077200Y-196228628D01*
X182148628Y-196085771D01*
X182291485Y-196014342D01*
X182648628Y-196014342D01*
X182791485Y-195942914D01*
X184148628Y-196585771D02*
X184148628Y-195085771D01*
X184148628Y-196514342D02*
X184005771Y-196585771D01*
X183720057Y-196585771D01*
X183577200Y-196514342D01*
X183505771Y-196442914D01*
X183434342Y-196300057D01*
X183434342Y-195871485D01*
X183505771Y-195728628D01*
X183577200Y-195657200D01*
X183720057Y-195585771D01*
X184005771Y-195585771D01*
X184148628Y-195657200D01*
X186005771Y-195800057D02*
X186505771Y-195800057D01*
X186720057Y-196585771D02*
X186005771Y-196585771D01*
X186005771Y-195085771D01*
X186720057Y-195085771D01*
X187362914Y-196442914D02*
X187434342Y-196514342D01*
X187362914Y-196585771D01*
X187291485Y-196514342D01*
X187362914Y-196442914D01*
X187362914Y-196585771D01*
X188077200Y-196585771D02*
X188077200Y-195085771D01*
X188434342Y-195085771D01*
X188648628Y-195157200D01*
X188791485Y-195300057D01*
X188862914Y-195442914D01*
X188934342Y-195728628D01*
X188934342Y-195942914D01*
X188862914Y-196228628D01*
X188791485Y-196371485D01*
X188648628Y-196514342D01*
X188434342Y-196585771D01*
X188077200Y-196585771D01*
X189577200Y-196442914D02*
X189648628Y-196514342D01*
X189577200Y-196585771D01*
X189505771Y-196514342D01*
X189577200Y-196442914D01*
X189577200Y-196585771D01*
X190220057Y-196157200D02*
X190934342Y-196157200D01*
X190077200Y-196585771D02*
X190577200Y-195085771D01*
X191077200Y-196585771D01*
X191577200Y-196442914D02*
X191648628Y-196514342D01*
X191577200Y-196585771D01*
X191505771Y-196514342D01*
X191577200Y-196442914D01*
X191577200Y-196585771D01*
X194577200Y-196585771D02*
X194577200Y-195085771D01*
X194720057Y-196014342D02*
X195148628Y-196585771D01*
X195148628Y-195585771D02*
X194577200Y-196157200D01*
X195791485Y-196585771D02*
X195791485Y-195585771D01*
X195791485Y-195085771D02*
X195720057Y-195157200D01*
X195791485Y-195228628D01*
X195862914Y-195157200D01*
X195791485Y-195085771D01*
X195791485Y-195228628D01*
X197148628Y-196514342D02*
X197005771Y-196585771D01*
X196720057Y-196585771D01*
X196577200Y-196514342D01*
X196505771Y-196442914D01*
X196434342Y-196300057D01*
X196434342Y-195871485D01*
X196505771Y-195728628D01*
X196577200Y-195657200D01*
X196720057Y-195585771D01*
X197005771Y-195585771D01*
X197148628Y-195657200D01*
X198434342Y-196585771D02*
X198434342Y-195800057D01*
X198362914Y-195657200D01*
X198220057Y-195585771D01*
X197934342Y-195585771D01*
X197791485Y-195657200D01*
X198434342Y-196514342D02*
X198291485Y-196585771D01*
X197934342Y-196585771D01*
X197791485Y-196514342D01*
X197720057Y-196371485D01*
X197720057Y-196228628D01*
X197791485Y-196085771D01*
X197934342Y-196014342D01*
X198291485Y-196014342D01*
X198434342Y-195942914D01*
X199791485Y-196585771D02*
X199791485Y-195085771D01*
X199791485Y-196514342D02*
X199648628Y-196585771D01*
X199362914Y-196585771D01*
X199220057Y-196514342D01*
X199148628Y-196442914D01*
X199077200Y-196300057D01*
X199077200Y-195871485D01*
X199148628Y-195728628D01*
X199220057Y-195657200D01*
X199362914Y-195585771D01*
X199648628Y-195585771D01*
X199791485Y-195657200D01*
X202077200Y-197157200D02*
X202005771Y-197085771D01*
X201862914Y-196871485D01*
X201791485Y-196728628D01*
X201720057Y-196514342D01*
X201648628Y-196157200D01*
X201648628Y-195871485D01*
X201720057Y-195514342D01*
X201791485Y-195300057D01*
X201862914Y-195157200D01*
X202005771Y-194942914D01*
X202077200Y-194871485D01*
X203291485Y-195085771D02*
X203005771Y-195085771D01*
X202862914Y-195157200D01*
X202791485Y-195228628D01*
X202648628Y-195442914D01*
X202577200Y-195728628D01*
X202577200Y-196300057D01*
X202648628Y-196442914D01*
X202720057Y-196514342D01*
X202862914Y-196585771D01*
X203148628Y-196585771D01*
X203291485Y-196514342D01*
X203362914Y-196442914D01*
X203434342Y-196300057D01*
X203434342Y-195942914D01*
X203362914Y-195800057D01*
X203291485Y-195728628D01*
X203148628Y-195657200D01*
X202862914Y-195657200D01*
X202720057Y-195728628D01*
X202648628Y-195800057D01*
X202577200Y-195942914D01*
X204077200Y-196442914D02*
X204148628Y-196514342D01*
X204077200Y-196585771D01*
X204005771Y-196514342D01*
X204077200Y-196442914D01*
X204077200Y-196585771D01*
X205077200Y-195085771D02*
X205220057Y-195085771D01*
X205362914Y-195157200D01*
X205434342Y-195228628D01*
X205505771Y-195371485D01*
X205577200Y-195657200D01*
X205577200Y-196014342D01*
X205505771Y-196300057D01*
X205434342Y-196442914D01*
X205362914Y-196514342D01*
X205220057Y-196585771D01*
X205077200Y-196585771D01*
X204934342Y-196514342D01*
X204862914Y-196442914D01*
X204791485Y-196300057D01*
X204720057Y-196014342D01*
X204720057Y-195657200D01*
X204791485Y-195371485D01*
X204862914Y-195228628D01*
X204934342Y-195157200D01*
X205077200Y-195085771D01*
X206220057Y-196442914D02*
X206291485Y-196514342D01*
X206220057Y-196585771D01*
X206148628Y-196514342D01*
X206220057Y-196442914D01*
X206220057Y-196585771D01*
X207577200Y-195585771D02*
X207577200Y-196585771D01*
X207220057Y-195014342D02*
X206862914Y-196085771D01*
X207791485Y-196085771D01*
X208220057Y-197157200D02*
X208291485Y-197085771D01*
X208434342Y-196871485D01*
X208505771Y-196728628D01*
X208577200Y-196514342D01*
X208648628Y-196157200D01*
X208648628Y-195871485D01*
X208577200Y-195514342D01*
X208505771Y-195300057D01*
X208434342Y-195157200D01*
X208291485Y-194942914D01*
X208220057Y-194871485D01*
D10*
D11*
X177002200Y-191507200D02*
X285002200Y-191507200D01*
D10*
D12*
X264411485Y-193785771D02*
X263911485Y-193071485D01*
X263554342Y-193785771D02*
X263554342Y-192285771D01*
X264125771Y-192285771D01*
X264268628Y-192357200D01*
X264340057Y-192428628D01*
X264411485Y-192571485D01*
X264411485Y-192785771D01*
X264340057Y-192928628D01*
X264268628Y-193000057D01*
X264125771Y-193071485D01*
X263554342Y-193071485D01*
X265625771Y-193714342D02*
X265482914Y-193785771D01*
X265197200Y-193785771D01*
X265054342Y-193714342D01*
X264982914Y-193571485D01*
X264982914Y-193000057D01*
X265054342Y-192857200D01*
X265197200Y-192785771D01*
X265482914Y-192785771D01*
X265625771Y-192857200D01*
X265697200Y-193000057D01*
X265697200Y-193142914D01*
X264982914Y-193285771D01*
X266197200Y-192785771D02*
X266554342Y-193785771D01*
X266911485Y-192785771D01*
X267482914Y-193642914D02*
X267554342Y-193714342D01*
X267482914Y-193785771D01*
X267411485Y-193714342D01*
X267482914Y-193642914D01*
X267482914Y-193785771D01*
X267482914Y-192857200D02*
X267554342Y-192928628D01*
X267482914Y-193000057D01*
X267411485Y-192928628D01*
X267482914Y-192857200D01*
X267482914Y-193000057D01*
X269268628Y-192428628D02*
X269340057Y-192357200D01*
X269482914Y-192285771D01*
X269840057Y-192285771D01*
X269982914Y-192357200D01*
X270054342Y-192428628D01*
X270125771Y-192571485D01*
X270125771Y-192714342D01*
X270054342Y-192928628D01*
X269197200Y-193785771D01*
X270125771Y-193785771D01*
X270768628Y-193642914D02*
X270840057Y-193714342D01*
X270768628Y-193785771D01*
X270697200Y-193714342D01*
X270768628Y-193642914D01*
X270768628Y-193785771D01*
X271768628Y-192285771D02*
X271911485Y-192285771D01*
X272054342Y-192357200D01*
X272125771Y-192428628D01*
X272197200Y-192571485D01*
X272268628Y-192857200D01*
X272268628Y-193214342D01*
X272197200Y-193500057D01*
X272125771Y-193642914D01*
X272054342Y-193714342D01*
X271911485Y-193785771D01*
X271768628Y-193785771D01*
X271625771Y-193714342D01*
X271554342Y-193642914D01*
X271482914Y-193500057D01*
X271411485Y-193214342D01*
X271411485Y-192857200D01*
X271482914Y-192571485D01*
X271554342Y-192428628D01*
X271625771Y-192357200D01*
X271768628Y-192285771D01*
D10*
D11*
X178362914Y-193714342D02*
X178577200Y-193785771D01*
X178934342Y-193785771D01*
X179077200Y-193714342D01*
X179148628Y-193642914D01*
X179220057Y-193500057D01*
X179220057Y-193357200D01*
X179148628Y-193214342D01*
X179077200Y-193142914D01*
X178934342Y-193071485D01*
X178648628Y-193000057D01*
X178505771Y-192928628D01*
X178434342Y-192857200D01*
X178362914Y-192714342D01*
X178362914Y-192571485D01*
X178434342Y-192428628D01*
X178505771Y-192357200D01*
X178648628Y-192285771D01*
X179005771Y-192285771D01*
X179220057Y-192357200D01*
X179862914Y-193785771D02*
X179862914Y-192785771D01*
X179862914Y-192285771D02*
X179791485Y-192357200D01*
X179862914Y-192428628D01*
X179934342Y-192357200D01*
X179862914Y-192285771D01*
X179862914Y-192428628D01*
X180434342Y-192785771D02*
X181220057Y-192785771D01*
X180434342Y-193785771D01*
X181220057Y-193785771D01*
X182362914Y-193714342D02*
X182220057Y-193785771D01*
X181934342Y-193785771D01*
X181791485Y-193714342D01*
X181720057Y-193571485D01*
X181720057Y-193000057D01*
X181791485Y-192857200D01*
X181934342Y-192785771D01*
X182220057Y-192785771D01*
X182362914Y-192857200D01*
X182434342Y-193000057D01*
X182434342Y-193142914D01*
X181720057Y-193285771D01*
X183077200Y-193642914D02*
X183148628Y-193714342D01*
X183077200Y-193785771D01*
X183005771Y-193714342D01*
X183077200Y-193642914D01*
X183077200Y-193785771D01*
X183077200Y-192857200D02*
X183148628Y-192928628D01*
X183077200Y-193000057D01*
X183005771Y-192928628D01*
X183077200Y-192857200D01*
X183077200Y-193000057D01*
X184862914Y-193357200D02*
X185577200Y-193357200D01*
X184720057Y-193785771D02*
X185220057Y-192285771D01*
X185720057Y-193785771D01*
X186862914Y-192785771D02*
X186862914Y-193785771D01*
X186505771Y-192214342D02*
X186148628Y-193285771D01*
X187077200Y-193285771D01*
D10*
D11*
X263434342Y-196585771D02*
X263434342Y-195085771D01*
X264791485Y-196585771D02*
X264791485Y-195085771D01*
X264791485Y-196514342D02*
X264648628Y-196585771D01*
X264362914Y-196585771D01*
X264220057Y-196514342D01*
X264148628Y-196442914D01*
X264077200Y-196300057D01*
X264077200Y-195871485D01*
X264148628Y-195728628D01*
X264220057Y-195657200D01*
X264362914Y-195585771D01*
X264648628Y-195585771D01*
X264791485Y-195657200D01*
X265505771Y-196442914D02*
X265577200Y-196514342D01*
X265505771Y-196585771D01*
X265434342Y-196514342D01*
X265505771Y-196442914D01*
X265505771Y-196585771D01*
X265505771Y-195657200D02*
X265577200Y-195728628D01*
X265505771Y-195800057D01*
X265434342Y-195728628D01*
X265505771Y-195657200D01*
X265505771Y-195800057D01*
X268148628Y-196585771D02*
X267291485Y-196585771D01*
X267720057Y-196585771D02*
X267720057Y-195085771D01*
X267577200Y-195300057D01*
X267434342Y-195442914D01*
X267291485Y-195514342D01*
X269862914Y-195014342D02*
X268577200Y-196942914D01*
X271148628Y-196585771D02*
X270291485Y-196585771D01*
X270720057Y-196585771D02*
X270720057Y-195085771D01*
X270577200Y-195300057D01*
X270434342Y-195442914D01*
X270291485Y-195514342D01*
D10*
D11*
X177002200Y-187507200D02*
X285002200Y-187507200D01*
D10*
D13*
X178714580Y-188211961D02*
X179857438Y-188211961D01*
X179036009Y-190211961D02*
X179286009Y-188211961D01*
X180274104Y-190211961D02*
X180440771Y-188878628D01*
X180524104Y-188211961D02*
X180416961Y-188307200D01*
X180500295Y-188402438D01*
X180607438Y-188307200D01*
X180524104Y-188211961D01*
X180500295Y-188402438D01*
X181107438Y-188878628D02*
X181869342Y-188878628D01*
X181476485Y-188211961D02*
X181262200Y-189926247D01*
X181333628Y-190116723D01*
X181512200Y-190211961D01*
X181702676Y-190211961D01*
X182655057Y-190211961D02*
X182476485Y-190116723D01*
X182405057Y-189926247D01*
X182619342Y-188211961D01*
X184190771Y-190116723D02*
X183988390Y-190211961D01*
X183607438Y-190211961D01*
X183428866Y-190116723D01*
X183357438Y-189926247D01*
X183452676Y-189164342D01*
X183571723Y-188973866D01*
X183774104Y-188878628D01*
X184155057Y-188878628D01*
X184333628Y-188973866D01*
X184405057Y-189164342D01*
X184381247Y-189354819D01*
X183405057Y-189545295D01*
X185155057Y-190021485D02*
X185238390Y-190116723D01*
X185131247Y-190211961D01*
X185047914Y-190116723D01*
X185155057Y-190021485D01*
X185131247Y-190211961D01*
X185286009Y-188973866D02*
X185369342Y-189069104D01*
X185262200Y-189164342D01*
X185178866Y-189069104D01*
X185286009Y-188973866D01*
X185262200Y-189164342D01*
X187607438Y-190211961D02*
X187857438Y-188211961D01*
X188619342Y-188211961D01*
X188797914Y-188307200D01*
X188881247Y-188402438D01*
X188952676Y-188592914D01*
X188916961Y-188878628D01*
X188797914Y-189069104D01*
X188690771Y-189164342D01*
X188488390Y-189259580D01*
X187726485Y-189259580D01*
X189893152Y-190211961D02*
X189714580Y-190116723D01*
X189643152Y-189926247D01*
X189857438Y-188211961D01*
X190631247Y-188878628D02*
X190940771Y-190211961D01*
X191583628Y-188878628D02*
X190940771Y-190211961D01*
X190690771Y-190688152D01*
X190583628Y-190783390D01*
X190381247Y-190878628D01*
X192059819Y-188878628D02*
X192821723Y-188878628D01*
X192428866Y-188211961D02*
X192214580Y-189926247D01*
X192286009Y-190116723D01*
X192464580Y-190211961D01*
X192655057Y-190211961D01*
X194178866Y-190211961D02*
X194309819Y-189164342D01*
X194238390Y-188973866D01*
X194059819Y-188878628D01*
X193678866Y-188878628D01*
X193476485Y-188973866D01*
X194190771Y-190116723D02*
X193988390Y-190211961D01*
X193512200Y-190211961D01*
X193333628Y-190116723D01*
X193262200Y-189926247D01*
X193286009Y-189735771D01*
X193405057Y-189545295D01*
X193607438Y-189450057D01*
X194083628Y-189450057D01*
X194286009Y-189354819D01*
X196821723Y-188878628D02*
X196571723Y-190878628D01*
X196809819Y-188973866D02*
X197012200Y-188878628D01*
X197393152Y-188878628D01*
X197571723Y-188973866D01*
X197655057Y-189069104D01*
X197726485Y-189259580D01*
X197655057Y-189831009D01*
X197536009Y-190021485D01*
X197428866Y-190116723D01*
X197226485Y-190211961D01*
X196845533Y-190211961D01*
X196666961Y-190116723D01*
X198464580Y-190211961D02*
X198631247Y-188878628D01*
X198583628Y-189259580D02*
X198702676Y-189069104D01*
X198809819Y-188973866D01*
X199012200Y-188878628D01*
X199202676Y-188878628D01*
X199678866Y-188878628D02*
X200726485Y-188878628D01*
X199512200Y-190211961D01*
X200559819Y-190211961D01*
X202095533Y-190116723D02*
X201893152Y-190211961D01*
X201512200Y-190211961D01*
X201333628Y-190116723D01*
X201262200Y-189926247D01*
X201357438Y-189164342D01*
X201476485Y-188973866D01*
X201678866Y-188878628D01*
X202059819Y-188878628D01*
X202238390Y-188973866D01*
X202309819Y-189164342D01*
X202286009Y-189354819D01*
X201309819Y-189545295D01*
X203036009Y-190211961D02*
X203286009Y-188211961D01*
X203321723Y-189450057D02*
X203797914Y-190211961D01*
X203964580Y-188878628D02*
X203107438Y-189640533D01*
X205512200Y-190211961D02*
X205643152Y-189164342D01*
X205571723Y-188973866D01*
X205393152Y-188878628D01*
X205012200Y-188878628D01*
X204809819Y-188973866D01*
X205524104Y-190116723D02*
X205321723Y-190211961D01*
X204845533Y-190211961D01*
X204666961Y-190116723D01*
X204595533Y-189926247D01*
X204619342Y-189735771D01*
X204738390Y-189545295D01*
X204940771Y-189450057D01*
X205416961Y-189450057D01*
X205619342Y-189354819D01*
X206440771Y-188878628D02*
X207488390Y-188878628D01*
X206274104Y-190211961D01*
X207321723Y-190211961D01*
X208250295Y-188878628D02*
X208083628Y-190211961D01*
X208226485Y-189069104D02*
X208333628Y-188973866D01*
X208536009Y-188878628D01*
X208821723Y-188878628D01*
X209000295Y-188973866D01*
X209071723Y-189164342D01*
X208940771Y-190211961D01*
X209893152Y-190211961D02*
X210059819Y-188878628D01*
X210143152Y-188211961D02*
X210036009Y-188307200D01*
X210119342Y-188402438D01*
X210226485Y-188307200D01*
X210143152Y-188211961D01*
X210119342Y-188402438D01*
X210845533Y-190211961D02*
X211095533Y-188211961D01*
X211131247Y-189450057D02*
X211607438Y-190211961D01*
X211774104Y-188878628D02*
X210916961Y-189640533D01*
X212750295Y-190211961D02*
X212571723Y-190116723D01*
X212488390Y-190021485D01*
X212416961Y-189831009D01*
X212488390Y-189259580D01*
X212607438Y-189069104D01*
X212714580Y-188973866D01*
X212916961Y-188878628D01*
X213202676Y-188878628D01*
X213381247Y-188973866D01*
X213464580Y-189069104D01*
X213536009Y-189259580D01*
X213464580Y-189831009D01*
X213345533Y-190021485D01*
X213238390Y-190116723D01*
X213036009Y-190211961D01*
X212750295Y-190211961D01*
X214250295Y-188878628D02*
X214464580Y-190211961D01*
X214964580Y-189259580D01*
X215226485Y-190211961D01*
X215774104Y-188878628D01*
X218059819Y-188878628D02*
X217893152Y-190211961D01*
X218036009Y-189069104D02*
X218143152Y-188973866D01*
X218345533Y-188878628D01*
X218631247Y-188878628D01*
X218809819Y-188973866D01*
X218881247Y-189164342D01*
X218750295Y-190211961D01*
X220559819Y-190211961D02*
X220690771Y-189164342D01*
X220619342Y-188973866D01*
X220440771Y-188878628D01*
X220059819Y-188878628D01*
X219857438Y-188973866D01*
X220571723Y-190116723D02*
X220369342Y-190211961D01*
X219893152Y-190211961D01*
X219714580Y-190116723D01*
X219643152Y-189926247D01*
X219666961Y-189735771D01*
X219786009Y-189545295D01*
X219988390Y-189450057D01*
X220464580Y-189450057D01*
X220666961Y-189354819D01*
X222916961Y-188878628D02*
X223678866Y-188878628D01*
X223286009Y-188211961D02*
X223071723Y-189926247D01*
X223143152Y-190116723D01*
X223321723Y-190211961D01*
X223512200Y-190211961D01*
X224178866Y-190211961D02*
X224345533Y-188878628D01*
X224297914Y-189259580D02*
X224416961Y-189069104D01*
X224524104Y-188973866D01*
X224726485Y-188878628D01*
X224916961Y-188878628D01*
X225416961Y-190211961D02*
X225583628Y-188878628D01*
X225666961Y-188211961D02*
X225559819Y-188307200D01*
X225643152Y-188402438D01*
X225750295Y-188307200D01*
X225666961Y-188211961D01*
X225643152Y-188402438D01*
X227226485Y-190211961D02*
X227357438Y-189164342D01*
X227286009Y-188973866D01*
X227107438Y-188878628D01*
X226726485Y-188878628D01*
X226524104Y-188973866D01*
X227238390Y-190116723D02*
X227036009Y-190211961D01*
X226559819Y-190211961D01*
X226381247Y-190116723D01*
X226309819Y-189926247D01*
X226333628Y-189735771D01*
X226452676Y-189545295D01*
X226655057Y-189450057D01*
X227131247Y-189450057D01*
X227333628Y-189354819D01*
X228178866Y-190211961D02*
X228428866Y-188211961D01*
X228464580Y-189450057D02*
X228940771Y-190211961D01*
X229107438Y-188878628D02*
X228250295Y-189640533D01*
X230655057Y-190211961D02*
X230786009Y-189164342D01*
X230714580Y-188973866D01*
X230536009Y-188878628D01*
X230155057Y-188878628D01*
X229952676Y-188973866D01*
X230666961Y-190116723D02*
X230464580Y-190211961D01*
X229988390Y-190211961D01*
X229809819Y-190116723D01*
X229738390Y-189926247D01*
X229762200Y-189735771D01*
X229881247Y-189545295D01*
X230083628Y-189450057D01*
X230559819Y-189450057D01*
X230762200Y-189354819D01*
X232476485Y-190116723D02*
X232274104Y-190211961D01*
X231893152Y-190211961D01*
X231714580Y-190116723D01*
X231631247Y-190021485D01*
X231559819Y-189831009D01*
X231631247Y-189259580D01*
X231750295Y-189069104D01*
X231857438Y-188973866D01*
X232059819Y-188878628D01*
X232440771Y-188878628D01*
X232619342Y-188973866D01*
X233321723Y-190211961D02*
X233571723Y-188211961D01*
X234178866Y-190211961D02*
X234309819Y-189164342D01*
X234238390Y-188973866D01*
X234059819Y-188878628D01*
X233774104Y-188878628D01*
X233571723Y-188973866D01*
X233464580Y-189069104D01*
D10*
D11*
X178934342Y-185600057D02*
X178434342Y-185600057D01*
X178434342Y-186385771D02*
X178434342Y-184885771D01*
X179148628Y-184885771D01*
X179720057Y-186385771D02*
X179720057Y-185385771D01*
X179720057Y-184885771D02*
X179648628Y-184957200D01*
X179720057Y-185028628D01*
X179791485Y-184957200D01*
X179720057Y-184885771D01*
X179720057Y-185028628D01*
X180648628Y-186385771D02*
X180505771Y-186314342D01*
X180434342Y-186171485D01*
X180434342Y-184885771D01*
X181791485Y-186314342D02*
X181648628Y-186385771D01*
X181362914Y-186385771D01*
X181220057Y-186314342D01*
X181148628Y-186171485D01*
X181148628Y-185600057D01*
X181220057Y-185457200D01*
X181362914Y-185385771D01*
X181648628Y-185385771D01*
X181791485Y-185457200D01*
X181862914Y-185600057D01*
X181862914Y-185742914D01*
X181148628Y-185885771D01*
X182505771Y-186242914D02*
X182577200Y-186314342D01*
X182505771Y-186385771D01*
X182434342Y-186314342D01*
X182505771Y-186242914D01*
X182505771Y-186385771D01*
X182505771Y-185457200D02*
X182577200Y-185528628D01*
X182505771Y-185600057D01*
X182434342Y-185528628D01*
X182505771Y-185457200D01*
X182505771Y-185600057D01*
X185220057Y-186242914D02*
X185148628Y-186314342D01*
X184934342Y-186385771D01*
X184791485Y-186385771D01*
X184577200Y-186314342D01*
X184434342Y-186171485D01*
X184362914Y-186028628D01*
X184291485Y-185742914D01*
X184291485Y-185528628D01*
X184362914Y-185242914D01*
X184434342Y-185100057D01*
X184577200Y-184957200D01*
X184791485Y-184885771D01*
X184934342Y-184885771D01*
X185148628Y-184957200D01*
X185220057Y-185028628D01*
X186434342Y-186314342D02*
X186291485Y-186385771D01*
X186005771Y-186385771D01*
X185862914Y-186314342D01*
X185791485Y-186171485D01*
X185791485Y-185600057D01*
X185862914Y-185457200D01*
X186005771Y-185385771D01*
X186291485Y-185385771D01*
X186434342Y-185457200D01*
X186505771Y-185600057D01*
X186505771Y-185742914D01*
X185791485Y-185885771D01*
X187148628Y-185385771D02*
X187148628Y-186385771D01*
X187148628Y-185528628D02*
X187220057Y-185457200D01*
X187362914Y-185385771D01*
X187577200Y-185385771D01*
X187720057Y-185457200D01*
X187791485Y-185600057D01*
X187791485Y-186385771D01*
X188291485Y-185385771D02*
X188862914Y-185385771D01*
X188505771Y-184885771D02*
X188505771Y-186171485D01*
X188577200Y-186314342D01*
X188720057Y-186385771D01*
X188862914Y-186385771D01*
X189362914Y-186385771D02*
X189362914Y-185385771D01*
X189362914Y-185671485D02*
X189434342Y-185528628D01*
X189505771Y-185457200D01*
X189648628Y-185385771D01*
X189791485Y-185385771D01*
X190934342Y-186385771D02*
X190934342Y-185600057D01*
X190862914Y-185457200D01*
X190720057Y-185385771D01*
X190434342Y-185385771D01*
X190291485Y-185457200D01*
X190934342Y-186314342D02*
X190791485Y-186385771D01*
X190434342Y-186385771D01*
X190291485Y-186314342D01*
X190220057Y-186171485D01*
X190220057Y-186028628D01*
X190291485Y-185885771D01*
X190434342Y-185814342D01*
X190791485Y-185814342D01*
X190934342Y-185742914D01*
X191862914Y-186385771D02*
X191720057Y-186314342D01*
X191648628Y-186171485D01*
X191648628Y-184885771D01*
X193577200Y-186385771D02*
X193577200Y-184885771D01*
X193577200Y-185600057D02*
X194434342Y-185600057D01*
X194434342Y-186385771D02*
X194434342Y-184885771D01*
X195720057Y-186314342D02*
X195577200Y-186385771D01*
X195291485Y-186385771D01*
X195148628Y-186314342D01*
X195077200Y-186171485D01*
X195077200Y-185600057D01*
X195148628Y-185457200D01*
X195291485Y-185385771D01*
X195577200Y-185385771D01*
X195720057Y-185457200D01*
X195791485Y-185600057D01*
X195791485Y-185742914D01*
X195077200Y-185885771D01*
X197077200Y-186385771D02*
X197077200Y-185600057D01*
X197005771Y-185457200D01*
X196862914Y-185385771D01*
X196577200Y-185385771D01*
X196434342Y-185457200D01*
X197077200Y-186314342D02*
X196934342Y-186385771D01*
X196577200Y-186385771D01*
X196434342Y-186314342D01*
X196362914Y-186171485D01*
X196362914Y-186028628D01*
X196434342Y-185885771D01*
X196577200Y-185814342D01*
X196934342Y-185814342D01*
X197077200Y-185742914D01*
X197577200Y-185385771D02*
X198148628Y-185385771D01*
X197791485Y-184885771D02*
X197791485Y-186171485D01*
X197862914Y-186314342D01*
X198005771Y-186385771D01*
X198148628Y-186385771D01*
X198648628Y-186385771D02*
X198648628Y-185385771D01*
X198648628Y-184885771D02*
X198577200Y-184957200D01*
X198648628Y-185028628D01*
X198720057Y-184957200D01*
X198648628Y-184885771D01*
X198648628Y-185028628D01*
X199362914Y-185385771D02*
X199362914Y-186385771D01*
X199362914Y-185528628D02*
X199434342Y-185457200D01*
X199577200Y-185385771D01*
X199791485Y-185385771D01*
X199934342Y-185457200D01*
X200005771Y-185600057D01*
X200005771Y-186385771D01*
X201362914Y-185385771D02*
X201362914Y-186600057D01*
X201291485Y-186742914D01*
X201220057Y-186814342D01*
X201077200Y-186885771D01*
X200862914Y-186885771D01*
X200720057Y-186814342D01*
X201362914Y-186314342D02*
X201220057Y-186385771D01*
X200934342Y-186385771D01*
X200791485Y-186314342D01*
X200720057Y-186242914D01*
X200648628Y-186100057D01*
X200648628Y-185671485D01*
X200720057Y-185528628D01*
X200791485Y-185457200D01*
X200934342Y-185385771D01*
X201220057Y-185385771D01*
X201362914Y-185457200D01*
X204077200Y-186242914D02*
X204005771Y-186314342D01*
X203791485Y-186385771D01*
X203648628Y-186385771D01*
X203434342Y-186314342D01*
X203291485Y-186171485D01*
X203220057Y-186028628D01*
X203148628Y-185742914D01*
X203148628Y-185528628D01*
X203220057Y-185242914D01*
X203291485Y-185100057D01*
X203434342Y-184957200D01*
X203648628Y-184885771D01*
X203791485Y-184885771D01*
X204005771Y-184957200D01*
X204077200Y-185028628D01*
X204934342Y-186385771D02*
X204791485Y-186314342D01*
X204720057Y-186242914D01*
X204648628Y-186100057D01*
X204648628Y-185671485D01*
X204720057Y-185528628D01*
X204791485Y-185457200D01*
X204934342Y-185385771D01*
X205148628Y-185385771D01*
X205291485Y-185457200D01*
X205362914Y-185528628D01*
X205434342Y-185671485D01*
X205434342Y-186100057D01*
X205362914Y-186242914D01*
X205291485Y-186314342D01*
X205148628Y-186385771D01*
X204934342Y-186385771D01*
X206077200Y-185385771D02*
X206077200Y-186385771D01*
X206077200Y-185528628D02*
X206148628Y-185457200D01*
X206291485Y-185385771D01*
X206505771Y-185385771D01*
X206648628Y-185457200D01*
X206720057Y-185600057D01*
X206720057Y-186385771D01*
X207220057Y-185385771D02*
X207791485Y-185385771D01*
X207434342Y-184885771D02*
X207434342Y-186171485D01*
X207505771Y-186314342D01*
X207648628Y-186385771D01*
X207791485Y-186385771D01*
X208291485Y-186385771D02*
X208291485Y-185385771D01*
X208291485Y-185671485D02*
X208362914Y-185528628D01*
X208434342Y-185457200D01*
X208577200Y-185385771D01*
X208720057Y-185385771D01*
X209434342Y-186385771D02*
X209291485Y-186314342D01*
X209220057Y-186242914D01*
X209148628Y-186100057D01*
X209148628Y-185671485D01*
X209220057Y-185528628D01*
X209291485Y-185457200D01*
X209434342Y-185385771D01*
X209648628Y-185385771D01*
X209791485Y-185457200D01*
X209862914Y-185528628D01*
X209934342Y-185671485D01*
X209934342Y-186100057D01*
X209862914Y-186242914D01*
X209791485Y-186314342D01*
X209648628Y-186385771D01*
X209434342Y-186385771D01*
X210791485Y-186385771D02*
X210648628Y-186314342D01*
X210577200Y-186171485D01*
X210577200Y-184885771D01*
X212505771Y-186385771D02*
X212505771Y-184885771D01*
X213077200Y-184885771D01*
X213220057Y-184957200D01*
X213291485Y-185028628D01*
X213362914Y-185171485D01*
X213362914Y-185385771D01*
X213291485Y-185528628D01*
X213220057Y-185600057D01*
X213077200Y-185671485D01*
X212505771Y-185671485D01*
X214505771Y-185600057D02*
X214720057Y-185671485D01*
X214791485Y-185742914D01*
X214862914Y-185885771D01*
X214862914Y-186100057D01*
X214791485Y-186242914D01*
X214720057Y-186314342D01*
X214577200Y-186385771D01*
X214005771Y-186385771D01*
X214005771Y-184885771D01*
X214505771Y-184885771D01*
X214648628Y-184957200D01*
X214720057Y-185028628D01*
X214791485Y-185171485D01*
X214791485Y-185314342D01*
X214720057Y-185457200D01*
X214648628Y-185528628D01*
X214505771Y-185600057D01*
X214005771Y-185600057D01*
X215434342Y-185957200D02*
X216148628Y-185957200D01*
X215291485Y-186385771D02*
X215791485Y-184885771D01*
X216291485Y-186385771D01*
X216791485Y-186242914D02*
X216862914Y-186314342D01*
X216791485Y-186385771D01*
X216720057Y-186314342D01*
X216791485Y-186242914D01*
X216791485Y-186385771D01*
X217505771Y-186385771D02*
X217505771Y-184885771D01*
X217648628Y-185814342D02*
X218077200Y-186385771D01*
X218077200Y-185385771D02*
X217505771Y-185957200D01*
X218720057Y-186385771D02*
X218720057Y-185385771D01*
X218720057Y-184885771D02*
X218648628Y-184957200D01*
X218720057Y-185028628D01*
X218791485Y-184957200D01*
X218720057Y-184885771D01*
X218720057Y-185028628D01*
X220077200Y-186314342D02*
X219934342Y-186385771D01*
X219648628Y-186385771D01*
X219505771Y-186314342D01*
X219434342Y-186242914D01*
X219362914Y-186100057D01*
X219362914Y-185671485D01*
X219434342Y-185528628D01*
X219505771Y-185457200D01*
X219648628Y-185385771D01*
X219934342Y-185385771D01*
X220077200Y-185457200D01*
X221362914Y-186385771D02*
X221362914Y-185600057D01*
X221291485Y-185457200D01*
X221148628Y-185385771D01*
X220862914Y-185385771D01*
X220720057Y-185457200D01*
X221362914Y-186314342D02*
X221220057Y-186385771D01*
X220862914Y-186385771D01*
X220720057Y-186314342D01*
X220648628Y-186171485D01*
X220648628Y-186028628D01*
X220720057Y-185885771D01*
X220862914Y-185814342D01*
X221220057Y-185814342D01*
X221362914Y-185742914D01*
X222720057Y-186385771D02*
X222720057Y-184885771D01*
X222720057Y-186314342D02*
X222577200Y-186385771D01*
X222291485Y-186385771D01*
X222148628Y-186314342D01*
X222077200Y-186242914D01*
X222005771Y-186100057D01*
X222005771Y-185671485D01*
X222077200Y-185528628D01*
X222148628Y-185457200D01*
X222291485Y-185385771D01*
X222577200Y-185385771D01*
X222720057Y-185457200D01*
X223077200Y-186528628D02*
X224220057Y-186528628D01*
X224577200Y-185385771D02*
X224577200Y-186885771D01*
X224577200Y-185457200D02*
X224720057Y-185385771D01*
X225005771Y-185385771D01*
X225148628Y-185457200D01*
X225220057Y-185528628D01*
X225291485Y-185671485D01*
X225291485Y-186100057D01*
X225220057Y-186242914D01*
X225148628Y-186314342D01*
X225005771Y-186385771D01*
X224720057Y-186385771D01*
X224577200Y-186314342D01*
X226577200Y-186314342D02*
X226434342Y-186385771D01*
X226148628Y-186385771D01*
X226005771Y-186314342D01*
X225934342Y-186242914D01*
X225862914Y-186100057D01*
X225862914Y-185671485D01*
X225934342Y-185528628D01*
X226005771Y-185457200D01*
X226148628Y-185385771D01*
X226434342Y-185385771D01*
X226577200Y-185457200D01*
X227220057Y-186385771D02*
X227220057Y-184885771D01*
X227220057Y-185457200D02*
X227362914Y-185385771D01*
X227648628Y-185385771D01*
X227791485Y-185457200D01*
X227862914Y-185528628D01*
X227934342Y-185671485D01*
X227934342Y-186100057D01*
X227862914Y-186242914D01*
X227791485Y-186314342D01*
X227648628Y-186385771D01*
X227362914Y-186385771D01*
X227220057Y-186314342D01*
D10*
D11*
X177002200Y-181507200D02*
X285002200Y-181507200D01*
D10*
D11*
X178362914Y-183614342D02*
X178577200Y-183685771D01*
X178934342Y-183685771D01*
X179077200Y-183614342D01*
X179148628Y-183542914D01*
X179220057Y-183400057D01*
X179220057Y-183257200D01*
X179148628Y-183114342D01*
X179077200Y-183042914D01*
X178934342Y-182971485D01*
X178648628Y-182900057D01*
X178505771Y-182828628D01*
X178434342Y-182757200D01*
X178362914Y-182614342D01*
X178362914Y-182471485D01*
X178434342Y-182328628D01*
X178505771Y-182257200D01*
X178648628Y-182185771D01*
X179005771Y-182185771D01*
X179220057Y-182257200D01*
X179862914Y-183685771D02*
X179862914Y-182185771D01*
X180505771Y-183685771D02*
X180505771Y-182900057D01*
X180434342Y-182757200D01*
X180291485Y-182685771D01*
X180077200Y-182685771D01*
X179934342Y-182757200D01*
X179862914Y-182828628D01*
X181791485Y-183614342D02*
X181648628Y-183685771D01*
X181362914Y-183685771D01*
X181220057Y-183614342D01*
X181148628Y-183471485D01*
X181148628Y-182900057D01*
X181220057Y-182757200D01*
X181362914Y-182685771D01*
X181648628Y-182685771D01*
X181791485Y-182757200D01*
X181862914Y-182900057D01*
X181862914Y-183042914D01*
X181148628Y-183185771D01*
X183077200Y-183614342D02*
X182934342Y-183685771D01*
X182648628Y-183685771D01*
X182505771Y-183614342D01*
X182434342Y-183471485D01*
X182434342Y-182900057D01*
X182505771Y-182757200D01*
X182648628Y-182685771D01*
X182934342Y-182685771D01*
X183077200Y-182757200D01*
X183148628Y-182900057D01*
X183148628Y-183042914D01*
X182434342Y-183185771D01*
X183577200Y-182685771D02*
X184148628Y-182685771D01*
X183791485Y-182185771D02*
X183791485Y-183471485D01*
X183862914Y-183614342D01*
X184005771Y-183685771D01*
X184148628Y-183685771D01*
X184648628Y-183542914D02*
X184720057Y-183614342D01*
X184648628Y-183685771D01*
X184577200Y-183614342D01*
X184648628Y-183542914D01*
X184648628Y-183685771D01*
X184648628Y-182757200D02*
X184720057Y-182828628D01*
X184648628Y-182900057D01*
X184577200Y-182828628D01*
X184648628Y-182757200D01*
X184648628Y-182900057D01*
D10*
D12*
X178554342Y-180685771D02*
X178554342Y-179185771D01*
X179054342Y-180257200D01*
X179554342Y-179185771D01*
X179554342Y-180685771D01*
X180197200Y-180257200D02*
X180911485Y-180257200D01*
X180054342Y-180685771D02*
X180554342Y-179185771D01*
X181054342Y-180685771D01*
X182411485Y-180685771D02*
X181911485Y-179971485D01*
X181554342Y-180685771D02*
X181554342Y-179185771D01*
X182125771Y-179185771D01*
X182268628Y-179257200D01*
X182340057Y-179328628D01*
X182411485Y-179471485D01*
X182411485Y-179685771D01*
X182340057Y-179828628D01*
X182268628Y-179900057D01*
X182125771Y-179971485D01*
X181554342Y-179971485D01*
X183054342Y-180685771D02*
X183054342Y-179185771D01*
X183554342Y-180257200D01*
X184054342Y-179185771D01*
X184054342Y-180685771D01*
X184768628Y-180542914D02*
X184840057Y-180614342D01*
X184768628Y-180685771D01*
X184697200Y-180614342D01*
X184768628Y-180542914D01*
X184768628Y-180685771D01*
X185482914Y-179685771D02*
X185482914Y-181185771D01*
X185482914Y-179757200D02*
X185625771Y-179685771D01*
X185911485Y-179685771D01*
X186054342Y-179757200D01*
X186125771Y-179828628D01*
X186197200Y-179971485D01*
X186197200Y-180400057D01*
X186125771Y-180542914D01*
X186054342Y-180614342D01*
X185911485Y-180685771D01*
X185625771Y-180685771D01*
X185482914Y-180614342D01*
X187054342Y-180685771D02*
X186911485Y-180614342D01*
X186840057Y-180471485D01*
X186840057Y-179185771D01*
X188697200Y-180614342D02*
X188911485Y-180685771D01*
X189268628Y-180685771D01*
X189411485Y-180614342D01*
X189482914Y-180542914D01*
X189554342Y-180400057D01*
X189554342Y-180257200D01*
X189482914Y-180114342D01*
X189411485Y-180042914D01*
X189268628Y-179971485D01*
X188982914Y-179900057D01*
X188840057Y-179828628D01*
X188768628Y-179757200D01*
X188697200Y-179614342D01*
X188697200Y-179471485D01*
X188768628Y-179328628D01*
X188840057Y-179257200D01*
X188982914Y-179185771D01*
X189340057Y-179185771D01*
X189554342Y-179257200D01*
X190197200Y-179685771D02*
X190197200Y-181185771D01*
X190197200Y-179757200D02*
X190340057Y-179685771D01*
X190625771Y-179685771D01*
X190768628Y-179757200D01*
X190840057Y-179828628D01*
X190911485Y-179971485D01*
X190911485Y-180400057D01*
X190840057Y-180542914D01*
X190768628Y-180614342D01*
X190625771Y-180685771D01*
X190340057Y-180685771D01*
X190197200Y-180614342D01*
X191554342Y-180542914D02*
X191625771Y-180614342D01*
X191554342Y-180685771D01*
X191482914Y-180614342D01*
X191554342Y-180542914D01*
X191554342Y-180685771D01*
X193268628Y-179685771D02*
X194054342Y-179685771D01*
X193268628Y-180685771D01*
X194054342Y-180685771D01*
X195982914Y-180685771D02*
X195840057Y-180614342D01*
X195768628Y-180542914D01*
X195697200Y-180400057D01*
X195697200Y-179971485D01*
X195768628Y-179828628D01*
X195840057Y-179757200D01*
X195982914Y-179685771D01*
X196197200Y-179685771D01*
X196340057Y-179757200D01*
X196411485Y-179828628D01*
X196482914Y-179971485D01*
X196482914Y-180400057D01*
X196411485Y-180542914D01*
X196340057Y-180614342D01*
X196197200Y-180685771D01*
X195982914Y-180685771D01*
X197125771Y-180542914D02*
X197197200Y-180614342D01*
X197125771Y-180685771D01*
X197054342Y-180614342D01*
X197125771Y-180542914D01*
X197125771Y-180685771D01*
X198054342Y-180685771D02*
X197911485Y-180614342D01*
X197840057Y-180542914D01*
X197768628Y-180400057D01*
X197768628Y-179971485D01*
X197840057Y-179828628D01*
X197911485Y-179757200D01*
X198054342Y-179685771D01*
X198268628Y-179685771D01*
X198411485Y-179757200D01*
X198482914Y-179828628D01*
X198554342Y-179971485D01*
X198554342Y-180400057D01*
X198482914Y-180542914D01*
X198411485Y-180614342D01*
X198268628Y-180685771D01*
X198054342Y-180685771D01*
X199197200Y-180542914D02*
X199268628Y-180614342D01*
X199197200Y-180685771D01*
X199125771Y-180614342D01*
X199197200Y-180542914D01*
X199197200Y-180685771D01*
D10*
D11*
X179291485Y-177685771D02*
X178791485Y-176971485D01*
X178434342Y-177685771D02*
X178434342Y-176185771D01*
X179005771Y-176185771D01*
X179148628Y-176257200D01*
X179220057Y-176328628D01*
X179291485Y-176471485D01*
X179291485Y-176685771D01*
X179220057Y-176828628D01*
X179148628Y-176900057D01*
X179005771Y-176971485D01*
X178434342Y-176971485D01*
X180720057Y-176257200D02*
X180577200Y-176185771D01*
X180362914Y-176185771D01*
X180148628Y-176257200D01*
X180005771Y-176400057D01*
X179934342Y-176542914D01*
X179862914Y-176828628D01*
X179862914Y-177042914D01*
X179934342Y-177328628D01*
X180005771Y-177471485D01*
X180148628Y-177614342D01*
X180362914Y-177685771D01*
X180505771Y-177685771D01*
X180720057Y-177614342D01*
X180791485Y-177542914D01*
X180791485Y-177042914D01*
X180505771Y-177042914D01*
X181291485Y-176185771D02*
X181648628Y-177685771D01*
X181934342Y-176614342D01*
X182220057Y-177685771D01*
X182577200Y-176185771D01*
D10*
D11*
D10*
D11*
D10*
D11*
D10*
D11*
X197002200Y-191507200D02*
X197002200Y-194507200D01*
D10*
D11*
X261002200Y-191507200D02*
X261002200Y-198007200D01*
D14*
X33490866Y-122269803D02*
X33491300Y-36755890D01*
X206845866Y-36803803D02*
X206845866Y-122269803D01*
X33491300Y-36755890D02*
X206845866Y-36803803D01*
X51928769Y-99409803D02*
G75*
G03*
X51928769Y-99409803I-1419903J0D01*
G01*
X183500769Y-115284803D02*
G75*
G03*
X183500769Y-115284803I-1419903J0D01*
G01*
X51928769Y-49866043D02*
G75*
G03*
X51928769Y-49866043I-1419903J0D01*
G01*
X142098769Y-49866043D02*
G75*
G03*
X142098769Y-49866043I-1419903J0D01*
G01*
X206845866Y-122269803D02*
X33490866Y-122269803D01*
X111745769Y-110204803D02*
G75*
G03*
X111745769Y-110204803I-1419903J0D01*
G01*
X204455769Y-43246043D02*
G75*
G03*
X204455769Y-43246043I-1419903J0D01*
G01*
D12*
D15*
X172708723Y-119138374D02*
X172708723Y-117638374D01*
X172208723Y-118709803D01*
X171708723Y-117638374D01*
X171708723Y-119138374D01*
X171065866Y-118709803D02*
X170351580Y-118709803D01*
X171208723Y-119138374D02*
X170708723Y-117638374D01*
X170208723Y-119138374D01*
X168851580Y-119138374D02*
X169351580Y-118424088D01*
X169708723Y-119138374D02*
X169708723Y-117638374D01*
X169137294Y-117638374D01*
X168994437Y-117709803D01*
X168923008Y-117781231D01*
X168851580Y-117924088D01*
X168851580Y-118138374D01*
X168923008Y-118281231D01*
X168994437Y-118352660D01*
X169137294Y-118424088D01*
X169708723Y-118424088D01*
X168208723Y-119138374D02*
X168208723Y-117638374D01*
X167708723Y-118709803D01*
X167208723Y-117638374D01*
X167208723Y-119138374D01*
X166494437Y-118995517D02*
X166423008Y-119066945D01*
X166494437Y-119138374D01*
X166565866Y-119066945D01*
X166494437Y-118995517D01*
X166494437Y-119138374D01*
X165780151Y-118138374D02*
X165780151Y-119638374D01*
X165780151Y-118209803D02*
X165637294Y-118138374D01*
X165351580Y-118138374D01*
X165208723Y-118209803D01*
X165137294Y-118281231D01*
X165065866Y-118424088D01*
X165065866Y-118852660D01*
X165137294Y-118995517D01*
X165208723Y-119066945D01*
X165351580Y-119138374D01*
X165637294Y-119138374D01*
X165780151Y-119066945D01*
X164208723Y-119138374D02*
X164351580Y-119066945D01*
X164423008Y-118924088D01*
X164423008Y-117638374D01*
X162565866Y-119066945D02*
X162351580Y-119138374D01*
X161994437Y-119138374D01*
X161851580Y-119066945D01*
X161780151Y-118995517D01*
X161708723Y-118852660D01*
X161708723Y-118709803D01*
X161780151Y-118566945D01*
X161851580Y-118495517D01*
X161994437Y-118424088D01*
X162280151Y-118352660D01*
X162423008Y-118281231D01*
X162494437Y-118209803D01*
X162565866Y-118066945D01*
X162565866Y-117924088D01*
X162494437Y-117781231D01*
X162423008Y-117709803D01*
X162280151Y-117638374D01*
X161923008Y-117638374D01*
X161708723Y-117709803D01*
X161065866Y-118138374D02*
X161065866Y-119638374D01*
X161065866Y-118209803D02*
X160923008Y-118138374D01*
X160637294Y-118138374D01*
X160494437Y-118209803D01*
X160423008Y-118281231D01*
X160351580Y-118424088D01*
X160351580Y-118852660D01*
X160423008Y-118995517D01*
X160494437Y-119066945D01*
X160637294Y-119138374D01*
X160923008Y-119138374D01*
X161065866Y-119066945D01*
X159708723Y-118995517D02*
X159637294Y-119066945D01*
X159708723Y-119138374D01*
X159780151Y-119066945D01*
X159708723Y-118995517D01*
X159708723Y-119138374D01*
X157994437Y-118138374D02*
X157208723Y-118138374D01*
X157994437Y-119138374D01*
X157208723Y-119138374D01*
X155280151Y-119138374D02*
X155423008Y-119066945D01*
X155494437Y-118995517D01*
X155565866Y-118852660D01*
X155565866Y-118424088D01*
X155494437Y-118281231D01*
X155423008Y-118209803D01*
X155280151Y-118138374D01*
X155065866Y-118138374D01*
X154923008Y-118209803D01*
X154851580Y-118281231D01*
X154780151Y-118424088D01*
X154780151Y-118852660D01*
X154851580Y-118995517D01*
X154923008Y-119066945D01*
X155065866Y-119138374D01*
X155280151Y-119138374D01*
X154137294Y-118995517D02*
X154065866Y-119066945D01*
X154137294Y-119138374D01*
X154208723Y-119066945D01*
X154137294Y-118995517D01*
X154137294Y-119138374D01*
X153208723Y-119138374D02*
X153351580Y-119066945D01*
X153423008Y-118995517D01*
X153494437Y-118852660D01*
X153494437Y-118424088D01*
X153423008Y-118281231D01*
X153351580Y-118209803D01*
X153208723Y-118138374D01*
X152994437Y-118138374D01*
X152851580Y-118209803D01*
X152780151Y-118281231D01*
X152708723Y-118424088D01*
X152708723Y-118852660D01*
X152780151Y-118995517D01*
X152851580Y-119066945D01*
X152994437Y-119138374D01*
X153208723Y-119138374D01*
X152065866Y-118995517D02*
X151994437Y-119066945D01*
X152065866Y-119138374D01*
X152137294Y-119066945D01*
X152065866Y-118995517D01*
X152065866Y-119138374D01*
X149780151Y-119709803D02*
X149851580Y-119638374D01*
X149994437Y-119424088D01*
X150065866Y-119281231D01*
X150137294Y-119066945D01*
X150208723Y-118709803D01*
X150208723Y-118424088D01*
X150137294Y-118066945D01*
X150065866Y-117852660D01*
X149994437Y-117709803D01*
X149851580Y-117495517D01*
X149780151Y-117424088D01*
X148565866Y-119066945D02*
X148708723Y-119138374D01*
X148994437Y-119138374D01*
X149137294Y-119066945D01*
X149208723Y-118995517D01*
X149280151Y-118852660D01*
X149280151Y-118424088D01*
X149208723Y-118281231D01*
X149137294Y-118209803D01*
X148994437Y-118138374D01*
X148708723Y-118138374D01*
X148565866Y-118209803D01*
X148065866Y-119709803D02*
X147994437Y-119638374D01*
X147851580Y-119424088D01*
X147780151Y-119281231D01*
X147708723Y-119066945D01*
X147637294Y-118709803D01*
X147637294Y-118424088D01*
X147708723Y-118066945D01*
X147780151Y-117852660D01*
X147851580Y-117709803D01*
X147994437Y-117495517D01*
X148065866Y-117424088D01*
X146994437Y-117781231D02*
X146923008Y-117709803D01*
X146780151Y-117638374D01*
X146423008Y-117638374D01*
X146280151Y-117709803D01*
X146208723Y-117781231D01*
X146137294Y-117924088D01*
X146137294Y-118066945D01*
X146208723Y-118281231D01*
X147065866Y-119138374D01*
X146137294Y-119138374D01*
X145208723Y-117638374D02*
X145065866Y-117638374D01*
X144923008Y-117709803D01*
X144851580Y-117781231D01*
X144780151Y-117924088D01*
X144708723Y-118209803D01*
X144708723Y-118566945D01*
X144780151Y-118852660D01*
X144851580Y-118995517D01*
X144923008Y-119066945D01*
X145065866Y-119138374D01*
X145208723Y-119138374D01*
X145351580Y-119066945D01*
X145423008Y-118995517D01*
X145494437Y-118852660D01*
X145565866Y-118566945D01*
X145565866Y-118209803D01*
X145494437Y-117924088D01*
X145423008Y-117781231D01*
X145351580Y-117709803D01*
X145208723Y-117638374D01*
X144137294Y-117781231D02*
X144065866Y-117709803D01*
X143923008Y-117638374D01*
X143565866Y-117638374D01*
X143423008Y-117709803D01*
X143351580Y-117781231D01*
X143280151Y-117924088D01*
X143280151Y-118066945D01*
X143351580Y-118281231D01*
X144208723Y-119138374D01*
X143280151Y-119138374D01*
X142708723Y-117781231D02*
X142637294Y-117709803D01*
X142494437Y-117638374D01*
X142137294Y-117638374D01*
X141994437Y-117709803D01*
X141923008Y-117781231D01*
X141851580Y-117924088D01*
X141851580Y-118066945D01*
X141923008Y-118281231D01*
X142780151Y-119138374D01*
X141851580Y-119138374D01*
D14*
X183747532Y-115284803D02*
G75*
G03*
X183747532Y-115284803I-1666666J0D01*
G01*
X179580866Y-115284803D02*
X184580866Y-115284803D01*
X182080866Y-112784803D02*
X182080866Y-117784803D01*
X52175532Y-99409803D02*
G75*
G03*
X52175532Y-99409803I-1666666J0D01*
G01*
X48008866Y-99409803D02*
X53008866Y-99409803D01*
X50508866Y-96909803D02*
X50508866Y-101909803D01*
X204702532Y-43246043D02*
G75*
G03*
X204702532Y-43246043I-1666666J0D01*
G01*
X200535866Y-43246043D02*
X205535866Y-43246043D01*
X203035866Y-40746043D02*
X203035866Y-45746043D01*
X52175532Y-49866043D02*
G75*
G03*
X52175532Y-49866043I-1666666J0D01*
G01*
X48008866Y-49866043D02*
X53008866Y-49866043D01*
X50508866Y-47366043D02*
X50508866Y-52366043D01*
X111992532Y-110204803D02*
G75*
G03*
X111992532Y-110204803I-1666666J0D01*
G01*
X107825866Y-110204803D02*
X112825866Y-110204803D01*
X110325866Y-107704803D02*
X110325866Y-112704803D01*
X205501666Y-119380000D02*
G75*
G03*
X205501666Y-119380000I-1666666J0D01*
G01*
X201335000Y-119380000D02*
X206335000Y-119380000D01*
X203835000Y-116880000D02*
X203835000Y-121880000D01*
X142345532Y-49866043D02*
G75*
G03*
X142345532Y-49866043I-1666666J0D01*
G01*
X138178866Y-49866043D02*
X143178866Y-49866043D01*
X140678866Y-47366043D02*
X140678866Y-52366043D01*
D16*
%TO.P,D3,1,K*%
%TO.N,GNDREF*%
X69438764Y-77446532D03*
D17*
%TO.P,D3,2,A*%
%TO.N,Net-(D3-Pad2)*%
X69438764Y-79986532D03*
%TD*%
D18*
%TO.P,J13,1,Pin_1*%
%TO.N,NEUT*%
X194465000Y-41611043D03*
D19*
%TO.P,J13,2,Pin_2*%
%TO.N,Net-(J13-Pad2)*%
X189465000Y-41611043D03*
%TD*%
D20*
%TO.P,U8,1*%
%TO.N,Net-(R8-Pad1)*%
X132705000Y-88239803D03*
D21*
%TO.P,U8,2*%
%TO.N,Net-(D7-Pad2)*%
X135245000Y-88239803D03*
%TO.P,U8,3,NC*%
%TO.N,unconnected-(U8-Pad3)*%
X137785000Y-88239803D03*
%TO.P,U8,4*%
%TO.N,Net-(Q7-Pad3)*%
X137785000Y-80619803D03*
%TO.P,U8,5,NC*%
%TO.N,unconnected-(U8-Pad5)*%
X135245000Y-80619803D03*
%TO.P,U8,6*%
%TO.N,Net-(R18-Pad1)*%
X132705000Y-80619803D03*
%TD*%
D22*
%TO.P,R40,1*%
%TO.N,Net-(Q9-Pad3)*%
X168393866Y-52070000D03*
D23*
%TO.P,R40,2*%
%TO.N,Net-(C1-Pad2)*%
X165853866Y-52070000D03*
%TD*%
D22*
%TO.P,R27,1*%
%TO.N,Net-(C6-Pad1)*%
X114643866Y-66024803D03*
D23*
%TO.P,R27,2*%
%TO.N,Net-(J8-Pad2)*%
X114643866Y-63484803D03*
%TD*%
D16*
%TO.P,D2,1,K*%
%TO.N,GNDREF*%
X54897965Y-77449803D03*
D17*
%TO.P,D2,2,A*%
%TO.N,Net-(D2-Pad2)*%
X54897965Y-79989803D03*
%TD*%
D24*
%TO.P,Q9,1,A1*%
%TO.N,Net-(J11-Pad2)*%
X160998866Y-57529606D03*
D25*
%TO.P,Q9,2,A2*%
%TO.N,Net-(C1-Pad2)*%
X163538866Y-57529606D03*
%TO.P,Q9,3,G*%
%TO.N,Net-(Q9-Pad3)*%
X166078866Y-57529606D03*
%TD*%
D26*
%TO.P,C3,1*%
%TO.N,Net-(C3-Pad1)*%
X61313866Y-76715000D03*
%TO.P,C3,2*%
%TO.N,Net-(C1-Pad2)*%
X61313866Y-61715000D03*
%TD*%
D22*
%TO.P,R55,1*%
%TO.N,Net-(C11-Pad1)*%
X189573866Y-66024803D03*
D23*
%TO.P,R55,2*%
%TO.N,Net-(J13-Pad2)*%
X189573866Y-63484803D03*
%TD*%
D27*
%TO.P,JP1,1,A*%
%TO.N,Net-(J3-Pad2)*%
X37193866Y-52320000D03*
D28*
%TO.P,JP1,2,B*%
%TO.N,Net-(C1-Pad2)*%
X39733866Y-52320000D03*
%TD*%
D22*
%TO.P,RV6,1*%
%TO.N,Net-(C1-Pad2)*%
X120318866Y-49196043D03*
%TO.P,RV6,2*%
%TO.N,Net-(J8-Pad2)*%
X115318866Y-47996043D03*
%TD*%
D20*
%TO.P,U2,1*%
%TO.N,Net-(R2-Pad2)*%
X41608866Y-88239803D03*
D21*
%TO.P,U2,2*%
%TO.N,Net-(D1-Pad2)*%
X44148866Y-88239803D03*
%TO.P,U2,3,NC*%
%TO.N,unconnected-(U2-Pad3)*%
X46688866Y-88239803D03*
%TO.P,U2,4*%
%TO.N,Net-(Q1-Pad3)*%
X46688866Y-80619803D03*
%TO.P,U2,5,NC*%
%TO.N,unconnected-(U2-Pad5)*%
X44148866Y-80619803D03*
%TO.P,U2,6*%
%TO.N,Net-(R13-Pad1)*%
X41608866Y-80619803D03*
%TD*%
D24*
%TO.P,Q7,1,A1*%
%TO.N,Net-(J9-Pad2)*%
X129883866Y-57529606D03*
D25*
%TO.P,Q7,2,A2*%
%TO.N,Net-(C1-Pad2)*%
X132423866Y-57529606D03*
%TO.P,Q7,3,G*%
%TO.N,Net-(Q7-Pad3)*%
X134963866Y-57529606D03*
%TD*%
D22*
%TO.P,R30,1*%
%TO.N,Net-(C9-Pad1)*%
X160363866Y-66024803D03*
D23*
%TO.P,R30,2*%
%TO.N,Net-(J11-Pad2)*%
X160363866Y-63484803D03*
%TD*%
D27*
%TO.P,JP9,1,A*%
%TO.N,Net-(J6-Pad2)*%
X83548866Y-52320000D03*
D28*
%TO.P,JP9,2,B*%
%TO.N,Net-(C1-Pad2)*%
X86088866Y-52320000D03*
%TD*%
D18*
%TO.P,J12,1,Pin_1*%
%TO.N,NEUT*%
X179465000Y-41611043D03*
D19*
%TO.P,J12,2,Pin_2*%
%TO.N,Net-(J12-Pad2)*%
X174465000Y-41611043D03*
%TD*%
D18*
%TO.P,J3_DC5V1,1,Pin_1*%
%TO.N,GNDREF*%
X139065000Y-107664803D03*
D19*
%TO.P,J3_DC5V1,2,Pin_2*%
%TO.N,+5V*%
X139065000Y-102664803D03*
%TD*%
D24*
%TO.P,Q2,1,A1*%
%TO.N,Net-(J4-Pad2)*%
X56223866Y-57529606D03*
D25*
%TO.P,Q2,2,A2*%
%TO.N,Net-(C1-Pad2)*%
X58763866Y-57529606D03*
%TO.P,Q2,3,G*%
%TO.N,Net-(Q2-Pad3)*%
X61303866Y-57529606D03*
%TD*%
D18*
%TO.P,J5,1,Pin_1*%
%TO.N,NEUT*%
X74465000Y-41611043D03*
D19*
%TO.P,J5,2,Pin_2*%
%TO.N,Net-(J5-Pad2)*%
X69465000Y-41611043D03*
%TD*%
D22*
%TO.P,R28,1*%
%TO.N,Net-(C7-Pad1)*%
X129248866Y-66024803D03*
D23*
%TO.P,R28,2*%
%TO.N,Net-(J9-Pad2)*%
X129248866Y-63484803D03*
%TD*%
D16*
%TO.P,D5,1,K*%
%TO.N,GNDREF*%
X99273780Y-77480256D03*
D17*
%TO.P,D5,2,A*%
%TO.N,Net-(D5-Pad2)*%
X99273780Y-80020256D03*
%TD*%
D22*
%TO.P,R38,1*%
%TO.N,Net-(Q7-Pad3)*%
X136008866Y-52070000D03*
D23*
%TO.P,R38,2*%
%TO.N,Net-(C1-Pad2)*%
X133468866Y-52070000D03*
%TD*%
D27*
%TO.P,JP6,1,A*%
%TO.N,Net-(J9-Pad2)*%
X127363866Y-52320000D03*
D28*
%TO.P,JP6,2,B*%
%TO.N,Net-(C1-Pad2)*%
X129903866Y-52320000D03*
%TD*%
D18*
%TO.P,J6,1,Pin_1*%
%TO.N,NEUT*%
X89465000Y-41611043D03*
D19*
%TO.P,J6,2,Pin_2*%
%TO.N,Net-(J6-Pad2)*%
X84465000Y-41611043D03*
%TD*%
D18*
%TO.P,J7,1,Pin_1*%
%TO.N,NEUT*%
X104465000Y-41611043D03*
D19*
%TO.P,J7,2,Pin_2*%
%TO.N,Net-(J7-Pad2)*%
X99465000Y-41611043D03*
%TD*%
D29*
%TO.P,J5_AC_INPUT1,1,Pin_1*%
%TO.N,NEUT*%
X195923866Y-110474803D03*
D30*
%TO.P,J5_AC_INPUT1,2,Pin_2*%
%TO.N,LINE*%
X195923866Y-115554803D03*
%TD*%
D22*
%TO.P,R25,1*%
%TO.N,Net-(C4-Pad1)*%
X70193866Y-66024803D03*
D23*
%TO.P,R25,2*%
%TO.N,Net-(J5-Pad2)*%
X70193866Y-63484803D03*
%TD*%
D26*
%TO.P,C4,1*%
%TO.N,Net-(C4-Pad1)*%
X75908866Y-76715000D03*
%TO.P,C4,2*%
%TO.N,Net-(C1-Pad2)*%
X75908866Y-61715000D03*
%TD*%
D27*
%TO.P,JP5,1,A*%
%TO.N,Net-(J8-Pad2)*%
X113393866Y-52320000D03*
D28*
%TO.P,JP5,2,B*%
%TO.N,Net-(C1-Pad2)*%
X115933866Y-52320000D03*
%TD*%
D16*
%TO.P,D4,1,K*%
%TO.N,GNDREF*%
X84084475Y-77439169D03*
D17*
%TO.P,D4,2,A*%
%TO.N,Net-(D4-Pad2)*%
X84084475Y-79979169D03*
%TD*%
D24*
%TO.P,Q1,1,A1*%
%TO.N,Net-(J3-Pad2)*%
X39078866Y-57529606D03*
D25*
%TO.P,Q1,2,A2*%
%TO.N,Net-(C1-Pad2)*%
X41618866Y-57529606D03*
%TO.P,Q1,3,G*%
%TO.N,Net-(Q1-Pad3)*%
X44158866Y-57529606D03*
%TD*%
D18*
%TO.P,J4_AC_OUTPUT1,1,Pin_1*%
%TO.N,NEUT*%
X195397152Y-99657457D03*
D19*
%TO.P,J4_AC_OUTPUT1,2,Pin_2*%
%TO.N,Net-(C1-Pad2)*%
X195397152Y-94657457D03*
%TD*%
D20*
%TO.P,U11,1*%
%TO.N,Net-(R11-Pad1)*%
X178768866Y-88239803D03*
D21*
%TO.P,U11,2*%
%TO.N,Net-(D10-Pad2)*%
X181308866Y-88239803D03*
%TO.P,U11,3,NC*%
%TO.N,unconnected-(U11-Pad3)*%
X183848866Y-88239803D03*
%TO.P,U11,4*%
%TO.N,Net-(Q10-Pad3)*%
X183848866Y-80619803D03*
%TO.P,U11,5,NC*%
%TO.N,unconnected-(U11-Pad5)*%
X181308866Y-80619803D03*
%TO.P,U11,6*%
%TO.N,Net-(R21-Pad1)*%
X178768866Y-80619803D03*
%TD*%
D22*
%TO.P,RV2,1*%
%TO.N,Net-(C1-Pad2)*%
X61898866Y-49196043D03*
%TO.P,RV2,2*%
%TO.N,Net-(J4-Pad2)*%
X56898866Y-47996043D03*
%TD*%
%TO.P,R26,1*%
%TO.N,Net-(C5-Pad1)*%
X84798866Y-66024803D03*
D23*
%TO.P,R26,2*%
%TO.N,Net-(J6-Pad2)*%
X84798866Y-63484803D03*
%TD*%
D22*
%TO.P,R31,1*%
%TO.N,Net-(C10-Pad1)*%
X175603866Y-66024803D03*
D23*
%TO.P,R31,2*%
%TO.N,Net-(J12-Pad2)*%
X175603866Y-63484803D03*
%TD*%
D27*
%TO.P,JP3,1,A*%
%TO.N,Net-(J5-Pad2)*%
X68943866Y-52320000D03*
D28*
%TO.P,JP3,2,B*%
%TO.N,Net-(C1-Pad2)*%
X71483866Y-52320000D03*
%TD*%
D26*
%TO.P,C7,1*%
%TO.N,Net-(C7-Pad1)*%
X135255000Y-76715000D03*
%TO.P,C7,2*%
%TO.N,Net-(C1-Pad2)*%
X135255000Y-61715000D03*
%TD*%
D22*
%TO.P,RV1,1*%
%TO.N,Net-(C1-Pad2)*%
X43483866Y-49196043D03*
%TO.P,RV1,2*%
%TO.N,Net-(J3-Pad2)*%
X38483866Y-47996043D03*
%TD*%
%TO.P,R34,1*%
%TO.N,Net-(Q3-Pad3)*%
X78858866Y-52070000D03*
D23*
%TO.P,R34,2*%
%TO.N,Net-(C1-Pad2)*%
X76318866Y-52070000D03*
%TD*%
D24*
%TO.P,Q3,1,A1*%
%TO.N,Net-(J5-Pad2)*%
X70828866Y-57529606D03*
D25*
%TO.P,Q3,2,A2*%
%TO.N,Net-(C1-Pad2)*%
X73368866Y-57529606D03*
%TO.P,Q3,3,G*%
%TO.N,Net-(Q3-Pad3)*%
X75908866Y-57529606D03*
%TD*%
D24*
%TO.P,Q8,1,A1*%
%TO.N,Net-(J10-Pad2)*%
X145123866Y-57529606D03*
D25*
%TO.P,Q8,2,A2*%
%TO.N,Net-(C1-Pad2)*%
X147663866Y-57529606D03*
%TO.P,Q8,3,G*%
%TO.N,Net-(Q8-Pad3)*%
X150203866Y-57529606D03*
%TD*%
D27*
%TO.P,JP7,1,A*%
%TO.N,Net-(J10-Pad2)*%
X145778866Y-52320000D03*
D28*
%TO.P,JP7,2,B*%
%TO.N,Net-(C1-Pad2)*%
X148318866Y-52320000D03*
%TD*%
D22*
%TO.P,R19,1*%
%TO.N,Net-(R19-Pad1)*%
X144523355Y-72149803D03*
D23*
%TO.P,R19,2*%
%TO.N,Net-(C8-Pad1)*%
X144523355Y-69609803D03*
%TD*%
D18*
%TO.P,J8,1,Pin_1*%
%TO.N,NEUT*%
X119465000Y-41611043D03*
D19*
%TO.P,J8,2,Pin_2*%
%TO.N,Net-(J8-Pad2)*%
X114465000Y-41611043D03*
%TD*%
D27*
%TO.P,JP11,1,A*%
%TO.N,Net-(J13-Pad2)*%
X187688866Y-52320000D03*
D28*
%TO.P,JP11,2,B*%
%TO.N,Net-(C1-Pad2)*%
X190228866Y-52320000D03*
%TD*%
D27*
%TO.P,JP2,1,A*%
%TO.N,Net-(J4-Pad2)*%
X55879563Y-52286798D03*
D28*
%TO.P,JP2,2,B*%
%TO.N,Net-(C1-Pad2)*%
X58419563Y-52286798D03*
%TD*%
D18*
%TO.P,J9,1,Pin_1*%
%TO.N,NEUT*%
X134465000Y-41611043D03*
D19*
%TO.P,J9,2,Pin_2*%
%TO.N,Net-(J9-Pad2)*%
X129465000Y-41611043D03*
%TD*%
D22*
%TO.P,R56,1*%
%TO.N,Net-(Q22-Pad3)*%
X197603866Y-52070000D03*
D23*
%TO.P,R56,2*%
%TO.N,Net-(C1-Pad2)*%
X195063866Y-52070000D03*
%TD*%
D22*
%TO.P,RV12,1*%
%TO.N,NEUT*%
X182680866Y-104529803D03*
%TO.P,RV12,2*%
%TO.N,Net-(C1-Pad2)*%
X181480866Y-109529803D03*
%TD*%
D26*
%TO.P,C2,1*%
%TO.N,Net-(C2-Pad1)*%
X44158866Y-76595000D03*
%TO.P,C2,2*%
%TO.N,Net-(C1-Pad2)*%
X44158866Y-61595000D03*
%TD*%
D24*
%TO.P,Q10,1,A1*%
%TO.N,Net-(J12-Pad2)*%
X176238866Y-57529606D03*
D25*
%TO.P,Q10,2,A2*%
%TO.N,Net-(C1-Pad2)*%
X178778866Y-57529606D03*
%TO.P,Q10,3,G*%
%TO.N,Net-(Q10-Pad3)*%
X181318866Y-57529606D03*
%TD*%
D20*
%TO.P,U10,1*%
%TO.N,Net-(R10-Pad1)*%
X163528866Y-88239803D03*
D21*
%TO.P,U10,2*%
%TO.N,Net-(D9-Pad2)*%
X166068866Y-88239803D03*
%TO.P,U10,3,NC*%
%TO.N,unconnected-(U10-Pad3)*%
X168608866Y-88239803D03*
%TO.P,U10,4*%
%TO.N,Net-(Q9-Pad3)*%
X168608866Y-80619803D03*
%TO.P,U10,5,NC*%
%TO.N,unconnected-(U10-Pad5)*%
X166068866Y-80619803D03*
%TO.P,U10,6*%
%TO.N,Net-(R20-Pad1)*%
X163528866Y-80619803D03*
%TD*%
D22*
%TO.P,R54,1*%
%TO.N,Net-(R54-Pad1)*%
X189573866Y-72149803D03*
D23*
%TO.P,R54,2*%
%TO.N,Net-(C11-Pad1)*%
X189573866Y-69609803D03*
%TD*%
D16*
%TO.P,D8,1,K*%
%TO.N,GNDREF*%
X143685800Y-77476874D03*
D17*
%TO.P,D8,2,A*%
%TO.N,Net-(D8-Pad2)*%
X143685800Y-80016874D03*
%TD*%
D31*
%TO.P,F1,1*%
%TO.N,LINE*%
X187564448Y-111028579D03*
X187564448Y-115628579D03*
%TO.P,F1,2*%
%TO.N,Net-(C1-Pad2)*%
X187564448Y-95128579D03*
X187564448Y-99728579D03*
%TD*%
D22*
%TO.P,R24,1*%
%TO.N,Net-(C3-Pad1)*%
X55598866Y-66024803D03*
D23*
%TO.P,R24,2*%
%TO.N,Net-(J4-Pad2)*%
X55598866Y-63484803D03*
%TD*%
D22*
%TO.P,R21,1*%
%TO.N,Net-(R21-Pad1)*%
X175603866Y-72149803D03*
D23*
%TO.P,R21,2*%
%TO.N,Net-(C10-Pad1)*%
X175603866Y-69609803D03*
%TD*%
D22*
%TO.P,R37,1*%
%TO.N,Net-(Q6-Pad3)*%
X123308866Y-52070000D03*
D23*
%TO.P,R37,2*%
%TO.N,Net-(C1-Pad2)*%
X120768866Y-52070000D03*
%TD*%
D22*
%TO.P,R41,1*%
%TO.N,Net-(Q10-Pad3)*%
X183633866Y-52070000D03*
D23*
%TO.P,R41,2*%
%TO.N,Net-(C1-Pad2)*%
X181093866Y-52070000D03*
%TD*%
D29*
%TO.P,J1,1,Pin_1*%
%TO.N,GNDREF*%
X43180000Y-100965000D03*
D30*
%TO.P,J1,2,Pin_2*%
%TO.N,Net-(J1-Pad2)*%
X43180000Y-106045000D03*
%TO.P,J1,3,Pin_3*%
%TO.N,+3V3*%
X43180000Y-111125000D03*
%TD*%
D22*
%TO.P,RV9,1*%
%TO.N,Net-(C1-Pad2)*%
X165403866Y-49196043D03*
%TO.P,RV9,2*%
%TO.N,Net-(J11-Pad2)*%
X160403866Y-47996043D03*
%TD*%
D26*
%TO.P,C11,1*%
%TO.N,Net-(C11-Pad1)*%
X195288866Y-76595000D03*
%TO.P,C11,2*%
%TO.N,Net-(C1-Pad2)*%
X195288866Y-61595000D03*
%TD*%
D22*
%TO.P,R22,1*%
%TO.N,Net-(C1-Pad1)*%
X100038866Y-66024803D03*
D23*
%TO.P,R22,2*%
%TO.N,Net-(J7-Pad2)*%
X100038866Y-63484803D03*
%TD*%
D16*
%TO.P,D7,1,K*%
%TO.N,GNDREF*%
X128626278Y-77449803D03*
D17*
%TO.P,D7,2,A*%
%TO.N,Net-(D7-Pad2)*%
X128626278Y-79989803D03*
%TD*%
D27*
%TO.P,J2,1,Pin_1*%
%TO.N,GNDREF*%
X94953866Y-101949803D03*
D28*
%TO.P,J2,2,Pin_2*%
%TO.N,Net-(J2-Pad2)*%
X97493866Y-101949803D03*
%TO.P,J2,3,Pin_3*%
%TO.N,Net-(J2-Pad3)*%
X100033866Y-101949803D03*
%TO.P,J2,4,Pin_4*%
%TO.N,Net-(J2-Pad4)*%
X102573866Y-101949803D03*
%TO.P,J2,5,Pin_5*%
%TO.N,Net-(J2-Pad5)*%
X105113866Y-101949803D03*
%TO.P,J2,6,Pin_6*%
%TO.N,Net-(J2-Pad6)*%
X107653866Y-101949803D03*
%TO.P,J2,7,Pin_7*%
%TO.N,Net-(J2-Pad7)*%
X110193866Y-101949803D03*
%TO.P,J2,8,Pin_8*%
%TO.N,Net-(J2-Pad8)*%
X112733866Y-101949803D03*
%TO.P,J2,9,Pin_9*%
%TO.N,Net-(J2-Pad9)*%
X115273866Y-101949803D03*
%TO.P,J2,10,Pin_10*%
%TO.N,Net-(J2-Pad10)*%
X117813866Y-101949803D03*
%TO.P,J2,11,Pin_11*%
%TO.N,Net-(J2-Pad11)*%
X120353866Y-101949803D03*
%TO.P,J2,12,Pin_12*%
%TO.N,Net-(J2-Pad12)*%
X122893866Y-101949803D03*
%TD*%
D27*
%TO.P,JP8,1,A*%
%TO.N,Net-(J11-Pad2)*%
X158478866Y-52320000D03*
D28*
%TO.P,JP8,2,B*%
%TO.N,Net-(C1-Pad2)*%
X161018866Y-52320000D03*
%TD*%
D22*
%TO.P,RV7,1*%
%TO.N,Net-(C1-Pad2)*%
X134288866Y-49196043D03*
%TO.P,RV7,2*%
%TO.N,Net-(J9-Pad2)*%
X129288866Y-47996043D03*
%TD*%
D18*
%TO.P,J10,1,Pin_1*%
%TO.N,NEUT*%
X149465000Y-41611043D03*
D19*
%TO.P,J10,2,Pin_2*%
%TO.N,Net-(J10-Pad2)*%
X144465000Y-41611043D03*
%TD*%
D22*
%TO.P,R33,1*%
%TO.N,Net-(Q2-Pad3)*%
X64888866Y-52070000D03*
D23*
%TO.P,R33,2*%
%TO.N,Net-(C1-Pad2)*%
X62348866Y-52070000D03*
%TD*%
D26*
%TO.P,C6,1*%
%TO.N,Net-(C6-Pad1)*%
X120358866Y-76715000D03*
%TO.P,C6,2*%
%TO.N,Net-(C1-Pad2)*%
X120358866Y-61715000D03*
%TD*%
D18*
%TO.P,J3,1,Pin_1*%
%TO.N,NEUT*%
X44465000Y-41611043D03*
D19*
%TO.P,J3,2,Pin_2*%
%TO.N,Net-(J3-Pad2)*%
X39465000Y-41611043D03*
%TD*%
D24*
%TO.P,Q5,1,A1*%
%TO.N,Net-(J7-Pad2)*%
X100673866Y-57529606D03*
D25*
%TO.P,Q5,2,A2*%
%TO.N,Net-(C1-Pad2)*%
X103213866Y-57529606D03*
%TO.P,Q5,3,G*%
%TO.N,Net-(Q5-Pad3)*%
X105753866Y-57529606D03*
%TD*%
D22*
%TO.P,RV4,1*%
%TO.N,Net-(C1-Pad2)*%
X90473866Y-49196043D03*
%TO.P,RV4,2*%
%TO.N,Net-(J6-Pad2)*%
X85473866Y-47996043D03*
%TD*%
%TO.P,RV10,1*%
%TO.N,Net-(C1-Pad2)*%
X180643866Y-49196043D03*
%TO.P,RV10,2*%
%TO.N,Net-(J12-Pad2)*%
X175643866Y-47996043D03*
%TD*%
D16*
%TO.P,D1,1,K*%
%TO.N,GNDREF*%
X37626313Y-78065085D03*
D17*
%TO.P,D1,2,A*%
%TO.N,Net-(D1-Pad2)*%
X37626313Y-80605085D03*
%TD*%
D20*
%TO.P,U9,1*%
%TO.N,Net-(R9-Pad1)*%
X147686227Y-88239803D03*
D21*
%TO.P,U9,2*%
%TO.N,Net-(D8-Pad2)*%
X150226227Y-88239803D03*
%TO.P,U9,3,NC*%
%TO.N,unconnected-(U9-Pad3)*%
X152766227Y-88239803D03*
%TO.P,U9,4*%
%TO.N,Net-(Q8-Pad3)*%
X152766227Y-80619803D03*
%TO.P,U9,5,NC*%
%TO.N,unconnected-(U9-Pad5)*%
X150226227Y-80619803D03*
%TO.P,U9,6*%
%TO.N,Net-(R19-Pad1)*%
X147686227Y-80619803D03*
%TD*%
D27*
%TO.P,JP10,1,A*%
%TO.N,Net-(J12-Pad2)*%
X173083866Y-52320000D03*
D28*
%TO.P,JP10,2,B*%
%TO.N,Net-(C1-Pad2)*%
X175623866Y-52320000D03*
%TD*%
D26*
%TO.P,C1,1*%
%TO.N,Net-(C1-Pad1)*%
X105753866Y-76715000D03*
%TO.P,C1,2*%
%TO.N,Net-(C1-Pad2)*%
X105753866Y-61715000D03*
%TD*%
D16*
%TO.P,D10,1,K*%
%TO.N,GNDREF*%
X174894010Y-77442476D03*
D17*
%TO.P,D10,2,A*%
%TO.N,Net-(D10-Pad2)*%
X174894010Y-79982476D03*
%TD*%
D26*
%TO.P,C5,1*%
%TO.N,Net-(C5-Pad1)*%
X90513866Y-76715000D03*
%TO.P,C5,2*%
%TO.N,Net-(C1-Pad2)*%
X90513866Y-61715000D03*
%TD*%
D16*
%TO.P,D11,1,K*%
%TO.N,GNDREF*%
X188862933Y-77442476D03*
D17*
%TO.P,D11,2,A*%
%TO.N,Net-(D11-Pad2)*%
X188862933Y-79982476D03*
%TD*%
D32*
%TO.P,U1,1,EN*%
%TO.N,unconnected-(U1-Pad1)*%
X127978866Y-94329803D03*
D33*
%TO.P,U1,2,SENSOR_VP*%
%TO.N,unconnected-(U1-Pad2)*%
X125438866Y-94329803D03*
%TO.P,U1,3,SENSOR_VN*%
%TO.N,unconnected-(U1-Pad3)*%
X122898866Y-94329803D03*
%TO.P,U1,4,IO34*%
%TO.N,unconnected-(U1-Pad4)*%
X120358866Y-94329803D03*
%TO.P,U1,5,IO35*%
%TO.N,unconnected-(U1-Pad5)*%
X117818866Y-94329803D03*
%TO.P,U1,6,IO32*%
%TO.N,Net-(J2-Pad9)*%
X115278866Y-94329803D03*
%TO.P,U1,7,IO33*%
%TO.N,Net-(J2-Pad8)*%
X112738866Y-94329803D03*
%TO.P,U1,8,IO25*%
%TO.N,Net-(J2-Pad7)*%
X110198866Y-94329803D03*
%TO.P,U1,9,IO26*%
%TO.N,Net-(J2-Pad6)*%
X107658866Y-94329803D03*
%TO.P,U1,10,IO27*%
%TO.N,Net-(J2-Pad5)*%
X105118866Y-94329803D03*
%TO.P,U1,11,IO14*%
%TO.N,Net-(J2-Pad4)*%
X102578866Y-94329803D03*
%TO.P,U1,12,IO12*%
%TO.N,Net-(J2-Pad3)*%
X100038866Y-94329803D03*
%TO.P,U1,13,IO13*%
%TO.N,Net-(J2-Pad2)*%
X97498866Y-94329803D03*
%TO.P,U1,14,GND*%
%TO.N,GNDREF*%
X94958866Y-94329803D03*
%TO.P,U1,15,VIN*%
%TO.N,+5V*%
X92418866Y-94329803D03*
%TO.P,U1,16,3V3*%
%TO.N,+3V3*%
X92418866Y-119729803D03*
%TO.P,U1,17,GND*%
%TO.N,GNDREF*%
X94958866Y-119729803D03*
%TO.P,U1,18,IO15*%
%TO.N,Net-(J1-Pad2)*%
X97498866Y-119729803D03*
%TO.P,U1,19,IO2*%
%TO.N,unconnected-(U1-Pad19)*%
X100038866Y-119729803D03*
%TO.P,U1,20,IO4*%
%TO.N,unconnected-(U1-Pad20)*%
X102578866Y-119729803D03*
%TO.P,U1,21,IO16*%
%TO.N,unconnected-(U1-Pad21)*%
X105118866Y-119729803D03*
%TO.P,U1,22,IO17*%
%TO.N,unconnected-(U1-Pad22)*%
X107658866Y-119729803D03*
%TO.P,U1,23,IO5*%
%TO.N,unconnected-(U1-Pad23)*%
X110198866Y-119729803D03*
%TO.P,U1,24,IO18*%
%TO.N,unconnected-(U1-Pad24)*%
X112738866Y-119729803D03*
%TO.P,U1,25,IO19*%
%TO.N,unconnected-(U1-Pad25)*%
X115278866Y-119729803D03*
%TO.P,U1,26,IO21*%
%TO.N,Net-(J2-Pad10)*%
X117818866Y-119729803D03*
%TO.P,U1,27,RXD0/IO3*%
%TO.N,unconnected-(U1-Pad27)*%
X120358866Y-119729803D03*
%TO.P,U1,28,TXD0/IO1*%
%TO.N,unconnected-(U1-Pad28)*%
X122898866Y-119729803D03*
%TO.P,U1,29,IO22*%
%TO.N,Net-(J2-Pad11)*%
X125438866Y-119729803D03*
%TO.P,U1,30,IO23*%
%TO.N,Net-(J2-Pad12)*%
X127978866Y-119729803D03*
%TD*%
D20*
%TO.P,U3,1*%
%TO.N,Net-(R3-Pad2)*%
X58763866Y-88239803D03*
D21*
%TO.P,U3,2*%
%TO.N,Net-(D2-Pad2)*%
X61303866Y-88239803D03*
%TO.P,U3,3,NC*%
%TO.N,unconnected-(U3-Pad3)*%
X63843866Y-88239803D03*
%TO.P,U3,4*%
%TO.N,Net-(Q2-Pad3)*%
X63843866Y-80619803D03*
%TO.P,U3,5,NC*%
%TO.N,unconnected-(U3-Pad5)*%
X61303866Y-80619803D03*
%TO.P,U3,6*%
%TO.N,Net-(R14-Pad1)*%
X58763866Y-80619803D03*
%TD*%
D22*
%TO.P,R35,1*%
%TO.N,Net-(Q4-Pad3)*%
X93463866Y-52070000D03*
D23*
%TO.P,R35,2*%
%TO.N,Net-(C1-Pad2)*%
X90923866Y-52070000D03*
%TD*%
D22*
%TO.P,RV8,1*%
%TO.N,Net-(C1-Pad2)*%
X152068866Y-49196043D03*
%TO.P,RV8,2*%
%TO.N,Net-(J10-Pad2)*%
X147068866Y-47996043D03*
%TD*%
D18*
%TO.P,J4,1,Pin_1*%
%TO.N,NEUT*%
X59465000Y-41611043D03*
D19*
%TO.P,J4,2,Pin_2*%
%TO.N,Net-(J4-Pad2)*%
X54465000Y-41611043D03*
%TD*%
D26*
%TO.P,C10,1*%
%TO.N,Net-(C10-Pad1)*%
X181318866Y-76715000D03*
%TO.P,C10,2*%
%TO.N,Net-(C1-Pad2)*%
X181318866Y-61715000D03*
%TD*%
%TO.P,C9,1*%
%TO.N,Net-(C9-Pad1)*%
X166078866Y-76715000D03*
%TO.P,C9,2*%
%TO.N,Net-(C1-Pad2)*%
X166078866Y-61715000D03*
%TD*%
D20*
%TO.P,U7,1*%
%TO.N,Net-(R7-Pad1)*%
X117852341Y-88251926D03*
D21*
%TO.P,U7,2*%
%TO.N,Net-(D6-Pad2)*%
X120392341Y-88251926D03*
%TO.P,U7,3,NC*%
%TO.N,unconnected-(U7-Pad3)*%
X122932341Y-88251926D03*
%TO.P,U7,4*%
%TO.N,Net-(Q6-Pad3)*%
X122932341Y-80631926D03*
%TO.P,U7,5,NC*%
%TO.N,unconnected-(U7-Pad5)*%
X120392341Y-80631926D03*
%TO.P,U7,6*%
%TO.N,Net-(R17-Pad1)*%
X117852341Y-80631926D03*
%TD*%
D22*
%TO.P,RV11,1*%
%TO.N,Net-(C1-Pad2)*%
X195248866Y-49196043D03*
%TO.P,RV11,2*%
%TO.N,Net-(J13-Pad2)*%
X190248866Y-47996043D03*
%TD*%
%TO.P,R16,1*%
%TO.N,Net-(R16-Pad1)*%
X84743566Y-72129552D03*
D23*
%TO.P,R16,2*%
%TO.N,Net-(C5-Pad1)*%
X84743566Y-69589552D03*
%TD*%
D24*
%TO.P,Q4,1,A1*%
%TO.N,Net-(J6-Pad2)*%
X85433866Y-57529606D03*
D25*
%TO.P,Q4,2,A2*%
%TO.N,Net-(C1-Pad2)*%
X87973866Y-57529606D03*
%TO.P,Q4,3,G*%
%TO.N,Net-(Q4-Pad3)*%
X90513866Y-57529606D03*
%TD*%
D24*
%TO.P,Q22,1,A1*%
%TO.N,Net-(J13-Pad2)*%
X190208866Y-57529606D03*
D25*
%TO.P,Q22,2,A2*%
%TO.N,Net-(C1-Pad2)*%
X192748866Y-57529606D03*
%TO.P,Q22,3,G*%
%TO.N,Net-(Q22-Pad3)*%
X195288866Y-57529606D03*
%TD*%
D26*
%TO.P,C8,1*%
%TO.N,Net-(C8-Pad1)*%
X150203866Y-76715000D03*
%TO.P,C8,2*%
%TO.N,Net-(C1-Pad2)*%
X150203866Y-61715000D03*
%TD*%
D22*
%TO.P,R18,1*%
%TO.N,Net-(R18-Pad1)*%
X129248866Y-72149803D03*
D23*
%TO.P,R18,2*%
%TO.N,Net-(C7-Pad1)*%
X129248866Y-69609803D03*
%TD*%
D22*
%TO.P,R14,1*%
%TO.N,Net-(R14-Pad1)*%
X55598866Y-72149803D03*
D23*
%TO.P,R14,2*%
%TO.N,Net-(C3-Pad1)*%
X55598866Y-69609803D03*
%TD*%
D16*
%TO.P,D6,1,K*%
%TO.N,GNDREF*%
X113814929Y-77446780D03*
D17*
%TO.P,D6,2,A*%
%TO.N,Net-(D6-Pad2)*%
X113814929Y-79986780D03*
%TD*%
D20*
%TO.P,U12,1*%
%TO.N,Net-(R53-Pad1)*%
X192738866Y-88239803D03*
D21*
%TO.P,U12,2*%
%TO.N,Net-(D11-Pad2)*%
X195278866Y-88239803D03*
%TO.P,U12,3,NC*%
%TO.N,unconnected-(U12-Pad3)*%
X197818866Y-88239803D03*
%TO.P,U12,4*%
%TO.N,Net-(Q22-Pad3)*%
X197818866Y-80619803D03*
%TO.P,U12,5,NC*%
%TO.N,unconnected-(U12-Pad5)*%
X195278866Y-80619803D03*
%TO.P,U12,6*%
%TO.N,Net-(R54-Pad1)*%
X192738866Y-80619803D03*
%TD*%
D22*
%TO.P,R29,1*%
%TO.N,Net-(C8-Pad1)*%
X144488866Y-66024803D03*
D23*
%TO.P,R29,2*%
%TO.N,Net-(J10-Pad2)*%
X144488866Y-63484803D03*
%TD*%
D22*
%TO.P,R13,1*%
%TO.N,Net-(R13-Pad1)*%
X37808866Y-72149803D03*
D23*
%TO.P,R13,2*%
%TO.N,Net-(C2-Pad1)*%
X37808866Y-69609803D03*
%TD*%
D22*
%TO.P,R32,1*%
%TO.N,Net-(Q1-Pad3)*%
X46473866Y-52070000D03*
D23*
%TO.P,R32,2*%
%TO.N,Net-(C1-Pad2)*%
X43933866Y-52070000D03*
%TD*%
D18*
%TO.P,J11,1,Pin_1*%
%TO.N,NEUT*%
X164465000Y-41611043D03*
D19*
%TO.P,J11,2,Pin_2*%
%TO.N,Net-(J11-Pad2)*%
X159465000Y-41611043D03*
%TD*%
D22*
%TO.P,R39,1*%
%TO.N,Net-(Q8-Pad3)*%
X154423866Y-52070000D03*
D23*
%TO.P,R39,2*%
%TO.N,Net-(C1-Pad2)*%
X151883866Y-52070000D03*
%TD*%
D34*
%TO.P,PS1,1,AC/L*%
%TO.N,Net-(C1-Pad2)*%
X176323366Y-109152540D03*
D31*
%TO.P,PS1,2,AC/N*%
%TO.N,NEUT*%
X176323366Y-104152540D03*
%TO.P,PS1,3,-Vout*%
%TO.N,GNDREF*%
X146923366Y-114352540D03*
%TO.P,PS1,4,+Vout*%
%TO.N,+5V*%
X146923366Y-98952540D03*
%TD*%
D20*
%TO.P,U5,1*%
%TO.N,Net-(R5-Pad2)*%
X87963866Y-88239803D03*
D21*
%TO.P,U5,2*%
%TO.N,Net-(D4-Pad2)*%
X90503866Y-88239803D03*
%TO.P,U5,3,NC*%
%TO.N,unconnected-(U5-Pad3)*%
X93043866Y-88239803D03*
%TO.P,U5,4*%
%TO.N,Net-(Q4-Pad3)*%
X93043866Y-80619803D03*
%TO.P,U5,5,NC*%
%TO.N,unconnected-(U5-Pad5)*%
X90503866Y-80619803D03*
%TO.P,U5,6*%
%TO.N,Net-(R16-Pad1)*%
X87963866Y-80619803D03*
%TD*%
D22*
%TO.P,RV3,1*%
%TO.N,Net-(C1-Pad2)*%
X75868866Y-49196043D03*
%TO.P,RV3,2*%
%TO.N,Net-(J5-Pad2)*%
X70868866Y-47996043D03*
%TD*%
D20*
%TO.P,U6,1*%
%TO.N,Net-(R6-Pad1)*%
X103213866Y-88249803D03*
D21*
%TO.P,U6,2*%
%TO.N,Net-(D5-Pad2)*%
X105753866Y-88249803D03*
%TO.P,U6,3,NC*%
%TO.N,unconnected-(U6-Pad3)*%
X108293866Y-88249803D03*
%TO.P,U6,4*%
%TO.N,Net-(Q5-Pad3)*%
X108293866Y-80629803D03*
%TO.P,U6,5,NC*%
%TO.N,unconnected-(U6-Pad5)*%
X105753866Y-80629803D03*
%TO.P,U6,6*%
%TO.N,Net-(R12-Pad1)*%
X103213866Y-80629803D03*
%TD*%
D22*
%TO.P,R17,1*%
%TO.N,Net-(R17-Pad1)*%
X114689469Y-72149803D03*
D23*
%TO.P,R17,2*%
%TO.N,Net-(C6-Pad1)*%
X114689469Y-69609803D03*
%TD*%
D22*
%TO.P,R36,1*%
%TO.N,Net-(Q5-Pad3)*%
X108703866Y-52070000D03*
D23*
%TO.P,R36,2*%
%TO.N,Net-(C1-Pad2)*%
X106163866Y-52070000D03*
%TD*%
D16*
%TO.P,D9,1,K*%
%TO.N,GNDREF*%
X159598582Y-77442476D03*
D17*
%TO.P,D9,2,A*%
%TO.N,Net-(D9-Pad2)*%
X159598582Y-79982476D03*
%TD*%
D22*
%TO.P,R12,1*%
%TO.N,Net-(R12-Pad1)*%
X100052569Y-72166891D03*
D23*
%TO.P,R12,2*%
%TO.N,Net-(C1-Pad1)*%
X100052569Y-69626891D03*
%TD*%
D22*
%TO.P,R15,1*%
%TO.N,Net-(R15-Pad1)*%
X70193866Y-72149803D03*
D23*
%TO.P,R15,2*%
%TO.N,Net-(C4-Pad1)*%
X70193866Y-69609803D03*
%TD*%
D24*
%TO.P,Q6,1,A1*%
%TO.N,Net-(J8-Pad2)*%
X115278866Y-57529606D03*
D25*
%TO.P,Q6,2,A2*%
%TO.N,Net-(C1-Pad2)*%
X117818866Y-57529606D03*
%TO.P,Q6,3,G*%
%TO.N,Net-(Q6-Pad3)*%
X120358866Y-57529606D03*
%TD*%
D22*
%TO.P,R23,1*%
%TO.N,Net-(C2-Pad1)*%
X37808866Y-66024803D03*
D23*
%TO.P,R23,2*%
%TO.N,Net-(J3-Pad2)*%
X37808866Y-63484803D03*
%TD*%
D20*
%TO.P,U4,1*%
%TO.N,Net-(R4-Pad2)*%
X73358866Y-88239803D03*
D21*
%TO.P,U4,2*%
%TO.N,Net-(D3-Pad2)*%
X75898866Y-88239803D03*
%TO.P,U4,3,NC*%
%TO.N,unconnected-(U4-Pad3)*%
X78438866Y-88239803D03*
%TO.P,U4,4*%
%TO.N,Net-(Q3-Pad3)*%
X78438866Y-80619803D03*
%TO.P,U4,5,NC*%
%TO.N,unconnected-(U4-Pad5)*%
X75898866Y-80619803D03*
%TO.P,U4,6*%
%TO.N,Net-(R15-Pad1)*%
X73358866Y-80619803D03*
%TD*%
D27*
%TO.P,JP4,1,A*%
%TO.N,Net-(J7-Pad2)*%
X98788866Y-52320000D03*
D28*
%TO.P,JP4,2,B*%
%TO.N,Net-(C1-Pad2)*%
X101328866Y-52320000D03*
%TD*%
D22*
%TO.P,R20,1*%
%TO.N,Net-(R20-Pad1)*%
X160363866Y-72149803D03*
D23*
%TO.P,R20,2*%
%TO.N,Net-(C9-Pad1)*%
X160363866Y-69609803D03*
%TD*%
D22*
%TO.P,RV5,1*%
%TO.N,Net-(C1-Pad2)*%
X105713866Y-49196043D03*
%TO.P,RV5,2*%
%TO.N,Net-(J7-Pad2)*%
X100713866Y-47996043D03*
%TD*%
D35*
%TO.N,+5V*%
X95893095Y-82727574D03*
X125738095Y-82727574D03*
%TD*%
D36*
%TO.N,NEUT*%
X182680866Y-104529803D02*
X194969107Y-104529803D01*
X194969107Y-104529803D02*
X195397152Y-104957848D01*
X195397152Y-109948089D02*
X195397152Y-104957848D01*
X195397152Y-104957848D02*
X195397152Y-99657457D01*
X195923866Y-110474803D02*
X195397152Y-109948089D01*
%TO.N,LINE*%
X195923866Y-115554803D02*
X187638224Y-115554803D01*
D37*
%TO.N,Net-(C1-Pad1)*%
X102502046Y-69609803D02*
X100338864Y-69609803D01*
X102601366Y-69587303D02*
X105514798Y-72500735D01*
D38*
X100038866Y-69309804D02*
X100038866Y-66024803D01*
D37*
X105753866Y-73077895D02*
X105753866Y-77334803D01*
X102556366Y-69587303D02*
G75*
G02*
X102601366Y-69587303I22500J-22499D01*
G01*
X105514804Y-72500729D02*
G75*
G02*
X105753866Y-73077895I-577204J-577171D01*
G01*
X102556339Y-69587276D02*
G75*
G02*
X102502046Y-69609803I-54339J54276D01*
G01*
%TO.N,Net-(C1-Pad2)*%
X43518092Y-61595000D02*
X44158866Y-61595000D01*
X74175932Y-61475932D02*
X73607933Y-60907933D01*
D39*
X195063866Y-49511857D02*
X195063866Y-52406043D01*
D37*
X132423866Y-60330773D02*
X132423866Y-57529606D01*
D39*
X73368866Y-56726666D02*
X73368866Y-54647698D01*
D37*
X192748866Y-59680576D02*
X192748866Y-57429606D01*
D39*
X201399798Y-92663870D02*
X199662933Y-94400735D01*
X119154798Y-49435110D02*
X116759977Y-51829931D01*
X117818866Y-56726666D02*
X117818866Y-57429606D01*
D37*
X73368866Y-60330773D02*
X73368866Y-57529606D01*
X58763866Y-57881076D02*
X58763866Y-60330773D01*
D39*
X86438727Y-52306181D02*
X86136595Y-52608313D01*
X86596181Y-52148727D02*
X86438727Y-52306181D01*
X172951798Y-97743870D02*
X169619933Y-101075735D01*
X43858866Y-52145000D02*
X43783866Y-52220000D01*
D37*
X162182933Y-52080932D02*
X162188399Y-52075466D01*
D39*
X176420773Y-52320000D02*
X175975336Y-52320000D01*
X192748866Y-56726666D02*
X192748866Y-54647698D01*
D37*
X74753092Y-61715000D02*
X75908866Y-61715000D01*
D39*
X172476695Y-109152540D02*
X176056600Y-109152540D01*
X119731958Y-49196043D02*
X120318866Y-49196043D01*
D37*
X148785130Y-52143734D02*
X148711396Y-52217469D01*
D39*
X180472049Y-49367859D02*
X177422933Y-52416975D01*
D36*
X197091958Y-47691043D02*
X199395773Y-47691043D01*
D39*
X74704798Y-49435110D02*
X71531595Y-52608313D01*
D37*
X132423866Y-56384404D02*
X132423866Y-57429606D01*
X88212933Y-60907933D02*
X88780932Y-61475932D01*
D39*
X196514798Y-47930110D02*
X195156366Y-49288543D01*
D37*
X178778866Y-60315576D02*
X178778866Y-57429606D01*
D39*
X190441733Y-52320000D02*
X190478866Y-52320000D01*
X39781595Y-52502729D02*
X41379798Y-54100932D01*
X176967394Y-109529803D02*
X181480866Y-109529803D01*
X190228866Y-52320000D02*
X194813866Y-52320000D01*
X180981366Y-51957500D02*
X180868866Y-51845000D01*
X105413867Y-49196043D02*
X105126958Y-49196043D01*
X163538866Y-56726666D02*
X163538866Y-57429606D01*
D37*
X164923092Y-61715000D02*
X166078866Y-61715000D01*
D39*
X39801366Y-52320000D02*
X39878866Y-52320000D01*
D40*
X42081816Y-53168182D02*
X42940932Y-52309067D01*
D39*
X86438727Y-52306181D02*
X86596181Y-52148727D01*
D40*
X43518092Y-52070000D02*
X43827799Y-52070000D01*
D39*
X178778866Y-56726666D02*
X178778866Y-54647698D01*
X199972933Y-47930110D02*
X201399798Y-49356975D01*
D37*
X131660256Y-52070000D02*
X133468866Y-52070000D01*
D39*
X130490773Y-52320000D02*
X129971366Y-52320000D01*
X43542444Y-52320000D02*
X39801366Y-52320000D01*
X148079797Y-54528673D02*
X147902933Y-54705538D01*
D36*
X42152985Y-53340000D02*
X42325773Y-53340000D01*
D39*
X161605773Y-52320000D02*
X161370336Y-52320000D01*
X195022933Y-94905735D02*
X195049797Y-94878870D01*
X43483866Y-50357788D02*
X43483866Y-53233381D01*
D37*
X176970773Y-52195000D02*
X176845773Y-52320000D01*
X133808092Y-61715000D02*
X135255000Y-61715000D01*
D39*
X41618866Y-54647698D02*
X41618866Y-56726666D01*
D37*
X103213866Y-60330773D02*
X103213866Y-57529606D01*
D39*
X103213866Y-56726666D02*
X103213866Y-54647698D01*
X101376595Y-52502729D02*
X102974798Y-54100932D01*
X148711396Y-52553512D02*
X152068866Y-49196043D01*
D37*
X119203092Y-61715000D02*
X120358866Y-61715000D01*
X43483866Y-49993309D02*
X43483866Y-49196043D01*
D39*
X116599931Y-51989977D02*
X115981595Y-52608313D01*
D37*
X179601129Y-61475932D02*
X179017933Y-60892736D01*
X131241420Y-52243487D02*
X131192196Y-52292711D01*
X117818866Y-60330773D02*
X117818866Y-57529606D01*
D39*
X185667933Y-97743870D02*
X187497049Y-99572986D01*
X190441733Y-52320000D02*
X191450773Y-52320000D01*
D37*
X41618866Y-59695773D02*
X41618866Y-57529606D01*
D36*
X59663060Y-52070000D02*
X62348866Y-52070000D01*
D39*
X148318866Y-52465000D02*
X148318866Y-53981907D01*
X132423866Y-55857199D02*
X132423866Y-55282698D01*
X105938866Y-51845000D02*
X106163866Y-52070000D01*
X132423866Y-56560139D02*
X132423866Y-55857199D01*
X201638866Y-49934135D02*
X201638866Y-91167950D01*
X129903866Y-52320000D02*
X133218866Y-52320000D01*
X117818866Y-54647698D02*
X117818866Y-56726666D01*
D36*
X61372945Y-49333415D02*
X58591714Y-52114646D01*
D37*
X103452933Y-60907933D02*
X104020932Y-61475932D01*
X42940932Y-61355932D02*
X41857933Y-60272933D01*
X132662933Y-60907933D02*
X133230932Y-61475932D01*
D39*
X132423866Y-55857199D02*
X132423866Y-56384404D01*
X41618866Y-56726666D02*
X41618866Y-57429606D01*
X89886958Y-49196043D02*
X90473866Y-49196043D01*
X194813866Y-52320000D02*
X195063866Y-52070000D01*
X195626959Y-94639803D02*
X199085773Y-94639803D01*
X133218866Y-52320000D02*
X133468866Y-52070000D01*
X131192196Y-52292711D02*
X134288866Y-49196043D01*
X178778866Y-56726666D02*
X178778866Y-57429606D01*
X169380866Y-106056710D02*
X169380866Y-101652895D01*
D36*
X59085898Y-52309067D02*
X58936017Y-52458949D01*
D37*
X43312049Y-50286619D02*
X43397957Y-50200710D01*
X116953169Y-52070000D02*
X120768866Y-52070000D01*
D39*
X187968864Y-95144803D02*
X194445773Y-95144803D01*
X89309798Y-49435110D02*
X86596181Y-52148727D01*
X161815773Y-52320000D02*
X161370336Y-52320000D01*
D37*
X164345932Y-61475932D02*
X163777933Y-60907933D01*
D39*
X86136595Y-52502729D02*
X87734798Y-54100932D01*
D37*
X148963141Y-52070000D02*
X151883866Y-52070000D01*
X162201595Y-52070000D02*
X165853866Y-52070000D01*
D39*
X132184798Y-54705538D02*
X129951595Y-52472335D01*
X115981595Y-52502729D02*
X117579798Y-54100932D01*
D37*
X163538866Y-60330773D02*
X163538866Y-57429606D01*
X86786244Y-52070000D02*
X90923866Y-52070000D01*
X149048092Y-61715000D02*
X150203866Y-61715000D01*
X71910642Y-52070000D02*
X76318866Y-52070000D01*
X118057933Y-60907933D02*
X118625932Y-61475932D01*
D39*
X192748866Y-56726666D02*
X192748866Y-57429606D01*
X105713866Y-49496041D02*
X105713866Y-51637844D01*
D36*
X61704592Y-49196043D02*
X61898866Y-49196043D01*
D39*
X176997933Y-52559067D02*
X178539798Y-54100932D01*
X87973866Y-54647698D02*
X87973866Y-56726666D01*
D37*
X104598092Y-61715000D02*
X105753866Y-61715000D01*
D39*
X71531595Y-52502729D02*
X73129798Y-54100932D01*
X73368866Y-56726666D02*
X73368866Y-57429606D01*
X43312049Y-50286619D02*
X40126396Y-53472272D01*
X169619933Y-106633870D02*
X171899535Y-108913472D01*
D37*
X87973866Y-60330773D02*
X87973866Y-57529606D01*
X194663289Y-61595000D02*
X195288866Y-61595000D01*
D36*
X42902933Y-53100932D02*
X43858866Y-52145000D01*
D39*
X163538866Y-54012698D02*
X163538866Y-56726666D01*
D37*
X194086129Y-61355932D02*
X192987933Y-60257736D01*
D39*
X175975336Y-52320000D02*
X176845773Y-52320000D01*
X103213866Y-56726666D02*
X103213866Y-57429606D01*
X162392933Y-52559067D02*
X163299798Y-53465932D01*
D36*
X58763866Y-52874559D02*
X58763866Y-57178136D01*
D37*
X59570932Y-61475932D02*
X59002933Y-60907933D01*
D39*
X104549798Y-49435110D02*
X101376595Y-52608313D01*
D37*
X180178289Y-61715000D02*
X181318866Y-61715000D01*
D39*
X87973866Y-56726666D02*
X87973866Y-57429606D01*
X147663866Y-57186456D02*
X147663866Y-55282698D01*
D37*
X177272549Y-52070000D02*
X180934766Y-52070000D01*
D39*
X195156365Y-49288542D02*
X192027933Y-52416975D01*
D37*
X147663866Y-60330773D02*
X147663866Y-57429606D01*
X89358092Y-61715000D02*
X90513866Y-61715000D01*
D39*
X190905642Y-52496776D02*
X192509798Y-54100932D01*
X75281958Y-49196043D02*
X75868866Y-49196043D01*
X116599931Y-51989977D02*
X116759977Y-51829931D01*
D37*
X60148092Y-61715000D02*
X61313866Y-61715000D01*
D39*
X187668866Y-95444801D02*
X187668866Y-99501817D01*
X162182933Y-52416975D02*
X165403866Y-49196043D01*
X132423866Y-56560139D02*
X132423866Y-57078136D01*
X185090773Y-97504803D02*
X173528958Y-97504803D01*
D36*
X58763866Y-57178136D02*
X58763866Y-57881076D01*
D37*
X71608866Y-52195000D02*
X71483866Y-52320000D01*
X147902933Y-60907933D02*
X148470932Y-61475932D01*
D39*
X180643866Y-49439028D02*
X180643866Y-51637844D01*
D40*
X42152985Y-53340093D02*
G75*
G02*
X42081816Y-53168182I15J100693D01*
G01*
D39*
X43583869Y-52219997D02*
G75*
G02*
X43542444Y-52320000I-41469J-41403D01*
G01*
X195156383Y-49288560D02*
G75*
G03*
X195063866Y-49511857I223317J-223340D01*
G01*
X180934766Y-52069978D02*
G75*
G03*
X180981366Y-51957500I34J65878D01*
G01*
X180643815Y-49439028D02*
G75*
G03*
X180472049Y-49367859I-100615J28D01*
G01*
X86088859Y-52387500D02*
G75*
G03*
X86136595Y-52502729I162941J0D01*
G01*
D36*
X58936017Y-52458949D02*
G75*
G02*
X58591714Y-52458949I-172151J172153D01*
G01*
D37*
X103452918Y-60907948D02*
G75*
G02*
X103213866Y-60330773I577182J577148D01*
G01*
D39*
X39733859Y-52387500D02*
G75*
G03*
X39781595Y-52502729I162941J0D01*
G01*
X102974805Y-54070531D02*
G75*
G02*
X103213866Y-54647698I-577205J-577169D01*
G01*
X199662942Y-94400744D02*
G75*
G02*
X199085773Y-94639803I-577142J577144D01*
G01*
X147491965Y-57601571D02*
G75*
G03*
X147663866Y-57186456I-415165J415071D01*
G01*
D37*
X88212918Y-60907948D02*
G75*
G02*
X87973866Y-60330773I577182J577148D01*
G01*
X149048092Y-61715013D02*
G75*
G02*
X148470932Y-61475932I8J816213D01*
G01*
X43518092Y-61595013D02*
G75*
G02*
X42940932Y-61355932I8J816213D01*
G01*
D39*
X201638861Y-92086710D02*
G75*
G02*
X201399798Y-92663870I-816261J10D01*
G01*
X148711422Y-52217495D02*
G75*
G02*
X148463866Y-52320000I-247522J247595D01*
G01*
X89886958Y-49196022D02*
G75*
G03*
X89309798Y-49435110I42J-816278D01*
G01*
X147902933Y-54705538D02*
G75*
G03*
X147663866Y-55282698I577167J-577162D01*
G01*
D37*
X119203092Y-61715013D02*
G75*
G02*
X118625932Y-61475932I8J816213D01*
G01*
D39*
X131067941Y-52080940D02*
G75*
G02*
X130490773Y-52320000I-577141J577140D01*
G01*
X195049825Y-94878898D02*
G75*
G02*
X195626959Y-94639803I577175J-577102D01*
G01*
X148318862Y-53951513D02*
G75*
G02*
X148079796Y-54528672I-816262J13D01*
G01*
D37*
X116599932Y-51989978D02*
G75*
G02*
X116759976Y-51989978I80022J-80021D01*
G01*
X43397965Y-50200718D02*
G75*
G03*
X43483866Y-49993309I-207465J207418D01*
G01*
D39*
X163299805Y-53435531D02*
G75*
G02*
X163538866Y-54012698I-577205J-577169D01*
G01*
D37*
X73607918Y-60907948D02*
G75*
G02*
X73368866Y-60330773I577182J577148D01*
G01*
D39*
X194445773Y-95144790D02*
G75*
G03*
X195022932Y-94905734I27J816190D01*
G01*
D36*
X42325773Y-53339988D02*
G75*
G03*
X42902933Y-53100932I27J816188D01*
G01*
D37*
X132662918Y-60907948D02*
G75*
G02*
X132423866Y-60330773I577182J577148D01*
G01*
D39*
X43783866Y-52220000D02*
G75*
G02*
X43583866Y-52220000I-100000J100001D01*
G01*
X71531600Y-52502724D02*
G75*
G02*
X71483866Y-52387500I115200J115224D01*
G01*
D37*
X71608840Y-52194974D02*
G75*
G02*
X71910642Y-52070000I301760J-301826D01*
G01*
D39*
X178539805Y-54070531D02*
G75*
G02*
X178778866Y-54647698I-577205J-577169D01*
G01*
D37*
X86596157Y-52148703D02*
G75*
G02*
X86786244Y-52070000I190043J-190097D01*
G01*
D36*
X58591695Y-52458968D02*
G75*
G02*
X58763866Y-52874559I-415595J-415632D01*
G01*
X61372942Y-49333412D02*
G75*
G02*
X61704592Y-49196043I331658J-331688D01*
G01*
D39*
X201399824Y-49356949D02*
G75*
G02*
X201638866Y-49934135I-577224J-577151D01*
G01*
X197091958Y-47691022D02*
G75*
G03*
X196514798Y-47930110I42J-816278D01*
G01*
X101376600Y-52502724D02*
G75*
G02*
X101328866Y-52387500I115200J115224D01*
G01*
X115933859Y-52387500D02*
G75*
G03*
X115981595Y-52502729I162941J0D01*
G01*
X172476695Y-109152539D02*
G75*
G02*
X171899535Y-108913472I5J816239D01*
G01*
X180643876Y-51301801D02*
G75*
G03*
X180868867Y-51844999I768224J1D01*
G01*
X195156383Y-49288560D02*
G75*
G03*
X195063866Y-49511857I223317J-223340D01*
G01*
X41379805Y-54070531D02*
G75*
G02*
X41618866Y-54647698I-577205J-577169D01*
G01*
X117579805Y-54070531D02*
G75*
G02*
X117818866Y-54647698I-577205J-577169D01*
G01*
D37*
X162188394Y-52075461D02*
G75*
G02*
X162201595Y-52070000I13206J-13239D01*
G01*
D39*
X116759931Y-51990023D02*
G75*
G02*
X116759977Y-51829931I80069J80023D01*
G01*
X115981601Y-52272276D02*
G75*
G03*
X115933866Y-52387500I115199J-115224D01*
G01*
X190478866Y-52320009D02*
G75*
G02*
X190905642Y-52496776I34J-603491D01*
G01*
X43483885Y-51978578D02*
G75*
G03*
X43583866Y-52220000I341415J-22D01*
G01*
D36*
X58763829Y-52874559D02*
G75*
G02*
X58936017Y-52458949I587771J-41D01*
G01*
D39*
X199395773Y-47691071D02*
G75*
G02*
X199972933Y-47930110I27J-816229D01*
G01*
D37*
X132423866Y-56560139D02*
G75*
G03*
X132423866Y-56384404I-1206165690J87867D01*
G01*
X147902918Y-60907948D02*
G75*
G02*
X147663866Y-60330773I577182J577148D01*
G01*
D39*
X185090773Y-97504813D02*
G75*
G02*
X185667933Y-97743870I27J-816187D01*
G01*
D37*
X59002918Y-60907948D02*
G75*
G02*
X58763866Y-60330773I577182J577148D01*
G01*
D39*
X87734805Y-54070531D02*
G75*
G02*
X87973866Y-54647698I-577205J-577169D01*
G01*
X192027941Y-52080940D02*
G75*
G02*
X191450773Y-52320000I-577141J577140D01*
G01*
D37*
X41857918Y-60272948D02*
G75*
G02*
X41618866Y-59695773I577182J577148D01*
G01*
X116953169Y-52070026D02*
G75*
G02*
X116759977Y-51989977I31J273226D01*
G01*
D39*
X187668903Y-95444801D02*
G75*
G02*
X187968864Y-95144803I299997J1D01*
G01*
D40*
X42940942Y-52309077D02*
G75*
G02*
X43518092Y-52070000I577158J-577123D01*
G01*
X43858825Y-52144959D02*
G75*
G03*
X43827799Y-52070000I-31025J31059D01*
G01*
D37*
X164923092Y-61715013D02*
G75*
G02*
X164345932Y-61475932I8J816213D01*
G01*
D39*
X169380861Y-106056710D02*
G75*
G03*
X169619933Y-106633870I816239J10D01*
G01*
X71531601Y-52272276D02*
G75*
G03*
X71483866Y-52387500I115199J-115224D01*
G01*
D37*
X133808092Y-61715013D02*
G75*
G02*
X133230932Y-61475932I8J816213D01*
G01*
D36*
X59085925Y-52309094D02*
G75*
G02*
X59663060Y-52070000I577175J-577106D01*
G01*
D39*
X39733900Y-52387500D02*
G75*
G02*
X39801366Y-52320000I67500J0D01*
G01*
D37*
X148785119Y-52143723D02*
G75*
G02*
X148963141Y-52070000I177981J-177977D01*
G01*
D36*
X58591712Y-52458951D02*
G75*
G02*
X58591714Y-52114646I172188J172151D01*
G01*
D39*
X105713857Y-49496041D02*
G75*
G03*
X105413867Y-49196043I-299957J41D01*
G01*
X43827799Y-52069942D02*
G75*
G02*
X43858866Y-52145000I1J-43958D01*
G01*
X132423855Y-55282698D02*
G75*
G03*
X132184797Y-54705539I-816255J-2D01*
G01*
D37*
X180178289Y-61715015D02*
G75*
G02*
X179601129Y-61475932I11J816215D01*
G01*
D39*
X101376601Y-52272276D02*
G75*
G03*
X101328866Y-52387500I115199J-115224D01*
G01*
X105126958Y-49196022D02*
G75*
G03*
X104549798Y-49435110I42J-816278D01*
G01*
D37*
X104598092Y-61715013D02*
G75*
G02*
X104020932Y-61475932I8J816213D01*
G01*
D39*
X161815773Y-52320011D02*
G75*
G02*
X162392933Y-52559067I27J-816189D01*
G01*
X176420773Y-52320011D02*
G75*
G02*
X176997933Y-52559067I27J-816189D01*
G01*
D37*
X176970743Y-52194970D02*
G75*
G02*
X177272549Y-52070000I301757J-301830D01*
G01*
X60148092Y-61715013D02*
G75*
G02*
X59570932Y-61475932I8J816213D01*
G01*
D39*
X177422941Y-52080940D02*
G75*
G02*
X176845773Y-52320000I-577141J577140D01*
G01*
D37*
X194663289Y-61595015D02*
G75*
G02*
X194086129Y-61355932I11J816215D01*
G01*
D39*
X73129805Y-54070531D02*
G75*
G02*
X73368866Y-54647698I-577205J-577169D01*
G01*
D37*
X74753092Y-61715013D02*
G75*
G02*
X74175932Y-61475932I8J816213D01*
G01*
X163777918Y-60907948D02*
G75*
G02*
X163538866Y-60330773I577182J577148D01*
G01*
D39*
X148463866Y-52319966D02*
G75*
G03*
X148318866Y-52465000I34J-145034D01*
G01*
X119154813Y-49435125D02*
G75*
G02*
X119731958Y-49196043I577187J-577175D01*
G01*
X39733900Y-52387500D02*
G75*
G02*
X39801366Y-52320000I67500J0D01*
G01*
X173528958Y-97504765D02*
G75*
G03*
X172951799Y-97743871I42J-816235D01*
G01*
X192509805Y-54070531D02*
G75*
G02*
X192748866Y-54647698I-577205J-577169D01*
G01*
X195156365Y-49288542D02*
G75*
G02*
X195156366Y-49288543I0J-1D01*
G01*
X162182941Y-52080940D02*
G75*
G02*
X161605773Y-52320000I-577141J577140D01*
G01*
D37*
X89358092Y-61715013D02*
G75*
G02*
X88780932Y-61475932I8J816213D01*
G01*
D39*
X43783839Y-52219973D02*
G75*
G02*
X43542444Y-52320000I-241439J241373D01*
G01*
X86136601Y-52272276D02*
G75*
G03*
X86088866Y-52387500I115199J-115224D01*
G01*
X169380865Y-101652895D02*
G75*
G02*
X169619934Y-101075736I816235J-5D01*
G01*
X129951600Y-52502724D02*
G75*
G02*
X129903866Y-52387500I115200J115224D01*
G01*
X43483843Y-50357788D02*
G75*
G03*
X43312050Y-50286620I-100643J-12D01*
G01*
D37*
X192987920Y-60257749D02*
G75*
G02*
X192748866Y-59680576I577180J577149D01*
G01*
X118057918Y-60907948D02*
G75*
G02*
X117818866Y-60330773I577182J577148D01*
G01*
X179017920Y-60892749D02*
G75*
G02*
X178778866Y-60315576I577180J577149D01*
G01*
D39*
X75281958Y-49196022D02*
G75*
G03*
X74704798Y-49435110I42J-816278D01*
G01*
D37*
X131241447Y-52243514D02*
G75*
G02*
X131660256Y-52070000I418853J-418786D01*
G01*
D39*
X176512005Y-109341163D02*
G75*
G03*
X176967394Y-109529803I455395J455363D01*
G01*
D37*
%TO.N,Net-(J6-Pad2)*%
X85037933Y-57925538D02*
X85433866Y-57529606D01*
D41*
X83528866Y-49934135D02*
X83528866Y-52346900D01*
X85006890Y-48118018D02*
X83767933Y-49356975D01*
X83548866Y-55206513D02*
X83548866Y-52028748D01*
X84702933Y-47225110D02*
X85351890Y-47874067D01*
X84463866Y-46647950D02*
X84463866Y-41611043D01*
D37*
X84798866Y-58502698D02*
X84798866Y-63484803D01*
D41*
X83787933Y-55783673D02*
X85221735Y-57217475D01*
D37*
X84798867Y-58502698D02*
G75*
G02*
X85037934Y-57925539I816233J-2D01*
G01*
D41*
X85006906Y-48118034D02*
G75*
G02*
X85301366Y-47996043I294494J-294466D01*
G01*
X83787938Y-55783668D02*
G75*
G02*
X83548866Y-55206513I577162J577168D01*
G01*
X83528893Y-49934135D02*
G75*
G02*
X83767933Y-49356975I816207J35D01*
G01*
X84463903Y-46647950D02*
G75*
G03*
X84702933Y-47225110I816197J-50D01*
G01*
X85351896Y-47874061D02*
G75*
G02*
X85301366Y-47996043I-50496J-50539D01*
G01*
X85221729Y-57641731D02*
G75*
G03*
X85221735Y-57217475I-212129J212131D01*
G01*
%TO.N,Net-(J7-Pad2)*%
X98768866Y-52010857D02*
X98768866Y-50233092D01*
D37*
X100038866Y-58502698D02*
X100038866Y-63484803D01*
D41*
X99007933Y-49991975D02*
X100611335Y-48388573D01*
X99007933Y-55818673D02*
X100599420Y-57410160D01*
D37*
X100277933Y-57925538D02*
X100673866Y-57529606D01*
D41*
X98768866Y-55241513D02*
X98768866Y-52048748D01*
X99463866Y-46407950D02*
X99463866Y-41611043D01*
X99702933Y-46985110D02*
X100611335Y-47893512D01*
X98778847Y-52035019D02*
G75*
G02*
X98768866Y-52010857I24153J24119D01*
G01*
D37*
X100038866Y-58402698D02*
G75*
G02*
X100277933Y-57825537I816234J-2D01*
G01*
D41*
X100646366Y-57429625D02*
G75*
G02*
X100599420Y-57410160I34J66425D01*
G01*
X99007938Y-55818668D02*
G75*
G02*
X98768866Y-55241513I577162J577168D01*
G01*
X98778866Y-52055000D02*
G75*
G03*
X98778866Y-52035000I-9966J10000D01*
G01*
X99702907Y-46985136D02*
G75*
G02*
X99463866Y-46407950I577193J577136D01*
G01*
X98768893Y-50569135D02*
G75*
G02*
X99007933Y-49991975I816207J35D01*
G01*
D37*
X100038867Y-58502698D02*
G75*
G02*
X100277934Y-57925539I816233J-2D01*
G01*
D41*
X100713834Y-48141043D02*
G75*
G03*
X100611335Y-47893512I-350034J43D01*
G01*
X100611315Y-48388553D02*
G75*
G03*
X100713866Y-48141043I-247515J247553D01*
G01*
X98768894Y-52079142D02*
G75*
G02*
X98778866Y-52055000I34106J42D01*
G01*
%TO.N,Net-(J8-Pad2)*%
X114463866Y-46802950D02*
X114463866Y-41611043D01*
D37*
X114882933Y-57925538D02*
X115278866Y-57529606D01*
D41*
X113612933Y-49356975D02*
X114851890Y-48118018D01*
X115196890Y-47874067D02*
X114702933Y-47380110D01*
D37*
X114643866Y-58502698D02*
X114643866Y-63484803D01*
D41*
X113393866Y-55206513D02*
X113393866Y-52303748D01*
X113632933Y-55783673D02*
X115039798Y-57190538D01*
X113373866Y-49934135D02*
X113373866Y-52621900D01*
X115196896Y-47874061D02*
G75*
G02*
X115146366Y-47996043I-50496J-50539D01*
G01*
D37*
X114643867Y-58502698D02*
G75*
G02*
X114882934Y-57925539I816233J-2D01*
G01*
D41*
X115278855Y-57767698D02*
G75*
G03*
X115039797Y-57190539I-816255J-2D01*
G01*
X113373893Y-49934135D02*
G75*
G02*
X113612933Y-49356975I816207J35D01*
G01*
X114702907Y-47380136D02*
G75*
G02*
X114463866Y-46802950I577193J577136D01*
G01*
X114851906Y-48118034D02*
G75*
G02*
X115146366Y-47996043I294494J-294466D01*
G01*
X113632938Y-55783668D02*
G75*
G02*
X113393866Y-55206513I577162J577168D01*
G01*
%TO.N,Net-(J9-Pad2)*%
X127602933Y-49681975D02*
X129113865Y-48171042D01*
X127363866Y-51968530D02*
X127363866Y-52671470D01*
D37*
X129487933Y-57925538D02*
X129883866Y-57529606D01*
D41*
X127363866Y-50259135D02*
X127363866Y-52304573D01*
X129288866Y-47996043D02*
X129113865Y-48171042D01*
X129644798Y-57190538D02*
X127602933Y-55148673D01*
D37*
X129248866Y-58502698D02*
X129248866Y-63484803D01*
D41*
X129376366Y-47908543D02*
X129288866Y-47996043D01*
X129463866Y-47697299D02*
X129463866Y-41611043D01*
X127363866Y-54571513D02*
X127363866Y-52641076D01*
X129883855Y-57767698D02*
G75*
G03*
X129644797Y-57190539I-816255J-2D01*
G01*
X127602938Y-55148668D02*
G75*
G02*
X127363866Y-54571513I577162J577168D01*
G01*
X129463858Y-47697299D02*
G75*
G02*
X129376365Y-47908542I-298758J-1D01*
G01*
D37*
X129248867Y-58502698D02*
G75*
G02*
X129487934Y-57925539I816233J-2D01*
G01*
D41*
X127363893Y-50259135D02*
G75*
G02*
X127602933Y-49681975I816207J35D01*
G01*
%TO.N,Net-(J10-Pad2)*%
X145997933Y-49356975D02*
X146966335Y-48388573D01*
D40*
X144884798Y-57668673D02*
X144488866Y-58064606D01*
D41*
X145123866Y-57091513D02*
X145123866Y-53377699D01*
D37*
X144727933Y-57925538D02*
X145123866Y-57529606D01*
D41*
X145758866Y-49934135D02*
X145758866Y-52346900D01*
X144702933Y-45630110D02*
X146966335Y-47893512D01*
X144463866Y-45052950D02*
X144463866Y-41611043D01*
D37*
X144488866Y-58502698D02*
X144488866Y-63484803D01*
D41*
X145648051Y-52545814D02*
X145362933Y-52830931D01*
X144463903Y-45052950D02*
G75*
G03*
X144702933Y-45630110I816197J-50D01*
G01*
X145362933Y-52800537D02*
G75*
G03*
X145123866Y-53377699I577167J-577163D01*
G01*
X145997914Y-49356956D02*
G75*
G03*
X145758866Y-49934135I577186J-577144D01*
G01*
D37*
X144488867Y-58502698D02*
G75*
G02*
X144727934Y-57925539I816233J-2D01*
G01*
D41*
X146966315Y-48388553D02*
G75*
G03*
X147068866Y-48141043I-247515J247553D01*
G01*
X146966358Y-47893489D02*
G75*
G02*
X147068866Y-48141043I-247558J-247511D01*
G01*
X145778854Y-52230000D02*
G75*
G02*
X145648051Y-52545814I-446654J0D01*
G01*
X144884800Y-57668675D02*
G75*
G03*
X145123866Y-57091513I-577200J577175D01*
G01*
%TO.N,Net-(J11-Pad2)*%
X158697933Y-56453673D02*
X159434798Y-57190538D01*
X158458866Y-55876513D02*
X158458866Y-52048748D01*
X159463866Y-46717950D02*
X159463866Y-41611043D01*
X159936890Y-48118018D02*
X158697933Y-49356975D01*
X160281890Y-47874067D02*
X159702933Y-47295110D01*
D37*
X160602933Y-57925538D02*
X160998866Y-57529606D01*
D41*
X158458866Y-49934135D02*
X158458866Y-52346900D01*
D37*
X160363866Y-58502698D02*
X160363866Y-63484803D01*
D41*
X160011958Y-57429606D02*
X160755880Y-57429606D01*
D37*
X160363867Y-58502698D02*
G75*
G02*
X160602934Y-57925539I816233J-2D01*
G01*
D41*
X159936906Y-48118034D02*
G75*
G02*
X160231366Y-47996043I294494J-294466D01*
G01*
D37*
X160363866Y-58402699D02*
G75*
G02*
X160602933Y-57825537I816234J-1D01*
G01*
D41*
X158697938Y-56453668D02*
G75*
G02*
X158458866Y-55876513I577162J577168D01*
G01*
X159434823Y-57190513D02*
G75*
G03*
X160011958Y-57429606I577177J577113D01*
G01*
X158458893Y-49934135D02*
G75*
G02*
X158697933Y-49356975I816207J35D01*
G01*
X159702907Y-47295136D02*
G75*
G02*
X159463866Y-46717950I577193J577136D01*
G01*
X160281896Y-47874061D02*
G75*
G02*
X160231366Y-47996043I-50496J-50539D01*
G01*
D37*
%TO.N,Net-(R13-Pad1)*%
X41369798Y-75710735D02*
X37808866Y-72149803D01*
X41608866Y-76287895D02*
X41608866Y-80619803D01*
X41369804Y-75710729D02*
G75*
G02*
X41608866Y-76287895I-577204J-577171D01*
G01*
%TO.N,Net-(R15-Pad1)*%
X73119798Y-75075735D02*
X70193866Y-72149803D01*
X73358866Y-75652895D02*
X73358866Y-80619803D01*
X73119804Y-75075729D02*
G75*
G02*
X73358866Y-75652895I-577204J-577171D01*
G01*
%TO.N,Net-(R17-Pad1)*%
X117569798Y-75075735D02*
X114643866Y-72149803D01*
X117808866Y-75652895D02*
X117808866Y-80619803D01*
X117569804Y-75075729D02*
G75*
G02*
X117808866Y-75652895I-577204J-577171D01*
G01*
%TO.N,Net-(R19-Pad1)*%
X147653866Y-75652895D02*
X147653866Y-80619803D01*
X147414798Y-75075735D02*
X144488866Y-72149803D01*
X147653857Y-75652895D02*
G75*
G03*
X147414797Y-75075736I-816257J-5D01*
G01*
%TO.N,Net-(R21-Pad1)*%
X178768866Y-75652895D02*
X178768866Y-80619803D01*
X178529798Y-75075735D02*
X175603866Y-72149803D01*
X178768857Y-75652895D02*
G75*
G03*
X178529797Y-75075736I-816257J-5D01*
G01*
D40*
%TO.N,Net-(D1-Pad2)*%
X43909798Y-85190735D02*
X43127933Y-84408870D01*
X39474798Y-83930735D02*
X38047933Y-82503870D01*
X37808866Y-81926710D02*
X37808866Y-80629803D01*
X44148866Y-85767895D02*
X44148866Y-88239803D01*
X40051958Y-84169803D02*
X42550773Y-84169803D01*
X38047937Y-82503866D02*
G75*
G02*
X37808866Y-81926710I577163J577166D01*
G01*
X43909804Y-85190729D02*
G75*
G02*
X44148866Y-85767895I-577204J-577171D01*
G01*
X43127940Y-84408863D02*
G75*
G03*
X42550773Y-84169803I-577140J-577137D01*
G01*
X39474824Y-83930709D02*
G75*
G03*
X40051958Y-84169803I577176J577109D01*
G01*
%TO.N,Net-(D2-Pad2)*%
X54897965Y-81864872D02*
X54897965Y-79989803D01*
X58524798Y-83930735D02*
X56963827Y-83930735D01*
X59101958Y-84169803D02*
X61003867Y-84169803D01*
X61303866Y-84469801D02*
X61303866Y-88239803D01*
X55137032Y-82442032D02*
X56386667Y-83691667D01*
X55137017Y-82442047D02*
G75*
G02*
X54897965Y-81864872I577183J577147D01*
G01*
X56963827Y-83930713D02*
G75*
G02*
X56386667Y-83691667I-27J816213D01*
G01*
X58524824Y-83930709D02*
G75*
G03*
X59101958Y-84169803I577176J577109D01*
G01*
X61003867Y-84169834D02*
G75*
G02*
X61303866Y-84469801I33J-299966D01*
G01*
D37*
%TO.N,Net-(R12-Pad1)*%
X103213866Y-75662895D02*
X103213866Y-80629803D01*
X102974798Y-75085735D02*
X100038866Y-72149803D01*
X103213857Y-75662895D02*
G75*
G03*
X102974797Y-75085736I-816257J-5D01*
G01*
D40*
%TO.N,Net-(D3-Pad2)*%
X71801958Y-84169803D02*
X74300773Y-84169803D01*
X75898866Y-85767895D02*
X75898866Y-88239803D01*
X71224798Y-83930735D02*
X69677831Y-82383768D01*
X69438764Y-81806608D02*
X69438764Y-79986532D01*
X74877933Y-84408870D02*
X75659798Y-85190735D01*
X71224824Y-83930709D02*
G75*
G03*
X71801958Y-84169803I577176J577109D01*
G01*
X69677833Y-82383766D02*
G75*
G02*
X69438764Y-81806608I577167J577166D01*
G01*
X75659804Y-85190729D02*
G75*
G02*
X75898866Y-85767895I-577204J-577171D01*
G01*
X74300773Y-84169813D02*
G75*
G02*
X74877933Y-84408870I27J-816187D01*
G01*
D37*
%TO.N,Net-(R14-Pad1)*%
X58763866Y-75652895D02*
X58763866Y-80619803D01*
X58524798Y-75075735D02*
X55598866Y-72149803D01*
X58524804Y-75075729D02*
G75*
G02*
X58763866Y-75652895I-577204J-577171D01*
G01*
D40*
%TO.N,Net-(D4-Pad2)*%
X85829798Y-83930735D02*
X84323542Y-82424479D01*
X84084475Y-81847319D02*
X84084475Y-79979169D01*
X89482933Y-84408870D02*
X90264798Y-85190735D01*
X90503866Y-85767895D02*
X90503866Y-88239803D01*
X86406958Y-84169803D02*
X88905773Y-84169803D01*
X86406958Y-84169839D02*
G75*
G02*
X85829798Y-83930735I42J816239D01*
G01*
X90264804Y-85190729D02*
G75*
G02*
X90503866Y-85767895I-577204J-577171D01*
G01*
X88905773Y-84169813D02*
G75*
G02*
X89482933Y-84408870I27J-816187D01*
G01*
X84323552Y-82424469D02*
G75*
G02*
X84084475Y-81847319I577148J577169D01*
G01*
D37*
%TO.N,Net-(R16-Pad1)*%
X87963866Y-75652895D02*
X87963866Y-80619803D01*
X87724798Y-75075735D02*
X84798866Y-72149803D01*
X87724804Y-75075729D02*
G75*
G02*
X87963866Y-75652895I-577204J-577171D01*
G01*
D40*
%TO.N,Net-(D5-Pad2)*%
X101069798Y-83930735D02*
X99512847Y-82373784D01*
X103510773Y-84169803D02*
X101646958Y-84169803D01*
X105753866Y-86412895D02*
X105753866Y-88249803D01*
X104087933Y-84408870D02*
X105514798Y-85835735D01*
X99273780Y-81796624D02*
X99273780Y-80020256D01*
X101646958Y-84169839D02*
G75*
G02*
X101069798Y-83930735I42J816239D01*
G01*
X99512861Y-82373770D02*
G75*
G02*
X99273780Y-81796624I577139J577170D01*
G01*
X104087940Y-84408863D02*
G75*
G03*
X103510773Y-84169803I-577140J-577137D01*
G01*
X105514804Y-85835729D02*
G75*
G02*
X105753866Y-86412895I-577204J-577171D01*
G01*
D37*
%TO.N,Net-(R18-Pad1)*%
X132174798Y-75075735D02*
X129248866Y-72149803D01*
X132413866Y-75652895D02*
X132413866Y-80619803D01*
X132174804Y-75075729D02*
G75*
G02*
X132413866Y-75652895I-577204J-577171D01*
G01*
D40*
%TO.N,Net-(D6-Pad2)*%
X116309798Y-83930735D02*
X114053996Y-81674933D01*
X119962933Y-84408870D02*
X120109798Y-84555735D01*
X120348866Y-85132895D02*
X120348866Y-88239803D01*
X113814929Y-81097773D02*
X113814929Y-79986780D01*
X116886958Y-84169803D02*
X119385773Y-84169803D01*
X119385773Y-84169813D02*
G75*
G02*
X119962933Y-84408870I27J-816187D01*
G01*
X120109804Y-84555729D02*
G75*
G02*
X120348866Y-85132895I-577204J-577171D01*
G01*
X114053974Y-81674955D02*
G75*
G02*
X113814929Y-81097773I577226J577155D01*
G01*
X116886958Y-84169839D02*
G75*
G02*
X116309798Y-83930735I42J816239D01*
G01*
D37*
%TO.N,Net-(R20-Pad1)*%
X163528866Y-75652895D02*
X163528866Y-80619803D01*
X163289798Y-75075735D02*
X160363866Y-72149803D01*
X163289804Y-75075729D02*
G75*
G02*
X163528866Y-75652895I-577204J-577171D01*
G01*
D40*
%TO.N,Net-(D7-Pad2)*%
X130856958Y-84169803D02*
X133990773Y-84169803D01*
X134567933Y-84408870D02*
X134714798Y-84555735D01*
X128626278Y-81939122D02*
X128626278Y-79989803D01*
X134953866Y-85132895D02*
X134953866Y-88239803D01*
X128865345Y-82516282D02*
X130279798Y-83930735D01*
X128865357Y-82516270D02*
G75*
G02*
X128626278Y-81939122I577143J577170D01*
G01*
X134714804Y-84555729D02*
G75*
G02*
X134953866Y-85132895I-577204J-577171D01*
G01*
X133990773Y-84169813D02*
G75*
G02*
X134567933Y-84408870I27J-816187D01*
G01*
X130856958Y-84169839D02*
G75*
G02*
X130279798Y-83930735I42J816239D01*
G01*
%TO.N,Net-(D8-Pad2)*%
X146154798Y-83930735D02*
X144730032Y-82505969D01*
X149230773Y-84169803D02*
X146731958Y-84169803D01*
X143924867Y-81694867D02*
X144725833Y-82495833D01*
X149807933Y-84408870D02*
X149954798Y-84555735D01*
X150193866Y-85132895D02*
X150193866Y-88239803D01*
X143685800Y-81117707D02*
X143685800Y-80016874D01*
X143924876Y-81694858D02*
G75*
G02*
X143685800Y-81117707I577124J577158D01*
G01*
X144727941Y-82500901D02*
G75*
G03*
X144725832Y-82495834I-7141J1D01*
G01*
X149954804Y-84555729D02*
G75*
G02*
X150193866Y-85132895I-577204J-577171D01*
G01*
X146731958Y-84169839D02*
G75*
G02*
X146154798Y-83930735I42J816239D01*
G01*
X144730033Y-82505968D02*
G75*
G02*
X144727933Y-82500901I5067J5068D01*
G01*
X149807940Y-84408863D02*
G75*
G03*
X149230773Y-84169803I-577140J-577137D01*
G01*
%TO.N,Net-(D9-Pad2)*%
X159837649Y-82367649D02*
X160655000Y-83185000D01*
X161971958Y-84169803D02*
X164470773Y-84169803D01*
X166068866Y-85767895D02*
X166068866Y-88239803D01*
X159598582Y-81790489D02*
X159598582Y-79982476D01*
X165047933Y-84408870D02*
X165829798Y-85190735D01*
X161394798Y-83930735D02*
X160602933Y-83138870D01*
X165829804Y-85190729D02*
G75*
G02*
X166068866Y-85767895I-577204J-577171D01*
G01*
X161394824Y-83930709D02*
G75*
G03*
X161971958Y-84169803I577176J577109D01*
G01*
X164470773Y-84169813D02*
G75*
G02*
X165047933Y-84408870I27J-816187D01*
G01*
X159837646Y-82367652D02*
G75*
G02*
X159598582Y-81790489I577154J577152D01*
G01*
%TO.N,Net-(D10-Pad2)*%
X180287933Y-84408870D02*
X181069798Y-85190735D01*
X174894010Y-81216854D02*
X174894010Y-79982476D01*
X179710773Y-84169803D02*
X177846958Y-84169803D01*
X181308866Y-85767895D02*
X181308866Y-88239803D01*
X175133077Y-81794014D02*
X177269798Y-83930735D01*
X175133062Y-81794029D02*
G75*
G02*
X174894010Y-81216854I577138J577129D01*
G01*
X180287940Y-84408863D02*
G75*
G03*
X179710773Y-84169803I-577140J-577137D01*
G01*
X177269824Y-83930709D02*
G75*
G03*
X177846958Y-84169803I577176J577109D01*
G01*
X181069804Y-85190729D02*
G75*
G02*
X181308866Y-85767895I-577204J-577171D01*
G01*
D41*
%TO.N,Net-(J12-Pad2)*%
X174702933Y-47055110D02*
X175472049Y-47824226D01*
X173063866Y-49934135D02*
X173063866Y-52346900D01*
X176026735Y-57217475D02*
X173322933Y-54513673D01*
D37*
X175603866Y-58502698D02*
X175603866Y-63484803D01*
X175842933Y-57925538D02*
X176238866Y-57529606D01*
D41*
X174463866Y-46477950D02*
X174463866Y-41611043D01*
X174424798Y-48235110D02*
X173302933Y-49356975D01*
X173083866Y-53966907D02*
X173083866Y-52320000D01*
X175001958Y-47996043D02*
X175400880Y-47996043D01*
D37*
X175603867Y-58502698D02*
G75*
G02*
X175842934Y-57925539I816233J-2D01*
G01*
D41*
X175472053Y-47824222D02*
G75*
G02*
X175400880Y-47996043I-71153J-71178D01*
G01*
X173083859Y-53936513D02*
G75*
G03*
X173322933Y-54513673I816241J13D01*
G01*
X175001958Y-47996022D02*
G75*
G03*
X174424798Y-48235110I42J-816278D01*
G01*
X174702907Y-47055136D02*
G75*
G02*
X174463866Y-46477950I577193J577136D01*
G01*
X173302914Y-49356956D02*
G75*
G03*
X173063866Y-49934135I577186J-577144D01*
G01*
X176026729Y-57641730D02*
G75*
G03*
X176026735Y-57217475I-212129J212130D01*
G01*
D37*
%TO.N,Net-(C11-Pad1)*%
X195288866Y-73077895D02*
X195288866Y-77214803D01*
X195049798Y-72500735D02*
X192352933Y-69803870D01*
X191775773Y-69564803D02*
X189650685Y-69564803D01*
D38*
X189573866Y-69577983D02*
X189573866Y-66024803D01*
D37*
X195288857Y-73077895D02*
G75*
G03*
X195049797Y-72500736I-816257J-5D01*
G01*
X191775773Y-69564813D02*
G75*
G02*
X192352933Y-69803870I27J-816187D01*
G01*
D38*
%TO.N,Net-(C2-Pad1)*%
X37808866Y-69309804D02*
X37808866Y-66024803D01*
D37*
X40272046Y-69609803D02*
X38108864Y-69609803D01*
X43919798Y-73135735D02*
X40371366Y-69587303D01*
X44158866Y-73712895D02*
X44158866Y-77214803D01*
X40371366Y-69587303D02*
G75*
G03*
X40326366Y-69587303I-22500J-22499D01*
G01*
X43919804Y-73135729D02*
G75*
G02*
X44158866Y-73712895I-577204J-577171D01*
G01*
X40272046Y-69609840D02*
G75*
G03*
X40326366Y-69587303I-46J76840D01*
G01*
D38*
%TO.N,Net-(C3-Pad1)*%
X55598866Y-69309804D02*
X55598866Y-66024803D01*
D37*
X61074798Y-72510735D02*
X58151366Y-69587303D01*
X61313866Y-73087895D02*
X61313866Y-77334803D01*
X58052046Y-69609803D02*
X55898864Y-69609803D01*
X58151366Y-69587303D02*
G75*
G03*
X58106366Y-69587303I-22500J-22499D01*
G01*
X58106339Y-69587276D02*
G75*
G02*
X58052046Y-69609803I-54339J54276D01*
G01*
X61313857Y-73087895D02*
G75*
G03*
X61074797Y-72510736I-816257J-5D01*
G01*
%TO.N,Net-(C4-Pad1)*%
X75908866Y-73077895D02*
X75908866Y-77334803D01*
D38*
X70193866Y-69309804D02*
X70193866Y-66024803D01*
D37*
X75669798Y-72500735D02*
X72756366Y-69587303D01*
X72657046Y-69609803D02*
X70493864Y-69609803D01*
X75669804Y-72500729D02*
G75*
G02*
X75908866Y-73077895I-577204J-577171D01*
G01*
X72711339Y-69587276D02*
G75*
G02*
X72657046Y-69609803I-54339J54276D01*
G01*
X72756366Y-69587303D02*
G75*
G03*
X72711366Y-69587303I-22500J-22499D01*
G01*
%TO.N,Net-(C6-Pad1)*%
X117107046Y-69609803D02*
X114943864Y-69609803D01*
D38*
X114643866Y-69309804D02*
X114643866Y-66024803D01*
D37*
X117206366Y-69587303D02*
X120119798Y-72500735D01*
X120358866Y-73077895D02*
X120358866Y-77334803D01*
X117206366Y-69587303D02*
G75*
G03*
X117161366Y-69587303I-22500J-22499D01*
G01*
X117107046Y-69609840D02*
G75*
G03*
X117161366Y-69587303I-46J76840D01*
G01*
X120119804Y-72500729D02*
G75*
G02*
X120358866Y-73077895I-577204J-577171D01*
G01*
%TO.N,Net-(C7-Pad1)*%
X131712046Y-69609803D02*
X129548864Y-69609803D01*
X134963866Y-73077895D02*
X134963866Y-77334803D01*
D38*
X129248866Y-69309804D02*
X129248866Y-66024803D01*
D37*
X131811366Y-69587303D02*
X134724798Y-72500735D01*
X134724804Y-72500729D02*
G75*
G02*
X134963866Y-73077895I-577204J-577171D01*
G01*
X131811366Y-69587303D02*
G75*
G03*
X131766366Y-69587303I-22500J-22499D01*
G01*
X131712046Y-69609840D02*
G75*
G03*
X131766366Y-69587303I-46J76840D01*
G01*
%TO.N,Net-(C8-Pad1)*%
X147686366Y-69587303D02*
X149964798Y-71865735D01*
X147587046Y-69609803D02*
X144788864Y-69609803D01*
X150203866Y-72442895D02*
X150203866Y-77334803D01*
D38*
X144488866Y-69309804D02*
X144488866Y-66024803D01*
D37*
X147587046Y-69609840D02*
G75*
G03*
X147641366Y-69587303I-46J76840D01*
G01*
X149964804Y-71865729D02*
G75*
G02*
X150203866Y-72442895I-577204J-577171D01*
G01*
X147686366Y-69587303D02*
G75*
G03*
X147641366Y-69587303I-22500J-22499D01*
G01*
D38*
%TO.N,Net-(C9-Pad1)*%
X160363866Y-69309804D02*
X160363866Y-66024803D01*
D37*
X162827046Y-69609803D02*
X160663864Y-69609803D01*
X165839798Y-72500735D02*
X162926366Y-69587303D01*
X166078866Y-73077895D02*
X166078866Y-77334803D01*
X165839804Y-72500729D02*
G75*
G02*
X166078866Y-73077895I-577204J-577171D01*
G01*
X162881339Y-69587276D02*
G75*
G02*
X162827046Y-69609803I-54339J54276D01*
G01*
X162926366Y-69587303D02*
G75*
G03*
X162881366Y-69587303I-22500J-22499D01*
G01*
%TO.N,Net-(C10-Pad1)*%
X178067046Y-69609803D02*
X175903864Y-69609803D01*
X181079798Y-72500735D02*
X178166366Y-69587303D01*
X181318866Y-73077895D02*
X181318866Y-77334803D01*
D38*
X175603866Y-69309804D02*
X175603866Y-66024803D01*
D37*
X178067046Y-69609840D02*
G75*
G03*
X178121366Y-69587303I-46J76840D01*
G01*
X178166366Y-69587303D02*
G75*
G03*
X178121366Y-69587303I-22500J-22499D01*
G01*
X181318857Y-73077895D02*
G75*
G03*
X181079797Y-72500736I-816257J-5D01*
G01*
%TO.N,Net-(Q1-Pad3)*%
X46558866Y-57344606D02*
X46728866Y-57514606D01*
X46473866Y-57139397D02*
X46473866Y-52039606D01*
X47968866Y-60377895D02*
X47968866Y-79001710D01*
X47729798Y-79578870D02*
X46688866Y-80619803D01*
X46523657Y-57429606D02*
X44158866Y-57429606D01*
X47490730Y-58276470D02*
X46728866Y-57514606D01*
X47729798Y-58853630D02*
X47729798Y-59800735D01*
X46473876Y-57139397D02*
G75*
G03*
X46558867Y-57344605I290224J-3D01*
G01*
X46523657Y-57429552D02*
G75*
G03*
X46558866Y-57344606I43J49752D01*
G01*
X46523657Y-57429632D02*
G75*
G02*
X46728866Y-57514606I43J-290168D01*
G01*
X47968861Y-79001710D02*
G75*
G02*
X47729798Y-79578870I-816261J10D01*
G01*
X47729804Y-59800729D02*
G75*
G02*
X47968866Y-60377895I-577204J-577171D01*
G01*
X47729785Y-58853630D02*
G75*
G03*
X47490730Y-58276470I-816185J30D01*
G01*
%TO.N,Net-(Q2-Pad3)*%
X65113866Y-60523380D02*
X65113866Y-60377895D01*
X64888866Y-55991513D02*
X64888866Y-52039606D01*
X65113866Y-60523380D02*
X65113866Y-60814351D01*
X65010992Y-60565992D02*
X64994332Y-60549332D01*
X64874798Y-79588870D02*
X63843866Y-80619803D01*
X64649798Y-56568673D02*
X64000996Y-57217474D01*
X64027933Y-57668673D02*
X64635730Y-58276470D01*
X65113866Y-60814351D02*
X65113866Y-79011710D01*
X64874798Y-60260751D02*
X64874798Y-58853630D01*
X63450773Y-57429606D02*
X61303866Y-57429606D01*
X64994310Y-60549354D02*
G75*
G02*
X64874798Y-60260751I288590J288554D01*
G01*
X65010975Y-60566009D02*
G75*
G02*
X65113866Y-60814351I-248375J-248391D01*
G01*
X64000989Y-57217467D02*
G75*
G03*
X64027933Y-57668673I240711J-212033D01*
G01*
X64001022Y-57217501D02*
G75*
G02*
X63450773Y-57429605I-532022J560401D01*
G01*
X65113861Y-79011710D02*
G75*
G02*
X64874798Y-79588870I-816261J10D01*
G01*
X65113845Y-60523380D02*
G75*
G02*
X65010992Y-60565992I-60245J-20D01*
G01*
X64027939Y-57668667D02*
G75*
G03*
X63450773Y-57429606I-577139J-577133D01*
G01*
X64649800Y-56568675D02*
G75*
G03*
X64888866Y-55991513I-577200J577175D01*
G01*
X64874785Y-58853630D02*
G75*
G03*
X64635730Y-58276470I-816185J30D01*
G01*
%TO.N,Net-(Q3-Pad3)*%
X78065061Y-57429606D02*
X75908866Y-57429606D01*
X79479798Y-59800735D02*
X79479798Y-58853630D01*
X78605996Y-57217475D02*
X78626366Y-57197106D01*
X78626366Y-57662106D02*
X79240730Y-58276470D01*
X78858866Y-56635801D02*
X78858866Y-52039606D01*
X79479798Y-79578870D02*
X78438866Y-80619803D01*
X79718866Y-60377895D02*
X79718866Y-79001710D01*
X78606034Y-57217509D02*
G75*
G03*
X78626366Y-57662106I233366J-212091D01*
G01*
X79479804Y-59800729D02*
G75*
G02*
X79718866Y-60377895I-577204J-577171D01*
G01*
X78858878Y-56635801D02*
G75*
G02*
X78626366Y-57197106I-793778J1D01*
G01*
X78065061Y-57429631D02*
G75*
G02*
X78626365Y-57662107I39J-793769D01*
G01*
X78065061Y-57429580D02*
G75*
G03*
X78605996Y-57217475I13939J760280D01*
G01*
X79479801Y-79578873D02*
G75*
G03*
X79718866Y-79001710I-577201J577173D01*
G01*
X79479785Y-58853630D02*
G75*
G03*
X79240730Y-58276470I-816185J30D01*
G01*
%TO.N,Net-(Q4-Pad3)*%
X94084798Y-58515538D02*
X93231366Y-57662106D01*
X93231366Y-57197106D02*
X93210996Y-57217475D01*
X94323866Y-79001710D02*
X94323866Y-59092698D01*
X93463866Y-56635801D02*
X93463866Y-52039606D01*
X94084798Y-79578870D02*
X93043866Y-80619803D01*
X92670061Y-57429606D02*
X90513866Y-57429606D01*
X93231383Y-57662089D02*
G75*
G03*
X92670061Y-57429606I-561283J-561311D01*
G01*
X93211034Y-57217509D02*
G75*
G03*
X93231366Y-57662106I233366J-212091D01*
G01*
X94323855Y-59092698D02*
G75*
G03*
X94084797Y-58515539I-816255J-2D01*
G01*
X93211013Y-57217493D02*
G75*
G02*
X92670061Y-57429605I-527013J548193D01*
G01*
X94084801Y-79578873D02*
G75*
G03*
X94323866Y-79001710I-577201J577173D01*
G01*
X93463878Y-56635801D02*
G75*
G02*
X93231366Y-57197106I-793778J1D01*
G01*
%TO.N,Net-(Q5-Pad3)*%
X107478092Y-57327286D02*
X108464798Y-56340580D01*
X107413569Y-57429606D02*
X105753866Y-57429606D01*
X109324798Y-79598870D02*
X108293866Y-80629803D01*
X109324798Y-56722445D02*
X108915996Y-56313643D01*
X109563866Y-57299605D02*
X109563866Y-79021710D01*
X108703866Y-55763420D02*
X108703866Y-52039606D01*
X107451368Y-57391809D02*
G75*
G02*
X107478092Y-57327286I91232J9D01*
G01*
X109563861Y-79021710D02*
G75*
G02*
X109324798Y-79598870I-816261J10D01*
G01*
X108703868Y-55763420D02*
G75*
G02*
X108464798Y-56340580I-816268J20D01*
G01*
X109563850Y-57299605D02*
G75*
G03*
X109324797Y-56722446I-816250J5D01*
G01*
X107413569Y-57429566D02*
G75*
G03*
X107451366Y-57391809I31J37766D01*
G01*
X108464840Y-56340618D02*
G75*
G02*
X108915995Y-56313644I239160J-213682D01*
G01*
X108916009Y-56313631D02*
G75*
G02*
X108703867Y-55763420I560291J532031D01*
G01*
%TO.N,Net-(Q6-Pad3)*%
X123308866Y-55991513D02*
X123308866Y-52039606D01*
X123929798Y-79578870D02*
X122888866Y-80619803D01*
X122447933Y-57668673D02*
X123929798Y-59150538D01*
X124168866Y-59727698D02*
X124168866Y-79001710D01*
X121870773Y-57429606D02*
X120358866Y-57429606D01*
X123069798Y-56568673D02*
X122420996Y-57217475D01*
X122420988Y-57217468D02*
G75*
G03*
X122447933Y-57668673I240712J-212032D01*
G01*
X124168855Y-59727698D02*
G75*
G03*
X123929797Y-59150539I-816255J-2D01*
G01*
X121870773Y-57429615D02*
G75*
G02*
X122447933Y-57668673I27J-816185D01*
G01*
X121870774Y-57429568D02*
G75*
G03*
X122420996Y-57217475I18226J772468D01*
G01*
X123308863Y-55991513D02*
G75*
G02*
X123069798Y-56568673I-816263J13D01*
G01*
X123929801Y-79578873D02*
G75*
G03*
X124168866Y-79001710I-577201J577173D01*
G01*
%TO.N,Net-(Q7-Pad3)*%
X136008866Y-56951616D02*
X136008866Y-52039606D01*
X137110773Y-57429606D02*
X136486855Y-57429606D01*
X136090876Y-57429606D02*
X134963866Y-57429606D01*
X136090876Y-57429606D02*
X136486855Y-57429606D01*
X138534798Y-79328870D02*
X137582254Y-80281414D01*
X138773866Y-78751710D02*
X138773866Y-59092698D01*
X137687933Y-57668673D02*
X138534798Y-58515538D01*
X136148865Y-57289607D02*
G75*
G02*
X136008866Y-56951616I338035J338007D01*
G01*
X138534801Y-79328873D02*
G75*
G03*
X138773866Y-78751710I-577201J577173D01*
G01*
X136486855Y-57429632D02*
G75*
G02*
X136148866Y-57289606I45J478032D01*
G01*
X137687939Y-57668667D02*
G75*
G03*
X137110773Y-57429606I-577139J-577133D01*
G01*
X138773855Y-59092698D02*
G75*
G03*
X138534797Y-58515539I-816255J-2D01*
G01*
X136090876Y-57429596D02*
G75*
G03*
X136148866Y-57289606I24J81996D01*
G01*
%TO.N,Net-(Q8-Pad3)*%
X152972933Y-79495735D02*
X153139797Y-79328870D01*
X153378866Y-57378574D02*
X153378866Y-55917697D01*
X154184798Y-54773673D02*
X153617933Y-55340537D01*
X153378866Y-78751710D02*
X153378866Y-57503693D01*
X153227834Y-57529606D02*
X150203866Y-57529606D01*
D40*
X152750046Y-80089075D02*
X152733866Y-80072895D01*
D37*
X153378866Y-57378574D02*
X153378866Y-57503693D01*
X154423866Y-54226907D02*
X154423866Y-52070000D01*
D40*
X152766227Y-80128138D02*
X152766227Y-80619803D01*
D37*
X153139801Y-79328874D02*
G75*
G03*
X153378866Y-78751710I-577201J577174D01*
G01*
X153334690Y-57485430D02*
G75*
G02*
X153378866Y-57503693I18310J-18270D01*
G01*
X152733865Y-80072895D02*
G75*
G02*
X152972934Y-79495736I816235J-5D01*
G01*
X154423863Y-54196513D02*
G75*
G02*
X154184798Y-54773673I-816263J13D01*
G01*
X153378866Y-55917697D02*
G75*
G02*
X153617933Y-55340537I816234J-3D01*
G01*
D40*
X152766204Y-80128138D02*
G75*
G03*
X152750046Y-80089075I-55204J38D01*
G01*
D37*
X153227834Y-57529638D02*
G75*
G03*
X153334630Y-57485370I-34J151038D01*
G01*
X153378838Y-57378574D02*
G75*
G02*
X153334630Y-57485370I-151038J-26D01*
G01*
%TO.N,Net-(Q9-Pad3)*%
X169888866Y-79001710D02*
X169888866Y-59092698D01*
X168648866Y-57514606D02*
X169649798Y-58515538D01*
X168393866Y-57139397D02*
X168393866Y-52039606D01*
X168443657Y-57429606D02*
X166078866Y-57429606D01*
X168648866Y-57514606D02*
X168478866Y-57344606D01*
X169649798Y-79578870D02*
X168608866Y-80619803D01*
X169888861Y-79001710D02*
G75*
G02*
X169649798Y-79578870I-816261J10D01*
G01*
X168478860Y-57344612D02*
G75*
G02*
X168393866Y-57139397I205240J205212D01*
G01*
X168443657Y-57429632D02*
G75*
G02*
X168648866Y-57514606I43J-290168D01*
G01*
X169888855Y-59092698D02*
G75*
G03*
X169649797Y-58515539I-816255J-2D01*
G01*
X168478904Y-57344568D02*
G75*
G02*
X168443657Y-57429606I-35204J-35232D01*
G01*
%TO.N,Net-(Q10-Pad3)*%
X184889798Y-79578870D02*
X183848866Y-80619803D01*
X184889798Y-58515538D02*
X183888866Y-57514606D01*
X183683657Y-57429606D02*
X181318866Y-57429606D01*
X185128866Y-79001710D02*
X185128866Y-59092698D01*
X183888866Y-57514606D02*
X183718866Y-57344606D01*
X183633866Y-57139397D02*
X183633866Y-52039606D01*
X183888884Y-57514588D02*
G75*
G03*
X183683657Y-57429606I-205184J-205212D01*
G01*
X185128861Y-79001710D02*
G75*
G02*
X184889798Y-79578870I-816261J10D01*
G01*
X183718904Y-57344568D02*
G75*
G02*
X183683657Y-57429606I-35204J-35232D01*
G01*
X183718860Y-57344612D02*
G75*
G02*
X183633866Y-57139397I205240J205212D01*
G01*
X185128855Y-59092698D02*
G75*
G03*
X184889797Y-58515539I-816255J-2D01*
G01*
D41*
%TO.N,LINE*%
X187668866Y-115581163D02*
X187668866Y-111044803D01*
%TO.N,NEUT*%
X195288866Y-109501710D02*
X195288866Y-99639803D01*
D38*
X194979933Y-104290735D02*
X195415866Y-103854803D01*
X182947631Y-104529803D02*
X194402773Y-104529803D01*
X182036837Y-104152540D02*
X176323366Y-104152540D01*
X182036837Y-104152523D02*
G75*
G02*
X182492234Y-104341171I-37J-644077D01*
G01*
X182947631Y-104529788D02*
G75*
G02*
X182492234Y-104341171I-31J643988D01*
G01*
X194979942Y-104290744D02*
G75*
G02*
X194402773Y-104529803I-577142J577144D01*
G01*
D41*
X195527937Y-110078866D02*
G75*
G02*
X195288866Y-109501710I577163J577166D01*
G01*
D37*
%TO.N,Net-(C5-Pad1)*%
X90274798Y-72500735D02*
X87361366Y-69587303D01*
D38*
X84798866Y-69309804D02*
X84798866Y-66024803D01*
D37*
X90513866Y-73077895D02*
X90513866Y-77334803D01*
X87262046Y-69609803D02*
X85098864Y-69609803D01*
X87361366Y-69587303D02*
G75*
G03*
X87316366Y-69587303I-22500J-22499D01*
G01*
X90513857Y-73077895D02*
G75*
G03*
X90274797Y-72500736I-816257J-5D01*
G01*
X87316339Y-69587276D02*
G75*
G02*
X87262046Y-69609803I-54339J54276D01*
G01*
D39*
%TO.N,GNDREF*%
X125862773Y-97504803D02*
X95175668Y-97504803D01*
D38*
X40813958Y-92424803D02*
X42830197Y-92424803D01*
D39*
X127470866Y-100976710D02*
X127470866Y-99112895D01*
D38*
X35395866Y-80062895D02*
X35395866Y-87006710D01*
D37*
X94958866Y-94329803D02*
X94958866Y-94681273D01*
D39*
X126439933Y-97743870D02*
X127231798Y-98535735D01*
D36*
X42830197Y-92424803D02*
X42830197Y-100615197D01*
D41*
X94951366Y-101947303D02*
X94956366Y-101952303D01*
D39*
X146923366Y-110310395D02*
X146923366Y-114352540D01*
X134158958Y-107664803D02*
X136927926Y-107664803D01*
D38*
X73099933Y-92663870D02*
X76431798Y-95995735D01*
D36*
X42830197Y-100615197D02*
X43180000Y-100965000D01*
X93980773Y-101314803D02*
X76970864Y-101314803D01*
D38*
X42830197Y-92424803D02*
X72522773Y-92424803D01*
D39*
X144854933Y-107903870D02*
X146684298Y-109733235D01*
X127709933Y-101553870D02*
X133581798Y-107425735D01*
D38*
X76670866Y-96572895D02*
X76670866Y-101014804D01*
X35634933Y-87583870D02*
X40236798Y-92185735D01*
D39*
X138333806Y-107664803D02*
X137630866Y-107664803D01*
D38*
X137630866Y-107664803D02*
X136927926Y-107664803D01*
D36*
X94958866Y-101958338D02*
X94958866Y-119729803D01*
D38*
X94958866Y-94681273D02*
X94958866Y-97288000D01*
D39*
X94958866Y-94681273D02*
X94958866Y-101941267D01*
D38*
X36791798Y-78328870D02*
X35634933Y-79485735D01*
D36*
X94557933Y-101553870D02*
X94951366Y-101947303D01*
D38*
X37368958Y-78089803D02*
X37808866Y-78089803D01*
D39*
X138333806Y-107664803D02*
X144277773Y-107664803D01*
D38*
X127709937Y-101553866D02*
G75*
G02*
X127470866Y-100976710I577163J577166D01*
G01*
D39*
X144277773Y-107664813D02*
G75*
G02*
X144854933Y-107903870I27J-816187D01*
G01*
D38*
X76670857Y-96572895D02*
G75*
G03*
X76431797Y-95995736I-816257J-5D01*
G01*
X94958875Y-97288000D02*
G75*
G03*
X95022366Y-97441303I216825J0D01*
G01*
X35634934Y-79485736D02*
G75*
G03*
X35395866Y-80062895I577166J-577164D01*
G01*
D36*
X93980773Y-101314813D02*
G75*
G02*
X94557933Y-101553870I27J-816187D01*
G01*
D38*
X40236824Y-92185709D02*
G75*
G03*
X40813958Y-92424803I577176J577109D01*
G01*
D39*
X125862773Y-97504813D02*
G75*
G02*
X126439933Y-97743870I27J-816187D01*
G01*
D38*
X37368958Y-78089765D02*
G75*
G03*
X36791799Y-78328871I42J-816235D01*
G01*
X72522773Y-92424813D02*
G75*
G02*
X73099933Y-92663870I27J-816187D01*
G01*
X35395861Y-87006710D02*
G75*
G03*
X35634933Y-87583870I816239J10D01*
G01*
X133581824Y-107425709D02*
G75*
G03*
X134158958Y-107664803I577176J577109D01*
G01*
D39*
X146923357Y-110310395D02*
G75*
G03*
X146684297Y-109733236I-816257J-5D01*
G01*
D41*
X94958829Y-101958338D02*
G75*
G03*
X94956365Y-101952304I-8529J38D01*
G01*
X94956365Y-101947302D02*
G75*
G02*
X94951367Y-101947302I-2499J2501D01*
G01*
D39*
X127470857Y-99112895D02*
G75*
G03*
X127231797Y-98535736I-816257J-5D01*
G01*
D38*
X95175668Y-97504825D02*
G75*
G02*
X95022366Y-97441303I32J216825D01*
G01*
D40*
%TO.N,Net-(J2-Pad11)*%
X120889067Y-106919067D02*
X125199798Y-111229798D01*
X120650000Y-106341907D02*
X120650000Y-102455335D01*
X125438866Y-111806958D02*
X125438866Y-119729803D01*
X125199785Y-111229811D02*
G75*
G02*
X125438866Y-111806958I-577185J-577189D01*
G01*
X120889076Y-106919058D02*
G75*
G02*
X120650000Y-106341907I577124J577158D01*
G01*
%TO.N,Net-(J2-Pad10)*%
X117818866Y-101958338D02*
X117818866Y-119729803D01*
D41*
%TO.N,Net-(J3-Pad2)*%
X37193866Y-51693530D02*
X37193866Y-52396470D01*
X38463866Y-48934803D02*
X37432933Y-49965735D01*
X39463866Y-41918543D02*
X39463866Y-41611043D01*
X37193866Y-50542895D02*
X37193866Y-52948333D01*
D37*
X37808866Y-60322895D02*
X37808866Y-63484803D01*
D41*
X38443866Y-48846518D02*
X38443866Y-44502895D01*
D37*
X38866735Y-57641736D02*
X38287000Y-58221470D01*
D41*
X37193866Y-55206513D02*
X37193866Y-52366076D01*
X37432933Y-55783673D02*
X38866735Y-57217475D01*
D37*
X38047933Y-59745735D02*
X38047933Y-58798630D01*
D41*
X38682933Y-43006975D02*
X39246430Y-42443478D01*
X37432934Y-49965736D02*
G75*
G03*
X37193866Y-50542895I577166J-577164D01*
G01*
X38463886Y-48894783D02*
G75*
G02*
X38443866Y-48846518I48214J48283D01*
G01*
X38463869Y-48894800D02*
G75*
G02*
X38463866Y-48934803I-19969J-20000D01*
G01*
X38866740Y-57217470D02*
G75*
G02*
X38866734Y-57641735I-212140J-212130D01*
G01*
X37432938Y-55783668D02*
G75*
G02*
X37193866Y-55206513I577162J577168D01*
G01*
D37*
X38047966Y-58798630D02*
G75*
G02*
X38287000Y-58221470I816234J30D01*
G01*
D41*
X38443893Y-43584135D02*
G75*
G02*
X38682933Y-43006975I816207J35D01*
G01*
X39246408Y-42443456D02*
G75*
G03*
X39463866Y-41918543I-524908J524956D01*
G01*
D37*
X37808865Y-60322895D02*
G75*
G02*
X38047934Y-59745736I816235J-5D01*
G01*
D38*
%TO.N,+5V*%
X92418866Y-93524895D02*
X92418866Y-94329803D01*
X125738095Y-82727574D02*
X127231798Y-84221277D01*
D39*
X137930864Y-102664803D02*
X142873010Y-102664803D01*
D38*
X127822336Y-91789803D02*
X127170867Y-91789803D01*
X97325867Y-91789803D02*
X94153958Y-91789803D01*
X132212773Y-91789803D02*
X127822336Y-91789803D01*
X127470866Y-84798437D02*
X127470866Y-91489804D01*
X137630866Y-102364804D02*
X137630866Y-97207895D01*
X97325867Y-91789803D02*
X97977336Y-91789803D01*
X97625866Y-91489804D02*
X97625866Y-84798437D01*
X93576798Y-92028870D02*
X92657933Y-92947735D01*
D39*
X143450170Y-102425735D02*
X146923366Y-98952540D01*
D38*
X132789933Y-92028870D02*
X137391798Y-96630735D01*
X97386798Y-84221277D02*
X95893095Y-82727574D01*
X127170867Y-91789803D02*
X97977336Y-91789803D01*
X127470903Y-91489804D02*
G75*
G02*
X127170867Y-91789803I-300003J4D01*
G01*
X132212773Y-91789813D02*
G75*
G02*
X132789933Y-92028870I27J-816187D01*
G01*
X97625903Y-91489804D02*
G75*
G02*
X97325867Y-91789803I-300003J4D01*
G01*
X94153958Y-91789765D02*
G75*
G03*
X93576799Y-92028871I42J-816235D01*
G01*
X127231825Y-84221250D02*
G75*
G02*
X127470866Y-84798437I-577225J-577150D01*
G01*
X127470918Y-91489800D02*
G75*
G03*
X127822336Y-91789803I327582J27900D01*
G01*
X137930864Y-102664834D02*
G75*
G02*
X137630866Y-102364804I36J300034D01*
G01*
X92418865Y-93524895D02*
G75*
G02*
X92657934Y-92947736I816235J-5D01*
G01*
X97625828Y-84798437D02*
G75*
G03*
X97386798Y-84221277I-816228J37D01*
G01*
D39*
X142873010Y-102664816D02*
G75*
G03*
X143450169Y-102425734I-10J816216D01*
G01*
D38*
X97977340Y-91789855D02*
G75*
G02*
X97625866Y-91489804I-23840J327955D01*
G01*
X137630857Y-97207895D02*
G75*
G03*
X137391797Y-96630736I-816257J-5D01*
G01*
D37*
%TO.N,Net-(J4-Pad2)*%
X55598866Y-58492699D02*
X55598866Y-63484803D01*
D36*
X55879563Y-49353438D02*
X55879563Y-51935328D01*
X56118630Y-48776278D02*
X56686735Y-48208173D01*
X55879563Y-51935328D02*
X55879563Y-52638268D01*
X55879563Y-56941844D02*
X55879563Y-52638268D01*
D37*
X55837933Y-57915537D02*
X56051714Y-57701757D01*
D39*
X54463866Y-45053903D02*
X54463866Y-45391996D01*
X54463866Y-45053903D02*
X54463866Y-41611043D01*
D36*
X56686735Y-47783912D02*
X54583399Y-45680576D01*
X54583393Y-45680582D02*
G75*
G02*
X54463866Y-45391996I288607J288582D01*
G01*
X56051708Y-57701751D02*
G75*
G03*
X56051714Y-57357454I-172108J172151D01*
G01*
X56686692Y-48208130D02*
G75*
G03*
X56686734Y-47783913I-212092J212130D01*
G01*
D37*
X55598866Y-58492699D02*
G75*
G02*
X55837933Y-57915537I816234J-1D01*
G01*
D36*
X55879593Y-49353438D02*
G75*
G02*
X56118630Y-48776278I816207J38D01*
G01*
X56051741Y-57357427D02*
G75*
G02*
X55879563Y-56941844I415559J415627D01*
G01*
D41*
%TO.N,Net-(J5-Pad2)*%
X70616735Y-57217475D02*
X69182933Y-55783673D01*
X69162933Y-49356975D02*
X70401890Y-48118018D01*
D37*
X70432933Y-57925538D02*
X70828866Y-57529606D01*
D41*
X69463866Y-46252950D02*
X69463866Y-41611043D01*
X68943866Y-55206513D02*
X68943866Y-52028748D01*
D37*
X70193866Y-58502698D02*
X70193866Y-63484803D01*
D41*
X68923866Y-49934135D02*
X68923866Y-52346900D01*
X70746890Y-47874067D02*
X69702933Y-46830110D01*
X70746896Y-47874061D02*
G75*
G02*
X70696366Y-47996043I-50496J-50539D01*
G01*
X69182938Y-55783668D02*
G75*
G02*
X68943866Y-55206513I577162J577168D01*
G01*
X70401906Y-48118034D02*
G75*
G02*
X70696366Y-47996043I294494J-294466D01*
G01*
X68943829Y-52059142D02*
G75*
G03*
X68933866Y-52035000I-34129J42D01*
G01*
D37*
X70193867Y-58502698D02*
G75*
G02*
X70432934Y-57925539I816233J-2D01*
G01*
D41*
X69702907Y-46830136D02*
G75*
G02*
X69463866Y-46252950I577193J577136D01*
G01*
X68923893Y-49934135D02*
G75*
G02*
X69162933Y-49356975I816207J35D01*
G01*
X70616729Y-57641731D02*
G75*
G03*
X70616735Y-57217475I-212129J212131D01*
G01*
D37*
X70193867Y-58402698D02*
G75*
G02*
X70432934Y-57825539I816233J-2D01*
G01*
D40*
%TO.N,Net-(D11-Pad2)*%
X188862933Y-81215777D02*
X188862933Y-79982476D01*
X193680773Y-84169803D02*
X191816958Y-84169803D01*
X189102000Y-81792937D02*
X191239798Y-83930735D01*
X195039798Y-85190735D02*
X194257933Y-84408870D01*
X195278866Y-85767895D02*
X195278866Y-88239803D01*
X191239824Y-83930709D02*
G75*
G03*
X191816958Y-84169803I577176J577109D01*
G01*
X189101981Y-81792956D02*
G75*
G02*
X188862933Y-81215777I577219J577156D01*
G01*
X195278857Y-85767895D02*
G75*
G03*
X195039797Y-85190736I-816257J-5D01*
G01*
X194257940Y-84408863D02*
G75*
G03*
X193680773Y-84169803I-577140J-577137D01*
G01*
D37*
%TO.N,Net-(J13-Pad2)*%
X189573866Y-58502698D02*
X189573866Y-63484803D01*
D41*
X187927933Y-55148673D02*
X189996735Y-57217475D01*
X187907933Y-49991975D02*
X189781890Y-48118018D01*
X187688866Y-54571513D02*
X187688866Y-52303748D01*
X189573866Y-46982950D02*
X189573866Y-41418824D01*
X187668866Y-52285857D02*
X187668866Y-50233092D01*
D37*
X189812933Y-57925538D02*
X190208866Y-57529606D01*
D41*
X190126890Y-47874067D02*
X189812933Y-47560110D01*
X189996729Y-57641731D02*
G75*
G03*
X189996735Y-57217475I-212129J212131D01*
G01*
D37*
X189573867Y-58502698D02*
G75*
G02*
X189812934Y-57925539I816233J-2D01*
G01*
D41*
X189781906Y-48118034D02*
G75*
G02*
X190076366Y-47996043I294494J-294466D01*
G01*
X189573903Y-46982950D02*
G75*
G03*
X189812933Y-47560110I816197J-50D01*
G01*
D37*
X189573867Y-58402698D02*
G75*
G02*
X189812934Y-57825539I816233J-2D01*
G01*
D41*
X187688829Y-52334142D02*
G75*
G03*
X187678866Y-52310000I-34129J42D01*
G01*
X187668893Y-50569135D02*
G75*
G02*
X187907933Y-49991975I816207J35D01*
G01*
X187668894Y-52285857D02*
G75*
G03*
X187678866Y-52310000I34106J-43D01*
G01*
X190076366Y-47996034D02*
G75*
G03*
X190126890Y-47874067I34J71434D01*
G01*
X187688859Y-54571513D02*
G75*
G03*
X187927933Y-55148673I816241J13D01*
G01*
D37*
%TO.N,Net-(Q22-Pad3)*%
X197364798Y-56043673D02*
X198859798Y-57538673D01*
X196566202Y-56252269D02*
X195288866Y-57529606D01*
X197364798Y-56043673D02*
X197069798Y-56043673D01*
X199098866Y-78751710D02*
X199098866Y-58115833D01*
X197603866Y-55466513D02*
X197603866Y-52039606D01*
X198859798Y-79328870D02*
X197907254Y-80281414D01*
X198859801Y-79328873D02*
G75*
G03*
X199098866Y-78751710I-577201J577173D01*
G01*
X199098831Y-58115833D02*
G75*
G03*
X198859798Y-57538673I-816231J33D01*
G01*
X196566196Y-56252263D02*
G75*
G02*
X197069798Y-56043673I503604J-503637D01*
G01*
X197364800Y-56043675D02*
G75*
G03*
X197603866Y-55466513I-577200J577175D01*
G01*
D40*
%TO.N,Net-(J2-Pad12)*%
X122893866Y-104775773D02*
X122893866Y-101949803D01*
X127978866Y-110536958D02*
X127978866Y-119729803D01*
X127739798Y-109959798D02*
X123132933Y-105352933D01*
X127978884Y-110536958D02*
G75*
G03*
X127739798Y-109959798I-816284J-42D01*
G01*
X122893887Y-104775773D02*
G75*
G03*
X123132933Y-105352933I816213J-27D01*
G01*
D37*
%TO.N,Net-(R54-Pad1)*%
X192499798Y-75075735D02*
X189573866Y-72149803D01*
X192738866Y-75652895D02*
X192738866Y-80619803D01*
X192499804Y-75075729D02*
G75*
G02*
X192738866Y-75652895I-577204J-577171D01*
G01*
%TD*%
M02*
