M48
; DRILL file {KiCad (6.0.4)} date Sat May  7 15:39:19 2022
; FORMAT={-:-/ absolute / metric / decimal}
; #@! TF.CreationDate,2022-05-07T15:39:19+02:00
; #@! TF.GenerationSoftware,Kicad,Pcbnew,(6.0.4)
; #@! TF.FileFunction,Plated,1,2,PTH
FMAT,2
METRIC
; #@! TA.AperFunction,Plated,PTH,ViaDrill
T1C0.400
; #@! TA.AperFunction,Plated,PTH,ComponentDrill
T2C0.600
; #@! TA.AperFunction,Plated,PTH,ComponentDrill
T3C0.762
; #@! TA.AperFunction,Plated,PTH,ComponentDrill
T4C0.800
; #@! TA.AperFunction,Plated,PTH,ComponentDrill
T5C0.900
; #@! TA.AperFunction,Plated,PTH,ComponentDrill
T6C1.000
; #@! TA.AperFunction,Plated,PTH,ComponentDrill
T7C1.100
; #@! TA.AperFunction,Plated,PTH,ComponentDrill
T8C1.200
; #@! TA.AperFunction,Plated,PTH,ComponentDrill
T9C1.300
; #@! TA.AperFunction,Plated,PTH,ComponentDrill
T10C1.520
%
G90
G05
T1
X95.893Y-82.728
X125.738Y-82.728
T2
X38.484Y-47.996
X43.484Y-49.196
X56.899Y-47.996
X61.899Y-49.196
X70.869Y-47.996
X75.869Y-49.196
X85.474Y-47.996
X90.474Y-49.196
X100.714Y-47.996
X105.714Y-49.196
X115.319Y-47.996
X120.319Y-49.196
X129.289Y-47.996
X134.289Y-49.196
X147.069Y-47.996
X152.069Y-49.196
X160.404Y-47.996
X165.404Y-49.196
X175.644Y-47.996
X180.644Y-49.196
X181.481Y-109.53
X182.681Y-104.53
X190.249Y-47.996
X195.249Y-49.196
T3
X92.419Y-94.33
X92.419Y-119.73
X94.959Y-94.33
X94.959Y-119.73
X97.499Y-94.33
X97.499Y-119.73
X100.039Y-94.33
X100.039Y-119.73
X102.579Y-94.33
X102.579Y-119.73
X105.119Y-94.33
X105.119Y-119.73
X107.659Y-94.33
X107.659Y-119.73
X110.199Y-94.33
X110.199Y-119.73
X112.739Y-94.33
X112.739Y-119.73
X115.279Y-94.33
X115.279Y-119.73
X117.819Y-94.33
X117.819Y-119.73
X120.359Y-94.33
X120.359Y-119.73
X122.899Y-94.33
X122.899Y-119.73
X125.439Y-94.33
X125.439Y-119.73
X127.979Y-94.33
X127.979Y-119.73
T4
X37.809Y-63.485
X37.809Y-66.025
X37.809Y-69.61
X37.809Y-72.15
X41.609Y-80.62
X41.609Y-88.24
X43.934Y-52.07
X44.149Y-80.62
X44.149Y-88.24
X46.474Y-52.07
X46.689Y-80.62
X46.689Y-88.24
X55.599Y-63.485
X55.599Y-66.025
X55.599Y-69.61
X55.599Y-72.15
X58.764Y-80.62
X58.764Y-88.24
X61.304Y-80.62
X61.304Y-88.24
X62.349Y-52.07
X63.844Y-80.62
X63.844Y-88.24
X64.889Y-52.07
X70.194Y-63.485
X70.194Y-66.025
X70.194Y-69.61
X70.194Y-72.15
X73.359Y-80.62
X73.359Y-88.24
X75.899Y-80.62
X75.899Y-88.24
X76.319Y-52.07
X78.439Y-80.62
X78.439Y-88.24
X78.859Y-52.07
X84.744Y-69.59
X84.744Y-72.13
X84.799Y-63.485
X84.799Y-66.025
X87.964Y-80.62
X87.964Y-88.24
X90.504Y-80.62
X90.504Y-88.24
X90.924Y-52.07
X93.044Y-80.62
X93.044Y-88.24
X93.464Y-52.07
X100.039Y-63.485
X100.039Y-66.025
X100.053Y-69.627
X100.053Y-72.167
X103.214Y-80.63
X103.214Y-88.25
X105.754Y-80.63
X105.754Y-88.25
X106.164Y-52.07
X108.294Y-80.63
X108.294Y-88.25
X108.704Y-52.07
X114.644Y-63.485
X114.644Y-66.025
X114.689Y-69.61
X114.689Y-72.15
X117.852Y-80.632
X117.852Y-88.252
X120.392Y-80.632
X120.392Y-88.252
X120.769Y-52.07
X122.932Y-80.632
X122.932Y-88.252
X123.309Y-52.07
X129.249Y-63.485
X129.249Y-66.025
X129.249Y-69.61
X129.249Y-72.15
X132.705Y-80.62
X132.705Y-88.24
X133.469Y-52.07
X135.245Y-80.62
X135.245Y-88.24
X136.009Y-52.07
X137.785Y-80.62
X137.785Y-88.24
X144.489Y-63.485
X144.489Y-66.025
X144.523Y-69.61
X144.523Y-72.15
X147.686Y-80.62
X147.686Y-88.24
X150.226Y-80.62
X150.226Y-88.24
X151.884Y-52.07
X152.766Y-80.62
X152.766Y-88.24
X154.424Y-52.07
X160.364Y-63.485
X160.364Y-66.025
X160.364Y-69.61
X160.364Y-72.15
X163.529Y-80.62
X163.529Y-88.24
X165.854Y-52.07
X166.069Y-80.62
X166.069Y-88.24
X168.394Y-52.07
X168.609Y-80.62
X168.609Y-88.24
X175.604Y-63.485
X175.604Y-66.025
X175.604Y-69.61
X175.604Y-72.15
X178.769Y-80.62
X178.769Y-88.24
X181.094Y-52.07
X181.309Y-80.62
X181.309Y-88.24
X183.634Y-52.07
X183.849Y-80.62
X183.849Y-88.24
X189.574Y-63.485
X189.574Y-66.025
X189.574Y-69.61
X189.574Y-72.15
X192.739Y-80.62
X192.739Y-88.24
X195.064Y-52.07
X195.279Y-80.62
X195.279Y-88.24
X197.604Y-52.07
X197.819Y-80.62
X197.819Y-88.24
T5
X37.626Y-78.065
X37.626Y-80.605
X54.898Y-77.45
X54.898Y-79.99
X69.439Y-77.447
X69.439Y-79.987
X84.084Y-77.439
X84.084Y-79.979
X99.274Y-77.48
X99.274Y-80.02
X113.815Y-77.447
X113.815Y-79.987
X128.626Y-77.45
X128.626Y-79.99
X143.686Y-77.477
X143.686Y-80.017
X159.599Y-77.442
X159.599Y-79.982
X174.894Y-77.442
X174.894Y-79.982
X188.863Y-77.442
X188.863Y-79.982
T6
X37.194Y-52.32
X39.734Y-52.32
X55.88Y-52.287
X58.42Y-52.287
X68.944Y-52.32
X71.484Y-52.32
X83.549Y-52.32
X86.089Y-52.32
X94.954Y-101.95
X97.494Y-101.95
X98.789Y-52.32
X100.034Y-101.95
X101.329Y-52.32
X102.574Y-101.95
X105.114Y-101.95
X107.654Y-101.95
X110.194Y-101.95
X112.734Y-101.95
X113.394Y-52.32
X115.274Y-101.95
X115.934Y-52.32
X117.814Y-101.95
X120.354Y-101.95
X122.894Y-101.95
X127.364Y-52.32
X129.904Y-52.32
X145.779Y-52.32
X146.923Y-98.953
X146.923Y-114.353
X148.319Y-52.32
X158.479Y-52.32
X161.019Y-52.32
X173.084Y-52.32
X175.624Y-52.32
X176.323Y-104.153
X176.323Y-109.153
X187.689Y-52.32
X190.229Y-52.32
T7
X39.079Y-57.53
X41.619Y-57.53
X44.159Y-57.53
X56.224Y-57.53
X58.764Y-57.53
X61.304Y-57.53
X70.829Y-57.53
X73.369Y-57.53
X75.909Y-57.53
X85.434Y-57.53
X87.974Y-57.53
X90.514Y-57.53
X100.674Y-57.53
X103.214Y-57.53
X105.754Y-57.53
X115.279Y-57.53
X117.819Y-57.53
X120.359Y-57.53
X129.884Y-57.53
X132.424Y-57.53
X134.964Y-57.53
X145.124Y-57.53
X147.664Y-57.53
X150.204Y-57.53
X160.999Y-57.53
X163.539Y-57.53
X166.079Y-57.53
X176.239Y-57.53
X178.779Y-57.53
X181.319Y-57.53
X190.209Y-57.53
X192.749Y-57.53
X195.289Y-57.53
T8
X44.159Y-61.595
X44.159Y-76.595
X61.314Y-61.715
X61.314Y-76.715
X75.909Y-61.715
X75.909Y-76.715
X90.514Y-61.715
X90.514Y-76.715
X105.754Y-61.715
X105.754Y-76.715
X120.359Y-61.715
X120.359Y-76.715
X135.255Y-61.715
X135.255Y-76.715
X150.204Y-61.715
X150.204Y-76.715
X166.079Y-61.715
X166.079Y-76.715
X181.319Y-61.715
X181.319Y-76.715
X195.289Y-61.595
X195.289Y-76.595
T9
X39.465Y-41.611
X44.465Y-41.611
X54.465Y-41.611
X59.465Y-41.611
X69.465Y-41.611
X74.465Y-41.611
X84.465Y-41.611
X89.465Y-41.611
X99.465Y-41.611
X104.465Y-41.611
X114.465Y-41.611
X119.465Y-41.611
X129.465Y-41.611
X134.465Y-41.611
X139.065Y-102.665
X139.065Y-107.665
X144.465Y-41.611
X149.465Y-41.611
X159.465Y-41.611
X164.465Y-41.611
X174.465Y-41.611
X179.465Y-41.611
X187.564Y-95.129
X187.564Y-99.729
X187.564Y-111.029
X187.564Y-115.629
X189.465Y-41.611
X194.465Y-41.611
X195.397Y-94.657
X195.397Y-99.657
T10
X43.18Y-100.965
X43.18Y-106.045
X43.18Y-111.125
X195.924Y-110.475
X195.924Y-115.555
T0
M30
